<?xml version="1.0" encoding="UTF-8"?>
<svg id="Layer_1" data-name="Layer 1" xmlns="http://www.w3.org/2000/svg" viewBox="0 0 100 100">
  <defs>
    <style>
      .cls-1 {
        fill: #e6f5fd;
      }

      .cls-2 {
        fill: #9bd7f8;
      }

      .cls-3 {
        fill: #079cee;
      }

      .cls-4 {
        fill: #084062;
      }
    </style>
  </defs>
  <circle class="cls-1" cx="50" cy="50" r="50"/>
  <g>
    <g>
      <path class="cls-2" d="m38.51,61.56c4.46-2.33,12.06-4.7,19.96,0,8.27-3.69,14.01-11.81,14.01-21.24,0-12.5-10.09-22.71-22.78-23.32.18-1.39.19-2.72.1-3.92,1.01-.49,1.7-1.52,1.7-2.71,0-1.64-1.32-2.98-2.95-3.01,0,0,0,0,0,0,0,0,0,0,0,0-.02,0-.04,0-.06,0-1.66,0-3.01,1.35-3.01,3.01,0,1.28.79,2.36,1.91,2.8-.08,1.43-.02,2.71.12,3.82-12.8.5-23.01,10.75-23.01,23.33,0,9.43,5.75,17.56,14.02,21.25Z"/>
      <circle class="cls-2" cx="48.51" cy="78.53" r="14.12"/>
      <circle class="cls-2" cx="27.92" cy="66.18" r="4.71"/>
      <circle class="cls-2" cx="69.1" cy="66.18" r="4.71"/>
    </g>
    <path class="cls-3" d="m67.9,37.18c0,9.43-8.79,4.99-19.5,4.99s-19.28,4.45-19.28-4.99,8.68-17.08,19.39-17.08,19.39,7.65,19.39,17.08Z"/>
    <path class="cls-4" d="m67.75,39.08c.1-.56.15-1.19.15-1.9,0-9.43-8.68-17.08-19.39-17.08-7.96,0-14.8,4.23-17.79,10.28,1.85-.34,23.06-5.35,37.03,8.7Z"/>
    <path class="cls-4" d="m42.59,48.43h11.85c.71,0,1.07.84.59,1.36-2.12,2.27-7.09,6.05-13.02.01-.5-.51-.13-1.37.58-1.37Z"/>
  </g>
</svg>