<svg xmlns="http://www.w3.org/2000/svg" width="144.071" height="50" viewBox="0 0 144.071 50" preserveAspectRatio="none">
  <g id="Layer_2" data-name="Layer 2" transform="translate(144.071 50) rotate(180)">
    <g id="Layer_1" data-name="Layer 1">
      <g id="Amoeba" fill="var(--carousel-color)">
        <path id="Shape" d="M0,71.567c2.463-.593.394.089,8.566-.893,7.878-1.5,14.4-4.632,21.045-8.262,8.036-4.386,13.655-11.029,22.5-14.58a35.42,35.42,0,0,1,26.345.268,47.317,47.317,0,0,1,7.185,4.039c8.708,5.667,15.94,11.775,26.917,14.837,9.6,2.694,18.824,3.96,31.513,4.59Z" transform="translate(0 -21.567)"/>
        <path id="Shape-2" d="M147.112,0a4.2,4.2,0,1,1-4.2,4.2A4.2,4.2,0,0,1,147.112,0Z" transform="translate(-82.301)"/>
        <path id="Shape-3" d="M132.988,27.606a2.069,2.069,0,0,1-.494,2.878,1.9,1.9,0,0,1-.389.221,2.048,2.048,0,1,1,.882-3.1Z" transform="translate(-57.195 -12.705)"/>
      </g>
    </g>
  </g>
</svg>
