<svg id="Group_11993" data-name="Group 11993" xmlns="http://www.w3.org/2000/svg" xmlns:xlink="http://www.w3.org/1999/xlink" width="665" height="512.921" viewBox="0 0 665 512.921">
  <g id="Group_11998" data-name="Group 11998">
    <g id="Group_11997" data-name="Group 11997">
      <g id="Group_11996" data-name="Group 11996">
        <path id="Path_18787" data-name="Path 18787" d="M75.594,448.575H547.752a83.463,83.463,0,0,0,13.679-165.8q.112-2.164.111-4.329A87.14,87.14,0,0,0,474.5,191.412a85.619,85.619,0,0,0-18.156,1.939c-14.164-54.939-64.39-94.794-122.24-94.794a125.752,125.752,0,0,0-111.5,67A121.143,121.143,0,0,0,54.877,277.4a122.786,122.786,0,0,0,2.052,22.372,75.568,75.568,0,0,0,18.665,148.8" transform="translate(0 18.258)" fill="var(--cloud-accent)"/>
        <path id="Path_18788" data-name="Path 18788" d="M85.751,451.622H557.908a83.463,83.463,0,0,0,13.679-165.8q.112-2.164.111-4.329a87.14,87.14,0,0,0-87.047-87.034A85.62,85.62,0,0,0,466.5,196.4c-14.164-54.939-64.39-94.794-122.239-94.794a125.753,125.753,0,0,0-111.5,67A121.259,121.259,0,0,0,67.086,302.821a75.568,75.568,0,0,0,18.665,148.8" transform="translate(1.882 18.822)" fill="var(--cloud-color)"/>
        <path id="Path_18789" data-name="Path 18789" d="M103.539,62.335a3.245,3.245,0,1,0,4.233-1.776,3.247,3.247,0,0,0-4.233,1.776" transform="translate(19.136 11.174)" fill="#ff6f47"/>
        <path id="Path_18790" data-name="Path 18790" d="M484.973,361.1H100.043a9.2,9.2,0,0,1-9.2-9.2V100.172a9.2,9.2,0,0,1,9.2-9.2h384.93a9.2,9.2,0,0,1,9.2,9.2V351.9a9.2,9.2,0,0,1-9.2,9.2" transform="translate(16.829 16.852)" fill="#084f7a"/>
        <path id="Path_18791" data-name="Path 18791" d="M486.218,90.971H98.8a7.954,7.954,0,0,0-7.955,7.954v35.63H494.173V98.925a7.953,7.953,0,0,0-7.954-7.954" transform="translate(16.829 16.853)" fill="#084062"/>
        <path id="Path_18792" data-name="Path 18792" d="M468.038,339.354h-355.4a7.585,7.585,0,0,1-7.584-7.587V147.725a7.584,7.584,0,0,1,7.584-7.586h355.4a7.585,7.585,0,0,1,7.586,7.586V331.767a7.586,7.586,0,0,1-7.586,7.587" transform="translate(19.462 25.961)" fill="var(--cloud-color)"/>
        <line id="Line_63" data-name="Line 63" x1="232.108" transform="translate(142.831 300.044)" fill="none" stroke="#9a59c5" stroke-linecap="round" stroke-linejoin="round" stroke-width="5"/>
        <line id="Line_64" data-name="Line 64" x2="275.327" transform="translate(142.71 207.673)" fill="none" stroke="#079cee" stroke-linecap="round" stroke-linejoin="round" stroke-width="5"/>
        <line id="Line_65" data-name="Line 65" x2="232.229" transform="translate(142.71 230.766)" fill="none" stroke="#079cee" stroke-linecap="round" stroke-linejoin="round" stroke-width="5"/>
        <line id="Line_66" data-name="Line 66" x2="20.619" transform="translate(142.71 276.951)" fill="none" stroke="#00bf8c" stroke-linecap="round" stroke-linejoin="round" stroke-width="5"/>
        <line id="Line_67" data-name="Line 67" x2="195.991" transform="translate(178.948 276.951)" fill="none" stroke="#00bf8c" stroke-linecap="round" stroke-linejoin="round" stroke-width="5"/>
        <line id="Line_68" data-name="Line 68" x2="172.246" transform="translate(142.71 253.858)" fill="none" stroke="#ff6f47" stroke-linecap="round" stroke-linejoin="round" stroke-width="5"/>
        <line id="Line_69" data-name="Line 69" x1="83.814" transform="translate(328.63 253.858)" fill="none" stroke="#ff6f47" stroke-linecap="round" stroke-linejoin="round" stroke-width="5"/>
        <line id="Line_70" data-name="Line 70" x2="172.246" transform="translate(142.71 346.229)" fill="none" stroke="#9bd7f8" stroke-linecap="round" stroke-linejoin="round" stroke-width="5"/>
        <line id="Line_71" data-name="Line 71" x1="83.814" transform="translate(328.63 346.229)" fill="none" stroke="#9bd7f8" stroke-linecap="round" stroke-linejoin="round" stroke-width="5"/>
        <line id="Line_72" data-name="Line 72" x2="232.733" transform="translate(142.206 323.136)" fill="none" stroke="#9bd7f8" stroke-linecap="round" stroke-linejoin="round" stroke-width="5"/>
        <path id="Path_18793" data-name="Path 18793" d="M153.117,110.252a7.965,7.965,0,1,1,7.964,7.964,7.963,7.963,0,0,1-7.964-7.964" transform="translate(28.365 18.949)" fill="#077dbf"/>
        <path id="Path_18794" data-name="Path 18794" d="M128.927,110.252a7.965,7.965,0,1,1,7.964,7.964,7.963,7.963,0,0,1-7.964-7.964" transform="translate(23.884 18.949)" fill="#077dbf"/>
        <path id="Path_18795" data-name="Path 18795" d="M104.737,110.252a7.964,7.964,0,1,1,7.963,7.964,7.962,7.962,0,0,1-7.963-7.964" transform="translate(19.403 18.949)" fill="#077dbf"/>
        <line id="Line_73" data-name="Line 73" x2="20.619" transform="translate(142.71 184.58)" fill="none" stroke="#00bf8c" stroke-linecap="round" stroke-linejoin="round" stroke-width="5"/>
        <line id="Line_74" data-name="Line 74" x2="195.991" transform="translate(178.948 184.58)" fill="none" stroke="#00bf8c" stroke-linecap="round" stroke-linejoin="round" stroke-width="5"/>
        <g id="Group_11995" data-name="Group 11995" transform="translate(456.002 44.153)" opacity="0.2">
          <g id="Group_11994" data-name="Group 11994">
            <g id="Group_11993-2" data-name="Group 11993">
              <path id="Path_18796" data-name="Path 18796" d="M466.158,124.861H390.911a6.181,6.181,0,0,1-6.181-6.181V43.433a6.18,6.18,0,0,1,6.181-6.18h75.247a6.18,6.18,0,0,1,6.181,6.18V118.68a6.181,6.181,0,0,1-6.181,6.181" transform="translate(-384.73 -37.252)" fill="#084062"/>
            </g>
          </g>
        </g>
        <path id="Path_18797" data-name="Path 18797" d="M462.447,121.15H387.2a6.181,6.181,0,0,1-6.181-6.181V39.722a6.18,6.18,0,0,1,6.181-6.18h75.247a6.18,6.18,0,0,1,6.181,6.18v75.247a6.181,6.181,0,0,1-6.181,6.181" transform="translate(70.585 6.214)" fill="#cdebfb"/>
        <path id="Path_18798" data-name="Path 18798" d="M396.524,73.159a1.97,1.97,0,0,1-1.383-3.373l17-16.771,14.549,7.915,17.8-19.451a1.971,1.971,0,0,1,2.909,2.661l-19.88,21.726-14.689-7.991L397.907,72.59a1.957,1.957,0,0,1-1.383.569" transform="translate(73.092 7.565)" fill="#6ac3f4"/>
        <path id="Path_18799" data-name="Path 18799" d="M403.271,65.55a5.323,5.323,0,1,1-5.325-5.325,5.324,5.324,0,0,1,5.325,5.325Z" transform="translate(72.735 11.157)" fill="#38aff1"/>
        <path id="Path_18800" data-name="Path 18800" d="M415.61,53.592a5.323,5.323,0,1,1-5.327-5.325,5.324,5.324,0,0,1,5.327,5.325Z" transform="translate(75.02 8.942)" fill="#38aff1"/>
        <path id="Path_18801" data-name="Path 18801" d="M428.915,60.475a5.323,5.323,0,1,1-5.325-5.325,5.324,5.324,0,0,1,5.325,5.325Z" transform="translate(77.485 10.217)" fill="#38aff1"/>
        <path id="Path_18802" data-name="Path 18802" d="M442.841,45a5.323,5.323,0,1,1-5.325-5.324A5.325,5.325,0,0,1,442.841,45Z" transform="translate(80.065 7.349)" fill="#38aff1"/>
        <path id="Path_18803" data-name="Path 18803" d="M402.352,87.838h-6.8a1.466,1.466,0,0,0-1.466,1.466v12.22h9.732V89.3a1.466,1.466,0,0,0-1.466-1.466" transform="translate(73.005 16.272)" fill="#9a59c5"/>
        <path id="Path_18804" data-name="Path 18804" d="M415.542,77.182h-6.8a1.466,1.466,0,0,0-1.466,1.466V103.5h9.732V78.648a1.466,1.466,0,0,0-1.466-1.466" transform="translate(75.449 14.298)" fill="#00bf8c"/>
        <path id="Path_18805" data-name="Path 18805" d="M428.733,72.921h-6.8a1.467,1.467,0,0,0-1.466,1.467v29.9H430.2v-29.9a1.467,1.467,0,0,0-1.466-1.467" transform="translate(77.892 13.509)" fill="#ff6f47"/>
        <path id="Path_18806" data-name="Path 18806" d="M441.923,69.327h-6.8a1.466,1.466,0,0,0-1.466,1.466v34.16h9.732V70.793a1.466,1.466,0,0,0-1.466-1.466" transform="translate(80.336 12.843)" fill="#079cee"/>
        <path id="Path_18807" data-name="Path 18807" d="M302.283,398.3a9.015,9.015,0,1,0-8.169,9.788,9.015,9.015,0,0,0,8.169-9.788" transform="translate(52.665 72.267)" fill="#ec7853"/>
        <path id="Path_18808" data-name="Path 18808" d="M269.043,408.766a4.586,4.586,0,1,0-4.157,4.98,4.587,4.587,0,0,0,4.157-4.98" transform="translate(48.145 74.951)" fill="#1fa5ef"/>
        <path id="Path_18809" data-name="Path 18809" d="M252.365,390.988a2.8,2.8,0,1,0-2.534,3.035,2.8,2.8,0,0,0,2.534-3.035" transform="translate(45.717 71.96)" fill="#084062"/>
        <path id="Path_18810" data-name="Path 18810" d="M489.654,40.962a8.978,8.978,0,1,1-8.978-8.978,8.978,8.978,0,0,1,8.978,8.978" transform="translate(87.383 5.925)" fill="#cdebfb"/>
        <path id="Path_18811" data-name="Path 18811" d="M503.256,24.641a4.692,4.692,0,1,1-4.692-4.692,4.692,4.692,0,0,1,4.692,4.692" transform="translate(91.491 3.696)" fill="#cdebfb"/>
        <rect id="Rectangle_3577" data-name="Rectangle 3577" width="5.052" height="4.831" transform="translate(99.986 402.797)" fill="#161f40"/>
        <rect id="Rectangle_3578" data-name="Rectangle 3578" width="5.05" height="4.831" transform="translate(182.115 402.797)" fill="#161f40"/>
        <path id="Path_18812" data-name="Path 18812" d="M178.608,357.215h-98.6a5.344,5.344,0,0,1-5.27-5.271V254.883a5.344,5.344,0,0,1,5.27-5.271h98.6a5.344,5.344,0,0,1,5.271,5.271v97.061a5.075,5.075,0,0,1-5.271,5.271" transform="translate(13.845 46.241)" fill="#1b3f5f"/>
        <path id="Rectangle_3579" data-name="Rectangle 3579" d="M4.447,0H104.694a4.446,4.446,0,0,1,4.446,4.446v98.71a4.447,4.447,0,0,1-4.447,4.447H4.447A4.447,4.447,0,0,1,0,103.156V4.447A4.447,4.447,0,0,1,4.447,0Z" transform="translate(88.583 295.853)" fill="none" stroke="#1b3f5f" stroke-width="0.299"/>
        <rect id="Rectangle_3580" data-name="Rectangle 3580" width="109.14" height="2.196" transform="translate(88.803 324.84)" fill="#587d87"/>
        <rect id="Rectangle_3581" data-name="Rectangle 3581" width="109.14" height="2.196" transform="translate(88.803 322.643)" fill="#081f2c"/>
        <rect id="Rectangle_3582" data-name="Rectangle 3582" width="109.14" height="2.196" transform="translate(88.803 349.654)" fill="#081f2c"/>
        <rect id="Rectangle_3583" data-name="Rectangle 3583" width="109.14" height="2.196" transform="translate(88.803 376.665)" fill="#081f2c"/>
        <rect id="Rectangle_3584" data-name="Rectangle 3584" width="109.14" height="2.196" transform="translate(88.803 351.85)" fill="#587d87"/>
        <rect id="Rectangle_3585" data-name="Rectangle 3585" width="109.14" height="2.196" transform="translate(88.803 379.08)" fill="#587d87"/>
        <rect id="Rectangle_3586" data-name="Rectangle 3586" width="4.393" height="4.612" transform="translate(169.175 308.15)" fill="#56bb8e"/>
        <rect id="Rectangle_3587" data-name="Rectangle 3587" width="4.393" height="4.612" transform="translate(176.642 308.15)" fill="#78f7c6"/>
        <rect id="Rectangle_3588" data-name="Rectangle 3588" width="4.393" height="4.612" transform="translate(184.108 308.15)" fill="#56bb8e"/>
        <rect id="Rectangle_3589" data-name="Rectangle 3589" width="4.393" height="4.612" transform="translate(169.175 336.698)" fill="#fff"/>
        <rect id="Rectangle_3590" data-name="Rectangle 3590" width="4.393" height="4.612" transform="translate(176.642 336.698)" fill="#56bb8e"/>
        <rect id="Rectangle_3591" data-name="Rectangle 3591" width="4.393" height="4.612" transform="translate(184.108 336.698)" fill="#ec7853"/>
        <rect id="Rectangle_3592" data-name="Rectangle 3592" width="4.393" height="4.612" transform="translate(169.175 362.391)" fill="#ec7853"/>
        <rect id="Rectangle_3593" data-name="Rectangle 3593" width="4.393" height="4.612" transform="translate(176.642 362.391)" fill="#56bb8e"/>
        <rect id="Rectangle_3594" data-name="Rectangle 3594" width="4.393" height="4.612" transform="translate(184.108 362.391)" fill="#ec7853"/>
        <rect id="Rectangle_3595" data-name="Rectangle 3595" width="4.393" height="4.612" transform="translate(169.175 390.061)" fill="#fff"/>
        <rect id="Rectangle_3596" data-name="Rectangle 3596" width="4.393" height="4.612" transform="translate(176.642 390.061)" fill="#56bb8e"/>
        <rect id="Rectangle_3597" data-name="Rectangle 3597" width="4.393" height="4.612" transform="translate(184.108 390.061)" fill="#ec7853"/>
        <rect id="Rectangle_3598" data-name="Rectangle 3598" width="65.659" height="8.784" transform="translate(96.928 305.735)" fill="#ccf2e8"/>
        <rect id="Rectangle_3599" data-name="Rectangle 3599" width="65.659" height="8.784" transform="translate(96.928 334.721)" fill="#7fdfc5"/>
        <rect id="Rectangle_3600" data-name="Rectangle 3600" width="65.659" height="8.784" transform="translate(96.928 361.293)" fill="#19c597"/>
        <rect id="Rectangle_3601" data-name="Rectangle 3601" width="65.659" height="8.784" transform="translate(96.928 387.645)" fill="#028663"/>
        <path id="Path_18813" data-name="Path 18813" d="M35.434,370.453H113.9a20.58,20.58,0,1,0,.212-41.16H113.9a20.419,20.419,0,0,0-3.634.326,27.509,27.509,0,0,0-52.069-4.363A20.563,20.563,0,0,0,33.319,343.3a13.661,13.661,0,0,0,2.116,27.152Z" transform="translate(4.039 57.151)" fill="var(--cloud-accent)"/>
        <path id="Path_18814" data-name="Path 18814" d="M41.4,374.322h83.36a21.865,21.865,0,1,0,0-43.73,21.493,21.493,0,0,0-3.859.346A29.226,29.226,0,0,0,65.582,326.3a21.844,21.844,0,0,0-26.428,19.171,14.511,14.511,0,0,0,2.25,28.847Z" transform="translate(4.982 57.151)" fill="var(--cloud-color)"/>
        <path id="Path_18815" data-name="Path 18815" d="M564.776,234.3V181.859a9.956,9.956,0,0,0-9.958-9.9H475.065a9.958,9.958,0,0,0-9.976,9.9V287.783a9.958,9.958,0,0,0,9.957,9.958h79.771a9.959,9.959,0,0,0,9.958-9.958Z" transform="translate(86.159 31.856)" fill="#077dbf"/>
        <path id="Path_18816" data-name="Path 18816" d="M561.541,232.283a17.965,17.965,0,0,1,1.938-7.052c3.1-5.81,14.819-15.381,3.37-19.137a7.051,7.051,0,0,1-5.424-6.123c-.755-5.812,0-12.456,0-18.421a9.686,9.686,0,0,0-9.687-9.687H474.776a9.687,9.687,0,0,0-9.687,9.687V284.043a9.686,9.686,0,0,0,9.687,9.687h77.139a9.686,9.686,0,0,0,9.685-9.687v-22.2c0-5.812-.116-11.506,0-17.261.039-3.95-.446-8.213-.058-12.3" transform="translate(86.159 31.838)" fill="#079cee"/>
        <path id="Path_18817" data-name="Path 18817" d="M473.262,261.918a3.138,3.138,0,0,0,.951,2.266l17.434,17.435a3.274,3.274,0,0,0,2.285.929H550.4V180.034H473.262Z" transform="translate(87.673 33.352)" fill="#fff"/>
        <path id="Path_18818" data-name="Path 18818" d="M492.478,256.663a6.432,6.432,0,0,0-6.432-6.431H473.474a3.167,3.167,0,0,0,.658.948l17.436,17.436a3.375,3.375,0,0,0,.948.638V256.663Z" transform="translate(87.712 46.356)" fill="#d0e7f6"/>
        <path id="Path_18819" data-name="Path 18819" d="M528.777,170.653a6.626,6.626,0,0,1-4.57-4.573,14.47,14.47,0,0,0-27.818,0,6.627,6.627,0,0,1-4.573,4.573,14.486,14.486,0,0,0-10.382,13.79v9.687h57.8v-9.687a14.467,14.467,0,0,0-10.461-13.79m-18.421,4.338a4.824,4.824,0,1,1,4.823-4.823,4.822,4.822,0,0,1-4.823,4.823" transform="translate(89.187 28.825)" fill="#38aff1"/>
        <rect id="Rectangle_3602" data-name="Rectangle 3602" width="57.805" height="9.687" transform="translate(570.621 213.386)" fill="#d0e7f6"/>
        <path id="Path_18820" data-name="Path 18820" d="M558.515,198.045a2.324,2.324,0,1,1-2.324,2.324,2.324,2.324,0,0,1,2.324-2.324" transform="translate(103.036 36.688)" fill="#079cee"/>
        <path id="Path_18821" data-name="Path 18821" d="M560.263,193.845a1.162,1.162,0,1,1-1.163,1.163,1.162,1.162,0,0,1,1.163-1.163" transform="translate(103.575 35.91)" fill="#079cee"/>
        <path id="Path_18822" data-name="Path 18822" d="M497.948,204.424a7.272,7.272,0,1,1-7.271-7.272,7.272,7.272,0,0,1,7.271,7.272" transform="translate(89.552 36.523)" fill="#19c597"/>
        <path id="Path_18823" data-name="Path 18823" d="M487.027,203.454l2.077,2.077,3.88-3.879" transform="translate(90.223 37.356)" fill="none" stroke="#fff" stroke-linecap="round" stroke-linejoin="round" stroke-width="0.916"/>
        <path id="Path_18824" data-name="Path 18824" d="M497.948,221.378a7.272,7.272,0,1,1-7.271-7.272,7.272,7.272,0,0,1,7.271,7.272" transform="translate(89.552 39.664)" fill="#19c597"/>
        <path id="Path_18825" data-name="Path 18825" d="M487.027,220.407l2.077,2.077,3.88-3.879" transform="translate(90.223 40.497)" fill="none" stroke="#fff" stroke-linecap="round" stroke-linejoin="round" stroke-width="0.916"/>
        <path id="Path_18826" data-name="Path 18826" d="M497.948,238.331a7.272,7.272,0,1,1-7.271-7.272,7.272,7.272,0,0,1,7.271,7.272" transform="translate(89.552 42.804)" fill="#19c597"/>
        <path id="Path_18827" data-name="Path 18827" d="M487.027,237.618l2.077,2.077,3.88-3.879" transform="translate(90.223 43.685)" fill="none" stroke="#fff" stroke-linecap="round" stroke-linejoin="round" stroke-width="0.916"/>
        <line id="Line_75" data-name="Line 75" x2="29.168" transform="translate(595.746 240.953)" fill="none" stroke="#084062" stroke-linecap="round" stroke-width="2"/>
        <line id="Line_76" data-name="Line 76" x2="29.168" transform="translate(595.746 261.041)" fill="none" stroke="#084062" stroke-linecap="round" stroke-width="2"/>
        <line id="Line_77" data-name="Line 77" x2="29.168" transform="translate(595.746 281.44)" fill="none" stroke="#084062" stroke-linecap="round" stroke-width="2"/>
        <path id="Path_18828" data-name="Path 18828" d="M378.123,427.25H327.774a15.3,15.3,0,0,1-15.294-15.293V348.621a15.3,15.3,0,0,1,15.294-15.294h50.348a15.294,15.294,0,0,1,15.293,15.294v63.335a15.294,15.294,0,0,1-15.293,15.293" transform="translate(57.888 61.75)" fill="#ec7853"/>
        <rect id="Rectangle_3603" data-name="Rectangle 3603" width="33.256" height="2.278" transform="translate(380.497 404.561)" fill="#fff"/>
        <rect id="Rectangle_3604" data-name="Rectangle 3604" width="13.103" height="2.278" transform="translate(415.784 404.561)" fill="#fff"/>
        <rect id="Rectangle_3605" data-name="Rectangle 3605" width="14.791" height="2.248" transform="translate(380.496 409.412)" fill="#fff"/>
        <rect id="Rectangle_3606" data-name="Rectangle 3606" width="8.132" height="2.248" transform="translate(397.125 409.412)" fill="#fff"/>
        <rect id="Rectangle_3607" data-name="Rectangle 3607" width="16.778" height="2.248" transform="translate(407.006 409.412)" fill="#fff"/>
        <rect id="Rectangle_3608" data-name="Rectangle 3608" width="17.798" height="2.278" transform="translate(380.498 414.202)" fill="#fff"/>
        <rect id="Rectangle_3609" data-name="Rectangle 3609" width="28.561" height="2.278" transform="translate(400.326 414.202)" fill="#fff"/>
        <rect id="Rectangle_3610" data-name="Rectangle 3610" width="4.897" height="2.248" transform="translate(380.496 419.051)" fill="#fff"/>
        <rect id="Rectangle_3611" data-name="Rectangle 3611" width="18.027" height="2.248" transform="translate(387.23 419.051)" fill="#fff"/>
        <rect id="Rectangle_3612" data-name="Rectangle 3612" width="16.778" height="2.248" transform="translate(407.006 419.051)" fill="#fff"/>
        <rect id="Rectangle_3613" data-name="Rectangle 3613" width="33.256" height="2.278" transform="translate(380.497 424.427)" fill="#fff"/>
        <rect id="Rectangle_3614" data-name="Rectangle 3614" width="13.103" height="2.278" transform="translate(415.784 424.427)" fill="#fff"/>
        <rect id="Rectangle_3615" data-name="Rectangle 3615" width="14.791" height="2.248" transform="translate(380.496 429.276)" fill="#fff"/>
        <rect id="Rectangle_3616" data-name="Rectangle 3616" width="8.132" height="2.248" transform="translate(397.125 429.276)" fill="#fff"/>
        <rect id="Rectangle_3617" data-name="Rectangle 3617" width="16.778" height="2.248" transform="translate(407.006 429.276)" fill="#fff"/>
        <rect id="Rectangle_3618" data-name="Rectangle 3618" width="17.798" height="2.278" transform="translate(380.498 434.065)" fill="#fff"/>
        <rect id="Rectangle_3619" data-name="Rectangle 3619" width="28.561" height="2.278" transform="translate(400.326 434.065)" fill="#fff"/>
        <rect id="Rectangle_3620" data-name="Rectangle 3620" width="4.897" height="2.248" transform="translate(380.496 438.917)" fill="#fff"/>
        <rect id="Rectangle_3621" data-name="Rectangle 3621" width="18.027" height="2.248" transform="translate(387.23 438.917)" fill="#fff"/>
        <rect id="Rectangle_3622" data-name="Rectangle 3622" width="16.778" height="2.248" transform="translate(407.006 438.917)" fill="#fff"/>
        <rect id="Rectangle_3623" data-name="Rectangle 3623" width="33.256" height="2.278" transform="translate(380.497 444.193)" fill="#fff"/>
        <rect id="Rectangle_3624" data-name="Rectangle 3624" width="13.103" height="2.278" transform="translate(415.784 444.193)" fill="#fff"/>
        <rect id="Rectangle_3625" data-name="Rectangle 3625" width="14.791" height="2.248" transform="translate(380.496 449.043)" fill="#fff"/>
        <rect id="Rectangle_3626" data-name="Rectangle 3626" width="8.132" height="2.248" transform="translate(397.125 449.043)" fill="#fff"/>
        <rect id="Rectangle_3627" data-name="Rectangle 3627" width="16.778" height="2.248" transform="translate(407.006 449.043)" fill="#fff"/>
        <rect id="Rectangle_3628" data-name="Rectangle 3628" width="17.798" height="2.278" transform="translate(380.498 453.833)" fill="#fff"/>
        <rect id="Rectangle_3629" data-name="Rectangle 3629" width="28.561" height="2.278" transform="translate(400.326 453.833)" fill="#fff"/>
        <rect id="Rectangle_3630" data-name="Rectangle 3630" width="4.897" height="2.248" transform="translate(380.496 458.684)" fill="#fff"/>
        <rect id="Rectangle_3631" data-name="Rectangle 3631" width="18.027" height="2.248" transform="translate(387.23 458.684)" fill="#fff"/>
        <rect id="Rectangle_3632" data-name="Rectangle 3632" width="16.778" height="2.248" transform="translate(407.006 458.684)" fill="#fff"/>
        <rect id="Rectangle_3633" data-name="Rectangle 3633" width="33.256" height="2.278" transform="translate(380.497 467.417)" fill="#fff"/>
        <rect id="Rectangle_3634" data-name="Rectangle 3634" width="13.103" height="2.278" transform="translate(415.784 467.417)" fill="#fff"/>
        <rect id="Rectangle_3635" data-name="Rectangle 3635" width="14.791" height="2.248" transform="translate(380.496 472.267)" fill="#fff"/>
        <rect id="Rectangle_3636" data-name="Rectangle 3636" width="8.132" height="2.248" transform="translate(397.125 472.267)" fill="#fff"/>
        <rect id="Rectangle_3637" data-name="Rectangle 3637" width="16.778" height="2.248" transform="translate(407.006 472.267)" fill="#fff"/>
        <rect id="Rectangle_3638" data-name="Rectangle 3638" width="17.798" height="2.278" transform="translate(380.498 477.058)" fill="#fff"/>
        <rect id="Rectangle_3639" data-name="Rectangle 3639" width="28.561" height="2.278" transform="translate(400.326 477.058)" fill="#fff"/>
        <path id="Path_18829" data-name="Path 18829" d="M396.27,445.4H345.921A15.3,15.3,0,0,1,330.627,430.1V366.768a15.3,15.3,0,0,1,15.294-15.295H396.27a15.294,15.294,0,0,1,15.293,15.295V430.1A15.294,15.294,0,0,1,396.27,445.4" transform="translate(61.249 65.111)" fill="#4699e6"/>
        <path id="Path_18830" data-name="Path 18830" d="M396.647,448.188H346.3A17.728,17.728,0,0,1,328.59,430.48V367.144A17.728,17.728,0,0,1,346.3,349.435h50.348a17.728,17.728,0,0,1,17.708,17.709V430.48a17.728,17.728,0,0,1-17.708,17.708M346.3,354.264a12.9,12.9,0,0,0-12.88,12.88V430.48a12.9,12.9,0,0,0,12.88,12.879h50.348a12.894,12.894,0,0,0,12.878-12.879V367.144a12.894,12.894,0,0,0-12.878-12.88Z" transform="translate(60.872 64.734)" fill="#fff"/>
        <path id="Path_18831" data-name="Path 18831" d="M369.46,366.8a30,30,0,1,0,30,30,30.036,30.036,0,0,0-30-30m0,5a25,25,0,1,1-25,25,24.963,24.963,0,0,1,25-25m10.469,10.155a1.368,1.368,0,0,0-.939.625l-12.266,18.207-5.78-5.7a1.286,1.286,0,0,0-1.956-.311l-2.265,2.265a1.9,1.9,0,0,0,0,2.265l8.751,8.751a4.5,4.5,0,0,0,1.954.78,2.25,2.25,0,0,0,1.8-1.016l15-22.031c.5-.751.215-1.454-.78-1.954l-2.5-1.794a1.8,1.8,0,0,0-1.015-.081" transform="translate(62.885 67.95)" fill="#fff"/>
        <path id="Path_18832" data-name="Path 18832" d="M88.857,19.871A4.377,4.377,0,0,0,85.73,18.4c-9.22-.236-20.907-10.1-28.62-13.982C52.334,2.041,49.192.455,46.821.046a5.668,5.668,0,0,0-1.445,0C43,.471,39.862,2.041,35.1,4.429,27.374,8.293,15.7,18.159,6.466,18.4A4.375,4.375,0,0,0,3.34,19.871a4.747,4.747,0,0,0-1.178,3.363C4.156,63.54,18.608,88.485,43.977,102.968a4.154,4.154,0,0,0,4.241,0,84.592,84.592,0,0,0,20.2-16.4c2.336-2.526,5.528-3.449,8.746-4.285,2.032-.529,7.391-1.6,6.84-4.722-.287-1.623-2.765-2.361-3.684-3.694-1.341-1.949-.881-4.191.084-6.217,6.072-12.757,8.68-25.484,9.609-44.413a4.656,4.656,0,0,0-1.162-3.363" transform="translate(0.4 0)" fill="#079cee"/>
        <path id="Path_18833" data-name="Path 18833" d="M50.937,60.595a14.738,14.738,0,0,1-2.008-5.36l-.732.514c-1.351.938-4.191,5.7-11.959-5.475s-2.316-12.175-.964-13.1l1.857-1.3c.109-.075.2-.156.3-.236A12.682,12.682,0,0,1,31.1,28.881a12.377,12.377,0,0,1-.263-7.832,5.535,5.535,0,0,0-.824.468l-1.666,1.165a14.381,14.381,0,0,0-6.6,8.859c-1.565,5.935.057,11.6,2.969,16.835.449.81.922,1.606,1.41,2.392a17.931,17.931,0,0,1,1.345,2.119c.652,1.5-1.164,2.961-1.716,4.2-.654,1.46.488,2.366,1.786,2.779,2.387.759,5.313.847,7.148,2.794,4.5,4.768,9.315,7.263,14.072,7.727a14.432,14.432,0,0,0,10.6-3.1l.2-.141a15.566,15.566,0,0,1-8.625-6.552" transform="translate(3.916 3.899)" fill="#9bd7f8"/>
        <path id="Path_18834" data-name="Path 18834" d="M29.664,28.935A12.686,12.686,0,0,0,36,35.693c2.709-2.139,1.986-5.228.363-8.5l-1.015-2.054C33.811,22.063,32.025,19.88,29.4,21.1a12.393,12.393,0,0,0,.263,7.832" transform="translate(5.352 3.845)" fill="#83cdf6"/>
        <path id="Path_18835" data-name="Path 18835" d="M55.691,53.468,54.13,51.8c-2.595-2.758-5.338-4.556-8.43-2.419l-1.114.781a14.764,14.764,0,0,0,2.008,5.357,15.571,15.571,0,0,0,8.624,6.552l1.47-1.026c3.077-2.137,1.6-4.816-1-7.579" transform="translate(8.26 8.974)" fill="#83cdf6"/>
        <path id="Path_18836" data-name="Path 18836" d="M24.016,51.507A1.487,1.487,0,1,1,22.7,49.869a1.486,1.486,0,0,1,1.317,1.638" transform="translate(3.9 9.237)" fill="#9bd7f8"/>
        <path id="Path_18837" data-name="Path 18837" d="M20.32,49.3a.685.685,0,1,1-.607-.755.683.683,0,0,1,.607.755" transform="translate(3.511 8.992)" fill="#9bd7f8"/>
        <path id="Path_18838" data-name="Path 18838" d="M98.171,69.574a2.042,2.042,0,1,1-2.042-2.042,2.04,2.04,0,0,1,2.042,2.042" transform="translate(17.43 12.51)" fill="#00bf8c"/>
        <path id="Path_18839" data-name="Path 18839" d="M87.956,66.486a4.431,4.431,0,1,1-4.432-4.43,4.43,4.43,0,0,1,4.432,4.43" transform="translate(14.652 11.496)" fill="#079cee"/>
        <path id="Path_18840" data-name="Path 18840" d="M117.565,72.785a5.232,5.232,0,1,0,6.824-2.864,5.232,5.232,0,0,0-6.824,2.864" transform="translate(21.707 12.881)" fill="#9a59c5"/>
      </g>
    </g>
  </g>
</svg>
