<?xml version="1.0" encoding="UTF-8"?> <!-- Generator: Adobe Illustrator 25.1.0, SVG Export Plug-In . SVG Version: 6.00 Build 0) --> <svg xmlns="http://www.w3.org/2000/svg" xmlns:xlink="http://www.w3.org/1999/xlink" version="1.1" id="Layer_1" x="0px" y="0px" viewBox="0 0 190 40" style="enable-background:new 0 0 190 40;" xml:space="preserve"> <style type="text/css"> .st0{fill:#079CEE;} </style> <path class="st0" d="M52.6,14.5c-2.1,0-4,0.9-5.4,2.5V7h-1.6v22c1.7,0.7,3.5,1.1,5.3,1.1c2.3,0.1,4.5-0.7,6.2-2.2 c1.6-1.6,2.4-3.8,2.3-6c0.1-1.9-0.6-3.8-1.9-5.3C56.3,15.2,54.5,14.5,52.6,14.5z M55.7,26.7c-1.3,1.3-3,1.9-4.8,1.9 c-1.3,0-2.5-0.3-3.7-0.7v-9.1c1.7-1.9,3.4-2.9,5.2-2.9c1.4,0,2.8,0.6,3.7,1.7c1,1.2,1.5,2.8,1.5,4.4C57.7,23.8,57,25.5,55.7,26.7z M85.8,14.5c-2.1,0-4,1.1-5,2.9h-0.1v-2.6h-1.6v15.1h1.6V19.3c1.3-2.1,2.9-3.2,4.9-3.2c2.7,0,4.1,1.7,4.1,5.2v8.6h1.6v-9.2 c0.1-1.7-0.4-3.3-1.5-4.5C88.8,15.1,87.3,14.5,85.8,14.5z M139.6,29.9h1.6v-15h-1.6V29.9z M139.6,9.9h1.6V7h-1.6V9.9z M187.6,16.2 c-1.1-1.1-2.5-1.7-4.1-1.6c-2.1,0-4,1.1-5,2.9h-0.1V7h-1.6v22.9h1.6V19.3c1.3-2.1,3-3.2,5-3.2c2.7,0,4.1,1.7,4.1,5.2v8.6h1.7v-9.2 C189.3,19,188.8,17.4,187.6,16.2L187.6,16.2z M73.4,28.6c-0.2,0-0.4-0.3-0.4-0.8v-9.3c0.1-1.1-0.4-2.2-1.3-2.9c-1-0.7-2.2-1.1-3.4-1 c-1.7,0.1-3.4,0.6-4.9,1.6v1.6c1.3-1.1,2.9-1.8,4.6-1.9c2.2,0,3.4,1,3.4,3.1v1.9c-2.3,0-4.5,0.6-6.5,1.6c-1.4,0.8-2.3,2.3-2.3,3.9 c0,1,0.4,2,1.2,2.7c0.8,0.8,1.8,1.2,2.9,1.1c1.7-0.1,3.4-0.7,4.7-1.9c0,0.5,0.1,1,0.3,1.5c0.2,0.2,0.4,0.4,0.7,0.4h0.1 c1,0,2.1-0.3,3-0.8v-1.6C74.9,28.2,74.1,28.4,73.4,28.6L73.4,28.6z M71.4,26.9c-1.1,1.2-2.6,1.8-4.2,1.9c-0.8,0-1.5-0.2-2.2-0.7 c-0.5-0.4-0.9-1.1-0.8-1.8c0-1.3,0.8-2.5,2-3.1c1.6-0.9,3.4-1.2,5.2-1.1L71.4,26.9z M130.8,27.5L130.8,27.5 c-0.1,0.4-0.3,0.8-0.6,1.1c-0.3-0.3-0.5-0.7-0.6-1.1L126.2,17c-0.6-1.8-1.4-2.2-2-2.2s-1.4,0.4-2,2.2l-3.5,10.5 c-0.1,0.4-0.3,0.8-0.6,1.1c-0.3-0.3-0.5-0.7-0.6-1.1l0,0l-3.9-12.6H112l4,13l0,0c0.6,1.8,1.4,2.2,2,2.2l0,0c0.6,0,1.4-0.4,2-2.2 l3.5-10.5c0.1-0.4,0.3-0.8,0.6-1.1l0,0c0.3,0.3,0.5,0.7,0.6,1.1l3.5,10.6c0.6,1.8,1.4,2.2,2,2.2l0,0c0.6,0,1.4-0.4,2-2.2l0,0 l4.1-13.1h-1.6L130.8,27.5z M168.2,28c-0.3-0.9-0.4-1.9-0.4-2.8v-9h4.2v-1.3h-4.2v-5c0,0-1.6,0-1.6,2.1v2.9h-4v1.3h4.1V27 c0,0.9,0.3,1.8,1,2.4c0.7,0.6,1.6,0.9,2.5,0.9c1.1,0,2.2-0.3,3.1-0.8v-1.6c-0.9,0.4-1.8,0.7-2.8,0.7C169.1,28.6,168.5,28.4,168.2,28 z M107.1,15.8c-1.4-0.7-2.9-1.2-4.5-1.2c-2-0.1-4,0.8-5.4,2.2c-1.5,1.5-2.3,3.5-2.2,5.6c-0.1,2.1,0.7,4.1,2.2,5.6 c1.4,1.5,3.4,2.3,5.4,2.3c1.6,0,3.2-0.5,4.5-1.5V30h1.6V7h-1.6V15.8z M107.1,27.3c-1.2,0.9-2.6,1.3-4.1,1.4 c-1.7,0.1-3.3-0.6-4.5-1.8c-1.2-1.2-1.9-2.8-1.8-4.5c-0.1-1.6,0.5-3.2,1.7-4.4c1.1-1.2,2.7-1.8,4.3-1.7c1.6,0,3.1,0.5,4.4,1.4 L107.1,27.3z M157.5,15.8c-1.4-0.7-2.9-1.2-4.5-1.2c-2.1-0.1-4,0.8-5.4,2.2c-1.5,1.5-2.2,3.5-2.2,5.6c-0.1,2.1,0.8,4.1,2.2,5.6 c1.4,1.5,3.4,2.3,5.4,2.3c1.6,0,3.2-0.5,4.5-1.5V30h1.6V7h-1.6V15.8z M157.5,27.3c-1.2,0.9-2.6,1.3-4.1,1.4c-1.7,0-3.3-0.6-4.5-1.8 c-1.2-1.2-1.8-2.9-1.8-4.5c-0.1-1.6,0.5-3.2,1.7-4.4c1.1-1.2,2.7-1.8,4.3-1.7c1.6,0,3.1,0.5,4.4,1.4V27.3z"></path> <path class="st0" d="M27.2,10.1c-1.4-0.3-1.6,0.4-1,1.8c3.2,7,0.4,13.9-2.7,15.6c-0.1-0.2-0.1-0.5-0.1-0.7c-0.4-3.3-1.6-6.2-2.5-6.2 c-0.7,0-0.3,2.9-0.4,5.4c-1.1-0.7-1.8-1.1-3-0.9c-1.7,0.3-4,3.9-4.1,3.4c-0.7-4.2,0.9-10.7,3.2-11.4c0.4-0.1,1,0.4,2.3,0.9 c1.1,0.4,1-0.7,0.5-1.1c-1.6-1.2-3.7-1.3-5.5-0.4c-3.4,1.7-4.9,9.2-3.1,12.3c0.7,1.3,2,2.1,3.4,2.4c2.3,0.3,3-0.2,4.8-2.5 c0.3,0.2,0.6,0.4,0.9,0.4c-1.5,4.7-7.1,8.6-8.3,7.9c-5.9-4-4.3-16.8-0.1-28c0.8-2,1.4-4.1,2-6.2c0.6-3-3.2-3.6-5.8-1.4 C5.8,3,4,6.7,2.5,11.1C-2.2,25-0.2,36.7,8.3,39.2c9.8,2.9,14.5-3.2,15.2-9.3c0.6,0.1,1.2,0.1,1.8,0.1c3-0.1,7.3-1.6,8.6-8.2 C34.9,16.8,31.6,11,27.2,10.1z"></path> </svg> 