<svg id="svg" version="1.1" xmlns="http://www.w3.org/2000/svg" xmlns:xlink="http://www.w3.org/1999/xlink" width="400" height="206.49149922720247" viewBox="0, 0, 400,206.49149922720247"><g id="svgg"><path id="path0" d="M182.250 0.309 C 180.778 0.682,179.667 1.338,179.667 1.833 C 179.667 1.925,179.606 2.000,179.531 2.000 C 179.239 2.000,178.166 4.802,178.167 5.563 L 178.167 5.917 189.625 5.963 L 201.083 6.010 202.458 6.456 C 203.215 6.701,203.833 6.975,203.833 7.065 C 203.833 7.204,202.041 16.433,200.982 21.750 C 200.799 22.667,200.470 24.354,200.250 25.500 C 200.030 26.646,199.393 29.908,198.835 32.750 C 198.276 35.592,197.490 39.608,197.088 41.674 C 196.686 43.741,196.308 45.626,196.248 45.863 L 196.140 46.295 198.362 46.403 C 199.584 46.463,202.683 46.621,205.250 46.753 C 207.817 46.886,212.429 47.073,215.500 47.168 C 239.455 47.912,249.104 50.337,256.273 57.417 C 262.979 64.039,264.333 72.238,261.421 88.583 C 260.704 92.608,258.917 101.887,257.261 110.191 C 256.121 115.907,254.587 123.621,253.851 127.333 C 252.510 134.097,250.343 144.759,250.023 146.167 C 249.929 146.579,249.737 147.442,249.597 148.083 C 247.847 156.072,247.927 155.189,248.958 155.064 C 250.464 154.882,251.533 154.053,252.699 152.167 C 253.718 150.519,253.864 150.038,255.081 144.333 C 255.228 143.646,255.450 142.633,255.575 142.083 C 255.700 141.533,255.930 140.483,256.086 139.750 C 256.242 139.017,256.470 137.967,256.592 137.417 C 256.715 136.867,256.900 135.929,257.005 135.333 C 257.110 134.737,257.308 133.725,257.444 133.083 C 257.799 131.421,258.097 129.963,258.418 128.333 C 258.571 127.554,258.795 126.429,258.917 125.833 C 259.038 125.237,259.263 124.112,259.416 123.333 C 259.569 122.554,259.797 121.429,259.924 120.833 C 260.192 119.568,260.608 117.470,260.849 116.167 C 260.943 115.662,261.124 114.725,261.253 114.083 C 261.381 113.442,261.608 112.279,261.758 111.500 C 261.907 110.721,262.136 109.558,262.267 108.917 C 262.888 105.873,262.999 105.323,263.255 104.000 C 263.406 103.221,263.632 102.133,263.758 101.583 C 263.883 101.033,264.175 99.571,264.408 98.333 C 264.885 95.797,265.238 93.962,265.581 92.250 C 266.006 90.123,266.700 86.435,267.086 84.250 C 267.232 83.425,267.460 82.252,267.592 81.643 C 267.725 81.034,267.833 80.361,267.833 80.147 C 267.833 79.933,267.942 79.193,268.075 78.504 C 268.737 75.070,268.992 67.097,268.523 64.500 C 266.258 51.952,258.537 45.607,242.083 42.775 C 238.932 42.232,233.857 41.714,230.333 41.575 C 229.188 41.530,226.495 41.420,224.349 41.330 C 222.204 41.240,219.317 41.167,217.933 41.166 C 216.549 41.166,213.954 41.059,212.167 40.928 C 210.379 40.797,207.419 40.644,205.589 40.587 C 201.674 40.466,202.044 40.655,202.403 38.959 C 202.680 37.648,202.789 37.100,203.418 33.833 C 203.568 33.054,203.760 32.145,203.845 31.814 C 203.930 31.483,204.000 31.013,204.000 30.770 C 204.000 30.527,204.108 29.898,204.239 29.372 C 204.371 28.847,204.599 27.779,204.746 27.000 C 205.054 25.370,205.366 23.783,205.727 22.000 C 205.866 21.313,206.105 20.112,206.256 19.333 C 206.408 18.554,206.642 17.354,206.776 16.667 C 206.910 15.979,207.122 14.929,207.248 14.333 C 207.374 13.737,207.561 12.762,207.664 12.167 C 207.845 11.114,208.004 10.279,208.586 7.333 C 208.740 6.554,208.976 5.354,209.111 4.667 C 209.246 3.979,209.464 2.918,209.595 2.309 C 209.881 0.981,209.880 1.000,209.650 1.000 C 209.549 1.000,209.231 0.900,208.942 0.777 C 207.307 0.085,207.694 0.105,195.333 0.058 C 184.378 0.016,183.323 0.036,182.250 0.309 M46.709 41.009 C 46.229 41.076,45.646 41.178,45.414 41.236 C 44.902 41.364,43.667 42.449,43.667 42.769 C 43.667 42.896,43.600 43.000,43.519 43.000 C 43.280 43.000,42.233 46.603,42.415 46.800 C 42.441 46.828,53.214 46.918,66.356 47.002 C 106.961 47.259,112.490 47.763,121.083 51.993 C 135.828 59.250,142.810 74.129,141.327 95.135 C 140.146 111.874,134.296 126.623,123.581 139.875 C 123.155 140.402,122.871 140.833,122.949 140.833 C 123.081 140.833,127.885 136.003,128.844 134.906 C 131.024 132.411,134.543 127.542,135.761 125.333 C 135.938 125.013,136.126 124.712,136.178 124.667 C 136.264 124.590,136.836 123.613,137.786 121.917 C 139.520 118.822,142.324 112.560,143.011 110.250 C 143.120 109.883,143.276 109.408,143.358 109.193 C 143.651 108.424,144.185 106.694,144.832 104.417 C 147.228 95.983,148.097 82.914,146.810 74.667 C 146.585 73.222,146.021 70.373,145.837 69.750 C 145.756 69.475,145.562 68.800,145.406 68.250 C 145.067 67.054,144.523 65.547,143.843 63.917 C 143.340 62.710,141.598 59.333,141.478 59.333 C 141.399 59.333,141.333 59.249,141.333 59.145 C 141.333 58.970,139.740 56.519,139.506 56.333 C 139.448 56.288,139.031 55.764,138.578 55.170 C 137.623 53.917,134.912 51.197,133.878 50.454 C 133.487 50.173,133.167 49.881,133.167 49.805 C 133.167 49.729,133.093 49.667,133.002 49.667 C 132.911 49.667,132.685 49.535,132.498 49.375 C 131.400 48.429,127.495 46.203,125.333 45.291 C 120.707 43.339,116.021 42.325,110.083 41.990 C 108.525 41.902,107.100 41.797,106.917 41.756 C 106.733 41.716,105.233 41.637,103.583 41.582 C 101.933 41.526,99.008 41.411,97.083 41.326 C 95.158 41.241,83.421 41.130,71.000 41.078 C 58.579 41.026,48.229 40.963,48.000 40.936 C 47.771 40.910,47.190 40.943,46.709 41.009 M299.078 41.066 C 297.143 41.420,296.249 42.344,295.566 44.692 C 294.910 46.949,294.825 46.831,297.125 46.846 C 347.572 47.165,353.134 47.288,361.000 48.266 C 377.524 50.319,389.337 60.924,392.914 76.915 C 394.978 86.142,394.474 99.280,391.646 110.000 C 388.860 120.560,383.439 131.156,376.534 139.542 C 374.936 141.482,375.562 141.101,378.040 138.625 C 382.566 134.103,386.281 129.228,389.692 123.333 C 391.421 120.345,393.187 116.749,394.234 114.083 C 394.486 113.442,394.799 112.704,394.930 112.445 C 395.060 112.185,395.167 111.844,395.167 111.686 C 395.167 111.529,395.247 111.319,395.346 111.220 C 395.445 111.122,395.589 110.788,395.667 110.479 C 395.744 110.170,395.988 109.392,396.208 108.750 C 397.045 106.313,397.999 102.821,398.325 101.000 C 398.432 100.404,398.620 99.467,398.745 98.917 C 398.993 97.816,399.373 95.211,399.753 91.993 C 400.051 89.470,400.099 78.698,399.819 77.000 C 399.721 76.404,399.572 75.354,399.488 74.667 C 398.125 63.537,392.079 53.626,383.215 47.991 C 382.647 47.629,382.109 47.333,382.021 47.333 C 381.933 47.333,381.836 47.272,381.806 47.197 C 381.727 47.005,378.477 45.433,377.083 44.913 C 376.442 44.674,375.654 44.380,375.333 44.261 C 372.612 43.250,367.619 42.260,364.268 42.069 C 363.433 42.021,361.850 41.913,360.750 41.829 C 359.650 41.745,357.625 41.633,356.250 41.581 C 354.875 41.528,352.025 41.414,349.917 41.328 C 347.808 41.242,336.146 41.131,324.000 41.081 C 311.854 41.032,301.504 40.967,301.000 40.936 C 300.496 40.906,299.631 40.964,299.078 41.066 M62.833 77.935 C 62.833 78.018,62.604 79.173,62.324 80.501 C 62.044 81.830,61.748 83.254,61.666 83.667 C 61.584 84.079,61.136 86.254,60.669 88.500 C 60.202 90.746,59.639 93.483,59.418 94.583 C 59.196 95.683,58.417 99.546,57.686 103.167 C 54.035 121.251,51.326 135.225,51.448 135.339 C 51.959 135.819,66.919 135.938,71.750 135.501 C 79.344 134.814,88.345 132.783,90.010 131.382 C 91.000 130.550,93.842 126.787,93.637 126.581 C 93.563 126.507,93.157 126.606,90.917 127.244 C 82.117 129.748,71.176 130.531,58.571 129.559 L 57.225 129.455 57.354 128.853 C 57.425 128.521,57.592 127.688,57.725 127.000 C 58.082 125.161,58.499 123.064,58.753 121.833 C 58.875 121.237,59.061 120.263,59.166 119.667 C 59.270 119.071,59.460 118.096,59.587 117.500 C 59.714 116.904,59.940 115.779,60.090 115.000 C 60.240 114.221,60.462 113.096,60.583 112.500 C 60.705 111.904,60.930 110.779,61.083 110.000 C 61.237 109.221,61.462 108.096,61.583 107.500 C 61.705 106.904,61.929 105.779,62.081 105.000 C 62.233 104.221,62.460 103.133,62.585 102.583 C 62.711 102.033,62.900 101.058,63.006 100.417 C 63.112 99.775,63.299 98.800,63.421 98.250 C 63.543 97.700,63.767 96.612,63.919 95.833 C 64.071 95.054,64.295 93.929,64.417 93.333 C 64.538 92.737,64.763 91.612,64.917 90.833 C 65.071 90.054,65.297 88.967,65.420 88.417 C 65.542 87.867,65.767 86.779,65.920 86.000 C 66.072 85.221,66.298 84.133,66.422 83.583 C 66.546 83.033,66.734 82.096,66.838 81.500 C 66.943 80.904,67.151 79.914,67.300 79.299 C 67.448 78.684,67.534 78.145,67.491 78.102 C 67.335 77.946,62.833 77.785,62.833 77.935 M189.917 78.042 C 189.878 78.156,189.127 81.737,188.249 86.000 C 187.371 90.263,186.434 94.800,186.166 96.083 C 185.153 100.939,182.717 112.934,180.918 121.917 C 179.318 129.912,177.022 141.778,175.420 150.333 C 175.000 152.579,174.584 154.632,174.496 154.896 L 174.336 155.376 175.043 155.263 C 176.926 154.962,178.476 153.709,179.531 151.632 C 180.239 150.238,180.425 149.461,181.760 142.292 C 182.360 139.068,182.529 138.174,182.747 137.083 C 183.039 135.625,183.415 133.673,183.760 131.833 C 183.906 131.054,184.127 129.929,184.251 129.333 C 184.375 128.737,184.562 127.763,184.667 127.167 C 184.772 126.571,184.959 125.596,185.084 125.000 C 185.209 124.404,185.434 123.242,185.585 122.417 C 185.736 121.592,185.962 120.429,186.088 119.833 C 186.483 117.961,187.203 114.429,187.583 112.500 C 187.737 111.721,187.963 110.596,188.086 110.000 C 188.209 109.404,188.394 108.429,188.497 107.833 C 188.601 107.237,188.787 106.300,188.911 105.750 C 189.035 105.200,189.262 104.112,189.415 103.333 C 189.569 102.554,189.795 101.429,189.919 100.833 C 190.043 100.237,190.268 99.150,190.420 98.417 C 190.571 97.683,190.798 96.596,190.922 96.000 C 191.047 95.404,191.274 94.317,191.425 93.583 C 191.577 92.850,191.802 91.763,191.926 91.167 C 192.050 90.571,192.236 89.633,192.339 89.083 C 192.443 88.533,192.638 87.558,192.774 86.917 C 193.183 84.990,193.457 83.660,193.755 82.167 C 193.910 81.387,194.142 80.363,194.269 79.891 C 194.396 79.419,194.500 78.762,194.500 78.433 L 194.500 77.833 192.245 77.833 C 190.590 77.833,189.970 77.889,189.917 78.042 M315.201 79.709 C 314.991 80.740,314.485 83.158,314.078 85.083 C 312.061 94.609,304.013 135.245,304.123 135.346 C 304.314 135.521,311.945 135.837,315.920 135.835 C 325.286 135.830,333.496 134.676,340.462 132.384 C 342.646 131.665,343.600 130.840,345.558 127.978 C 346.651 126.381,346.650 126.376,345.384 126.747 C 344.852 126.903,344.079 127.128,343.667 127.248 C 335.196 129.700,323.445 130.537,311.292 129.556 C 309.823 129.438,309.826 129.443,310.232 127.942 C 310.360 127.470,310.554 126.521,310.663 125.833 C 310.772 125.146,310.962 124.133,311.085 123.583 C 311.209 123.033,311.434 121.946,311.586 121.167 C 311.738 120.388,311.962 119.263,312.083 118.667 C 312.205 118.071,312.427 116.946,312.577 116.167 C 312.727 115.388,312.952 114.263,313.078 113.667 C 313.203 113.071,313.431 111.946,313.584 111.167 C 313.737 110.388,313.963 109.263,314.086 108.667 C 314.209 108.071,314.395 107.096,314.500 106.500 C 314.605 105.904,314.791 104.929,314.914 104.333 C 315.037 103.737,315.263 102.612,315.417 101.833 C 315.570 101.054,315.796 99.929,315.918 99.333 C 316.040 98.737,316.257 97.668,316.401 96.958 C 316.544 96.247,316.774 95.122,316.912 94.458 C 317.468 91.778,318.023 89.011,318.258 87.750 C 318.395 87.017,318.611 85.929,318.739 85.333 C 318.867 84.737,319.098 83.650,319.253 82.917 C 319.407 82.183,319.633 81.133,319.754 80.583 C 319.876 80.033,320.025 79.239,320.086 78.818 L 320.197 78.052 318.656 77.943 C 317.809 77.883,316.771 77.833,316.349 77.834 L 315.583 77.834 315.201 79.709 M44.931 166.042 C 44.899 166.156,44.261 169.362,43.513 173.167 C 42.765 176.971,41.821 181.696,41.414 183.667 C 41.007 185.637,40.601 187.662,40.511 188.167 C 40.422 188.671,40.083 190.471,39.758 192.167 C 39.037 195.934,39.040 195.833,39.636 195.833 C 42.332 195.833,45.017 192.946,44.998 190.069 C 44.997 189.893,45.106 189.225,45.240 188.583 C 45.374 187.942,45.596 186.817,45.732 186.083 C 46.156 183.813,46.521 181.946,46.678 181.250 C 46.760 180.883,46.896 180.208,46.980 179.750 C 47.121 178.973,47.452 177.294,48.096 174.083 C 48.243 173.350,48.464 172.300,48.586 171.750 C 48.709 171.200,48.933 170.112,49.085 169.333 C 49.236 168.554,49.458 167.489,49.576 166.966 C 49.695 166.443,49.752 165.974,49.702 165.924 C 49.497 165.720,44.990 165.831,44.931 166.042 M297.514 166.704 C 297.417 167.188,297.076 168.933,296.758 170.583 C 296.440 172.233,295.503 176.921,294.676 181.000 C 293.273 187.922,291.833 195.363,291.833 195.690 C 291.833 196.219,294.588 195.444,295.562 194.641 C 296.916 193.525,297.211 192.702,298.258 187.125 C 298.400 186.369,298.620 185.225,298.747 184.583 C 298.874 183.942,299.064 182.892,299.169 182.250 C 299.274 181.608,299.458 180.633,299.578 180.083 C 299.831 178.927,300.221 177.055,300.595 175.208 C 300.992 173.243,301.536 170.627,302.076 168.083 C 302.212 167.442,302.344 166.692,302.370 166.417 L 302.417 165.917 300.054 165.871 L 297.692 165.824 297.514 166.704 " stroke="none" fill="#f36b43" fill-rule="evenodd"></path><path id="path1" d="M170.833 10.601 C 167.837 11.057,167.102 11.329,166.429 12.229 C 165.387 13.622,165.125 14.525,163.594 22.000 C 163.454 22.688,163.230 23.775,163.098 24.417 C 162.966 25.058,162.772 26.071,162.667 26.667 C 162.562 27.262,162.375 28.238,162.253 28.833 C 162.130 29.429,161.904 30.554,161.750 31.333 C 161.464 32.783,161.192 34.126,160.737 36.333 C 160.595 37.021,160.375 38.108,160.247 38.750 C 160.001 39.988,159.659 41.669,159.265 43.583 C 159.132 44.225,158.938 45.237,158.833 45.833 C 158.728 46.429,158.535 47.423,158.405 48.042 C 157.908 50.391,157.687 51.461,157.417 52.833 C 157.263 53.612,157.038 54.737,156.917 55.333 C 156.795 55.929,156.569 57.054,156.413 57.833 C 155.963 60.092,155.672 61.504,155.419 62.667 C 155.290 63.262,155.098 64.275,154.992 64.917 C 154.887 65.558,154.701 66.533,154.579 67.083 C 154.457 67.633,154.233 68.721,154.081 69.500 C 153.746 71.213,153.406 72.878,153.094 74.333 C 152.966 74.929,152.736 76.054,152.583 76.833 C 152.431 77.612,152.203 78.737,152.076 79.333 C 151.798 80.649,151.380 82.758,151.153 84.000 C 151.060 84.504,150.882 85.404,150.756 86.000 C 150.630 86.596,150.402 87.721,150.249 88.500 C 150.096 89.279,149.871 90.404,149.750 91.000 C 149.629 91.596,149.404 92.721,149.251 93.500 C 149.098 94.279,148.871 95.404,148.748 96.000 C 148.624 96.596,148.407 97.646,148.267 98.333 C 148.126 99.021,147.901 100.108,147.767 100.750 C 147.634 101.392,147.439 102.404,147.334 103.000 C 147.230 103.596,147.037 104.590,146.905 105.208 C 146.396 107.610,146.184 108.635,145.916 110.000 C 145.763 110.779,145.538 111.904,145.417 112.500 C 145.295 113.096,145.070 114.221,144.917 115.000 C 144.763 115.779,144.529 116.942,144.397 117.583 C 143.883 120.075,143.674 121.120,143.497 122.083 C 143.307 123.124,143.028 124.537,142.594 126.667 C 142.453 127.354,142.231 128.442,142.101 129.083 C 141.970 129.725,141.737 130.887,141.584 131.667 C 141.431 132.446,141.229 133.421,141.136 133.833 C 141.043 134.246,140.908 134.958,140.837 135.417 C 140.765 135.875,140.510 137.225,140.269 138.417 C 140.028 139.608,139.751 141.033,139.654 141.583 C 139.556 142.133,139.375 143.071,139.253 143.667 C 139.130 144.262,138.906 145.387,138.755 146.167 C 138.604 146.946,138.376 148.108,138.247 148.750 C 138.119 149.392,137.892 150.554,137.742 151.333 C 137.593 152.112,137.370 153.237,137.247 153.833 C 137.123 154.429,136.899 155.592,136.748 156.417 C 136.596 157.242,136.371 158.404,136.246 159.000 C 136.121 159.596,135.933 160.608,135.828 161.250 C 135.723 161.892,135.538 162.829,135.416 163.333 C 135.294 163.837,135.144 164.691,135.083 165.229 L 134.971 166.209 135.860 166.112 C 137.331 165.952,150.224 165.917,155.667 166.058 C 162.044 166.223,163.398 165.924,165.058 163.985 C 165.673 163.266,166.614 161.558,166.472 161.417 C 166.245 161.189,157.056 161.018,150.180 161.114 C 143.481 161.207,142.456 161.190,142.535 160.982 C 142.586 160.850,142.708 160.331,142.807 159.829 C 143.551 156.041,144.603 150.613,145.244 147.250 C 145.664 145.050,146.078 142.912,146.165 142.500 C 146.252 142.087,146.781 139.387,147.341 136.500 C 148.587 130.076,153.256 106.713,158.833 79.000 C 161.129 67.587,164.214 52.250,165.688 44.917 C 167.162 37.583,169.302 26.971,170.444 21.333 C 171.585 15.696,172.534 10.971,172.552 10.833 C 172.584 10.576,171.744 10.463,170.833 10.601 M32.917 51.615 C 31.772 51.764,30.607 52.653,30.008 53.833 C 29.668 54.502,29.537 55.045,28.603 59.667 C 28.363 60.855,28.227 61.546,27.583 64.833 C 27.431 65.612,27.205 66.737,27.081 67.333 C 26.957 67.929,26.734 69.017,26.586 69.750 C 26.438 70.483,26.213 71.571,26.086 72.167 C 25.959 72.762,25.772 73.737,25.671 74.333 C 25.569 74.929,25.379 75.942,25.250 76.583 C 25.120 77.225,24.892 78.387,24.743 79.167 C 24.594 79.946,24.371 81.071,24.248 81.667 C 24.124 82.262,23.910 83.313,23.772 84.000 C 23.634 84.688,23.402 85.831,23.258 86.541 C 23.113 87.251,22.885 88.376,22.750 89.041 C 22.615 89.706,22.399 90.775,22.268 91.417 C 22.138 92.058,21.946 93.108,21.841 93.750 C 21.735 94.392,21.546 95.404,21.419 96.000 C 21.293 96.596,21.072 97.665,20.928 98.375 C 20.784 99.085,20.555 100.210,20.419 100.875 C 19.861 103.604,19.683 104.483,19.417 105.833 C 19.146 107.206,18.926 108.276,18.429 110.625 C 18.298 111.244,18.105 112.237,18.000 112.833 C 17.895 113.429,17.701 114.442,17.569 115.083 C 17.204 116.851,16.862 118.526,16.572 119.958 C 16.428 120.669,16.210 121.737,16.086 122.333 C 15.806 123.686,15.426 125.539,15.094 127.167 C 14.953 127.854,14.730 128.942,14.598 129.583 C 14.466 130.225,14.273 131.237,14.169 131.833 C 14.066 132.429,13.880 133.367,13.756 133.917 C 13.632 134.467,13.404 135.554,13.250 136.333 C 13.097 137.112,12.864 138.275,12.733 138.917 C 12.602 139.558,12.380 140.646,12.240 141.333 C 12.099 142.021,11.878 143.108,11.748 143.750 C 11.617 144.392,11.395 145.479,11.253 146.167 C 10.736 148.671,10.515 149.770,10.333 150.750 C 10.231 151.300,10.032 152.313,9.890 153.000 C 9.465 155.064,9.180 156.438,8.930 157.625 C 8.800 158.244,8.569 159.387,8.415 160.167 C 8.262 160.946,8.036 162.033,7.914 162.583 C 7.791 163.133,7.566 164.221,7.414 165.000 C 7.262 165.779,7.037 166.904,6.914 167.500 C 6.791 168.096,6.605 169.071,6.500 169.667 C 6.394 170.262,6.207 171.200,6.083 171.750 C 5.959 172.300,5.733 173.387,5.581 174.167 C 5.294 175.633,5.003 177.075,4.586 179.083 C 4.239 180.756,3.867 182.560,3.572 184.000 C 3.431 184.688,3.213 185.737,3.086 186.333 C 2.959 186.929,2.771 187.904,2.667 188.500 C 2.563 189.096,2.365 190.108,2.228 190.750 C 1.825 192.633,1.546 193.990,1.250 195.500 C 0.931 197.130,0.618 198.608,0.255 200.201 C 0.094 200.907,0.000 202.149,0.000 203.576 L 0.000 205.833 4.458 205.842 C 6.910 205.847,10.942 205.919,13.417 206.003 C 25.774 206.423,27.036 206.423,28.151 206.006 C 28.709 205.797,29.167 205.560,29.167 205.480 C 29.167 205.399,29.245 205.333,29.341 205.333 C 30.202 205.333,31.929 201.593,31.141 201.437 C 30.579 201.325,16.245 200.994,12.000 200.995 C 7.217 200.996,7.667 201.228,7.667 198.758 C 7.667 196.574,7.481 197.572,12.095 174.917 C 12.599 172.442,13.229 169.329,13.496 168.000 C 13.763 166.671,14.927 160.933,16.082 155.250 C 18.419 143.752,19.731 137.283,21.084 130.583 C 21.584 128.108,23.084 120.683,24.418 114.083 C 27.804 97.331,36.360 54.374,36.760 52.125 L 36.870 51.500 35.144 51.525 C 34.194 51.539,33.192 51.579,32.917 51.615 M285.500 51.664 C 283.173 52.166,282.553 53.280,281.418 59.000 C 281.264 59.779,281.036 60.904,280.912 61.500 C 280.787 62.096,280.600 63.108,280.495 63.750 C 280.389 64.392,280.202 65.404,280.077 66.000 C 279.857 67.053,279.589 68.356,279.101 70.750 C 278.970 71.392,278.737 72.554,278.583 73.333 C 278.430 74.112,278.205 75.237,278.083 75.833 C 277.962 76.429,277.740 77.554,277.590 78.333 C 277.440 79.112,277.214 80.237,277.087 80.833 C 276.960 81.429,276.770 82.404,276.666 83.000 C 276.561 83.596,276.375 84.571,276.253 85.167 C 276.130 85.763,275.903 86.888,275.748 87.667 C 275.401 89.417,275.036 91.243,274.748 92.667 C 274.628 93.263,274.404 94.388,274.250 95.167 C 274.096 95.946,273.870 97.071,273.747 97.667 C 273.625 98.263,273.438 99.237,273.333 99.833 C 273.228 100.429,273.042 101.404,272.919 102.000 C 272.796 102.596,272.571 103.721,272.419 104.500 C 272.267 105.279,272.042 106.367,271.920 106.917 C 271.797 107.467,271.571 108.554,271.418 109.333 C 271.265 110.112,271.037 111.237,270.911 111.833 C 270.786 112.429,270.562 113.517,270.414 114.250 C 270.266 114.983,270.042 116.071,269.917 116.667 C 269.791 117.263,269.604 118.237,269.499 118.833 C 269.395 119.429,269.200 120.442,269.066 121.083 C 268.296 124.776,267.964 126.400,267.584 128.333 C 267.431 129.112,267.205 130.237,267.081 130.833 C 266.957 131.429,266.741 132.479,266.600 133.167 C 266.459 133.854,266.235 134.942,266.101 135.583 C 265.967 136.225,265.772 137.237,265.668 137.833 C 265.563 138.429,265.374 139.404,265.247 140.000 C 265.121 140.596,264.893 141.683,264.741 142.417 C 264.157 145.245,263.992 146.037,263.764 147.125 C 263.634 147.744,263.403 148.887,263.250 149.667 C 263.097 150.446,262.907 151.385,262.827 151.754 C 262.746 152.123,262.454 153.586,262.176 155.004 C 261.546 158.220,261.204 159.931,260.902 161.375 C 260.773 161.994,260.561 163.006,260.431 163.625 C 260.302 164.244,260.071 165.387,259.918 166.167 C 259.764 166.946,259.537 168.071,259.411 168.667 C 259.195 169.698,258.968 170.801,258.434 173.417 C 258.303 174.058,258.110 175.033,258.005 175.583 C 257.817 176.567,257.537 177.946,257.055 180.250 C 256.477 183.020,256.346 183.659,256.082 185.000 C 255.929 185.779,255.702 186.904,255.577 187.500 C 255.344 188.609,254.972 190.410,254.579 192.333 C 254.457 192.929,254.272 193.904,254.167 194.500 C 254.062 195.096,253.873 196.071,253.748 196.667 C 253.185 199.344,253.019 200.141,252.849 200.971 C 252.749 201.459,252.667 202.753,252.667 203.846 L 252.667 205.833 257.042 205.841 C 259.448 205.845,263.517 205.917,266.083 206.002 C 280.936 206.491,281.014 206.486,282.496 205.004 C 283.650 203.850,284.476 201.566,283.787 201.431 C 283.240 201.324,268.800 200.994,264.812 200.997 C 262.922 200.999,261.141 200.953,260.854 200.896 L 260.333 200.792 260.333 198.862 C 260.333 197.202,260.452 196.349,261.179 192.758 C 262.328 187.089,263.491 181.363,265.582 171.083 C 266.551 166.317,267.563 161.329,267.830 160.000 C 268.096 158.671,269.297 152.746,270.498 146.833 C 271.699 140.921,272.863 135.183,273.085 134.083 C 273.307 132.983,274.506 127.058,275.750 120.917 C 280.829 95.838,289.500 52.248,289.500 51.792 C 289.500 51.474,286.783 51.387,285.500 51.664 M66.933 73.088 C 64.994 73.755,63.000 75.934,63.000 77.387 C 63.000 77.778,63.033 77.787,65.042 77.901 C 66.165 77.964,67.608 78.085,68.250 78.170 C 68.892 78.254,69.979 78.324,70.667 78.325 C 72.863 78.330,84.963 79.337,91.000 80.018 C 94.433 80.405,98.250 82.587,99.164 84.685 C 99.259 84.904,99.497 85.346,99.693 85.667 C 102.542 90.342,102.107 104.539,98.796 114.917 C 97.509 118.952,96.777 120.626,93.769 126.417 C 93.095 127.715,91.894 129.375,90.626 130.763 L 89.788 131.680 90.686 131.329 C 102.024 126.897,110.376 107.129,109.026 87.917 C 108.481 80.175,105.212 76.056,98.912 75.175 C 94.503 74.559,81.468 73.540,73.250 73.170 C 71.050 73.070,68.874 72.961,68.415 72.927 C 67.955 72.893,67.289 72.966,66.933 73.088 M319.601 73.088 C 317.784 73.712,316.051 75.555,315.750 77.183 L 315.639 77.783 317.694 77.900 C 318.825 77.964,320.275 78.085,320.917 78.170 C 321.558 78.254,322.721 78.324,323.500 78.327 C 324.279 78.329,326.304 78.446,328.000 78.587 C 337.191 79.351,339.519 79.565,343.667 80.022 C 347.250 80.417,350.703 82.427,351.967 84.855 C 352.175 85.256,352.407 85.696,352.483 85.833 C 352.990 86.761,353.180 87.287,353.599 88.917 L 354.069 90.750 354.070 96.750 C 354.071 101.640,354.018 103.074,353.784 104.500 C 353.626 105.462,353.419 106.775,353.324 107.417 C 352.883 110.393,351.850 114.241,350.661 117.333 C 350.467 117.837,350.246 118.438,350.169 118.667 C 349.991 119.199,349.200 121.105,349.005 121.471 C 348.924 121.624,348.581 122.313,348.244 123.000 C 347.907 123.688,347.542 124.400,347.435 124.583 C 346.981 125.355,346.433 126.431,346.401 126.616 C 346.335 126.989,344.637 129.317,343.629 130.418 C 342.419 131.738,342.433 131.771,343.917 131.120 C 354.293 126.562,361.829 109.982,361.833 91.702 C 361.835 80.543,358.921 76.112,350.917 75.102 C 345.535 74.422,334.638 73.575,326.083 73.172 C 323.975 73.072,321.793 72.965,321.233 72.933 C 320.674 72.902,319.939 72.971,319.601 73.088 M195.607 73.167 L 192.964 73.250 192.100 74.179 C 191.366 74.968,189.836 77.585,190.023 77.732 C 190.056 77.758,192.671 77.873,195.833 77.987 C 206.700 78.380,209.254 78.494,210.833 78.659 C 211.704 78.750,212.894 78.826,213.477 78.829 C 218.383 78.850,221.703 81.670,222.409 86.417 C 222.683 88.255,222.475 94.878,222.082 96.833 C 221.943 97.521,221.715 98.683,221.574 99.417 C 221.433 100.150,221.215 101.237,221.089 101.833 C 220.964 102.429,220.736 103.554,220.582 104.333 C 220.429 105.112,220.204 106.237,220.081 106.833 C 219.958 107.429,219.771 108.404,219.666 109.000 C 219.561 109.596,219.374 110.533,219.249 111.083 C 219.125 111.633,218.899 112.721,218.747 113.500 C 218.595 114.279,218.369 115.404,218.244 116.000 C 218.119 116.596,217.894 117.683,217.745 118.417 C 217.595 119.150,217.373 120.200,217.251 120.750 C 217.130 121.300,216.904 122.388,216.750 123.167 C 216.597 123.946,216.371 125.071,216.250 125.667 C 216.128 126.263,215.941 127.200,215.833 127.750 C 215.648 128.699,215.482 129.516,214.914 132.292 C 214.778 132.956,214.549 134.081,214.405 134.792 C 214.262 135.502,214.043 136.571,213.919 137.167 C 213.795 137.762,213.569 138.887,213.416 139.667 C 213.263 140.446,213.038 141.571,212.917 142.167 C 212.589 143.774,212.166 145.971,212.002 146.917 C 211.922 147.375,211.745 148.313,211.608 149.000 C 211.471 149.688,211.235 150.925,211.083 151.750 C 210.930 152.575,210.706 153.737,210.584 154.333 C 210.285 155.794,209.471 160.033,209.255 161.250 C 209.096 162.147,208.532 164.905,208.408 165.396 L 208.286 165.876 222.268 165.801 C 238.056 165.716,236.876 165.821,238.167 164.386 C 238.958 163.507,240.333 161.343,240.333 160.977 C 240.333 160.944,234.852 160.939,228.153 160.965 C 216.509 161.012,215.977 161.001,216.057 160.715 C 216.104 160.551,216.182 160.192,216.232 159.917 C 216.325 159.399,217.550 152.985,218.253 149.333 C 220.709 136.582,221.921 130.472,223.921 120.750 C 229.906 91.666,230.167 90.174,230.167 84.986 C 230.167 78.317,228.241 75.262,223.401 74.253 C 220.506 73.650,202.550 72.948,195.607 73.167 M104.333 154.946 C 99.263 157.354,93.444 159.075,87.583 159.899 C 83.230 160.512,81.148 160.593,59.167 161.013 C 47.273 161.240,47.585 161.201,46.342 162.613 C 45.724 163.315,44.793 165.515,45.018 165.741 C 45.401 166.123,74.342 165.539,78.083 165.073 C 83.201 164.435,86.282 163.752,91.000 162.207 C 92.524 161.707,93.323 161.414,94.750 160.829 C 95.407 160.560,99.269 158.658,100.250 158.122 C 101.918 157.209,105.207 155.051,105.306 154.805 C 105.336 154.729,105.435 154.667,105.526 154.667 C 105.616 154.667,105.803 154.554,105.940 154.417 C 106.316 154.041,106.066 154.123,104.333 154.946 M357.083 154.929 C 352.821 157.014,347.157 158.770,341.833 159.656 C 336.898 160.478,334.154 160.602,311.917 161.006 C 300.789 161.208,300.612 161.225,299.408 162.217 C 298.783 162.732,297.990 164.206,297.759 165.283 L 297.644 165.816 300.114 165.866 C 305.765 165.982,328.324 165.396,330.833 165.069 C 335.011 164.524,338.630 163.814,340.917 163.089 C 341.283 162.972,342.033 162.743,342.583 162.579 C 343.133 162.416,343.820 162.181,344.109 162.057 C 344.397 161.934,344.703 161.833,344.788 161.833 C 344.959 161.833,346.798 161.128,347.583 160.762 C 347.858 160.634,348.533 160.328,349.083 160.083 C 350.162 159.602,351.263 159.054,352.176 158.542 C 352.492 158.366,353.168 157.989,353.679 157.705 C 354.911 157.021,357.236 155.484,357.306 155.307 C 357.336 155.230,357.431 155.167,357.515 155.167 C 357.600 155.167,357.980 154.942,358.360 154.667 C 359.324 153.968,358.846 154.066,357.083 154.929 " stroke="none" fill="#04bbeb" fill-rule="evenodd"></path><path id="path2" d="M172.551 10.833 C 172.540 10.971,171.594 15.696,170.449 21.333 C 169.304 26.971,167.162 37.583,165.688 44.917 C 164.214 52.250,161.129 67.587,158.833 79.000 C 153.256 106.713,148.587 130.076,147.341 136.500 C 146.781 139.387,146.252 142.087,146.165 142.500 C 146.078 142.912,145.664 145.050,145.244 147.250 C 144.603 150.613,143.551 156.041,142.807 159.829 C 142.708 160.331,142.590 160.838,142.545 160.956 C 142.478 161.130,144.353 161.163,152.440 161.130 C 157.927 161.107,163.330 161.152,164.446 161.229 L 166.476 161.369 166.827 160.232 C 167.020 159.606,167.397 157.892,167.665 156.422 C 168.228 153.333,169.753 145.262,170.485 141.500 C 170.761 140.079,171.286 137.379,171.651 135.500 C 172.857 129.287,176.856 109.464,178.661 100.750 C 178.946 99.375,179.284 97.725,179.413 97.083 C 179.541 96.442,179.993 94.267,180.416 92.250 C 180.839 90.233,181.251 88.246,181.332 87.833 C 182.402 82.403,182.880 81.025,184.334 79.185 C 185.266 78.007,185.740 77.834,188.036 77.832 L 189.917 77.830 190.566 76.480 C 190.949 75.683,191.574 74.744,192.090 74.190 L 192.964 73.250 195.607 73.167 C 202.550 72.948,220.506 73.650,223.401 74.253 C 228.241 75.262,230.167 78.317,230.167 84.986 C 230.167 90.174,229.906 91.666,223.921 120.750 C 221.843 130.851,220.548 137.389,217.917 151.083 C 216.835 156.713,216.334 159.337,216.231 159.917 C 216.182 160.192,216.105 160.548,216.060 160.708 C 215.982 160.984,216.600 161.000,227.382 161.000 C 240.766 161.000,240.237 161.036,240.482 160.105 C 241.326 156.891,243.925 144.245,248.812 119.583 C 253.496 95.944,254.431 90.942,255.092 86.000 C 256.969 71.970,252.110 61.935,241.049 57.000 C 233.450 53.609,225.385 52.419,206.583 51.913 C 204.567 51.858,200.967 51.709,198.583 51.580 C 196.200 51.451,192.994 51.296,191.458 51.234 C 189.923 51.172,188.667 51.103,188.667 51.079 C 188.667 51.055,188.813 50.297,188.991 49.393 C 189.169 48.489,189.772 45.387,190.330 42.500 C 190.889 39.612,191.453 36.725,191.585 36.083 C 191.716 35.442,192.159 33.192,192.570 31.083 C 194.532 21.005,195.718 14.938,196.018 13.438 C 196.200 12.533,196.326 11.772,196.299 11.748 C 196.272 11.723,195.688 11.508,195.000 11.270 L 193.750 10.838 183.161 10.711 C 173.807 10.598,172.569 10.613,172.551 10.833 M36.752 52.167 C 36.372 54.316,27.788 97.408,24.418 114.083 C 23.084 120.683,21.584 128.108,21.084 130.583 C 19.731 137.283,18.419 143.752,16.082 155.250 C 14.927 160.933,13.763 166.671,13.496 168.000 C 13.229 169.329,12.599 172.442,12.095 174.917 C 7.481 197.572,7.667 196.574,7.667 198.758 C 7.667 201.237,7.145 200.995,12.500 200.997 C 15.961 200.999,19.352 201.072,30.008 201.376 L 31.433 201.417 31.985 198.333 C 32.478 195.578,33.401 190.902,35.751 179.250 C 36.158 177.233,36.749 174.222,37.064 172.558 C 38.112 167.025,38.989 166.036,43.001 165.870 L 44.918 165.791 45.287 164.591 C 45.767 163.035,46.658 161.983,47.880 161.532 C 48.680 161.237,49.589 161.196,59.167 161.013 C 85.553 160.509,87.647 160.360,94.667 158.481 C 98.584 157.432,106.165 154.457,106.750 153.739 C 106.842 153.627,107.629 152.950,108.500 152.236 C 119.595 143.138,129.105 126.634,132.315 110.906 C 138.824 79.021,126.809 56.722,101.167 53.097 C 98.366 52.701,88.750 52.171,79.500 51.901 C 77.438 51.841,66.999 51.745,56.302 51.688 L 36.855 51.583 36.752 52.167 M289.500 51.833 C 289.500 52.252,280.583 97.054,275.750 120.917 C 274.506 127.058,273.307 132.983,273.085 134.083 C 272.863 135.183,271.699 140.921,270.498 146.833 C 269.297 152.746,268.096 158.671,267.830 160.000 C 267.563 161.329,266.551 166.317,265.582 171.083 C 263.491 181.363,262.328 187.089,261.179 192.758 C 260.452 196.349,260.333 197.202,260.333 198.862 L 260.333 200.792 260.854 200.896 C 261.141 200.953,263.147 201.000,265.312 201.000 C 267.478 200.999,271.950 201.075,275.250 201.167 C 278.550 201.260,281.903 201.354,282.701 201.376 L 284.152 201.417 284.257 200.750 C 284.315 200.383,284.463 199.558,284.585 198.917 C 284.708 198.275,284.937 197.037,285.094 196.167 C 285.251 195.296,286.085 191.096,286.947 186.833 C 287.809 182.571,288.918 176.983,289.410 174.417 C 290.878 166.769,291.385 166.090,295.783 165.878 L 297.650 165.788 297.762 165.269 C 297.991 164.205,298.786 162.730,299.408 162.217 C 300.612 161.225,300.789 161.208,311.917 161.006 C 334.175 160.601,336.927 160.477,341.833 159.653 C 347.219 158.750,352.333 157.177,356.908 155.019 C 357.902 154.550,358.776 154.167,358.850 154.167 C 358.924 154.167,359.161 153.998,359.377 153.792 C 359.592 153.585,360.609 152.712,361.635 151.850 C 373.999 141.476,383.405 123.621,385.921 105.750 C 390.044 76.471,378.263 56.823,354.400 53.183 C 351.313 52.712,342.422 52.200,332.167 51.901 C 322.736 51.627,289.500 51.574,289.500 51.833 M73.250 73.170 C 81.468 73.540,94.503 74.559,98.912 75.175 C 105.212 76.056,108.481 80.175,109.026 87.917 C 110.376 107.127,102.024 126.898,90.688 131.328 C 90.185 131.525,89.308 132.101,88.688 132.642 C 83.961 136.770,75.608 139.322,63.417 140.364 C 59.143 140.729,44.308 140.530,43.880 140.102 C 43.779 140.001,45.022 133.629,49.441 111.583 C 52.971 93.977,52.988 93.896,53.913 89.500 C 55.895 80.089,55.729 80.611,57.171 79.262 C 58.555 77.967,59.563 77.602,61.440 77.714 L 63.000 77.807 63.000 77.398 C 63.000 75.344,66.132 72.759,68.415 72.927 C 68.874 72.961,71.050 73.070,73.250 73.170 M326.083 73.172 C 339.275 73.794,351.694 74.944,354.165 75.773 C 358.517 77.232,361.021 80.885,361.657 86.702 C 363.279 101.556,357.424 120.531,348.963 127.844 C 347.092 129.461,343.849 131.405,342.756 131.565 C 342.641 131.582,342.068 132.031,341.482 132.563 C 336.955 136.671,328.562 139.257,316.167 140.362 C 312.049 140.729,296.976 140.531,296.550 140.105 C 296.484 140.040,303.387 105.141,305.175 96.500 C 308.698 79.472,308.407 80.530,309.936 79.185 C 311.355 77.936,312.265 77.609,314.066 77.703 L 315.621 77.784 315.815 76.944 C 316.327 74.726,318.926 72.803,321.233 72.933 C 321.793 72.965,323.975 73.072,326.083 73.172 " stroke="none" fill="#042c43" fill-rule="evenodd"></path><path id="path3" d="M179.126 5.956 C 178.303 6.008,178.156 6.068,178.080 6.383 C 178.031 6.585,177.819 7.612,177.609 8.667 L 177.226 10.583 185.572 10.704 L 193.917 10.826 195.125 11.263 C 195.790 11.504,196.333 11.772,196.333 11.860 C 196.333 11.948,196.186 12.746,196.006 13.635 C 195.826 14.523,195.149 17.987,194.500 21.333 C 193.852 24.679,193.213 27.942,193.081 28.583 C 192.948 29.225,192.309 32.487,191.660 35.833 C 191.011 39.179,190.146 43.642,189.736 45.750 C 189.327 47.858,188.923 49.881,188.838 50.245 C 188.631 51.130,188.550 51.106,192.142 51.239 C 193.851 51.303,196.302 51.423,197.589 51.507 C 198.875 51.590,202.363 51.734,205.339 51.828 C 216.686 52.184,222.179 52.516,226.333 53.099 C 243.596 55.519,252.434 61.900,254.820 73.667 C 255.941 79.195,255.626 84.215,253.405 96.250 C 252.368 101.865,244.734 140.455,243.662 145.500 C 243.399 146.737,242.842 149.350,242.425 151.306 C 242.008 153.262,241.667 154.941,241.667 155.037 C 241.667 155.156,242.699 155.192,244.875 155.148 L 248.083 155.083 248.629 152.583 C 248.930 151.208,249.245 149.746,249.330 149.333 C 249.415 148.921,249.642 147.871,249.834 147.000 C 250.420 144.342,252.438 134.460,253.851 127.333 C 254.587 123.621,256.121 115.907,257.261 110.191 C 258.917 101.887,260.704 92.608,261.421 88.583 C 264.333 72.238,262.979 64.039,256.273 57.417 C 249.104 50.337,239.455 47.912,215.500 47.168 C 212.429 47.073,207.817 46.886,205.250 46.753 C 202.683 46.621,199.584 46.463,198.362 46.403 L 196.140 46.295 196.248 45.863 C 196.308 45.626,196.686 43.741,197.088 41.674 C 197.490 39.608,198.276 35.592,198.835 32.750 C 199.393 29.908,200.030 26.646,200.250 25.500 C 200.470 24.354,200.799 22.667,200.982 21.750 C 202.041 16.433,203.833 7.204,203.833 7.065 C 203.833 6.975,203.215 6.704,202.458 6.463 L 201.083 6.023 190.583 5.960 C 184.808 5.925,179.653 5.923,179.126 5.956 M42.437 47.129 C 42.392 47.287,42.195 48.242,42.000 49.250 C 41.805 50.258,41.608 51.215,41.561 51.375 C 41.482 51.651,42.175 51.667,54.447 51.671 C 73.923 51.677,87.403 51.992,97.083 52.669 C 124.433 54.582,137.845 74.763,133.079 106.833 C 130.988 120.909,123.479 136.984,114.688 146.204 C 114.275 146.638,113.970 147.025,114.010 147.064 C 114.133 147.184,117.994 144.644,119.820 143.241 C 120.768 142.513,121.788 141.729,122.088 141.500 C 122.967 140.827,125.934 137.012,128.115 133.750 C 136.034 121.907,140.323 109.374,141.327 95.135 C 142.810 74.129,135.828 59.250,121.083 51.993 C 112.208 47.625,106.416 47.151,59.052 46.921 C 43.491 46.845,42.515 46.858,42.437 47.129 M295.003 47.796 C 294.900 48.321,294.708 49.252,294.575 49.866 C 294.133 51.909,292.407 51.666,307.375 51.671 C 335.016 51.681,350.867 52.298,357.000 53.604 C 374.260 57.277,384.900 69.966,386.495 88.779 C 388.180 108.660,381.300 129.983,368.285 145.214 C 366.413 147.405,366.491 147.284,367.250 146.832 C 368.992 145.795,371.349 144.171,373.187 142.741 C 374.300 141.875,375.276 141.167,375.355 141.167 C 375.435 141.167,375.500 141.084,375.500 140.982 C 375.500 140.880,375.972 140.224,376.549 139.524 C 388.139 125.449,394.045 108.722,394.065 89.917 C 394.084 71.355,387.544 58.862,374.341 52.240 C 365.145 47.628,359.526 47.149,311.886 46.922 L 295.189 46.842 295.003 47.796 M58.890 78.077 C 57.776 78.644,56.601 79.686,56.088 80.561 C 55.662 81.287,55.462 82.142,53.583 91.250 C 51.589 100.920,51.016 103.746,48.938 114.167 C 45.005 133.891,43.806 140.028,43.872 140.094 C 44.275 140.497,58.894 140.694,63.083 140.354 C 75.438 139.349,84.169 136.689,88.833 132.507 L 89.750 131.685 88.583 132.106 C 80.413 135.057,69.406 136.270,56.207 135.675 C 53.664 135.560,51.522 135.409,51.448 135.339 C 51.326 135.225,54.035 121.251,57.686 103.167 C 58.417 99.546,59.196 95.683,59.418 94.583 C 59.793 92.722,60.897 87.371,61.911 82.500 C 62.149 81.354,62.459 79.865,62.599 79.191 C 62.906 77.717,63.052 77.873,61.245 77.745 C 59.851 77.647,59.692 77.669,58.890 78.077 M311.917 77.920 C 309.872 78.678,308.610 80.295,308.052 82.872 C 306.891 88.238,303.815 103.276,301.514 114.833 C 297.818 133.399,296.509 140.065,296.551 140.106 C 296.938 140.493,311.611 140.685,315.750 140.358 C 326.624 139.497,335.639 137.030,340.083 133.700 C 341.260 132.818,342.354 131.832,342.154 131.834 C 342.115 131.834,341.296 132.100,340.333 132.424 C 333.776 134.631,325.193 135.830,315.920 135.835 C 311.945 135.837,304.314 135.521,304.123 135.346 C 304.014 135.246,312.021 94.806,314.059 85.167 C 315.455 78.564,315.564 78.009,315.489 77.933 C 315.257 77.701,312.535 77.691,311.917 77.920 M186.710 77.957 C 185.263 78.026,184.392 78.748,183.296 80.787 C 182.478 82.307,182.541 82.048,179.998 94.417 C 179.640 96.158,178.966 99.421,178.500 101.667 C 176.617 110.748,171.881 134.372,170.365 142.250 C 169.535 146.563,168.537 151.791,168.202 153.583 L 167.889 155.250 168.986 155.367 C 170.708 155.551,174.442 155.483,174.456 155.267 C 174.463 155.166,174.623 154.333,174.812 153.417 C 175.001 152.500,175.684 148.938,176.330 145.500 C 176.977 142.063,177.577 138.912,177.665 138.500 C 177.753 138.087,178.282 135.387,178.840 132.500 C 180.516 123.833,184.261 105.219,186.166 96.083 C 186.434 94.800,187.371 90.263,188.249 86.000 C 189.127 81.737,189.878 78.156,189.917 78.042 C 189.991 77.828,189.622 77.818,186.710 77.957 M41.500 166.005 C 38.880 166.467,38.022 167.692,37.166 172.194 C 36.882 173.691,36.233 176.979,35.725 179.500 C 35.218 182.021,34.289 186.632,33.661 189.747 C 33.034 192.861,32.535 195.423,32.552 195.438 C 32.569 195.454,34.053 195.531,35.848 195.608 L 39.114 195.750 39.310 194.583 C 39.603 192.837,40.427 188.583,41.358 184.000 C 42.266 179.534,44.750 167.026,44.876 166.292 L 44.954 165.833 43.602 165.853 C 42.858 165.864,41.912 165.932,41.500 166.005 M294.246 165.998 C 291.753 166.364,290.771 167.661,289.995 171.611 C 289.728 172.971,288.552 178.859,287.381 184.695 C 286.210 190.532,285.289 195.345,285.335 195.391 C 285.447 195.502,291.833 195.739,291.833 195.631 C 291.833 195.357,293.389 187.352,294.676 181.000 C 295.916 174.882,297.664 166.042,297.666 165.875 C 297.667 165.787,295.042 165.881,294.246 165.998 " stroke="none" fill="#441c14" fill-rule="evenodd"></path><path id="path4" d="M176.583 6.075 C 174.869 6.420,173.806 7.211,173.254 8.552 C 173.096 8.936,172.857 9.505,172.724 9.816 C 172.376 10.629,172.524 10.682,175.002 10.630 L 177.226 10.583 177.688 8.333 C 177.942 7.096,178.153 6.027,178.158 5.958 C 178.169 5.799,177.826 5.824,176.583 6.075 M186.208 10.789 C 186.644 10.824,187.356 10.824,187.792 10.789 C 188.227 10.755,187.871 10.727,187.000 10.727 C 186.129 10.727,185.773 10.755,186.208 10.789 M40.667 46.830 C 38.644 47.084,36.311 49.899,36.885 51.395 C 37.075 51.889,41.464 51.792,41.582 51.292 C 42.130 48.971,42.450 46.905,42.278 46.795 C 42.066 46.661,42.014 46.662,40.667 46.830 M293.417 46.823 C 291.525 47.070,290.412 48.165,289.754 50.427 C 289.391 51.675,289.376 51.667,291.968 51.666 L 294.250 51.666 294.704 49.310 C 295.267 46.393,295.358 46.569,293.417 46.823 M67.708 51.790 C 68.235 51.823,69.098 51.823,69.625 51.790 C 70.152 51.757,69.721 51.730,68.667 51.730 C 67.612 51.730,67.181 51.757,67.708 51.790 M320.465 51.790 C 321.041 51.823,321.941 51.823,322.465 51.790 C 322.988 51.757,322.517 51.730,321.417 51.730 C 320.317 51.731,319.888 51.758,320.465 51.790 M80.127 51.951 C 80.334 51.991,80.634 51.990,80.794 51.948 C 80.953 51.906,80.783 51.874,80.417 51.875 C 80.050 51.877,79.920 51.911,80.127 51.951 M207.208 51.948 C 207.369 51.990,207.631 51.990,207.792 51.948 C 207.952 51.906,207.821 51.872,207.500 51.872 C 207.179 51.872,207.048 51.906,207.208 51.948 M332.794 51.951 C 333.001 51.991,333.301 51.990,333.460 51.948 C 333.620 51.906,333.450 51.874,333.083 51.875 C 332.717 51.877,332.586 51.911,332.794 51.951 M186.461 77.954 C 186.761 77.991,187.211 77.990,187.461 77.952 C 187.712 77.914,187.467 77.884,186.917 77.885 C 186.367 77.886,186.162 77.917,186.461 77.954 M52.211 140.620 C 52.464 140.658,52.839 140.657,53.044 140.617 C 53.249 140.578,53.042 140.546,52.583 140.548 C 52.125 140.549,51.957 140.581,52.211 140.620 M57.958 140.618 C 58.165 140.657,58.502 140.657,58.708 140.618 C 58.915 140.578,58.746 140.545,58.333 140.545 C 57.921 140.545,57.752 140.578,57.958 140.618 M304.877 140.620 C 305.131 140.658,305.506 140.657,305.711 140.617 C 305.916 140.578,305.708 140.546,305.250 140.548 C 304.792 140.549,304.624 140.581,304.877 140.620 M310.625 140.618 C 310.831 140.657,311.169 140.657,311.375 140.618 C 311.581 140.578,311.412 140.545,311.000 140.545 C 310.587 140.545,310.419 140.578,310.625 140.618 M373.969 142.135 C 371.892 143.785,370.322 144.903,368.417 146.090 C 367.087 146.918,366.034 147.764,364.583 149.167 C 363.483 150.231,361.871 151.687,361.000 152.404 C 358.984 154.062,358.990 154.056,359.580 153.833 C 359.853 153.730,360.116 153.594,360.163 153.531 C 360.211 153.468,360.550 153.267,360.917 153.085 C 361.283 152.902,361.621 152.714,361.667 152.667 C 361.712 152.619,362.238 152.286,362.833 151.925 C 363.429 151.565,363.942 151.209,363.972 151.135 C 364.003 151.061,364.100 151.000,364.189 151.000 C 364.728 151.000,369.966 146.687,372.468 144.184 C 375.774 140.875,376.079 140.460,373.969 142.135 M121.572 141.890 C 119.868 143.338,114.549 147.007,114.018 147.101 C 113.962 147.111,112.957 148.063,111.784 149.218 C 110.612 150.372,108.977 151.862,108.152 152.530 C 107.326 153.198,106.720 153.768,106.803 153.795 C 106.971 153.852,109.051 152.663,109.139 152.461 C 109.169 152.391,109.268 152.333,109.357 152.333 C 109.793 152.333,114.700 148.830,116.574 147.181 C 117.704 146.187,122.042 141.893,122.187 141.625 C 122.408 141.216,122.319 141.255,121.572 141.890 M243.833 155.159 L 241.583 155.250 241.038 157.667 C 240.738 158.996,240.445 160.302,240.386 160.569 L 240.281 161.054 242.136 160.948 C 244.079 160.837,244.394 160.734,245.310 159.917 C 246.504 158.851,248.318 155.801,248.098 155.229 C 248.005 154.986,248.094 154.987,243.833 155.159 M167.510 157.273 C 167.315 158.316,167.010 159.638,166.830 160.210 C 166.413 161.542,166.406 161.500,167.042 161.499 C 170.163 161.492,172.930 159.602,174.056 156.705 C 174.583 155.351,174.738 155.419,171.098 155.396 L 167.864 155.374 167.510 157.273 M285.017 196.583 C 284.904 197.225,284.710 198.275,284.587 198.917 C 284.463 199.558,284.312 200.402,284.250 200.792 L 284.137 201.500 285.860 201.501 C 289.477 201.503,291.174 200.026,291.751 196.375 L 291.863 195.667 290.223 195.649 C 289.321 195.639,287.827 195.583,286.903 195.524 L 285.223 195.417 285.017 196.583 M32.500 195.548 C 32.500 195.590,32.275 196.815,32.001 198.271 C 31.321 201.872,31.172 201.500,33.292 201.500 C 36.065 201.500,37.410 200.739,38.373 198.629 C 38.879 197.520,39.250 196.014,39.061 195.838 C 38.910 195.699,32.500 195.415,32.500 195.548 " stroke="none" fill="#1f0e15" fill-rule="evenodd"></path></g></svg>