<svg id="svg" version="1.1" xmlns="http://www.w3.org/2000/svg" xmlns:xlink="http://www.w3.org/1999/xlink" width="400" height="373.8019169329074" viewBox="0, 0, 400,373.8019169329074"><g id="svgg"><path id="path0" d="M161.589 0.279 C 159.481 0.345,157.757 0.537,157.757 0.705 C 157.757 0.873,155.360 1.128,152.430 1.273 C 149.500 1.418,146.943 1.695,146.748 1.889 C 146.552 2.084,145.511 2.243,144.433 2.243 C 143.356 2.243,142.370 2.411,142.243 2.617 C 142.116 2.822,141.171 2.991,140.143 2.991 C 139.115 2.991,138.363 3.136,138.473 3.314 C 138.583 3.491,137.378 3.754,135.796 3.898 C 134.213 4.041,132.745 4.295,132.534 4.462 C 132.322 4.629,131.645 4.859,131.028 4.973 C 128.417 5.454,126.125 6.035,125.519 6.370 C 125.162 6.568,124.565 6.729,124.192 6.729 C 123.819 6.729,123.354 6.867,123.159 7.037 C 122.964 7.206,121.752 7.668,120.467 8.065 C 119.182 8.461,118.131 8.911,118.131 9.065 C 118.131 9.220,117.891 9.346,117.599 9.346 C 115.906 9.346,108.725 13.763,105.738 16.642 C 104.783 17.564,103.805 18.318,103.567 18.318 C 103.328 18.318,103.219 18.456,103.323 18.625 C 103.428 18.794,103.227 19.203,102.878 19.533 C 101.801 20.553,100.865 21.969,99.914 24.019 C 99.556 24.790,99.162 25.421,99.040 25.421 C 98.917 25.421,98.494 26.430,98.100 27.664 C 97.706 28.897,97.257 29.907,97.103 29.907 C 96.949 29.907,96.822 30.495,96.822 31.215 C 96.822 31.935,96.682 32.523,96.511 32.523 C 96.340 32.523,96.180 32.734,96.156 32.991 C 96.132 33.248,95.995 35.098,95.852 37.103 C 95.708 39.107,95.448 40.748,95.272 40.748 C 95.097 40.748,94.953 50.589,94.953 62.617 L 94.953 84.486 102.430 84.486 L 109.907 84.486 109.938 65.327 C 109.972 44.703,110.439 34.902,111.438 33.850 C 111.624 33.655,111.776 33.114,111.776 32.649 C 111.776 24.394,122.735 12.844,134.579 8.616 C 136.237 8.024,137.143 7.677,138.318 7.185 C 139.251 6.794,141.783 6.094,143.551 5.739 C 144.065 5.636,144.822 5.412,145.234 5.243 C 146.338 4.787,151.636 3.738,152.833 3.738 C 153.403 3.738,154.029 3.586,154.224 3.401 C 154.583 3.060,154.946 3.003,161.682 2.244 C 163.738 2.012,165.937 1.664,166.569 1.472 C 167.200 1.279,168.807 1.121,170.139 1.121 C 171.471 1.121,172.722 0.960,172.920 0.762 C 173.118 0.565,174.960 0.348,177.013 0.280 C 179.067 0.212,177.299 0.157,173.084 0.157 C 168.869 0.157,163.696 0.212,161.589 0.279 M220.561 0.368 C 222.514 0.537,225.626 0.866,227.477 1.100 C 229.327 1.334,232.103 1.671,233.645 1.849 C 240.454 2.635,244.506 3.284,247.850 4.122 C 250.394 4.760,253.654 5.686,254.393 5.980 C 257.723 7.307,259.439 8.012,260.561 8.514 C 262.552 9.405,267.087 12.048,267.227 12.399 C 267.296 12.570,267.532 12.710,267.751 12.710 C 268.506 12.710,275.143 18.394,277.290 20.878 C 278.472 22.245,279.539 23.449,279.662 23.551 C 281.415 25.024,285.588 33.028,287.116 37.850 C 288.633 42.639,288.708 44.028,288.854 70.000 L 288.997 95.327 293.039 95.327 C 295.262 95.327,298.621 95.218,300.503 95.084 L 303.925 94.841 303.925 68.729 C 303.925 51.570,303.797 42.617,303.551 42.617 C 303.346 42.617,303.178 41.860,303.178 40.935 C 303.178 40.009,303.031 39.252,302.853 39.252 C 302.581 39.252,302.137 37.414,301.974 35.607 C 301.950 35.350,301.791 35.140,301.620 35.140 C 301.449 35.140,301.308 34.804,301.308 34.393 C 301.308 33.981,301.158 33.645,300.975 33.645 C 300.650 33.645,300.003 31.867,300.126 31.308 C 300.159 31.154,300.019 31.028,299.813 31.028 C 299.607 31.028,299.439 30.776,299.439 30.467 C 299.439 30.159,299.271 29.907,299.065 29.907 C 298.860 29.907,298.692 29.570,298.692 29.159 C 298.692 28.748,298.543 28.411,298.361 28.411 C 298.180 28.411,297.932 28.117,297.811 27.757 C 297.560 27.008,296.850 25.873,296.168 25.129 C 295.911 24.849,295.701 24.505,295.701 24.365 C 295.701 24.225,294.944 23.298,294.019 22.304 C 293.093 21.311,292.336 20.449,292.336 20.389 C 292.336 20.156,289.840 17.570,289.615 17.570 C 289.483 17.570,288.690 16.897,287.850 16.075 C 287.011 15.252,286.141 14.579,285.917 14.579 C 285.692 14.579,285.215 14.241,284.856 13.828 C 284.105 12.961,281.618 11.215,281.136 11.215 C 280.957 11.215,280.754 11.089,280.685 10.935 C 280.617 10.780,279.557 10.150,278.331 9.533 C 277.104 8.916,275.873 8.201,275.594 7.944 C 275.315 7.687,274.767 7.477,274.377 7.477 C 273.987 7.477,273.071 7.142,272.343 6.733 C 271.614 6.323,270.348 5.881,269.528 5.750 C 268.708 5.619,268.037 5.365,268.037 5.186 C 268.037 5.007,267.617 4.860,267.103 4.860 C 266.589 4.860,266.168 4.720,266.168 4.548 C 266.168 4.377,265.958 4.222,265.701 4.203 C 262.840 3.997,260.187 3.567,260.187 3.310 C 260.187 3.135,259.356 2.991,258.340 2.991 C 257.324 2.991,256.389 2.822,256.262 2.617 C 256.135 2.411,255.125 2.243,254.019 2.243 C 252.912 2.243,251.913 2.092,251.799 1.908 C 251.685 1.723,249.278 1.451,246.450 1.304 C 243.622 1.156,241.121 0.884,240.891 0.700 C 240.662 0.516,235.194 0.297,228.742 0.213 C 221.065 0.114,218.237 0.167,220.561 0.368 M141.044 30.014 C 140.795 30.263,139.930 30.972,139.120 31.589 C 131.564 37.348,131.120 49.225,138.195 56.330 C 141.636 59.785,144.083 59.717,146.785 56.090 C 147.021 55.773,147.651 55.009,148.186 54.393 C 148.721 53.776,149.158 53.145,149.158 52.991 C 149.159 52.360,149.786 52.778,150.401 53.821 C 152.014 56.551,155.424 59.263,156.807 58.916 C 159.064 58.349,163.503 53.242,164.615 49.933 C 165.773 46.486,165.200 37.953,163.722 36.636 C 163.606 36.533,163.153 35.860,162.714 35.140 C 160.886 32.143,157.019 29.238,155.672 29.852 C 154.351 30.454,151.437 33.236,150.384 34.902 L 149.470 36.346 148.184 34.436 C 145.828 30.938,142.301 28.753,141.044 30.014 M149.907 40.000 C 149.907 40.593,150.075 41.181,150.280 41.308 C 150.486 41.435,150.654 42.781,150.654 44.299 C 150.654 45.817,150.486 47.163,150.280 47.290 C 150.075 47.417,149.907 48.006,149.907 48.598 C 149.907 49.191,149.738 49.779,149.533 49.907 C 149.327 50.034,149.159 49.801,149.159 49.390 C 149.159 48.979,148.991 48.538,148.785 48.411 C 148.574 48.281,148.411 46.476,148.411 44.277 C 148.411 41.924,148.560 40.374,148.785 40.374 C 148.991 40.374,149.159 39.943,149.159 39.417 C 149.159 38.875,149.321 38.561,149.533 38.692 C 149.738 38.819,149.907 39.407,149.907 40.000 M183.925 89.720 L 183.925 94.953 191.589 94.953 L 199.252 94.953 199.252 89.720 L 199.252 84.486 191.589 84.486 L 183.925 84.486 183.925 89.720 M52.931 95.272 C 52.823 95.447,51.618 95.695,50.255 95.822 C 47.932 96.039,45.802 96.545,44.474 97.195 C 44.159 97.349,43.323 97.602,42.617 97.757 C 41.911 97.912,40.991 98.212,40.573 98.424 C 38.823 99.310,38.488 99.439,37.949 99.439 C 37.638 99.439,37.383 99.570,37.383 99.731 C 37.383 99.891,36.542 100.349,35.514 100.748 C 34.486 101.147,33.645 101.604,33.645 101.765 C 33.645 101.925,33.393 102.056,33.085 102.056 C 32.231 102.056,22.821 109.066,22.492 109.946 C 22.424 110.130,22.171 110.284,21.931 110.288 C 21.692 110.293,20.864 111.176,20.093 112.251 C 19.321 113.326,18.185 114.743,17.569 115.400 C 16.953 116.057,16.449 116.711,16.449 116.852 C 16.449 116.993,16.136 117.381,15.754 117.713 C 15.373 118.046,14.941 118.696,14.795 119.159 C 14.649 119.621,14.372 120.000,14.180 120.000 C 13.989 120.000,13.832 120.252,13.832 120.561 C 13.832 120.869,13.706 121.123,13.551 121.125 C 13.397 121.127,12.939 121.884,12.533 122.807 C 12.127 123.731,11.706 124.486,11.596 124.486 C 11.487 124.486,11.167 125.033,10.886 125.701 C 10.604 126.369,10.143 127.404,9.860 128.001 C 9.577 128.598,9.346 129.313,9.346 129.590 C 9.346 129.867,9.218 130.093,9.061 130.093 C 8.904 130.093,8.458 131.229,8.069 132.617 C 7.681 134.005,7.264 135.308,7.143 135.514 C 6.580 136.467,5.979 138.696,5.755 140.663 C 5.620 141.849,5.363 142.911,5.184 143.021 C 5.006 143.131,4.860 143.716,4.860 144.321 C 4.860 144.926,4.709 145.421,4.525 145.421 C 4.341 145.421,4.071 146.766,3.925 148.411 C 3.780 150.056,3.510 151.402,3.326 151.402 C 3.141 151.402,2.991 152.149,2.991 153.062 C 2.991 153.975,2.822 154.826,2.617 154.953 C 2.411 155.080,2.243 155.921,2.243 156.822 C 2.243 157.723,2.090 158.555,1.904 158.670 C 1.718 158.785,1.455 160.520,1.320 162.524 C 1.185 164.528,0.875 166.572,0.631 167.066 C 0.018 168.305,-0.008 204.015,0.604 204.406 C 0.835 204.554,1.141 206.420,1.293 208.598 C 1.442 210.757,1.699 212.692,1.862 212.897 C 2.025 213.103,2.262 213.986,2.388 214.860 C 2.514 215.734,2.720 217.164,2.846 218.037 C 2.972 218.911,3.204 219.794,3.361 220.000 C 3.519 220.206,3.765 221.508,3.909 222.893 C 4.053 224.279,4.326 225.509,4.515 225.626 C 4.705 225.743,4.860 226.492,4.860 227.290 C 4.860 228.088,5.011 228.835,5.197 228.949 C 5.382 229.064,5.651 230.167,5.794 231.402 C 5.938 232.636,6.207 233.740,6.392 233.855 C 6.577 233.969,6.729 234.464,6.729 234.953 C 6.729 235.443,6.897 235.948,7.103 236.075 C 7.308 236.202,7.477 236.801,7.477 237.405 C 7.477 238.010,7.645 238.505,7.850 238.505 C 8.056 238.505,8.192 238.631,8.153 238.785 C 8.013 239.338,8.700 241.654,9.346 242.804 C 9.708 243.448,10.121 244.509,10.264 245.161 C 10.408 245.813,10.680 246.443,10.870 246.560 C 11.060 246.677,11.215 247.100,11.215 247.499 C 11.215 247.898,11.365 248.224,11.548 248.224 C 11.831 248.224,12.381 249.666,12.335 250.286 C 12.327 250.394,12.661 250.847,13.076 251.293 C 13.492 251.739,13.832 252.324,13.832 252.594 C 13.832 252.863,13.968 253.084,14.134 253.084 C 14.300 253.084,14.717 253.715,15.060 254.486 C 15.404 255.257,16.109 256.377,16.628 256.974 C 17.146 257.571,17.570 258.210,17.570 258.393 C 17.570 258.576,17.991 259.146,18.505 259.660 C 19.019 260.174,19.439 260.733,19.439 260.902 C 19.439 261.328,25.558 267.324,26.516 267.837 C 26.945 268.066,27.557 268.626,27.875 269.080 C 28.193 269.535,28.781 269.907,29.180 269.907 C 29.580 269.907,29.907 270.075,29.907 270.280 C 29.907 270.486,30.078 270.654,30.288 270.654 C 30.497 270.654,31.297 271.047,32.064 271.528 C 32.830 272.008,34.299 272.710,35.327 273.087 C 36.355 273.465,37.364 273.883,37.570 274.016 C 37.776 274.149,38.701 274.473,39.626 274.735 C 40.551 274.998,41.608 275.370,41.975 275.561 C 42.341 275.753,44.234 276.014,46.180 276.142 C 48.127 276.270,49.720 276.517,49.720 276.692 C 49.720 276.866,53.168 277.009,57.383 277.009 C 62.243 277.009,65.047 276.873,65.047 276.636 C 65.047 276.425,63.995 276.262,62.639 276.262 C 61.315 276.262,60.142 276.117,60.033 275.941 C 59.923 275.764,58.910 275.511,57.782 275.378 C 56.653 275.246,55.260 274.949,54.687 274.718 C 54.114 274.488,53.308 274.172,52.897 274.017 C 50.769 273.213,48.764 272.331,48.598 272.127 C 48.495 272.000,47.696 271.584,46.822 271.203 C 45.949 270.822,45.234 270.374,45.234 270.208 C 45.234 270.042,44.981 269.907,44.673 269.907 C 44.364 269.907,44.112 269.764,44.112 269.590 C 44.112 269.416,43.796 269.121,43.409 268.936 C 41.002 267.781,33.837 260.679,32.791 258.411 C 32.578 257.949,32.262 257.570,32.090 257.570 C 31.917 257.570,31.776 257.332,31.776 257.040 C 31.776 256.749,31.650 256.455,31.495 256.386 C 30.801 256.078,27.167 249.284,24.930 244.112 C 23.861 241.641,21.682 234.755,21.682 233.848 C 21.682 233.349,21.514 232.837,21.308 232.710 C 21.103 232.583,20.935 231.994,20.935 231.402 C 20.935 230.809,20.789 230.234,20.610 230.124 C 20.432 230.014,20.179 229.205,20.048 228.326 C 19.545 224.944,18.866 221.732,18.598 221.464 C 18.444 221.310,18.318 220.648,18.318 219.993 C 18.318 219.339,18.153 218.315,17.951 217.719 C 17.750 217.123,17.406 215.374,17.187 213.832 C 16.969 212.290,16.640 210.103,16.456 208.972 C 14.440 196.540,14.051 180.093,15.515 169.159 C 15.845 166.692,16.203 163.832,16.310 162.804 C 16.417 161.776,16.607 160.682,16.732 160.374 C 16.934 159.875,17.564 156.213,18.178 151.963 C 18.297 151.140,18.545 150.307,18.730 150.112 C 18.914 149.917,19.065 149.229,19.065 148.583 C 19.065 147.937,19.316 146.583,19.622 145.573 C 19.928 144.564,20.181 143.286,20.183 142.732 C 20.185 142.179,20.337 141.634,20.519 141.521 C 20.702 141.408,20.941 140.767,21.049 140.097 C 21.417 137.821,22.134 135.142,22.469 134.785 C 22.653 134.590,22.804 134.053,22.804 133.592 C 22.804 133.131,22.972 132.650,23.178 132.523 C 23.383 132.396,23.551 132.029,23.551 131.707 C 23.551 128.611,31.935 115.632,37.356 110.335 C 42.220 105.582,53.768 98.318,56.459 98.318 C 56.665 98.318,57.125 98.165,57.482 97.978 C 58.626 97.380,62.107 96.449,63.198 96.449 C 63.780 96.449,64.359 96.280,64.486 96.075 C 64.613 95.869,65.548 95.701,66.564 95.701 C 67.580 95.701,68.411 95.533,68.411 95.327 C 68.411 94.863,53.217 94.809,52.931 95.272 M340.561 95.327 C 340.561 95.533,341.058 95.701,341.665 95.701 C 342.272 95.701,343.155 95.848,343.627 96.028 C 344.100 96.207,345.411 96.645,346.542 97.000 C 353.152 99.077,360.700 104.515,364.714 110.093 C 365.306 110.916,365.879 111.673,365.987 111.776 C 367.346 113.064,371.997 121.958,373.610 126.355 C 374.176 127.897,374.786 129.495,374.966 129.907 C 375.145 130.318,375.481 131.327,375.712 132.150 C 375.943 132.972,376.275 134.150,376.451 134.766 C 377.024 136.775,378.751 143.327,379.113 144.860 C 379.425 146.185,379.923 148.546,380.925 153.458 C 381.345 155.518,382.737 163.775,383.162 166.729 C 383.354 168.065,383.710 170.505,383.953 172.150 C 384.608 176.594,384.846 195.966,384.306 200.935 C 383.217 210.951,382.637 214.193,380.207 223.844 C 379.735 225.717,377.286 233.490,376.824 234.579 C 376.649 234.991,376.223 236.168,375.877 237.196 C 375.173 239.287,374.652 240.620,374.162 241.584 C 373.980 241.941,373.832 242.414,373.832 242.636 C 373.832 242.857,373.411 243.958,372.897 245.082 C 372.383 246.206,371.963 247.212,371.963 247.318 C 371.963 247.786,368.122 255.135,366.668 257.450 C 360.740 266.887,353.849 272.505,345.234 274.925 C 344.000 275.271,342.474 275.714,341.843 275.908 C 341.211 276.103,339.823 276.262,338.759 276.262 C 337.694 276.262,336.822 276.430,336.822 276.636 C 336.822 276.872,339.564 277.009,344.299 277.009 C 348.411 277.009,351.776 276.866,351.776 276.692 C 351.776 276.431,353.700 276.208,359.533 275.796 C 359.790 275.778,360.000 275.623,360.000 275.452 C 360.000 275.280,360.421 275.140,360.935 275.140 C 361.449 275.140,361.869 274.972,361.869 274.766 C 361.869 274.561,362.290 274.393,362.804 274.393 C 363.318 274.393,363.738 274.243,363.738 274.060 C 363.738 273.878,364.327 273.618,365.047 273.483 C 365.766 273.348,366.355 273.077,366.355 272.880 C 366.355 272.684,366.692 272.523,367.103 272.523 C 367.514 272.523,367.850 272.375,367.850 272.193 C 367.850 272.012,368.145 271.764,368.505 271.643 C 369.144 271.428,370.469 270.654,370.841 270.278 C 370.944 270.174,371.680 269.603,372.477 269.008 C 373.275 268.413,374.536 267.258,375.281 266.442 C 376.026 265.625,376.930 264.687,377.290 264.358 C 377.650 264.028,377.944 263.544,377.944 263.281 C 377.944 263.019,378.117 262.804,378.329 262.804 C 378.542 262.804,378.825 262.517,378.959 262.167 C 379.094 261.817,379.677 261.035,380.256 260.430 C 380.835 259.824,381.308 259.113,381.308 258.850 C 381.308 258.587,381.519 258.146,381.776 257.870 C 382.524 257.068,383.551 255.077,383.551 254.428 C 383.551 254.100,383.720 253.832,383.925 253.832 C 384.131 253.832,384.299 253.579,384.299 253.271 C 384.299 252.963,384.430 252.710,384.591 252.710 C 384.751 252.710,385.209 251.869,385.607 250.841 C 386.006 249.813,386.464 248.972,386.624 248.972 C 386.785 248.972,386.921 248.678,386.928 248.318 C 386.934 247.958,387.187 247.337,387.489 246.938 C 387.790 246.539,388.037 245.824,388.037 245.349 C 388.037 244.874,388.206 244.486,388.411 244.486 C 388.617 244.486,388.785 244.150,388.785 243.738 C 388.785 243.327,388.953 242.991,389.159 242.991 C 389.364 242.991,389.533 242.570,389.533 242.056 C 389.533 241.542,389.679 241.121,389.859 241.121 C 390.038 241.121,390.294 240.441,390.427 239.610 C 390.559 238.778,390.860 237.727,391.093 237.273 C 392.012 235.491,392.144 235.121,392.377 233.661 C 392.510 232.830,392.766 232.150,392.945 232.150 C 393.124 232.150,393.271 231.763,393.271 231.290 C 393.271 230.817,393.444 230.257,393.655 230.046 C 393.866 229.835,394.142 228.792,394.268 227.728 C 394.394 226.665,394.641 225.794,394.818 225.794 C 394.995 225.794,395.140 225.374,395.140 224.860 C 395.140 224.346,395.308 223.925,395.514 223.925 C 395.720 223.925,395.888 223.336,395.888 222.617 C 395.888 221.897,396.042 221.308,396.230 221.308 C 396.418 221.308,396.690 220.047,396.834 218.505 C 396.979 216.963,397.246 215.701,397.427 215.701 C 397.609 215.701,397.757 214.958,397.757 214.050 C 397.757 213.142,397.917 212.343,398.112 212.274 C 398.307 212.206,398.582 210.131,398.722 207.664 C 398.863 205.196,399.144 202.968,399.347 202.712 C 399.834 202.096,399.829 175.314,399.341 174.997 C 399.146 174.870,398.868 172.411,398.723 169.533 C 398.577 166.654,398.301 164.243,398.108 164.174 C 397.915 164.106,397.757 163.139,397.757 162.025 C 397.757 160.911,397.613 160.000,397.437 160.000 C 397.151 160.000,396.523 155.595,396.570 153.925 C 396.581 153.565,396.431 153.271,396.238 153.271 C 396.046 153.271,395.888 152.608,395.888 151.798 C 395.888 150.987,395.720 150.221,395.514 150.093 C 395.308 149.966,395.140 149.199,395.140 148.389 C 395.140 147.579,394.989 146.916,394.804 146.916 C 394.620 146.916,394.350 145.738,394.206 144.299 C 394.061 142.860,393.792 141.682,393.607 141.682 C 393.422 141.682,393.271 141.093,393.271 140.374 C 393.271 139.654,393.119 139.065,392.934 139.065 C 392.748 139.065,392.480 138.056,392.336 136.822 C 392.193 135.589,391.924 134.579,391.739 134.579 C 391.554 134.579,391.402 134.157,391.402 133.640 C 391.402 133.123,391.255 132.408,391.075 132.051 C 390.895 131.694,390.447 130.435,390.079 129.252 C 389.712 128.070,389.270 127.103,389.098 127.103 C 388.926 127.103,388.785 126.598,388.785 125.981 C 388.785 125.364,388.630 124.860,388.441 124.860 C 388.252 124.860,387.984 124.348,387.847 123.723 C 387.590 122.553,384.516 116.281,384.018 115.909 C 383.864 115.795,383.417 115.070,383.025 114.299 C 382.633 113.528,382.170 112.897,381.997 112.897 C 381.824 112.897,381.682 112.685,381.682 112.426 C 381.682 112.167,381.262 111.501,380.748 110.947 C 380.234 110.393,379.813 109.841,379.813 109.720 C 379.813 109.374,377.609 106.975,375.274 104.778 C 374.789 104.322,373.976 103.523,373.466 103.003 C 372.956 102.482,372.387 102.056,372.201 102.056 C 372.015 102.056,371.549 101.694,371.165 101.251 C 370.781 100.809,370.467 100.568,370.467 100.716 C 370.467 100.864,370.000 100.653,369.429 100.246 C 367.731 99.037,364.798 97.570,364.079 97.570 C 363.710 97.570,363.305 97.402,363.178 97.196 C 363.050 96.991,362.536 96.822,362.034 96.822 C 361.532 96.822,361.121 96.668,361.121 96.478 C 361.121 96.289,360.026 96.017,358.686 95.873 C 357.347 95.730,356.160 95.464,356.048 95.283 C 355.757 94.813,340.561 94.856,340.561 95.327 M269.907 172.274 C 269.907 172.514,269.734 172.710,269.524 172.710 C 269.313 172.710,268.093 173.367,266.813 174.169 C 263.298 176.373,262.213 176.820,253.992 179.446 C 253.361 179.648,252.393 179.813,251.843 179.813 C 251.292 179.813,250.841 179.981,250.841 180.187 C 250.841 180.414,252.524 180.561,255.143 180.561 C 259.319 180.561,259.432 180.582,258.989 181.291 C 258.738 181.693,258.459 181.948,258.368 181.857 C 258.200 181.689,255.668 183.119,255.327 183.575 C 255.224 183.712,254.720 183.954,254.206 184.112 C 253.692 184.270,253.187 184.512,253.084 184.648 C 252.786 185.045,248.632 186.916,248.049 186.916 C 247.759 186.916,247.417 187.084,247.290 187.290 C 247.163 187.495,246.732 187.664,246.333 187.664 C 245.934 187.664,245.607 187.812,245.607 187.994 C 245.607 188.289,241.733 189.013,241.028 188.850 C 240.874 188.814,240.748 188.953,240.748 189.159 C 240.748 189.364,240.159 189.533,239.439 189.533 C 238.720 189.533,238.131 189.701,238.131 189.907 C 238.131 190.112,237.079 190.303,235.794 190.330 L 233.458 190.380 236.636 190.722 C 241.283 191.222,252.821 190.646,253.626 189.874 C 253.821 189.686,254.395 189.533,254.902 189.533 C 256.285 189.533,259.853 188.460,262.860 187.141 C 263.611 186.812,264.395 186.542,264.602 186.542 C 267.058 186.542,279.962 177.380,283.551 173.086 L 284.299 172.192 282.804 173.058 C 275.912 177.050,270.969 178.880,265.234 179.562 C 264.411 179.659,263.442 179.859,263.080 180.005 C 262.046 180.422,262.644 179.323,263.843 178.603 C 265.307 177.724,270.476 172.407,270.167 172.098 C 270.024 171.955,269.907 172.034,269.907 172.274 M148.598 180.936 C 137.537 182.227,126.401 187.530,117.497 195.748 C 115.687 197.418,113.894 199.323,113.514 199.981 L 112.822 201.178 115.570 199.374 C 117.081 198.382,118.402 197.474,118.505 197.357 C 118.693 197.143,120.562 196.242,123.808 194.800 C 126.392 193.652,131.473 192.296,134.579 191.924 L 136.262 191.723 134.611 193.151 C 131.925 195.476,128.179 199.332,128.396 199.549 C 128.507 199.660,129.533 199.107,130.676 198.320 C 132.962 196.745,136.744 194.770,137.477 194.768 C 137.734 194.767,137.944 194.639,137.944 194.484 C 137.944 194.072,142.246 192.631,144.583 192.260 C 145.253 192.154,145.894 191.917,146.007 191.734 C 146.120 191.552,146.791 191.402,147.499 191.402 C 148.206 191.402,148.785 191.234,148.785 191.028 C 148.785 190.801,146.918 190.637,144.019 190.611 C 141.397 190.587,139.547 190.491,139.907 190.397 C 140.266 190.302,140.561 190.070,140.561 189.879 C 140.561 189.689,140.813 189.533,141.121 189.533 C 141.430 189.533,141.682 189.364,141.682 189.159 C 141.682 188.953,141.862 188.785,142.083 188.785 C 142.303 188.785,142.736 188.533,143.044 188.224 C 143.352 187.916,143.929 187.664,144.326 187.664 C 144.722 187.664,145.047 187.495,145.047 187.290 C 145.047 187.084,145.299 186.916,145.607 186.916 C 145.916 186.916,146.168 186.783,146.168 186.619 C 146.168 186.456,147.093 186.009,148.224 185.624 C 149.355 185.240,150.280 184.784,150.280 184.612 C 150.280 184.440,150.701 184.299,151.215 184.299 C 151.729 184.299,152.150 184.153,152.150 183.974 C 152.150 183.702,153.988 183.259,155.794 183.095 C 156.051 183.072,156.262 182.913,156.262 182.741 C 156.262 182.570,156.733 182.430,157.308 182.430 C 157.884 182.430,158.520 182.265,158.722 182.063 C 158.923 181.862,160.813 181.584,162.922 181.446 C 165.030 181.307,166.843 181.052,166.951 180.878 C 167.181 180.505,151.872 180.554,148.598 180.936 M315.061 186.849 C 314.709 186.988,316.427 187.103,318.879 187.103 C 321.330 187.103,323.048 186.988,322.696 186.849 C 322.344 186.709,320.626 186.595,318.879 186.595 C 317.131 186.595,315.413 186.709,315.061 186.849 M295.841 209.907 C 295.842 212.168,295.903 213.045,295.978 211.856 C 296.052 210.666,296.051 208.815,295.976 207.743 C 295.901 206.671,295.840 207.645,295.841 209.907 M341.821 209.720 C 341.821 211.879,341.882 212.762,341.958 211.682 C 342.033 210.603,342.033 208.836,341.958 207.757 C 341.882 206.678,341.821 207.561,341.821 209.720 M322.558 212.132 C 322.488 213.253,322.540 214.052,322.674 213.908 C 323.008 213.548,323.244 210.093,322.934 210.093 C 322.798 210.093,322.628 211.011,322.558 212.132 M318.111 215.234 L 316.822 216.636 318.224 215.347 C 319.529 214.148,319.798 213.832,319.513 213.832 C 319.450 213.832,318.819 214.463,318.111 215.234 M289.346 248.059 C 290.683 248.350,294.543 248.432,294.115 248.161 C 293.857 247.996,292.551 247.879,291.215 247.900 C 289.879 247.920,289.037 247.992,289.346 248.059 M302.150 259.252 C 302.154 260.075,302.231 260.367,302.320 259.902 C 302.410 259.437,302.406 258.764,302.313 258.407 C 302.219 258.049,302.146 258.430,302.150 259.252 M302.524 262.243 C 302.528 263.065,302.605 263.358,302.694 262.893 C 302.784 262.428,302.780 261.755,302.687 261.398 C 302.593 261.040,302.520 261.421,302.524 262.243 M99.813 276.251 C 99.813 276.462,98.986 276.636,97.974 276.636 C 94.639 276.636,94.953 273.993,94.953 302.074 C 94.953 315.816,95.099 327.149,95.278 327.259 C 95.457 327.370,95.719 328.637,95.861 330.077 C 96.002 331.516,96.277 332.791,96.470 332.911 C 96.664 333.030,96.822 333.441,96.822 333.824 C 96.822 334.206,97.103 335.079,97.446 335.764 C 98.583 338.033,98.692 338.303,98.692 338.873 C 98.692 339.185,98.831 339.439,99.002 339.439 C 99.173 339.439,99.552 339.901,99.843 340.466 C 100.786 342.289,103.638 346.225,104.163 346.426 C 104.443 346.534,104.673 346.946,104.673 347.341 C 104.673 347.737,104.919 348.155,105.219 348.270 C 105.519 348.386,106.496 349.179,107.390 350.034 C 110.821 353.316,112.062 354.393,112.416 354.393 C 112.618 354.393,113.180 354.737,113.664 355.157 C 114.149 355.578,115.142 356.284,115.871 356.726 C 116.600 357.169,117.280 357.624,117.383 357.737 C 117.950 358.364,124.762 361.869,125.413 361.869 C 125.750 361.869,125.921 362.037,125.794 362.243 C 125.667 362.449,125.912 362.617,126.338 362.617 C 127.130 362.617,128.603 363.303,129.014 363.864 C 129.140 364.035,129.308 364.148,129.388 364.113 C 129.633 364.008,131.753 364.573,132.150 364.850 C 132.355 364.994,133.533 365.401,134.766 365.755 C 136.000 366.109,137.301 366.557,137.658 366.751 C 138.016 366.944,138.636 367.103,139.038 367.103 C 139.440 367.103,139.863 367.254,139.977 367.440 C 140.092 367.625,141.195 367.894,142.429 368.037 C 143.663 368.181,144.673 368.449,144.673 368.635 C 144.673 368.820,145.178 368.972,145.794 368.972 C 146.411 368.972,146.916 369.123,146.916 369.307 C 146.916 369.491,147.547 369.729,148.318 369.835 C 151.825 370.322,155.140 371.032,155.140 371.298 C 155.140 371.458,155.948 371.589,156.935 371.589 C 157.921 371.589,158.889 371.749,159.085 371.945 C 159.281 372.141,161.244 372.417,163.447 372.560 C 165.651 372.702,167.382 372.935,167.295 373.076 C 167.084 373.417,166.547 373.393,178.692 373.573 C 184.551 373.660,187.874 373.663,186.075 373.580 C 184.276 373.498,182.804 373.268,182.804 373.070 C 182.804 372.872,182.005 372.709,181.028 372.708 C 179.392 372.706,178.018 372.516,172.897 371.581 C 171.869 371.393,170.439 371.137,169.720 371.012 C 169.000 370.888,168.159 370.684,167.850 370.561 C 167.294 370.337,163.554 369.517,161.211 369.104 C 160.541 368.986,159.901 368.740,159.788 368.557 C 159.675 368.374,159.228 368.224,158.796 368.224 C 158.022 368.224,154.547 367.300,153.084 366.706 C 152.673 366.538,150.991 365.960,149.346 365.420 C 147.701 364.880,145.659 364.121,144.808 363.732 C 143.956 363.344,142.821 362.915,142.284 362.781 C 141.748 362.646,141.308 362.386,141.308 362.202 C 141.308 362.019,140.972 361.869,140.561 361.869 C 140.150 361.869,139.813 361.701,139.813 361.495 C 139.813 361.290,139.628 361.121,139.402 361.121 C 138.944 361.121,136.367 359.972,136.075 359.638 C 135.972 359.520,135.467 359.218,134.953 358.967 C 128.872 355.991,119.957 348.312,116.765 343.300 C 116.395 342.719,115.990 342.159,115.866 342.056 C 114.874 341.236,111.028 331.805,111.028 330.191 C 111.028 329.809,110.818 329.285,110.561 329.028 C 110.199 328.667,110.051 322.610,109.907 302.318 L 109.720 276.075 104.766 275.970 C 101.553 275.903,99.813 276.001,99.813 276.251 M200.166 277.115 C 200.061 277.388,200.023 279.705,200.081 282.264 L 200.187 286.916 207.477 286.916 L 214.766 286.916 214.766 281.869 L 214.766 276.822 207.561 276.721 C 201.847 276.640,200.317 276.722,200.166 277.115 M243.649 276.900 C 244.114 276.989,244.787 276.986,245.145 276.892 C 245.502 276.799,245.121 276.726,244.299 276.730 C 243.477 276.734,243.184 276.810,243.649 276.900 M328.505 276.899 C 328.967 276.988,329.724 276.988,330.187 276.899 C 330.650 276.810,330.271 276.737,329.346 276.737 C 328.421 276.737,328.042 276.810,328.505 276.899 M288.965 305.693 C 288.957 326.955,288.674 330.195,286.357 335.514 C 285.998 336.336,285.575 337.430,285.415 337.944 C 282.680 346.765,268.228 358.513,253.458 363.922 C 251.916 364.486,250.318 365.085,249.907 365.253 C 249.495 365.421,248.486 365.761,247.664 366.008 C 246.841 366.256,245.832 366.589,245.421 366.749 C 244.611 367.063,241.878 367.791,240.374 368.093 C 239.860 368.196,239.103 368.418,238.692 368.585 C 238.280 368.752,237.019 369.095,235.888 369.346 C 234.757 369.597,233.243 369.935,232.523 370.096 C 226.361 371.480,219.228 372.630,211.776 373.442 C 209.729 373.665,212.257 373.721,219.786 373.621 C 225.836 373.541,230.883 373.327,231.001 373.145 C 231.119 372.964,233.065 372.696,235.327 372.549 C 237.589 372.402,239.599 372.126,239.794 371.936 C 239.990 371.745,240.957 371.589,241.944 371.589 C 242.931 371.589,243.738 371.458,243.738 371.298 C 243.738 371.032,247.053 370.322,250.561 369.835 C 251.332 369.729,251.963 369.491,251.963 369.307 C 251.963 369.123,252.551 368.972,253.271 368.972 C 253.991 368.972,254.579 368.823,254.579 368.641 C 254.579 368.459,255.547 368.190,256.729 368.043 C 257.911 367.895,258.969 367.629,259.080 367.451 C 259.191 367.272,259.822 367.086,260.482 367.035 C 261.142 366.985,261.682 366.833,261.682 366.697 C 261.682 366.459,264.571 365.815,265.140 365.926 C 265.294 365.957,265.421 365.813,265.421 365.607 C 265.421 365.402,265.654 365.234,265.939 365.234 C 266.223 365.234,266.938 364.982,267.527 364.675 C 268.116 364.368,268.977 364.116,269.439 364.114 C 269.902 364.113,270.280 363.944,270.280 363.738 C 270.280 363.533,270.617 363.364,271.028 363.364 C 271.439 363.364,271.776 363.196,271.776 362.991 C 271.776 362.785,272.112 362.617,272.523 362.617 C 272.935 362.617,273.271 362.449,273.271 362.243 C 273.271 362.037,273.555 361.869,273.903 361.869 C 274.615 361.869,279.371 359.592,279.564 359.159 C 279.632 359.005,279.927 358.879,280.218 358.879 C 280.509 358.879,280.748 358.745,280.748 358.581 C 280.748 358.418,281.505 357.972,282.430 357.590 C 283.355 357.209,284.112 356.782,284.112 356.642 C 284.112 356.502,284.911 355.862,285.888 355.220 C 286.864 354.578,288.201 353.541,288.858 352.914 C 289.515 352.288,290.150 351.776,290.268 351.776 C 290.561 351.776,294.206 348.151,294.206 347.859 C 294.206 347.731,294.766 347.049,295.451 346.344 C 296.136 345.639,297.019 344.427,297.414 343.652 C 297.808 342.877,298.315 342.075,298.541 341.869 C 299.242 341.230,300.561 338.821,300.561 338.180 C 300.561 337.845,300.729 337.570,300.935 337.570 C 301.140 337.570,301.308 337.150,301.308 336.636 C 301.308 336.121,301.471 335.701,301.669 335.701 C 301.868 335.701,302.142 334.860,302.278 333.832 C 302.415 332.804,302.673 331.963,302.852 331.963 C 303.031 331.963,303.178 331.323,303.178 330.542 C 303.178 329.761,303.347 328.952,303.555 328.744 C 303.801 328.498,303.898 321.207,303.835 307.642 L 303.738 286.916 296.355 286.815 L 288.972 286.713 288.965 305.693 M240.151 313.692 C 230.550 320.280,231.512 337.270,241.728 341.539 C 243.630 342.333,249.346 337.630,249.346 335.270 C 249.346 335.034,249.876 335.581,250.524 336.486 C 253.348 340.429,256.070 342.200,257.868 341.263 C 260.505 339.888,265.071 333.932,265.053 331.891 C 265.049 331.544,265.215 331.155,265.421 331.028 C 265.933 330.712,265.894 324.664,265.369 323.017 C 263.984 318.671,261.164 314.873,258.071 313.189 L 256.255 312.201 254.475 313.493 C 253.496 314.203,251.973 315.766,251.089 316.967 L 249.483 319.149 249.042 318.173 C 248.194 316.291,243.854 312.150,242.730 312.150 C 242.547 312.150,241.387 312.843,240.151 313.692 M250.495 324.574 C 250.909 325.350,250.960 329.477,250.561 329.873 C 250.407 330.026,250.103 330.937,249.886 331.898 L 249.491 333.645 249.024 331.028 C 248.186 326.331,248.124 325.607,248.559 325.607 C 248.786 325.607,248.972 325.040,248.972 324.346 C 248.972 323.652,249.091 322.516,249.237 321.822 L 249.503 320.561 249.826 322.243 C 250.004 323.168,250.305 324.217,250.495 324.574 " stroke="none" fill="#37b5bd" fill-rule="evenodd"></path><path id="path1" d="M186.480 0.186 C 186.378 0.289,183.784 0.552,180.717 0.770 C 167.899 1.683,161.809 2.463,151.402 4.523 C 129.085 8.942,117.371 16.627,113.109 29.645 C 112.589 31.234,111.780 34.950,111.052 39.088 C 110.801 40.516,110.654 49.345,110.654 62.968 L 110.654 84.583 124.579 84.356 C 132.238 84.231,152.215 84.084,168.972 84.027 L 199.439 83.925 199.542 89.533 L 199.645 95.140 135.336 95.010 C 91.096 94.920,71.028 95.001,71.028 95.267 C 71.028 95.481,70.229 95.755,69.252 95.877 C 49.365 98.359,31.857 111.644,25.029 129.434 C 24.771 130.105,24.328 131.243,24.044 131.963 C 21.627 138.083,18.626 151.678,16.454 166.355 C 13.810 184.212,15.621 207.267,21.563 231.402 C 27.096 253.873,38.188 268.365,54.038 273.829 C 60.569 276.080,81.585 277.167,96.355 276.017 L 99.439 275.777 99.439 253.284 C 99.439 231.765,99.527 229.592,100.606 224.299 C 104.600 204.714,121.502 187.117,141.495 181.731 C 146.438 180.399,146.514 180.397,197.644 180.526 C 243.544 180.643,247.863 180.602,248.418 180.046 C 248.752 179.712,249.603 179.439,250.309 179.439 C 254.520 179.439,262.944 176.186,268.845 172.281 C 276.910 166.944,283.115 158.655,286.321 148.934 C 288.515 142.283,288.411 145.015,288.411 93.832 C 288.411 43.427,288.430 43.962,286.477 37.570 C 285.591 34.671,285.154 33.666,283.063 29.720 C 276.838 17.968,262.923 8.038,248.037 4.725 C 239.645 2.857,227.494 1.358,216.906 0.883 C 213.970 0.752,211.479 0.499,211.370 0.322 C 211.164 -0.011,186.811 -0.144,186.480 0.186 M152.897 27.825 C 159.938 29.567,164.502 34.430,165.984 41.770 C 167.144 47.511,164.063 54.862,159.124 58.141 C 149.577 64.480,137.445 60.722,133.647 50.250 C 129.130 37.797,140.355 24.722,152.897 27.825 M301.963 95.230 L 299.813 95.364 299.813 116.015 C 299.813 138.370,299.579 142.082,297.732 149.028 C 293.491 164.978,281.580 179.171,266.542 186.194 C 262.180 188.232,261.163 188.607,257.113 189.672 C 251.694 191.097,247.631 191.489,240.935 191.233 C 230.436 190.831,152.080 190.612,152.310 190.985 C 152.428 191.176,151.641 191.440,150.561 191.573 C 148.195 191.864,145.427 192.458,143.258 193.141 C 142.377 193.418,141.487 193.645,141.281 193.645 C 140.320 193.645,134.395 196.647,131.028 198.840 C 121.064 205.329,113.805 215.947,111.323 227.664 C 110.700 230.606,110.441 324.861,111.048 328.037 C 111.475 330.277,112.311 333.354,112.876 334.766 C 113.979 337.526,116.599 342.418,117.382 343.178 C 117.488 343.280,118.070 344.037,118.675 344.860 C 124.695 353.036,137.028 360.796,151.589 365.566 C 160.985 368.645,171.173 370.967,180.561 372.170 C 182.925 372.473,186.458 372.928,188.411 373.183 C 192.898 373.767,205.111 373.764,209.533 373.179 C 211.383 372.934,214.327 372.564,216.075 372.358 C 221.068 371.768,225.975 370.944,230.841 369.878 C 237.222 368.480,237.691 368.368,240.187 367.659 C 241.421 367.309,242.935 366.890,243.551 366.728 C 245.346 366.256,249.839 364.853,250.654 364.509 C 251.065 364.336,253.000 363.553,254.953 362.769 C 267.369 357.789,276.861 350.670,282.389 342.192 C 283.748 340.108,284.860 338.165,284.860 337.874 C 284.860 337.584,285.005 337.186,285.181 336.991 C 285.358 336.795,285.802 335.710,286.168 334.579 C 286.534 333.449,286.925 332.271,287.037 331.963 C 288.077 329.105,288.295 325.303,288.474 306.822 L 288.662 287.477 244.184 287.477 C 203.971 287.477,199.684 287.420,199.479 286.885 C 199.113 285.930,199.231 277.249,199.619 276.636 C 199.928 276.146,203.320 276.075,226.435 276.075 C 255.387 276.075,252.570 276.243,259.626 274.091 C 267.244 271.767,273.851 266.631,276.483 260.989 C 278.738 256.156,279.771 254.206,280.079 254.206 C 280.241 254.206,280.374 253.969,280.374 253.680 C 280.374 253.390,281.225 252.388,282.265 251.453 C 291.854 242.832,303.105 249.085,303.170 263.071 C 303.192 267.805,308.070 272.502,315.140 274.600 C 316.271 274.936,317.701 275.380,318.318 275.587 C 322.952 277.145,340.369 276.144,346.729 273.956 C 359.445 269.579,368.909 257.053,376.056 235.140 C 376.492 233.804,376.987 232.374,377.157 231.963 C 377.327 231.551,377.761 230.206,378.122 228.972 C 378.483 227.738,378.915 226.393,379.081 225.981 C 379.957 223.816,382.543 211.691,383.202 206.660 C 384.290 198.356,384.480 179.968,383.546 173.458 C 383.354 172.121,382.925 169.009,382.592 166.542 C 382.259 164.075,381.758 160.710,381.478 159.065 C 380.635 154.112,377.691 140.506,377.191 139.252 C 377.027 138.841,376.611 137.411,376.266 136.075 C 375.588 133.442,373.121 126.028,372.721 125.421 C 372.586 125.215,371.992 123.869,371.402 122.430 C 370.812 120.991,369.939 119.186,369.464 118.419 C 368.988 117.652,368.598 116.938,368.598 116.834 C 368.598 116.729,367.858 115.506,366.954 114.116 C 359.984 103.402,351.320 97.678,339.346 95.878 C 338.575 95.762,337.944 95.506,337.944 95.310 C 337.944 94.975,307.121 94.906,301.963 95.230 M325.234 187.141 C 340.451 191.210,347.121 208.956,338.594 222.688 C 331.078 234.793,313.069 236.917,302.758 226.916 C 285.148 209.835,301.550 180.809,325.234 187.141 M312.958 193.863 C 310.911 195.310,308.104 201.518,306.588 207.949 C 306.045 210.253,306.046 216.857,306.589 218.207 C 308.893 223.928,310.989 225.524,316.262 225.570 C 320.833 225.611,323.610 223.543,324.691 219.296 C 325.081 217.765,325.093 217.755,327.289 217.449 C 334.279 216.472,336.195 206.522,330.181 202.435 C 328.430 201.245,327.696 201.212,327.964 202.336 C 328.075 202.799,328.436 204.260,328.767 205.582 C 329.271 207.594,329.296 208.327,328.921 210.068 C 327.778 215.389,325.267 217.478,324.685 213.594 C 324.244 210.655,323.364 209.795,323.364 212.302 L 323.364 214.304 321.799 214.094 C 320.354 213.900,320.120 213.997,318.768 215.350 C 316.959 217.159,316.636 216.990,316.636 214.239 C 316.636 211.218,317.757 208.008,319.229 206.817 C 319.720 206.419,319.635 206.382,318.692 206.587 C 314.846 207.419,313.000 215.098,316.036 217.635 C 317.227 218.631,319.452 218.509,320.667 217.383 C 323.220 215.016,323.100 217.811,320.516 220.907 C 317.987 223.936,315.410 224.571,313.991 222.515 C 312.288 220.047,311.964 218.767,312.029 214.766 C 312.083 211.401,312.327 209.845,313.625 204.602 C 314.063 202.830,315.357 199.122,315.985 197.836 C 317.547 194.641,315.555 192.026,312.958 193.863 M299.813 234.229 C 299.813 234.926,299.185 235.229,298.314 234.952 C 297.397 234.661,297.348 233.807,298.220 233.318 C 298.947 232.911,299.813 233.407,299.813 234.229 M301.445 239.653 C 302.628 240.584,302.828 243.053,301.811 244.176 C 300.971 245.105,298.284 245.108,297.446 244.181 C 294.920 241.390,298.500 237.337,301.445 239.653 M253.645 310.680 C 262.324 312.973,268.027 322.121,265.981 330.470 C 261.514 348.698,236.857 348.491,233.078 330.193 C 230.640 318.392,242.010 307.606,253.645 310.680 " stroke="none" fill="#082525" fill-rule="evenodd"></path><path id="path2" d="M314.393 187.148 C 312.759 187.354,312.357 187.511,308.268 189.550 C 286.938 200.185,294.931 232.658,318.879 232.658 C 336.353 232.658,347.352 214.492,339.237 199.034 C 336.804 194.401,332.186 190.196,327.725 188.554 C 326.869 188.239,325.858 187.814,325.480 187.611 C 324.744 187.215,316.571 186.874,314.393 187.148 M316.859 193.330 C 317.006 193.568,317.104 194.350,317.077 195.069 C 317.025 196.448,316.469 198.221,314.799 202.336 C 314.611 202.799,314.175 204.439,313.831 205.981 C 313.486 207.523,313.051 209.393,312.864 210.137 C 312.437 211.833,312.417 218.481,312.836 219.351 C 314.978 223.793,315.285 224.058,317.094 223.024 C 318.731 222.088,320.262 220.639,321.179 219.158 C 322.186 217.531,321.903 216.789,320.724 217.967 C 316.738 221.954,312.154 214.823,315.053 209.144 C 316.745 205.828,320.926 204.669,322.428 207.100 C 322.811 207.720,321.463 208.010,320.627 207.488 C 319.715 206.918,318.299 208.242,317.921 210.018 C 317.802 210.573,317.549 211.414,317.357 211.887 C 317.166 212.359,317.009 213.514,317.009 214.454 L 317.009 216.162 318.551 214.769 C 319.868 213.579,320.278 213.405,321.355 213.580 L 322.617 213.785 322.617 211.939 C 322.617 210.380,322.726 210.093,323.322 210.093 C 324.171 210.093,325.234 212.138,325.234 213.773 C 325.234 215.993,326.486 215.355,327.713 212.510 C 328.600 210.453,328.588 205.177,327.691 203.289 C 325.933 199.583,330.483 200.764,332.876 204.635 C 336.184 209.986,333.270 217.284,327.580 217.901 C 325.470 218.129,325.452 218.142,325.064 219.638 C 323.510 225.628,317.180 228.065,311.141 224.998 C 304.423 221.588,303.687 209.583,309.470 197.777 C 311.410 193.816,315.601 191.294,316.859 193.330 M298.155 233.980 C 298.041 234.164,298.194 234.409,298.495 234.524 C 299.079 234.748,299.578 234.282,299.180 233.884 C 298.842 233.546,298.397 233.587,298.155 233.980 M297.664 240.185 C 296.368 241.657,297.562 244.486,299.479 244.486 C 301.755 244.486,302.993 241.712,301.372 240.245 C 300.541 239.492,298.305 239.456,297.664 240.185 M288.224 248.447 C 283.403 250.232,280.108 253.782,277.674 259.813 C 277.466 260.327,277.152 261.000,276.976 261.308 C 276.800 261.617,276.395 262.374,276.077 262.991 C 273.323 268.319,266.650 272.434,255.130 275.908 C 254.156 276.202,245.169 276.996,242.710 277.006 C 242.213 277.008,241.869 277.239,241.869 277.570 C 241.869 278.066,247.269 278.131,288.224 278.131 C 325.994 278.131,334.579 278.041,334.579 277.645 C 334.579 277.276,332.670 277.055,326.588 276.724 C 322.193 276.484,318.198 276.129,317.710 275.935 C 317.222 275.741,315.813 275.286,314.579 274.925 C 306.709 272.621,303.208 268.557,302.278 260.648 C 301.289 252.228,298.182 248.579,291.810 248.349 C 290.146 248.288,288.533 248.333,288.224 248.447 " stroke="none" fill="#f8f8f8" fill-rule="evenodd"></path><path id="path3" d="M177.383 0.413 C 175.327 0.572,172.215 0.882,170.467 1.102 C 168.720 1.322,166.533 1.587,165.607 1.691 C 161.752 2.124,155.622 3.066,154.553 3.390 C 153.921 3.582,152.880 3.738,152.239 3.738 C 151.597 3.738,150.968 3.907,150.841 4.112 C 150.538 4.602,150.918 4.585,154.128 3.966 C 157.846 3.249,161.279 2.725,166.542 2.070 C 171.544 1.448,172.737 1.339,180.717 0.770 C 183.784 0.552,186.378 0.289,186.480 0.186 C 186.728 -0.062,182.026 0.056,177.383 0.413 M211.402 0.374 C 211.529 0.579,212.927 0.727,214.508 0.701 C 217.168 0.658,217.257 0.632,215.701 0.355 C 213.263 -0.079,211.128 -0.070,211.402 0.374 M221.869 1.139 C 224.527 1.553,226.531 1.523,224.486 1.100 C 223.664 0.930,222.318 0.804,221.495 0.819 C 220.031 0.847,220.038 0.854,221.869 1.139 M229.533 1.855 C 230.252 2.023,232.103 2.251,233.645 2.363 C 235.557 2.502,235.973 2.471,234.953 2.266 C 232.840 1.842,227.850 1.463,229.533 1.855 M238.505 2.991 C 239.019 3.155,239.860 3.290,240.374 3.290 L 241.308 3.290 240.374 2.991 C 239.860 2.826,239.019 2.691,238.505 2.691 L 237.570 2.691 238.505 2.991 M243.364 3.738 C 243.879 3.903,244.720 4.034,245.234 4.031 C 246.073 4.024,246.054 3.995,245.047 3.738 C 243.465 3.336,242.108 3.336,243.364 3.738 M147.290 4.741 C 146.776 4.826,145.935 5.035,145.421 5.208 C 144.907 5.380,143.729 5.728,142.804 5.982 C 140.266 6.678,135.665 8.218,134.336 8.816 C 133.688 9.107,133.055 9.346,132.930 9.346 C 132.426 9.346,129.017 11.069,126.729 12.481 C 116.027 19.083,111.628 27.050,110.298 42.243 C 109.816 47.746,109.801 84.486,110.280 84.486 C 110.525 84.486,110.654 77.048,110.654 62.920 C 110.654 49.331,110.801 40.515,111.052 39.088 C 114.654 18.594,123.038 11.039,148.972 4.916 C 150.585 4.535,149.335 4.405,147.290 4.741 M248.598 4.860 C 249.876 5.269,250.859 5.269,249.907 4.860 C 249.495 4.683,248.822 4.543,248.411 4.550 C 247.810 4.558,247.847 4.619,248.598 4.860 M253.832 6.292 C 254.140 6.483,254.813 6.751,255.327 6.889 C 255.977 7.062,256.091 7.033,255.701 6.792 C 255.393 6.601,254.720 6.333,254.206 6.196 C 253.556 6.022,253.442 6.051,253.832 6.292 M259.065 8.411 C 259.579 8.705,260.168 8.945,260.374 8.945 C 260.579 8.945,260.327 8.705,259.813 8.411 C 259.299 8.117,258.710 7.877,258.505 7.877 C 258.299 7.877,258.551 8.117,259.065 8.411 M266.916 12.472 C 266.916 12.575,267.421 13.019,268.037 13.458 C 268.654 13.897,269.159 14.172,269.159 14.070 C 269.159 13.967,268.654 13.523,268.037 13.084 C 267.421 12.645,266.916 12.370,266.916 12.472 M104.968 16.848 C 103.632 18.294,104.221 18.270,105.607 16.822 C 106.198 16.206,106.524 15.712,106.332 15.726 C 106.139 15.741,105.525 16.245,104.968 16.848 M272.928 17.312 C 273.014 17.375,274.093 18.336,275.327 19.448 L 277.570 21.468 275.527 19.332 C 274.403 18.157,273.324 17.196,273.128 17.196 C 272.933 17.196,272.843 17.248,272.928 17.312 M281.121 26.542 C 281.561 27.159,282.004 27.664,282.107 27.664 C 282.210 27.664,281.935 27.159,281.495 26.542 C 281.056 25.925,280.613 25.421,280.510 25.421 C 280.407 25.421,280.682 25.925,281.121 26.542 M145.234 28.011 C 142.507 28.823,140.935 29.446,140.935 29.715 C 140.935 29.826,141.516 29.674,142.227 29.376 C 154.846 24.104,167.215 33.569,165.310 47.041 C 163.921 56.859,153.152 63.480,144.197 60.021 C 143.216 59.641,142.315 59.429,142.195 59.549 C 141.563 60.182,147.473 61.403,150.233 61.210 C 158.993 60.598,164.678 55.017,166.226 45.509 C 167.912 35.151,155.632 24.915,145.234 28.011 M283.738 31.028 C 284.158 31.850,284.585 32.523,284.688 32.523 C 284.791 32.523,284.532 31.850,284.112 31.028 C 283.693 30.206,283.265 29.533,283.162 29.533 C 283.060 29.533,283.319 30.206,283.738 31.028 M132.950 40.452 C 132.824 40.923,132.735 41.645,132.753 42.056 C 132.771 42.467,132.939 42.148,133.128 41.345 C 133.492 39.792,133.336 39.010,132.950 40.452 M287.719 42.804 C 287.844 43.832,288.009 44.743,288.085 44.829 C 288.378 45.157,288.155 42.393,287.831 41.682 C 287.602 41.179,287.566 41.545,287.719 42.804 M132.716 46.947 C 132.719 47.547,132.883 48.290,133.079 48.598 C 133.323 48.980,133.364 48.682,133.208 47.664 C 132.924 45.816,132.708 45.501,132.716 46.947 M288.326 47.477 C 288.326 48.402,288.399 48.780,288.488 48.318 C 288.577 47.855,288.577 47.098,288.488 46.636 C 288.399 46.173,288.326 46.551,288.326 47.477 M134.206 51.859 C 134.206 52.049,134.794 53.033,135.514 54.045 C 136.234 55.057,136.822 55.777,136.822 55.644 C 136.822 55.511,136.234 54.527,135.514 53.458 C 134.794 52.389,134.206 51.669,134.206 51.859 M154.766 84.108 L 125.047 84.306 162.150 84.396 L 199.252 84.486 199.252 89.712 L 199.252 94.938 191.682 95.047 L 184.112 95.157 191.879 95.242 L 199.646 95.327 199.542 89.626 L 199.439 83.925 191.963 83.918 C 187.850 83.914,171.112 84.000,154.766 84.108 M68.411 95.327 C 68.411 95.533,67.792 95.701,67.036 95.701 C 66.279 95.701,65.144 95.858,64.513 96.051 C 63.881 96.243,62.271 96.682,60.935 97.026 C 59.598 97.371,58.168 97.785,57.757 97.947 C 57.346 98.110,56.421 98.453,55.701 98.710 C 46.837 101.880,33.730 112.107,30.931 118.037 C 30.713 118.500,30.393 118.879,30.220 118.879 C 30.048 118.879,29.907 119.117,29.907 119.408 C 29.907 119.699,29.780 119.994,29.626 120.062 C 28.746 120.454,24.132 129.457,24.425 130.211 C 24.520 130.455,24.800 130.105,25.047 129.434 C 30.015 115.967,44.109 102.707,58.131 98.309 C 58.953 98.051,60.047 97.706,60.561 97.542 C 61.766 97.158,66.963 96.162,69.252 95.877 C 71.311 95.620,71.648 94.953,69.720 94.953 C 69.000 94.953,68.411 95.121,68.411 95.327 M288.685 115.888 C 288.634 127.505,288.510 137.935,288.410 139.065 C 288.254 140.826,288.281 140.951,288.603 139.936 C 288.841 139.184,288.942 130.725,288.878 116.759 L 288.779 94.766 288.685 115.888 M337.944 95.310 C 337.944 95.727,340.485 96.275,340.827 95.933 C 340.955 95.805,340.695 95.701,340.249 95.701 C 339.804 95.701,339.439 95.533,339.439 95.327 C 339.439 95.121,339.103 94.953,338.692 94.953 C 338.280 94.953,337.944 95.114,337.944 95.310 M299.115 118.224 C 299.143 130.818,299.296 140.280,299.456 139.252 C 299.904 136.381,299.888 95.327,299.439 95.327 C 299.194 95.327,299.083 103.175,299.115 118.224 M360.935 106.542 C 362.155 107.776,363.238 108.785,363.341 108.785 C 363.444 108.785,362.529 107.776,361.308 106.542 C 360.088 105.308,359.005 104.299,358.902 104.299 C 358.799 104.299,359.714 105.308,360.935 106.542 M374.046 128.972 C 374.184 129.486,374.452 130.159,374.643 130.467 C 374.883 130.857,374.913 130.743,374.739 130.093 C 374.601 129.579,374.333 128.907,374.143 128.598 C 373.902 128.208,373.872 128.322,374.046 128.972 M23.748 131.402 C 23.603 131.813,23.343 132.486,23.170 132.897 C 22.998 133.308,22.588 134.570,22.259 135.701 C 21.931 136.832,21.511 138.262,21.327 138.879 C 21.143 139.495,20.719 141.262,20.385 142.804 C 20.051 144.346,19.617 146.124,19.421 146.756 C 19.226 147.387,19.065 148.357,19.065 148.910 C 19.065 149.464,18.918 150.209,18.737 150.566 C 18.278 151.474,17.196 157.394,17.196 158.999 C 17.196 159.731,17.028 160.434,16.822 160.561 C 16.617 160.688,16.449 161.343,16.449 162.017 C 16.449 162.691,16.197 164.910,15.890 166.948 C 15.583 168.987,15.352 171.664,15.376 172.897 L 15.421 175.140 15.720 173.458 C 15.885 172.533,16.032 170.905,16.047 169.842 C 16.062 168.778,16.236 167.096,16.433 166.103 C 16.629 165.111,17.063 162.533,17.395 160.374 C 18.950 150.284,22.537 134.930,23.960 132.271 C 24.173 131.873,24.272 131.346,24.180 131.101 C 24.082 130.841,23.902 130.966,23.748 131.402 M375.938 134.766 C 376.331 136.545,376.867 137.613,376.594 136.075 C 376.467 135.355,376.212 134.514,376.027 134.206 C 375.807 133.839,375.776 134.033,375.938 134.766 M377.798 141.869 C 378.106 143.244,378.320 143.542,378.312 142.586 C 378.309 142.192,378.136 141.617,377.927 141.308 C 377.650 140.899,377.615 141.050,377.798 141.869 M287.701 143.551 C 287.543 144.477,287.176 146.061,286.886 147.073 C 286.432 148.655,286.421 150.191,286.875 148.745 C 287.606 146.410,288.274 143.171,288.145 142.584 C 288.053 142.166,287.868 142.568,287.701 143.551 M298.545 143.021 C 298.420 143.346,298.318 144.049,298.318 144.583 C 298.318 145.117,298.159 146.071,297.964 146.702 C 297.770 147.334,297.337 148.860,297.001 150.093 C 296.666 151.327,296.253 152.673,296.084 153.084 C 295.767 153.858,294.822 156.125,294.137 157.757 C 293.122 160.175,289.827 165.900,288.973 166.729 C 288.867 166.832,288.031 167.925,287.114 169.159 C 281.616 176.560,269.452 185.578,262.430 187.460 C 261.916 187.598,261.159 187.853,260.748 188.027 C 260.336 188.201,259.682 188.447,259.292 188.573 C 258.903 188.699,258.689 188.907,258.817 189.035 C 259.152 189.370,261.922 188.352,266.542 186.194 C 283.165 178.430,296.027 161.653,298.875 144.019 C 299.132 142.421,298.967 141.921,298.545 143.021 M378.744 145.794 C 378.744 146.103,378.889 146.692,379.065 147.103 C 379.268 147.574,379.387 147.643,379.387 147.290 C 379.387 146.981,379.242 146.393,379.065 145.981 C 378.863 145.510,378.744 145.441,378.744 145.794 M379.503 149.159 C 379.522 150.130,380.110 151.726,380.123 150.841 C 380.129 150.430,379.990 149.757,379.813 149.346 C 379.616 148.888,379.496 148.815,379.503 149.159 M285.799 150.346 C 285.535 151.260,284.922 152.724,283.637 155.514 C 281.294 160.596,275.890 167.166,271.315 170.494 C 267.234 173.463,267.093 173.727,270.841 171.384 C 276.477 167.860,288.088 151.515,286.256 149.683 C 286.143 149.569,285.937 149.868,285.799 150.346 M380.432 153.458 C 380.557 154.280,380.722 155.023,380.797 155.109 C 381.080 155.430,380.868 153.428,380.543 152.710 C 380.307 152.189,380.274 152.416,380.432 153.458 M381.554 159.439 C 381.679 160.262,381.843 161.005,381.919 161.090 C 382.202 161.412,381.990 159.409,381.665 158.692 C 381.429 158.171,381.395 158.397,381.554 159.439 M382.310 164.299 C 382.429 165.327,382.588 166.238,382.665 166.324 C 382.927 166.618,382.729 164.298,382.412 163.364 C 382.197 162.734,382.164 163.039,382.310 164.299 M383.222 171.246 C 383.246 171.949,383.403 173.028,383.570 173.645 C 383.771 174.382,383.804 173.998,383.666 172.523 C 383.436 170.051,383.152 169.234,383.222 171.246 M261.682 176.262 C 261.168 176.556,260.916 176.796,261.121 176.796 C 261.327 176.796,261.916 176.556,262.430 176.262 C 262.944 175.968,263.196 175.727,262.991 175.727 C 262.785 175.727,262.196 175.968,261.682 176.262 M14.820 179.120 C 14.506 182.121,14.576 190.280,14.938 192.897 C 15.123 194.237,15.240 191.793,15.274 185.888 C 15.329 176.549,15.235 175.149,14.820 179.120 M257.196 177.944 C 256.426 178.190,256.393 178.249,257.009 178.275 C 257.421 178.292,258.009 178.143,258.318 177.944 C 258.973 177.521,258.518 177.521,257.196 177.944 M384.112 188.972 C 384.112 198.973,384.138 199.403,384.441 194.518 C 384.630 191.472,384.630 186.867,384.441 183.677 C 384.132 178.463,384.112 178.780,384.112 188.972 M252.897 179.065 C 251.945 179.475,252.927 179.475,254.206 179.065 C 254.957 178.825,254.994 178.764,254.393 178.755 C 253.981 178.749,253.308 178.889,252.897 179.065 M248.692 179.687 C 247.959 179.982,248.145 180.561,248.972 180.561 C 249.383 180.561,249.720 180.404,249.720 180.213 C 249.720 180.022,250.098 179.792,250.561 179.703 C 251.195 179.581,251.127 179.536,250.280 179.520 C 249.664 179.508,248.949 179.583,248.692 179.687 M147.290 180.580 C 146.447 180.770,146.913 180.803,148.598 180.672 C 150.037 180.560,151.285 180.405,151.371 180.328 C 151.638 180.086,148.665 180.270,147.290 180.580 M141.682 181.682 C 140.939 182.162,141.873 182.162,142.991 181.682 L 143.738 181.361 142.991 181.340 C 142.579 181.329,141.991 181.483,141.682 181.682 M138.505 182.603 C 137.061 183.264,137.732 183.274,139.439 182.617 C 140.159 182.340,140.495 182.108,140.187 182.101 C 139.879 182.095,139.121 182.321,138.505 182.603 M131.495 185.446 C 130.724 185.853,130.093 186.270,130.093 186.372 C 130.093 186.538,133.046 185.158,133.427 184.814 C 133.857 184.425,132.734 184.792,131.495 185.446 M318.416 186.433 C 318.881 186.522,319.553 186.519,319.911 186.425 C 320.268 186.332,319.888 186.258,319.065 186.262 C 318.243 186.267,317.951 186.343,318.416 186.433 M313.084 186.916 L 312.336 187.237 313.084 187.226 C 313.495 187.220,314.252 187.081,314.766 186.916 L 315.701 186.617 314.766 186.606 C 314.252 186.600,313.495 186.739,313.084 186.916 M322.991 186.916 C 323.505 187.081,324.262 187.215,324.673 187.215 C 325.265 187.215,325.226 187.153,324.486 186.916 C 323.972 186.751,323.215 186.617,322.804 186.617 C 322.212 186.617,322.251 186.679,322.991 186.916 M124.953 189.202 C 123.679 190.018,123.267 190.566,124.393 189.947 C 125.250 189.476,126.594 188.437,126.355 188.429 C 126.252 188.426,125.621 188.774,124.953 189.202 M255.327 189.600 C 252.057 190.510,248.601 190.813,241.326 190.826 C 237.018 190.834,233.990 190.947,234.597 191.077 C 236.457 191.475,247.732 191.426,250.583 191.007 C 253.514 190.576,258.318 189.513,258.318 189.295 C 258.318 189.056,256.680 189.223,255.327 189.600 M331.589 190.207 C 332.103 190.556,333.238 191.493,334.112 192.291 C 334.986 193.088,335.701 193.623,335.701 193.479 C 335.701 192.985,331.544 189.520,330.990 189.552 C 330.805 189.563,331.075 189.857,331.589 190.207 M121.651 191.616 L 120.187 192.951 121.776 191.740 C 123.227 190.634,123.582 190.280,123.240 190.280 C 123.171 190.280,122.456 190.881,121.651 191.616 M149.159 190.989 C 149.159 191.173,148.528 191.412,147.757 191.519 C 145.893 191.780,144.279 192.140,143.364 192.500 C 142.953 192.661,141.944 193.004,141.121 193.262 C 137.629 194.357,131.683 197.436,128.844 199.620 C 122.467 204.527,113.448 216.184,113.674 219.229 C 113.691 219.447,114.071 218.869,114.520 217.944 C 118.460 209.822,123.987 203.426,131.028 198.840 C 134.395 196.647,140.320 193.645,141.281 193.645 C 141.487 193.645,142.377 193.418,143.258 193.141 C 145.427 192.458,148.195 191.864,150.561 191.573 C 151.641 191.440,152.430 191.179,152.315 190.993 C 152.043 190.554,149.159 190.550,149.159 190.989 M303.214 192.161 C 302.515 192.777,302.021 193.361,302.118 193.458 C 302.215 193.555,302.862 193.047,303.557 192.331 C 305.104 190.735,304.930 190.648,303.214 192.161 M118.562 194.056 C 117.875 194.682,117.381 195.263,117.467 195.348 C 117.552 195.433,118.189 194.917,118.884 194.200 C 120.436 192.599,120.254 192.518,118.562 194.056 M313.515 193.178 C 313.419 193.332,314.040 193.458,314.895 193.458 C 316.377 193.458,316.459 193.518,316.680 194.766 C 316.909 196.065,316.911 196.066,316.960 194.935 C 317.032 193.269,314.318 191.884,313.515 193.178 M300.753 194.661 L 300.097 195.701 300.962 194.870 C 301.438 194.413,301.734 193.945,301.619 193.830 C 301.504 193.716,301.114 194.089,300.753 194.661 M311.701 194.673 C 311.172 195.238,310.466 196.290,310.131 197.009 C 309.796 197.729,309.735 197.999,309.995 197.609 C 310.255 197.220,311.013 196.168,311.680 195.273 C 313.073 193.402,313.080 193.199,311.701 194.673 M336.075 193.961 C 336.075 194.134,336.437 194.597,336.880 194.989 L 337.686 195.701 337.024 194.673 C 336.342 193.613,336.075 193.412,336.075 193.961 M338.318 197.009 C 339.344 198.451,339.587 198.452,338.768 197.012 C 338.417 196.396,337.993 195.892,337.825 195.890 C 337.657 195.889,337.879 196.393,338.318 197.009 M15.339 198.349 C 15.351 200.677,15.601 202.706,17.133 212.897 C 17.499 215.331,18.183 218.856,18.693 220.935 C 18.870 221.654,19.287 223.589,19.620 225.234 C 19.953 226.879,20.385 228.855,20.580 229.626 C 21.762 234.301,22.814 238.106,23.190 239.065 C 23.352 239.477,23.587 240.132,23.713 240.521 C 23.840 240.910,24.029 241.142,24.135 241.037 C 24.240 240.931,23.921 239.603,23.426 238.086 C 20.549 229.277,16.888 210.820,16.060 200.958 C 15.650 196.073,15.321 194.881,15.339 198.349 M298.158 198.451 C 297.313 200.086,297.436 200.412,298.339 198.930 C 298.761 198.238,299.025 197.592,298.926 197.493 C 298.827 197.394,298.482 197.826,298.158 198.451 M113.020 199.720 C 110.820 202.053,105.830 209.720,106.512 209.720 C 106.734 209.720,106.916 209.528,106.916 209.294 C 106.916 208.736,110.741 202.999,112.791 200.481 C 114.617 198.240,114.711 197.926,113.020 199.720 M340.290 200.739 C 340.722 201.763,341.142 202.534,341.223 202.453 C 341.400 202.276,339.932 198.879,339.679 198.879 C 339.583 198.879,339.857 199.716,340.290 200.739 M314.808 200.789 C 314.578 201.450,314.455 202.056,314.535 202.136 C 314.614 202.216,314.868 201.741,315.099 201.080 C 315.329 200.419,315.452 199.813,315.372 199.733 C 315.292 199.653,315.038 200.129,314.808 200.789 M296.803 201.360 C 296.596 201.903,296.497 202.416,296.582 202.501 C 296.667 202.586,296.915 202.142,297.134 201.514 C 297.620 200.120,297.326 199.983,296.803 201.360 M330.171 202.428 C 330.927 202.942,331.973 204.077,332.498 204.952 C 333.022 205.826,333.452 206.357,333.454 206.131 C 333.464 205.032,330.199 201.495,329.176 201.495 C 328.968 201.495,329.416 201.915,330.171 202.428 M313.858 203.578 C 313.721 204.126,313.693 204.658,313.795 204.761 C 313.898 204.864,314.095 204.500,314.232 203.952 C 314.370 203.404,314.398 202.872,314.295 202.769 C 314.193 202.666,313.996 203.030,313.858 203.578 M383.414 204.146 C 383.284 204.796,383.197 205.769,383.221 206.308 C 383.245 206.848,383.416 206.381,383.600 205.270 C 383.960 203.104,383.807 202.181,383.414 204.146 M295.956 203.881 C 295.816 204.247,295.712 204.828,295.725 205.171 C 295.740 205.584,295.870 205.490,296.109 204.892 C 296.308 204.395,296.412 203.815,296.341 203.602 C 296.270 203.390,296.097 203.515,295.956 203.881 M341.340 203.738 C 341.352 204.047,341.506 204.636,341.682 205.047 L 342.004 205.794 342.024 205.047 C 342.035 204.636,341.882 204.047,341.682 203.738 C 341.360 203.240,341.322 203.240,341.340 203.738 M313.130 206.183 C 313.002 206.517,312.912 207.155,312.931 207.601 C 312.955 208.175,313.070 208.045,313.326 207.155 C 313.698 205.861,313.545 205.101,313.130 206.183 M328.743 208.039 C 328.747 210.307,328.790 210.475,329.071 209.306 C 329.255 208.540,329.253 207.410,329.067 206.690 C 328.789 205.620,328.739 205.830,328.743 208.039 M317.913 206.326 C 317.006 206.714,315.140 208.829,315.142 209.468 C 315.142 209.709,315.452 209.402,315.829 208.785 C 316.692 207.373,317.295 206.898,318.629 206.579 C 319.324 206.412,319.606 206.459,319.449 206.714 C 319.224 207.077,320.243 207.286,321.439 207.122 C 321.749 207.080,321.835 207.230,321.662 207.509 C 321.474 207.814,321.536 207.870,321.847 207.677 C 323.158 206.867,319.549 205.628,317.913 206.326 M306.355 207.477 C 306.213 208.123,306.181 208.736,306.284 208.839 C 306.387 208.941,306.587 208.497,306.729 207.850 C 306.871 207.204,306.903 206.591,306.800 206.489 C 306.697 206.386,306.497 206.830,306.355 207.477 M333.645 209.346 C 333.645 210.746,333.768 211.697,333.920 211.460 C 334.071 211.222,334.194 210.271,334.194 209.346 C 334.194 208.421,334.071 207.469,333.920 207.232 C 333.768 206.995,333.645 207.946,333.645 209.346 M342.182 209.720 C 342.182 211.262,342.248 211.893,342.328 211.121 C 342.409 210.350,342.409 209.089,342.328 208.318 C 342.248 207.547,342.182 208.178,342.182 209.720 M295.450 209.907 C 295.451 211.346,295.519 211.889,295.600 211.113 C 295.681 210.338,295.679 209.160,295.597 208.496 C 295.514 207.833,295.448 208.467,295.450 209.907 M105.203 211.465 C 104.842 212.253,104.481 213.023,104.401 213.178 C 104.321 213.332,104.391 213.456,104.557 213.454 C 104.901 213.450,106.249 210.423,106.012 210.187 C 105.928 210.102,105.563 210.677,105.203 211.465 M312.006 212.991 C 311.770 215.836,312.135 219.564,312.702 220.101 C 312.860 220.251,312.855 219.953,312.690 219.439 C 312.524 218.925,312.410 216.612,312.436 214.299 C 312.491 209.382,312.342 208.931,312.006 212.991 M314.642 210.343 C 314.505 210.480,314.410 211.111,314.431 211.745 L 314.469 212.897 314.776 211.591 C 315.096 210.231,315.063 209.922,314.642 210.343 M323.190 210.561 C 322.879 211.517,322.794 214.206,323.074 214.206 C 323.234 214.206,323.364 213.332,323.364 212.265 C 323.364 210.448,323.401 210.370,323.946 211.050 C 324.504 211.747,324.511 211.742,324.120 210.935 C 323.658 209.983,323.409 209.883,323.190 210.561 M316.871 211.308 C 316.525 212.601,316.594 216.379,316.969 216.610 C 317.152 216.723,317.980 216.138,318.808 215.309 C 320.075 214.043,320.483 213.840,321.372 214.034 C 322.182 214.212,322.299 214.173,321.869 213.868 C 320.936 213.205,320.432 213.389,318.631 215.047 L 316.905 216.636 317.082 213.551 C 317.269 210.297,317.236 209.946,316.871 211.308 M382.280 212.000 C 382.143 212.857,382.104 213.631,382.193 213.720 C 382.283 213.809,382.473 213.187,382.617 212.336 C 382.760 211.486,382.800 210.712,382.704 210.616 C 382.608 210.521,382.417 211.143,382.280 212.000 M305.917 213.271 C 305.919 214.710,305.986 215.253,306.067 214.478 C 306.148 213.702,306.147 212.524,306.064 211.861 C 305.982 211.197,305.915 211.832,305.917 213.271 M324.704 213.645 C 325.115 216.142,326.117 216.343,327.392 214.185 C 327.839 213.429,327.791 213.448,327.113 214.299 C 326.662 214.864,326.054 215.327,325.763 215.327 C 325.436 215.327,325.231 214.934,325.228 214.299 C 325.225 213.734,325.050 213.019,324.840 212.710 C 324.566 212.308,324.528 212.572,324.704 213.645 M332.051 214.684 C 331.380 215.710,331.083 216.339,331.392 216.083 C 332.045 215.541,333.608 213.098,333.407 212.932 C 333.332 212.870,332.722 213.658,332.051 214.684 M102.834 216.862 C 102.188 218.552,101.734 220.117,101.823 220.341 C 101.913 220.565,102.108 220.197,102.256 219.525 C 102.405 218.852,102.673 218.212,102.852 218.101 C 103.031 217.990,103.178 217.641,103.178 217.324 C 103.178 217.008,103.452 216.170,103.787 215.464 C 104.123 214.757,104.309 214.091,104.202 213.984 C 104.095 213.877,103.479 215.172,102.834 216.862 M341.726 214.268 C 341.702 214.611,341.585 215.200,341.467 215.577 C 341.263 216.226,341.274 216.227,341.679 215.596 C 341.914 215.229,342.030 214.641,341.938 214.287 C 341.786 213.709,341.765 213.707,341.726 214.268 M295.753 214.579 C 295.753 214.888,295.898 215.477,296.075 215.888 C 296.277 216.359,296.396 216.428,296.396 216.075 C 296.396 215.766,296.251 215.178,296.075 214.766 C 295.872 214.295,295.753 214.226,295.753 214.579 M381.516 215.909 C 381.375 216.659,381.335 217.347,381.426 217.439 C 381.518 217.530,381.708 216.991,381.848 216.241 C 381.989 215.491,382.030 214.802,381.938 214.711 C 381.847 214.619,381.657 215.158,381.516 215.909 M314.419 215.585 C 314.404 216.036,314.561 216.508,314.766 216.636 C 315.209 216.909,315.209 216.543,314.766 215.514 C 314.457 214.793,314.444 214.796,314.419 215.585 M320.668 217.382 C 319.495 218.469,317.027 218.679,316.262 217.757 C 316.006 217.449,315.607 217.200,315.375 217.205 C 315.143 217.209,315.374 217.542,315.888 217.944 C 317.277 219.030,319.637 218.939,320.748 217.757 C 321.761 216.678,322.118 216.597,322.364 217.391 C 322.498 217.822,322.527 217.807,322.485 217.328 C 322.399 216.344,321.767 216.363,320.668 217.382 M296.634 217.538 C 297.079 218.984,297.939 220.935,298.130 220.935 C 298.331 220.935,296.868 217.109,296.558 216.822 C 296.447 216.720,296.481 217.041,296.634 217.538 M326.567 217.530 C 325.201 217.741,323.979 219.431,324.683 220.134 C 324.777 220.229,324.961 219.775,325.091 219.125 C 325.304 218.062,325.462 217.943,326.682 217.938 C 327.428 217.935,328.290 217.769,328.598 217.570 C 329.250 217.149,329.057 217.145,326.567 217.530 M321.322 219.285 C 320.973 219.817,320.752 220.316,320.831 220.395 C 320.910 220.473,321.269 220.038,321.630 219.428 C 322.435 218.064,322.195 217.952,321.322 219.285 M380.421 220.607 C 380.289 221.264,380.251 221.871,380.336 221.956 C 380.420 222.040,380.606 221.581,380.748 220.935 C 380.890 220.288,380.928 219.682,380.833 219.586 C 380.737 219.491,380.552 219.951,380.421 220.607 M113.173 220.069 C 113.078 220.236,112.900 220.879,112.777 221.495 C 112.556 222.611,112.557 222.610,113.118 221.358 C 113.607 220.267,113.652 219.222,113.173 220.069 M307.203 220.643 C 307.484 221.720,310.617 224.852,311.693 225.133 C 312.150 225.253,312.430 225.198,312.315 225.012 C 312.200 224.825,311.859 224.673,311.557 224.673 C 311.255 224.673,310.256 223.920,309.336 223.000 C 308.416 222.081,307.664 221.081,307.664 220.780 C 307.664 220.478,307.511 220.137,307.325 220.022 C 307.138 219.906,307.083 220.186,307.203 220.643 M101.204 221.432 C 101.056 221.809,100.945 222.482,100.958 222.928 C 100.981 223.697,101.001 223.692,101.346 222.827 C 101.546 222.326,101.657 221.653,101.592 221.332 C 101.494 220.851,101.425 220.869,101.204 221.432 M323.160 222.456 C 322.580 223.293,321.632 224.222,321.053 224.522 C 320.474 224.821,320.000 225.150,320.000 225.253 C 320.000 226.202,323.171 223.339,324.266 221.402 C 324.858 220.355,324.145 221.034,323.160 222.456 M298.753 222.056 C 299.067 222.570,299.559 223.369,299.846 223.832 C 300.132 224.294,300.503 224.673,300.670 224.673 C 300.836 224.673,300.511 224.042,299.946 223.271 C 298.636 221.482,298.013 220.847,298.753 222.056 M338.194 222.775 C 336.053 226.010,333.022 228.742,329.531 230.582 C 328.710 231.015,328.206 231.375,328.411 231.382 C 330.112 231.441,337.213 225.390,338.806 222.523 C 339.738 220.847,339.370 220.998,338.194 222.775 M112.031 223.321 C 111.891 223.687,111.786 224.267,111.799 224.610 C 111.815 225.023,111.945 224.929,112.184 224.331 C 112.382 223.835,112.487 223.254,112.416 223.042 C 112.345 222.829,112.172 222.954,112.031 223.321 M314.766 223.645 C 314.766 223.799,315.261 223.925,315.866 223.925 C 316.470 223.925,317.043 223.799,317.139 223.645 C 317.234 223.491,316.739 223.364,316.039 223.364 C 315.339 223.364,314.766 223.491,314.766 223.645 M100.424 224.927 C 100.011 227.018,99.722 229.715,99.932 229.522 C 100.218 229.258,101.010 224.249,100.798 224.038 C 100.707 223.947,100.538 224.346,100.424 224.927 M302.057 226.292 C 303.387 227.749,306.597 230.280,307.113 230.280 C 307.269 230.280,306.574 229.666,305.568 228.916 C 304.562 228.166,303.066 226.946,302.243 226.206 L 300.749 224.860 302.057 226.292 M111.256 226.218 C 111.155 226.704,110.966 227.607,110.834 228.224 C 110.703 228.841,110.452 230.607,110.277 232.150 C 109.850 235.924,109.855 322.903,110.283 325.981 C 110.775 329.523,111.042 330.934,111.376 331.776 C 111.540 332.187,111.976 333.434,112.345 334.547 C 114.435 340.848,119.818 348.081,125.981 352.872 C 127.318 353.911,128.596 354.913,128.822 355.100 C 130.858 356.778,139.950 361.683,144.206 363.399 C 144.668 363.586,145.425 363.893,145.888 364.082 C 147.268 364.646,151.865 366.265,153.271 366.682 C 153.991 366.895,155.452 367.329,156.519 367.647 C 157.586 367.964,158.723 368.224,159.047 368.224 C 159.371 368.224,159.928 368.374,160.285 368.557 C 160.642 368.741,162.196 369.171,163.738 369.513 C 165.280 369.856,167.131 370.280,167.850 370.455 C 172.127 371.495,177.627 372.326,177.196 371.867 C 177.093 371.758,175.916 371.488,174.579 371.269 C 148.963 367.064,127.588 356.967,118.675 344.860 C 118.070 344.037,117.488 343.280,117.382 343.178 C 116.599 342.418,113.979 337.526,112.876 334.766 C 112.311 333.354,111.475 330.277,111.048 328.037 C 110.443 324.872,110.700 230.604,111.321 227.684 C 111.559 226.564,111.683 225.577,111.596 225.490 C 111.509 225.403,111.356 225.731,111.256 226.218 M313.923 225.856 C 314.765 226.189,318.124 226.193,318.956 225.862 C 319.307 225.722,318.171 225.605,316.431 225.602 C 314.691 225.599,313.562 225.713,313.923 225.856 M377.944 229.346 C 377.697 230.093,377.584 230.793,377.693 230.901 C 377.801 231.010,378.065 230.461,378.280 229.682 C 378.495 228.903,378.609 228.204,378.532 228.127 C 378.455 228.050,378.191 228.599,377.944 229.346 M99.530 252.748 L 99.439 275.777 96.355 276.017 C 94.659 276.149,86.921 276.258,79.159 276.259 C 69.193 276.261,65.047 276.382,65.047 276.671 C 65.047 277.233,98.858 276.993,99.424 276.427 C 99.695 276.156,99.788 268.776,99.720 252.876 L 99.620 229.720 99.530 252.748 M312.523 232.483 C 312.832 232.672,313.925 232.922,314.953 233.039 C 316.767 233.246,316.778 233.241,315.327 232.889 C 312.462 232.194,311.925 232.116,312.523 232.483 M323.925 232.523 C 322.891 232.787,322.876 232.812,323.738 232.847 C 324.252 232.868,324.925 232.723,325.234 232.523 C 325.870 232.112,325.541 232.112,323.925 232.523 M297.819 233.520 C 297.372 233.968,297.557 234.681,298.184 234.922 C 298.690 235.116,298.717 235.060,298.338 234.604 C 298.086 234.300,297.988 233.876,298.121 233.661 C 298.390 233.225,298.203 233.137,297.819 233.520 M376.116 234.808 C 375.886 235.469,375.763 236.075,375.843 236.154 C 375.923 236.234,376.177 235.759,376.407 235.099 C 376.637 234.438,376.760 233.832,376.680 233.752 C 376.600 233.672,376.347 234.147,376.116 234.808 M297.541 239.971 C 296.918 240.595,296.463 241.437,296.482 241.934 C 296.510 242.644,296.580 242.584,296.862 241.606 C 297.534 239.284,299.897 238.554,301.512 240.170 C 302.017 240.675,302.430 240.939,302.430 240.758 C 302.430 239.020,299.039 238.474,297.541 239.971 M374.247 240.042 C 374.017 240.702,373.894 241.308,373.974 241.388 C 374.054 241.468,374.308 240.993,374.538 240.332 C 374.768 239.672,374.891 239.066,374.811 238.986 C 374.731 238.906,374.477 239.381,374.247 240.042 M24.299 241.833 C 24.299 242.533,26.515 247.725,27.984 250.467 C 28.700 251.804,29.467 253.274,29.690 253.735 C 29.912 254.196,30.220 254.575,30.374 254.577 C 30.528 254.578,30.654 254.757,30.654 254.973 C 30.654 258.747,48.041 273.645,52.445 273.645 C 52.728 273.645,53.077 273.763,53.221 273.907 C 53.642 274.327,57.669 275.502,58.710 275.509 C 59.235 275.512,59.843 275.693,60.061 275.912 C 60.280 276.131,61.197 276.257,62.099 276.192 C 63.568 276.087,63.370 276.003,60.187 275.383 C 44.472 272.321,33.038 262.096,25.815 244.648 C 24.507 241.488,24.299 241.102,24.299 241.833 M296.822 243.320 C 296.822 243.684,298.276 245.045,298.432 244.826 C 298.493 244.742,298.155 244.300,297.682 243.845 C 297.209 243.390,296.822 243.154,296.822 243.320 M301.343 243.998 C 300.847 244.472,300.611 244.860,300.817 244.860 C 301.234 244.860,302.640 243.425,302.396 243.248 C 302.312 243.187,301.838 243.525,301.343 243.998 M290.561 247.734 C 290.921 247.828,291.509 247.828,291.869 247.734 C 292.229 247.640,291.935 247.563,291.215 247.563 C 290.495 247.563,290.201 247.640,290.561 247.734 M286.449 248.588 C 285.575 248.985,284.860 249.406,284.860 249.524 C 284.860 249.642,285.356 249.482,285.963 249.168 C 286.569 248.855,287.316 248.598,287.623 248.598 C 287.929 248.598,288.284 248.430,288.411 248.224 C 288.747 247.681,288.241 247.774,286.449 248.588 M295.548 248.759 C 296.595 249.235,298.184 250.361,299.080 251.261 C 300.542 252.730,300.611 252.764,299.757 251.589 C 298.762 250.218,295.213 247.835,294.222 247.872 C 293.905 247.884,294.501 248.283,295.548 248.759 M282.176 251.553 C 281.082 252.561,280.271 253.450,280.374 253.528 C 280.477 253.606,281.453 252.781,282.543 251.695 C 285.036 249.211,284.811 249.124,282.176 251.553 M300.811 253.744 C 300.929 254.210,301.173 254.683,301.354 254.794 C 301.865 255.110,301.741 254.427,301.140 253.623 C 300.617 252.923,300.605 252.927,300.811 253.744 M301.714 255.701 C 301.726 256.009,301.879 256.598,302.056 257.009 L 302.377 257.757 302.398 257.009 C 302.409 256.598,302.255 256.009,302.056 255.701 C 301.734 255.202,301.696 255.202,301.714 255.701 M366.124 257.290 C 364.837 259.473,364.753 259.659,365.409 258.879 C 366.168 257.974,366.822 256.822,366.577 256.822 C 366.479 256.822,366.275 257.033,366.124 257.290 M277.871 257.850 C 277.741 258.210,277.251 259.388,276.782 260.467 C 275.957 262.365,275.848 263.153,276.606 261.737 C 277.264 260.507,278.500 257.196,278.301 257.196 C 278.194 257.196,278.001 257.491,277.871 257.850 M302.712 261.495 C 302.820 263.140,302.969 264.556,303.043 264.642 C 303.292 264.930,303.092 260.759,302.802 259.626 C 302.640 258.990,302.600 259.799,302.712 261.495 M363.132 261.776 C 361.975 263.095,361.386 263.925,361.605 263.925 C 361.716 263.925,362.339 263.252,362.991 262.430 C 364.257 260.830,364.354 260.380,363.132 261.776 M274.765 264.019 C 274.215 264.771,274.125 265.032,274.528 264.704 C 275.141 264.206,276.068 262.804,275.784 262.804 C 275.713 262.804,275.254 263.350,274.765 264.019 M303.391 265.794 C 303.525 266.308,303.785 266.889,303.967 267.084 C 304.501 267.655,304.337 266.836,303.709 265.794 L 303.146 264.860 303.391 265.794 M272.523 266.655 C 271.804 267.323,270.805 268.156,270.303 268.506 C 269.801 268.855,269.479 269.230,269.587 269.338 C 269.695 269.446,270.779 268.616,271.995 267.494 C 273.211 266.372,274.121 265.451,274.019 265.448 C 273.916 265.444,273.243 265.987,272.523 266.655 M357.097 268.048 C 356.425 268.659,356.015 269.159,356.186 269.159 C 356.356 269.159,356.979 268.654,357.570 268.037 C 358.944 266.603,358.679 266.609,357.097 268.048 M304.902 268.610 C 305.243 269.130,305.595 269.483,305.684 269.394 C 305.906 269.172,304.938 267.664,304.574 267.664 C 304.413 267.664,304.561 268.089,304.902 268.610 M267.192 270.615 C 264.916 271.950,264.410 272.471,266.355 271.477 C 267.799 270.739,269.542 269.549,269.159 269.563 C 269.056 269.567,268.171 270.040,267.192 270.615 M354.112 270.323 C 352.838 271.139,352.426 271.687,353.551 271.069 C 354.409 270.597,355.753 269.558,355.514 269.551 C 355.411 269.548,354.780 269.895,354.112 270.323 M307.287 271.009 C 308.006 271.605,308.677 272.008,308.780 271.906 C 308.882 271.803,308.681 271.560,308.333 271.366 C 307.985 271.171,307.452 270.763,307.148 270.459 C 306.844 270.155,306.457 269.911,306.288 269.917 C 306.119 269.922,306.569 270.414,307.287 271.009 M255.140 275.341 C 253.666 275.851,253.663 275.855,254.953 275.638 C 256.478 275.380,258.037 274.811,257.196 274.819 C 256.888 274.822,255.963 275.057,255.140 275.341 M315.888 275.092 C 316.196 275.277,317.037 275.532,317.757 275.660 C 318.640 275.816,318.822 275.787,318.318 275.571 C 317.162 275.077,315.224 274.694,315.888 275.092 M342.243 275.140 C 341.225 275.399,341.208 275.427,342.056 275.444 C 342.570 275.453,343.327 275.317,343.738 275.140 C 344.660 274.744,343.800 274.744,342.243 275.140 M338.318 275.888 L 337.009 276.163 338.505 276.207 C 339.327 276.231,340.252 276.087,340.561 275.888 C 341.237 275.451,340.396 275.451,338.318 275.888 M199.671 276.552 C 198.800 278.179,199.178 287.477,200.115 287.477 C 200.388 287.477,200.375 287.328,200.075 287.028 C 199.603 286.556,199.416 277.991,199.853 276.853 C 200.123 276.151,214.339 275.943,214.766 276.636 C 215.031 277.064,239.315 277.078,245.607 276.652 C 248.286 276.471,245.140 276.367,235.701 276.324 C 228.093 276.289,216.969 276.150,210.979 276.015 C 200.188 275.772,200.086 275.777,199.671 276.552 M250.378 276.152 C 250.843 276.242,251.516 276.238,251.874 276.145 C 252.231 276.051,251.850 275.978,251.028 275.982 C 250.206 275.986,249.913 276.063,250.378 276.152 M320.659 276.152 C 321.124 276.242,321.796 276.238,322.154 276.145 C 322.511 276.051,322.131 275.978,321.308 275.982 C 320.486 275.986,320.194 276.063,320.659 276.152 M323.396 276.399 C 323.821 276.774,336.449 277.025,336.449 276.658 C 336.449 276.394,334.248 276.262,329.844 276.262 C 326.212 276.262,323.310 276.323,323.396 276.399 M214.766 287.103 C 214.613 287.351,226.974 287.477,251.567 287.477 C 276.005 287.477,288.598 287.350,288.598 287.103 C 288.598 286.856,276.082 286.729,251.798 286.729 C 227.667 286.729,214.918 286.858,214.766 287.103 M247.955 310.556 C 248.938 310.633,250.452 310.632,251.320 310.554 C 252.187 310.475,251.383 310.412,249.533 310.413 C 247.682 310.414,246.972 310.478,247.955 310.556 M243.178 311.448 C 242.150 311.863,241.141 312.366,240.936 312.567 C 240.730 312.768,241.487 312.571,242.618 312.130 C 245.974 310.819,246.213 310.705,245.607 310.700 C 245.299 310.697,244.206 311.034,243.178 311.448 M253.084 310.797 C 253.084 310.908,253.743 311.177,254.549 311.394 C 256.662 311.963,260.925 314.933,262.312 316.803 C 263.372 318.232,263.910 319.264,265.344 322.617 C 265.671 323.382,265.748 323.421,265.769 322.833 C 265.866 320.087,260.892 313.780,257.240 312.019 C 255.273 311.069,253.084 310.426,253.084 310.797 M237.920 314.860 L 236.822 316.075 238.037 314.977 C 239.170 313.953,239.424 313.645,239.135 313.645 C 239.071 313.645,238.524 314.192,237.920 314.860 M235.750 317.477 L 235.078 318.692 235.848 317.757 C 236.532 316.928,236.835 316.262,236.529 316.262 C 236.471 316.262,236.120 316.808,235.750 317.477 M288.326 324.112 C 288.326 325.037,288.399 325.416,288.488 324.953 C 288.577 324.491,288.577 323.734,288.488 323.271 C 288.399 322.808,288.326 323.187,288.326 324.112 M232.776 325.514 C 232.657 326.696,232.684 328.336,232.837 329.159 C 233.047 330.286,233.122 329.756,233.142 327.009 C 233.173 322.831,233.084 322.470,232.776 325.514 M265.888 327.103 C 265.885 330.302,265.922 330.497,266.266 329.067 C 266.524 327.993,266.526 326.844,266.270 325.515 C 265.904 323.611,265.892 323.659,265.888 327.103 M287.901 327.477 C 287.868 327.991,287.754 328.832,287.648 329.346 L 287.456 330.280 287.857 329.360 C 288.078 328.854,288.192 328.013,288.111 327.491 L 287.962 326.542 287.901 327.477 M265.296 331.090 C 265.159 331.227,265.047 331.616,265.047 331.955 C 265.047 334.574,260.240 340.266,256.449 342.136 C 255.318 342.693,254.655 343.156,254.975 343.164 C 257.090 343.214,262.594 338.463,264.357 335.065 C 265.638 332.595,266.210 330.176,265.296 331.090 M286.044 334.934 C 285.825 335.562,285.726 336.075,285.823 336.075 C 286.075 336.075,286.781 334.133,286.596 333.948 C 286.511 333.863,286.263 334.307,286.044 334.934 M234.393 334.435 C 234.393 335.453,237.612 339.407,239.439 340.634 C 240.056 341.048,239.818 340.744,238.911 339.958 C 238.004 339.172,236.616 337.530,235.827 336.309 C 235.038 335.088,234.393 334.245,234.393 334.435 M282.062 342.710 C 281.287 343.893,280.296 345.265,279.859 345.761 C 279.423 346.257,279.279 346.539,279.541 346.388 C 280.068 346.084,282.616 342.719,283.317 341.402 C 284.140 339.856,283.486 340.537,282.062 342.710 M241.869 342.183 C 241.869 343.323,252.258 344.556,253.772 343.596 C 254.057 343.416,252.731 343.359,250.709 343.465 C 248.108 343.601,246.659 343.497,245.348 343.079 C 242.312 342.113,241.869 341.999,241.869 342.183 M276.811 349.252 L 274.579 351.589 276.916 349.357 C 278.201 348.130,279.252 347.079,279.252 347.021 C 279.252 346.745,278.883 347.082,276.811 349.252 M270.481 354.436 C 268.517 355.912,268.333 356.156,269.838 355.292 C 270.899 354.682,272.567 353.220,272.114 353.297 C 272.031 353.311,271.296 353.823,270.481 354.436 M263.832 358.530 C 263.061 358.937,262.430 359.354,262.430 359.456 C 262.430 359.558,263.103 359.298,263.925 358.879 C 264.748 358.459,265.421 358.035,265.421 357.936 C 265.421 357.692,265.418 357.693,263.832 358.530 M242.056 367.103 C 241.585 367.305,241.516 367.424,241.869 367.424 C 242.178 367.424,242.766 367.280,243.178 367.103 C 243.649 366.900,243.718 366.782,243.364 366.782 C 243.056 366.782,242.467 366.926,242.056 367.103 M238.131 368.241 C 237.721 368.519,237.873 368.553,238.692 368.370 C 240.066 368.063,240.365 367.849,239.408 367.856 C 239.014 367.859,238.439 368.033,238.131 368.241 M234.953 368.972 C 234.482 369.174,234.413 369.293,234.766 369.293 C 235.075 369.293,235.664 369.149,236.075 368.972 C 236.546 368.769,236.615 368.651,236.262 368.651 C 235.953 368.651,235.364 368.795,234.953 368.972 M231.589 369.720 C 230.571 369.979,230.554 370.007,231.402 370.023 C 231.916 370.033,232.673 369.896,233.084 369.720 C 234.006 369.324,233.145 369.324,231.589 369.720 M226.355 370.841 C 225.403 371.250,226.385 371.250,227.664 370.841 C 228.415 370.601,228.452 370.540,227.850 370.531 C 227.439 370.525,226.766 370.664,226.355 370.841 M221.682 371.589 C 220.414 371.856,220.409 371.865,221.495 371.876 C 222.112 371.883,223.037 371.753,223.551 371.589 C 224.777 371.196,223.547 371.196,221.682 371.589 M178.131 372.308 C 178.542 372.501,179.728 372.670,180.766 372.684 C 181.805 372.698,182.814 372.857,183.009 373.036 C 183.205 373.216,185.383 373.445,187.850 373.545 C 191.251 373.683,191.794 373.649,190.093 373.406 C 181.488 372.174,176.952 371.758,178.131 372.308 M213.084 372.725 C 212.498 372.922,213.056 372.959,214.579 372.825 C 215.916 372.707,217.079 372.549,217.165 372.474 C 217.472 372.204,214.000 372.417,213.084 372.725 M206.916 373.478 C 206.208 373.670,206.761 373.706,208.411 373.574 C 209.850 373.460,211.098 373.302,211.184 373.225 C 211.470 372.966,208.052 373.168,206.916 373.478 " stroke="none" fill="#33756d" fill-rule="evenodd"></path><path id="path4" d="M216.262 0.381 C 218.794 0.773,225.950 1.095,224.299 0.742 C 223.579 0.588,221.056 0.379,218.692 0.277 C 215.982 0.160,215.084 0.198,216.262 0.381 M226.829 1.392 C 227.501 1.476,228.510 1.474,229.072 1.389 C 229.634 1.303,229.084 1.235,227.850 1.237 C 226.617 1.239,226.157 1.309,226.829 1.392 M234.050 2.004 C 234.136 2.078,234.963 2.239,235.888 2.361 C 237.011 2.510,237.322 2.474,236.822 2.253 C 236.108 1.937,233.725 1.723,234.050 2.004 M241.780 3.255 C 242.245 3.344,242.918 3.341,243.275 3.248 C 243.633 3.154,243.252 3.081,242.430 3.085 C 241.607 3.089,241.315 3.166,241.780 3.255 M246.012 3.873 C 246.098 3.947,246.673 4.120,247.290 4.258 C 248.109 4.441,248.260 4.406,247.850 4.129 C 247.346 3.788,245.637 3.549,246.012 3.873 M263.551 10.261 C 263.551 10.364,264.056 10.709,264.673 11.028 C 265.290 11.347,265.794 11.524,265.794 11.421 C 265.794 11.318,265.290 10.973,264.673 10.654 C 264.056 10.335,263.551 10.158,263.551 10.261 M267.695 12.825 C 267.780 12.888,268.607 13.493,269.533 14.169 L 271.215 15.398 269.720 14.060 C 268.897 13.324,268.070 12.719,267.882 12.716 C 267.693 12.713,267.609 12.762,267.695 12.825 M275.327 19.065 C 276.340 20.093,277.252 20.935,277.355 20.935 C 277.458 20.935,276.714 20.093,275.701 19.065 C 274.688 18.037,273.776 17.196,273.673 17.196 C 273.570 17.196,274.315 18.037,275.327 19.065 M280.409 25.140 C 282.602 27.997,282.740 27.921,280.748 24.953 C 280.234 24.187,279.673 23.559,279.501 23.556 C 279.330 23.553,279.738 24.266,280.409 25.140 M146.542 28.023 C 146.028 28.188,144.883 28.521,143.998 28.762 L 142.388 29.201 143.811 30.154 C 145.905 31.556,146.862 32.501,148.237 34.528 L 149.470 36.346 150.384 34.902 C 151.319 33.423,154.049 30.721,155.348 29.989 C 157.466 28.795,149.602 27.040,146.542 28.023 M282.804 28.785 C 283.123 29.402,283.468 29.907,283.571 29.907 C 283.673 29.907,283.497 29.402,283.178 28.785 C 282.859 28.168,282.514 27.664,282.411 27.664 C 282.308 27.664,282.485 28.168,282.804 28.785 M136.791 33.401 C 135.896 34.616,134.765 36.500,135.186 36.075 C 135.909 35.344,137.643 32.846,137.514 32.722 C 137.442 32.653,137.117 32.959,136.791 33.401 M133.691 38.706 C 133.563 39.040,133.472 39.594,133.490 39.937 C 133.508 40.280,133.670 40.065,133.852 39.458 C 134.204 38.278,134.079 37.694,133.691 38.706 M287.540 40.187 C 287.534 40.598,287.674 41.271,287.850 41.682 C 288.260 42.635,288.260 41.652,287.850 40.374 C 287.610 39.623,287.549 39.586,287.540 40.187 M165.349 44.299 C 165.352 45.533,165.421 45.992,165.505 45.320 C 165.588 44.649,165.586 43.639,165.501 43.077 C 165.415 42.516,165.347 43.065,165.349 44.299 M132.817 44.299 C 132.820 45.327,132.893 45.703,132.979 45.135 C 133.064 44.567,133.062 43.726,132.973 43.266 C 132.885 42.806,132.814 43.271,132.817 44.299 M288.508 65.437 C 288.561 77.250,288.651 88.766,288.708 91.028 C 288.765 93.290,288.828 84.121,288.848 70.654 C 288.867 57.187,288.777 45.671,288.647 45.063 C 288.517 44.455,288.455 53.623,288.508 65.437 M149.158 52.991 C 149.158 53.145,148.721 53.776,148.186 54.393 C 147.651 55.009,147.021 55.773,146.785 56.090 C 145.554 57.741,143.201 59.164,142.072 58.938 C 140.155 58.554,140.799 58.928,143.645 59.849 C 147.101 60.969,151.403 61.047,154.523 60.047 L 156.709 59.346 155.524 58.772 C 154.056 58.061,151.405 55.519,150.456 53.913 C 149.794 52.793,149.159 52.342,149.158 52.991 M160.543 56.168 L 159.065 57.757 160.654 56.279 C 162.132 54.905,162.415 54.579,162.132 54.579 C 162.071 54.579,161.356 55.294,160.543 56.168 M136.822 55.444 C 136.822 55.508,137.369 56.055,138.037 56.659 L 139.252 57.757 138.154 56.542 C 137.131 55.410,136.822 55.155,136.822 55.444 M300.474 95.224 C 301.146 95.307,302.155 95.306,302.717 95.220 C 303.279 95.135,302.729 95.067,301.495 95.069 C 300.262 95.071,299.802 95.141,300.474 95.224 M339.439 95.327 C 339.439 95.533,339.692 95.701,340.000 95.701 C 340.308 95.701,340.561 95.533,340.561 95.327 C 340.561 95.121,340.308 94.953,340.000 94.953 C 339.692 94.953,339.439 95.121,339.439 95.327 M288.972 116.893 C 288.972 130.262,288.823 139.321,288.580 140.725 C 288.002 144.062,287.099 148.118,286.745 148.972 C 286.574 149.383,286.138 150.561,285.777 151.589 C 283.432 158.251,275.481 168.876,271.121 171.172 C 270.659 171.416,270.280 171.832,270.280 172.096 C 270.280 172.538,265.257 177.584,263.223 179.186 C 262.148 180.033,262.376 180.331,263.711 179.824 C 264.267 179.612,265.202 179.439,265.789 179.439 C 269.450 179.439,276.080 176.953,282.804 173.058 C 284.173 172.265,284.252 172.255,283.738 172.938 C 283.430 173.348,283.735 173.086,284.416 172.356 C 285.097 171.626,286.357 170.103,287.217 168.972 C 288.077 167.841,288.867 166.832,288.973 166.729 C 289.925 165.805,293.248 159.953,294.386 157.196 C 295.391 154.764,295.681 154.065,296.057 153.178 C 296.628 151.829,297.482 148.667,298.403 144.486 C 298.670 143.273,298.860 134.320,298.945 118.972 L 299.076 95.327 294.024 95.327 L 288.972 95.327 288.972 116.893 M340.966 95.835 C 341.051 95.909,341.794 96.072,342.617 96.198 C 343.635 96.354,343.933 96.313,343.551 96.070 C 343.041 95.744,340.603 95.523,340.966 95.835 M353.832 100.441 C 354.037 100.640,355.131 101.428,356.262 102.193 C 357.748 103.198,357.989 103.294,357.131 102.539 C 356.024 101.565,353.011 99.650,353.832 100.441 M358.544 104.019 C 358.635 104.070,359.714 105.037,360.943 106.168 L 363.178 108.224 361.134 106.075 C 360.010 104.893,358.931 103.925,358.736 103.925 C 358.540 103.925,358.454 103.967,358.544 104.019 M367.802 114.953 C 368.004 115.364,368.443 116.037,368.778 116.449 L 369.387 117.196 369.020 116.449 C 368.818 116.037,368.379 115.364,368.044 114.953 L 367.435 114.206 367.802 114.953 M372.551 124.486 C 372.906 125.411,373.352 126.336,373.543 126.542 C 373.733 126.748,373.598 126.159,373.243 125.234 C 372.888 124.308,372.442 123.383,372.252 123.178 C 372.061 122.972,372.196 123.561,372.551 124.486 M374.948 130.824 C 375.144 131.506,375.407 132.167,375.533 132.293 C 375.884 132.644,375.275 130.329,374.912 129.932 C 374.736 129.740,374.753 130.141,374.948 130.824 M377.576 140.031 C 377.579 140.425,377.752 141.000,377.961 141.308 C 378.238 141.718,378.273 141.567,378.090 140.748 C 377.782 139.373,377.568 139.075,377.576 140.031 M378.559 143.925 C 378.855 145.537,379.067 145.842,379.060 144.642 C 379.057 144.145,378.889 143.486,378.686 143.178 C 378.428 142.783,378.390 143.005,378.559 143.925 M379.316 147.103 C 379.599 148.951,379.815 149.265,379.807 147.819 C 379.804 147.220,379.641 146.477,379.444 146.168 C 379.201 145.786,379.160 146.084,379.316 147.103 M380.239 151.402 C 380.239 151.710,380.384 152.299,380.561 152.710 C 380.763 153.182,380.882 153.251,380.882 152.897 C 380.882 152.589,380.737 152.000,380.561 151.589 C 380.358 151.118,380.239 151.048,380.239 151.402 M381.190 156.262 C 381.312 157.187,381.473 158.014,381.547 158.100 C 381.829 158.424,381.615 156.041,381.299 155.327 C 381.078 154.828,381.041 155.138,381.190 156.262 M382.093 161.340 C 382.114 161.939,382.274 162.850,382.448 163.364 C 382.662 163.995,382.696 163.690,382.550 162.430 C 382.307 160.327,382.037 159.681,382.093 161.340 M383.066 167.850 C 383.183 168.981,383.340 169.977,383.415 170.062 C 383.677 170.362,383.474 167.655,383.165 166.729 C 382.964 166.126,382.929 166.523,383.066 167.850 M15.073 174.579 C 15.073 175.916,15.141 176.463,15.224 175.794 C 15.307 175.126,15.307 174.033,15.224 173.364 C 15.141 172.696,15.073 173.243,15.073 174.579 M384.197 178.692 C 384.304 181.467,384.454 183.808,384.532 183.894 C 384.762 184.148,384.603 179.087,384.292 176.262 C 384.099 174.510,384.068 175.313,384.197 178.692 M263.925 175.514 C 263.000 176.009,262.376 176.422,262.538 176.432 C 262.935 176.454,265.794 174.985,265.794 174.759 C 265.794 174.511,265.810 174.505,263.925 175.514 M14.674 178.505 C 14.678 179.327,14.754 179.620,14.844 179.155 C 14.933 178.690,14.930 178.017,14.836 177.659 C 14.743 177.302,14.670 177.682,14.674 178.505 M252.336 179.439 C 251.043 179.712,251.041 179.715,252.150 179.758 C 252.766 179.782,253.523 179.639,253.832 179.439 C 254.454 179.037,254.248 179.037,252.336 179.439 M249.720 180.187 C 249.720 180.393,249.972 180.561,250.280 180.561 C 250.589 180.561,250.841 180.393,250.841 180.187 C 250.841 179.981,250.589 179.813,250.280 179.813 C 249.972 179.813,249.720 179.981,249.720 180.187 M154.673 180.465 C 156.575 180.533,159.687 180.533,161.589 180.465 C 163.491 180.398,161.935 180.342,158.131 180.342 C 154.327 180.342,152.771 180.398,154.673 180.465 M148.879 180.818 C 149.238 180.912,149.827 180.912,150.187 180.818 C 150.547 180.724,150.252 180.647,149.533 180.647 C 148.813 180.647,148.519 180.724,148.879 180.818 M140.000 182.430 C 139.529 182.632,139.460 182.751,139.813 182.751 C 140.121 182.751,140.710 182.607,141.121 182.430 C 141.593 182.227,141.662 182.109,141.308 182.109 C 141.000 182.109,140.411 182.253,140.000 182.430 M14.674 192.710 C 14.678 193.533,14.754 193.825,14.844 193.360 C 14.933 192.895,14.930 192.222,14.836 191.865 C 14.743 191.507,14.670 191.888,14.674 192.710 M133.396 191.962 C 133.293 192.065,132.466 192.301,131.558 192.488 C 128.709 193.072,125.627 193.992,123.808 194.800 C 120.562 196.242,118.693 197.143,118.505 197.357 C 117.419 198.593,112.812 201.111,113.397 200.149 C 113.974 199.202,113.911 199.230,112.899 200.374 C 111.362 202.111,106.916 208.732,106.916 209.284 C 106.916 209.524,106.785 209.720,106.624 209.720 C 106.464 209.720,106.006 210.561,105.607 211.589 C 105.209 212.617,104.751 213.458,104.591 213.458 C 104.430 213.458,104.299 213.691,104.299 213.976 C 104.299 214.261,104.048 214.976,103.741 215.565 C 103.433 216.154,103.181 216.896,103.180 217.215 C 103.179 217.534,103.044 217.954,102.880 218.150 C 102.295 218.848,101.600 221.506,100.216 228.346 C 99.954 229.640,99.813 238.306,99.813 253.092 L 99.813 275.847 104.860 275.961 L 109.908 276.075 109.934 255.514 C 109.968 228.704,110.202 226.761,114.573 217.009 C 116.970 211.662,125.673 200.997,128.327 200.154 C 128.836 199.993,128.930 199.831,128.624 199.642 C 128.163 199.357,131.288 195.990,134.611 193.188 L 136.262 191.797 134.922 191.786 C 134.185 191.781,133.499 191.860,133.396 191.962 M119.042 194.112 L 117.944 195.327 119.159 194.229 C 120.291 193.206,120.546 192.897,120.257 192.897 C 120.193 192.897,119.646 193.444,119.042 194.112 M384.422 196.822 C 384.423 198.262,384.491 198.805,384.572 198.029 C 384.653 197.253,384.651 196.076,384.569 195.412 C 384.486 194.749,384.420 195.383,384.422 196.822 M15.069 196.822 C 15.071 198.056,15.141 198.516,15.224 197.844 C 15.307 197.172,15.306 196.163,15.220 195.601 C 15.135 195.039,15.067 195.589,15.069 196.822 M115.683 197.103 L 114.206 198.692 115.794 197.214 C 116.668 196.401,117.383 195.686,117.383 195.625 C 117.383 195.342,117.058 195.625,115.683 197.103 M384.037 201.495 C 384.037 202.626,384.107 203.089,384.193 202.523 C 384.279 201.958,384.279 201.033,384.193 200.467 C 384.107 199.902,384.037 200.364,384.037 201.495 M383.237 208.100 C 383.204 208.752,383.081 209.593,382.962 209.969 C 382.759 210.616,382.771 210.617,383.172 209.992 C 383.406 209.628,383.530 208.787,383.447 208.123 L 383.297 206.916 383.237 208.100 M312.236 215.327 C 312.236 216.047,312.313 216.341,312.407 215.981 C 312.501 215.621,312.501 215.033,312.407 214.673 C 312.313 214.313,312.236 214.607,312.236 215.327 M381.352 218.007 C 381.328 218.350,381.212 218.939,381.093 219.315 C 380.889 219.964,380.900 219.965,381.305 219.334 C 381.540 218.968,381.657 218.379,381.564 218.026 C 381.412 217.447,381.391 217.445,381.352 218.007 M379.672 224.500 C 379.544 224.835,379.454 225.389,379.471 225.732 C 379.489 226.075,379.652 225.859,379.833 225.252 C 380.185 224.073,380.061 223.489,379.672 224.500 M317.664 233.168 C 318.332 233.251,319.425 233.251,320.093 233.168 C 320.762 233.085,320.215 233.017,318.879 233.017 C 317.542 233.017,316.995 233.085,317.664 233.168 M373.147 243.719 C 372.928 244.347,372.829 244.860,372.926 244.860 C 373.178 244.860,373.884 242.918,373.699 242.733 C 373.614 242.648,373.365 243.092,373.147 243.719 M371.095 248.429 C 370.217 250.270,370.340 250.584,371.259 248.843 C 371.675 248.053,371.951 247.340,371.870 247.259 C 371.789 247.178,371.440 247.705,371.095 248.429 M37.383 264.112 C 38.081 264.832,38.735 265.421,38.838 265.421 C 38.941 265.421,38.454 264.832,37.757 264.112 C 37.060 263.393,36.405 262.804,36.302 262.804 C 36.199 262.804,36.686 263.393,37.383 264.112 M357.731 267.949 L 356.449 269.344 357.755 268.224 C 358.474 267.607,359.133 267.061,359.219 267.009 C 359.306 266.958,359.295 266.834,359.196 266.735 C 359.096 266.635,358.437 267.181,357.731 267.949 M340.561 275.888 C 340.062 276.210,340.062 276.250,340.561 276.250 C 340.869 276.250,341.374 276.087,341.682 275.888 C 342.181 275.566,342.181 275.525,341.682 275.525 C 341.374 275.525,340.869 275.689,340.561 275.888 M199.853 276.853 C 199.416 277.991,199.603 286.556,200.075 287.028 C 200.578 287.532,214.403 287.691,214.709 287.196 C 214.804 287.042,211.576 286.916,207.535 286.916 L 200.187 286.916 200.187 281.869 L 200.187 276.822 207.535 276.822 C 211.576 276.822,214.804 276.696,214.709 276.542 C 214.324 275.921,200.096 276.219,199.853 276.853 M288.684 305.607 C 288.632 316.093,288.510 325.346,288.413 326.168 L 288.236 327.664 288.607 326.217 C 288.836 325.325,288.940 317.446,288.878 305.657 L 288.778 286.542 288.684 305.607 M244.497 311.323 L 242.826 311.898 243.936 312.678 C 245.581 313.833,248.526 316.987,249.036 318.141 L 249.483 319.149 251.107 316.943 C 252.000 315.729,253.483 314.206,254.403 313.558 C 256.492 312.085,256.485 311.996,254.229 311.258 C 251.909 310.499,246.793 310.534,244.497 311.323 M239.682 313.647 C 238.829 314.265,238.131 314.863,238.131 314.975 C 238.131 315.150,240.237 313.717,241.290 312.824 C 242.175 312.074,241.081 312.634,239.682 313.647 M232.984 327.103 C 232.984 327.822,233.061 328.117,233.155 327.757 C 233.249 327.397,233.249 326.808,233.155 326.449 C 233.061 326.089,232.984 326.383,232.984 327.103 M287.664 330.093 C 287.522 330.740,287.483 331.346,287.579 331.442 C 287.674 331.537,287.859 331.077,287.991 330.421 C 288.122 329.764,288.160 329.157,288.076 329.072 C 287.991 328.988,287.805 329.447,287.664 330.093 M249.346 335.270 C 249.346 337.377,243.688 342.301,241.999 341.663 C 241.414 341.442,241.103 341.420,241.308 341.613 C 243.264 343.454,252.109 344.081,255.499 342.619 L 256.980 341.980 255.873 341.504 C 254.485 340.906,252.065 338.636,250.525 336.486 C 249.876 335.581,249.346 335.034,249.346 335.270 M237.757 338.879 C 238.454 339.598,239.109 340.187,239.212 340.187 C 239.315 340.187,238.828 339.598,238.131 338.879 C 237.433 338.159,236.779 337.570,236.676 337.570 C 236.573 337.570,237.060 338.159,237.757 338.879 M276.075 350.182 C 274.430 351.753,273.757 352.516,274.579 351.877 C 276.041 350.742,279.577 347.272,279.237 347.307 C 279.143 347.317,277.720 348.610,276.075 350.182 M268.131 356.305 C 266.857 357.121,266.444 357.669,267.570 357.050 C 268.428 356.578,269.772 355.539,269.533 355.532 C 269.430 355.529,268.799 355.877,268.131 356.305 M246.729 365.981 C 245.959 366.228,245.926 366.286,246.542 366.312 C 246.953 366.329,247.542 366.181,247.850 365.981 C 248.505 365.558,248.051 365.558,246.729 365.981 M237.570 368.598 L 236.449 368.884 237.455 368.928 C 238.008 368.952,238.565 368.804,238.692 368.598 C 238.819 368.393,238.871 368.244,238.807 368.269 C 238.744 368.293,238.187 368.441,237.570 368.598 M233.084 369.720 C 232.613 369.922,232.544 370.041,232.897 370.041 C 233.206 370.041,233.794 369.896,234.206 369.720 C 234.677 369.517,234.746 369.398,234.393 369.398 C 234.084 369.398,233.495 369.543,233.084 369.720 M229.346 370.467 C 228.328 370.726,228.311 370.754,229.159 370.771 C 229.673 370.780,230.430 370.644,230.841 370.467 C 231.763 370.071,230.902 370.071,229.346 370.467 M218.505 372.336 L 217.009 372.604 218.318 372.631 C 219.037 372.646,219.963 372.513,220.374 372.336 C 221.255 371.958,220.619 371.958,218.505 372.336 M212.710 373.084 L 211.028 373.346 212.710 373.396 C 213.636 373.424,214.645 373.283,214.953 373.084 C 215.612 372.659,215.448 372.659,212.710 373.084 " stroke="none" fill="#21819e" fill-rule="evenodd"></path></g></svg>