<svg id="bea1666a-32ca-499e-9c89-32044e000b7b" data-name="Layer 1" xmlns="http://www.w3.org/2000/svg" xmlns:xlink="http://www.w3.org/1999/xlink" viewBox="0 0 100 100"><defs><style>.b8246f2a-ec3a-43ff-a0ec-605e3175912f{fill:none;}.b057c801-ad11-4631-971c-b7aa83ac6a65{fill:#a95adf;}.bc855e10-d0ad-44fa-9c05-67eccd68fbc7{fill:#00bef0;}.a74b0dcd-be55-40cf-8b49-b6afe9175628{clip-path:url(#eb88a7a7-f35d-4a24-82b6-b0bcc5c3e253);}.a16d32b7-aa08-430d-b96b-6441cef4ccd5{fill:#00bf8c;}</style><clipPath id="eb88a7a7-f35d-4a24-82b6-b0bcc5c3e253"><circle class="b8246f2a-ec3a-43ff-a0ec-605e3175912f" cx="51.02" cy="54.19" r="27.93"/></clipPath></defs><path class="b057c801-ad11-4631-971c-b7aa83ac6a65" d="M29.75,32.69A11.81,11.81,0,0,1,33,33c.28-.25.57-.49.87-.73l0,0,.68-.5a.82.82,0,0,0-.42-.25A14.29,14.29,0,0,0,29.6,31a.86.86,0,0,0,.15,1.71Z"/><circle class="bc855e10-d0ad-44fa-9c05-67eccd68fbc7" cx="51.02" cy="54.19" r="27.93"/><path class="b057c801-ad11-4631-971c-b7aa83ac6a65" d="M74.35,37.17c-.21.21-.45.43-.7.65.34.47.66,1,1,1.43.35-.3.67-.59.94-.86a.86.86,0,0,0-1.21-1.22Z"/><path class="b057c801-ad11-4631-971c-b7aa83ac6a65" d="M71.33,34.34a8.88,8.88,0,0,1,3.81.71.9.9,0,0,0,.42.1.87.87,0,0,0,.75-.44A.86.86,0,0,0,76,33.54a10.91,10.91,0,0,0-4.58-.92.86.86,0,1,0-.06,1.72Z"/><path class="b057c801-ad11-4631-971c-b7aa83ac6a65" d="M30.38,73a19,19,0,0,1-2.05.72.86.86,0,0,0,.23,1.69.62.62,0,0,0,.23,0,23.15,23.15,0,0,0,2.9-1C31.24,73.92,30.8,73.48,30.38,73Z"/><path class="b057c801-ad11-4631-971c-b7aa83ac6a65" d="M24.6,71.74a10.13,10.13,0,0,1,.12-1.48A.86.86,0,0,0,23,70a11,11,0,0,0-.14,1.74,4.42,4.42,0,0,0,1,3.11.84.84,0,0,0,.62.27.86.86,0,0,0,.63-1.45A3,3,0,0,1,24.6,71.74Z"/><path class="b057c801-ad11-4631-971c-b7aa83ac6a65" d="M24.85,64c-.24.58-.48,1.16-.68,1.71a.86.86,0,0,0,.52,1.1.72.72,0,0,0,.29.06.87.87,0,0,0,.81-.57l0,0C25.45,65.49,25.14,64.74,24.85,64Z"/><path class="b057c801-ad11-4631-971c-b7aa83ac6a65" d="M78.94,53.73a16.93,16.93,0,0,1,1.16,2.73.85.85,0,0,0,.82.61.73.73,0,0,0,.25,0A.86.86,0,0,0,81.74,56a20.55,20.55,0,0,0-1.85-4.09.84.84,0,0,0-1.06-.36C78.89,52.24,78.93,53,78.94,53.73Z"/><path class="b057c801-ad11-4631-971c-b7aa83ac6a65" d="M47.35,24.63a19.87,19.87,0,0,1,3.71,1.63l.9,0a.81.81,0,0,0,.33-.33A.86.86,0,0,0,52,24.78a22,22,0,0,0-4.1-1.8.85.85,0,0,0-1.07.58A.86.86,0,0,0,47.35,24.63Z"/><path class="b057c801-ad11-4631-971c-b7aa83ac6a65" d="M43.35,27.33a3.82,3.82,0,0,1,.76-2.58.86.86,0,0,0-1.2-1.24,5.54,5.54,0,0,0-1.29,4.1v.27C42.19,27.68,42.77,27.49,43.35,27.33Z"/><path class="b057c801-ad11-4631-971c-b7aa83ac6a65" d="M81.3,59.64a.87.87,0,0,0-1.18.33A3.42,3.42,0,0,1,78,61.39c-.17.65-.37,1.29-.58,1.91,2.06-.38,3.47-1.21,4.19-2.48A.87.87,0,0,0,81.3,59.64Z"/><path class="b057c801-ad11-4631-971c-b7aa83ac6a65" d="M26.6,39.24l.21,0a.86.86,0,0,0,.62-1A10.94,10.94,0,0,1,27,35.51a4.55,4.55,0,0,1,.14-1.16.86.86,0,0,0-1.67-.44,6.62,6.62,0,0,0-.19,1.6,12.8,12.8,0,0,0,.44,3.08A.86.86,0,0,0,26.6,39.24Z"/><path class="b057c801-ad11-4631-971c-b7aa83ac6a65" d="M66.47,77.47a.84.84,0,0,0,.61.61.76.76,0,0,0,.21,0,.85.85,0,0,0,.83-.65c.11-.44.2-.91.28-1.4C67.78,76.55,67.13,77,66.47,77.47Z"/><path class="b057c801-ad11-4631-971c-b7aa83ac6a65" d="M64.71,80.21a2.46,2.46,0,0,1-.39.22,4.21,4.21,0,0,1-3-.11.75.75,0,0,0-.33,0l-.44.17a.84.84,0,0,0,.23,1.5,7.6,7.6,0,0,0,2.36.42A4.46,4.46,0,0,0,65,82a3.52,3.52,0,0,0,.68-.39.85.85,0,0,0,.21-1.19A.86.86,0,0,0,64.71,80.21Z"/><g class="a74b0dcd-be55-40cf-8b49-b6afe9175628"><path class="a16d32b7-aa08-430d-b96b-6441cef4ccd5" d="M67.71,31.57l-.2.25-6.94,2.44a29.18,29.18,0,0,0-3,2.85c-.35.61-2.66,1.52-2.66,1.52s-7,.49-7.8,1-.71,3.73-.71,3.73L49,48.52a.75.75,0,0,0,1,.31c.4-.2.82-.46,1.23-.67a2.42,2.42,0,0,1,1.73-.4,1.18,1.18,0,0,1,.83.86,1.6,1.6,0,0,1-.55,1.24c-.69.75-1.36,1.51-2,2.29l-2.09,2.41-.41.48a3.64,3.64,0,0,0-.64,2.58l.1.66a3.54,3.54,0,0,1-.67,2.61l-1.93,2.6a4.86,4.86,0,0,0-.33.54l-2.1,4.25a.86.86,0,0,1-.78.49h-2a.77.77,0,0,1-.69-.42,1,1,0,0,1,.17-1l.19-.18a.91.91,0,0,0,.24-.85l-1.86-7.51s0-.06,0-.09l-1.33-3.59a2.22,2.22,0,0,1-.15-.8V54.1A2.29,2.29,0,0,0,35.71,52L35.59,52a2.24,2.24,0,0,0-1.27-.23L31.7,52a2.21,2.21,0,0,1-2-.79l-1.66-2a2.33,2.33,0,0,1-.54-1.49V46.09a2.32,2.32,0,0,1,.66-1.63l2.12-2.14a2.87,2.87,0,0,0,.34-.44l.69-1.17a2.27,2.27,0,0,1,1.95-1.11H36.1a2.26,2.26,0,0,1,1.68.76,2.25,2.25,0,0,0,1.68.75h1l.89-3A7.47,7.47,0,0,1,39.77,36c-.43-1-2.84-2-3.44-2.07A11.41,11.41,0,0,1,33.64,32l0,0a28,28,0,0,1,34.09-.43Z"/><path class="a16d32b7-aa08-430d-b96b-6441cef4ccd5" d="M79.06,54.19A28.15,28.15,0,0,1,62.93,79.67L59.22,71.8a1,1,0,0,1-.08-.38V69.61a.91.91,0,0,0-.59-.85l-1.7-.59a1,1,0,0,1-.35-.23L56,67.36a.89.89,0,0,1-.2-.83.92.92,0,0,1,.59-.62l4-1.2a.92.92,0,0,1,.82.15L63.87,67a.87.87,0,0,0,.56.2H66a.91.91,0,0,0,.76-.4.89.89,0,0,0,.07-.85L64.53,61a.84.84,0,0,1,0-.71.88.88,0,0,1,.52-.48l.76-.27a.86.86,0,0,0,.55-1.08l-.79-2.57A4.37,4.37,0,0,1,66,52.28l.32-.5a.91.91,0,0,1,.77-.43h1.09a.91.91,0,0,0,.63-.25.93.93,0,0,0,.27-.63v-1a.87.87,0,0,1,.78-.87l5-.66a2.56,2.56,0,0,1,1.58.28l.39.2a2.53,2.53,0,0,0,1.11.31l.57,0a27.53,27.53,0,0,1,.52,5.43Z"/></g><path class="b057c801-ad11-4631-971c-b7aa83ac6a65" d="M63.17,82.37A7.6,7.6,0,0,1,60.81,82a.86.86,0,0,1-.55-1.09.85.85,0,0,1,1.09-.54,4.21,4.21,0,0,0,3,.11,2.46,2.46,0,0,0,.39-.22.86.86,0,0,1,1.2.21.85.85,0,0,1-.21,1.19A3.52,3.52,0,0,1,65,82,4.46,4.46,0,0,1,63.17,82.37Zm-5.92-2.32a.92.92,0,0,1-.47-.14,41.34,41.34,0,0,1-3.53-2.64A.86.86,0,1,1,54.36,76a38.12,38.12,0,0,0,3.36,2.52.86.86,0,0,1-.47,1.58ZM50.6,74.59a.86.86,0,0,1-.6-.24c-1-.94-2-2-3.07-3.08a.87.87,0,0,1,1.26-1.19c1,1.08,2,2.1,3,3a.87.87,0,0,1,0,1.22A.89.89,0,0,1,50.6,74.59Zm-5.94-6.25a.85.85,0,0,1-.64-.29c-.93-1.07-1.87-2.19-2.8-3.32a.86.86,0,0,1,1.34-1.09c.91,1.12,1.84,2.23,2.75,3.28a.85.85,0,0,1-.65,1.42Zm-5.43-6.69a.88.88,0,0,1-.69-.34C37.66,60.15,36.8,59,36,57.81a.86.86,0,1,1,1.4-1c.82,1.15,1.67,2.31,2.53,3.45a.86.86,0,0,1-.16,1.21A.92.92,0,0,1,39.23,61.65Zm-5-7a.86.86,0,0,1-.72-.39C32.72,53,32,51.74,31.23,50.54a.86.86,0,0,1,1.48-.89c.7,1.19,1.47,2.41,2.27,3.63a.86.86,0,0,1-.25,1.19A.92.92,0,0,1,34.26,54.61Zm-4.39-7.42a.86.86,0,0,1-.77-.46c-.72-1.38-1.36-2.71-1.88-3.95a.86.86,0,1,1,1.58-.67c.51,1.19,1.12,2.48,1.83,3.83a.85.85,0,0,1-.37,1.16A.89.89,0,0,1,29.87,47.19Z"/><path class="b057c801-ad11-4631-971c-b7aa83ac6a65" d="M77.25,63.32a.86.86,0,0,1-.15-1.7,4.15,4.15,0,0,0,3-1.65.86.86,0,1,1,1.5.85c-.72,1.27-2.14,2.11-4.21,2.49Zm3.67-6.25a.85.85,0,0,1-.82-.61,19.62,19.62,0,0,0-1.7-3.74.85.85,0,0,1,.32-1.17.86.86,0,0,1,1.17.32A20.55,20.55,0,0,1,81.74,56,.86.86,0,0,1,81.17,57,.73.73,0,0,1,80.92,57.07ZM76.8,49.54a.83.83,0,0,1-.7-.36c-.78-1.07-1.65-2.2-2.61-3.36a.86.86,0,0,1,1.33-1.09c1,1.18,1.88,2.34,2.67,3.45a.86.86,0,0,1-.19,1.2A.87.87,0,0,1,76.8,49.54Zm-5.47-6.65a.88.88,0,0,1-.64-.28c-.94-1-1.93-2.07-3-3.09A.86.86,0,1,1,69,38.3c1,1,2.05,2.1,3,3.15a.85.85,0,0,1,0,1.21A.89.89,0,0,1,71.33,42.89Zm-6.08-6.11a.85.85,0,0,1-.59-.23c-1-1-2.12-1.92-3.19-2.84a.86.86,0,0,1-.1-1.21.87.87,0,0,1,1.22-.1c1.08.93,2.18,1.9,3.24,2.89a.86.86,0,0,1-.58,1.49ZM58.68,31.2a.84.84,0,0,1-.52-.18c-1.18-.91-2.34-1.76-3.44-2.51a.85.85,0,0,1-.23-1.19.86.86,0,0,1,1.19-.23c1.14.77,2.32,1.64,3.53,2.57a.86.86,0,0,1,.15,1.21A.88.88,0,0,1,58.68,31.2Z"/><path class="b057c801-ad11-4631-971c-b7aa83ac6a65" d="M25,66.84a.72.72,0,0,1-.29-.06.86.86,0,0,1-.52-1.1,39.68,39.68,0,0,1,1.74-4,.86.86,0,0,1,1.54.76,39.85,39.85,0,0,0-1.66,3.87A.87.87,0,0,1,25,66.84Zm3.77-7.73a.88.88,0,0,1-.44-.12A.86.86,0,0,1,28,57.8c.74-1.23,1.55-2.45,2.4-3.64a.86.86,0,1,1,1.4,1c-.82,1.15-1.61,2.34-2.33,3.54A.88.88,0,0,1,28.75,59.11Zm5-7a.86.86,0,0,1-.66-1.42C34,49.58,35,48.49,36,47.46a.86.86,0,1,1,1.24,1.2c-1,1-1.93,2.06-2.84,3.15A.88.88,0,0,1,33.76,52.12Zm6-6.16a.86.86,0,0,1-.56-1.51c1.11-1,2.26-1.89,3.41-2.74a.86.86,0,0,1,1.2.19.85.85,0,0,1-.19,1.2c-1.11.82-2.22,1.71-3.29,2.64A.83.83,0,0,1,39.76,46Zm6.94-5.07a.86.86,0,0,1-.44-1.6c1.19-.71,2.41-1.35,3.62-1.93l.26-.12a.86.86,0,1,1,.72,1.56l-.25.12c-1.16.55-2.33,1.17-3.47,1.85A.79.79,0,0,1,46.7,40.89Zm7.79-3.62a.86.86,0,0,1-.29-1.67c1.35-.47,2.75-.91,4.18-1.28A.86.86,0,0,1,58.82,36c-1.38.37-2.74.78-4,1.24A.92.92,0,0,1,54.49,37.27Zm8.31-2.19a.85.85,0,0,1-.84-.71.86.86,0,0,1,.69-1c1.47-.26,2.93-.46,4.34-.6a.86.86,0,0,1,.15,1.72c-1.35.13-2.76.32-4.18.58Z"/><circle class="b057c801-ad11-4631-971c-b7aa83ac6a65" cx="71.78" cy="21.54" r="2.18"/><circle class="b057c801-ad11-4631-971c-b7aa83ac6a65" cx="80.77" cy="75.15" r="2.18"/><circle class="b057c801-ad11-4631-971c-b7aa83ac6a65" cx="12.21" cy="56.46" r="2.18"/><circle class="b057c801-ad11-4631-971c-b7aa83ac6a65" cx="15.06" cy="48.34" r="1.09"/><circle class="b057c801-ad11-4631-971c-b7aa83ac6a65" cx="88.88" cy="69.15" r="1.09"/><circle class="b057c801-ad11-4631-971c-b7aa83ac6a65" cx="61.9" cy="18.72" r="1.09"/></svg>