<svg id="svg" version="1.1" xmlns="http://www.w3.org/2000/svg" xmlns:xlink="http://www.w3.org/1999/xlink" width="400" height="258.0204778156997" viewBox="0, 0, 400,258.0204778156997"><g id="svgg"><path id="path0" d="M232.774 0.378 C 232.774 0.681,232.247 0.771,230.129 0.830 C 227.627 0.899,227.480 0.934,227.403 1.471 C 227.333 1.960,227.138 2.049,225.984 2.116 C 224.820 2.183,224.634 2.269,224.563 2.774 C 224.503 3.194,224.307 3.355,223.853 3.355 C 223.508 3.355,223.226 3.478,223.226 3.628 C 223.226 3.778,223.110 3.830,222.968 3.742 C 222.826 3.654,222.708 3.734,222.706 3.920 C 222.703 4.166,222.633 4.152,222.452 3.871 C 222.193 3.471,222.100 3.669,222.180 4.452 C 222.210 4.746,222.047 4.903,221.712 4.903 C 221.052 4.903,220.316 5.636,220.498 6.111 C 220.576 6.315,220.525 6.408,220.384 6.321 C 220.244 6.234,220.127 6.315,220.125 6.501 C 220.122 6.746,220.053 6.733,219.871 6.452 C 219.657 6.121,219.620 6.130,219.617 6.516 C 219.615 6.765,219.497 6.968,219.355 6.968 C 219.213 6.968,219.097 7.362,219.097 7.843 C 219.097 8.561,218.981 8.747,218.452 8.880 C 217.871 9.026,217.806 9.172,217.806 10.327 C 217.806 11.511,217.758 11.613,217.188 11.613 C 216.249 11.613,216.005 18.079,216.610 26.968 C 216.629 27.252,216.906 27.599,217.226 27.739 C 217.748 27.968,218.006 29.007,217.846 30.232 C 217.834 30.325,218.110 30.472,218.460 30.560 C 219.101 30.720,219.188 31.077,219.162 33.403 C 219.155 33.980,219.625 34.534,220.012 34.405 C 220.157 34.356,220.295 34.579,220.318 34.900 C 220.432 36.513,220.694 37.193,221.289 37.419 C 221.785 37.607,221.920 37.869,221.985 38.762 C 222.047 39.621,222.195 39.928,222.645 40.126 C 223.236 40.385,223.241 40.413,223.312 43.556 C 223.321 43.949,223.523 44.194,223.921 44.294 C 224.427 44.421,224.516 44.609,224.516 45.549 C 224.516 46.581,224.790 46.971,225.591 47.074 C 225.954 47.121,226.028 47.412,226.103 49.085 C 226.173 50.635,226.241 50.827,226.768 50.959 C 227.248 51.080,227.361 51.294,227.387 52.134 C 227.436 53.707,227.460 53.804,227.806 53.839 C 227.984 53.856,228.239 53.885,228.373 53.903 C 228.507 53.921,228.652 54.487,228.696 55.161 C 228.759 56.143,228.890 56.438,229.355 56.642 C 229.827 56.849,229.940 57.114,229.961 58.061 C 229.999 59.790,230.264 60.505,230.901 60.597 C 231.378 60.666,231.469 60.871,231.535 62.016 C 231.603 63.180,231.689 63.366,232.194 63.437 C 232.756 63.517,232.938 64.327,232.837 66.298 C 232.813 66.760,233.339 67.296,233.698 67.176 C 233.863 67.121,233.996 67.620,234.033 68.430 C 234.107 70.055,234.181 70.194,234.969 70.194 C 235.531 70.194,235.593 70.314,235.664 71.548 C 235.732 72.729,235.817 72.914,236.323 72.986 C 236.855 73.061,236.903 73.204,236.903 74.709 C 236.903 76.135,236.985 76.414,237.525 76.838 C 237.959 77.180,238.168 77.633,238.218 78.341 C 238.294 79.419,238.628 80.081,238.984 79.861 C 239.231 79.708,239.796 80.634,239.584 80.846 C 239.198 81.233,239.831 83.406,240.407 83.669 C 240.904 83.895,241.021 84.171,241.085 85.262 C 241.151 86.405,241.239 86.592,241.742 86.663 C 242.323 86.746,242.414 87.131,242.388 89.403 C 242.384 89.678,242.543 90.063,242.739 90.260 C 242.936 90.457,243.099 90.522,243.101 90.406 C 243.112 89.819,243.606 91.071,243.609 91.694 C 243.614 92.692,244.050 93.419,244.641 93.419 C 245.054 93.419,245.147 93.639,245.212 94.774 C 245.280 95.955,245.365 96.140,245.871 96.211 C 246.401 96.287,246.733 98.306,246.484 99.931 C 246.468 100.035,246.744 100.193,247.098 100.282 C 247.639 100.417,247.742 100.595,247.742 101.396 C 247.742 102.417,248.106 102.968,248.781 102.968 C 249.090 102.968,249.176 103.156,249.108 103.677 C 248.931 105.027,249.385 106.690,250.005 106.964 C 250.443 107.158,250.588 107.451,250.613 108.190 C 250.663 109.704,250.689 109.804,251.032 109.839 C 251.210 109.856,251.465 109.885,251.599 109.903 C 251.733 109.921,251.878 110.487,251.921 111.161 C 251.984 112.143,252.115 112.438,252.581 112.642 C 253.108 112.873,253.395 114.190,253.188 115.430 C 253.110 115.899,253.732 116.645,254.203 116.645 C 254.620 116.645,254.710 116.823,254.710 117.656 C 254.710 119.000,254.922 119.484,255.511 119.484 C 255.953 119.484,256.243 121.123,256.026 122.401 C 255.972 122.721,256.617 123.278,256.924 123.176 C 257.089 123.121,257.222 123.620,257.259 124.430 C 257.333 126.055,257.407 126.194,258.197 126.194 C 258.786 126.194,258.820 126.283,258.892 128.065 C 258.959 129.720,259.035 129.965,259.548 130.190 C 260.002 130.389,260.129 130.657,260.129 131.410 C 260.129 132.149,260.277 132.472,260.761 132.789 C 261.256 133.114,261.410 133.464,261.471 134.408 C 261.537 135.433,261.635 135.625,262.129 135.695 C 262.649 135.769,262.710 135.923,262.710 137.162 C 262.710 138.930,263.061 139.871,263.722 139.871 C 264.154 139.871,264.243 140.076,264.309 141.226 C 264.377 142.406,264.462 142.591,264.968 142.663 C 265.480 142.736,265.552 142.903,265.578 144.082 C 265.624 146.125,265.638 146.176,266.247 146.443 C 266.707 146.645,266.830 146.941,266.892 147.992 C 266.962 149.188,267.023 149.297,267.664 149.371 C 268.310 149.445,268.367 149.550,268.439 150.790 C 268.506 151.954,268.592 152.140,269.097 152.211 C 269.627 152.287,269.678 152.433,269.681 153.889 C 269.686 155.599,269.810 155.944,270.516 156.204 C 270.864 156.333,270.968 156.668,270.968 157.669 C 270.968 158.882,271.010 158.968,271.613 158.968 C 272.207 158.968,272.260 159.065,272.284 160.194 C 272.320 161.927,272.575 162.671,273.234 162.964 C 273.668 163.158,273.814 163.454,273.839 164.190 C 273.891 165.753,273.911 165.806,274.452 165.806 C 274.837 165.806,274.986 166.002,275.039 166.581 C 275.178 168.108,275.355 168.516,275.876 168.516 C 276.329 168.516,276.387 168.693,276.387 170.081 C 276.387 171.862,276.701 172.645,277.414 172.645 C 277.819 172.645,277.921 172.864,277.986 173.871 C 278.049 174.853,278.180 175.147,278.645 175.352 C 279.172 175.583,279.467 177.050,279.256 178.387 C 279.240 178.494,279.371 178.582,279.548 178.585 C 279.788 178.588,279.782 178.645,279.524 178.809 C 279.267 178.971,279.352 179.072,279.846 179.197 C 280.398 179.335,280.522 179.524,280.548 180.263 C 280.601 181.737,280.623 181.797,281.193 182.047 C 281.642 182.244,281.769 182.587,281.896 183.948 C 282.054 185.645,282.369 186.323,282.999 186.323 C 283.249 186.323,283.355 186.670,283.355 187.490 C 283.355 188.491,283.445 188.692,283.985 188.898 C 284.515 189.099,284.629 189.336,284.695 190.375 C 284.763 191.433,284.858 191.625,285.355 191.695 C 285.908 191.774,286.158 192.944,285.955 194.513 C 285.880 195.097,286.462 195.871,286.977 195.871 C 287.412 195.871,287.484 196.051,287.484 197.133 C 287.484 198.265,287.551 198.412,288.129 198.558 C 288.779 198.721,288.961 199.546,288.834 201.765 C 288.809 202.203,288.906 202.327,289.188 202.219 C 289.407 202.135,289.507 202.181,289.418 202.326 C 289.331 202.466,289.441 202.581,289.662 202.581 C 289.958 202.581,290.065 202.848,290.065 203.592 C 290.065 204.936,290.277 205.419,290.866 205.419 C 291.135 205.419,291.363 205.506,291.372 205.613 C 291.571 207.826,291.736 208.258,292.379 208.258 C 292.766 208.258,292.903 208.427,292.903 208.903 C 292.903 209.414,293.033 209.548,293.530 209.548 C 293.984 209.548,294.180 209.709,294.240 210.129 C 294.293 210.502,294.530 210.739,294.903 210.792 C 295.325 210.852,295.484 211.048,295.484 211.508 C 295.484 212.003,295.650 212.175,296.244 212.294 C 296.762 212.398,297.029 212.621,297.083 212.997 C 297.164 213.570,297.220 213.592,298.710 213.645 C 299.492 213.673,299.613 213.763,299.613 214.323 C 299.613 214.932,299.692 214.968,301.014 214.968 C 302.271 214.968,302.424 215.028,302.498 215.548 C 302.544 215.868,302.716 216.129,302.882 216.129 C 303.047 216.129,303.270 216.216,303.376 216.323 C 303.483 216.429,305.752 216.516,308.418 216.516 C 313.469 216.516,314.581 216.324,314.581 215.454 C 314.581 215.058,314.852 214.979,316.452 214.915 C 318.096 214.848,318.353 214.770,318.573 214.269 C 318.710 213.955,319.059 213.665,319.347 213.623 C 319.635 213.582,319.984 213.292,320.121 212.978 C 320.259 212.665,320.607 212.374,320.895 212.333 C 321.251 212.282,321.446 212.030,321.501 211.548 C 321.565 210.991,321.717 210.839,322.211 210.839 C 322.709 210.839,322.839 210.705,322.839 210.194 C 322.839 209.677,322.968 209.548,323.484 209.548 C 324.000 209.548,324.129 209.419,324.129 208.903 C 324.129 208.395,324.260 208.258,324.747 208.258 C 325.463 208.258,325.677 207.837,325.677 206.431 C 325.677 205.524,325.744 205.419,326.323 205.419 C 326.957 205.419,326.968 205.385,326.968 203.355 C 326.968 201.325,326.978 201.290,327.613 201.290 L 328.258 201.290 328.258 196.645 C 328.258 192.148,328.241 192.000,327.734 192.000 C 327.095 192.000,327.012 191.778,326.915 189.806 C 326.850 188.487,326.753 188.220,326.258 188.003 C 325.793 187.799,325.677 187.540,325.677 186.700 C 325.677 185.568,325.329 185.032,324.594 185.032 C 324.190 185.032,324.129 184.793,324.129 183.226 C 324.129 182.126,324.022 181.419,323.856 181.419 C 323.705 181.419,323.646 181.316,323.724 181.190 C 323.802 181.065,323.663 180.977,323.417 180.997 C 323.096 181.022,322.948 180.811,322.897 180.258 C 322.757 178.731,322.581 178.323,322.060 178.323 C 321.622 178.323,321.544 178.136,321.516 177.032 C 321.471 175.222,321.483 175.264,320.832 174.588 C 320.463 174.205,320.231 173.628,320.209 173.042 C 320.189 172.528,320.075 172.046,319.954 171.971 C 319.833 171.897,319.794 171.737,319.868 171.618 C 319.942 171.498,319.712 171.432,319.356 171.471 C 318.739 171.539,318.710 171.481,318.710 170.176 C 318.710 168.956,318.648 168.801,318.129 168.728 C 317.610 168.654,317.541 168.480,317.477 167.097 C 317.418 165.815,317.297 165.458,316.772 165.026 C 316.334 164.665,316.109 164.180,316.044 163.452 C 315.942 162.319,315.690 161.728,315.389 161.914 C 314.916 162.206,314.608 161.540,314.559 160.123 C 314.504 158.538,314.210 157.815,313.737 158.107 C 313.581 158.204,313.546 158.148,313.653 157.975 C 313.754 157.811,313.720 157.677,313.578 157.677 C 313.435 157.677,313.283 157.126,313.240 156.452 C 313.173 155.406,313.076 155.214,312.581 155.143 C 312.098 155.075,311.995 154.890,311.968 154.047 C 311.950 153.489,311.914 152.945,311.889 152.839 C 311.863 152.732,311.749 152.252,311.635 151.772 C 311.483 151.134,311.367 150.995,311.202 151.256 C 311.025 151.535,310.975 151.539,310.972 151.275 C 310.970 151.089,310.852 151.009,310.710 151.097 C 310.551 151.195,310.450 150.776,310.448 150.015 C 310.443 148.584,310.247 148.174,309.613 148.272 C 309.230 148.331,309.161 148.129,309.161 146.945 C 309.161 145.627,309.125 145.548,308.516 145.548 C 307.895 145.548,307.871 145.487,307.871 143.890 C 307.871 142.423,307.795 142.172,307.219 141.718 C 306.738 141.340,306.559 140.945,306.538 140.215 C 306.504 139.069,306.199 138.581,305.517 138.581 C 305.077 138.581,304.786 136.900,305.011 135.650 C 305.071 135.315,304.486 134.698,304.247 134.845 C 303.965 135.020,303.752 134.283,303.700 132.957 C 303.676 132.348,303.534 131.882,303.377 131.900 C 302.589 131.990,302.452 131.822,302.452 130.761 C 302.452 129.572,302.113 129.032,301.368 129.032 C 300.965 129.032,300.903 128.793,300.903 127.226 C 300.903 126.126,300.796 125.419,300.630 125.419 C 300.480 125.419,300.425 125.309,300.508 125.175 C 300.591 125.040,300.424 124.976,300.136 125.031 C 299.662 125.122,299.613 124.999,299.613 123.727 C 299.613 122.401,299.577 122.323,298.968 122.323 C 298.351 122.323,298.323 122.255,298.323 120.762 C 298.323 119.424,298.229 119.115,297.671 118.597 C 297.227 118.186,297.008 117.695,296.984 117.063 C 296.947 116.094,296.240 115.176,295.758 115.474 C 295.576 115.587,295.484 115.113,295.484 114.063 C 295.484 112.319,295.129 111.367,294.561 111.585 C 294.277 111.694,294.194 111.466,294.194 110.591 C 294.194 109.689,294.062 109.353,293.548 108.949 C 293.163 108.646,292.903 108.178,292.903 107.786 C 292.903 106.699,292.446 105.806,291.889 105.806 C 291.433 105.806,291.369 105.603,291.302 103.935 C 291.235 102.292,291.157 102.034,290.657 101.815 C 290.211 101.619,290.072 101.312,290.012 100.396 C 289.947 99.407,289.846 99.213,289.355 99.143 C 288.851 99.072,288.772 98.902,288.754 97.853 C 288.726 96.097,288.609 95.685,288.010 95.233 C 287.651 94.963,287.461 94.509,287.437 93.868 C 287.399 92.870,286.699 91.946,286.210 92.248 C 286.029 92.360,285.935 91.930,285.935 90.983 C 285.935 89.625,285.901 89.548,285.290 89.548 C 284.669 89.548,284.645 89.487,284.645 87.890 C 284.645 86.426,284.569 86.171,283.998 85.722 C 283.541 85.362,283.330 84.920,283.281 84.219 C 283.196 82.990,282.953 82.581,282.307 82.581 C 281.864 82.581,281.806 82.392,281.806 80.935 C 281.806 79.289,281.400 78.452,280.785 78.832 C 280.545 78.980,280.358 77.238,280.500 76.179 C 280.525 75.993,280.394 75.862,280.208 75.887 C 279.379 75.998,279.226 75.838,279.226 74.860 C 279.226 73.737,279.008 72.977,278.735 73.146 C 278.289 73.421,277.975 72.786,277.912 71.483 C 277.840 69.993,277.347 68.903,276.745 68.903 C 276.488 68.903,276.387 68.540,276.387 67.613 C 276.387 66.409,276.344 66.323,275.742 66.323 C 275.125 66.323,275.097 66.255,275.097 64.762 C 275.097 63.418,275.005 63.116,274.435 62.587 C 273.973 62.160,273.758 61.674,273.725 60.987 C 273.674 59.920,273.306 59.355,272.664 59.355 C 272.344 59.355,272.258 59.052,272.258 57.919 C 272.258 56.349,271.934 55.484,271.346 55.484 C 271.078 55.484,270.968 55.188,270.968 54.470 C 270.968 53.704,270.815 53.336,270.339 52.963 C 269.877 52.599,269.690 52.168,269.630 51.331 C 269.566 50.443,269.421 50.138,268.968 49.939 C 268.481 49.725,268.387 49.483,268.387 48.442 C 268.387 47.060,267.803 45.677,267.219 45.677 C 266.941 45.677,266.839 45.368,266.839 44.521 C 266.839 43.503,266.762 43.345,266.194 43.203 C 265.596 43.053,265.548 42.928,265.548 41.508 C 265.548 40.205,265.452 39.886,264.903 39.377 C 264.474 38.980,264.258 38.503,264.258 37.953 C 264.258 36.807,263.850 36.138,263.225 36.258 C 262.761 36.348,262.710 36.218,262.710 34.953 C 262.710 33.627,262.674 33.548,262.065 33.548 C 261.443 33.548,261.419 33.487,261.419 31.890 C 261.419 30.450,261.338 30.167,260.805 29.748 C 260.358 29.396,260.152 28.916,260.047 27.987 C 259.968 27.285,259.896 26.681,259.887 26.645 C 259.878 26.610,259.581 26.581,259.226 26.581 C 258.605 26.581,258.581 26.518,258.581 24.935 C 258.581 23.289,258.174 22.452,257.560 22.832 C 257.385 22.940,257.290 22.496,257.290 21.569 C 257.290 20.259,257.236 20.125,256.645 19.977 C 256.058 19.830,256.000 19.691,256.000 18.445 C 256.000 16.924,255.805 16.188,255.460 16.402 C 255.334 16.480,255.301 16.363,255.385 16.142 C 255.485 15.883,255.393 15.742,255.124 15.742 C 254.852 15.742,254.710 15.516,254.710 15.084 C 254.710 14.202,254.014 12.903,253.542 12.903 C 253.257 12.903,253.161 12.578,253.161 11.613 C 253.161 10.409,253.118 10.323,252.516 10.323 C 251.938 10.323,251.871 10.218,251.871 9.311 C 251.871 8.021,251.661 7.482,251.224 7.649 C 250.857 7.790,250.228 6.890,250.502 6.616 C 250.591 6.528,250.296 6.382,249.848 6.292 C 249.207 6.164,249.032 5.998,249.032 5.516 C 249.032 5.039,248.893 4.903,248.404 4.903 C 247.911 4.903,247.759 4.751,247.695 4.194 C 247.626 3.598,247.489 3.482,246.839 3.475 C 246.335 3.468,246.065 3.333,246.065 3.087 C 246.065 2.489,245.619 2.180,244.655 2.111 C 243.783 2.049,243.262 1.650,243.516 1.238 C 243.586 1.125,243.520 1.018,243.370 1.000 C 243.220 0.982,242.981 0.939,242.839 0.903 C 242.697 0.868,241.535 0.824,240.258 0.806 C 238.380 0.780,237.935 0.700,237.935 0.387 C 237.935 0.069,237.477 0.000,235.355 0.000 C 233.260 0.000,232.774 0.071,232.774 0.378 M205.955 28.493 C 205.805 28.674,205.752 28.891,205.837 28.977 C 205.922 29.062,205.602 29.232,205.125 29.355 C 204.529 29.509,204.233 29.750,204.178 30.128 C 204.129 30.464,203.878 30.709,203.533 30.758 C 203.175 30.809,202.937 31.052,202.885 31.419 C 202.833 31.785,202.624 32.000,202.320 32.000 C 202.054 32.000,201.775 32.100,201.699 32.223 C 201.623 32.346,201.267 32.414,200.908 32.375 C 200.549 32.335,200.321 32.409,200.401 32.539 C 200.481 32.668,200.437 32.774,200.303 32.774 C 200.170 32.774,199.998 33.014,199.921 33.306 C 199.833 33.645,199.610 33.809,199.310 33.758 C 198.981 33.702,198.862 33.815,198.915 34.133 C 198.991 34.580,198.025 35.165,197.613 34.922 C 197.506 34.860,197.419 35.105,197.419 35.469 C 197.419 36.003,197.295 36.129,196.768 36.129 C 196.250 36.129,196.084 36.288,195.961 36.903 C 195.841 37.503,195.668 37.677,195.194 37.677 C 194.712 37.677,194.581 37.816,194.581 38.323 C 194.581 38.870,194.454 38.974,193.742 39.007 C 193.281 39.029,192.766 39.059,192.599 39.075 C 192.184 39.114,191.838 39.484,192.217 39.484 C 192.448 39.484,192.449 39.598,192.220 39.965 C 192.055 40.229,191.735 40.432,191.508 40.416 C 191.282 40.400,191.126 40.532,191.161 40.710 C 191.197 40.887,191.081 41.003,190.903 40.968 C 190.726 40.932,190.597 41.105,190.616 41.352 C 190.635 41.599,190.577 41.758,190.487 41.705 C 190.094 41.475,189.161 42.085,189.161 42.572 C 189.161 42.959,188.993 43.097,188.521 43.097 C 188.053 43.097,187.837 43.271,187.719 43.742 C 187.603 44.205,187.383 44.387,186.940 44.387 C 186.453 44.387,186.323 44.524,186.323 45.032 C 186.323 45.548,186.194 45.677,185.677 45.677 C 185.323 45.677,185.032 45.783,185.032 45.911 C 185.032 46.040,184.813 46.088,184.545 46.018 C 184.277 45.948,183.969 46.035,183.860 46.211 C 183.733 46.417,183.768 46.466,183.960 46.347 C 184.615 45.942,184.204 46.704,183.374 47.433 C 182.887 47.860,182.558 48.278,182.642 48.363 C 182.727 48.447,182.554 48.516,182.258 48.516 C 181.417 48.516,180.923 48.784,181.069 49.163 C 181.220 49.557,180.425 50.054,179.927 49.876 C 179.746 49.811,179.614 49.856,179.635 49.976 C 179.763 50.693,179.561 51.097,179.074 51.097 C 178.713 51.097,178.440 51.351,178.244 51.871 C 178.013 52.481,177.796 52.645,177.219 52.645 C 176.729 52.645,176.244 52.911,175.752 53.450 C 175.290 53.956,174.897 54.181,174.694 54.055 C 174.486 53.926,174.437 53.961,174.556 54.154 C 174.657 54.318,174.631 54.452,174.497 54.452 C 174.363 54.452,174.187 54.708,174.105 55.021 C 174.023 55.334,173.878 55.512,173.783 55.417 C 173.481 55.115,172.645 55.739,172.645 56.267 C 172.645 56.636,172.469 56.774,172.000 56.774 C 171.484 56.774,171.355 56.903,171.355 57.419 C 171.355 57.935,171.226 58.065,170.710 58.065 C 170.194 58.065,170.065 58.194,170.065 58.710 C 170.065 59.140,169.914 59.366,169.613 59.388 C 168.344 59.480,167.975 59.570,167.606 59.877 C 167.384 60.061,167.259 60.360,167.329 60.542 C 167.409 60.750,167.199 60.901,166.760 60.952 C 166.276 61.008,166.040 61.202,165.985 61.589 C 165.937 61.927,165.659 62.207,165.276 62.303 C 164.890 62.400,164.645 62.648,164.645 62.940 C 164.645 63.266,164.397 63.469,163.869 63.575 C 163.442 63.660,163.107 63.820,163.125 63.929 C 163.217 64.490,163.042 64.746,162.516 64.821 C 162.100 64.880,161.912 65.105,161.854 65.613 C 161.789 66.177,161.630 66.332,161.080 66.367 C 160.699 66.391,160.190 66.424,159.949 66.439 C 159.439 66.472,158.987 66.839,159.456 66.839 C 159.630 66.839,159.696 66.962,159.603 67.113 C 159.419 67.410,158.185 67.980,157.871 67.913 C 157.765 67.890,157.691 67.958,157.708 68.065 C 157.802 68.662,157.608 68.903,157.032 68.903 C 156.677 68.903,156.401 68.990,156.418 69.097 C 156.560 69.999,156.336 70.423,155.677 70.499 C 155.169 70.557,154.944 70.746,154.885 71.161 C 154.826 71.578,154.629 71.742,154.188 71.742 C 153.250 71.742,152.258 72.287,152.258 72.801 C 152.258 73.121,152.102 73.231,151.743 73.162 C 151.380 73.091,151.185 73.233,151.083 73.642 C 151.000 73.971,150.610 74.345,150.178 74.507 C 149.672 74.698,149.419 74.973,149.419 75.332 C 149.419 75.735,149.256 75.871,148.774 75.871 C 148.258 75.871,148.129 76.000,148.129 76.516 C 148.129 77.162,147.782 77.304,146.516 77.175 C 146.268 77.150,146.065 77.259,146.065 77.418 C 146.065 77.578,145.946 77.634,145.800 77.544 C 145.655 77.455,145.552 77.477,145.573 77.594 C 145.667 78.139,145.515 78.452,145.153 78.452 C 144.936 78.452,144.691 78.625,144.610 78.837 C 144.529 79.049,144.371 79.167,144.260 79.098 C 144.149 79.029,144.074 79.167,144.094 79.404 C 144.115 79.666,143.875 79.897,143.484 79.993 C 143.086 80.090,142.808 80.363,142.758 80.704 C 142.709 81.045,142.461 81.290,142.113 81.339 C 141.756 81.390,141.518 81.633,141.466 82.000 C 141.420 82.321,141.190 82.595,140.950 82.614 C 139.685 82.710,139.329 82.797,138.961 83.103 C 138.739 83.287,138.617 83.593,138.690 83.783 C 138.814 84.106,138.401 84.249,137.626 84.151 C 137.447 84.129,137.359 84.333,137.418 84.639 C 137.496 85.042,137.304 85.257,136.603 85.550 C 135.968 85.815,135.731 86.052,135.835 86.321 C 135.947 86.613,135.794 86.710,135.218 86.710 C 134.573 86.710,134.452 86.812,134.452 87.355 C 134.452 87.871,134.323 88.000,133.806 88.000 C 133.452 88.000,133.161 88.103,133.161 88.229 C 133.161 88.356,132.959 88.443,132.712 88.423 C 132.466 88.403,132.149 88.645,132.009 88.960 C 131.870 89.275,131.433 89.604,131.039 89.690 C 130.559 89.796,130.323 90.011,130.323 90.343 C 130.323 90.700,130.142 90.839,129.677 90.839 C 129.161 90.839,129.032 90.968,129.032 91.484 C 129.032 92.047,128.919 92.129,128.144 92.129 C 127.656 92.129,127.183 92.247,127.094 92.391 C 127.005 92.536,126.834 92.593,126.714 92.519 C 126.595 92.445,126.526 92.652,126.562 92.979 C 126.626 93.558,126.508 93.625,125.240 93.736 C 125.071 93.751,124.939 93.831,124.948 93.914 C 125.021 94.587,124.818 94.944,124.323 95.014 C 123.949 95.067,123.712 95.304,123.659 95.677 C 123.582 96.225,123.152 96.348,121.668 96.249 C 121.437 96.233,120.774 96.978,120.774 97.254 C 120.774 97.396,120.513 97.550,120.194 97.595 C 119.778 97.654,119.590 97.879,119.531 98.387 C 119.454 99.061,118.454 99.360,117.078 99.121 C 116.961 99.101,116.939 99.204,117.030 99.350 C 117.315 99.813,116.461 100.387,115.487 100.387 C 114.928 100.387,114.615 100.491,114.710 100.645 C 114.797 100.787,114.659 100.905,114.402 100.907 C 114.035 100.910,114.012 100.959,114.292 101.137 C 114.741 101.421,114.052 101.674,112.690 101.725 C 112.180 101.745,111.823 101.858,111.897 101.977 C 111.970 102.096,111.843 102.194,111.613 102.194 C 111.383 102.194,111.253 102.286,111.323 102.399 C 111.671 102.964,110.930 103.197,108.591 103.259 C 107.219 103.296,106.154 103.419,106.224 103.534 C 106.295 103.648,106.230 103.742,106.080 103.742 C 105.929 103.742,105.806 103.916,105.806 104.129 C 105.806 104.466,104.577 104.516,96.286 104.516 L 86.766 104.516 86.604 103.871 C 86.442 103.226,86.441 103.226,83.221 103.226 L 80.000 103.226 80.000 103.871 C 80.000 104.537,79.473 104.613,75.017 104.584 C 74.748 104.582,74.603 104.718,74.674 104.904 C 74.849 105.359,74.328 105.806,73.626 105.806 C 73.165 105.806,73.032 105.950,73.032 106.452 C 73.032 106.927,72.895 107.097,72.510 107.097 C 72.135 107.097,71.943 107.317,71.832 107.871 C 71.695 108.556,71.370 108.781,70.662 108.681 C 70.425 108.648,70.417 108.772,70.307 114.710 C 70.189 121.058,70.319 122.402,71.129 123.169 C 71.667 123.679,71.734 123.976,71.737 125.883 C 71.742 127.833,71.800 128.078,72.387 128.623 C 73.012 129.202,73.032 129.326,73.032 132.610 C 73.032 136.021,73.002 136.134,72.098 136.027 C 71.939 136.008,71.809 136.198,71.811 136.448 C 71.819 138.276,71.735 138.581,71.220 138.581 C 70.917 138.581,70.578 138.845,70.411 139.212 C 70.252 139.560,69.877 139.879,69.578 139.922 C 69.199 139.976,69.007 140.217,68.951 140.710 C 68.867 141.434,68.871 141.433,66.968 141.536 C 66.588 141.556,66.473 141.715,66.532 142.137 C 66.608 142.671,66.150 142.883,65.230 142.742 C 65.126 142.726,64.969 143.002,64.880 143.356 C 64.778 143.762,64.536 144.000,64.224 144.000 C 63.881 144.000,63.682 144.237,63.574 144.774 C 63.454 145.374,63.281 145.548,62.806 145.548 C 62.325 145.548,62.194 145.686,62.194 146.194 C 62.194 146.800,61.631 147.035,60.581 146.869 C 60.474 146.852,60.385 146.984,60.383 147.161 C 60.381 147.376,60.296 147.355,60.129 147.097 C 59.914 146.763,59.878 146.770,59.875 147.147 C 59.871 147.627,58.878 148.442,58.546 148.237 C 58.432 148.166,58.266 148.393,58.179 148.741 C 58.083 149.122,57.772 149.437,57.397 149.531 C 56.948 149.644,56.774 149.866,56.774 150.327 C 56.774 150.867,56.652 150.968,56.000 150.968 C 55.346 150.968,55.226 151.068,55.226 151.613 C 55.226 152.247,54.702 152.442,53.458 152.271 C 53.266 152.245,53.186 152.347,53.280 152.499 C 53.376 152.655,53.247 152.776,52.983 152.778 C 52.587 152.781,52.575 152.820,52.903 153.032 C 53.161 153.199,53.183 153.284,52.968 153.286 C 52.790 153.289,52.674 153.432,52.710 153.605 C 52.748 153.794,52.496 153.911,52.076 153.899 C 51.693 153.888,51.387 153.949,51.397 154.036 C 51.480 154.734,51.260 155.051,50.602 155.183 C 50.066 155.290,49.869 155.467,49.919 155.796 C 49.968 156.115,49.782 156.298,49.318 156.389 C 48.876 156.475,48.618 156.712,48.565 157.083 C 48.515 157.433,48.271 157.676,47.920 157.726 C 47.573 157.775,47.325 158.019,47.276 158.356 C 47.205 158.858,45.646 159.429,44.820 159.257 C 44.703 159.233,44.680 159.332,44.770 159.477 C 44.860 159.623,44.811 159.742,44.660 159.742 C 44.510 159.742,44.387 159.919,44.387 160.135 C 44.387 160.351,44.097 160.659,43.742 160.821 C 43.387 160.983,43.097 161.271,43.097 161.461 C 43.097 161.768,42.588 161.936,41.981 161.831 C 41.864 161.810,41.842 161.913,41.932 162.058 C 42.021 162.204,41.972 162.323,41.822 162.323 C 41.671 162.323,41.548 162.497,41.548 162.710 C 41.548 163.058,41.244 163.210,40.714 163.129 C 39.936 163.009,40.177 166.744,40.970 167.093 C 41.521 167.336,41.686 167.899,41.559 169.113 C 41.532 169.370,41.690 169.855,41.910 170.191 C 42.211 170.650,42.231 170.832,41.993 170.928 C 41.820 170.998,41.997 171.065,42.387 171.076 C 43.064 171.096,43.097 171.156,43.097 172.393 C 43.097 173.531,43.174 173.720,43.727 173.930 C 44.256 174.131,44.371 174.369,44.437 175.407 C 44.505 176.466,44.600 176.657,45.097 176.728 C 45.617 176.801,45.681 176.963,45.707 178.276 C 45.724 179.082,45.764 179.858,45.797 180.000 C 45.830 180.142,45.875 180.388,45.896 180.547 C 45.918 180.706,46.197 180.822,46.516 180.805 C 47.025 180.778,47.107 180.917,47.179 181.930 C 47.263 183.105,47.629 183.842,48.011 183.606 C 48.355 183.394,48.482 183.815,48.545 185.370 C 48.579 186.209,48.724 186.840,48.883 186.843 C 49.036 186.845,49.005 186.946,48.814 187.067 C 48.558 187.229,48.642 187.330,49.137 187.455 C 49.790 187.619,49.942 188.116,49.875 189.873 C 49.869 190.052,50.141 190.268,50.480 190.353 C 51.008 190.485,51.097 190.664,51.097 191.589 C 51.097 192.752,51.440 193.290,52.181 193.290 C 52.584 193.290,52.645 193.530,52.645 195.103 C 52.645 196.799,52.687 196.932,53.290 197.161 C 53.885 197.387,54.171 198.507,53.966 199.806 C 53.949 199.913,54.226 200.000,54.581 200.000 C 55.186 200.000,55.226 200.083,55.226 201.335 C 55.226 202.214,55.371 202.830,55.653 203.141 C 55.996 203.520,56.008 203.618,55.717 203.639 C 55.518 203.653,55.645 203.745,56.000 203.843 C 56.556 203.996,56.656 204.190,56.724 205.248 C 56.790 206.260,56.914 206.527,57.434 206.763 C 57.976 207.010,58.068 207.234,58.090 208.364 C 58.114 209.574,58.496 211.424,58.555 210.614 C 58.605 209.918,59.355 210.869,59.355 211.628 C 59.355 212.700,59.765 213.590,60.328 213.737 C 60.715 213.838,60.799 214.038,60.710 214.646 C 60.566 215.624,61.026 216.516,61.675 216.516 C 62.112 216.516,62.180 216.740,62.247 218.387 C 62.316 220.088,62.374 220.265,62.888 220.338 C 63.283 220.395,63.477 220.627,63.533 221.113 L 63.613 221.806 72.066 221.848 C 80.351 221.889,80.526 221.879,80.894 221.354 C 81.100 221.060,81.209 220.722,81.135 220.603 C 81.062 220.484,85.073 220.387,90.049 220.387 L 99.097 220.387 99.097 222.820 C 99.097 225.208,99.374 226.065,100.147 226.065 C 100.288 226.065,100.387 228.526,100.387 232.017 C 100.387 235.627,100.492 238.166,100.654 238.469 C 100.853 238.841,100.837 238.973,100.590 238.988 C 100.407 238.999,100.577 239.125,100.968 239.268 C 101.618 239.505,101.677 239.640,101.677 240.870 C 101.677 242.052,101.743 242.218,102.223 242.254 C 102.954 242.309,102.998 242.377,103.073 243.543 C 103.152 244.787,103.370 245.161,104.015 245.161 C 104.400 245.161,104.525 245.355,104.555 246.000 C 104.577 246.461,104.608 246.976,104.623 247.143 C 104.662 247.558,105.032 247.904,105.032 247.525 C 105.032 247.298,105.161 247.302,105.543 247.540 C 105.880 247.751,106.017 248.060,105.946 248.451 C 105.887 248.776,105.940 248.980,106.063 248.904 C 106.186 248.828,106.365 248.892,106.460 249.046 C 106.555 249.200,106.782 249.268,106.965 249.198 C 107.189 249.112,107.253 249.236,107.164 249.578 C 107.063 249.964,107.220 250.156,107.827 250.385 C 108.303 250.565,108.653 250.898,108.699 251.214 C 108.750 251.571,108.999 251.768,109.470 251.822 C 109.877 251.869,110.118 252.030,110.050 252.209 C 109.916 252.566,111.070 253.161,111.897 253.161 C 112.297 253.161,112.546 253.391,112.736 253.935 C 112.910 254.435,113.182 254.710,113.503 254.710 C 113.777 254.710,114.171 254.964,114.377 255.275 C 114.686 255.740,115.059 255.861,116.473 255.951 C 118.083 256.053,118.194 256.100,118.194 256.675 C 118.194 257.284,118.220 257.290,120.903 257.290 C 123.140 257.290,123.613 257.358,123.613 257.677 C 123.613 258.007,124.301 258.065,128.258 258.065 C 132.215 258.065,132.903 258.007,132.903 257.677 C 132.903 257.340,134.166 257.288,142.645 257.272 C 152.348 257.254,153.419 257.176,153.419 256.490 C 153.419 256.198,154.336 256.104,158.194 256.000 C 162.904 255.873,162.969 255.863,163.050 255.290 C 163.125 254.765,163.274 254.710,164.620 254.710 C 165.438 254.710,166.195 254.623,166.301 254.516 C 166.408 254.410,166.630 254.323,166.796 254.323 C 166.961 254.323,167.134 254.061,167.179 253.742 C 167.240 253.314,167.444 253.153,167.953 253.132 C 169.302 253.073,169.422 253.026,169.674 252.452 C 169.850 252.051,170.150 251.871,170.642 251.871 C 171.230 251.871,171.355 251.758,171.355 251.226 C 171.355 250.710,171.484 250.581,172.000 250.581 C 172.516 250.581,172.645 250.452,172.645 249.935 C 172.645 249.419,172.774 249.290,173.290 249.290 C 173.835 249.290,173.935 249.170,173.935 248.516 C 173.935 247.828,174.022 247.742,174.710 247.742 C 175.363 247.742,175.484 247.642,175.484 247.097 C 175.484 246.585,175.614 246.452,176.112 246.452 C 176.605 246.452,176.757 246.299,176.822 245.742 C 176.866 245.352,177.048 245.018,177.226 245.000 C 177.403 244.982,177.665 244.953,177.806 244.935 C 177.948 244.918,178.065 244.337,178.065 243.645 C 178.065 242.454,178.106 242.379,178.839 242.232 C 179.562 242.088,179.613 242.001,179.613 240.910 C 179.613 239.825,179.766 239.605,180.447 239.710 C 180.712 239.751,180.888 238.841,180.966 237.032 C 181.002 236.179,181.148 235.503,181.290 235.526 C 182.145 235.667,182.194 235.113,182.194 225.151 C 182.194 217.487,182.121 215.240,181.871 215.139 C 181.694 215.067,186.216 214.999,191.920 214.988 C 202.412 214.968,202.692 214.944,202.706 214.065 C 202.708 213.897,206.865 213.783,214.516 213.739 C 223.242 213.690,226.323 213.594,226.323 213.374 C 226.323 213.210,226.395 213.148,226.484 213.236 C 226.572 213.325,226.834 213.171,227.064 212.894 C 227.468 212.409,227.902 212.389,238.619 212.373 C 250.373 212.356,251.177 212.270,250.462 211.113 C 250.343 210.921,253.732 210.839,261.776 210.839 C 273.418 210.839,273.660 210.820,273.673 209.935 C 273.676 209.778,275.260 209.650,277.755 209.606 L 281.833 209.535 281.783 207.286 C 281.734 205.063,281.460 204.129,280.855 204.129 C 280.667 204.129,280.513 203.644,280.466 202.903 C 280.399 201.857,280.302 201.665,279.806 201.595 C 279.302 201.523,279.223 201.354,279.206 200.305 C 279.178 198.565,279.061 198.139,278.489 197.690 C 278.209 197.470,277.927 196.871,277.862 196.359 C 277.738 195.380,277.361 194.518,277.074 194.558 C 276.489 194.637,276.387 194.450,276.387 193.295 C 276.387 192.139,276.322 191.994,275.742 191.848 C 275.180 191.707,275.097 191.544,275.097 190.585 C 275.097 189.174,274.814 187.751,274.602 188.095 C 274.275 188.624,273.818 187.951,273.742 186.828 C 273.649 185.444,273.424 185.032,272.759 185.032 C 272.302 185.032,272.007 183.379,272.237 182.102 C 272.304 181.725,271.698 181.158,271.415 181.333 C 271.266 181.425,271.222 181.376,271.317 181.223 C 271.410 181.071,271.383 180.908,271.256 180.861 C 271.129 180.813,270.960 180.252,270.880 179.613 C 270.801 178.974,270.730 178.423,270.723 178.387 C 270.716 178.352,270.623 178.336,270.516 178.353 C 269.853 178.458,269.677 178.240,269.677 177.311 C 269.677 175.967,269.465 175.484,268.876 175.484 C 268.470 175.484,268.380 175.275,268.348 174.258 C 268.291 172.496,268.015 171.340,267.662 171.391 C 266.976 171.488,266.839 171.267,266.839 170.065 C 266.839 168.860,266.796 168.774,266.194 168.774 C 265.576 168.774,265.548 168.706,265.548 167.213 C 265.548 165.876,265.455 165.566,264.896 165.049 C 264.450 164.635,264.233 164.148,264.209 163.502 C 264.190 162.983,264.075 162.498,263.954 162.423 C 263.833 162.348,263.796 162.186,263.872 162.063 C 263.948 161.940,263.718 161.892,263.360 161.957 C 262.729 162.071,262.710 162.031,262.710 160.655 C 262.710 159.356,262.655 159.222,262.065 159.074 C 261.487 158.929,261.419 158.780,261.419 157.662 C 261.419 156.255,260.993 155.097,260.475 155.097 C 260.177 155.097,259.955 153.808,260.105 152.948 C 260.126 152.830,259.791 152.602,259.361 152.440 C 258.604 152.154,258.339 151.117,258.552 149.267 C 258.592 148.923,257.565 147.956,257.506 148.283 C 257.483 148.411,257.396 147.877,257.313 147.097 C 257.183 145.876,257.080 145.666,256.581 145.595 C 256.052 145.520,256.000 145.373,256.000 143.970 C 256.000 142.675,255.901 142.335,255.384 141.856 C 255.046 141.542,254.710 140.880,254.638 140.385 C 254.436 139.002,254.205 138.608,253.657 138.714 C 253.217 138.798,253.161 138.651,253.161 137.405 C 253.161 136.078,253.125 136.000,252.516 136.000 C 251.895 136.000,251.871 135.938,251.871 134.344 C 251.871 132.875,251.798 132.635,251.225 132.215 C 250.724 131.848,250.570 131.490,250.537 130.617 C 250.499 129.630,250.404 129.460,249.763 129.237 C 249.074 128.996,248.741 127.607,249.011 126.102 C 249.078 125.725,248.472 125.158,248.189 125.333 C 248.041 125.425,247.997 125.376,248.091 125.223 C 248.185 125.071,248.146 124.908,248.006 124.861 C 247.865 124.813,247.729 124.223,247.704 123.548 C 247.663 122.457,247.593 122.323,247.069 122.323 C 246.549 122.323,246.471 122.178,246.401 121.097 C 246.338 120.115,246.207 119.820,245.742 119.616 C 245.265 119.407,245.156 119.143,245.129 118.132 C 245.094 116.780,245.091 116.761,244.814 115.953 C 244.684 115.574,244.456 115.421,244.117 115.486 C 243.667 115.573,243.613 115.433,243.613 114.179 C 243.613 112.853,243.577 112.774,242.968 112.774 C 242.351 112.774,242.323 112.706,242.323 111.213 C 242.323 109.879,242.229 109.566,241.676 109.053 C 241.238 108.648,241.006 108.129,240.959 107.453 C 240.874 106.216,240.632 105.806,239.985 105.806 C 239.528 105.806,239.233 104.153,239.462 102.876 C 239.528 102.509,238.906 101.904,238.588 102.026 C 238.400 102.098,238.269 101.762,238.231 101.112 C 238.163 99.974,237.727 99.097,237.228 99.097 C 237.010 99.097,236.903 98.673,236.903 97.811 C 236.903 96.655,236.838 96.510,236.258 96.364 C 235.694 96.222,235.608 96.052,235.574 95.004 C 235.502 92.823,235.248 92.130,234.569 92.260 C 234.124 92.346,234.065 92.209,234.065 91.087 C 234.065 89.947,233.998 89.800,233.419 89.654 C 232.822 89.504,232.774 89.379,232.774 87.960 C 232.774 86.652,232.678 86.338,232.122 85.823 C 231.679 85.412,231.459 84.921,231.435 84.289 C 231.399 83.320,230.691 82.402,230.210 82.700 C 230.029 82.812,229.935 82.382,229.935 81.435 C 229.935 80.076,229.901 80.000,229.290 80.000 C 228.669 80.000,228.645 79.939,228.645 78.341 C 228.645 76.891,228.566 76.620,228.017 76.188 C 227.554 75.825,227.367 75.394,227.307 74.557 C 227.245 73.690,227.095 73.362,226.677 73.178 C 226.234 72.984,226.101 72.645,225.991 71.427 C 225.850 69.876,225.438 69.049,224.907 69.253 C 224.706 69.330,224.586 68.930,224.546 68.055 C 224.475 66.504,224.390 66.323,223.727 66.323 C 223.316 66.323,223.226 66.140,223.226 65.311 C 223.226 64.188,223.008 63.428,222.735 63.597 C 222.289 63.873,221.975 63.238,221.913 61.934 C 221.828 60.128,221.504 59.368,220.871 59.490 C 220.446 59.572,220.387 59.414,220.387 58.179 C 220.387 56.871,220.345 56.774,219.772 56.774 C 219.196 56.774,219.150 56.664,219.047 55.054 C 218.957 53.640,218.837 53.266,218.372 52.958 C 217.937 52.669,217.806 52.328,217.806 51.484 C 217.806 50.368,217.383 49.726,216.737 49.862 C 216.477 49.917,216.367 49.506,216.309 48.268 C 216.228 46.536,215.906 45.817,215.313 46.045 C 215.013 46.160,214.775 44.577,214.937 43.548 C 214.966 43.364,214.880 43.333,214.129 43.258 C 213.952 43.240,213.775 42.819,213.737 42.323 C 213.633 40.977,213.429 40.222,213.206 40.360 C 212.754 40.639,212.430 40.050,212.368 38.838 C 212.291 37.354,211.772 36.129,211.219 36.129 C 210.941 36.129,210.839 35.820,210.839 34.973 C 210.839 33.954,210.762 33.797,210.194 33.654 C 209.607 33.507,209.548 33.369,209.548 32.122 C 209.548 30.371,209.397 30.004,208.476 29.528 C 208.063 29.314,207.786 29.041,207.860 28.921 C 208.227 28.326,206.429 27.922,205.955 28.493 M48.800 95.639 C 48.410 96.135,48.035 96.310,47.362 96.310 C 46.861 96.310,46.452 96.421,46.452 96.557 C 46.452 96.693,46.337 96.734,46.197 96.647 C 46.054 96.559,46.005 96.655,46.085 96.863 C 46.249 97.291,45.214 98.127,44.821 97.885 C 44.678 97.796,44.646 97.858,44.750 98.025 C 44.851 98.189,44.811 98.323,44.660 98.323 C 44.510 98.323,44.387 98.787,44.387 99.355 C 44.387 100.164,44.290 100.388,43.935 100.391 C 43.550 100.394,43.540 100.431,43.871 100.645 C 44.178 100.844,44.125 100.897,43.613 100.903 C 43.101 100.909,43.048 100.963,43.355 101.161 C 43.581 101.308,43.616 101.413,43.438 101.415 C 43.218 101.418,43.147 102.364,43.180 104.839 C 43.213 107.300,43.313 108.258,43.535 108.258 C 44.085 108.258,44.358 108.750,44.423 109.856 C 44.458 110.450,44.580 110.879,44.695 110.808 C 44.809 110.737,44.903 110.802,44.903 110.953 C 44.903 111.103,45.077 111.226,45.290 111.226 C 45.503 111.226,45.677 111.454,45.677 111.733 C 45.677 112.370,46.412 112.774,47.568 112.774 C 48.291 112.774,48.489 112.890,48.613 113.384 C 48.883 114.461,58.236 114.331,58.002 113.254 C 57.965 113.086,58.226 112.876,58.581 112.787 C 59.038 112.672,59.250 112.422,59.307 111.925 C 59.371 111.379,59.526 111.226,60.017 111.226 C 60.515 111.226,60.645 111.092,60.645 110.581 C 60.645 110.111,60.783 109.935,61.152 109.935 C 62.028 109.935,62.194 109.102,62.194 104.679 C 62.194 100.145,62.004 99.097,61.185 99.097 C 60.825 99.097,60.656 98.892,60.598 98.387 C 60.542 97.905,60.348 97.653,59.992 97.602 C 59.704 97.561,59.356 97.271,59.218 96.957 C 59.028 96.525,58.711 96.368,57.906 96.309 C 57.071 96.248,56.784 96.097,56.557 95.600 C 56.094 94.584,49.604 94.617,48.800 95.639 M26.842 99.732 C 26.633 100.284,26.429 100.387,25.555 100.387 C 24.984 100.387,24.516 100.510,24.516 100.660 C 24.516 100.811,24.400 100.862,24.258 100.774 C 24.116 100.686,24.000 100.738,24.000 100.888 C 24.000 101.038,24.145 101.163,24.323 101.165 C 24.564 101.168,24.558 101.224,24.301 101.388 C 24.111 101.508,23.966 101.680,23.978 101.771 C 24.120 102.836,23.961 103.226,23.382 103.226 C 22.582 103.226,22.452 103.622,22.452 106.058 C 22.452 108.087,22.604 108.407,23.613 108.494 C 23.755 108.506,23.929 109.096,24.000 109.805 C 24.112 110.927,24.213 111.111,24.774 111.225 C 25.129 111.296,25.419 111.500,25.419 111.677 C 25.419 111.855,25.523 111.990,25.649 111.978 C 25.775 111.966,25.974 112.111,26.091 112.301 C 26.474 112.921,32.433 112.857,33.064 112.226 C 33.341 111.949,33.498 111.611,33.414 111.474 C 33.328 111.336,33.602 111.226,34.032 111.226 C 34.683 111.226,34.817 111.114,34.886 110.516 C 34.931 110.126,35.113 109.792,35.290 109.774 C 35.468 109.756,35.717 109.727,35.843 109.710 C 35.970 109.692,36.092 108.226,36.113 106.452 L 36.152 103.226 35.495 103.226 C 34.895 103.226,34.838 103.131,34.835 102.129 C 34.833 101.526,34.745 100.916,34.641 100.774 C 34.443 100.505,34.365 100.489,32.921 100.426 C 32.214 100.395,32.019 100.270,31.953 99.806 C 31.816 98.840,27.207 98.773,26.842 99.732 M14.490 168.001 C 14.270 168.632,14.149 168.682,13.013 168.618 C 11.054 168.508,10.323 168.734,10.323 169.452 C 10.323 170.022,10.225 170.065,8.903 170.065 C 8.123 170.065,7.498 170.152,7.514 170.258 C 7.654 171.141,7.447 171.355,6.452 171.355 C 5.884 171.355,5.419 171.478,5.419 171.628 C 5.419 171.778,5.310 171.834,5.176 171.751 C 5.043 171.669,4.956 171.922,4.983 172.314 C 5.026 172.935,4.942 173.024,4.335 173.001 C 3.951 172.987,3.649 173.046,3.663 173.133 C 3.800 173.968,3.227 175.466,2.743 175.534 C 2.409 175.582,2.162 175.831,2.114 176.169 C 2.066 176.508,1.788 176.788,1.405 176.884 C 0.832 177.028,0.774 177.172,0.774 178.457 C 0.774 179.542,0.684 179.871,0.387 179.871 C 0.052 179.871,0.000 180.846,0.000 187.097 C 0.000 193.348,0.052 194.323,0.387 194.323 C 0.680 194.323,0.774 194.639,0.774 195.618 C 0.774 196.750,0.856 196.952,1.419 197.208 C 1.973 197.460,2.065 197.673,2.065 198.699 C 2.065 199.358,2.210 200.053,2.387 200.244 C 2.645 200.522,2.645 200.555,2.387 200.410 C 2.210 200.310,2.065 200.351,2.065 200.501 C 2.065 200.651,2.187 200.774,2.338 200.774 C 2.488 200.774,2.538 200.893,2.448 201.039 C 2.358 201.184,2.380 201.286,2.497 201.266 C 3.179 201.148,3.355 201.365,3.355 202.323 C 3.355 202.890,3.478 203.355,3.628 203.355 C 3.778 203.355,3.832 203.468,3.747 203.605 C 3.661 203.743,3.887 203.930,4.248 204.020 C 4.806 204.161,4.903 204.330,4.903 205.168 C 4.903 206.484,5.119 206.968,5.705 206.968 C 6.121 206.968,6.198 207.178,6.226 208.387 C 6.244 209.168,6.287 209.923,6.323 210.065 C 6.358 210.206,6.402 210.439,6.419 210.581 C 6.437 210.723,6.539 210.825,6.645 210.808 C 7.294 210.706,7.484 210.921,7.484 211.759 C 7.484 212.856,7.874 213.677,8.396 213.677 C 8.756 213.677,8.906 214.405,8.785 215.565 C 8.758 215.822,8.922 216.316,9.148 216.661 C 9.457 217.132,9.478 217.297,9.232 217.316 C 9.051 217.330,9.194 217.422,9.548 217.520 C 10.100 217.672,10.212 217.884,10.323 218.978 C 10.432 220.062,10.541 220.271,11.032 220.341 C 11.581 220.418,11.809 221.352,11.645 222.848 C 11.629 222.996,11.860 223.135,12.159 223.157 C 12.903 223.213,12.894 223.192,12.935 224.987 C 12.954 225.863,13.078 226.581,13.210 226.581 C 13.342 226.581,13.378 226.697,13.290 226.839 C 13.203 226.981,13.254 227.111,13.404 227.129 C 13.554 227.147,13.823 227.176,14.000 227.194 C 14.196 227.213,14.354 227.711,14.402 228.464 C 14.467 229.486,14.591 229.752,15.111 229.989 C 15.568 230.197,15.742 230.482,15.742 231.021 C 15.742 231.472,15.983 231.991,16.351 232.335 C 16.686 232.647,17.043 233.165,17.143 233.484 C 17.266 233.877,17.528 234.065,17.953 234.065 C 18.446 234.065,18.581 234.199,18.581 234.692 C 18.581 235.117,18.768 235.379,19.161 235.502 C 19.481 235.603,19.998 235.959,20.310 236.294 C 20.662 236.671,21.172 236.903,21.647 236.903 C 22.248 236.903,22.434 237.030,22.498 237.484 C 22.571 237.999,22.750 238.073,24.072 238.142 C 24.892 238.185,25.497 238.326,25.417 238.455 C 24.609 239.762,37.412 240.518,38.575 239.232 C 38.819 238.963,38.942 238.619,38.849 238.468 C 38.737 238.287,39.166 238.194,40.114 238.194 C 41.464 238.194,41.548 238.156,41.548 237.562 C 41.548 236.982,41.659 236.924,42.903 236.852 C 43.751 236.803,44.270 236.653,44.290 236.452 C 44.308 236.274,44.337 236.021,44.355 235.889 C 44.373 235.757,44.648 235.612,44.968 235.566 C 45.380 235.508,45.572 235.282,45.629 234.790 C 45.690 234.253,45.866 234.078,46.403 234.016 C 46.895 233.959,47.121 233.767,47.179 233.355 C 47.231 232.990,47.440 232.774,47.742 232.774 C 48.015 232.774,48.302 232.523,48.406 232.194 C 48.506 231.874,48.862 231.357,49.197 231.045 C 49.600 230.668,49.806 230.187,49.806 229.622 C 49.806 228.983,49.953 228.703,50.387 228.513 C 51.064 228.216,51.458 214.036,50.811 213.257 C 50.587 212.987,50.601 212.897,50.872 212.878 C 51.066 212.863,50.935 212.772,50.581 212.674 C 50.024 212.520,49.925 212.326,49.856 211.268 C 49.791 210.256,49.666 209.990,49.147 209.753 C 48.593 209.500,48.516 209.298,48.516 208.088 C 48.516 207.330,48.407 206.710,48.273 206.710 C 48.139 206.710,48.074 206.480,48.128 206.199 C 48.182 205.918,48.146 205.699,48.049 205.713 C 47.443 205.799,47.226 205.590,47.226 204.920 C 47.226 203.741,46.787 202.839,46.213 202.839 C 45.781 202.839,45.693 202.634,45.626 201.484 C 45.558 200.304,45.474 200.118,44.968 200.047 C 44.452 199.973,44.384 199.808,44.355 198.563 C 44.337 197.792,44.294 197.045,44.258 196.903 C 44.223 196.761,44.179 196.510,44.161 196.344 C 44.144 196.178,44.057 196.115,43.969 196.203 C 43.681 196.491,43.097 195.665,43.097 194.969 C 43.097 194.010,42.650 193.290,42.055 193.290 C 41.610 193.290,41.548 193.109,41.548 191.794 C 41.548 190.970,41.409 190.157,41.239 189.987 C 40.998 189.746,41.012 189.672,41.303 189.652 C 41.509 189.638,41.387 189.546,41.032 189.448 C 40.481 189.296,40.368 189.084,40.258 187.990 C 40.156 186.979,40.007 186.656,39.548 186.455 C 39.010 186.219,38.844 185.670,38.900 184.311 C 38.908 184.127,38.578 183.909,38.167 183.827 C 37.441 183.682,37.122 182.058,37.401 179.931 C 37.425 179.752,37.351 179.620,37.238 179.639 C 36.332 179.792,36.154 179.581,36.078 178.258 C 36.017 177.194,35.907 176.903,35.567 176.900 C 34.929 176.895,34.796 176.620,34.602 174.910 C 34.590 174.807,34.228 174.541,33.798 174.318 C 33.368 174.096,33.076 173.815,33.150 173.696 C 33.332 173.402,32.657 172.867,32.221 172.959 C 32.028 172.999,31.905 172.873,31.946 172.677 C 32.078 172.056,31.196 171.355,30.283 171.355 C 29.509 171.355,29.366 171.239,29.441 170.674 C 29.487 170.331,28.735 170.072,27.677 170.068 C 26.681 170.065,26.581 170.006,26.581 169.419 C 26.581 168.735,26.618 168.747,24.258 168.621 C 23.619 168.587,22.952 168.549,22.774 168.537 C 22.597 168.526,22.452 168.292,22.452 168.017 C 22.452 167.313,21.985 167.233,18.139 167.276 L 14.729 167.314 14.490 168.001 M167.226 224.645 C 167.226 233.002,167.235 232.921,166.254 232.793 C 166.074 232.769,165.943 232.842,165.962 232.955 C 166.181 234.257,165.892 235.613,165.395 235.613 C 165.065 235.613,164.800 235.822,164.715 236.149 C 164.638 236.444,164.289 236.793,163.940 236.926 C 163.591 237.059,163.245 237.398,163.171 237.681 C 163.096 237.966,162.819 238.194,162.544 238.194 C 162.203 238.194,162.004 238.432,161.897 238.968 C 161.749 239.707,160.803 240.010,159.400 239.766 C 159.283 239.746,159.244 239.820,159.313 239.932 C 159.754 240.645,158.740 241.022,156.299 241.054 C 154.905 241.072,153.872 241.187,153.952 241.317 C 154.031 241.444,153.965 241.548,153.806 241.548 C 153.648 241.548,153.585 241.656,153.666 241.789 C 153.957 242.260,153.271 242.301,144.686 242.335 C 139.908 242.354,136.046 242.447,136.105 242.542 C 136.672 243.459,131.701 243.956,125.226 243.629 C 125.048 243.620,124.903 243.393,124.903 243.124 C 124.903 242.535,124.420 242.323,123.076 242.323 C 122.194 242.323,122.065 242.247,122.065 241.732 C 122.065 241.320,121.903 241.130,121.528 241.102 C 120.815 241.048,120.257 240.561,120.420 240.136 C 120.492 239.947,120.398 239.800,120.211 239.808 C 118.472 239.885,118.243 239.768,118.065 238.710 C 117.969 238.142,117.784 237.677,117.655 237.677 C 117.525 237.677,117.448 237.532,117.484 237.355 C 117.519 237.177,117.345 237.048,117.097 237.068 C 116.763 237.095,116.645 236.910,116.645 236.358 C 116.645 235.735,116.539 235.613,116.000 235.613 C 115.356 235.613,115.355 235.609,115.324 232.968 C 115.299 230.748,114.969 227.968,114.869 229.128 C 114.845 229.414,114.764 229.420,114.452 229.161 C 114.133 228.897,114.065 227.984,114.065 223.972 L 114.065 219.105 121.484 219.036 L 128.903 218.968 128.986 218.387 L 129.068 217.806 140.812 217.806 L 152.555 217.806 153.116 217.166 L 153.677 216.525 160.452 216.521 L 167.226 216.516 167.226 224.645 " stroke="none" fill="#049cec" fill-rule="evenodd"></path><path id="path1" d="M374.882 47.398 C 374.787 47.492,374.710 47.778,374.710 48.032 C 374.710 48.430,374.432 48.505,372.710 48.570 C 370.859 48.640,370.704 48.688,370.627 49.226 C 370.551 49.764,370.415 49.806,368.750 49.806 C 367.073 49.806,366.939 49.849,366.710 50.452 C 366.514 50.967,366.286 51.097,365.576 51.097 C 364.294 51.097,363.871 51.328,363.871 52.028 C 363.871 52.604,363.777 52.645,362.452 52.645 C 361.110 52.645,361.032 52.680,361.032 53.290 C 361.032 53.892,360.946 53.935,359.742 53.935 C 358.545 53.935,358.452 53.981,358.452 54.567 C 358.452 55.147,358.341 55.205,357.097 55.277 C 355.833 55.350,355.736 55.403,355.660 56.065 C 355.584 56.732,355.503 56.774,354.305 56.774 C 353.127 56.774,353.032 56.821,353.032 57.406 C 353.032 57.986,352.922 58.044,351.677 58.116 C 350.497 58.184,350.312 58.268,350.240 58.774 C 350.173 59.244,349.993 59.355,349.293 59.355 C 348.092 59.355,347.613 59.585,347.613 60.163 C 347.613 60.507,347.376 60.705,346.839 60.813 C 346.239 60.933,346.065 61.106,346.065 61.581 C 346.065 62.144,345.960 62.194,344.774 62.194 C 343.570 62.194,343.484 62.237,343.484 62.839 C 343.484 63.417,343.379 63.484,342.473 63.484 C 341.139 63.484,340.645 63.696,340.645 64.268 C 340.645 64.559,340.424 64.770,340.065 64.821 C 339.652 64.879,339.461 65.105,339.403 65.600 C 339.329 66.245,339.224 66.302,337.984 66.374 C 336.820 66.441,336.634 66.527,336.563 67.032 C 336.503 67.453,336.307 67.613,335.853 67.613 C 335.360 67.613,335.226 67.748,335.226 68.245 C 335.226 68.824,335.114 68.883,333.881 68.954 C 332.688 69.023,332.520 69.105,332.387 69.677 C 332.257 70.237,332.077 70.333,331.022 70.401 C 329.926 70.472,329.806 70.542,329.806 71.111 C 329.806 71.640,329.681 71.742,329.032 71.742 C 328.378 71.742,328.258 71.842,328.258 72.387 C 328.258 72.989,328.172 73.032,326.968 73.032 C 325.773 73.032,325.677 73.079,325.677 73.660 C 325.677 74.154,325.525 74.306,324.968 74.370 L 324.258 74.452 324.185 77.187 C 324.145 78.692,324.229 80.230,324.372 80.606 L 324.632 81.290 329.929 81.290 L 335.226 81.290 335.226 81.935 L 335.226 82.581 342.065 82.581 L 348.903 82.581 348.903 83.226 L 348.903 83.871 357.677 83.871 C 365.955 83.871,366.452 83.897,366.452 84.335 C 366.452 85.342,366.882 85.420,372.245 85.394 C 378.024 85.365,378.672 85.271,378.792 84.441 C 378.872 83.887,378.966 83.871,382.211 83.871 L 385.548 83.871 385.548 83.226 C 385.548 82.616,385.626 82.581,386.968 82.581 C 388.310 82.581,388.387 82.545,388.387 81.935 C 388.387 81.373,388.500 81.290,389.269 81.290 C 390.468 81.290,390.968 81.064,390.968 80.521 C 390.968 80.220,391.232 80.012,391.742 79.910 C 392.357 79.787,392.516 79.621,392.516 79.103 C 392.516 78.580,392.643 78.452,393.161 78.452 C 393.677 78.452,393.806 78.323,393.806 77.806 C 393.806 77.290,393.935 77.161,394.452 77.161 C 394.963 77.161,395.097 77.031,395.097 76.533 C 395.097 76.040,395.249 75.888,395.806 75.824 C 396.364 75.759,396.534 75.590,396.598 75.032 C 396.662 74.475,396.814 74.323,397.307 74.323 C 397.801 74.323,397.935 74.188,397.935 73.695 C 397.935 73.241,398.096 73.045,398.516 72.986 C 399.022 72.914,399.107 72.729,399.175 71.548 C 399.231 70.574,399.358 70.194,399.626 70.194 C 399.941 70.194,400.000 69.332,400.000 64.774 C 400.000 60.129,399.945 59.355,399.613 59.355 C 399.304 59.355,399.226 58.970,399.226 57.437 C 399.226 55.656,399.185 55.514,398.656 55.437 C 398.295 55.385,398.030 55.118,397.935 54.710 C 397.842 54.309,397.575 54.034,397.231 53.984 C 396.890 53.935,396.646 53.686,396.597 53.339 C 396.540 52.940,396.308 52.750,395.806 52.693 C 395.262 52.630,395.097 52.473,395.097 52.018 C 395.097 51.410,394.038 51.097,391.982 51.097 C 391.432 51.097,391.242 50.960,391.179 50.516 C 391.108 50.011,390.922 49.925,389.758 49.858 C 388.604 49.791,388.408 49.702,388.339 49.213 C 388.262 48.676,388.115 48.641,385.639 48.572 C 383.096 48.501,383.015 48.480,382.860 47.862 L 382.700 47.226 378.877 47.226 C 376.774 47.226,374.976 47.303,374.882 47.398 M386.508 137.956 C 386.161 138.419,386.141 138.535,386.423 138.427 C 386.630 138.348,386.869 138.101,386.954 137.879 C 387.195 137.250,387.012 137.282,386.508 137.956 " stroke="none" fill="#fc643c" fill-rule="evenodd"></path><path id="path2" d="M340.645 1.444 C 340.645 2.016,340.545 2.065,339.360 2.065 C 338.212 2.065,338.057 2.132,337.916 2.695 C 337.820 3.079,337.540 3.356,337.202 3.405 C 336.811 3.460,336.621 3.696,336.564 4.194 C 336.499 4.751,336.347 4.903,335.854 4.903 C 335.356 4.903,335.226 5.037,335.226 5.548 C 335.226 6.179,334.590 6.390,333.225 6.213 C 333.048 6.190,332.768 6.466,332.603 6.827 C 332.439 7.188,332.198 7.484,332.069 7.484 C 331.624 7.484,331.099 8.220,331.254 8.626 C 331.412 9.038,331.158 9.140,330.222 9.040 C 329.876 9.003,329.779 9.105,329.888 9.390 C 330.091 9.919,329.390 10.603,328.854 10.397 C 328.523 10.270,328.464 10.355,328.580 10.795 C 328.660 11.103,328.621 11.355,328.492 11.355 C 328.363 11.355,328.272 11.442,328.289 11.548 C 328.419 12.373,328.192 12.864,327.613 13.009 C 327.142 13.127,326.968 13.344,326.968 13.811 C 326.968 14.322,326.837 14.452,326.323 14.452 C 325.778 14.452,325.677 14.572,325.677 15.223 C 325.677 15.857,325.580 15.983,325.128 15.932 C 324.583 15.872,324.441 16.138,324.338 17.419 C 324.278 18.150,323.892 18.581,323.296 18.581 C 322.973 18.581,322.833 18.709,322.916 18.927 C 323.100 19.405,322.754 19.891,322.168 19.977 C 321.647 20.054,321.631 20.099,321.581 21.633 C 321.553 22.483,321.467 22.619,320.968 22.601 C 320.447 22.583,320.379 22.719,320.310 23.919 C 320.243 25.073,320.154 25.269,319.664 25.339 C 319.352 25.383,318.985 25.674,318.848 25.986 C 318.711 26.297,318.333 26.695,318.008 26.869 C 317.683 27.043,317.431 27.310,317.449 27.464 C 317.605 28.835,317.400 29.419,316.763 29.419 C 316.387 29.419,316.124 29.557,316.148 29.742 C 316.336 31.186,316.107 32.286,315.649 32.141 C 315.085 31.961,314.556 32.500,314.618 33.191 C 314.724 34.362,314.572 34.839,314.092 34.839 C 313.502 34.839,313.290 35.322,313.290 36.666 C 313.290 37.573,313.224 37.677,312.645 37.677 C 312.045 37.677,312.000 37.765,312.000 38.940 C 312.000 40.071,311.933 40.219,311.355 40.364 C 310.775 40.510,310.710 40.655,310.710 41.811 C 310.710 43.068,310.692 43.097,309.935 43.097 C 309.510 43.097,309.175 43.184,309.192 43.290 C 309.293 43.932,309.123 44.652,308.901 44.515 C 308.466 44.246,308.004 44.975,307.932 46.047 C 307.855 47.200,307.832 47.239,307.191 47.333 C 306.837 47.385,306.699 47.681,306.627 48.540 C 306.536 49.620,306.190 50.173,305.767 49.911 C 305.468 49.727,305.103 50.616,305.083 51.575 C 305.063 52.575,305.067 52.568,304.387 52.685 C 303.974 52.756,303.845 53.031,303.742 54.065 C 303.634 55.140,303.527 55.355,303.097 55.355 C 302.656 55.355,302.569 55.553,302.503 56.710 C 302.426 58.033,302.248 58.245,301.341 58.090 C 301.226 58.071,301.168 58.609,301.211 59.286 C 301.277 60.315,301.380 60.529,301.842 60.595 C 302.214 60.648,302.441 60.915,302.541 61.417 C 302.705 62.237,306.404 62.542,306.484 61.742 C 306.502 61.565,306.531 61.245,306.548 61.032 C 306.571 60.760,306.878 60.645,307.581 60.645 C 308.515 60.645,309.486 60.026,309.161 59.638 C 309.090 59.553,309.352 59.447,309.742 59.402 C 310.293 59.339,310.452 59.184,310.452 58.710 C 310.452 58.235,310.610 58.081,311.161 58.017 C 311.651 57.961,311.895 57.768,311.948 57.396 C 312.008 56.977,312.298 56.803,313.238 56.622 C 313.906 56.493,314.466 56.242,314.484 56.065 C 314.502 55.887,314.531 55.634,314.548 55.501 C 314.566 55.369,314.900 55.223,315.290 55.178 C 315.681 55.134,316.015 54.952,316.032 54.774 C 316.050 54.597,316.079 54.344,316.097 54.211 C 316.115 54.079,316.390 53.934,316.710 53.889 C 317.074 53.837,317.320 53.599,317.369 53.251 C 317.432 52.812,317.702 52.650,318.660 52.475 C 319.636 52.298,319.887 52.143,319.953 51.676 C 320.017 51.226,320.205 51.097,320.792 51.097 C 321.421 51.097,321.548 50.991,321.548 50.470 C 321.548 50.016,321.709 49.820,322.129 49.760 C 322.502 49.707,322.739 49.470,322.792 49.097 C 322.871 48.544,323.450 48.350,324.581 48.497 C 324.758 48.520,324.903 48.411,324.903 48.254 C 324.903 48.098,325.037 48.052,325.201 48.154 C 325.365 48.255,325.431 48.227,325.347 48.092 C 325.106 47.701,325.543 47.204,326.170 47.157 C 326.577 47.126,326.787 46.903,326.889 46.395 C 326.997 45.852,327.181 45.677,327.645 45.677 C 328.127 45.677,328.258 45.539,328.258 45.032 C 328.258 44.542,328.397 44.382,328.839 44.366 C 330.159 44.317,330.689 44.191,330.784 43.906 C 330.954 43.396,331.641 42.825,331.895 42.982 C 332.027 43.064,332.206 42.775,332.293 42.340 C 332.417 41.723,332.587 41.548,333.065 41.548 C 333.546 41.548,333.677 41.410,333.677 40.903 C 333.677 40.325,333.782 40.258,334.691 40.258 C 335.627 40.258,336.516 39.760,336.516 39.235 C 336.516 39.119,336.806 38.951,337.161 38.862 C 337.568 38.760,337.806 38.518,337.806 38.206 C 337.806 37.859,338.017 37.687,338.516 37.630 C 339.074 37.566,339.243 37.396,339.307 36.839 C 339.372 36.281,339.524 36.129,340.017 36.129 C 340.515 36.129,340.645 35.995,340.645 35.484 C 340.645 34.976,340.783 34.832,341.290 34.806 C 341.902 34.776,342.202 34.726,342.645 34.582 C 342.752 34.548,342.926 34.533,343.032 34.550 C 343.139 34.567,343.226 34.294,343.226 33.944 C 343.226 33.545,343.347 33.349,343.548 33.420 C 344.041 33.594,344.861 32.857,344.686 32.399 C 344.573 32.106,344.700 32.000,345.164 32.000 C 345.617 32.000,345.841 31.824,345.953 31.377 C 346.046 31.006,346.361 30.691,346.732 30.598 C 347.128 30.499,347.355 30.256,347.355 29.931 C 347.355 29.610,347.528 29.419,347.819 29.419 C 348.414 29.419,348.903 28.930,348.903 28.335 C 348.903 28.043,349.094 27.871,349.419 27.871 C 349.703 27.871,349.922 27.784,349.905 27.677 C 349.888 27.571,349.903 27.397,349.937 27.290 C 350.081 26.847,350.131 26.547,350.161 25.935 C 350.187 25.428,350.331 25.290,350.839 25.290 C 351.350 25.290,351.484 25.160,351.484 24.663 C 351.484 24.209,351.644 24.013,352.065 23.953 C 352.480 23.894,352.668 23.669,352.727 23.161 C 352.803 22.495,353.009 22.342,353.711 22.425 C 354.036 22.464,354.314 21.640,354.319 20.622 C 354.321 20.162,354.523 19.862,354.968 19.660 C 355.567 19.387,355.613 19.236,355.613 17.554 C 355.613 15.793,355.631 15.742,356.258 15.742 L 356.903 15.742 356.903 12.511 C 356.903 9.314,356.896 9.276,356.258 8.985 C 355.699 8.731,355.613 8.524,355.613 7.442 C 355.613 6.282,355.567 6.194,354.968 6.194 C 354.452 6.194,354.323 6.065,354.323 5.548 C 354.323 5.007,354.201 4.903,353.566 4.903 C 352.931 4.903,352.795 4.788,352.727 4.194 C 352.668 3.685,352.480 3.460,352.065 3.401 C 351.648 3.342,351.484 3.145,351.484 2.705 C 351.484 2.147,351.362 2.084,350.129 2.013 C 349.384 1.971,348.793 1.819,348.817 1.677 C 348.946 0.891,348.277 0.754,344.476 0.788 L 340.645 0.823 340.645 1.444 M245.677 2.267 C 245.677 2.440,245.790 2.581,245.927 2.581 C 246.065 2.581,246.106 2.784,246.018 3.032 C 245.888 3.402,245.923 3.425,246.209 3.159 C 246.502 2.888,246.487 2.763,246.118 2.394 C 245.842 2.119,245.677 2.071,245.677 2.267 M216.318 14.710 C 216.318 15.206,216.371 15.410,216.436 15.161 C 216.501 14.913,216.501 14.506,216.436 14.258 C 216.371 14.010,216.318 14.213,216.318 14.710 M205.576 28.537 C 205.361 29.098,205.375 29.161,205.720 29.161 C 205.886 29.161,205.945 29.085,205.852 28.991 C 205.758 28.898,205.811 28.666,205.969 28.475 C 206.150 28.258,206.159 28.129,205.995 28.129 C 205.851 28.129,205.662 28.313,205.576 28.537 M219.427 34.505 C 219.796 34.874,219.920 34.889,220.192 34.596 C 220.457 34.310,220.434 34.275,220.065 34.406 C 219.816 34.493,219.613 34.452,219.613 34.314 C 219.613 34.177,219.472 34.065,219.300 34.065 C 219.103 34.065,219.151 34.229,219.427 34.505 M182.645 47.714 C 182.120 48.246,182.070 48.516,182.495 48.516 C 182.660 48.516,182.723 48.444,182.635 48.355 C 182.546 48.266,182.730 47.980,183.043 47.718 C 183.357 47.457,183.497 47.246,183.355 47.250 C 183.213 47.253,182.894 47.463,182.645 47.714 M233.104 67.279 C 233.473 67.648,233.597 67.663,233.869 67.370 C 234.135 67.084,234.112 67.050,233.742 67.180 C 233.494 67.267,233.290 67.226,233.290 67.089 C 233.290 66.951,233.149 66.839,232.977 66.839 C 232.781 66.839,232.828 67.004,233.104 67.279 M224.621 69.201 C 224.504 69.390,224.550 69.429,224.746 69.308 C 224.916 69.203,225.224 69.257,225.431 69.429 C 225.652 69.613,225.806 69.633,225.806 69.479 C 225.806 69.334,225.623 69.146,225.398 69.060 C 224.856 68.852,224.834 68.856,224.621 69.201 M144.387 78.649 C 144.245 78.753,144.089 79.071,144.040 79.355 C 143.938 79.947,144.060 79.859,144.490 79.032 C 144.813 78.413,144.796 78.349,144.387 78.649 M304.000 134.753 C 304.000 134.918,304.076 134.977,304.170 134.884 C 304.263 134.791,304.495 134.843,304.686 135.002 C 304.904 135.182,305.032 135.192,305.032 135.027 C 305.032 134.883,304.849 134.694,304.624 134.608 C 304.063 134.393,304.000 134.407,304.000 134.753 M311.520 151.226 C 311.520 151.439,311.620 151.845,311.742 152.129 C 311.882 152.454,311.964 152.502,311.964 152.258 C 311.964 152.045,311.864 151.639,311.742 151.355 C 311.602 151.030,311.520 150.982,311.520 151.226 M226.933 213.031 C 226.851 213.243,226.681 213.352,226.554 213.274 C 226.427 213.195,226.323 213.254,226.323 213.404 C 226.323 213.861,226.803 213.710,227.097 213.161 C 227.249 212.877,227.307 212.645,227.227 212.645 C 227.146 212.645,227.014 212.819,226.933 213.031 " stroke="none" fill="#ac5cdc" fill-rule="evenodd"></path><path id="path3" d="M316.301 110.108 C 316.206 110.202,316.129 110.492,316.129 110.753 C 316.129 111.043,315.942 111.226,315.645 111.226 C 314.879 111.226,314.640 111.761,314.709 113.326 C 314.792 115.205,314.905 115.355,316.255 115.355 C 317.229 115.355,317.395 115.434,317.466 115.935 C 317.519 116.309,317.756 116.546,318.130 116.599 C 318.742 116.686,319.337 117.481,319.023 117.794 C 318.922 117.895,318.955 117.945,319.097 117.904 C 319.898 117.671,321.479 118.224,321.758 118.835 C 322.012 119.394,322.221 119.484,323.263 119.484 C 323.929 119.484,324.400 119.557,324.310 119.647 C 323.845 120.112,324.709 120.774,325.783 120.774 C 326.821 120.774,326.915 120.831,327.058 121.548 C 327.180 122.157,327.349 122.323,327.847 122.323 C 328.255 122.323,328.540 122.507,328.645 122.839 C 328.735 123.123,328.917 123.369,329.050 123.387 C 329.182 123.405,329.406 123.448,329.548 123.484 C 329.690 123.519,330.100 123.563,330.460 123.581 C 330.825 123.599,331.186 123.812,331.280 124.065 C 331.514 124.701,331.875 124.895,332.834 124.899 C 333.506 124.902,333.699 125.028,333.830 125.548 C 333.948 126.020,334.164 126.194,334.633 126.194 C 335.043 126.194,335.320 126.368,335.401 126.678 C 335.547 127.237,336.512 127.742,337.431 127.742 C 337.780 127.742,338.051 127.829,338.034 127.935 C 337.939 128.539,338.106 129.049,338.387 129.013 C 339.790 128.831,340.595 129.057,340.751 129.677 C 340.893 130.243,341.053 130.323,342.044 130.323 C 343.069 130.323,343.201 130.395,343.445 131.097 C 343.652 131.690,343.872 131.871,344.389 131.871 C 344.760 131.871,344.997 131.978,344.916 132.108 C 344.650 132.538,345.569 133.161,346.470 133.161 C 346.957 133.161,347.355 133.269,347.355 133.401 C 347.355 133.953,348.224 134.452,349.186 134.452 C 350.037 134.452,350.247 134.559,350.452 135.097 C 350.663 135.654,350.857 135.742,351.865 135.742 C 353.003 135.742,353.207 135.928,353.063 136.839 C 353.046 136.945,353.206 137.047,353.419 137.065 C 353.632 137.082,353.923 137.126,354.065 137.161 C 354.206 137.197,354.678 137.240,355.112 137.258 C 355.546 137.276,355.847 137.379,355.780 137.487 C 355.590 137.794,356.209 138.462,356.710 138.490 C 356.958 138.505,357.740 138.531,358.447 138.548 C 359.590 138.577,359.750 138.652,359.894 139.226 C 360.048 139.841,360.144 139.871,361.963 139.871 C 363.445 139.871,363.871 139.953,363.871 140.240 C 363.871 141.130,364.627 141.419,366.958 141.419 C 369.158 141.419,369.240 141.440,369.393 142.051 L 369.552 142.683 375.550 142.632 L 381.548 142.581 381.631 142.000 C 381.698 141.530,381.878 141.419,382.577 141.419 C 383.835 141.419,384.258 141.185,384.258 140.489 C 384.258 140.002,384.395 139.871,384.903 139.871 C 385.445 139.871,385.548 139.750,385.548 139.112 C 385.548 138.475,385.638 138.369,386.099 138.458 C 386.403 138.517,386.581 138.495,386.496 138.410 C 386.410 138.324,386.511 138.012,386.719 137.715 C 386.935 137.407,387.097 136.592,387.097 135.814 C 387.097 134.649,387.168 134.452,387.585 134.452 C 388.298 134.452,388.410 133.910,388.369 130.664 C 388.332 127.765,388.327 127.742,387.714 127.742 C 387.145 127.742,387.097 127.641,387.097 126.445 C 387.097 125.211,387.060 125.141,386.323 124.994 C 385.723 124.874,385.548 124.700,385.548 124.226 C 385.548 123.744,385.410 123.613,384.903 123.613 C 384.387 123.613,384.258 123.484,384.258 122.968 C 384.258 122.452,384.129 122.323,383.613 122.323 C 383.226 122.323,382.955 122.168,382.935 121.935 C 382.838 120.767,382.988 120.864,381.179 120.806 C 380.336 120.780,380.151 120.676,380.082 120.194 C 380.011 119.687,379.826 119.603,378.638 119.535 C 377.822 119.488,377.340 119.354,377.435 119.201 C 377.817 118.582,376.954 118.194,375.194 118.194 C 374.205 118.194,373.405 118.079,373.387 117.935 C 373.235 116.718,373.314 116.744,369.598 116.678 C 368.360 116.657,367.769 116.552,367.878 116.376 C 368.350 115.613,367.432 115.355,364.244 115.355 C 361.147 115.355,361.066 115.340,360.986 114.774 C 360.904 114.199,360.856 114.193,356.211 114.123 C 351.579 114.054,351.517 114.046,351.437 113.478 C 351.355 112.907,351.317 112.903,346.000 112.833 C 340.515 112.762,340.542 112.767,340.667 111.835 C 340.733 111.345,339.406 111.233,333.484 111.230 C 327.264 111.226,326.968 111.204,326.968 110.737 C 326.968 110.469,326.784 110.178,326.560 110.092 C 326.002 109.878,316.516 109.893,316.301 110.108 " stroke="none" fill="#04bc8c" fill-rule="evenodd"></path><path id="path4" d="" stroke="none" fill="#0c9cec" fill-rule="evenodd"></path></g></svg>