<svg id="svg" version="1.1" xmlns="http://www.w3.org/2000/svg" xmlns:xlink="http://www.w3.org/1999/xlink" width="400" height="400" viewBox="0, 0, 400,400"><g id="svgg"><path id="path0" d="M238.551 103.452 C 238.400 104.053,238.562 105.384,238.928 106.552 C 240.574 111.813,240.052 125.493,237.995 131.000 C 234.761 139.657,231.967 144.124,226.234 149.806 C 223.092 152.920,218.199 156.599,215.056 158.209 C 214.207 158.644,213.423 159.225,213.313 159.500 C 213.204 159.775,212.894 160.000,212.624 160.000 C 212.354 160.000,212.133 160.253,212.133 160.562 C 212.133 160.871,212.350 161.041,212.615 160.939 C 212.880 160.837,213.377 161.034,213.720 161.377 C 214.063 161.720,214.536 162.000,214.771 162.000 C 215.007 162.000,215.155 162.217,215.100 162.482 C 215.045 162.747,215.270 162.980,215.600 163.000 C 215.930 163.020,216.155 163.253,216.100 163.518 C 216.045 163.783,216.135 163.979,216.300 163.953 C 217.269 163.800,218.000 164.078,218.000 164.600 C 218.000 164.930,218.135 165.163,218.300 165.118 C 218.792 164.983,221.200 166.388,221.200 166.810 C 221.200 167.025,221.560 167.200,222.000 167.200 C 222.440 167.200,222.800 167.380,222.800 167.600 C 222.800 167.820,223.162 168.000,223.603 168.000 C 224.045 168.000,224.962 168.495,225.641 169.100 C 226.320 169.705,227.084 170.200,227.338 170.200 C 227.592 170.200,227.800 170.393,227.800 170.629 C 227.800 171.165,229.075 172.469,229.448 172.314 C 229.599 172.251,229.774 172.542,229.835 172.960 C 229.897 173.378,230.127 173.831,230.347 173.967 C 230.681 174.173,231.007 175.351,231.167 176.924 C 231.185 177.102,231.380 177.136,231.600 177.000 C 232.390 176.511,232.095 183.642,231.301 184.223 C 230.643 184.704,230.655 184.808,231.514 185.969 C 232.229 186.936,232.337 187.371,232.013 187.975 C 231.786 188.400,231.600 189.199,231.600 189.750 C 231.600 190.302,231.420 190.864,231.200 191.000 C 230.980 191.136,230.800 191.536,230.800 191.888 C 230.800 192.649,225.586 203.340,225.121 203.533 C 224.945 203.607,224.800 203.861,224.800 204.098 C 224.800 204.613,222.348 208.542,221.907 208.733 C 221.738 208.807,221.600 209.021,221.600 209.210 C 221.600 209.699,218.363 214.800,218.053 214.800 C 217.911 214.800,217.575 215.295,217.306 215.900 C 217.036 216.505,216.390 217.457,215.869 218.017 C 215.348 218.576,214.850 219.226,214.761 219.461 C 213.852 221.874,203.457 233.539,199.006 237.140 C 194.848 240.504,193.440 241.321,188.481 243.244 C 184.614 244.743,178.492 242.864,173.979 238.793 C 172.780 237.712,171.693 236.821,171.562 236.814 C 171.431 236.806,170.811 236.359,170.183 235.819 L 169.042 234.839 167.969 239.256 C 167.379 241.685,166.717 244.061,166.497 244.536 C 166.278 245.011,165.420 246.981,164.592 248.912 C 158.773 262.481,147.271 273.187,132.000 279.250 C 129.910 280.079,128.397 280.768,128.638 280.779 C 128.879 280.791,129.599 281.250,130.238 281.800 C 130.877 282.349,131.522 282.799,131.671 282.800 C 131.821 282.800,132.181 283.025,132.471 283.301 C 133.957 284.708,142.515 289.200,143.710 289.200 C 144.016 289.200,144.395 289.329,144.553 289.486 C 145.310 290.243,150.672 291.425,157.870 292.422 C 164.358 293.320,173.067 292.557,181.200 290.376 C 183.255 289.825,182.962 289.930,189.000 287.595 C 190.270 287.104,194.541 285.146,195.200 284.753 C 195.530 284.556,196.070 284.274,196.400 284.126 C 196.730 283.978,198.393 282.989,200.096 281.928 C 201.798 280.868,203.373 280.000,203.596 280.000 C 203.818 280.000,204.000 279.820,204.000 279.600 C 204.000 279.380,204.270 279.200,204.600 279.200 C 204.930 279.200,205.200 279.050,205.200 278.866 C 205.200 278.683,206.219 277.831,207.465 276.973 C 208.710 276.115,209.925 275.228,210.165 275.001 C 210.404 274.774,211.410 273.964,212.400 273.200 C 213.390 272.437,216.779 269.290,219.931 266.206 C 223.083 263.123,225.963 260.435,226.331 260.234 C 226.699 260.033,227.090 259.748,227.200 259.601 C 227.529 259.161,233.308 256.487,234.602 256.177 C 235.261 256.019,235.980 255.756,236.200 255.592 C 236.420 255.429,237.230 255.194,238.000 255.071 C 238.770 254.948,240.570 254.554,242.000 254.196 C 243.430 253.838,245.230 253.391,246.000 253.204 C 259.044 250.031,261.097 245.893,254.337 236.400 C 253.161 234.750,251.954 232.860,251.653 232.200 C 251.353 231.540,250.948 230.687,250.753 230.305 C 250.249 229.315,250.317 226.632,250.878 225.319 C 251.574 223.692,254.515 219.200,254.885 219.200 C 255.058 219.200,255.200 219.003,255.200 218.762 C 255.200 218.521,255.536 217.846,255.948 217.262 C 257.516 215.035,261.471 207.959,264.462 202.029 C 267.034 196.930,267.780 195.772,268.761 195.359 C 269.748 194.944,269.942 194.640,269.911 193.551 C 269.891 192.831,270.082 192.173,270.337 192.088 C 270.592 192.003,270.800 191.428,270.800 190.809 C 270.800 190.153,271.063 189.584,271.433 189.443 C 271.782 189.309,271.985 188.975,271.885 188.700 C 271.786 188.425,271.951 187.593,272.252 186.851 C 272.553 186.109,272.800 184.999,272.800 184.384 C 272.800 183.770,273.003 183.199,273.252 183.116 C 273.500 183.033,273.791 182.073,273.897 180.983 C 274.003 179.892,274.250 178.940,274.445 178.867 C 274.640 178.793,274.800 177.688,274.800 176.409 C 274.800 174.802,274.970 174.020,275.352 173.874 C 276.185 173.554,276.227 150.851,275.397 149.755 C 275.083 149.340,274.820 148.133,274.813 147.074 C 274.806 146.014,274.638 144.844,274.440 144.474 C 274.241 144.103,273.983 143.188,273.865 142.439 C 273.747 141.691,273.469 140.966,273.247 140.829 C 273.025 140.692,272.798 139.819,272.743 138.890 C 272.688 137.960,272.502 137.200,272.329 137.200 C 272.157 137.200,271.902 136.750,271.764 136.200 C 271.626 135.650,271.353 135.200,271.157 135.200 C 270.960 135.200,270.800 134.763,270.800 134.229 C 270.800 133.694,270.575 133.015,270.300 132.719 C 270.025 132.423,269.741 131.917,269.668 131.594 C 269.595 131.272,269.414 130.916,269.264 130.804 C 269.115 130.692,268.634 129.880,268.196 129.000 C 267.758 128.120,267.265 127.340,267.100 127.267 C 266.935 127.193,266.800 126.783,266.800 126.354 C 266.800 125.926,266.553 125.480,266.250 125.364 C 265.948 125.248,265.367 124.534,264.959 123.777 C 264.552 123.019,264.068 122.400,263.885 122.400 C 263.702 122.400,263.650 122.243,263.769 122.050 C 263.888 121.858,263.538 121.365,262.992 120.955 C 262.447 120.546,262.000 119.983,262.000 119.705 C 262.000 119.427,261.816 119.200,261.590 119.200 C 261.365 119.200,260.123 118.120,258.832 116.800 C 257.540 115.480,256.290 114.400,256.054 114.400 C 255.818 114.400,255.729 114.130,255.855 113.800 C 255.982 113.470,255.878 113.200,255.625 113.200 C 255.372 113.200,254.680 112.750,254.087 112.200 C 253.493 111.650,252.781 111.200,252.504 111.200 C 252.227 111.200,252.000 111.020,252.000 110.800 C 252.000 110.580,251.749 110.400,251.443 110.400 C 251.136 110.400,250.782 110.130,250.655 109.800 C 250.529 109.470,250.087 109.200,249.675 109.200 C 249.262 109.200,248.591 108.832,248.183 108.381 C 247.776 107.931,246.848 107.281,246.121 106.936 C 245.394 106.591,244.800 106.098,244.800 105.840 C 244.800 105.581,244.398 105.340,243.906 105.303 C 243.414 105.266,242.949 105.048,242.873 104.818 C 242.796 104.588,242.478 104.400,242.167 104.400 C 241.855 104.400,241.600 104.233,241.600 104.029 C 241.600 103.729,239.435 102.400,238.946 102.400 C 238.874 102.400,238.696 102.874,238.551 103.452 M281.165 229.235 C 279.821 230.579,280.880 233.200,282.767 233.200 C 284.882 233.200,285.902 230.702,284.400 229.200 C 283.371 228.171,282.217 228.183,281.165 229.235 M268.617 234.677 C 262.624 236.312,264.042 245.200,270.295 245.200 C 276.775 245.200,277.576 235.401,271.157 234.665 C 270.191 234.554,269.048 234.559,268.617 234.677 M118.000 272.525 C 118.000 272.594,118.585 273.179,119.300 273.825 L 120.600 275.000 119.425 273.700 C 118.330 272.488,118.000 272.216,118.000 272.525 " stroke="none" fill="#9b5cc3" fill-rule="evenodd"></path><path id="path1" d="M227.345 101.800 C 227.218 102.130,226.729 102.406,226.257 102.413 C 225.261 102.427,224.000 103.283,224.000 103.944 C 224.000 104.195,223.807 104.400,223.571 104.400 C 223.018 104.400,222.000 105.418,222.000 105.971 C 222.000 106.207,221.807 106.400,221.571 106.400 C 221.018 106.400,220.000 107.418,220.000 107.971 C 220.000 108.207,219.823 108.400,219.608 108.400 C 219.392 108.400,219.102 108.850,218.964 109.400 C 218.826 109.950,218.581 110.400,218.420 110.400 C 218.258 110.400,217.787 111.030,217.372 111.800 C 216.957 112.570,216.479 113.200,216.309 113.200 C 216.139 113.200,216.000 113.631,216.000 114.157 C 216.000 114.684,215.730 115.218,215.400 115.345 C 215.070 115.471,214.800 115.941,214.800 116.387 C 214.800 116.834,214.620 117.200,214.400 117.200 C 214.180 117.200,214.000 117.631,214.000 118.157 C 214.000 118.684,213.730 119.218,213.400 119.345 C 213.070 119.471,212.800 119.941,212.800 120.387 C 212.800 120.834,212.620 121.200,212.400 121.200 C 212.180 121.200,212.000 121.631,212.000 122.157 C 212.000 122.684,211.730 123.218,211.400 123.345 C 211.070 123.471,210.800 123.941,210.800 124.387 C 210.800 124.834,210.620 125.200,210.400 125.200 C 210.180 125.200,210.000 125.650,210.000 126.200 C 210.000 126.750,209.855 127.200,209.677 127.200 C 209.499 127.200,209.039 127.965,208.653 128.900 C 208.268 129.835,207.806 130.876,207.627 131.213 C 207.448 131.550,207.175 132.405,207.019 133.113 C 206.864 133.821,206.571 134.400,206.368 134.400 C 206.166 134.400,206.000 135.174,206.000 136.120 C 206.000 137.066,205.775 138.066,205.500 138.341 C 205.141 138.701,205.000 140.666,205.000 145.288 C 205.000 150.089,205.128 151.776,205.500 151.900 C 205.775 151.992,206.000 152.482,206.000 152.991 C 206.000 153.499,206.270 154.018,206.600 154.145 C 206.930 154.271,207.200 154.677,207.200 155.047 C 207.200 155.417,207.830 156.331,208.600 157.079 C 209.370 157.827,210.000 158.610,210.000 158.819 C 210.000 159.029,210.270 159.200,210.600 159.200 C 210.930 159.200,211.200 159.380,211.200 159.600 C 211.200 160.181,213.078 160.092,213.313 159.500 C 213.423 159.225,214.207 158.644,215.056 158.209 C 218.199 156.599,223.092 152.920,226.234 149.806 C 231.967 144.124,234.761 139.657,237.995 131.000 C 240.042 125.520,240.584 111.677,238.948 106.672 C 238.601 105.612,238.405 104.285,238.513 103.723 C 238.918 101.603,237.958 101.200,232.499 101.200 C 228.491 101.200,227.532 101.312,227.345 101.800 M150.600 228.648 C 149.200 228.858,148.629 229.077,145.400 230.635 C 141.347 232.591,136.472 236.511,132.000 241.410 C 123.083 251.179,121.106 253.523,119.184 256.600 C 113.811 265.205,115.153 271.212,123.791 277.216 C 124.885 277.977,126.132 278.913,126.561 279.295 C 128.230 280.784,130.660 280.244,137.388 276.891 C 151.483 269.866,159.828 260.530,166.609 244.200 C 168.121 240.558,169.008 235.141,168.189 234.552 C 167.755 234.240,167.083 233.718,166.695 233.392 C 166.308 233.067,165.923 232.800,165.841 232.800 C 165.759 232.800,164.636 232.118,163.346 231.285 C 159.700 228.930,155.081 227.975,150.600 228.648 " stroke="none" fill="#5c5196" fill-rule="evenodd"></path><path id="path2" d="M158.000 115.806 C 158.000 116.133,157.685 116.406,157.300 116.413 C 156.462 116.428,155.200 117.323,155.200 117.901 C 155.200 118.129,154.961 118.406,154.668 118.518 C 153.963 118.789,154.085 124.262,154.811 124.932 C 155.205 125.297,155.247 125.276,154.997 124.838 C 154.787 124.470,154.830 124.371,155.121 124.551 C 155.365 124.702,155.464 125.090,155.340 125.413 C 155.177 125.838,155.406 126.000,156.170 126.000 C 156.750 126.000,157.325 126.259,157.446 126.576 C 157.733 127.324,168.825 127.403,168.685 126.656 C 168.636 126.393,169.275 126.145,170.195 126.070 C 171.072 125.999,171.978 125.784,172.207 125.594 C 172.437 125.403,173.554 125.205,174.689 125.153 C 175.895 125.098,176.721 124.881,176.677 124.630 C 176.634 124.393,177.369 124.144,178.309 124.077 C 179.249 124.009,179.914 123.784,179.786 123.577 C 179.658 123.369,179.909 123.200,180.344 123.200 C 181.496 123.200,182.429 122.771,182.174 122.358 C 182.052 122.161,182.863 122.000,183.976 122.000 C 185.089 122.000,186.000 121.820,186.000 121.600 C 186.000 121.380,186.437 121.200,186.971 121.200 C 188.860 121.200,189.907 118.786,188.162 118.455 C 187.743 118.376,187.256 118.061,187.080 117.755 C 186.849 117.355,185.873 117.200,183.580 117.200 C 181.831 117.200,180.400 117.039,180.400 116.843 C 180.400 116.646,178.825 116.450,176.900 116.406 C 174.975 116.363,173.175 116.313,172.900 116.297 C 172.625 116.280,172.400 116.046,172.400 115.776 C 172.400 115.407,170.602 115.276,165.200 115.248 C 159.081 115.217,158.000 115.301,158.000 115.806 M148.145 150.600 C 147.967 151.063,147.197 151.200,144.781 151.200 C 143.057 151.200,141.536 151.380,141.400 151.600 C 141.264 151.820,140.263 152.000,139.176 152.000 C 137.686 152.000,137.200 152.148,137.200 152.600 C 137.200 153.017,136.780 153.200,135.824 153.200 C 135.067 153.200,134.336 153.380,134.200 153.600 C 134.064 153.820,133.333 154.000,132.576 154.000 C 131.620 154.000,131.200 154.183,131.200 154.600 C 131.200 154.973,130.822 155.200,130.200 155.200 C 129.650 155.200,129.200 155.380,129.200 155.600 C 129.200 155.820,128.570 156.000,127.800 156.000 C 126.822 156.000,126.400 156.181,126.400 156.600 C 126.400 156.973,126.022 157.200,125.400 157.200 C 124.850 157.200,124.400 157.380,124.400 157.600 C 124.400 157.820,123.950 158.000,123.400 158.000 C 122.778 158.000,122.400 158.227,122.400 158.600 C 122.400 158.930,122.130 159.200,121.800 159.200 C 121.470 159.200,121.200 159.380,121.200 159.600 C 121.200 159.820,120.750 160.000,120.200 160.000 C 119.578 160.000,119.200 160.227,119.200 160.600 C 119.200 160.977,118.820 161.200,118.176 161.200 C 117.596 161.200,117.260 161.373,117.400 161.600 C 117.536 161.820,117.367 162.000,117.024 162.000 C 116.681 162.000,116.400 162.270,116.400 162.600 C 116.400 162.930,116.130 163.200,115.800 163.200 C 115.470 163.200,115.200 163.380,115.200 163.600 C 115.200 163.820,114.921 164.000,114.581 164.000 C 114.240 164.000,113.545 164.450,113.035 165.000 C 112.525 165.550,111.904 166.000,111.654 166.000 C 111.404 166.000,111.200 166.180,111.200 166.400 C 111.200 166.620,110.480 167.520,109.600 168.400 C 108.720 169.280,107.820 170.000,107.600 170.000 C 107.380 170.000,107.200 170.193,107.200 170.429 C 107.200 170.982,106.182 172.000,105.629 172.000 C 105.393 172.000,105.200 172.178,105.200 172.395 C 105.200 173.010,103.896 174.383,103.529 174.156 C 103.348 174.044,103.200 174.413,103.200 174.976 C 103.200 175.539,103.020 176.000,102.800 176.000 C 102.580 176.000,102.400 176.270,102.400 176.600 C 102.400 176.930,102.207 177.200,101.971 177.200 C 101.266 177.200,100.400 178.286,100.400 179.171 C 100.400 179.641,100.140 180.000,99.800 180.000 C 99.470 180.000,99.200 180.270,99.200 180.600 C 99.200 180.930,99.020 181.200,98.800 181.200 C 98.580 181.200,98.400 181.650,98.400 182.200 C 98.400 182.822,98.173 183.200,97.800 183.200 C 97.427 183.200,97.200 183.578,97.200 184.200 C 97.200 184.750,97.020 185.200,96.800 185.200 C 96.580 185.200,96.400 185.650,96.400 186.200 C 96.400 186.822,96.173 187.200,95.800 187.200 C 95.381 187.200,95.200 187.622,95.200 188.600 C 95.200 189.370,95.020 190.000,94.800 190.000 C 94.580 190.000,94.400 190.456,94.400 191.013 C 94.400 191.569,94.130 192.129,93.800 192.255 C 93.393 192.412,93.200 193.050,93.200 194.243 C 93.200 195.209,93.020 196.000,92.800 196.000 C 92.580 196.000,92.400 196.881,92.400 197.957 C 92.400 199.292,92.217 199.985,91.824 200.135 C 90.931 200.478,90.896 222.000,91.789 222.000 C 92.269 222.000,92.400 222.514,92.400 224.400 C 92.400 225.733,92.578 226.800,92.800 226.800 C 93.020 226.800,93.200 227.520,93.200 228.400 C 93.200 229.556,93.367 230.000,93.800 230.000 C 94.130 230.000,94.400 230.180,94.400 230.400 C 94.400 230.635,92.996 230.800,90.987 230.800 C 88.323 230.800,87.524 230.932,87.345 231.400 C 87.176 231.839,86.484 232.000,84.757 232.000 C 83.452 232.000,82.400 232.179,82.400 232.400 C 82.400 232.620,81.680 232.800,80.800 232.800 C 79.644 232.800,79.200 232.967,79.200 233.400 C 79.200 233.819,78.778 234.000,77.800 234.000 C 77.030 234.000,76.400 234.180,76.400 234.400 C 76.400 234.620,75.764 234.800,74.987 234.800 C 74.101 234.800,73.489 235.023,73.345 235.400 C 73.218 235.730,72.684 236.000,72.157 236.000 C 71.631 236.000,71.200 236.180,71.200 236.400 C 71.200 236.620,70.834 236.800,70.387 236.800 C 69.941 236.800,69.471 237.070,69.345 237.400 C 69.218 237.730,68.819 238.006,68.457 238.013 C 67.628 238.029,66.400 238.943,66.400 239.544 C 66.400 239.795,66.166 240.000,65.880 240.000 C 64.961 240.000,63.206 240.984,63.203 241.500 C 63.201 241.775,62.885 242.006,62.500 242.013 C 61.635 242.028,60.400 242.929,60.400 243.544 C 60.400 243.795,60.207 244.000,59.971 244.000 C 59.418 244.000,58.400 245.018,58.400 245.571 C 58.400 245.807,58.207 246.000,57.971 246.000 C 57.418 246.000,56.400 247.018,56.400 247.571 C 56.400 247.807,56.207 248.000,55.971 248.000 C 55.418 248.000,54.400 249.018,54.400 249.571 C 54.400 249.807,54.195 250.000,53.944 250.000 C 53.390 250.000,52.430 251.203,52.413 251.919 C 52.406 252.205,51.950 252.855,51.400 253.365 C 50.850 253.875,50.400 254.676,50.400 255.146 C 50.400 255.616,50.195 256.000,49.944 256.000 C 49.387 256.000,48.430 257.205,48.413 257.929 C 48.406 258.219,48.128 258.729,47.796 259.061 C 47.464 259.393,47.296 259.831,47.422 260.035 C 47.548 260.239,47.369 260.514,47.025 260.646 C 46.611 260.805,46.400 261.396,46.400 262.400 C 46.400 263.377,46.187 263.996,45.800 264.145 C 45.470 264.271,45.200 264.741,45.200 265.187 C 45.200 265.634,45.020 266.000,44.800 266.000 C 44.580 266.000,44.400 266.885,44.400 267.967 C 44.400 269.094,44.204 269.999,43.940 270.087 C 43.686 270.171,43.394 271.266,43.290 272.520 C 43.186 273.774,42.943 274.800,42.750 274.800 C 42.558 274.800,42.400 277.680,42.400 281.200 C 42.400 284.720,42.560 287.600,42.755 287.600 C 42.950 287.600,43.183 288.893,43.272 290.472 C 43.371 292.232,43.621 293.407,43.917 293.506 C 44.185 293.595,44.400 294.365,44.400 295.233 C 44.400 296.268,44.580 296.800,44.931 296.800 C 45.292 296.800,45.406 297.181,45.286 297.995 C 45.162 298.841,45.299 299.263,45.755 299.438 C 46.137 299.585,46.400 300.145,46.400 300.810 C 46.400 302.111,47.444 304.256,48.600 305.332 C 49.040 305.741,49.347 306.331,49.281 306.643 C 49.216 306.955,49.441 307.318,49.781 307.448 C 50.122 307.579,50.400 308.038,50.400 308.470 C 50.400 308.901,51.005 309.827,51.744 310.527 C 52.484 311.227,53.216 312.205,53.371 312.700 C 53.527 313.195,53.822 313.600,54.027 313.600 C 54.232 313.600,54.400 313.793,54.400 314.029 C 54.400 314.582,55.418 315.600,55.971 315.600 C 56.207 315.600,56.400 315.793,56.400 316.029 C 56.400 316.582,57.418 317.600,57.971 317.600 C 58.207 317.600,58.400 317.870,58.400 318.200 C 58.400 318.530,58.604 318.800,58.854 318.800 C 59.104 318.800,59.699 319.205,60.176 319.700 C 60.653 320.195,61.303 320.658,61.621 320.730 C 61.940 320.801,62.260 321.026,62.333 321.230 C 62.407 321.433,62.732 321.600,63.057 321.600 C 63.382 321.600,63.556 321.748,63.444 321.929 C 63.145 322.412,64.681 323.600,65.605 323.600 C 66.045 323.600,66.400 323.868,66.400 324.200 C 66.400 324.557,66.767 324.800,67.305 324.800 C 67.804 324.800,68.547 325.249,68.961 325.800 C 69.374 326.350,70.036 326.800,70.432 326.800 C 70.829 326.800,71.264 326.980,71.400 327.200 C 71.536 327.420,72.267 327.600,73.024 327.600 C 73.980 327.600,74.400 327.783,74.400 328.200 C 74.400 328.573,74.778 328.800,75.400 328.800 C 75.950 328.800,76.400 328.980,76.400 329.200 C 76.400 329.420,77.036 329.600,77.813 329.600 C 78.699 329.600,79.311 329.823,79.455 330.200 C 79.617 330.622,80.275 330.800,81.666 330.800 C 82.885 330.800,83.552 330.954,83.400 331.200 C 83.245 331.451,84.129 331.600,85.776 331.600 C 87.842 331.600,88.400 331.728,88.400 332.200 C 88.400 333.114,306.305 333.114,306.655 332.200 C 306.824 331.761,307.516 331.600,309.243 331.600 C 310.548 331.600,311.600 331.421,311.600 331.200 C 311.600 330.980,312.500 330.800,313.600 330.800 C 315.111 330.800,315.600 330.653,315.600 330.200 C 315.600 329.767,316.044 329.600,317.200 329.600 C 318.080 329.600,318.800 329.420,318.800 329.200 C 318.800 328.980,319.430 328.800,320.200 328.800 C 321.178 328.800,321.600 328.619,321.600 328.200 C 321.600 327.827,321.978 327.600,322.600 327.600 C 323.150 327.600,323.600 327.420,323.600 327.200 C 323.600 326.980,324.050 326.800,324.600 326.800 C 325.222 326.800,325.600 326.573,325.600 326.200 C 325.600 325.827,325.978 325.600,326.600 325.600 C 327.150 325.600,327.600 325.420,327.600 325.200 C 327.600 324.980,328.050 324.800,328.600 324.800 C 329.222 324.800,329.600 324.573,329.600 324.200 C 329.600 323.834,329.973 323.600,330.557 323.600 C 331.084 323.600,331.622 323.319,331.754 322.975 C 331.886 322.631,332.176 322.461,332.397 322.598 C 332.619 322.735,332.800 322.567,332.800 322.224 C 332.800 321.881,333.115 321.594,333.500 321.587 C 334.365 321.572,335.600 320.671,335.600 320.056 C 335.600 319.805,335.793 319.600,336.029 319.600 C 336.264 319.600,336.714 319.343,337.029 319.029 C 337.343 318.714,337.600 318.264,337.600 318.029 C 337.600 317.793,337.946 317.600,338.369 317.600 C 339.105 317.600,341.600 315.466,341.600 314.837 C 341.600 314.671,342.050 314.294,342.600 314.000 C 343.228 313.664,343.600 313.118,343.600 312.532 C 343.600 312.020,343.793 311.600,344.029 311.600 C 344.264 311.600,344.714 311.343,345.029 311.029 C 345.343 310.714,345.600 310.264,345.600 310.029 C 345.600 309.793,345.881 309.600,346.224 309.600 C 346.567 309.600,346.735 309.419,346.598 309.197 C 346.461 308.976,346.631 308.686,346.975 308.554 C 347.319 308.422,347.600 307.974,347.600 307.557 C 347.600 307.141,347.870 306.800,348.200 306.800 C 348.530 306.800,348.800 306.530,348.800 306.200 C 348.800 305.870,348.980 305.600,349.200 305.600 C 349.420 305.600,349.600 305.150,349.600 304.600 C 349.600 304.050,349.832 303.600,350.115 303.600 C 350.398 303.600,350.660 303.198,350.697 302.706 C 350.734 302.214,350.952 301.749,351.182 301.673 C 351.412 301.596,351.600 301.098,351.600 300.567 C 351.600 299.974,351.832 299.600,352.200 299.600 C 352.573 299.600,352.800 299.222,352.800 298.600 C 352.800 298.050,352.980 297.600,353.200 297.600 C 353.420 297.600,353.600 297.227,353.600 296.771 C 353.600 296.316,353.870 295.673,354.200 295.343 C 354.530 295.013,354.800 294.306,354.800 293.771 C 354.800 293.237,354.980 292.800,355.200 292.800 C 355.420 292.800,355.600 291.915,355.600 290.833 C 355.600 289.618,355.791 288.803,356.099 288.700 C 356.430 288.590,356.645 287.372,356.740 285.067 C 356.818 283.160,357.044 281.600,357.241 281.600 C 357.438 281.600,357.600 279.440,357.600 276.800 C 357.600 273.867,357.444 272.000,357.200 272.000 C 356.965 272.000,356.800 270.596,356.800 268.587 C 356.800 265.923,356.668 265.124,356.200 264.945 C 355.794 264.789,355.600 264.153,355.600 262.981 C 355.600 262.027,355.420 261.136,355.200 261.000 C 354.980 260.864,354.800 260.218,354.800 259.564 C 354.800 258.876,354.547 258.278,354.200 258.145 C 353.870 258.018,353.600 257.484,353.600 256.957 C 353.600 256.431,353.443 256.000,353.251 256.000 C 353.059 256.000,352.787 255.280,352.646 254.400 C 352.506 253.520,352.249 252.800,352.076 252.800 C 351.902 252.800,351.533 252.170,351.254 251.400 C 350.976 250.630,350.490 250.000,350.174 250.000 C 349.828 250.000,349.600 249.602,349.600 249.000 C 349.600 248.450,349.440 248.000,349.243 248.000 C 349.047 248.000,348.774 247.550,348.636 247.000 C 348.498 246.450,348.208 246.000,347.992 246.000 C 347.777 246.000,347.600 245.807,347.600 245.571 C 347.600 245.018,346.582 244.000,346.029 244.000 C 345.793 244.000,345.600 243.671,345.600 243.270 C 345.600 242.230,337.452 234.000,336.422 234.000 C 335.970 234.000,335.600 233.807,335.600 233.571 C 335.600 233.038,334.590 232.000,334.071 232.000 C 333.859 232.000,333.578 231.719,333.446 231.375 C 333.314 231.031,333.039 230.852,332.835 230.978 C 332.631 231.104,332.193 230.936,331.861 230.604 C 331.529 230.272,330.884 230.000,330.429 230.000 C 329.973 230.000,329.600 229.752,329.600 229.449 C 329.600 229.145,329.015 228.660,328.300 228.371 C 327.585 228.082,326.910 227.731,326.800 227.591 C 326.523 227.240,323.960 226.000,323.510 226.000 C 323.308 226.000,322.873 225.730,322.543 225.400 C 322.213 225.070,321.416 224.800,320.771 224.800 C 320.127 224.800,319.600 224.620,319.600 224.400 C 319.600 224.180,318.989 224.000,318.243 224.000 C 317.496 224.000,316.796 223.766,316.686 223.481 C 316.575 223.190,315.721 222.917,314.744 222.859 C 313.785 222.803,312.829 222.587,312.620 222.379 C 312.411 222.170,311.543 222.000,310.691 222.000 C 309.840 222.000,308.883 221.740,308.566 221.423 C 307.764 220.621,286.188 220.494,285.868 221.290 C 285.755 221.570,285.649 221.046,285.632 220.124 C 285.614 219.202,285.420 218.336,285.200 218.200 C 284.980 218.064,284.800 217.353,284.800 216.619 C 284.800 215.803,284.567 215.196,284.200 215.055 C 283.870 214.929,283.600 214.470,283.600 214.036 C 283.600 213.602,283.420 213.136,283.200 213.000 C 282.980 212.864,282.800 212.398,282.800 211.964 C 282.800 211.530,282.530 211.071,282.200 210.945 C 281.870 210.818,281.600 210.408,281.600 210.033 C 281.600 209.658,281.222 208.946,280.761 208.450 C 280.299 207.955,279.889 207.326,279.849 207.052 C 279.809 206.779,279.378 206.129,278.893 205.607 C 278.407 205.086,277.905 204.331,277.778 203.929 C 277.650 203.528,277.378 203.200,277.173 203.200 C 276.968 203.200,276.800 203.007,276.800 202.771 C 276.800 202.218,275.782 201.200,275.229 201.200 C 274.993 201.200,274.800 201.007,274.800 200.771 C 274.800 200.218,273.782 199.200,273.229 199.200 C 272.993 199.200,272.800 198.930,272.800 198.600 C 272.800 198.270,272.607 198.000,272.371 198.000 C 271.818 198.000,270.800 196.982,270.800 196.429 C 270.800 195.946,268.840 195.855,268.151 196.306 C 267.904 196.468,267.304 197.500,266.817 198.600 C 265.943 200.573,263.987 204.488,262.119 208.000 C 261.128 209.864,261.057 209.985,258.900 213.498 C 258.185 214.663,257.600 215.703,257.600 215.811 C 257.600 215.918,256.620 217.429,255.422 219.168 C 249.802 227.327,249.771 229.006,255.099 236.517 C 258.274 240.994,258.600 241.743,258.600 244.577 C 258.600 249.547,255.175 251.746,243.000 254.593 C 230.957 257.408,228.692 258.626,220.087 266.913 C 216.481 270.385,212.512 273.984,211.266 274.911 C 210.020 275.837,208.910 276.708,208.800 276.845 C 208.238 277.547,201.727 281.859,198.585 283.611 C 194.216 286.048,188.464 288.695,185.400 289.681 C 170.764 294.387,157.521 294.606,145.000 290.350 C 141.941 289.310,133.915 285.353,132.847 284.358 C 132.400 283.941,131.889 283.600,131.713 283.600 C 131.536 283.600,130.907 283.150,130.313 282.600 C 129.720 282.050,129.128 281.600,128.998 281.600 C 128.765 281.600,123.992 278.405,123.600 277.987 C 123.490 277.870,122.500 277.121,121.400 276.323 C 116.155 272.519,114.087 266.562,116.151 261.200 C 117.314 258.178,117.788 257.200,118.088 257.200 C 118.259 257.200,118.400 257.006,118.400 256.769 C 118.400 254.927,133.709 237.844,138.686 234.134 C 139.519 233.513,140.290 232.892,140.400 232.754 C 140.821 232.227,146.039 229.200,146.527 229.200 C 146.809 229.200,147.211 229.039,147.420 228.843 C 147.991 228.306,151.770 227.600,154.073 227.600 C 156.639 227.600,159.091 228.227,162.284 229.700 C 163.639 230.325,171.872 236.194,173.666 237.814 C 181.346 244.748,187.603 244.809,196.800 238.039 C 200.327 235.442,205.852 229.934,209.463 225.412 C 210.873 223.645,212.280 221.897,212.587 221.526 C 212.895 221.156,213.474 220.346,213.873 219.727 C 214.273 219.107,214.938 218.206,215.351 217.724 C 215.764 217.243,216.304 216.494,216.551 216.061 C 216.798 215.627,218.196 213.501,219.657 211.336 C 222.349 207.347,225.675 201.755,226.873 199.200 C 229.968 192.604,230.493 191.300,231.202 188.451 C 231.723 186.358,231.396 186.000,228.957 186.000 C 227.306 186.000,226.800 186.141,226.800 186.600 C 226.800 187.053,226.311 187.200,224.800 187.200 C 223.700 187.200,222.800 187.380,222.800 187.600 C 222.800 187.820,222.009 188.000,221.043 188.000 C 219.850 188.000,219.212 188.193,219.055 188.600 C 218.929 188.930,218.639 189.200,218.413 189.200 C 218.186 189.200,218.000 188.930,218.000 188.600 C 218.000 188.270,217.730 188.000,217.400 188.000 C 216.981 188.000,216.800 187.578,216.800 186.600 C 216.800 185.830,216.620 185.200,216.400 185.200 C 216.180 185.200,216.000 184.750,216.000 184.200 C 216.000 183.578,215.773 183.200,215.400 183.200 C 215.070 183.200,214.800 182.930,214.800 182.600 C 214.800 182.270,214.620 182.000,214.400 182.000 C 214.180 182.000,214.000 181.550,214.000 181.000 C 214.000 180.378,213.773 180.000,213.400 180.000 C 213.060 180.000,212.800 179.641,212.800 179.171 C 212.800 178.286,211.934 177.200,211.229 177.200 C 210.993 177.200,210.800 176.930,210.800 176.600 C 210.800 176.270,210.640 176.000,210.443 176.000 C 210.247 176.000,209.972 175.543,209.832 174.984 C 209.691 174.425,209.402 174.075,209.188 174.207 C 208.975 174.339,208.800 174.167,208.800 173.824 C 208.800 173.481,208.620 173.200,208.400 173.200 C 208.180 173.200,208.000 172.930,208.000 172.600 C 208.000 172.270,207.807 172.000,207.571 172.000 C 207.018 172.000,206.000 170.982,206.000 170.429 C 206.000 170.193,205.807 170.000,205.571 170.000 C 205.018 170.000,204.000 168.982,204.000 168.429 C 204.000 168.193,203.807 168.000,203.571 168.000 C 203.018 168.000,202.000 166.982,202.000 166.429 C 202.000 166.193,201.796 166.000,201.546 166.000 C 201.296 166.000,200.675 165.550,200.165 165.000 C 199.655 164.450,199.002 164.000,198.714 164.000 C 198.426 164.000,197.852 163.550,197.439 163.000 C 197.026 162.450,196.398 161.994,196.044 161.987 C 195.226 161.971,194.000 161.053,194.000 160.456 C 194.000 160.205,193.550 160.000,193.000 160.000 C 192.450 160.000,192.000 159.820,192.000 159.600 C 192.000 159.380,191.730 159.200,191.400 159.200 C 191.070 159.200,190.800 158.930,190.800 158.600 C 190.800 158.227,190.422 158.000,189.800 158.000 C 189.250 158.000,188.800 157.820,188.800 157.600 C 188.800 157.380,188.350 157.200,187.800 157.200 C 187.178 157.200,186.800 156.973,186.800 156.600 C 186.800 156.181,186.378 156.000,185.400 156.000 C 184.630 156.000,184.000 155.820,184.000 155.600 C 184.000 155.380,183.550 155.200,183.000 155.200 C 182.378 155.200,182.000 154.973,182.000 154.600 C 182.000 154.181,181.578 154.000,180.600 154.000 C 179.830 154.000,179.200 153.820,179.200 153.600 C 179.200 153.380,178.499 153.200,177.643 153.200 C 176.628 153.200,176.005 152.991,175.855 152.600 C 175.698 152.189,175.055 152.000,173.813 152.000 C 172.816 152.000,172.000 151.820,172.000 151.600 C 172.000 151.366,170.657 151.200,168.771 151.200 C 166.435 151.200,165.377 151.034,164.943 150.600 C 164.450 150.107,162.922 150.000,156.359 150.000 C 149.631 150.000,148.339 150.094,148.145 150.600 M284.546 228.429 C 285.795 229.411,285.997 231.698,284.938 232.869 C 283.961 233.948,281.424 233.855,280.623 232.711 C 279.224 230.714,280.551 227.600,282.800 227.600 C 283.181 227.600,283.966 227.973,284.546 228.429 M271.881 234.080 C 279.458 237.334,277.020 246.216,268.700 245.672 C 268.013 245.627,266.999 244.999,266.000 244.000 C 261.707 239.707,266.431 231.740,271.881 234.080 " stroke="none" fill="#e3f3fb" fill-rule="evenodd"></path><path id="path3" d="M162.000 84.800 C 162.000 85.020,161.230 85.200,160.289 85.200 C 158.426 85.200,157.200 86.154,157.200 87.605 C 157.200 88.045,156.932 88.400,156.600 88.400 C 156.114 88.400,156.000 89.044,156.000 91.800 C 156.000 94.556,156.114 95.200,156.600 95.200 C 156.973 95.200,157.200 95.578,157.200 96.200 C 157.200 96.750,157.380 97.200,157.600 97.200 C 157.820 97.200,158.000 97.650,158.000 98.200 C 158.000 98.822,158.227 99.200,158.600 99.200 C 158.930 99.200,159.200 99.393,159.200 99.629 C 159.200 100.321,160.279 101.200,161.129 101.200 C 161.561 101.200,162.018 101.470,162.145 101.800 C 162.271 102.130,162.730 102.400,163.164 102.400 C 163.598 102.400,164.064 102.580,164.200 102.800 C 164.336 103.020,165.047 103.200,165.781 103.200 C 166.597 103.200,167.204 103.433,167.345 103.800 C 167.478 104.147,168.076 104.400,168.764 104.400 C 169.418 104.400,170.064 104.580,170.200 104.800 C 170.336 105.020,171.227 105.200,172.181 105.200 C 173.353 105.200,173.989 105.394,174.145 105.800 C 174.302 106.211,174.945 106.400,176.187 106.400 C 177.184 106.400,178.000 106.580,178.000 106.800 C 178.000 107.026,179.133 107.200,180.600 107.200 C 182.644 107.200,183.200 107.328,183.200 107.800 C 183.200 108.426,186.034 108.669,187.367 108.157 C 188.631 107.672,188.181 104.865,186.600 103.374 C 185.830 102.648,185.200 101.862,185.200 101.627 C 185.200 101.392,184.930 101.200,184.600 101.200 C 184.260 101.200,184.000 100.841,184.000 100.371 C 184.000 99.486,183.134 98.400,182.429 98.400 C 182.193 98.400,182.000 98.207,182.000 97.971 C 182.000 97.418,180.982 96.400,180.429 96.400 C 180.193 96.400,180.000 96.130,180.000 95.800 C 180.000 95.470,179.820 95.200,179.600 95.200 C 179.380 95.200,179.200 94.932,179.200 94.605 C 179.200 94.278,178.300 93.106,177.200 92.000 C 176.100 90.894,175.200 89.812,175.200 89.595 C 175.200 89.378,175.007 89.200,174.771 89.200 C 174.218 89.200,173.200 88.182,173.200 87.629 C 173.200 87.393,172.973 87.200,172.695 87.200 C 172.417 87.200,171.852 86.750,171.439 86.200 C 170.839 85.401,170.337 85.200,168.944 85.200 C 167.985 85.200,167.200 85.020,167.200 84.800 C 167.200 84.574,166.067 84.400,164.600 84.400 C 163.133 84.400,162.000 84.574,162.000 84.800 " stroke="none" fill="#fc6c44" fill-rule="evenodd"></path><path id="path4" d="M186.300 67.467 C 185.915 67.573,185.600 67.825,185.600 68.029 C 185.600 68.233,185.283 68.400,184.896 68.400 C 182.468 68.400,180.706 74.649,182.600 76.543 C 182.930 76.873,183.200 77.411,183.200 77.739 C 183.200 78.475,184.489 80.794,184.900 80.797 C 185.065 80.799,185.200 81.160,185.200 81.600 C 185.200 82.040,185.380 82.400,185.600 82.400 C 185.820 82.400,186.003 82.625,186.006 82.900 C 186.010 83.175,186.550 84.009,187.206 84.754 C 187.863 85.499,188.400 86.233,188.400 86.385 C 188.400 86.537,189.210 87.544,190.200 88.622 C 191.190 89.700,192.000 90.817,192.000 91.104 C 192.000 91.391,192.270 91.729,192.600 91.855 C 192.930 91.982,193.200 92.260,193.200 92.474 C 193.200 92.688,193.920 93.576,194.800 94.447 C 195.680 95.318,196.400 96.185,196.400 96.373 C 196.400 97.492,198.793 99.200,200.360 99.200 C 202.161 99.200,202.852 96.805,201.400 95.600 C 201.034 95.296,200.800 94.420,200.800 93.351 C 200.800 92.388,200.620 91.600,200.400 91.600 C 200.180 91.600,200.000 90.981,200.000 90.224 C 200.000 89.467,199.820 88.736,199.600 88.600 C 199.380 88.464,199.200 87.656,199.200 86.805 C 199.200 85.954,198.930 84.987,198.600 84.657 C 198.270 84.327,198.000 83.412,198.000 82.623 C 198.000 81.834,197.850 80.877,197.668 80.495 C 197.485 80.113,197.035 79.200,196.668 78.468 C 196.300 77.735,196.000 76.809,196.000 76.410 C 196.000 76.012,195.711 75.575,195.358 75.439 C 195.006 75.304,194.815 74.938,194.935 74.626 C 195.054 74.314,194.893 73.843,194.576 73.580 C 194.259 73.317,194.000 72.846,194.000 72.534 C 194.000 71.864,189.742 67.603,189.065 67.595 C 188.809 67.592,188.240 67.519,187.800 67.432 C 187.360 67.346,186.685 67.362,186.300 67.467 M154.093 121.200 C 154.093 121.970,154.175 122.285,154.276 121.900 C 154.376 121.515,154.376 120.885,154.276 120.500 C 154.175 120.115,154.093 120.430,154.093 121.200 M182.179 122.366 C 182.303 122.567,182.179 122.823,181.902 122.934 C 181.599 123.056,181.678 123.149,182.100 123.168 C 182.485 123.186,182.800 122.930,182.800 122.600 C 182.800 122.270,182.609 122.000,182.376 122.000 C 182.143 122.000,182.055 122.165,182.179 122.366 M231.321 187.317 C 231.264 189.323,230.306 191.883,226.873 199.200 C 225.675 201.755,222.349 207.347,219.657 211.336 C 218.196 213.501,216.798 215.627,216.551 216.061 C 216.304 216.494,215.764 217.243,215.351 217.724 C 214.938 218.206,214.273 219.107,213.873 219.727 C 213.474 220.346,212.895 221.156,212.587 221.526 C 212.280 221.897,210.873 223.645,209.463 225.412 C 195.077 243.425,184.094 247.230,173.666 237.814 C 171.826 236.153,163.630 230.323,162.184 229.646 C 157.231 227.331,149.477 226.909,147.420 228.843 C 147.211 229.039,146.809 229.200,146.527 229.200 C 146.039 229.200,140.821 232.227,140.400 232.754 C 140.290 232.892,139.519 233.513,138.686 234.134 C 133.709 237.844,118.400 254.927,118.400 256.769 C 118.400 257.006,118.259 257.200,118.088 257.200 C 117.788 257.200,117.314 258.178,116.151 261.200 C 114.087 266.562,116.155 272.519,121.400 276.323 C 122.500 277.121,123.490 277.870,123.600 277.987 C 123.992 278.405,128.765 281.600,128.998 281.600 C 129.128 281.600,129.720 282.050,130.313 282.600 C 130.907 283.150,131.536 283.600,131.713 283.600 C 131.889 283.600,132.400 283.941,132.847 284.358 C 133.915 285.353,141.941 289.310,145.000 290.350 C 157.521 294.606,170.764 294.387,185.400 289.681 C 188.464 288.695,194.216 286.048,198.585 283.611 C 201.727 281.859,208.238 277.547,208.800 276.845 C 208.910 276.708,210.020 275.837,211.266 274.911 C 212.512 273.984,216.481 270.385,220.087 266.913 C 228.692 258.626,230.957 257.408,243.000 254.593 C 259.613 250.709,262.309 246.681,255.099 236.517 C 249.771 229.006,249.802 227.327,255.422 219.168 C 256.620 217.429,257.600 215.918,257.600 215.811 C 257.600 215.703,258.185 214.663,258.900 213.498 C 261.057 209.985,261.128 209.864,262.119 208.000 C 263.964 204.530,265.939 200.582,266.819 198.605 C 267.307 197.508,267.997 196.389,268.353 196.118 C 268.948 195.665,268.947 195.624,268.344 195.613 C 267.893 195.604,266.770 197.447,264.757 201.500 C 261.776 207.503,261.414 208.158,257.452 214.741 C 256.213 216.798,255.200 218.643,255.200 218.841 C 255.200 219.038,255.058 219.200,254.885 219.200 C 254.515 219.200,251.574 223.692,250.878 225.319 C 250.317 226.632,250.249 229.315,250.753 230.305 C 250.948 230.687,251.353 231.540,251.653 232.200 C 251.954 232.860,253.161 234.750,254.337 236.400 C 261.097 245.893,259.044 250.031,246.000 253.204 C 245.230 253.391,243.430 253.838,242.000 254.196 C 240.570 254.554,238.770 254.948,238.000 255.071 C 237.230 255.194,236.420 255.429,236.200 255.592 C 235.980 255.756,235.261 256.019,234.602 256.177 C 233.308 256.487,227.529 259.161,227.200 259.601 C 227.090 259.748,226.699 260.033,226.331 260.234 C 225.963 260.435,223.083 263.123,219.931 266.206 C 216.779 269.290,213.390 272.437,212.400 273.200 C 211.410 273.964,210.404 274.774,210.165 275.001 C 209.925 275.228,208.710 276.115,207.465 276.973 C 206.219 277.831,205.200 278.683,205.200 278.866 C 205.200 279.050,204.930 279.200,204.600 279.200 C 204.270 279.200,204.000 279.380,204.000 279.600 C 204.000 279.820,203.818 280.000,203.596 280.000 C 203.270 280.000,198.978 282.496,196.000 284.418 C 195.670 284.631,195.130 284.910,194.800 285.038 C 194.470 285.166,193.210 285.724,192.000 286.278 C 190.790 286.832,189.440 287.425,189.000 287.595 C 182.962 289.930,183.255 289.825,181.200 290.376 C 173.067 292.557,164.358 293.320,157.870 292.422 C 150.672 291.425,145.310 290.243,144.553 289.486 C 144.395 289.329,144.016 289.200,143.710 289.200 C 142.671 289.200,133.768 284.625,132.800 283.595 C 132.690 283.477,132.065 283.040,131.410 282.623 C 130.756 282.206,130.036 281.712,129.810 281.527 C 129.585 281.342,128.320 280.477,127.000 279.606 C 117.260 273.176,114.122 268.080,116.356 262.319 C 117.891 258.361,119.507 255.209,120.417 254.400 C 120.541 254.290,121.173 253.480,121.821 252.600 C 123.204 250.724,122.676 251.325,128.180 245.353 C 142.191 230.150,149.913 226.068,159.086 229.015 C 161.820 229.893,168.327 233.958,170.729 236.287 C 171.019 236.569,171.379 236.806,171.529 236.814 C 171.678 236.821,172.780 237.712,173.979 238.793 C 178.492 242.864,184.614 244.743,188.481 243.244 C 197.442 239.769,202.229 235.575,213.400 221.410 C 214.060 220.574,214.673 219.696,214.761 219.461 C 214.850 219.226,215.348 218.576,215.869 218.017 C 216.390 217.457,217.036 216.505,217.306 215.900 C 217.575 215.295,217.911 214.800,218.053 214.800 C 218.363 214.800,221.600 209.699,221.600 209.210 C 221.600 209.021,221.738 208.807,221.907 208.733 C 222.348 208.542,224.800 204.613,224.800 204.098 C 224.800 203.861,224.945 203.607,225.121 203.533 C 225.586 203.340,230.800 192.649,230.800 191.888 C 230.800 191.536,230.980 191.136,231.200 191.000 C 231.420 190.864,231.600 190.302,231.600 189.750 C 231.600 189.199,231.798 188.378,232.039 187.927 C 232.375 187.299,232.347 186.975,231.919 186.547 C 231.439 186.068,231.354 186.178,231.321 187.317 M281.054 228.429 C 279.826 229.395,279.634 231.300,280.623 232.711 C 281.424 233.855,283.961 233.948,284.938 232.869 C 286.508 231.134,285.074 227.600,282.800 227.600 C 282.419 227.600,281.634 227.973,281.054 228.429 M284.400 229.200 C 285.902 230.702,284.882 233.200,282.767 233.200 C 280.880 233.200,279.821 230.579,281.165 229.235 C 282.217 228.183,283.371 228.171,284.400 229.200 M267.708 234.386 C 263.982 236.077,263.091 241.091,266.000 244.000 C 269.708 247.708,276.400 245.005,276.400 239.800 C 276.400 235.563,271.642 232.600,267.708 234.386 M274.128 236.000 C 276.152 237.893,275.999 241.973,273.833 243.846 C 269.236 247.820,262.696 242.740,265.409 237.301 C 266.931 234.251,271.523 233.566,274.128 236.000 " stroke="none" fill="#ac9cc4" fill-rule="evenodd"></path></g></svg>