<svg xmlns="http://www.w3.org/2000/svg" width="71" height="71" viewBox="0 0 71 71">
  <g id="Group_7813" data-name="Group 7813" transform="translate(-0.156)">
    <circle id="Ellipse_422" data-name="Ellipse 422" cx="35.5" cy="35.5" r="35.5" transform="translate(0.156)" fill="#e6f5fd"/>
    <g id="complex-icons-master_complex-icon-soundwave" transform="translate(35.5 34.594)">
      <g id="Group_7481" data-name="Group 7481" transform="translate(-18.147 -17.663)">
        <g id="surface1" transform="translate(8.968 14.377)">
          <path id="Path_16641" data-name="Path 16641" d="M47.437,44.3a.676.676,0,0,0-.534.69v13.53a.676.676,0,1,0,1.335,0V44.991a.667.667,0,0,0-.214-.509.674.674,0,0,0-.52-.181Zm-8.545.712a.678.678,0,0,0-.534.69V57.809a.677.677,0,1,0,1.335,0V45.7a.667.667,0,0,0-.214-.509.676.676,0,0,0-.52-.181ZM45.3,47.15a.677.677,0,0,0-.534.69v7.833a.677.677,0,1,0,1.335,0V47.84a.677.677,0,0,0-.734-.69Zm-8.545.712a.678.678,0,0,0-.534.69V54.96a.677.677,0,1,0,1.335,0V48.551a.678.678,0,0,0-.734-.69Zm4.272.712a.676.676,0,0,0-.534.689v4.985a.676.676,0,1,0,1.335,0V49.263a.666.666,0,0,0-.214-.509.675.675,0,0,0-.52-.18Zm8.545,0a.677.677,0,0,0-.534.689v4.985a.676.676,0,1,0,1.335,0V49.263a.666.666,0,0,0-.214-.509.675.675,0,0,0-.52-.18ZM34.619,50a.678.678,0,0,0-.534.69v2.137a.676.676,0,1,0,1.335,0V50.688a.666.666,0,0,0-.214-.509.678.678,0,0,0-.52-.181Zm8.546,0a.678.678,0,0,0-.534.69v2.137a.676.676,0,1,0,1.335,0V50.688a.666.666,0,0,0-.214-.509.677.677,0,0,0-.52-.181Zm8.545,0a.678.678,0,0,0-.534.69v2.137a.677.677,0,1,0,1.335,0V50.688a.669.669,0,0,0-.214-.509.677.677,0,0,0-.52-.181Z" transform="translate(-34.076 -44.299)" fill="#9a59c5"/>
        </g>
        <g id="Group_7480" data-name="Group 7480" transform="translate(0 1.951)">
          <path id="Path_16642" data-name="Path 16642" d="M23.36,59.016a1.317,1.317,0,0,0,1.4,1.4H52.674a1.317,1.317,0,0,0,1.4-1.4V39.474H23.36Z" transform="translate(-20.568 -29.829)" fill="none"/>
          <path id="Path_16643" data-name="Path 16643" d="M50.622,25.406a22.2,22.2,0,0,0-2.6.019c-1.7.068-1.278-1.293-2.281-2.26s-2.106-.077-2.94.567a5.907,5.907,0,0,1-3.587,1.674c-1.791-.01-16.512,0-16.512,0a4.114,4.114,0,0,0-4.188,4.187V51.928A4.115,4.115,0,0,0,22.7,56.116H50.622a4.115,4.115,0,0,0,4.188-4.188V29.594A4.114,4.114,0,0,0,50.622,25.406Zm-22,2.893a.95.95,0,1,1-.95.95A.95.95,0,0,1,28.62,28.3Zm-2.942,0a.95.95,0,1,1-.95.95A.95.95,0,0,1,25.678,28.3Zm-2.942,0a.95.95,0,1,1-.95.95A.95.95,0,0,1,22.735,28.3ZM52.018,51.928a1.317,1.317,0,0,1-1.4,1.4H22.7a1.317,1.317,0,0,1-1.4-1.4V32.386h30.71Z" transform="translate(-18.516 -22.741)" fill="#079cee"/>
        </g>
        <ellipse id="Ellipse_388" data-name="Ellipse 388" cx="0.879" cy="0.879" rx="0.879" ry="0.879" transform="translate(28.351)" fill="#079cee"/>
        <ellipse id="Ellipse_389" data-name="Ellipse 389" cx="0.474" cy="0.474" rx="0.474" ry="0.474" transform="translate(31.222 0.813)" fill="#079cee"/>
      </g>
    </g>
  </g>
</svg>
