<svg xmlns="http://www.w3.org/2000/svg" width="2386.302" height="783.551" viewBox="40 -100 2206.302 683.551">
  <g id="Group_7553" data-name="Group 7553" transform="translate(245.885 -266.522)">
    <g id="Group_7556" data-name="Group 7556" transform="translate(0.002 116.6)">
      <g id="Group_7782" data-name="Group 7782" transform="translate(-0.001 -66)">
        <path id="Path_17739" data-name="Path 17739" fill="var(--cloud-color)" d="M1.5,1646.315a86.018,86.018,0,0,1,25.43-46.705s29.536-29.873,75.461-22.253c39.652,6.58,67.632,40.641,70.258,78.956a180.692,180.692,0,0,1,233.151,102.9,102.426,102.426,0,0,1,114.964,56.453,112.281,112.281,0,0,1,163.953-21.341,81.351,81.351,0,0,1,106.467,11.408,173.779,173.779,0,0,1,294.34,16.141,86.474,86.474,0,0,1,120.4,46.669,138.272,138.272,0,0,1,123.438,23.7,156.626,156.626,0,0,1,298.44-28.947,102.4,102.4,0,0,1,135.744-31.26,168.91,168.91,0,0,1,209.035-64.833,94.477,94.477,0,0,1,124.873-64.8,147.271,147.271,0,1,1,237.269,71.374V2198.15H26.934V1724.962A86.34,86.34,0,0,1,1.5,1646.315" transform="translate(-245.886 -1298.677)"/>
      </g>
    </g>
  </g>
</svg>
