<svg id="svg" version="1.1" xmlns="http://www.w3.org/2000/svg" xmlns:xlink="http://www.w3.org/1999/xlink" width="400" height="400" viewBox="0, 0, 400,400"><g id="svgg"><path id="path0" d="M180.400 0.269 C 178.750 0.346,177.040 0.576,176.600 0.780 C 176.160 0.984,173.865 1.269,171.500 1.414 C 169.135 1.559,167.200 1.840,167.200 2.038 C 167.200 2.237,166.300 2.400,165.200 2.400 C 164.100 2.400,163.200 2.557,163.200 2.748 C 163.200 2.940,161.763 3.222,160.007 3.375 C 158.251 3.528,156.710 3.822,156.583 4.027 C 156.457 4.232,155.733 4.400,154.976 4.400 C 154.219 4.400,153.600 4.566,153.600 4.768 C 153.600 4.971,152.430 5.262,151.000 5.415 C 149.570 5.568,148.400 5.852,148.400 6.047 C 148.400 6.241,147.770 6.400,147.000 6.400 C 146.230 6.400,145.600 6.567,145.600 6.771 C 145.600 6.975,144.610 7.266,143.400 7.417 C 142.190 7.568,141.200 7.851,141.200 8.046 C 141.200 8.241,140.750 8.400,140.200 8.400 C 139.650 8.400,139.200 8.563,139.200 8.762 C 139.200 8.962,138.300 9.249,137.200 9.400 C 136.100 9.551,135.200 9.838,135.200 10.038 C 135.200 10.237,134.750 10.400,134.200 10.400 C 133.650 10.400,133.200 10.560,133.200 10.755 C 133.200 10.950,132.394 11.230,131.409 11.378 C 130.424 11.525,129.514 11.816,129.386 12.023 C 129.258 12.230,128.803 12.400,128.376 12.400 C 127.949 12.400,127.600 12.557,127.600 12.749 C 127.600 12.941,126.880 13.213,126.000 13.354 C 125.120 13.494,124.400 13.787,124.400 14.005 C 124.400 14.222,124.151 14.400,123.846 14.400 C 123.541 14.400,122.776 14.669,122.146 14.998 C 121.516 15.326,120.685 15.596,120.300 15.598 C 119.915 15.599,119.600 15.780,119.600 16.000 C 119.600 16.220,119.251 16.400,118.824 16.400 C 118.397 16.400,117.945 16.566,117.819 16.769 C 117.694 16.972,117.053 17.257,116.395 17.401 C 115.738 17.545,115.200 17.829,115.200 18.032 C 115.200 18.234,114.840 18.400,114.400 18.400 C 113.960 18.400,113.600 18.566,113.600 18.768 C 113.600 18.971,113.060 19.255,112.400 19.400 C 111.740 19.545,111.200 19.829,111.200 20.032 C 111.200 20.234,110.840 20.400,110.400 20.400 C 109.960 20.400,109.600 20.566,109.600 20.768 C 109.600 20.971,109.060 21.255,108.400 21.400 C 107.740 21.545,107.200 21.829,107.200 22.032 C 107.200 22.234,106.840 22.400,106.400 22.400 C 105.960 22.400,105.600 22.566,105.600 22.768 C 105.600 22.971,105.060 23.255,104.400 23.400 C 103.740 23.545,103.200 23.829,103.200 24.032 C 103.200 24.234,103.007 24.400,102.771 24.400 C 102.536 24.400,102.073 24.670,101.743 25.000 C 101.413 25.330,100.796 25.600,100.371 25.600 C 99.947 25.600,99.600 25.780,99.600 26.000 C 99.600 26.220,99.330 26.400,99.000 26.400 C 98.670 26.400,98.400 26.577,98.400 26.792 C 98.400 27.008,97.950 27.298,97.400 27.436 C 96.850 27.574,96.400 27.847,96.400 28.043 C 96.400 28.240,96.130 28.400,95.800 28.400 C 95.470 28.400,95.200 28.568,95.200 28.773 C 95.200 28.978,94.795 29.272,94.300 29.427 C 93.805 29.581,93.310 29.819,93.200 29.954 C 92.908 30.313,91.539 31.142,90.490 31.595 C 89.989 31.811,89.475 32.261,89.347 32.594 C 89.219 32.927,88.768 33.200,88.345 33.200 C 87.921 33.200,87.471 33.470,87.345 33.800 C 87.218 34.130,86.942 34.400,86.731 34.400 C 86.357 34.400,83.933 36.096,82.871 37.100 C 82.581 37.375,82.152 37.600,81.918 37.600 C 81.685 37.600,81.203 37.920,80.847 38.310 C 80.491 38.701,79.660 39.359,79.000 39.773 C 78.340 40.187,77.656 40.768,77.480 41.063 C 77.304 41.358,76.932 41.600,76.652 41.600 C 76.373 41.600,75.778 42.005,75.330 42.500 C 74.882 42.995,73.999 43.760,73.368 44.200 C 72.737 44.640,71.763 45.450,71.204 46.000 C 70.645 46.550,69.507 47.511,68.675 48.135 C 67.843 48.758,66.014 50.423,64.610 51.835 C 63.206 53.246,61.945 54.400,61.808 54.400 C 61.320 54.400,49.004 67.330,47.710 69.200 C 47.329 69.750,46.564 70.655,46.009 71.211 C 45.454 71.766,44.640 72.737,44.200 73.368 C 43.760 73.999,42.995 74.882,42.500 75.330 C 42.005 75.778,41.600 76.373,41.600 76.652 C 41.600 76.932,41.358 77.304,41.063 77.480 C 40.768 77.656,40.187 78.340,39.773 79.000 C 39.359 79.660,38.701 80.491,38.310 80.847 C 37.920 81.203,37.600 81.685,37.600 81.918 C 37.600 82.152,37.375 82.581,37.100 82.871 C 36.096 83.933,34.400 86.357,34.400 86.731 C 34.400 86.942,34.130 87.218,33.800 87.345 C 33.470 87.471,33.200 87.921,33.200 88.345 C 33.200 88.768,32.927 89.219,32.594 89.347 C 32.261 89.475,31.811 89.989,31.595 90.490 C 31.142 91.539,30.313 92.908,29.954 93.200 C 29.819 93.310,29.581 93.805,29.427 94.300 C 29.272 94.795,28.978 95.200,28.773 95.200 C 28.568 95.200,28.400 95.470,28.400 95.800 C 28.400 96.130,28.240 96.400,28.043 96.400 C 27.847 96.400,27.574 96.850,27.436 97.400 C 27.298 97.950,27.008 98.400,26.792 98.400 C 26.577 98.400,26.400 98.670,26.400 99.000 C 26.400 99.330,26.220 99.600,26.000 99.600 C 25.780 99.600,25.600 99.947,25.600 100.371 C 25.600 100.796,25.330 101.413,25.000 101.743 C 24.670 102.073,24.400 102.536,24.400 102.771 C 24.400 103.007,24.234 103.200,24.032 103.200 C 23.829 103.200,23.545 103.740,23.400 104.400 C 23.255 105.060,22.971 105.600,22.768 105.600 C 22.566 105.600,22.400 105.960,22.400 106.400 C 22.400 106.840,22.234 107.200,22.032 107.200 C 21.829 107.200,21.545 107.740,21.400 108.400 C 21.255 109.060,20.971 109.600,20.768 109.600 C 20.566 109.600,20.400 109.960,20.400 110.400 C 20.400 110.840,20.234 111.200,20.032 111.200 C 19.829 111.200,19.545 111.740,19.400 112.400 C 19.255 113.060,18.971 113.600,18.768 113.600 C 18.566 113.600,18.400 113.960,18.400 114.400 C 18.400 114.840,18.234 115.200,18.032 115.200 C 17.829 115.200,17.545 115.738,17.401 116.395 C 17.257 117.053,16.972 117.694,16.769 117.819 C 16.566 117.945,16.400 118.397,16.400 118.824 C 16.400 119.251,16.240 119.600,16.045 119.600 C 15.849 119.600,15.571 120.230,15.426 121.000 C 15.282 121.770,14.992 122.400,14.782 122.400 C 14.572 122.400,14.400 122.850,14.400 123.400 C 14.400 123.950,14.222 124.400,14.005 124.400 C 13.787 124.400,13.494 125.120,13.354 126.000 C 13.213 126.880,12.941 127.600,12.749 127.600 C 12.557 127.600,12.400 127.949,12.400 128.376 C 12.400 128.803,12.230 129.258,12.023 129.386 C 11.816 129.514,11.525 130.424,11.378 131.409 C 11.230 132.394,10.950 133.200,10.755 133.200 C 10.560 133.200,10.400 133.650,10.400 134.200 C 10.400 134.750,10.237 135.200,10.038 135.200 C 9.838 135.200,9.551 136.100,9.400 137.200 C 9.249 138.300,8.962 139.200,8.762 139.200 C 8.563 139.200,8.400 139.650,8.400 140.200 C 8.400 140.750,8.241 141.200,8.046 141.200 C 7.851 141.200,7.568 142.190,7.417 143.400 C 7.266 144.610,6.975 145.600,6.771 145.600 C 6.567 145.600,6.400 146.230,6.400 147.000 C 6.400 147.770,6.241 148.400,6.047 148.400 C 5.852 148.400,5.568 149.570,5.415 151.000 C 5.262 152.430,4.971 153.600,4.768 153.600 C 4.566 153.600,4.400 154.219,4.400 154.976 C 4.400 155.733,4.232 156.457,4.027 156.583 C 3.822 156.710,3.528 158.251,3.375 160.007 C 3.222 161.763,2.940 163.200,2.748 163.200 C 2.557 163.200,2.400 164.100,2.400 165.200 C 2.400 166.300,2.237 167.200,2.038 167.200 C 1.840 167.200,1.559 169.135,1.414 171.500 C 1.269 173.865,0.937 176.232,0.676 176.761 C 0.011 178.104,-0.008 222.421,0.656 223.239 C 0.906 223.547,1.241 225.825,1.400 228.300 C 1.558 230.775,1.848 232.800,2.044 232.800 C 2.240 232.800,2.400 233.700,2.400 234.800 C 2.400 235.900,2.557 236.800,2.748 236.800 C 2.940 236.800,3.222 238.237,3.375 239.993 C 3.528 241.749,3.822 243.290,4.027 243.417 C 4.232 243.543,4.400 244.267,4.400 245.024 C 4.400 245.781,4.559 246.400,4.753 246.400 C 4.948 246.400,5.232 247.570,5.385 249.000 C 5.538 250.430,5.829 251.600,6.032 251.600 C 6.234 251.600,6.400 252.230,6.400 253.000 C 6.400 253.770,6.559 254.400,6.754 254.400 C 6.949 254.400,7.232 255.390,7.383 256.600 C 7.534 257.810,7.825 258.800,8.029 258.800 C 8.233 258.800,8.400 259.250,8.400 259.800 C 8.400 260.350,8.563 260.800,8.762 260.800 C 8.962 260.800,9.249 261.700,9.400 262.800 C 9.551 263.900,9.838 264.800,10.038 264.800 C 10.237 264.800,10.400 265.250,10.400 265.800 C 10.400 266.350,10.560 266.800,10.755 266.800 C 10.950 266.800,11.230 267.606,11.378 268.591 C 11.525 269.576,11.816 270.486,12.023 270.614 C 12.230 270.742,12.400 271.197,12.400 271.624 C 12.400 272.051,12.557 272.400,12.749 272.400 C 12.941 272.400,13.213 273.120,13.354 274.000 C 13.494 274.880,13.787 275.600,14.005 275.600 C 14.222 275.600,14.400 276.050,14.400 276.600 C 14.400 277.150,14.572 277.600,14.782 277.600 C 14.992 277.600,15.282 278.230,15.426 279.000 C 15.571 279.770,15.849 280.400,16.045 280.400 C 16.240 280.400,16.400 280.749,16.400 281.176 C 16.400 281.603,16.566 282.055,16.769 282.181 C 16.972 282.306,17.257 282.947,17.401 283.605 C 17.545 284.262,17.829 284.800,18.032 284.800 C 18.234 284.800,18.400 285.160,18.400 285.600 C 18.400 286.040,18.566 286.400,18.768 286.400 C 18.971 286.400,19.255 286.940,19.400 287.600 C 19.545 288.260,19.829 288.800,20.032 288.800 C 20.234 288.800,20.400 289.160,20.400 289.600 C 20.400 290.040,20.566 290.400,20.768 290.400 C 20.971 290.400,21.255 290.940,21.400 291.600 C 21.545 292.260,21.829 292.800,22.032 292.800 C 22.234 292.800,22.400 293.160,22.400 293.600 C 22.400 294.040,22.566 294.400,22.768 294.400 C 22.971 294.400,23.255 294.940,23.400 295.600 C 23.545 296.260,23.829 296.800,24.032 296.800 C 24.234 296.800,24.400 297.048,24.400 297.351 C 24.400 297.654,24.670 298.126,25.000 298.400 C 25.330 298.674,25.600 299.236,25.600 299.649 C 25.600 300.062,25.780 300.400,26.000 300.400 C 26.220 300.400,26.400 300.670,26.400 301.000 C 26.400 301.330,26.577 301.600,26.792 301.600 C 27.008 301.600,27.298 302.050,27.436 302.600 C 27.574 303.150,27.847 303.600,28.043 303.600 C 28.240 303.600,28.400 303.870,28.400 304.200 C 28.400 304.530,28.580 304.800,28.800 304.800 C 29.020 304.800,29.200 305.057,29.200 305.371 C 29.200 305.686,29.425 306.188,29.700 306.488 C 30.378 307.228,31.121 308.413,31.595 309.510 C 31.811 310.011,32.261 310.525,32.594 310.653 C 32.927 310.781,33.200 311.217,33.200 311.623 C 33.200 312.028,33.425 312.504,33.700 312.680 C 33.975 312.856,34.408 313.360,34.663 313.800 C 34.917 314.240,35.316 314.557,35.548 314.505 C 35.781 314.452,35.887 314.632,35.783 314.905 C 35.680 315.177,36.047 315.923,36.598 316.562 C 37.149 317.201,37.600 317.885,37.600 318.080 C 37.600 318.276,38.050 318.886,38.600 319.436 C 39.150 319.986,39.600 320.568,39.600 320.729 C 39.600 320.890,40.095 321.575,40.700 322.251 C 41.865 323.553,42.890 324.846,44.200 326.667 C 44.640 327.278,45.450 328.234,46.001 328.789 C 46.551 329.345,47.411 330.340,47.911 331.000 C 49.109 332.581,55.589 339.519,58.518 342.355 C 65.821 349.429,68.160 351.600,68.478 351.600 C 68.673 351.600,69.517 352.320,70.354 353.200 C 71.191 354.080,72.052 354.800,72.266 354.800 C 72.480 354.800,73.036 355.205,73.500 355.700 C 74.557 356.826,75.495 357.600,75.803 357.600 C 75.933 357.600,76.688 358.230,77.481 359.000 C 78.274 359.770,79.067 360.400,79.243 360.400 C 79.419 360.400,79.992 360.828,80.516 361.352 C 81.039 361.876,81.858 362.428,82.334 362.579 C 82.810 362.730,83.200 363.022,83.200 363.227 C 83.200 363.432,83.470 363.600,83.800 363.600 C 84.130 363.600,84.400 363.768,84.400 363.973 C 84.400 364.178,84.715 364.447,85.100 364.571 C 85.485 364.694,86.323 365.246,86.962 365.798 C 87.601 366.349,88.366 366.800,88.662 366.800 C 88.958 366.800,89.200 366.952,89.200 367.137 C 89.200 367.322,89.875 367.817,90.700 368.237 C 91.525 368.657,92.470 369.289,92.800 369.643 C 93.130 369.996,93.805 370.413,94.300 370.570 C 94.795 370.726,95.200 371.041,95.200 371.270 C 95.200 371.498,95.470 371.582,95.800 371.455 C 96.152 371.320,96.400 371.450,96.400 371.769 C 96.400 372.298,98.194 373.032,99.000 372.832 C 99.220 372.778,99.274 372.860,99.119 373.014 C 98.677 373.457,99.723 374.276,101.123 374.583 C 101.825 374.737,102.400 375.029,102.400 375.232 C 102.400 375.434,102.670 375.600,103.000 375.600 C 103.330 375.600,103.600 375.777,103.600 375.992 C 103.600 376.208,104.050 376.498,104.600 376.636 C 105.150 376.774,105.600 377.047,105.600 377.243 C 105.600 377.440,105.945 377.600,106.367 377.600 C 106.788 377.600,107.193 377.775,107.267 377.988 C 107.340 378.202,107.840 378.444,108.379 378.525 C 108.917 378.607,109.427 378.882,109.512 379.137 C 109.597 379.391,110.012 379.600,110.433 379.600 C 110.855 379.600,111.200 379.766,111.200 379.968 C 111.200 380.171,111.740 380.455,112.400 380.600 C 113.060 380.745,113.600 381.029,113.600 381.232 C 113.600 381.434,113.960 381.600,114.400 381.600 C 114.840 381.600,115.200 381.778,115.200 381.995 C 115.200 382.213,115.920 382.506,116.800 382.646 C 117.680 382.787,118.400 383.059,118.400 383.251 C 118.400 383.443,118.670 383.600,119.000 383.600 C 119.330 383.600,119.600 383.760,119.600 383.955 C 119.600 384.151,120.252 384.433,121.049 384.583 C 122.422 384.840,123.961 385.511,124.400 386.042 C 124.510 386.176,125.275 386.409,126.100 386.560 C 126.925 386.712,127.600 387.008,127.600 387.218 C 127.600 387.428,128.050 387.600,128.600 387.600 C 129.150 387.600,129.600 387.769,129.600 387.975 C 129.600 388.182,130.410 388.472,131.400 388.621 C 132.390 388.769,133.200 389.050,133.200 389.245 C 133.200 389.440,133.635 389.600,134.167 389.600 C 134.698 389.600,135.200 389.799,135.281 390.042 C 135.492 390.675,144.499 390.703,144.710 390.070 C 144.796 389.812,145.212 389.600,145.633 389.600 C 146.055 389.600,146.400 389.440,146.400 389.243 C 146.400 389.047,146.838 388.777,147.373 388.642 C 147.909 388.508,148.461 388.039,148.600 387.599 C 148.740 387.160,149.022 386.800,149.227 386.800 C 149.432 386.800,149.600 386.545,149.600 386.233 C 149.600 385.922,149.825 385.592,150.100 385.500 C 150.490 385.370,150.622 380.613,150.700 363.867 L 150.800 342.400 149.480 342.400 C 148.754 342.400,147.989 342.569,147.780 342.775 C 147.571 342.981,145.375 343.277,142.900 343.432 C 140.425 343.587,138.400 343.868,138.400 344.057 C 138.400 344.508,118.511 344.504,118.232 344.052 C 118.114 343.861,116.393 343.578,114.409 343.422 C 112.424 343.267,110.800 342.973,110.800 342.770 C 110.800 342.566,110.361 342.400,109.824 342.400 C 109.287 342.400,108.742 342.230,108.614 342.023 C 108.486 341.816,107.576 341.525,106.591 341.378 C 105.606 341.230,104.800 340.950,104.800 340.755 C 104.800 340.560,104.451 340.400,104.024 340.400 C 103.597 340.400,103.148 340.240,103.027 340.044 C 102.906 339.849,102.341 339.571,101.770 339.428 C 101.199 339.285,100.342 338.803,99.866 338.356 C 99.390 337.910,98.510 337.446,97.912 337.325 C 97.313 337.204,96.719 336.775,96.591 336.373 C 96.464 335.970,95.965 335.516,95.483 335.363 C 94.406 335.021,88.949 329.501,88.600 328.399 C 88.460 327.960,88.178 327.600,87.973 327.600 C 87.768 327.600,87.600 327.330,87.600 327.000 C 87.600 326.670,87.423 326.400,87.208 326.400 C 86.992 326.400,86.702 325.950,86.564 325.400 C 86.426 324.850,86.153 324.400,85.957 324.400 C 85.760 324.400,85.600 324.130,85.600 323.800 C 85.600 323.470,85.442 323.200,85.250 323.200 C 85.058 323.200,84.783 322.616,84.641 321.903 C 84.322 320.312,83.500 318.400,83.134 318.400 C 82.985 318.400,82.737 317.815,82.582 317.100 C 82.426 316.385,82.187 315.710,82.050 315.600 C 81.548 315.198,80.400 312.859,80.400 312.238 C 80.400 311.887,80.220 311.600,80.000 311.600 C 79.780 311.600,79.600 311.330,79.600 311.000 C 79.600 310.670,79.440 310.400,79.243 310.400 C 79.047 310.400,78.774 309.950,78.636 309.400 C 78.498 308.850,78.208 308.400,77.992 308.400 C 77.777 308.400,77.600 308.130,77.600 307.800 C 77.600 307.470,77.440 307.200,77.243 307.200 C 77.047 307.200,76.774 306.750,76.636 306.200 C 76.498 305.650,76.208 305.200,75.992 305.200 C 75.777 305.200,75.600 304.859,75.600 304.443 C 75.600 304.026,75.330 303.582,75.000 303.455 C 74.670 303.329,74.400 302.982,74.400 302.685 C 74.400 302.387,73.950 301.753,73.400 301.275 C 72.850 300.797,72.400 300.209,72.400 299.969 C 72.400 299.730,71.770 298.921,71.000 298.174 C 70.230 297.426,69.600 296.661,69.600 296.474 C 69.600 295.975,66.742 293.200,66.228 293.200 C 65.987 293.200,65.452 292.750,65.039 292.200 C 64.626 291.650,63.996 291.200,63.640 291.200 C 63.284 291.200,62.782 290.863,62.524 290.450 C 62.267 290.038,61.581 289.582,61.000 289.436 C 60.420 289.290,59.414 288.628,58.766 287.966 C 58.071 287.255,57.385 286.877,57.094 287.044 C 56.822 287.200,56.720 287.194,56.867 287.030 C 57.014 286.866,56.834 286.372,56.467 285.933 C 56.100 285.493,55.485 284.760,55.100 284.305 C 54.715 283.850,54.400 283.250,54.400 282.972 C 54.400 282.694,54.175 282.385,53.900 282.285 C 53.173 282.020,53.937 280.894,55.400 280.073 C 56.060 279.703,56.660 279.265,56.733 279.100 C 56.938 278.640,67.513 278.736,67.800 279.200 C 67.936 279.420,68.577 279.600,69.224 279.600 C 69.871 279.600,70.400 279.764,70.400 279.965 C 70.400 280.166,71.120 280.451,72.000 280.600 C 72.880 280.749,73.600 281.034,73.600 281.235 C 73.600 281.436,73.960 281.600,74.400 281.600 C 74.840 281.600,75.200 281.760,75.200 281.957 C 75.200 282.153,75.650 282.426,76.200 282.564 C 76.750 282.702,77.200 282.992,77.200 283.208 C 77.200 283.423,77.470 283.600,77.800 283.600 C 78.130 283.600,78.400 283.768,78.400 283.973 C 78.400 284.178,78.748 284.457,79.174 284.592 C 80.059 284.873,89.200 293.796,89.200 294.380 C 89.200 294.591,89.628 295.192,90.152 295.716 C 90.676 296.239,91.228 297.058,91.379 297.534 C 91.530 298.010,91.822 298.400,92.027 298.400 C 92.232 298.400,92.400 298.670,92.400 299.000 C 92.400 299.330,92.577 299.600,92.792 299.600 C 93.008 299.600,93.298 300.050,93.436 300.600 C 93.574 301.150,93.808 301.600,93.957 301.600 C 94.106 301.600,94.565 302.172,94.978 302.870 C 96.508 305.460,103.571 312.800,104.533 312.800 C 104.870 312.800,105.255 313.142,105.387 313.560 C 105.520 313.978,106.072 314.432,106.614 314.568 C 107.156 314.704,107.600 314.992,107.600 315.208 C 107.600 315.423,107.960 315.600,108.400 315.600 C 108.840 315.600,109.200 315.766,109.200 315.968 C 109.200 316.171,109.740 316.455,110.400 316.600 C 111.060 316.745,111.600 317.029,111.600 317.232 C 111.600 317.434,111.960 317.600,112.400 317.600 C 112.840 317.600,113.200 317.774,113.200 317.986 C 113.200 318.199,114.100 318.492,115.200 318.638 C 116.300 318.784,117.200 319.060,117.200 319.252 C 117.200 319.443,117.725 319.600,118.367 319.600 C 119.008 319.600,119.608 319.825,119.700 320.100 C 119.938 320.814,136.951 320.809,137.666 320.094 C 137.937 319.823,138.754 319.600,139.480 319.600 C 140.206 319.600,140.800 319.443,140.800 319.252 C 140.800 319.060,141.880 318.781,143.200 318.632 C 144.520 318.482,145.600 318.189,145.600 317.980 C 145.600 317.771,146.050 317.600,146.600 317.600 C 147.150 317.600,147.600 317.444,147.600 317.252 C 147.600 317.061,148.226 316.803,148.992 316.679 C 151.333 316.299,152.228 315.016,152.546 311.583 C 152.698 309.943,152.997 308.540,153.211 308.467 C 153.425 308.393,153.600 307.909,153.600 307.390 C 153.600 306.872,153.770 306.342,153.977 306.214 C 154.184 306.086,154.475 305.176,154.622 304.191 C 154.770 303.206,155.050 302.400,155.245 302.400 C 155.440 302.400,155.600 302.040,155.600 301.600 C 155.600 301.160,155.766 300.800,155.968 300.800 C 156.171 300.800,156.455 300.260,156.600 299.600 C 156.745 298.940,157.029 298.400,157.232 298.400 C 157.434 298.400,157.600 298.040,157.600 297.600 C 157.600 297.160,157.780 296.800,158.000 296.800 C 158.220 296.800,158.400 296.569,158.400 296.287 C 158.400 295.609,159.727 293.919,162.300 291.321 C 165.544 288.045,164.986 287.217,159.524 287.204 C 158.492 287.202,157.536 287.020,157.400 286.800 C 157.264 286.580,156.173 286.400,154.976 286.400 C 153.779 286.400,152.800 286.241,152.800 286.047 C 152.800 285.853,151.271 285.567,149.401 285.412 C 147.532 285.256,145.902 284.965,145.778 284.764 C 145.654 284.564,144.933 284.400,144.176 284.400 C 143.419 284.400,142.800 284.234,142.800 284.032 C 142.800 283.829,141.630 283.538,140.200 283.385 C 138.770 283.232,137.600 282.948,137.600 282.753 C 137.600 282.559,137.071 282.400,136.424 282.400 C 135.777 282.400,135.146 282.237,135.023 282.037 C 134.900 281.838,133.899 281.551,132.800 281.400 C 131.700 281.249,130.800 280.962,130.800 280.762 C 130.800 280.563,130.350 280.400,129.800 280.400 C 129.250 280.400,128.800 280.236,128.800 280.035 C 128.800 279.834,128.080 279.549,127.200 279.400 C 126.320 279.251,125.600 278.966,125.600 278.765 C 125.600 278.564,125.351 278.400,125.046 278.400 C 124.741 278.400,123.976 278.131,123.346 277.802 C 122.716 277.474,121.885 277.204,121.500 277.202 C 121.115 277.201,120.800 277.020,120.800 276.800 C 120.800 276.580,120.530 276.400,120.200 276.400 C 119.870 276.400,119.600 276.228,119.600 276.018 C 119.600 275.808,118.970 275.518,118.200 275.374 C 117.430 275.229,116.800 274.951,116.800 274.755 C 116.800 274.560,116.530 274.400,116.200 274.400 C 115.870 274.400,115.600 274.234,115.600 274.032 C 115.600 273.829,115.072 273.548,114.428 273.406 C 113.783 273.264,113.025 272.871,112.744 272.533 C 112.463 272.194,111.865 271.756,111.416 271.559 C 110.398 271.113,109.202 270.354,108.488 269.700 C 108.188 269.425,107.705 269.200,107.414 269.200 C 107.123 269.200,106.781 268.927,106.653 268.594 C 106.525 268.261,105.966 267.815,105.410 267.604 C 104.855 267.393,104.400 267.016,104.400 266.767 C 104.400 266.518,104.136 266.416,103.813 266.540 C 103.490 266.664,103.102 266.565,102.951 266.321 C 102.785 266.052,102.859 265.989,103.138 266.162 C 103.392 266.319,103.600 266.269,103.600 266.051 C 103.600 265.832,103.249 265.543,102.821 265.407 C 101.983 265.141,94.400 257.797,94.400 257.251 C 94.400 257.071,93.770 256.274,93.000 255.481 C 92.230 254.688,91.600 253.928,91.600 253.791 C 91.600 253.655,91.375 253.292,91.100 252.985 C 89.913 251.662,89.600 251.209,89.600 250.817 C 89.600 250.588,89.432 250.400,89.227 250.400 C 89.022 250.400,88.730 250.009,88.578 249.531 C 88.426 249.053,87.957 248.291,87.536 247.839 C 87.114 247.386,86.666 246.607,86.541 246.108 C 86.416 245.609,86.153 245.200,85.957 245.200 C 85.760 245.200,85.600 244.840,85.600 244.400 C 85.600 243.960,85.434 243.600,85.232 243.600 C 85.029 243.600,84.745 243.060,84.600 242.400 C 84.455 241.740,84.213 241.200,84.063 241.200 C 83.765 241.200,82.400 238.243,82.400 237.597 C 82.400 237.379,82.220 237.200,82.000 237.200 C 81.780 237.200,81.600 236.750,81.600 236.200 C 81.600 235.650,81.431 235.200,81.225 235.200 C 81.018 235.200,80.728 234.390,80.579 233.400 C 80.431 232.410,80.150 231.600,79.955 231.600 C 79.760 231.600,79.600 231.150,79.600 230.600 C 79.600 230.050,79.433 229.600,79.229 229.600 C 79.025 229.600,78.734 228.610,78.583 227.400 C 78.432 226.190,78.149 225.200,77.954 225.200 C 77.759 225.200,77.600 224.570,77.600 223.800 C 77.600 223.030,77.435 222.400,77.234 222.400 C 77.033 222.400,76.742 221.050,76.587 219.400 C 76.433 217.750,76.147 216.400,75.953 216.400 C 75.759 216.400,75.600 215.515,75.600 214.433 C 75.600 213.352,75.430 212.407,75.222 212.333 C 75.015 212.260,74.718 209.449,74.563 206.087 C 74.407 202.724,74.127 199.879,73.940 199.763 C 73.481 199.479,73.504 182.660,73.964 182.180 C 74.164 181.971,74.429 179.822,74.553 177.404 C 74.678 174.953,74.960 172.947,75.189 172.870 C 75.415 172.795,75.600 172.219,75.600 171.590 C 75.600 170.962,75.759 170.349,75.953 170.229 C 76.148 170.109,76.430 169.021,76.581 167.812 C 76.732 166.602,77.023 165.509,77.228 165.383 C 77.433 165.256,77.600 164.824,77.600 164.422 C 77.600 164.020,77.869 163.176,78.198 162.546 C 78.526 161.916,78.796 160.995,78.798 160.500 C 78.799 160.005,78.936 159.600,79.102 159.600 C 79.495 159.600,80.304 157.729,80.572 156.203 C 80.688 155.545,80.966 154.945,81.191 154.870 C 81.416 154.795,81.600 154.478,81.600 154.167 C 81.600 153.855,81.760 153.600,81.957 153.600 C 82.341 153.600,82.995 151.658,82.832 151.000 C 82.778 150.780,82.860 150.726,83.014 150.881 C 83.434 151.301,84.226 150.347,84.559 149.020 C 84.721 148.375,85.176 147.567,85.570 147.224 C 85.963 146.881,86.413 146.195,86.570 145.700 C 86.726 145.205,87.022 144.800,87.227 144.800 C 87.432 144.800,87.600 144.596,87.600 144.346 C 87.600 144.096,88.050 143.475,88.600 142.965 C 89.150 142.455,89.600 141.857,89.600 141.635 C 89.600 141.414,90.320 140.498,91.200 139.600 C 92.080 138.702,92.800 137.717,92.800 137.411 C 92.800 137.105,93.160 136.740,93.600 136.600 C 94.410 136.343,94.737 135.200,94.000 135.200 C 93.780 135.200,93.600 134.750,93.600 134.200 C 93.600 133.650,93.429 133.200,93.220 133.200 C 93.011 133.200,92.718 132.120,92.568 130.800 C 92.419 129.480,92.140 128.400,91.948 128.400 C 91.757 128.400,91.600 127.806,91.600 127.080 C 91.600 126.354,91.375 125.535,91.100 125.260 C 90.722 124.882,90.600 121.835,90.600 112.800 C 90.600 103.765,90.722 100.718,91.100 100.340 C 91.375 100.065,91.600 99.167,91.600 98.344 C 91.600 97.521,91.756 96.751,91.947 96.633 C 92.138 96.514,92.417 95.334,92.567 94.009 C 92.717 92.684,92.990 91.600,93.174 91.600 C 93.359 91.600,93.608 91.105,93.728 90.500 C 94.258 87.839,94.961 85.600,95.267 85.600 C 95.450 85.600,95.600 85.227,95.600 84.771 C 95.600 83.155,96.496 82.800,100.571 82.800 C 102.857 82.800,104.400 82.961,104.400 83.200 C 104.400 83.420,105.300 83.600,106.400 83.600 C 107.500 83.600,108.400 83.757,108.400 83.948 C 108.400 84.140,109.475 84.418,110.788 84.567 C 112.101 84.715,113.282 85.009,113.411 85.218 C 113.541 85.428,114.087 85.600,114.624 85.600 C 115.161 85.600,115.600 85.760,115.600 85.955 C 115.600 86.150,116.410 86.431,117.400 86.579 C 118.390 86.728,119.200 87.018,119.200 87.225 C 119.200 87.431,119.650 87.600,120.200 87.600 C 120.750 87.600,121.200 87.760,121.200 87.957 C 121.200 88.153,121.695 88.433,122.300 88.579 C 123.817 88.945,125.600 89.742,125.600 90.053 C 125.600 90.195,126.230 90.429,127.000 90.574 C 127.770 90.718,128.400 91.008,128.400 91.218 C 128.400 91.428,128.670 91.600,129.000 91.600 C 129.330 91.600,129.600 91.760,129.600 91.955 C 129.600 92.151,130.230 92.429,131.000 92.574 C 131.770 92.718,132.400 93.008,132.400 93.218 C 132.400 93.428,132.670 93.600,133.000 93.600 C 133.330 93.600,133.600 93.757,133.600 93.950 C 133.600 94.142,134.164 94.413,134.854 94.551 C 135.543 94.689,136.398 95.135,136.754 95.544 C 137.109 95.952,137.836 96.423,138.369 96.592 C 138.902 96.760,139.709 97.243,140.161 97.664 C 140.614 98.086,141.438 98.543,141.992 98.680 C 142.546 98.817,143.221 99.240,143.491 99.619 C 143.761 99.998,144.436 100.423,144.991 100.562 C 145.546 100.701,146.000 100.992,146.000 101.208 C 146.000 101.423,146.270 101.600,146.600 101.600 C 146.930 101.600,147.200 101.760,147.200 101.957 C 147.200 102.153,147.650 102.426,148.200 102.564 C 148.750 102.702,149.200 102.992,149.200 103.208 C 149.200 103.423,150.010 103.600,151.000 103.600 C 151.990 103.600,152.800 103.438,152.800 103.241 C 152.800 103.043,154.060 102.755,155.600 102.600 C 157.140 102.445,158.400 102.157,158.400 101.959 C 158.400 101.762,159.120 101.600,160.000 101.600 C 160.880 101.600,161.600 101.436,161.600 101.236 C 161.600 101.036,163.130 100.744,165.000 100.589 C 166.870 100.433,168.400 100.147,168.400 99.953 C 168.400 99.759,169.285 99.600,170.367 99.600 C 171.448 99.600,172.393 99.430,172.467 99.223 C 172.540 99.015,174.895 98.719,177.700 98.564 C 180.505 98.410,182.800 98.129,182.800 97.942 C 182.800 97.754,185.050 97.600,187.800 97.600 C 190.867 97.600,192.800 97.445,192.800 97.200 C 192.800 96.657,207.865 96.657,208.200 97.200 C 208.342 97.430,210.463 97.600,213.200 97.600 C 215.814 97.600,218.048 97.754,218.165 97.943 C 218.281 98.131,220.587 98.413,223.288 98.569 C 225.990 98.725,228.371 99.021,228.580 99.227 C 228.789 99.432,229.914 99.600,231.080 99.600 C 232.246 99.600,233.200 99.761,233.200 99.958 C 233.200 100.155,234.640 100.444,236.400 100.600 C 238.160 100.756,239.600 101.045,239.600 101.242 C 239.600 101.439,240.219 101.600,240.976 101.600 C 241.733 101.600,242.453 101.762,242.576 101.961 C 242.698 102.159,243.879 102.447,245.200 102.600 C 246.521 102.753,247.702 103.041,247.824 103.239 C 248.114 103.707,251.600 103.711,251.600 103.243 C 251.600 103.047,252.009 102.784,252.508 102.659 C 253.007 102.534,253.786 102.086,254.239 101.664 C 254.691 101.243,255.453 100.774,255.931 100.622 C 256.409 100.470,256.800 100.178,256.800 99.973 C 256.800 99.768,257.048 99.600,257.351 99.600 C 257.654 99.600,258.126 99.330,258.400 99.000 C 258.674 98.670,259.236 98.400,259.649 98.400 C 260.062 98.400,260.400 98.220,260.400 98.000 C 260.400 97.780,260.670 97.600,261.000 97.600 C 261.330 97.600,261.600 97.423,261.600 97.208 C 261.600 96.992,262.050 96.702,262.600 96.564 C 263.150 96.426,263.600 96.153,263.600 95.957 C 263.600 95.760,263.870 95.600,264.200 95.600 C 264.530 95.600,264.800 95.420,264.800 95.200 C 264.800 94.980,265.138 94.800,265.551 94.800 C 265.964 94.800,266.526 94.530,266.800 94.200 C 267.074 93.870,267.546 93.600,267.849 93.600 C 268.152 93.600,268.400 93.434,268.400 93.232 C 268.400 93.029,268.940 92.745,269.600 92.600 C 270.260 92.455,270.800 92.171,270.800 91.968 C 270.800 91.766,271.160 91.600,271.600 91.600 C 272.040 91.600,272.400 91.434,272.400 91.232 C 272.400 91.029,272.940 90.745,273.600 90.600 C 274.260 90.455,274.800 90.171,274.800 89.968 C 274.800 89.766,275.250 89.600,275.800 89.600 C 276.350 89.600,276.800 89.440,276.800 89.245 C 276.800 89.049,277.430 88.771,278.200 88.626 C 278.970 88.482,279.600 88.192,279.600 87.982 C 279.600 87.772,280.050 87.600,280.600 87.600 C 281.150 87.600,281.600 87.443,281.600 87.251 C 281.600 87.059,282.320 86.787,283.200 86.646 C 284.080 86.506,284.800 86.213,284.800 85.995 C 284.800 85.778,285.430 85.600,286.200 85.600 C 286.970 85.600,287.600 85.429,287.600 85.220 C 287.600 85.011,288.680 84.718,290.000 84.568 C 291.320 84.419,292.400 84.140,292.400 83.948 C 292.400 83.757,293.174 83.600,294.120 83.600 C 295.066 83.600,296.027 83.413,296.255 83.185 C 296.504 82.936,298.335 82.816,300.835 82.885 L 305.000 83.000 305.377 84.700 C 305.584 85.635,305.899 86.400,306.077 86.400 C 306.255 86.400,306.400 86.850,306.400 87.400 C 306.400 87.950,306.563 88.400,306.762 88.400 C 306.962 88.400,307.249 89.300,307.400 90.400 C 307.551 91.499,307.838 92.500,308.037 92.623 C 308.237 92.746,308.400 93.366,308.400 94.000 C 308.400 94.634,308.565 95.255,308.766 95.379 C 308.967 95.504,309.259 96.957,309.414 98.608 C 309.568 100.260,309.854 101.710,310.048 101.829 C 310.241 101.949,310.400 103.286,310.400 104.800 C 310.400 106.314,310.580 107.664,310.800 107.800 C 311.030 107.942,311.200 110.063,311.200 112.800 C 311.200 115.537,311.030 117.658,310.800 117.800 C 310.580 117.936,310.400 119.297,310.400 120.824 C 310.400 122.351,310.246 123.600,310.057 123.600 C 309.869 123.600,309.594 124.905,309.446 126.500 C 309.299 128.095,309.003 129.460,308.789 129.533 C 308.575 129.607,308.400 130.156,308.400 130.753 C 308.400 131.351,308.215 132.025,307.989 132.251 C 306.810 133.430,307.064 136.590,308.454 138.038 C 309.194 138.809,310.160 139.946,310.600 140.564 C 311.040 141.183,311.625 141.926,311.900 142.216 C 312.175 142.506,312.400 142.936,312.400 143.171 C 312.400 143.407,312.539 143.600,312.709 143.600 C 312.879 143.600,313.357 144.230,313.772 145.000 C 314.187 145.770,314.658 146.400,314.820 146.400 C 314.981 146.400,315.226 146.850,315.364 147.400 C 315.502 147.950,315.792 148.400,316.008 148.400 C 316.223 148.400,316.400 148.670,316.400 149.000 C 316.400 149.330,316.560 149.600,316.757 149.600 C 316.953 149.600,317.226 150.050,317.364 150.600 C 317.502 151.150,317.792 151.600,318.008 151.600 C 318.223 151.600,318.400 151.870,318.400 152.200 C 318.400 152.530,318.560 152.800,318.755 152.800 C 318.951 152.800,319.229 153.430,319.374 154.200 C 319.518 154.970,319.764 155.600,319.920 155.600 C 320.298 155.600,321.118 157.488,321.441 159.103 C 321.583 159.816,321.858 160.400,322.050 160.400 C 322.243 160.400,322.400 160.850,322.400 161.400 C 322.400 161.950,322.563 162.400,322.762 162.400 C 322.962 162.400,323.249 163.300,323.400 164.400 C 323.551 165.500,323.838 166.400,324.038 166.400 C 324.237 166.400,324.400 166.940,324.400 167.600 C 324.400 168.260,324.562 168.800,324.759 168.800 C 324.957 168.800,325.245 170.061,325.400 171.602 C 325.555 173.142,325.843 174.503,326.041 174.625 C 326.238 174.747,326.400 175.737,326.400 176.824 C 326.400 177.911,326.580 178.800,326.800 178.800 C 327.348 178.800,327.348 203.861,326.800 204.200 C 326.580 204.336,326.400 205.686,326.400 207.200 C 326.400 208.714,326.242 210.051,326.048 210.170 C 325.854 210.290,325.568 212.100,325.411 214.193 C 325.254 216.286,324.962 218.100,324.763 218.223 C 324.563 218.346,324.400 219.056,324.400 219.800 C 324.400 220.544,324.228 221.259,324.018 221.389 C 323.809 221.518,323.515 222.699,323.367 224.012 C 323.218 225.325,322.940 226.400,322.748 226.400 C 322.557 226.400,322.400 226.839,322.400 227.376 C 322.400 227.913,322.241 228.451,322.046 228.571 C 321.852 228.692,321.571 229.602,321.422 230.595 C 321.273 231.588,320.982 232.400,320.775 232.400 C 320.569 232.400,320.400 232.850,320.400 233.400 C 320.400 233.950,320.243 234.400,320.051 234.400 C 319.859 234.400,319.587 235.120,319.446 236.000 C 319.306 236.880,319.013 237.600,318.795 237.600 C 318.578 237.600,318.400 237.960,318.400 238.400 C 318.400 238.840,318.220 239.200,318.000 239.200 C 317.780 239.200,317.600 239.379,317.600 239.597 C 317.600 240.243,316.235 243.200,315.937 243.200 C 315.787 243.200,315.545 243.740,315.400 244.400 C 315.255 245.060,314.971 245.600,314.768 245.600 C 314.566 245.600,314.400 245.941,314.400 246.357 C 314.400 246.774,314.130 247.218,313.800 247.345 C 313.470 247.471,313.200 247.926,313.200 248.354 C 313.200 248.783,313.065 249.193,312.900 249.267 C 312.524 249.434,310.400 252.259,310.400 252.592 C 310.400 252.728,309.950 253.255,309.400 253.765 C 308.850 254.275,308.400 254.814,308.400 254.963 C 308.400 255.364,302.376 261.715,299.941 263.881 C 299.643 264.145,299.184 264.595,298.919 264.881 C 298.161 265.699,297.259 266.400,296.963 266.400 C 296.814 266.400,296.275 266.850,295.765 267.400 C 295.255 267.950,294.728 268.400,294.592 268.400 C 294.259 268.400,291.434 270.524,291.267 270.900 C 291.193 271.065,290.783 271.200,290.354 271.200 C 289.926 271.200,289.471 271.470,289.345 271.800 C 289.218 272.130,288.774 272.400,288.357 272.400 C 287.941 272.400,287.600 272.560,287.600 272.757 C 287.600 272.953,287.150 273.226,286.600 273.364 C 286.050 273.502,285.600 273.792,285.600 274.008 C 285.600 274.223,285.330 274.400,285.000 274.400 C 284.670 274.400,284.400 274.572,284.400 274.782 C 284.400 274.992,283.770 275.282,283.000 275.426 C 282.230 275.571,281.600 275.849,281.600 276.045 C 281.600 276.240,281.251 276.400,280.824 276.400 C 280.397 276.400,279.945 276.566,279.819 276.769 C 279.694 276.972,279.053 277.257,278.395 277.401 C 277.738 277.545,277.200 277.829,277.200 278.032 C 277.200 278.234,276.750 278.400,276.200 278.400 C 275.650 278.400,275.200 278.564,275.200 278.765 C 275.200 278.966,274.481 279.251,273.602 279.400 C 272.723 279.548,271.903 279.834,271.778 280.035 C 271.654 280.236,271.113 280.400,270.576 280.400 C 270.039 280.400,269.600 280.563,269.600 280.762 C 269.600 280.962,268.700 281.249,267.600 281.400 C 266.500 281.551,265.600 281.838,265.600 282.038 C 265.600 282.237,265.060 282.400,264.400 282.400 C 263.740 282.400,263.200 282.566,263.200 282.768 C 263.200 282.971,262.027 283.262,260.594 283.415 C 259.161 283.569,257.891 283.853,257.771 284.047 C 257.651 284.241,257.023 284.400,256.376 284.400 C 255.729 284.400,255.200 284.561,255.200 284.758 C 255.200 284.954,253.579 285.243,251.597 285.400 C 249.616 285.557,247.895 285.846,247.774 286.043 C 247.652 286.239,246.674 286.400,245.600 286.400 C 244.526 286.400,243.536 286.580,243.400 286.800 C 243.264 287.020,242.308 287.202,241.276 287.204 C 238.259 287.211,236.400 287.633,236.400 288.309 C 236.400 289.068,238.623 291.233,239.028 290.869 C 239.193 290.721,239.200 290.822,239.044 291.094 C 238.877 291.385,239.244 292.061,239.935 292.736 C 240.581 293.368,241.232 294.270,241.382 294.742 C 241.531 295.214,241.822 295.600,242.027 295.600 C 242.232 295.600,242.400 295.870,242.400 296.200 C 242.400 296.530,242.577 296.800,242.792 296.800 C 243.008 296.800,243.298 297.250,243.436 297.800 C 243.574 298.350,243.847 298.800,244.043 298.800 C 244.240 298.800,244.400 299.160,244.400 299.600 C 244.400 300.040,244.564 300.400,244.765 300.400 C 244.966 300.400,245.251 301.120,245.400 302.000 C 245.549 302.880,245.834 303.600,246.035 303.600 C 246.236 303.600,246.400 304.050,246.400 304.600 C 246.400 305.150,246.571 305.600,246.780 305.600 C 246.989 305.600,247.282 306.680,247.432 308.000 C 247.581 309.320,247.860 310.400,248.052 310.400 C 248.243 310.400,248.400 311.084,248.400 311.920 C 248.400 312.756,248.625 313.665,248.900 313.940 C 249.290 314.330,249.428 322.084,249.526 349.312 C 249.595 368.492,249.775 384.278,249.926 384.392 C 250.077 384.507,250.547 385.230,250.972 386.000 C 253.364 390.340,261.488 392.309,266.105 389.669 C 266.933 389.195,268.328 388.693,269.205 388.553 C 270.082 388.413,270.800 388.141,270.800 387.949 C 270.800 387.757,271.235 387.600,271.767 387.600 C 272.298 387.600,272.795 387.416,272.870 387.191 C 272.945 386.966,273.545 386.688,274.203 386.572 C 275.671 386.315,277.600 385.500,277.600 385.138 C 277.600 384.991,278.320 384.749,279.200 384.600 C 280.080 384.451,280.800 384.166,280.800 383.965 C 280.800 383.764,281.160 383.600,281.600 383.600 C 282.040 383.600,282.400 383.434,282.400 383.232 C 282.400 383.029,282.940 382.745,283.600 382.600 C 284.260 382.455,284.800 382.171,284.800 381.968 C 284.800 381.766,285.072 381.600,285.405 381.600 C 285.738 381.600,286.323 381.429,286.705 381.219 C 287.087 381.010,288.120 380.524,289.000 380.140 C 289.880 379.756,290.690 379.340,290.800 379.215 C 290.910 379.090,291.763 378.631,292.695 378.194 C 293.628 377.757,294.393 377.279,294.395 377.132 C 294.398 376.984,294.940 376.745,295.600 376.600 C 296.260 376.455,296.800 376.171,296.800 375.968 C 296.800 375.766,297.160 375.600,297.600 375.600 C 298.040 375.600,298.400 375.440,298.400 375.243 C 298.400 375.047,298.850 374.774,299.400 374.636 C 299.950 374.498,300.400 374.208,300.400 373.992 C 300.400 373.777,300.670 373.600,301.000 373.600 C 301.330 373.600,301.600 373.440,301.600 373.243 C 301.600 373.047,302.050 372.774,302.600 372.636 C 303.150 372.498,303.600 372.208,303.600 371.992 C 303.600 371.777,303.870 371.600,304.200 371.600 C 304.530 371.600,304.800 371.420,304.800 371.200 C 304.800 370.980,305.166 370.800,305.613 370.800 C 306.059 370.800,306.529 370.530,306.655 370.200 C 306.782 369.870,307.207 369.600,307.600 369.600 C 307.993 369.600,308.418 369.330,308.545 369.000 C 308.671 368.670,309.128 368.400,309.560 368.400 C 309.995 368.400,310.460 368.042,310.600 367.600 C 310.740 367.158,311.205 366.800,311.640 366.800 C 312.072 366.800,312.529 366.530,312.655 366.200 C 312.782 365.870,313.226 365.600,313.643 365.600 C 314.059 365.600,314.400 365.416,314.400 365.190 C 314.400 364.965,314.855 364.607,315.410 364.396 C 315.966 364.185,316.525 363.739,316.653 363.406 C 316.781 363.073,317.117 362.800,317.400 362.800 C 317.684 362.800,318.493 362.260,319.200 361.600 C 319.907 360.940,320.693 360.400,320.947 360.400 C 321.202 360.400,321.748 359.950,322.161 359.400 C 322.574 358.850,323.135 358.400,323.407 358.400 C 324.155 358.400,325.062 357.211,324.349 357.164 C 324.047 357.144,324.385 356.959,325.100 356.752 C 325.815 356.546,326.400 356.202,326.400 355.989 C 326.400 355.775,326.594 355.600,326.831 355.600 C 327.069 355.600,327.976 354.880,328.847 354.000 C 329.718 353.120,330.577 352.400,330.756 352.400 C 330.935 352.400,332.441 351.095,334.103 349.500 C 335.765 347.905,338.150 345.700,339.404 344.600 C 342.168 342.175,342.158 342.185,344.400 339.607 C 345.390 338.468,347.595 336.088,349.300 334.318 C 351.005 332.547,352.400 330.957,352.400 330.784 C 352.400 330.611,353.035 329.815,353.812 329.015 C 354.588 328.216,355.100 327.362,354.950 327.119 C 354.799 326.876,354.851 326.785,355.065 326.917 C 355.279 327.049,355.712 326.779,356.027 326.317 C 356.342 325.854,357.005 325.111,357.500 324.666 C 357.995 324.220,358.400 323.643,358.400 323.384 C 358.400 323.124,358.850 322.574,359.400 322.161 C 359.950 321.748,360.400 321.191,360.400 320.923 C 360.400 320.655,360.828 320.008,361.352 319.484 C 361.876 318.961,362.428 318.142,362.579 317.666 C 362.730 317.190,363.022 316.800,363.227 316.800 C 363.432 316.800,363.600 316.612,363.600 316.383 C 363.600 316.153,364.050 315.480,364.600 314.887 C 365.150 314.293,365.600 313.601,365.600 313.347 C 365.600 313.093,365.870 312.782,366.200 312.655 C 366.530 312.529,366.800 312.079,366.800 311.655 C 366.800 311.232,367.073 310.781,367.406 310.653 C 367.739 310.525,368.189 310.011,368.405 309.510 C 368.858 308.461,369.687 307.092,370.046 306.800 C 370.181 306.690,370.419 306.195,370.573 305.700 C 370.728 305.205,371.022 304.800,371.227 304.800 C 371.432 304.800,371.600 304.530,371.600 304.200 C 371.600 303.870,371.760 303.600,371.957 303.600 C 372.153 303.600,372.426 303.150,372.564 302.600 C 372.702 302.050,372.992 301.600,373.208 301.600 C 373.423 301.600,373.600 301.330,373.600 301.000 C 373.600 300.670,373.758 300.400,373.950 300.400 C 374.143 300.400,374.400 299.905,374.523 299.300 C 374.645 298.695,375.110 297.810,375.556 297.334 C 376.003 296.858,376.484 296.003,376.627 295.434 C 376.770 294.865,377.047 294.400,377.243 294.400 C 377.440 294.400,377.600 294.040,377.600 293.600 C 377.600 293.160,377.766 292.800,377.968 292.800 C 378.171 292.800,378.455 292.260,378.600 291.600 C 378.745 290.940,379.029 290.400,379.232 290.400 C 379.434 290.400,379.600 290.040,379.600 289.600 C 379.600 289.160,379.766 288.800,379.968 288.800 C 380.171 288.800,380.455 288.260,380.600 287.600 C 380.745 286.940,381.029 286.400,381.232 286.400 C 381.434 286.400,381.600 286.040,381.600 285.600 C 381.600 285.160,381.760 284.800,381.957 284.800 C 382.153 284.800,382.433 284.305,382.579 283.700 C 382.965 282.102,383.748 280.400,384.098 280.400 C 384.264 280.400,384.401 280.085,384.402 279.700 C 384.404 279.315,384.674 278.484,385.002 277.854 C 385.331 277.224,385.600 276.474,385.600 276.188 C 385.600 275.901,385.777 275.607,385.993 275.533 C 386.209 275.460,386.454 274.778,386.537 274.019 C 386.620 273.259,386.893 272.569,387.144 272.485 C 387.395 272.402,387.600 272.024,387.600 271.647 C 387.600 271.269,387.773 270.787,387.984 270.576 C 388.196 270.364,388.457 269.476,388.566 268.602 C 388.674 267.728,388.951 266.950,389.181 266.873 C 389.412 266.796,389.600 266.298,389.600 265.767 C 389.600 265.235,389.763 264.800,389.962 264.800 C 390.162 264.800,390.449 263.900,390.600 262.800 C 390.751 261.700,391.038 260.800,391.238 260.800 C 391.437 260.800,391.600 260.361,391.600 259.824 C 391.600 259.287,391.763 258.746,391.963 258.623 C 392.162 258.500,392.449 257.499,392.600 256.400 C 392.751 255.300,393.038 254.400,393.238 254.400 C 393.437 254.400,393.600 253.770,393.600 253.000 C 393.600 252.230,393.759 251.600,393.953 251.600 C 394.148 251.600,394.432 250.430,394.585 249.000 C 394.738 247.570,395.029 246.400,395.232 246.400 C 395.434 246.400,395.600 245.781,395.600 245.024 C 395.600 244.267,395.768 243.543,395.973 243.417 C 396.178 243.290,396.472 241.749,396.625 239.993 C 396.778 238.237,397.060 236.800,397.252 236.800 C 397.443 236.800,397.600 235.900,397.600 234.800 C 397.600 233.700,397.762 232.800,397.961 232.800 C 398.159 232.800,398.450 230.685,398.607 228.100 C 398.765 225.515,399.097 223.147,399.347 222.839 C 400.008 222.019,399.987 178.099,399.324 176.761 C 399.063 176.232,398.731 173.865,398.586 171.500 C 398.441 169.135,398.160 167.200,397.962 167.200 C 397.763 167.200,397.600 166.300,397.600 165.200 C 397.600 164.100,397.441 163.200,397.247 163.200 C 397.053 163.200,396.767 161.670,396.611 159.800 C 396.456 157.930,396.164 156.400,395.964 156.400 C 395.764 156.400,395.600 155.770,395.600 155.000 C 395.600 154.230,395.434 153.600,395.232 153.600 C 395.029 153.600,394.738 152.430,394.585 151.000 C 394.432 149.570,394.148 148.400,393.953 148.400 C 393.759 148.400,393.600 147.770,393.600 147.000 C 393.600 146.230,393.433 145.600,393.229 145.600 C 393.025 145.600,392.734 144.610,392.583 143.400 C 392.432 142.190,392.149 141.200,391.954 141.200 C 391.759 141.200,391.600 140.750,391.600 140.200 C 391.600 139.650,391.437 139.200,391.238 139.200 C 391.038 139.200,390.751 138.300,390.600 137.200 C 390.449 136.100,390.162 135.200,389.962 135.200 C 389.763 135.200,389.600 134.750,389.600 134.200 C 389.600 133.650,389.440 133.200,389.245 133.200 C 389.050 133.200,388.770 132.394,388.622 131.409 C 388.475 130.424,388.184 129.514,387.977 129.386 C 387.770 129.258,387.600 128.803,387.600 128.376 C 387.600 127.949,387.443 127.600,387.251 127.600 C 387.059 127.600,386.787 126.880,386.646 126.000 C 386.506 125.120,386.213 124.400,385.995 124.400 C 385.778 124.400,385.600 123.950,385.600 123.400 C 385.600 122.850,385.428 122.400,385.218 122.400 C 385.008 122.400,384.718 121.770,384.574 121.000 C 384.429 120.230,384.151 119.600,383.955 119.600 C 383.760 119.600,383.600 119.251,383.600 118.824 C 383.600 118.397,383.434 117.945,383.231 117.819 C 383.028 117.694,382.743 117.053,382.599 116.395 C 382.455 115.738,382.171 115.200,381.968 115.200 C 381.766 115.200,381.600 114.840,381.600 114.400 C 381.600 113.960,381.434 113.600,381.232 113.600 C 381.029 113.600,380.745 113.060,380.600 112.400 C 380.455 111.740,380.171 111.200,379.968 111.200 C 379.766 111.200,379.600 110.840,379.600 110.400 C 379.600 109.960,379.434 109.600,379.232 109.600 C 379.029 109.600,378.745 109.060,378.600 108.400 C 378.455 107.740,378.171 107.200,377.968 107.200 C 377.766 107.200,377.600 106.840,377.600 106.400 C 377.600 105.960,377.434 105.600,377.232 105.600 C 377.029 105.600,376.745 105.060,376.600 104.400 C 376.455 103.740,376.171 103.200,375.968 103.200 C 375.766 103.200,375.600 103.007,375.600 102.771 C 375.600 102.536,375.330 102.073,375.000 101.743 C 374.670 101.413,374.400 100.796,374.400 100.371 C 374.400 99.947,374.220 99.600,374.000 99.600 C 373.780 99.600,373.600 99.330,373.600 99.000 C 373.600 98.670,373.440 98.400,373.243 98.400 C 373.047 98.400,372.774 97.950,372.636 97.400 C 372.498 96.850,372.208 96.400,371.992 96.400 C 371.777 96.400,371.600 96.130,371.600 95.800 C 371.600 95.470,371.368 95.200,371.085 95.200 C 370.802 95.200,370.541 94.811,370.505 94.336 C 370.469 93.861,370.296 93.366,370.120 93.236 C 369.713 92.936,368.908 91.654,368.418 90.524 C 368.209 90.043,367.676 89.455,367.234 89.218 C 366.761 88.965,366.523 88.545,366.656 88.197 C 366.785 87.863,366.604 87.500,366.242 87.361 C 365.889 87.225,365.600 86.942,365.600 86.731 C 365.600 86.357,363.904 83.933,362.900 82.871 C 362.625 82.581,362.400 82.168,362.400 81.953 C 362.400 81.739,361.950 81.114,361.400 80.564 C 360.850 80.014,360.400 79.345,360.400 79.077 C 360.400 78.809,359.950 78.252,359.400 77.839 C 358.850 77.426,358.400 76.876,358.400 76.616 C 358.400 76.357,357.995 75.764,357.500 75.300 C 356.336 74.207,355.600 73.303,355.600 72.964 C 355.600 72.816,355.003 72.132,354.274 71.444 C 353.545 70.756,352.749 69.835,352.505 69.397 C 351.261 67.158,333.802 49.703,330.800 47.696 C 330.250 47.328,329.239 46.436,328.553 45.714 C 327.867 44.991,327.184 44.400,327.036 44.400 C 326.697 44.400,325.793 43.664,324.700 42.500 C 324.236 42.005,323.643 41.600,323.384 41.600 C 323.124 41.600,322.574 41.150,322.161 40.600 C 321.748 40.050,321.191 39.600,320.923 39.600 C 320.655 39.600,319.986 39.150,319.436 38.600 C 318.886 38.050,318.274 37.600,318.077 37.600 C 317.756 37.600,317.058 37.065,314.700 35.010 C 314.315 34.675,313.749 34.400,313.443 34.400 C 313.136 34.400,312.782 34.130,312.655 33.800 C 312.529 33.470,312.079 33.200,311.655 33.200 C 311.232 33.200,310.781 32.927,310.653 32.594 C 310.525 32.261,309.966 31.815,309.410 31.604 C 308.855 31.393,308.400 31.035,308.400 30.810 C 308.400 30.584,308.040 30.400,307.600 30.400 C 307.160 30.400,306.800 30.240,306.800 30.043 C 306.800 29.847,306.350 29.574,305.800 29.436 C 305.250 29.298,304.800 29.008,304.800 28.792 C 304.800 28.577,304.530 28.400,304.200 28.400 C 303.870 28.400,303.600 28.223,303.600 28.008 C 303.600 27.792,303.150 27.502,302.600 27.364 C 302.050 27.226,301.600 26.953,301.600 26.757 C 301.600 26.560,301.330 26.400,301.000 26.400 C 300.670 26.400,300.400 26.220,300.400 26.000 C 300.400 25.780,300.062 25.600,299.649 25.600 C 299.236 25.600,298.674 25.330,298.400 25.000 C 298.126 24.670,297.654 24.400,297.351 24.400 C 297.048 24.400,296.800 24.234,296.800 24.032 C 296.800 23.829,296.260 23.545,295.600 23.400 C 294.940 23.255,294.400 22.971,294.400 22.768 C 294.400 22.566,294.040 22.400,293.600 22.400 C 293.160 22.400,292.800 22.234,292.800 22.032 C 292.800 21.829,292.260 21.545,291.600 21.400 C 290.940 21.255,290.400 20.971,290.400 20.768 C 290.400 20.566,290.040 20.400,289.600 20.400 C 289.160 20.400,288.800 20.234,288.800 20.032 C 288.800 19.829,288.260 19.545,287.600 19.400 C 286.940 19.255,286.400 18.971,286.400 18.768 C 286.400 18.566,286.040 18.400,285.600 18.400 C 285.160 18.400,284.800 18.234,284.800 18.032 C 284.800 17.829,284.262 17.545,283.605 17.401 C 282.947 17.257,282.306 16.972,282.181 16.769 C 282.055 16.566,281.603 16.400,281.176 16.400 C 280.749 16.400,280.400 16.240,280.400 16.045 C 280.400 15.849,279.770 15.571,279.000 15.426 C 278.230 15.282,277.600 14.992,277.600 14.782 C 277.600 14.572,277.150 14.400,276.600 14.400 C 276.050 14.400,275.600 14.222,275.600 14.005 C 275.600 13.787,274.880 13.494,274.000 13.354 C 273.120 13.213,272.400 12.941,272.400 12.749 C 272.400 12.557,272.051 12.400,271.624 12.400 C 271.197 12.400,270.739 12.225,270.607 12.012 C 270.475 11.798,269.478 11.505,268.391 11.361 C 267.304 11.217,266.512 10.942,266.631 10.749 C 266.750 10.557,266.387 10.400,265.824 10.400 C 265.261 10.400,264.800 10.237,264.800 10.038 C 264.800 9.838,263.900 9.551,262.800 9.400 C 261.700 9.249,260.800 8.962,260.800 8.762 C 260.800 8.563,260.350 8.400,259.800 8.400 C 259.250 8.400,258.800 8.233,258.800 8.029 C 258.800 7.825,257.810 7.534,256.600 7.383 C 255.390 7.232,254.400 6.949,254.400 6.754 C 254.400 6.559,253.770 6.400,253.000 6.400 C 252.230 6.400,251.600 6.234,251.600 6.032 C 251.600 5.829,250.430 5.538,249.000 5.385 C 247.570 5.232,246.400 4.948,246.400 4.753 C 246.400 4.559,245.806 4.400,245.080 4.400 C 244.354 4.400,243.589 4.235,243.380 4.033 C 243.171 3.831,241.650 3.547,240.000 3.401 C 238.350 3.255,236.940 2.970,236.867 2.768 C 236.793 2.566,235.848 2.400,234.767 2.400 C 233.685 2.400,232.800 2.237,232.800 2.038 C 232.800 1.840,230.865 1.562,228.500 1.421 C 226.135 1.280,223.840 0.956,223.400 0.701 C 222.629 0.254,188.087 -0.093,180.400 0.269 M129.100 345.087 C 128.495 345.178,127.505 345.178,126.900 345.087 C 126.295 344.995,126.790 344.920,128.000 344.920 C 129.210 344.920,129.705 344.995,129.100 345.087 " stroke="none" fill="#ffffff" fill-rule="evenodd"></path><path id="path1" d="M126.900 345.087 C 127.505 345.178,128.495 345.178,129.100 345.087 C 129.705 344.995,129.210 344.920,128.000 344.920 C 126.790 344.920,126.295 344.995,126.900 345.087 " stroke="none" fill="#ffffff" fill-rule="evenodd"></path><path id="path2" d="" stroke="none" fill="#ffffff" fill-rule="evenodd"></path><path id="path3" d="" stroke="none" fill="#ffffff" fill-rule="evenodd"></path><path id="path4" d="" stroke="none" fill="#ffffff" fill-rule="evenodd"></path></g></svg>