<svg id="Group_11982" data-name="Group 11982" xmlns="http://www.w3.org/2000/svg" xmlns:xlink="http://www.w3.org/1999/xlink" width="665" height="442.881" viewBox="0 0 665 442.881">
  <g id="Group_11991" data-name="Group 11991">
    <g id="Group_11983" data-name="Group 11983">
      <g id="Group_11982-2" data-name="Group 11982">
        <path id="Path_18713" data-name="Path 18713" d="M78.149,428.869H566.257a86.283,86.283,0,0,0,14.141-171.4q.116-2.237.115-4.474a90.084,90.084,0,0,0-89.988-89.975,88.51,88.51,0,0,0-18.768,2.006c-14.643-56.8-66.566-98-126.369-98a130,130,0,0,0-115.262,69.264A125.352,125.352,0,0,0,58.853,275.041a78.121,78.121,0,0,0,19.3,153.828" transform="translate(0 10.279)" fill="var(--ifm-cloud-accent)"/>
        <path id="Path_18714" data-name="Path 18714" d="M88.938,432.106H577.046a86.283,86.283,0,0,0,14.141-171.4q.116-2.237.115-4.474a90.084,90.084,0,0,0-89.988-89.975,88.511,88.511,0,0,0-18.768,2.006c-14.643-56.8-66.566-98-126.369-98a130,130,0,0,0-115.262,69.264A125.352,125.352,0,0,0,69.642,278.278a78.121,78.121,0,0,0,19.3,153.828" transform="translate(1.654 10.775)" fill="var(--ifm-cloud-color)"/>
        <path id="Path_18715" data-name="Path 18715" d="M86.349,1.96A38.982,38.982,0,1,1,47.366,40.941,38.982,38.982,0,0,1,86.349,1.96" transform="translate(7.264 0.301)" fill="#00bf8c"/>
        <path id="Path_18716" data-name="Path 18716" d="M103.151,24.45a1.937,1.937,0,0,0-1.415-.663c-4.154-.1-9.447-4.576-12.921-6.324a21.966,21.966,0,0,0-4.647-1.972h-.645a21.2,21.2,0,0,0-4.646,1.972c-3.493,1.747-8.733,6.219-12.941,6.324a1.938,1.938,0,0,0-1.45.663,2.147,2.147,0,0,0-.524,1.519c.89,18.2,7.422,29.461,18.878,36.01a1.884,1.884,0,0,0,1.92,0c11.456-6.549,17.988-17.812,18.879-36.01a2.093,2.093,0,0,0-.49-1.519" transform="translate(9.808 2.376)" fill="#fff"/>
        <path id="Path_18717" data-name="Path 18717" d="M92.475,30.014,82.8,44.282a1.747,1.747,0,0,1-1.415.856,2.312,2.312,0,0,1-1.537-.683l-6.809-6.809a1.188,1.188,0,0,1-.068-1.679c.022-.022.043-.046.068-.068l1.745-1.745a1.17,1.17,0,0,1,1.654-.093.893.893,0,0,1,.093.093l4.436,4.435,7.7-11.367a1.168,1.168,0,0,1,1.62-.329l.02.013,1.975,1.329a1.206,1.206,0,0,1,.271,1.682.809.809,0,0,1-.08.1" transform="translate(11.142 4.094)" fill="#00bf8c"/>
        <path id="Path_18718" data-name="Path 18718" d="M125.224,3.91a5.511,5.511,0,1,0,3.768,6.822,5.51,5.51,0,0,0-3.768-6.822" transform="translate(18.124 0.566)" fill="#00bf8c"/>
        <path id="Path_18719" data-name="Path 18719" d="M135.057.1A2.659,2.659,0,1,0,136.874,3.4,2.66,2.66,0,0,0,135.057.1" transform="translate(20.19 0)" fill="#00bf8c"/>
        <path id="Path_18720" data-name="Path 18720" d="M147.866,4.738A4.583,4.583,0,1,0,151,10.411a4.583,4.583,0,0,0-3.132-5.673" transform="translate(21.777 0.699)" fill="#079cee"/>
        <path id="Path_18721" data-name="Path 18721" d="M73.158,213.508H25.152a6.446,6.446,0,0,1-6.446-6.446V145.91a6.446,6.446,0,0,1,6.446-6.446H73.158A6.446,6.446,0,0,1,79.6,145.91v61.152a6.446,6.446,0,0,1-6.446,6.446" transform="translate(2.869 21.387)" fill="#d6bce7"/>
        <path id="Path_18722" data-name="Path 18722" d="M78.539,218.761H30.533a6.446,6.446,0,0,1-6.446-6.446V151.163a6.446,6.446,0,0,1,6.446-6.446H78.539a6.446,6.446,0,0,1,6.446,6.446v61.152a6.446,6.446,0,0,1-6.446,6.446" transform="translate(3.694 22.192)" fill="#c29bdc"/>
        <path id="Path_18723" data-name="Path 18723" d="M84.575,224.8H36.569a6.446,6.446,0,0,1-6.446-6.446V157.2a6.446,6.446,0,0,1,6.446-6.446H84.575a6.446,6.446,0,0,1,6.446,6.446v61.152a6.446,6.446,0,0,1-6.446,6.446" transform="translate(4.619 23.118)" fill="#9a59c5"/>
        <path id="Path_18724" data-name="Path 18724" d="M66.427,192.937H39.465a1.908,1.908,0,0,1-1.908-1.908v-9.009a1.908,1.908,0,0,1,1.908-1.908H66.427a1.908,1.908,0,0,1,1.908,1.908v9.009a1.908,1.908,0,0,1-1.908,1.908" transform="translate(5.759 27.62)" fill="#fff"/>
        <path id="Path_18725" data-name="Path 18725" d="M75.63,192.937h-7.6a1.074,1.074,0,0,1-1.074-1.074V181.187a1.074,1.074,0,0,1,1.074-1.074h7.6a1.074,1.074,0,0,1,1.074,1.074v10.677a1.074,1.074,0,0,1-1.074,1.074" transform="translate(10.268 27.62)" fill="#fff"/>
        <path id="Path_18726" data-name="Path 18726" d="M79.063,162.589H39.707a2.15,2.15,0,1,1,0-4.3H79.063a2.15,2.15,0,0,1,0,4.3" transform="translate(5.759 24.274)" fill="#fff"/>
        <path id="Path_18727" data-name="Path 18727" d="M79.063,169.4H39.707a2.15,2.15,0,1,1,0-4.3H79.063a2.15,2.15,0,0,1,0,4.3" transform="translate(5.759 25.318)" fill="#fff"/>
        <path id="Path_18728" data-name="Path 18728" d="M79.063,176.2H39.707a2.15,2.15,0,1,1,0-4.3H79.063a2.15,2.15,0,0,1,0,4.3" transform="translate(5.759 26.362)" fill="#fff"/>
        <path id="Path_18729" data-name="Path 18729" d="M78.312,200.147H45.6a1.97,1.97,0,0,1-1.97-1.97v-.36a1.97,1.97,0,0,1,1.97-1.97H78.312a1.97,1.97,0,0,1,1.97,1.97v.36a1.97,1.97,0,0,1-1.97,1.97" transform="translate(6.69 30.033)" fill="#fff"/>
        <path id="Path_18730" data-name="Path 18730" d="M78.312,207.511H45.6a1.97,1.97,0,0,1-1.97-1.97v-.36a1.97,1.97,0,0,1,1.97-1.97H78.312a1.97,1.97,0,0,1,1.97,1.97v.36a1.97,1.97,0,0,1-1.97,1.97" transform="translate(6.69 31.163)" fill="#fff"/>
        <path id="Path_18731" data-name="Path 18731" d="M42.166,198.017a2.3,2.3,0,1,1-2.3-2.3,2.3,2.3,0,0,1,2.3,2.3" transform="translate(5.759 30.013)" fill="#fff"/>
        <path id="Path_18732" data-name="Path 18732" d="M42.166,205.382a2.3,2.3,0,1,1-2.3-2.3,2.3,2.3,0,0,1,2.3,2.3" transform="translate(5.759 31.142)" fill="#fff"/>
        <path id="Path_18733" data-name="Path 18733" d="M129.831,63.129c3.71,0,3.717-5.767,0-5.767s-3.717,5.767,0,5.767" transform="translate(19.483 8.796)" fill="#f9f9f9"/>
        <path id="Path_18734" data-name="Path 18734" d="M426.25,118.082l-.263-74.347a16.841,16.841,0,0,0-16.841-16.842H165.615a16.842,16.842,0,0,0-16.842,16.842v74.347Z" transform="translate(22.814 4.124)" fill="#079cee"/>
        <path id="Path_18735" data-name="Path 18735" d="M426.25,87.311s-29.871,30.042-133.888,12.634c-97.535-16.325-143.589-4.917-143.589-4.917v13.788H426.25Z" transform="translate(22.814 13.389)" fill="#38aff1"/>
        <path id="Path_18736" data-name="Path 18736" d="M148.774,369.562a14.275,14.275,0,0,0,14.275,14.275H411.974a14.275,14.275,0,0,0,14.276-14.275V97.226S391.963,113.4,292.314,99.452c-92.464-12.941-143.54,3.74-143.54,3.74Z" transform="translate(22.815 14.497)" fill="#f5fbfe"/>
        <path id="Path_18737" data-name="Path 18737" d="M299.013,141.294h-115.9a6.563,6.563,0,0,1,0-13.126h115.9a6.563,6.563,0,1,1,0,13.126" transform="translate(27.073 19.655)" fill="#9bd7f8"/>
        <path id="Path_18738" data-name="Path 18738" d="M257.4,69H195.335a8.643,8.643,0,1,1,0-17.285H257.4A8.643,8.643,0,0,1,257.4,69" transform="translate(28.629 7.931)" fill="#38aff1"/>
        <path id="Path_18739" data-name="Path 18739" d="M353.2,69H291.138a8.643,8.643,0,1,1,0-17.285H353.2A8.643,8.643,0,0,1,353.2,69" transform="translate(43.321 7.931)" fill="#38aff1"/>
        <path id="Path_18740" data-name="Path 18740" d="M392.724,160.862H180.056a3.51,3.51,0,0,1,0-7.019H392.724a3.51,3.51,0,0,1,0,7.019" transform="translate(27.073 23.592)" fill="#cdebfb"/>
        <path id="Path_18741" data-name="Path 18741" d="M392.724,171.342H180.056a3.51,3.51,0,0,1,0-7.019H392.724a3.51,3.51,0,0,1,0,7.019" transform="translate(27.073 25.199)" fill="#cdebfb"/>
        <path id="Path_18742" data-name="Path 18742" d="M321.217,181.822H180.055a3.51,3.51,0,1,1,0-7.019H321.217a3.51,3.51,0,0,1,0,7.019" transform="translate(27.073 26.806)" fill="#cdebfb"/>
        <path id="Path_18743" data-name="Path 18743" d="M274.727,321.231H183.246a6.7,6.7,0,0,1-6.7-6.7V272.689a6.7,6.7,0,0,1,6.7-6.7h91.481a6.7,6.7,0,0,1,6.7,6.7V314.53a6.7,6.7,0,0,1-6.7,6.7" transform="translate(27.073 40.79)" fill="#cdebfb"/>
        <path id="Path_18744" data-name="Path 18744" d="M374.268,321.231H282.787a6.7,6.7,0,0,1-6.7-6.7V272.689a6.7,6.7,0,0,1,6.7-6.7h91.481a6.7,6.7,0,0,1,6.7,6.7V314.53a6.7,6.7,0,0,1-6.7,6.7" transform="translate(42.338 40.79)" fill="#cdebfb"/>
      </g>
    </g>
    <text id="_" data-name="+" transform="translate(303.22 75.534)" fill="#38aff1" font-size="19" font-family="Overpass-Bold, Overpass" font-weight="700"><tspan x="0" y="0">+</tspan></text>
    <g id="Group_11988" data-name="Group 11988">
      <g id="Group_11987" data-name="Group 11987">
        <path id="Path_18745" data-name="Path 18745" d="M200.28,204.267A11.867,11.867,0,1,1,188.413,192.4a11.867,11.867,0,0,1,11.867,11.867" transform="translate(27.073 29.505)" fill="#fff"/>
        <path id="Path_18746" data-name="Path 18746" d="M191.841,197.564a.515.515,0,0,0-.4.286l-5.409,8.013-2.548-2.519a.57.57,0,0,0-.858-.143l-1,1a.813.813,0,0,0,0,1l3.864,3.864a1.946,1.946,0,0,0,.859.344.99.99,0,0,0,.8-.458l6.611-9.7c.23-.344.087-.63-.343-.858l-1.088-.8a.915.915,0,0,0-.487-.029" transform="translate(27.826 30.294)" fill="#079cee"/>
        <path id="Path_18747" data-name="Path 18747" d="M364.888,201.425H207.229a3.51,3.51,0,0,1,0-7.019h157.66a3.51,3.51,0,0,1,0,7.019" transform="translate(31.24 29.812)" fill="#cdebfb"/>
        <path id="Path_18748" data-name="Path 18748" d="M288.4,211.905H207.229a3.51,3.51,0,0,1,0-7.019H288.4a3.51,3.51,0,1,1,0,7.019" transform="translate(31.24 31.419)" fill="#cdebfb"/>
        <path id="Path_18749" data-name="Path 18749" d="M200.28,235.766A11.867,11.867,0,1,1,188.413,223.9a11.867,11.867,0,0,1,11.867,11.867" transform="translate(27.073 34.335)" fill="#fff"/>
        <path id="Path_18750" data-name="Path 18750" d="M191.841,229.063a.515.515,0,0,0-.4.286l-5.409,8.013-2.548-2.519a.57.57,0,0,0-.858-.143l-1,1a.813.813,0,0,0,0,1l3.864,3.864a1.946,1.946,0,0,0,.859.344.99.99,0,0,0,.8-.458l6.611-9.7c.23-.344.087-.63-.343-.858l-1.088-.8a.915.915,0,0,0-.487-.029" transform="translate(27.826 35.124)" fill="#079cee"/>
        <path id="Path_18751" data-name="Path 18751" d="M306.878,232.924H207.23a3.51,3.51,0,0,1,0-7.019h99.648a3.51,3.51,0,1,1,0,7.019" transform="translate(31.241 34.643)" fill="#cdebfb"/>
        <path id="Path_18752" data-name="Path 18752" d="M253.783,243.4H207.229a3.51,3.51,0,0,1,0-7.019h46.554a3.51,3.51,0,1,1,0,7.019" transform="translate(31.24 36.25)" fill="#cdebfb"/>
        <path id="Path_18753" data-name="Path 18753" d="M132.121,299.787a9.17,9.17,0,0,1,9.669-2.961,10.794,10.794,0,0,1,5.247,3.822q4.488-2.24,8.83-4.286a18.012,18.012,0,0,0-.965-1.617,1.321,1.321,0,0,1-.075-1.394l2.858-5.075a1.324,1.324,0,0,0-.322-1.683L154,283.881a1.327,1.327,0,0,0-1.708.037l-4.37,3.845a1.326,1.326,0,0,1-1.386.213,18.874,18.874,0,0,0-3.852-1.118,1.326,1.326,0,0,1-1.054-.955l-1.495-5.635a1.326,1.326,0,0,0-1.419-.978l-4.389.457a1.326,1.326,0,0,0-1.186,1.247l-.318,5.793A1.317,1.317,0,0,1,132,287.93a19.244,19.244,0,0,0-3.551,1.954,1.319,1.319,0,0,1-1.4.082l-5.19-2.9a1.325,1.325,0,0,0-1.678.325l-2.71,3.36a1.327,1.327,0,0,0,.045,1.716l3.934,4.394a1.324,1.324,0,0,1,.217,1.412,19,19,0,0,0-1.223,3.835,1.32,1.32,0,0,1-.918,1.029l-5.63,1.627a1.33,1.33,0,0,0-.952,1.4l.4,4.275a1.325,1.325,0,0,0,1.223,1.2l5.92.438a1.321,1.321,0,0,1,1.11.813c.185.428.411.837.631,1.25q4.372-2.574,8.659-4.966a9.158,9.158,0,0,1,1.239-9.385" transform="translate(17.319 42.828)" fill="#ec7853"/>
        <path id="Path_18754" data-name="Path 18754" d="M86.27,322.045a1.989,1.989,0,0,1,.438-.231c8.147-2.76,14.6,1.089,16.756,6.74.942-.66,1.868-1.323,2.825-1.98q8.067-5.55,15.96-10.436l-1.471-2.619a1.33,1.33,0,0,0-1.605-.6l-7.828,2.813a1.318,1.318,0,0,1-1.394-.329,24.776,24.776,0,0,0-4.429-3.642,1.32,1.32,0,0,1-.617-1.257l.916-8.252a1.323,1.323,0,0,0-.947-1.419l-6.083-1.774a1.325,1.325,0,0,0-1.569.7l-3.552,7.45a1.315,1.315,0,0,1-1.21.739,24.728,24.728,0,0,0-5.664.586,1.31,1.31,0,0,1-1.319-.457l-5.125-6.493a1.325,1.325,0,0,0-1.677-.343l-5.553,3.046a1.327,1.327,0,0,0-.619,1.585l2.623,7.785a1.314,1.314,0,0,1-.329,1.353,25.8,25.8,0,0,0-3.577,4.586,1.316,1.316,0,0,1-1.281.623l-8.188-1.01a1.327,1.327,0,0,0-1.434.946l-1.774,6.084a1.323,1.323,0,0,0,.689,1.56l7.438,3.66a1.321,1.321,0,0,1,.731,1.213,23.885,23.885,0,0,0,.576,5.656,1.315,1.315,0,0,1-.457,1.34l-6.482,5.116a1.325,1.325,0,0,0-.34,1.678l3.047,5.56a1.328,1.328,0,0,0,1.577.621l7.918-2.6a1.3,1.3,0,0,1,1.339.334c.067.068.146.125.216.193q4.937-4.152,10.226-8.319c-5.809-4.534-6.948-14.092,1.251-20.206" transform="translate(8.969 45.853)" fill="#4699e6"/>
        <path id="Path_18755" data-name="Path 18755" d="M122.638,315.489l-2.975,5.135a1.326,1.326,0,0,0,.316,1.7l3.356,2.708a1.326,1.326,0,0,0,1.7-.032l4.53-3.946a1.317,1.317,0,0,1,1.377-.212,19.128,19.128,0,0,0,3.868,1.13,1.322,1.322,0,0,1,1.053.935l1.6,5.713a1.324,1.324,0,0,0,1.4.963l4.248-.4a1.324,1.324,0,0,0,1.2-1.243l.345-5.911a1.317,1.317,0,0,1,.821-1.137,19.73,19.73,0,0,0,3.56-1.955,1.317,1.317,0,0,1,1.4-.08l5.191,2.9a1.323,1.323,0,0,0,1.677-.325l2.71-3.359a1.326,1.326,0,0,0-.045-1.716l-3.944-4.407a1.327,1.327,0,0,1-.221-1.394,18.575,18.575,0,0,0,1.088-3.744,1.331,1.331,0,0,1,.919-1.047l5.767-1.7a1.324,1.324,0,0,0,.941-1.42l-.479-4.3a1.324,1.324,0,0,0-1.24-1.175l-5.919-.347a1.315,1.315,0,0,1-1.145-.843,19.64,19.64,0,0,0-.879-1.882q-4.341,2.04-8.83,4.286A20.317,20.317,0,0,1,147.4,300.3a1.482,1.482,0,0,1,.216.671c.672,10.479-9.269,14.141-15.13,9.424a9.01,9.01,0,0,1-2.605-3.5q-4.284,2.382-8.659,4.964a20.767,20.767,0,0,0,1.342,2.19,1.326,1.326,0,0,1,.077,1.432" transform="translate(18.323 45.099)" fill="#d56c4b"/>
        <path id="Path_18756" data-name="Path 18756" d="M77.5,352.918l-1.011,8.191a1.328,1.328,0,0,0,.946,1.436l6.083,1.774a1.326,1.326,0,0,0,1.562-.687l3.664-7.452a1.32,1.32,0,0,1,1.194-.728,25.2,25.2,0,0,0,5.711-.689,1.32,1.32,0,0,1,1.338.451l5.234,6.536a1.327,1.327,0,0,0,1.671.333l5.54-3.039a1.323,1.323,0,0,0,.61-1.609l-2.81-7.821a1.312,1.312,0,0,1,.329-1.39,25.233,25.233,0,0,0,3.645-4.431,1.316,1.316,0,0,1,1.257-.617l8.251.916a1.325,1.325,0,0,0,1.419-.947l1.775-6.083a1.327,1.327,0,0,0-.7-1.569l-7.453-3.552a1.319,1.319,0,0,1-.743-1.2,25.362,25.362,0,0,0-.692-5.693,1.318,1.318,0,0,1,.465-1.344l6.619-5.194a1.328,1.328,0,0,0,.338-1.693l-1.661-2.957q-7.882,4.9-15.962,10.436c-.956.657-1.882,1.321-2.823,1.98,1.77,4.645.638,10.5-4.873,14.93a1.936,1.936,0,0,1-.429.247c-5.292,2.006-9.93,1.029-13.145-1.481q-5.289,4.164-10.226,8.319a24.741,24.741,0,0,0,4.258,3.355,1.309,1.309,0,0,1,.623,1.272" transform="translate(11.137 48.131)" fill="#3e89cf"/>
        <path id="Path_18757" data-name="Path 18757" d="M433.882,184.919a6.417,6.417,0,1,1-4.556,7.849,6.417,6.417,0,0,1,4.556-7.849" transform="translate(65.804 28.324)" fill="#9bd7f8"/>
        <path id="Path_18758" data-name="Path 18758" d="M418.476,172.318a3.437,3.437,0,1,1-2.439,4.2,3.437,3.437,0,0,1,2.439-4.2" transform="translate(63.782 26.407)" fill="#9bd7f8"/>
        <path id="Path_18759" data-name="Path 18759" d="M405.129,181.779a2.308,2.308,0,1,1-1.639,2.823,2.309,2.309,0,0,1,1.639-2.823" transform="translate(61.863 27.864)" fill="#9bd7f8"/>
        <path id="Path_18760" data-name="Path 18760" d="M342.76,376.184h151.7a39.792,39.792,0,1,0,.012-79.584h-.012a39.407,39.407,0,0,0-7.024.631A53.189,53.189,0,0,0,386.763,288.8a39.427,39.427,0,0,0-8.5-.928,39.844,39.844,0,0,0-39.589,35.817,26.408,26.408,0,0,0,4.091,52.5" transform="translate(48.514 39.321)" fill="var(--ifm-cloud-accent)"/>
        <path id="Path_18761" data-name="Path 18761" d="M354.568,383.664H515.744a42.276,42.276,0,0,0,.377-84.552h-.377a41.954,41.954,0,0,0-7.463.67,56.509,56.509,0,0,0-106.963-8.962,41.875,41.875,0,0,0-9.031-.985,42.333,42.333,0,0,0-42.066,38.052,28.058,28.058,0,0,0,4.347,55.776" transform="translate(50.07 39.32)" fill="var(--ifm-cloud-color)"/>
        <g id="Group_11986" data-name="Group 11986" transform="translate(508.223 245.182)" opacity="0.2">
          <g id="Group_11985" data-name="Group 11985">
            <g id="Group_11984" data-name="Group 11984" clip-path="url(#clip-path-4)">
              <path id="Path_18762" data-name="Path 18762" d="M548.4,328.508H448.827a8.179,8.179,0,0,1-8.178-8.178V220.76a8.179,8.179,0,0,1,8.178-8.178H548.4a8.179,8.179,0,0,1,8.178,8.178v99.569a8.179,8.179,0,0,1-8.178,8.178" transform="translate(-440.649 -212.582)" fill="#084062"/>
            </g>
          </g>
        </g>
        <path id="Path_18763" data-name="Path 18763" d="M543.35,323.462H443.781a8.179,8.179,0,0,1-8.178-8.178V215.714a8.179,8.179,0,0,1,8.178-8.178H543.35a8.179,8.179,0,0,1,8.178,8.178v99.569a8.179,8.179,0,0,1-8.178,8.178" transform="translate(66.8 31.826)" fill="#9bd7f8"/>
        <path id="Rectangle_3573" data-name="Rectangle 3573" d="M4.578,0H46.89a4.578,4.578,0,0,1,4.578,4.578V55a4.577,4.577,0,0,1-4.577,4.577H4.578A4.578,4.578,0,0,1,0,55V4.578A4.578,4.578,0,0,1,4.578,0Z" transform="translate(534.631 269.764)" fill="#fff"/>
        <path id="Path_18764" data-name="Path 18764" d="M510.125,296.795H469.216a8.221,8.221,0,0,1-8.211-8.211V239.566a8.22,8.22,0,0,1,8.211-8.211h40.909a8.22,8.22,0,0,1,8.211,8.211v49.019a8.221,8.221,0,0,1-8.211,8.211m-40.909-62.509a5.286,5.286,0,0,0-5.28,5.28v49.019a5.287,5.287,0,0,0,5.28,5.28h40.909a5.286,5.286,0,0,0,5.279-5.28V239.566a5.285,5.285,0,0,0-5.279-5.28Z" transform="translate(70.695 35.478)" fill="#079cee"/>
        <path id="Path_18765" data-name="Path 18765" d="M506.8,241.589H470.38a1.6,1.6,0,1,1,0-3.207H506.8a1.6,1.6,0,1,1,0,3.207" transform="translate(71.887 36.556)" fill="#075e91"/>
        <path id="Path_18766" data-name="Path 18766" d="M500.4,247.166H490.032a1.6,1.6,0,1,1,0-3.207H500.4a1.6,1.6,0,1,1,0,3.207" transform="translate(74.901 37.411)" fill="#9a59c5"/>
        <path id="Path_18767" data-name="Path 18767" d="M487.231,247.166H470.379a1.6,1.6,0,1,1,0-3.207h16.852a1.6,1.6,0,1,1,0,3.207" transform="translate(71.887 37.411)" fill="#00bf8c"/>
        <path id="Path_18768" data-name="Path 18768" d="M476.839,252.686H470.38a1.6,1.6,0,1,1,0-3.207h6.459a1.6,1.6,0,1,1,0,3.207" transform="translate(71.887 38.258)" fill="#075e91"/>
        <path id="Path_18769" data-name="Path 18769" d="M505.563,252.8h-24.34a1.6,1.6,0,1,1,0-3.207h24.34a1.6,1.6,0,1,1,0,3.207" transform="translate(73.55 38.275)" fill="#00bf8c"/>
        <path id="Path_18770" data-name="Path 18770" d="M487.6,263.84h14.381a1.6,1.6,0,0,0,0-3.207H487.6a1.6,1.6,0,1,0,0,3.207" transform="translate(74.528 39.968)" fill="#075e91"/>
        <path id="Path_18771" data-name="Path 18771" d="M470.379,263.956h13.766a1.6,1.6,0,1,0,0-3.207H470.379a1.6,1.6,0,1,0,0,3.207" transform="translate(71.887 39.986)" fill="#9a59c5"/>
        <path id="Path_18772" data-name="Path 18772" d="M502.31,258.321H470.379a1.6,1.6,0,0,1,0-3.207H502.31a1.6,1.6,0,1,1,0,3.207" transform="translate(71.887 39.122)" fill="#ff6f47"/>
        <path id="Path_18773" data-name="Path 18773" d="M506.8,269.562H470.38a1.6,1.6,0,1,1,0-3.207H506.8a1.6,1.6,0,1,1,0,3.207" transform="translate(71.887 40.846)" fill="#00bf8c"/>
        <path id="Path_18774" data-name="Path 18774" d="M500.4,275.14H490.032a1.6,1.6,0,1,1,0-3.207H500.4a1.6,1.6,0,1,1,0,3.207" transform="translate(74.901 41.701)" fill="#9a59c5"/>
        <path id="Path_18775" data-name="Path 18775" d="M487.231,275.14H470.379a1.6,1.6,0,1,1,0-3.207h16.852a1.6,1.6,0,1,1,0,3.207" transform="translate(71.887 41.701)" fill="#075e91"/>
        <path id="Path_18776" data-name="Path 18776" d="M476.839,280.659H470.38a1.6,1.6,0,1,1,0-3.207h6.459a1.6,1.6,0,1,1,0,3.207" transform="translate(71.887 42.547)" fill="#00bf8c"/>
        <path id="Path_18777" data-name="Path 18777" d="M505.563,280.776h-24.34a1.6,1.6,0,1,1,0-3.208h24.34a1.6,1.6,0,1,1,0,3.208" transform="translate(73.55 42.565)" fill="#ff6f47"/>
        <path id="Path_18778" data-name="Path 18778" d="M502.883,232.057c-3.379.135-2.534-2.562-4.52-4.478s-4.175-.152-5.829,1.123c-2.129,1.645-4.272,3.376-7.109,3.361" transform="translate(74.44 34.77)" fill="#079cee"/>
        <path id="Path_18779" data-name="Path 18779" d="M498.574,225.127a1.743,1.743,0,1,1,1.744,1.744,1.744,1.744,0,0,1-1.744-1.744" transform="translate(76.457 34.256)" fill="#079cee"/>
        <path id="Path_18780" data-name="Path 18780" d="M503.509,225.719a.939.939,0,1,1,.939.94.939.939,0,0,1-.939-.94" transform="translate(77.213 34.47)" fill="#079cee"/>
        <path id="Path_18781" data-name="Path 18781" d="M469.689,94.1a213.6,213.6,0,0,1,28.617,23.6h-55.94A14.162,14.162,0,0,1,428.2,103.544V71.856A214.251,214.251,0,0,1,469.689,94.1" transform="translate(65.665 11.019)" fill="#b08bd0"/>
        <path id="Path_18782" data-name="Path 18782" d="M442.366,53.294h65.261a14.162,14.162,0,0,1,14.162,14.162v40.229a12.959,12.959,0,0,1-11.858,12.868h-16.84c-5.242.128-29.42.156-48.324-18.263A64.363,64.363,0,0,1,428.2,74.7V67.456a14.163,14.163,0,0,1,14.162-14.162" transform="translate(65.665 8.173)" fill="#905cbe"/>
      </g>
    </g>
    <g id="Group_11990" data-name="Group 11990" transform="translate(493.872 61.467)">
      <g id="Group_11989" data-name="Group 11989" clip-path="url(#clip-path-5)">
        <path id="Path_18783" data-name="Path 18783" d="M461.731,111.433l-.078-.014" transform="translate(-423.077 -44.381)" fill="none" stroke="#dccdea" stroke-linecap="round" stroke-linejoin="round" stroke-width="2.2"/>
        <path id="Path_18784" data-name="Path 18784" d="M457.173,115.42c-12.115-5.958-18.037-19.546-14.667-29.992,3.777-11.709,17.576-19.324,34.2-15.293" transform="translate(-426.157 -50.878)" fill="none" stroke="#dccdea" stroke-linecap="round" stroke-linejoin="round" stroke-width="2.2" stroke-dasharray="0.111 5.526"/>
        <path id="Path_18785" data-name="Path 18785" d="M475.357,70.961l.075.027" transform="translate(-420.975 -50.585)" fill="none" stroke="#dccdea" stroke-linecap="round" stroke-linejoin="round" stroke-width="2.2"/>
        <line id="Line_61" data-name="Line 61" x2="14.5" y2="22.784" transform="translate(59.528 12.084)" fill="none" stroke="#dccdea" stroke-linecap="round" stroke-linejoin="round" stroke-width="4.4"/>
        <line id="Line_62" data-name="Line 62" y1="14.5" x2="22.784" transform="translate(55.385 16.225)" fill="none" stroke="#dccdea" stroke-linecap="round" stroke-linejoin="round" stroke-width="4.4"/>
      </g>
    </g>
  </g>
</svg>
