<svg xmlns="http://www.w3.org/2000/svg" width="100" height="100" viewBox="0 0 100 100">
    <defs>
        <style>.mfa__cls-1{fill:#e6f5fd;}.mfa__cls-2{fill:#fff;}.mfa__cls-3{fill:#046149;}.mfa__cls-4{fill:#00bf8c;}.mfa__cls-5{fill:#fffff2;}</style>
    </defs>
    <g id="Layer_2" data-name="Layer 2">
        <g id="Layer_1-2" data-name="Layer 1">
            <circle class="mfa__cls-1" cx="50" cy="50" r="50" />
            <ellipse class="mfa__cls-2" cx="50" cy="76.97" rx="25.33" ry="6.01" />
            <g id="surface1">
                <path class="mfa__cls-3" d="M61.53,17H38.47a6.29,6.29,0,0,0-6.29,6.29V73.05a6.29,6.29,0,0,0,6.29,6.28H61.53a6.29,6.29,0,0,0,6.29-6.28V23.31A6.29,6.29,0,0,0,61.53,17ZM47.9,19.12h4.2a1.05,1.05,0,0,1,0,2.1H47.9a1.05,1.05,0,0,1,0-2.1Zm2.77,57.57a2.68,2.68,0,1,1,1.93-1.93A2.69,2.69,0,0,1,50.67,76.69Z" />
            </g>
            <circle class="mfa__cls-4" cx="50" cy="48.18" r="18.41" />
            <g id="surface1-2" data-name="surface1">
                <path class="mfa__cls-5" d="M49.34,33.63a12.4,12.4,0,0,0-5,1,.61.61,0,0,0-.43.51.64.64,0,0,0,.27.62.62.62,0,0,0,.67,0,11.15,11.15,0,0,1,4.44-.88,13.51,13.51,0,0,1,6.33,1.47.62.62,0,0,0,.85-.26.63.63,0,0,0-.26-.86A14.85,14.85,0,0,0,49.34,33.63ZM42.5,35.71a.77.77,0,0,0-.28.12,17.9,17.9,0,0,0-4,4.08c-.47.65-.86,1.24-1.18,1.7a6.31,6.31,0,0,1-.67.86.65.65,0,0,0-.31.61.63.63,0,0,0,.42.53.6.6,0,0,0,.66-.15,5.47,5.47,0,0,0,.93-1.12c.33-.48.72-1.06,1.18-1.68a16.22,16.22,0,0,1,3.7-3.78.63.63,0,0,0,.27-.73.65.65,0,0,0-.64-.44Zm7.25,1.07a.64.64,0,0,0-.54.72.63.63,0,0,0,.72.54c6.41.37,9.12,3.94,10.27,8a20.52,20.52,0,0,1,0,10.27.63.63,0,1,0,1.2.39,21,21,0,0,0,0-11c-1.24-4.38-4.54-8.51-11.41-8.91h-.26Zm8.56,0a.63.63,0,0,0-.51.49.64.64,0,0,0,.27.65c4.93,3.41,5.71,11.12,5.71,11.12a.65.65,0,0,0,.69.57.64.64,0,0,0,.58-.69s-.68-8.16-6.27-12A.62.62,0,0,0,58.31,36.82Zm-11,.19,0,0c-4.36.87-6.47,3.87-8.1,6.41a.63.63,0,1,0,1.06.69c1.62-2.51,3.38-5.1,7.28-5.87a.64.64,0,0,0,.47-.72A.63.63,0,0,0,47.33,37ZM50,39.93a7.87,7.87,0,0,0-5.16,1.76.63.63,0,1,0,.78,1A6.61,6.61,0,0,1,50,41.19a9.16,9.16,0,0,1,1.6.14.64.64,0,0,0,.61-.2.65.65,0,0,0,.11-.64.62.62,0,0,0-.51-.4A10.6,10.6,0,0,0,50,39.93Zm3.94.91-.06,0A.63.63,0,0,0,53.71,42c2.77,1.41,4.46,4.48,4.46,8.61a21,21,0,0,1-.38,3.77.64.64,0,0,0,1.25.23,23,23,0,0,0,.39-4c0-4.48-1.9-8.08-5.14-9.73A.64.64,0,0,0,53.91,40.84ZM50,43.08a5.8,5.8,0,0,0-3.88,1.35,9.65,9.65,0,0,0-2.21,3,.64.64,0,0,0,.27.86A.63.63,0,0,0,45,48a8.75,8.75,0,0,1,1.9-2.6,4.43,4.43,0,0,1,3.07-1,4.36,4.36,0,0,1,3,1.06A5.75,5.75,0,0,1,54.6,48a.63.63,0,0,0,.46.46.63.63,0,0,0,.74-.83,7,7,0,0,0-2-3.16A5.72,5.72,0,0,0,50,43.08Zm-6.64.36a.64.64,0,0,0-.42.28c-1.25,1.7-2.16,3.59-3.21,4.94s-2.08,2.16-3.92,2a.64.64,0,0,0-.69.57.63.63,0,0,0,.57.69,5.53,5.53,0,0,0,5.05-2.48c1.17-1.52,2-3.4,3.21-5a.62.62,0,0,0,.08-.65.63.63,0,0,0-.55-.37h-.12Zm-5,1.77-.1,0a.67.67,0,0,0-.39.26,5.19,5.19,0,0,1-2.39,2,.63.63,0,1,0,.42,1.18,6.43,6.43,0,0,0,3-2.48.62.62,0,0,0,.07-.69A.64.64,0,0,0,38.32,45.21Zm10.59.63a.83.83,0,0,0-.22.08,5,5,0,0,0-2,3,32.09,32.09,0,0,1-1.2,3.29C44.22,54.59,41.86,57,38.62,57a.63.63,0,1,0,0,1.26c3.84,0,6.58-2.75,8-5.42a28.32,28.32,0,0,0,1.26-3.45A4.35,4.35,0,0,1,49.3,47a.63.63,0,0,0-.39-1.19Zm2.18.12a.64.64,0,0,0-.51.51.63.63,0,0,0,.3.66c.62.42,1,1.53,1,3a17.67,17.67,0,0,1-1.24,5.5,13.85,13.85,0,0,1-4.47,6.23.63.63,0,0,0-.16.88.64.64,0,0,0,.89.16,14.9,14.9,0,0,0,4.9-6.82,18.18,18.18,0,0,0,1.34-5.95c0-1.63-.35-3.2-1.55-4A.68.68,0,0,0,51.09,46Zm-1.22,2.8a.63.63,0,0,0-.53.59,14.93,14.93,0,0,1-1.22,4.52.62.62,0,0,0,0,.67.64.64,0,0,0,.62.27.61.61,0,0,0,.51-.43,16.3,16.3,0,0,0,1.34-5,.62.62,0,0,0-.2-.51A.64.64,0,0,0,49.87,48.76Zm-6.76.63a.6.6,0,0,0-.43.34,9.09,9.09,0,0,1-2.19,2.89,5.69,5.69,0,0,1-3.78,1.19.62.62,0,0,0-.56.31.64.64,0,0,0,0,.63.65.65,0,0,0,.56.32,7.12,7.12,0,0,0,4.57-1.46,10.3,10.3,0,0,0,2.52-3.27.62.62,0,0,0,0-.67.64.64,0,0,0-.61-.28ZM55.59,50l-.08,0a.64.64,0,0,0-.5.63A20.15,20.15,0,0,1,51.21,62a.64.64,0,0,0,1,.79,21.43,21.43,0,0,0,4.06-12.16.64.64,0,0,0-.69-.65Zm-8.1,5.56a.61.61,0,0,0-.46.3,11.3,11.3,0,0,1-5,4.23.63.63,0,1,0,.49,1.17,12.77,12.77,0,0,0,5.56-4.71.63.63,0,0,0-.59-1Zm10.22,1a.63.63,0,0,0-.51.49c-.49,1.87-1,3.17-1,3.17a.63.63,0,1,0,1.18.43s.51-1.35,1-3.29a.62.62,0,0,0-.65-.8Z" />
            </g>
        </g>
    </g>
</svg>
