<?xml version="1.0" encoding="UTF-8"?>
<svg xmlns="http://www.w3.org/2000/svg" viewBox="0 0 69.3 65.21"><defs><style>.fe028756-71e9-4cbe-b39a-c5661fe81ed3{fill:#9a59c5;}</style></defs><g id="bddef927-0f07-4235-94ec-08e0b7964549" data-name="Layer 2"><g id="b49f70f4-206d-48f8-a797-12ee22d83909" data-name="Layer 1"><g id="a2d15771-554a-4911-bf3f-9bf585a6ce15" data-name="Voice Icon"><g id="a6663bad-8536-4f82-a480-fda2b159a202" data-name="Voice Icon-2"><path id="a3ef000e-d556-4210-8b8c-aad50cc9c5ab" data-name="Path 866" class="fe028756-71e9-4cbe-b39a-c5661fe81ed3" d="M4.88,26.3A4.89,4.89,0,1,1,0,31.19H0A4.89,4.89,0,0,1,4.88,26.3"/><path id="f1cf5284-c6e3-47f4-a222-55e1206efb2b" data-name="Path 867" class="fe028756-71e9-4cbe-b39a-c5661fe81ed3" d="M64.81,26.3a4.49,4.49,0,1,1-4.49,4.49,4.49,4.49,0,0,1,4.49-4.49h0"/><path id="ba21497b-d64d-408e-b1e8-0dad8ed2254c" data-name="Path 868" class="fe028756-71e9-4cbe-b39a-c5661fe81ed3" d="M34.41,27.72A18.75,18.75,0,1,1,15.75,46.54v-.08A18.74,18.74,0,0,1,34.41,27.72"/><path id="a73a3185-1c00-46fd-b713-fc7792349fc4" data-name="Path 869" class="fe028756-71e9-4cbe-b39a-c5661fe81ed3" d="M34.41,0a9.69,9.69,0,1,1-9.68,9.69h0A9.68,9.68,0,0,1,34.41,0"/></g></g></g></g></svg>