<svg id="Layer_1" data-name="Layer 1" xmlns="http://www.w3.org/2000/svg" viewBox="17.5 15 65 65"><defs><style>.cls-3{fill:none}</style></defs><path d="M57.11 40.5a1.15 1.15 0 0 0-.91 1.17v23a1.14 1.14 0 0 0 .5 1.15 1.15 1.15 0 0 0 1.77-1.15v-23a1.16 1.16 0 0 0-1.25-1.17zm-14.52 1.21a1.15 1.15 0 0 0-.91 1.17v20.57a1.14 1.14 0 0 0 .5 1.15A1.15 1.15 0 0 0 44 63.45V42.88a1.16 1.16 0 0 0-1.25-1.17zm10.89 3.63a1.15 1.15 0 0 0-.91 1.17v13.31a1.14 1.14 0 0 0 .5 1.15 1.15 1.15 0 0 0 1.77-1.15V46.51a1.16 1.16 0 0 0-1.25-1.17zM39 46.55a1.15 1.15 0 0 0-.91 1.17v10.89a1.14 1.14 0 0 0 .5 1.15 1.15 1.15 0 0 0 1.77-1.15V47.72a1.16 1.16 0 0 0-1.25-1.17zm7.26 1.21a1.15 1.15 0 0 0-.91 1.17v8.47a1.14 1.14 0 0 0 .5 1.15 1.15 1.15 0 0 0 1.77-1.15v-8.47a1.16 1.16 0 0 0-1.25-1.17zm14.52 0a1.15 1.15 0 0 0-.91 1.17v8.47a1.14 1.14 0 0 0 .5 1.15 1.15 1.15 0 0 0 1.73-1.15v-8.47a1.16 1.16 0 0 0-1.25-1.17zm-25.45 2.42a1.15 1.15 0 0 0-.91 1.17V55a1.14 1.14 0 0 0 .5 1.15A1.15 1.15 0 0 0 36.69 55v-3.65a1.16 1.16 0 0 0-1.25-1.17zm14.52 0a1.15 1.15 0 0 0-.91 1.17V55a1.14 1.14 0 0 0 .5 1.15A1.15 1.15 0 0 0 51.21 55v-3.65A1.16 1.16 0 0 0 50 50.18zm14.52 0a1.15 1.15 0 0 0-.91 1.17V55a1.14 1.14 0 0 0 .5 1.15A1.15 1.15 0 0 0 65.73 55v-3.65a1.16 1.16 0 0 0-1.25-1.17z" style="fill:#00bf8c" id="surface1"/><path class="cls-3" d="M26.33 32.05a1.62 1.62 0 1 0-1.61-1.61 1.62 1.62 0 0 0 1.61 1.61zM36.33 32.05a1.62 1.62 0 1 0-1.61-1.61 1.62 1.62 0 0 0 1.61 1.61zM31.33 32.05a1.62 1.62 0 1 0-1.61-1.61 1.62 1.62 0 0 0 1.61 1.61z"/><path d="M73.72 23.91H26.28A7 7 0 0 0 19.16 31v38a7 7 0 0 0 7.12 7.11h47.44A7 7 0 0 0 80.84 69V31a7 7 0 0 0-7.12-7.09zm-37.39 4.91a1.62 1.62 0 1 1 0 3.23 1.62 1.62 0 0 1 0-3.23zm-5 0a1.62 1.62 0 1 1 0 3.23 1.62 1.62 0 0 1 0-3.23zm-5 0a1.62 1.62 0 1 1 0 3.23 1.62 1.62 0 0 1 0-3.23zM76.09 69a2.24 2.24 0 0 1-2.37 2.37H26.28A2.24 2.24 0 0 1 23.91 69V35.77h52.18z" style="fill:#9a59c5"/></svg>