<svg id="bfc6caa0-0f67-473c-8def-a47bcc228231" data-name="Layer 1" xmlns="http://www.w3.org/2000/svg" xmlns:xlink="http://www.w3.org/1999/xlink" viewBox="0 0 100 100"><defs><style>.ef4b0116-1666-4e2e-a782-aca9da86f37e{fill:none;}.e4865339-8c91-42a1-85ea-b2e1be704b08{fill:#079cee;}.be9dc132-c5c7-413b-ac52-507cf9de7533{fill:#078cd6;}.b4368441-dab8-4e44-bb57-f0ba91cef325{fill:#b4e1f9;}.bf59fddb-3e00-4c68-937b-2a64ea040743{clip-path:url(#f7f51e2b-bbf8-4c33-82b2-2ea51e464b06);}.b4b9d7c9-310a-4d0b-9782-063fbd9848de{fill:#4cd2ae;}</style><clipPath id="f7f51e2b-bbf8-4c33-82b2-2ea51e464b06"><circle class="ef4b0116-1666-4e2e-a782-aca9da86f37e" cx="29.33" cy="34.85" r="15.65"/></clipPath></defs><path class="e4865339-8c91-42a1-85ea-b2e1be704b08" d="M38.28,69.47a16.86,16.86,0,0,0,2.93-5.81l.76.67c1.41,1.23,4,7,14.18-4.72s4.11-13.46,2.69-14.68L56.9,43.24l-.31-.3a14.38,14.38,0,0,0,8-6.86,14,14,0,0,0,1.26-8.81,5.28,5.28,0,0,1,.87.63l1.74,1.52a17,17,0,0,1,6.37,10.81c.58,3.25,5.19,1.25,5.67,4.32.3,1.91-2.16,3.19-3.42,4.18-1.69,1.33-3.49,2.72-4.48,4.68a62,62,0,0,1-8.67,13C55.53,76,47.32,80.88,39.54,80.8A16.4,16.4,0,0,1,28,76l-.21-.19A17.66,17.66,0,0,0,38.28,69.47Z"/><path class="be9dc132-c5c7-413b-ac52-507cf9de7533" d="M64.57,36.08a14.38,14.38,0,0,1-8,6.86c-2.8-2.75-1.6-6.15.63-9.65l1.4-2.19c2.11-3.29,4.4-5.54,7.21-3.83A14,14,0,0,1,64.57,36.08Z"/><path class="be9dc132-c5c7-413b-ac52-507cf9de7533" d="M28.26,66l2-1.69c3.27-2.79,6.58-4.49,9.81-1.7l1.17,1a16.86,16.86,0,0,1-2.93,5.81,17.66,17.66,0,0,1-10.54,6.34L26.2,74.47C23,71.68,25,68.84,28.26,66Z"/><circle class="e4865339-8c91-42a1-85ea-b2e1be704b08" cx="83.96" cy="47.43" r="1.69"/><circle class="e4865339-8c91-42a1-85ea-b2e1be704b08" cx="85.54" cy="51.82" r="0.78"/><path class="b4368441-dab8-4e44-bb57-f0ba91cef325" d="M45,34.11A15.65,15.65,0,1,0,13.7,35.6c.19,4.11,2.38,7.54,4.69,10.8,1.48,2.08,3.18,3.61,4.05,6.06.35,1,1,3.65,2.35,3.63S26,53.89,26.39,53a4.53,4.53,0,0,1,3-2.24C31.59,50,33.83,50,36,49a15.63,15.63,0,0,0,9-14.89Z"/><g class="bf59fddb-3e00-4c68-937b-2a64ea040743"><path class="b4b9d7c9-310a-4d0b-9782-063fbd9848de" d="M38.16,21.72l-.11.15-3.84,1.56a15.33,15.33,0,0,0-1.63,1.69c-.18.34-1.45.92-1.45.92a26.35,26.35,0,0,0-4.37.79c-.42.33-.3,2.12-.3,2.12l1.64,2.81a.42.42,0,0,0,.58.15c.22-.12.45-.28.68-.41a1.33,1.33,0,0,1,1-.27.69.69,0,0,1,.49.46.89.89,0,0,1-.28.72c-.37.44-.73.88-1.09,1.34l-1.11,1.41-.22.29a2,2,0,0,0-.29,1.46l.07.37a2,2,0,0,1-.3,1.49l-1,1.52a1.54,1.54,0,0,0-.17.31L25.33,43a.46.46,0,0,1-.43.3l-1.1.06a.44.44,0,0,1-.4-.23.51.51,0,0,1,.06-.59l.11-.1a.51.51,0,0,0,.1-.49l-1.24-4.18s0,0,0-.05l-.84-2a1.41,1.41,0,0,1-.11-.45v-.1a1.3,1.3,0,0,0-.77-1.13l-.07,0A1.26,1.26,0,0,0,19.9,34l-1.46.23a1.28,1.28,0,0,1-1.14-.39l-1-1a1.29,1.29,0,0,1-.34-.83l-.05-1a1.29,1.29,0,0,1,.33-.93l1.13-1.26a1.51,1.51,0,0,0,.18-.26l.36-.68A1.29,1.29,0,0,1,19,27.17l1.58-.08a1.24,1.24,0,0,1,1,.38,1.27,1.27,0,0,0,1,.38l.59,0,.42-1.69a4.17,4.17,0,0,1-1-1.16,3.35,3.35,0,0,0-2-1.06,6.83,6.83,0,0,1-1.57-1l0,0a15.78,15.78,0,0,1,19.18-1.15Z"/><path class="b4b9d7c9-310a-4d0b-9782-063fbd9848de" d="M45.16,34.15a15.89,15.89,0,0,1-8.4,14.78l-2.3-4.34a.65.65,0,0,1-.06-.21l0-1a.48.48,0,0,0-.35-.46l-1-.29a.57.57,0,0,1-.21-.13l-.32-.3a.5.5,0,0,1-.13-.47.51.51,0,0,1,.31-.36l2.22-.79a.56.56,0,0,1,.47.07L37,41.78a.5.5,0,0,0,.32.09l.9,0a.52.52,0,0,0,.41-.24.51.51,0,0,0,0-.48l-1.44-2.72a.47.47,0,0,1,0-.4.48.48,0,0,1,.28-.28l.42-.17a.5.5,0,0,0,.28-.63l-.52-1.42a2.44,2.44,0,0,1,.17-2.06l.17-.3a.51.51,0,0,1,.42-.26l.61,0a.48.48,0,0,0,.35-.16.45.45,0,0,0,.13-.35l0-.56a.5.5,0,0,1,.42-.52l2.81-.5a1.43,1.43,0,0,1,.89.11l.23.11a1.57,1.57,0,0,0,.64.14h.32a16.39,16.39,0,0,1,.44,3Z"/></g><circle class="b4368441-dab8-4e44-bb57-f0ba91cef325" cx="26.27" cy="59.02" r="1.16"/><circle class="b4368441-dab8-4e44-bb57-f0ba91cef325" cx="27.73" cy="61.57" r="0.53"/></svg>