<svg id="edd9bdb4-ba95-4e92-969b-8586aa1887be" data-name="Layer 1" xmlns="http://www.w3.org/2000/svg" viewBox="0 0 100 100"><defs><style>.ebe5c116-eb47-4bb4-a3f7-3ad615bcff1c{fill:#9a59c5;}.afb55356-8f70-48c6-86e2-c6d9660c397f{fill:#079cee;}.f605a908-8970-4492-92d3-e479bc4b255c{fill:#00bf8c;}.f76c4697-9b5f-4154-901e-266fdaea0a72{fill:#ff6f47;}.fcbb9853-89c2-42aa-89aa-f8d88fa43b2f{fill:#078cd6;}</style></defs><path class="ebe5c116-eb47-4bb4-a3f7-3ad615bcff1c" d="M35.72,52.16a4.41,4.41,0,0,1,0-8.82v-4.6A9,9,0,1,0,43,53.11L39,50.66A4.39,4.39,0,0,1,35.72,52.16Z"/><path class="afb55356-8f70-48c6-86e2-c6d9660c397f" d="M38,39.51l-1.71,8,7.47,3.45A7.16,7.16,0,0,0,38,39.51Z"/><rect class="afb55356-8f70-48c6-86e2-c6d9660c397f" x="49.9" y="35.43" width="3.8" height="24.63" rx="0.72"/><rect class="f605a908-8970-4492-92d3-e479bc4b255c" x="60.68" y="37.25" width="3.8" height="22.82" rx="0.72"/><rect class="f76c4697-9b5f-4154-901e-266fdaea0a72" x="55.29" y="43.38" width="3.8" height="16.68" rx="0.72"/><rect class="ebe5c116-eb47-4bb4-a3f7-3ad615bcff1c" x="66.07" y="38.28" width="3.8" height="21.78" rx="0.72"/><path class="afb55356-8f70-48c6-86e2-c6d9660c397f" d="M72.56,68.34H25.2a6.09,6.09,0,0,1-6.09-6.08v-29a6.09,6.09,0,0,1,6.09-6.09H72.56a6.09,6.09,0,0,1,6.08,6.09s-.06,2.87,0,5.94,2.52.8,3.43,2.89-3.4,6-3.43,9.61,0,10.58,0,10.58A6.09,6.09,0,0,1,72.56,68.34ZM25.2,31.55a1.69,1.69,0,0,0-1.69,1.69v29a1.69,1.69,0,0,0,1.69,1.68H72.56a1.68,1.68,0,0,0,1.68-1.68v-29a1.69,1.69,0,0,0-1.68-1.69Z"/><rect class="fcbb9853-89c2-42aa-89aa-f8d88fa43b2f" x="13.73" y="67.49" width="70.3" height="5.36" rx="1.71"/><path class="afb55356-8f70-48c6-86e2-c6d9660c397f" d="M82.56,39.19a1.5,1.5,0,1,1,1.57,1.44,1.51,1.51,0,0,1-1.57-1.44"/><circle class="afb55356-8f70-48c6-86e2-c6d9660c397f" cx="85.52" cy="35.35" r="0.75"/></svg>