<svg xmlns="http://www.w3.org/2000/svg" width="100" height="100" viewBox="0 0 100 100">
    <defs>
        <style>
            .numbers-no-bg__cls-1 {
                fill: #fff;
            }
            .numbers-no-bg__cls-2 {
                fill: #652b51;
            }
            .numbers-no-bg__cls-3 {
                font-size: 18.46px;
                fill: #9a59c5;
                font-family: Overpass-Black, Overpass;
                font-weight: 800;
            }
        </style>
    </defs>
    <g id="Layer_2" data-name="Layer 2">
        <g id="Layer_1-2" data-name="Layer 1"><path class="numbers-no-bg__cls-2" d="M57.05,57.88H41.67a5.13,5.13,0,1,1,0-10.25h0c0-.11,0-.22,0-.32a6.73,6.73,0,0,1,13.19-1.86,6.24,6.24,0,0,1,2.19-.39,6.41,6.41,0,1,1,0,12.82Z"/>
            <text class="numbers-no-bg__cls-3" transform="translate(45.49 23.28)">1</text>
            <text class="numbers-no-bg__cls-3" transform="translate(23.35 29.97)">0</text>
            <text class="numbers-no-bg__cls-3" transform="translate(10.72 47.21)">9</text>
            <text class="numbers-no-bg__cls-3" transform="translate(77.87 47.4)">3</text>
            <text class="numbers-no-bg__cls-3" transform="translate(65.38 30.45)">2</text>
            <text class="numbers-no-bg__cls-3" transform="translate(43.58 92.03)">6</text>
            <text class="numbers-no-bg__cls-3" transform="translate(65.45 85.13)">5</text>
            <text class="numbers-no-bg__cls-3" transform="translate(77.34 68)">4</text>
            <text class="numbers-no-bg__cls-3" transform="translate(10.58 67.62)">8</text>
            <text class="numbers-no-bg__cls-3" transform="translate(24.48 84.97)">7</text>
            <circle class="numbers-no-bg__cls-2" cx="37.53" cy="33.54" r="1.6"/><circle class="numbers-no-bg__cls-2" cx="41.37" cy="38.54" r="0.87"/>
            <circle class="numbers-no-bg__cls-2" cx="63.71" cy="33.54" r="1.6"/><circle class="numbers-no-bg__cls-2" cx="59.87" cy="38.54" r="0.87"/>
            <circle class="numbers-no-bg__cls-2" cx="37.53" cy="67.8" r="1.6"/><circle class="numbers-no-bg__cls-2" cx="41.37" cy="62.8" r="0.87"/>
            <circle class="numbers-no-bg__cls-2" cx="63.71" cy="67.8" r="1.6"/><circle class="numbers-no-bg__cls-2" cx="59.87" cy="62.8" r="0.87"/>
            <circle class="numbers-no-bg__cls-2" cx="73.35" cy="44.1" r="1.6"/><circle class="numbers-no-bg__cls-2" cx="67.45" cy="46.33" r="0.87"/>
            <circle class="numbers-no-bg__cls-2" cx="73.35" cy="58.28" r="1.6"/><circle class="numbers-no-bg__cls-2" cx="67.45" cy="56.05" r="0.87"/>
            <circle class="numbers-no-bg__cls-2" cx="26.65" cy="44.1" r="1.6"/><circle class="numbers-no-bg__cls-2" cx="32.55" cy="46.33" r="0.87"/>
            <circle class="numbers-no-bg__cls-2" cx="26.65" cy="58.28" r="1.6"/><circle class="numbers-no-bg__cls-2" cx="32.55" cy="56.05" r="0.87"/>
            <circle class="numbers-no-bg__cls-2" cx="50.48" cy="29.91" r="1.6"/><circle class="numbers-no-bg__cls-2" cx="50.48" cy="36.21" r="0.87"/>
            <circle class="numbers-no-bg__cls-2" cx="50.48" cy="71.63" r="1.6"/><circle class="numbers-no-bg__cls-2" cx="50.48" cy="65.32" r="0.87"/></g>
    </g>
</svg>
