<svg id="Layer_1" data-name="Layer 1" xmlns="http://www.w3.org/2000/svg" viewBox="12 12 75 75">
    <defs>
        <style>.emergency-calling__cls-1{fill:#e6f5fd;}.emergency-calling__cls-2{fill:#fff;}.cls-3{fill:#843926;}.emergency-calling__cls-4{fill:#ff6f47;}.emergency-calling__cls-5{fill:#ff673c;}</style>
    </defs>
    <ellipse class="emergency-calling__cls-2" cx="50" cy="76.97" rx="25.33" ry="6.01" />
    <g id="surface1">
        <path class="emergency-calling__cls-3" d="M61.53,17H38.47a6.29,6.29,0,0,0-6.29,6.29V73.05a6.29,6.29,0,0,0,6.29,6.28H61.53a6.29,6.29,0,0,0,6.29-6.28V23.31A6.29,6.29,0,0,0,61.53,17ZM47.9,19.12h4.2a1.05,1.05,0,0,1,0,2.1H47.9a1.05,1.05,0,0,1,0-2.1Zm2.77,57.57a2.68,2.68,0,1,1,1.93-1.93A2.69,2.69,0,0,1,50.67,76.69Z" />
    </g>
    <circle class="emergency-calling__cls-2" cx="49.9" cy="48.17" r="12" />
    <g id="Avatar_-_9-1-1" data-name="Avatar - 9-1-1">
        <circle class="emergency-calling__cls-4" cx="49.85" cy="48.43" r="3.46" />
        <circle class="emergency-calling__cls-4" cx="49.85" cy="41.47" r="1.97" />
        <circle class="emergency-calling__cls-4" cx="49.85" cy="55.4" r="1.97" />
        <circle class="emergency-calling__cls-4" cx="42.41" cy="48.43" r="1.97" />
        <circle class="emergency-calling__cls-4" cx="57.29" cy="48.43" r="1.97" />
    </g>
    <path class="emergency-calling__cls-5" d="M32.48,64.83a.8.8,0,0,1-.55-.22,22.64,22.64,0,0,1-2.26-30.43,23.93,23.93,0,0,1,2.38-2.58.81.81,0,0,1,1.1,1.19,21.51,21.51,0,0,0-2.21,2.39A21,21,0,0,0,33,63.44a.81.81,0,0,1,0,1.14A.79.79,0,0,1,32.48,64.83Z" />
    <path class="emergency-calling__cls-5" d="M35.81,62.21a.79.79,0,0,1-.55-.22,18.82,18.82,0,0,1-6-13.82,19.08,19.08,0,0,1,6.05-13.91.81.81,0,1,1,1.11,1.18A17.43,17.43,0,0,0,30.9,48.17a17.19,17.19,0,0,0,5.47,12.64.82.82,0,0,1,0,1.15A.79.79,0,0,1,35.81,62.21Z" />
    <path class="emergency-calling__cls-5" d="M38.73,60a.82.82,0,0,1-.55-.22,15.8,15.8,0,0,1-5-11.63,16,16,0,0,1,5.11-11.69.8.8,0,0,1,1.14,0,.82.82,0,0,1,0,1.14,14.3,14.3,0,0,0-.06,21,.81.81,0,0,1,0,1.14A.82.82,0,0,1,38.73,60Z" />
    <path class="emergency-calling__cls-5" d="M66.61,64.74A.8.8,0,0,1,66,64.5a.82.82,0,0,1,0-1.15,21,21,0,0,0,1.54-28.74,19.18,19.18,0,0,0-1.46-1.56.81.81,0,0,1,0-1.14.82.82,0,0,1,1.15,0,22.34,22.34,0,0,1,1.57,1.68,22.64,22.64,0,0,1-1.66,30.95A.81.81,0,0,1,66.61,64.74Z" />
    <path class="emergency-calling__cls-5" d="M61.24,59.87a.82.82,0,0,1-.59-.24.81.81,0,0,1,0-1.14,14.31,14.31,0,0,0,0-20.62.82.82,0,0,1,0-1.15.81.81,0,0,1,1.14,0,15.94,15.94,0,0,1,0,22.94A.81.81,0,0,1,61.24,59.87Z" />
    <path class="emergency-calling__cls-5" d="M64.12,62.09a.79.79,0,0,1-.58-.25.81.81,0,0,1,0-1.14,17.36,17.36,0,0,0,0-25,.82.82,0,0,1,0-1.15.81.81,0,0,1,1.14,0,19,19,0,0,1,0,27.34A.82.82,0,0,1,64.12,62.09Z" />
</svg>
