<svg xmlns="http://www.w3.org/2000/svg" width="100" height="100" viewBox="0 0 100 100">
    <defs>
        <style>
            .messaging-bg__cls-1 {
                fill: #fff;
            }
            .messaging-bg__cls-2 {
                fill: #ccf2e8;
            }
            .messaging-bg__cls-3 {
                fill: #00bf8c;
            }
            .messaging-bg__cls-4 {
                fill: #046149;
            }
        </style>
    </defs>
    <g id="Layer_2" data-name="Layer 2">
        <g id="Layer_1-2" data-name="Layer 1"><ellipse class="messaging-bg__cls-2" cx="49.09" cy="77.64" rx="27.08" ry="6.42"/>
            <g id="surface1"><path
                class="messaging-bg__cls-3"
                d="M60,21.82H38.22a5.93,5.93,0,0,0-5.93,5.94v46.9a5.92,5.92,0,0,0,5.93,5.93H60a5.92,5.92,0,0,0,5.93-5.93V27.76A5.93,5.93,0,0,0,60,21.82Zm-12.85,2h4a1,1,0,0,1,0,2h-4a1,1,0,1,1,0-2Zm2.61,54.3a2.53,2.53,0,1,1,1.82-1.82A2.53,2.53,0,0,1,49.72,78.1Z"/></g><rect class="messaging-bg__cls-1" x="36.71" y="36.11" width="6.48" height="6.48" rx="1.81"/><rect class="messaging-bg__cls-1" x="45.94" y="36.11" width="6.48" height="6.48" rx="1.81"/><rect class="messaging-bg__cls-1" x="55.16" y="36.11" width="6.48" height="6.48" rx="1.81"/><rect class="messaging-bg__cls-1" x="36.71" y="45.33" width="6.48" height="6.48" rx="1.81"/><rect class="messaging-bg__cls-1" x="45.94" y="45.33" width="6.48" height="6.48" rx="1.81"/><rect class="messaging-bg__cls-1" x="55.16" y="45.33" width="6.48" height="6.48" rx="1.81"/><rect class="messaging-bg__cls-1" x="36.71" y="54.55" width="6.48" height="6.48" rx="1.81"/><rect class="messaging-bg__cls-1" x="45.94" y="54.55" width="6.48" height="6.48" rx="1.81"/><rect class="messaging-bg__cls-1" x="55.16" y="54.55" width="6.48" height="6.48" rx="1.81"/><rect class="messaging-bg__cls-4" x="44.3" y="16.71" width="36.77" height="17.38" rx="8.69"/><circle class="messaging-bg__cls-4" cx="47.2" cy="33.02" r="3.92"/><circle class="messaging-bg__cls-4" cx="49.17" cy="39.33" r="1.56"/>
            <g id="Avatar_-_Messaging" data-name="Avatar - Messaging"><circle class="messaging-bg__cls-3" cx="62.69" cy="25.64" r="4.09"/><circle class="messaging-bg__cls-3" cx="53.75" cy="25.64" r="2.68"/><circle class="messaging-bg__cls-3" cx="71.62" cy="25.64" r="2.68"/></g>
        </g>
    </g>
</svg>
