<svg xmlns="http://www.w3.org/2000/svg" width="100" height="100" viewBox="0 0 100 100">
    <defs>
        <style>.account-management__cls-1{fill:#fff;}.account-management__cls-2{fill:#084f7a;}.account-management__cls-3{fill:#079cee;}</style>
    </defs>
    <g id="Layer_2" data-name="Layer 2">
        <g id="Layer_1-2" data-name="Layer 1">
            <circle class="account-management__cls-1" cx="50" cy="50" r="50" />
            <path class="account-management__cls-2" d="M25.24,53.09a1.55,1.55,0,1,1-3.09,0V46.91a1.55,1.55,0,1,1,3.09,0Zm20.83-23.6H78.24a2.68,2.68,0,0,0,2.43-1.57l0-.06a3,3,0,0,0-2.44-4.14H31a11.75,11.75,0,0,0-12,12V64.32a12,12,0,0,0,12,12H63.18a2.7,2.7,0,0,0,2.44-1.57l0-.06a2.68,2.68,0,0,0-2.43-3.8H33.1a3,3,0,0,1-3.18-2.69V32.25a3,3,0,0,1,3.18-2.76C33.17,29.56,46.07,29.49,46.07,29.49Z" />
            <path class="account-management__cls-2" d="M40.9,42.69c.81,2.89,3.89,5.05,7.58,5.05l.51,0,.5,0c.34,0,.68-.1,1-.17l.42-.11a7.42,7.42,0,0,0,4.72-3.64,6.1,6.1,0,0,0,.21-4.69,3.73,3.73,0,0,0-.16-.35.37.37,0,0,0,0-.11,7.24,7.24,0,0,0-3.92-3.38l-.32-.12L51,35a9.5,9.5,0,0,0-2.5-.33,10.05,10.05,0,0,0-1.69.14A7.8,7.8,0,0,0,41.67,38a6.39,6.39,0,0,0-.94,3.31A6.13,6.13,0,0,0,40.9,42.69Z" />
            <circle class="account-management__cls-2" cx="38.29" cy="47.01" r="1.78" />
            <path class="account-management__cls-2" d="M53.84,64.67V63.6A2.32,2.32,0,0,1,55,61.89a8.92,8.92,0,0,0-3.56-1.41A.7.7,0,0,1,51,59.4a4.76,4.76,0,0,0,.92-1.74,2.32,2.32,0,0,0,.89-1.56c.06-.93-.18-1-.18-1,.35-1,.42-4.68-2.19-4.23A2,2,0,0,0,48.53,50h0A2.91,2.91,0,0,0,46,51.46a4.32,4.32,0,0,0-.37,3.71c0,.09-.17-.1-.22.45a2.69,2.69,0,0,0,.48,1.63,1.14,1.14,0,0,0,.45.33,3.9,3.9,0,0,0,.92,1.82,1,1,0,0,1-.55,1.08C44.21,60.92,42,62.21,42,63.6v1.07c0,1.51,3.72,1.82,7.09,1.82a19,19,0,0,0,5.59-.81C54.14,65.42,53.84,65.1,53.84,64.67Z" />
            <circle class="account-management__cls-2" cx="41.26" cy="51.35" r="1.19" />
            <path class="account-management__cls-3" d="M53.51,42.69c.81,2.89,3.89,5.05,7.57,5.05l.51,0,.51,0c.34,0,.68-.1,1-.17l.42-.11a7.47,7.47,0,0,0,4.72-3.64,6.08,6.08,0,0,0,.58-2.59,5.88,5.88,0,0,0-.38-2.1,2.17,2.17,0,0,0-.15-.35.37.37,0,0,0,0-.11,7.28,7.28,0,0,0-3.92-3.38L64,35.11,63.59,35a9.56,9.56,0,0,0-2.5-.33,10.05,10.05,0,0,0-1.69.14A7.77,7.77,0,0,0,54.28,38a6.39,6.39,0,0,0-.94,3.31A6.13,6.13,0,0,0,53.51,42.69Z" />
            <path class="account-management__cls-3" d="M63.46,60.48A.7.7,0,0,1,63,59.4a4.84,4.84,0,0,0,.93-1.74,2.36,2.36,0,0,0,.89-1.56c0-.93-.19-1-.19-1,.35-1,.42-4.68-2.19-4.23A2,2,0,0,0,60.57,50h0A2.9,2.9,0,0,0,58,51.46a4.29,4.29,0,0,0-.38,3.71c0,.09-.16-.1-.22.45a2.75,2.75,0,0,0,.48,1.63,1.29,1.29,0,0,0,.45.33,3.87,3.87,0,0,0,.93,1.82,1,1,0,0,1-.56,1.08,8.86,8.86,0,0,0-3.56,1.41A2.32,2.32,0,0,0,54,63.6v1.07c0,.43.3.75.8,1,1.27.65,3.86.81,6.29.81,3.37,0,7.08-.93,7.08-1.85v-1C68.17,62.21,65.92,60.92,63.46,60.48Z" />
            <path class="account-management__cls-3" d="M67.68,50.16a1.19,1.19,0,1,0,1.19,1.19A1.19,1.19,0,0,0,67.68,50.16Z" />
            <circle class="account-management__cls-3" cx="71.17" cy="47.01" r="1.78" />
        </g>
    </g>
</svg>
