<svg xmlns="http://www.w3.org/2000/svg" xmlns:xlink="http://www.w3.org/1999/xlink" width="114.48" height="114.48" viewBox="0 0 114.48 114.48">
    <defs>
        <style>
            .cls-1 {
                fill: #e6f5fd;
            }
            .cls-2 {
                clip-path: url("#clip-path");
            }
            .cls-3 {
                fill: #cdebfb;
            }
            .cls-4 {
                fill: #046149;
            }
            .cls-5 {
                fill: #00bf8c;
            }
            .cls-6 {
                fill: #fff;
            }
            .cls-7 {
                fill: #025c45;
            }
        </style>
        <clipPath id="clip-path" transform="translate(7.24 7.24)"><circle class="cls-1" cx="50" cy="50" r="50"/></clipPath>
    </defs>
    <g id="Layer_2" data-name="Layer 2">
        <g id="Isolation_Mode" data-name="Isolation Mode">
            <g class="cls-2"><path
                class="cls-3"
                d="M50-7.24A57.24,57.24,0,1,0,107.24,50,57.28,57.28,0,0,0,50-7.24ZM50,0A49.73,49.73,0,0,1,75.76,7.11c.06,0,.09.1.14.13l.28.29c.09.1.12.06.28.13a1.18,1.18,0,0,0,.28.56c.05,0,.07.17.14.28s.24.3,1.81,1.12A.53.53,0,0,0,78,10l-.56-.28c-.22-.09-.33-.17-.55-.28,0,0-.11,0-.14,0l-1-.14a.61.61,0,0,0-.27,0s-.11,0-.14,0l-.56-.13-.56-.28A1.47,1.47,0,0,0,74,8.78l-.83-.14h-.7c-.08,0-.21.1-.28.14s-.1.05-.13.14l-.15.28-.42.13a.47.47,0,0,0-.27.14,1.47,1.47,0,0,0-.14.28l-.14.14a.62.62,0,0,0-.14.28l-.14.28a.92.92,0,0,0-.14.28.17.17,0,0,0,0,.14v.27l-.14,1.67a.74.74,0,0,0,0,.15s-.1.1-.14.14l-.83,1.25c-.13.14-.25.26-.14.42l1.39,2.08.14.42c0,.07.09.09.14.14a2.43,2.43,0,0,0,1.12.42s.08,0,.13,0v.7a.6.6,0,0,0,.14.41l.28.42c0,.05.11.09.14.14l-.69.28c-.06,0-.09,0-.15,0l-.13.14-.29.42a.47.47,0,0,0-.27.14l-.28.28a1.79,1.79,0,0,0-.14.13s0,.12,0,.14l-.14.28v-.55c0-.21,0-.21-2.51-2.51v-.84L68,17.27s0-.1,0-.14-.15-.17-1-.55V16.3c-.12-.23-.4-.26-.7-.28h-.55c-.44,0-.47.1-.84,1.95a.88.88,0,0,0,0,.28s0,.1,0,.14a2.43,2.43,0,0,0-.28.14.4.4,0,0,0-.27.14s-.11,0-.14,0,0,.08-.15.13-.12,0-.13,0c-.27,0-.47.18-.84.56a.61.61,0,0,0,0,.42l.14.56c.05.14.1.15.28.27l-.14.15s0,.08,0,.13l-.14.7a.9.9,0,0,0,.14.56.58.58,0,0,0,.56.14L65.18,22s.12,0,.14,0l1-.42s.13,0,.15,0,0,.12,0,.14h-.15a1.84,1.84,0,0,0-.14.14s0,.1,0,.14l-.28.56a.81.81,0,0,0,.15.55.77.77,0,0,0,.55.28H67l-.14.42c0,.05,0,.09,0,.14v.14c0,.17,0,.38,0,.55a4.38,4.38,0,0,0,.28.42.37.37,0,0,0,.28.14c.28,0,.47,0,.69,0l1,.7-.14.27v.29l.14.55A12,12,0,0,0,67,26.6c-.14,0-.28,0-.84-.13a.15.15,0,0,0-.13,0l-.28.13a.46.46,0,0,0-.28.28c0,.05,0,.07,0,.14h-.28c-.1,0-.21.19-.28.28s-.1,0-.14,0a.6.6,0,0,0-.14.42c.09.55.19,1.37.28,2l-.28,1.53v.14c0,.05,0,.14,0,.28a.44.44,0,0,0,.14.28l.28.27.42,1.12a.65.65,0,0,0,.69.42l.84-.15.42.28-2.79,2.37a1,1,0,0,0-.14.28l-.42,1.95L62.12,39.7l-.84.41a.69.69,0,0,0-.28.28A27.48,27.48,0,0,1,59.47,43c-.23.38-.33.71-.56,1.11L57.8,46.38a.45.45,0,0,0,0,.28,2.83,2.83,0,0,1,0,.42c0,.06,0,.22,0,.27s.12.13.14.15l.28.41L58.49,50,57.1,52.65a.51.51,0,0,0,.14.55l.56.56c0,.26,0,.56,0,.83,0,.06,0,.09,0,.14v.14c0,.09,0,.21,0,.28l.42.7.69.7,1.39,1.94a1.06,1.06,0,0,0,.15.15l.83.69.56.83s.12,0,.14,0l.28.14s0,.13,0,.15l.13.13s.09,0,.14,0l2,1.12.7.55c.07.06,0,.13.14.14h.14a2.64,2.64,0,0,0,1-.27L67.83,62h2.22s.12-.14.14-.14l2.09-.14a.17.17,0,0,0,.14,0h.28s.1-.1.14-.14l.83-.42h.84l.56-.14.42,1.25a.52.52,0,0,0,.55.28h1.54l.55.84.14.28L77,66.15a.28.28,0,0,0,0,.28l1.11,2.65.14.55v.7c0,.07.1.09.14.14s.12.21.14.28,0,.17,0,.28l.14.28-.28.83-.56,3.07-1,.83-.42,1.12-.28.14a2.28,2.28,0,0,0-.28.13c-.07.06-.1.07-.14.15-.24.58-.48,1.14-.69,1.66a1.31,1.31,0,0,0,0,.28.17.17,0,0,0,0,.14l.28,1.12c-.49,1.81-1,3.76-1.53,5.15,0,0-.15.12-.15.14v.42l-.41,1c-.18.37-.25.51-.56,1.11l-.42.42a5.11,5.11,0,0,0-.69,1.12l-.15.27c-.06.11,0,.16,0,.28a.63.63,0,0,0,.29.29,2,2,0,0,0,.69.13s.09,0,.14,0a4.87,4.87,0,0,0,.56-.28v-.14c.73-.13,1.68-.24,2.5-.41l1.54-.7a1.85,1.85,0,0,0,.14-.14l2.22-1.53s.12,0,.14,0v-.14c.28-.19.94-.56,1.12-.7l1.11-1.25.56-.56.28-.14H83c.06,0,.09,0,.15,0,.24-.1.39-.4.55-.55l1.39-1.39a1,1,0,0,0,.14-.15l.84-1.53.14-.14h.14c.07,0,.09-.1.14-.14a1.37,1.37,0,0,0,.55-.41l.28-.28c.63-.44,1.38-1.07,1.81-1.4h.14c-.07.09-.07.18-.14.29s-.12.24-.14.27l-.55,1-1.12,1c-.09.11-.09.11-1.53,2.23a1.81,1.81,0,0,0-.14.7.4.4,0,0,0,.14.42A49.82,49.82,0,0,1,50,100a51.45,51.45,0,0,1-7-.56A.75.75,0,0,0,43,99a.66.66,0,0,0,.28,0c.07,0,.08-.1.13-.14s.27-.15.28-.28a.63.63,0,0,0-.14-.42l-.41-.41c-.09-.09-.07-.19-.56-.42,0,0-.09,0-.14,0s-.21.1-.28.14-.21,0-.28,0a.48.48,0,0,0-.14.55,1.77,1.77,0,0,0,.14.29l-.69-.15s-.09-.12-.14-.14A.65.65,0,0,0,41,98l-.14-.13-.14-.14-.56-.28-.56-.84a1.59,1.59,0,0,0-.13-.13,3.7,3.7,0,0,1-.28-.28c0-.06-.07-.11-.14-.14L38.44,96a.47.47,0,0,0-.14-.27c-.44-.51-.85-1-1.25-1.53,0-.05-.09-.13-.14-.14h-.14c.11-.14.23-.4.14-.56s-.11-.1-.14-.14l.56-.42a.47.47,0,0,0,.14-.28.33.33,0,0,0,0-.14l-.14-1c0-.09.07-.21,0-.28s-.21-.09-.28-.14a.83.83,0,0,0,.28-.28s.12-.08.14-.14l.14-.69.13-.14c.06,0,0-.07,0-.14l.28-1a1.46,1.46,0,0,0,.14-.28c0-.06,0-.09,0-.14v-.42a.61.61,0,0,0,.14-.56l-.83-2.23c1-.55,2.24-1.16,3.2-1.67.12-.07.12-.14.14-.27l.14-.7c.15-1,.26-2.27.41-3.21a.17.17,0,0,0,0-.14l-.55-2.64.28-.28.42-.14c.05,0,.08-.1.13-.14l.14-.14,1.67-3.06a1.22,1.22,0,0,0,.14-.28s0-.1,0-.14L43,69.92a.53.53,0,0,0-.28-.29c-1.25-.64-2.82-1.42-4.18-2.08l-.14-.14L35,67l-1.11-.42-1.4-1a.62.62,0,0,0-.14-.14L32,65.32a.51.51,0,0,0,0-.42c0-.07-.11-.23-.14-.28s-.16-.17-.28-.14h-.14l-1-.83-1.25-1.81c0-.07-.09-.09-.14-.14L29,61.56c0-.05-.07-.13-.14-.14l-2.09-1-.69-.56c-.09-.07-.16,0-.28,0L24.38,60,23,58.49l.14-.13c.16-.08.26-.12.28-.29a3.79,3.79,0,0,0,0-.83l.42-.42a.33.33,0,0,0,.14-.27v-.28a.42.42,0,0,0-.42-.42c-.57,0-1.06,0-1.53,0v-.14a1.62,1.62,0,0,0-.14-.7.46.46,0,0,0,.28-.42,4.27,4.27,0,0,0-.28-.83,3.37,3.37,0,0,0-.14-.69.3.3,0,0,0,.14-.15c.14-.24.1-.38-.14-1.11,0,0,0-.1,0-.14a.45.45,0,0,0,0-.28.63.63,0,0,0,.42-.55c0-.09,0-.07-.28-.84a1,1,0,0,0-.42-.42.51.51,0,0,0-.14-.42.59.59,0,0,0-.42-.27h-.13a.71.71,0,0,0-.56-.42,11.89,11.89,0,0,0-1.26-.28c-.22,0-.43-.12-.55-.14a.66.66,0,0,0-.28,0,.77.77,0,0,0-.42.28c-.17-.12-.26-.3-.42-.42l-.42-.28a.48.48,0,0,0-.41-.13.74.74,0,0,0-.56.27l-1.26-.69-.55-.28a.56.56,0,0,0-.28-.14.66.66,0,0,0-.28,0,.54.54,0,0,0,.42-.42c0-.19,0-.3-.42-1.25a.41.41,0,0,0-.55-.28.64.64,0,0,0-.42.28c-.09.15-.19.36-.28.55l-.14.14-1.39-1c-.72-.49-1.48-1.1-2.09-1.53-.07-.06-.21,0-.28,0s-.1,0-.14,0L7,43.45s-.11,0-.14,0c-.23.09-.23.16-.84,1.54a.74.74,0,0,0-.28-.14c-.07,0-.07-.16-.14-.14l-2.09.41c-.17,0-.22.11-.27.28l-.56,1.68-.56.13-.55-1.53.55-3.06.42-1.4.42-.69c.5-.78,1-1.67,1.53-2.37h.7l1,1a.45.45,0,0,0,.56,0A1.75,1.75,0,0,0,7.39,38l1.25.42L8.5,42.06c0,.18,0,.35.14.42a1.49,1.49,0,0,0,.83.14.84.84,0,0,0,.42-.14H10l.14.56a.62.62,0,0,0,.56.41h.69a.46.46,0,0,0,.42-.41c.05-.16.07-.14-.14-1.26-.07-.27-.28-.56-.56-.56h-.41l.41-1.11c.11-.75.14-1.5.28-2.23l1.12-1.81h.14c.07,0,.07,0,.14,0l1.25-.83c.75-.53,1.57-1.08,2.23-1.53a.67.67,0,0,0,.14-.15.86.86,0,0,0,.14-.41c.1-.51.29-.9.42-1.4,0,0,.1,0,.13,0a.4.4,0,0,0,.56,0l1.81-1.94s.12,0,.14,0l.28-.42,1.95-.28c.1,0,.35-.05.42-.14l.55-.56c.11-.12.06-.4,0-.55l.42-.56h.42c.05,0,.1-.12.14-.14s.12,0,.14,0l1.39-.69v.41c0,.12-.09.18,0,.28l.14.14a.56.56,0,0,0,.56.14c.71-.28,1.55-.52,2.36-.84l.84-.42a.72.72,0,0,0,.28-.13l.14-.14h.55c.21,0,.25-.13.84-.56.05-.05.12-.09.14-.14a.63.63,0,0,0-.14-.7L31.2,24a.61.61,0,0,0-.14-.42.86.86,0,0,0-.56-.28c-.26,0-.22,0-1.53,1.39l-.28-.28a5.54,5.54,0,0,0,.14-.55.44.44,0,0,0,.28-.14l.56-.56a.87.87,0,0,0,.14-.55.53.53,0,0,0-.14-.28h2.09a.52.52,0,0,0-.28.41c0,.14-.07.18,0,.28l-.14.42a.77.77,0,0,0,0,.56c.12.26.1.19,1.39.41l.14.28a.75.75,0,0,0,.56.28h.42a.57.57,0,0,0,.28-.14,1,1,0,0,0,.41.14H35c.19,0,.24-.09,1.11-.69a.43.43,0,0,0,.14-.28,2.57,2.57,0,0,0,.14-.42c0-.24-.08-.31-.28-.42V23c.06-.12.18-.31.14-.41s-.21-.27-.56-.42l.7-.7a.45.45,0,0,0,.14-.56.51.51,0,0,0-.28-.28l.56-.69a.61.61,0,0,0,0-.42.38.38,0,0,0-.28-.28l-1-.14s.12-.1.13-.14c.13-.35.21-.73.29-1a.68.68,0,0,0-.29-.56l-.13-.14.13-.42a13.73,13.73,0,0,1,.42-1.94.63.63,0,0,0-.28-.56c.18-.07.18-.16.56-.84,0,0,.11,0,.14,0s.1.14.14.14h.28c.26,0,.3-.1,1.39-1.25a.91.91,0,0,0,.28.14c.23,0,.3,0,2.09-1l.14-.14a.42.42,0,0,0,.14-.28c0-.22,0-.19-1-1.39l.56-.55c.16-.3.12-.44-.83-1.81,0-.06-.11,0-.15,0a1,1,0,0,0-.13-.15A3.7,3.7,0,0,0,40,6.69s0-.12,0-.14a.53.53,0,0,0,.28,0A3.46,3.46,0,0,0,41.51,6c.1-.07.19-.23.27-.28h.14s.11,0,.14,0l.7-.14c.07,0,.21-.05.28-.13s.1.07.14.13-.11.18-.14.28a1.31,1.31,0,0,0,0,.28s0,.11,0,.14l.14.28a.73.73,0,0,0,.27.28.87.87,0,0,0,.28,0h1.12l.42.14v.27L45,8.08a1,1,0,0,0,0,.42c0,.09.07.07.13.14a.71.71,0,0,0,0,.41,1.51,1.51,0,0,0,.15.28v.14a.67.67,0,0,0,.14.15h-.7c-.23,0-.14,0-1.12.83a1.83,1.83,0,0,0-.14.28s-.13,0-.13,0l-.14,1a.17.17,0,0,0,0,.14c0,.09.22.21.27.28s-.13.12-.13.14h-.14s-.11.12-.14.14-.23.1-.28.28a.66.66,0,0,0,0,.28l.56,1.95c0,.08.07.07.13.13a2,2,0,0,0,.28.15c.05,0,.09.13.14.13h.42l.28.42a.47.47,0,0,0,.14.14.71.71,0,0,0,.56.14l1-.14s.09-.11.14-.14l.7-.55c.62-.65,1.23-1.49,1.81-2.09l1.39-.42s.12-.12.14-.14l.28-.14.14.14s.1,0,.14,0c.22,0,.36-.14,1.11-.7l1.39-.7.7.14a.17.17,0,0,0,.14,0h.14c.85-.31,2.07-.78,2.92-1.11a.49.49,0,0,0,.42-.28l.14-.27c.1-.21.19-.53.28-.7s.15-.05.14-.14a.5.5,0,0,0-.14-.28c.1-.07.12-.3.14-.42l.28-1.39a.66.66,0,0,0,0-.28.28.28,0,0,0,0-.28c-.15-.29-.28-.71-.42-1,.08,0,.08,0,.14-.14l.28.14A.46.46,0,0,0,59.05,5l.28-.28a.37.37,0,0,0,.14-.28V4.32c0-.09.05-.21,0-.28a1.75,1.75,0,0,0-1.11-.56c-.12,0-.25.06-.42,0H57.8a1.19,1.19,0,0,0-.42,0c0-.08-.07-.06-.14-.14A3.64,3.64,0,0,1,57,2.93a1.43,1.43,0,0,0-.41-.56A2.46,2.46,0,0,0,55.29,2a12.51,12.51,0,0,0-2.37,0,5.75,5.75,0,0,1-.83,0,5.88,5.88,0,0,0-.84,0,1.65,1.65,0,0,0-.41.14,1.31,1.31,0,0,0-.56,0,3.71,3.71,0,0,0-1.39.84c-.11.09-.32.19-.42.28a.54.54,0,0,0-.42-.28c-.42,0-.43,0-.55-.14s0-.21,0-.28a1,1,0,0,0-.84-.69h-.14A1.6,1.6,0,0,0,46.1,2s0-.12,0-.13c0-.21,0-.65-.69-.84a1.4,1.4,0,0,0-.29,0,1.55,1.55,0,0,0-.83.14.52.52,0,0,0-.28.42c-.07.05,0,.1-.14.13a2.35,2.35,0,0,0-.42.15,3.18,3.18,0,0,0-.41.41c-.13.14-.23.32-.42.28a.28.28,0,0,0-.28,0c-.35.16-.52.35-.56.56a1.78,1.78,0,0,0-.42.69c-.06.06-.27.06-.41.14V3.34a.63.63,0,0,0-.56-.41c-.19,0-.26.21-.42.41l-.83.42A.93.93,0,0,0,39,3.9l-.7.84c-.1.12-.21.26-.14.42V5.3c-.09-.13-.12-.18-.55-.28V4.88L38,4.32a.45.45,0,0,0,0-.42.5.5,0,0,0-.41-.27c-.2,0-.27-.09-1,.41a.92.92,0,0,0-.14.14l-.28.7c-.05,0-.08-.12-.14-.14s0-.19,0-.28-.12-.33-.42-.56a.32.32,0,0,0-.27,0,1.33,1.33,0,0,0-.56.14.73.73,0,0,0-.69.14,3.7,3.7,0,0,0-.28.28.44.44,0,0,0-.42-.28l-1.53.14s-.13,0-.14,0l-1,.42c-.24.1-.29.16-.56.56h-1s-.11,0-.14,0-.12.14-.14.14l-1.67.69s-.1,0-.14,0l-1,.7a.82.82,0,0,0-.27.41.34.34,0,0,0,.14.42c-.06.06-.11.07-.14.14l-.14-.27a.53.53,0,0,0-.28-.29s0-.08,0-.13A.54.54,0,0,0,24.93,7h-.28A49.65,49.65,0,0,1,50,0ZM67,4l-.55.14c-.06,0-.09,0-.15,0L66,4.32a.66.66,0,0,0-.28,0,.67.67,0,0,0-.28.14h-.7c-.17,0-.35,0-.41.14s0,.21,0,.28c0,.29,0,.4.69.83,0,0,.12,0,.14,0l.56.28a.72.72,0,0,0,.41,0l.29.42c.13.17.12.28,1.39.7H68c.14,0,.23-.16.28-.28s.2-.3.14-.42h.42c.16,0,.37-.12.42-.28a.56.56,0,0,0-.14-.56l-.56-.27c.07-.19-.1-.32-.42-.84,0,0,0-.1,0-.14s-.24-.1-.83-.28H67ZM35,9.62c.17.06.47.06.69.13l-.69.56s0,.12,0,.14l-.42.42h-.83Zm43.87,0a2.43,2.43,0,0,0,.27,0,.65.65,0,0,0,.14,0h.15c.08,0,.19.08.27.13s-.14.07-.14.14v.28ZM33.29,11a2.61,2.61,0,0,1-.28.13,1.85,1.85,0,0,1-.14.14l-.56.56c-.05.09-.27.32-.14.56l-.41-.14s-.11,0-.14,0l.14-.84a.33.33,0,0,0,0-.14Zm24,.13c-.14,0-.33.09-1.25.28-.19.07-.23.11-.28.28a.65.65,0,0,0,.14.56,3.9,3.9,0,0,0,.56.42l-.14.28a.64.64,0,0,0,0,.41c.12.27,0,.33,2.22,1,0,0,.11,0,.15,0s.15.05,2.5-1a.75.75,0,0,0,.28-.69c0-.12-.09-.25-.14-.42s-.09-.09-.14-.14,0-.12,0-.14l-1-.7a1.5,1.5,0,0,0-.56-.14l-1.67.28-.42-.14c-.07,0-.21-.14-.28-.14ZM28,12.4h.84l-.14.14c0,.23.21.36.42.42a2.23,2.23,0,0,0,.56.14S29.89,13,30,13h.41a7.07,7.07,0,0,0-.83,1c-.18.23-.4.52-.56.69l-1,.29c-.08,0-.08.05-.13.13l-1.12,1.67-2.09.7a.66.66,0,0,0-.27.28c0,.07,0,.07,0,.14h-.14l-.56-1-.28-1.11a.55.55,0,0,0-.28-.28.38.38,0,0,0,.14-.27l.14-.28,1.39-1c.49-.19,1-.47,1.54-.7l1.25-.42c.05,0,.08-.1.14-.13l.14-.14c.08-.07.12,0,.13-.14Zm5.86.14.13.14-.13.13c-.29.46-.08.54,1.39,1.54L33.71,15l.27-.42a.37.37,0,0,0,0-.55L33,13s-.1-.13-.14-.15l-.42-.13c.26.12.42,0,1.4-.14Zm43,3.34.7.28c.08,0,.18.17.27.14a1.76,1.76,0,0,0,.28.55c0,.06.11.11.14.15s.09.1.14.13a.34.34,0,0,0,0,.28l.28.84a2.38,2.38,0,0,0-1.11.14c-.09,0-.2.12-.28.14s-.12,0-.14,0l-1,.41V18.8a.38.38,0,0,0,.28-.41v-1L76.6,17l.14-1s.14-.1.14-.14Zm10.44,10.3a1.92,1.92,0,0,0,.14.15c.92.83.89.83,1.11.83s.08.05.15,0,.22-.07.27-.14.23-.19.28-.28l1.53,1,.56.42-.56.13c-.62-.43-.66-.41-.83-.41a1.31,1.31,0,0,0-.28,0c-.3.1-.64.29-1,.41s-.58.2-.84.29H87.6L87,28s0-.1,0-.13.14-.16.14-.28L87,27.3a.53.53,0,0,0,.14-.28c0-.09,0-.19,0-.28Zm-11.56,2s0,.12,0,.13,0,.06,0,.14a.72.72,0,0,0,0,.42,3.82,3.82,0,0,1,.14.56,1.22,1.22,0,0,0,.14.28A1.28,1.28,0,0,0,76,30v.27c.07.28.21.55.28.84a.73.73,0,0,0,.42.56H77a1.84,1.84,0,0,0,.14-.14l.55-.14a.62.62,0,0,0,.42-.56c0-.09,0-.14-.28-1.11a.72.72,0,0,0-.42-.42c0-.11.11-.12.15-.28l.69.7.28.14,1.53.83.28.14.14.42-1.11-.28a1.16,1.16,0,0,0-.42.14.42.42,0,0,0-.28.42c0,.14.1.36.14.56s0,.08,0,.13a4.85,4.85,0,0,0,1.25,1l.14.14a.49.49,0,0,0-.42.55c0-.2-.1-.38-.14-.55a.5.5,0,0,0-.14-.28l-.42-.28-.69-.42c-.1-.05-.17-.14-.28-.14a2.61,2.61,0,0,0-.28,0l-.69.28-4,.28s-.11,0-.14,0l-2.65,1h-1s0-.11,0-.15l1-.13h.28s.1-.11.14-.14l.84-.7.14-.14a5.29,5.29,0,0,1,.41-.41.64.64,0,0,0,.14-.56l-.42-1,.15-.28.41-.14h.14s.09,0,.14,0,.12-.13.14-.13l.42-.28c.14-.07.26-.14.27-.28l.14-.83v-.15l1.26.28a.79.79,0,0,0,.28-.13Zm6.69,2.64h.14c.1,0,.2,0,.28,0l.13.14s0,.1,0,.14a1.06,1.06,0,0,0,.15.14.77.77,0,0,0,.27.14L84,32a.41.41,0,0,0,.28.13s.09,0,.14,0,0,.12,0,.14c.1.18.29.35.41.56l.15.28c0,.07.06.23.13.28h.14a.6.6,0,0,0,.28.13h.42c0,.06,0,.08,0,.15a3.72,3.72,0,0,0,.28.55c.15.26.12.33,2,.7.52-.05.61-.49.56-1.25l.14.13a.42.42,0,0,0,.41.14l.84-.27c.07,0,.09,0,.14,0h.13a.67.67,0,0,0-.13.27.55.55,0,0,0,.13.56,5.74,5.74,0,0,1,.84.42s0,.12,0,.14h.14c.09,0,.19-.11.28-.14s.09-.09.14-.14l.28-.28c0,.17.08.38.14.56l-.14,1.81L91,36.49c-.2-.05-.32.12-.42.28l-.42.42-1.67-.7a.17.17,0,0,0-.14,0c-.26,0-.49,0-.7,0l-.14-.14c-.07-.1-.16-.26-.28-.28a7.14,7.14,0,0,0-1.39,0h-.14s-.12,0-.14,0l-.42.28c-.1.07-.26.16-.28.28l-.13.84-2-1.12s-.13,0-.14,0l-2.09-.56-.56-.27c0-.09,0-.18,0-.28,0-.44-.09-.75-.14-1.11,0,.15.19.24.28.41a4.11,4.11,0,0,1,.14.42.49.49,0,0,0,.42.28h.14c.28,0,.38-.14.83-.84,0,0,0-.09,0-.14a.15.15,0,0,0,0-.13c0-.11,0-.21,0-.29.21-.08.26-.31.28-.55v-.7a.43.43,0,0,0,.28-.28l.42-.83a.45.45,0,0,0,0-.42ZM86.9,32a.73.73,0,0,0,.28.13l.56,1c-.24,0-.59-.13-.84-.14v-.14a.37.37,0,0,0,.14-.28A1.75,1.75,0,0,0,86.9,32ZM6,45.68a.93.93,0,0,0,.14.14V46a1.7,1.7,0,0,0,0,.84c.07.2.11.17.28.28a.67.67,0,0,0,.42,0s.1,0,.14,0a1.32,1.32,0,0,0,.56,1.25,1,1,0,0,0,.55.28c.61,0,1-.56,1.12-1.26a1.78,1.78,0,0,0,0-.69l.27.27c0,.09-.12.06-.14.15v.42a.77.77,0,0,0,.42.55H9.47c-.06,0-.08,0-.14,0s-.29.05-.69.56a.78.78,0,0,0-.14.55c0,.16.18.21.28.28a4.57,4.57,0,0,0,.69.56l.28.14c.05,0,.23,0,.28,0v.14h.14s.11-.12.14-.14l.83-.28a.71.71,0,0,0,.28-.56V49a7.27,7.27,0,0,0,1.95.42h2.51a.71.71,0,0,0,.56.28h1.39a.73.73,0,0,0,.42-.14,3.67,3.67,0,0,1,.28.28.7.7,0,0,0,.41.14s.11,0,.14,0l.28-.14V50a.74.74,0,0,0,.42.56.74.74,0,0,0-.14.28c0,.27.14.55.14.83V52a.67.67,0,0,0,.42.55v.28c-.05.09-.14.16-.14.29s0,.57,0,.83a.63.63,0,0,0,.28.42,2.81,2.81,0,0,0,0,.41,1,1,0,0,0-.14.42c0,.19,0,.37,0,.56v.14a.69.69,0,0,0,.56.56v.27L19.92,56s-.1-.13-.14-.14l-1.53-.28a.66.66,0,0,0-.28,0h-.14l-.28.14-1.81-.42-1-1.25a.4.4,0,0,0-.15-.14h-.13a.5.5,0,0,0-.56,0l-.28.42-.28-.14c-.12-.07-.17-.21-.27-.28a.45.45,0,0,0-.42,0L10.59,55a.93.93,0,0,0-.14.14s-.12.09-.14.14l-.56,1.53-.7-.41s-.06-.13-.13-.14H8.64l-1.25.28L7,55.71,7.11,52a2.62,2.62,0,0,0,0-.28c0-.09,0-.07,0-.14a8.75,8.75,0,0,0-.84-1.11l-.14-.14L6,50.14S5.9,50,5.85,50l-1.11-.14v-1Zm5.43,2.23v.14a.66.66,0,0,0-.14.42.42.42,0,0,0-.27-.14c-.32-.09-.61-.21-1-.28ZM96.93,49c.25.54.49,1,.7,1.54v1.11c0-.09-.18-.1-.28-.14l-.28-1.81v-.14ZM0,51l.28.27a.52.52,0,0,0,.56.14L1.4,51l.42,1.11v.14c0,.05.1.1.14.14l.27.41s0,.13,0,.14l.56.56.28.14.69.42,1.12,3.34s0,.12,0,.14l.28.28a.5.5,0,0,0,.55.14l.14-.14.42.56c0,.1,0,.22.14.28l.28.13s.1,0,.14,0l.56.84a.47.47,0,0,0,.55.14l.56-.28a.93.93,0,0,0,.28-.28l.14.42c.17,1.22.45,2.4.7,3.62l-.15.83-.27.84-.28,1.81a.17.17,0,0,0,0,.14V67c.1.42.15.85.28,1.25l.13.14c0,.07-.05.09,0,.14s.18,0,.29.14l-.15.14c-.05.09,0,.18,0,.28s.13.1.15.14l.83,2s0,.1,0,.14l1.81,1.53.84,1.25s.12.13.13.14,0,.14,0,.14a48.87,48.87,0,0,0,3.62,4.32l2.51,1.25c.23.14.47.24,1.25.7l.28.28c1,1.46,2.34,3.56,3.49,5.15a61.69,61.69,0,0,0,6.4,7.38s.12,0,.14,0l.84.7c.12.12.29.15.41.28l.14.27s.11,0,.14,0A2.26,2.26,0,0,0,33,95c0,.16.12.19.84.7a.72.72,0,0,0,.41.14l.28.42c.05.07.05.1.14.13l.56.28.14.14a.38.38,0,0,0,.14.14,3.25,3.25,0,0,0,.83.28l.14.14c0,.14.18.21.28.28a1.82,1.82,0,0,0,.14.14,1.46,1.46,0,0,0,.28.14l.42.27a.91.91,0,0,0,.27.15h.28l.14.13h.28a.69.69,0,0,0,.28.28A50,50,0,0,1,0,51ZM99.72,54c0,.17,0,.38,0,.55l-.14.14c-.23.16-.47.27-.7.42L98.74,55v-.28c.05,0,.11-.12.14-.14s.12,0,.14,0Zm-24,9.89A1.45,1.45,0,0,0,74.51,65a1,1,0,0,0,.42,1.11,1.27,1.27,0,0,0,.69.28A1.53,1.53,0,0,0,77,65.32a1.1,1.1,0,0,0-.14-1,1.12,1.12,0,0,0-1-.41Zm22.15.28a49.92,49.92,0,0,1-4.32,10.44c-.07,0,0,.07-.42.56a.54.54,0,0,0-.28-.56s-.1-.12-.14-.14a1.41,1.41,0,0,0-.41,0H92.2l.14-.28a4.17,4.17,0,0,0,.13-.42l.14-.28s.14-.06.14-.13v-.28l.56-1.81.14-.56.56-1,.28-.28s.12-.09.14-.14a4.81,4.81,0,0,0,.27-1l.56-1,.42-.42c.07,0,.09-.07.14-.14l1.67-2.51ZM91.5,76.32c.11.07.18,0,.28,0s.1,0,.14,0,.22.05.28,0c-.21.26-.56.49-.84.84l-.69.42Z"
                transform="translate(7.24 7.24)"/></g><rect class="cls-4" x="36.83" y="22.39" width="40.82" height="19.3" rx="9.65"/><circle class="cls-4" cx="40.04" cy="40.5" r="4.35"/><circle class="cls-4" cx="42.07" cy="48.68" r="1.74"/>
            <g id="Avatar_-_Messaging" data-name="Avatar - Messaging"><circle class="cls-5" cx="57.24" cy="32.31" r="4.54"/><circle class="cls-5" cx="47.32" cy="32.31" r="2.98"/><circle class="cls-5" cx="67.16" cy="32.31" r="2.98"/></g><path
                class="cls-5"
                d="M44.78,41.5a1.73,1.73,0,0,0-1.72,1.73v.05A1.74,1.74,0,0,1,41.33,45h-1.8a1.73,1.73,0,0,0-1.73,1.72V83.1a1.74,1.74,0,0,0,1.73,1.73l21.08,0a1.74,1.74,0,0,0,1.73-1.73V46.73A1.73,1.73,0,0,0,60.61,45h-1.8a1.74,1.74,0,0,1-1.73-1.73v-.05a1.74,1.74,0,0,0-1.73-1.73Z"
                transform="translate(7.24 7.24)"/><circle class="cls-6" cx="50.73" cy="57.91" r="1.14"/><circle class="cls-6" cx="59.83" cy="57.91" r="1.14"/><circle class="cls-6" cx="64.38" cy="57.91" r="1.14"/><path class="cls-4" d="M65,56a.88.88,0,0,0,0,1.75h7.92a1.73,1.73,0,0,1,1.72,1.73V79.1c0,1,.4,1.73.88,1.73s.88-.78.88-1.73V57.71A1.74,1.74,0,0,0,74.63,56H65Z" transform="translate(7.24 7.24)"/><circle class="cls-6" cx="50.73" cy="67.01" r="1.14"/><circle class="cls-6" cx="55.28" cy="71.75" r="1.14"/><circle class="cls-6" cx="59.83" cy="62.85" r="1.14"/><circle class="cls-6" cx="64.38" cy="67.01" r="1.14"/><circle class="cls-7" cx="72.2" cy="69.35" r="0.88"/><circle class="cls-7" cx="75.71" cy="69.35" r="0.88"/><circle class="cls-7" cx="72.2" cy="74.61" r="0.88"/><circle class="cls-6" cx="50.73" cy="76.11" r="1.14"/><circle class="cls-6" cx="64.38" cy="76.11" r="1.14"/><circle class="cls-7" cx="75.71" cy="78.54" r="0.88"/><circle class="cls-7" cx="79.21" cy="78.54" r="0.88"/><circle class="cls-6" cx="59.83" cy="85.21" r="1.14"/><circle class="cls-6" cx="64.38" cy="85.21" r="1.14"/><circle class="cls-7" cx="79.21" cy="83.79" r="0.88"/><path class="cls-4" d="M35,52.53a1,1,0,0,1,0,2H26.19c-1.06,0-.59.86-.59,1.92v22.5c0,1-.44,1.92-1,1.92s-1-.87-1-1.92V54.46a1.94,1.94,0,0,1,1.93-1.93H35Z" transform="translate(7.24 7.24)"/><circle class="cls-7" cx="42.39" cy="78.36" r="0.88"/><circle class="cls-7" cx="38.88" cy="78.36" r="0.88"/><circle class="cls-7" cx="42.39" cy="73.1" r="0.88"/><circle class="cls-7" cx="35.37" cy="83.36" r="0.88"/><circle class="cls-7" cx="38.88" cy="69.17" r="0.88"/><path class="cls-7" d="M27.26,61.93a.88.88,0,1,0,.88-.87.87.87,0,0,0-.88.87" transform="translate(7.24 7.24)"/><path class="cls-7" d="M27.26,57.12a.88.88,0,1,0,.88-.88.88.88,0,0,0-.88.88" transform="translate(7.24 7.24)"/></g>
    </g>
</svg>
