<svg xmlns="http://www.w3.org/2000/svg" width="100" height="100" viewBox="0 0 100 100">
    <defs>
        <style>
            .cls-1 {
                fill: #e6f5fd;
            }
            .cls-2 {
                fill: #9a59c5;
            }
            .cls-3 {
                fill: #652b51;
            }
        </style>
    </defs>
    <g id="Layer_2" data-name="Layer 2">
        <g id="Layer_1-2" data-name="Layer 1"><path
            class="cls-2"
            d="M23,52.33a1.39,1.39,0,0,1-2.78,0V46.77a1.39,1.39,0,1,1,2.78,0ZM41.75,31.09h29a2.41,2.41,0,0,0,2.19-1.41l0-.05a2.66,2.66,0,0,0-2.19-3.73H28.2A10.57,10.57,0,0,0,17.44,36.67V62.44A10.76,10.76,0,0,0,28.2,73.2h29a2.42,2.42,0,0,0,2.2-1.41l0-.05a2.41,2.41,0,0,0-2.19-3.42H30.08a2.68,2.68,0,0,1-2.87-2.43V33.58a2.73,2.73,0,0,1,2.87-2.49C30.14,31.16,41.75,31.09,41.75,31.09Z"/>
            <g id="Avatar_-_Phone_Numbers" data-name="Avatar - Phone Numbers"><circle class="cls-3" cx="45.94" cy="49.76" r="3.81"/><circle class="cls-3" cx="41.62" cy="39.86" r="1.78"/><circle class="cls-3" cx="52.54" cy="41.64" r="3.05"/><circle class="cls-3" cx="56.34" cy="51.54" r="2.79"/><circle class="cls-3" cx="46.95" cy="58.9" r="2.54"/><circle class="cls-3" cx="37.56" cy="55.09" r="2.28"/><circle class="cls-3" cx="35.78" cy="46.21" r="2.03"/></g><path class="cls-3" d="M73.9,42.26H60.29a.9.9,0,0,1,0-1.8H73.9a.9.9,0,1,1,0,1.8Z"/><path class="cls-3" d="M83,49.11H65.19a1.35,1.35,0,1,1,0-2.7H83a1.35,1.35,0,1,1,0,2.7Z"/><path class="cls-3" d="M73.73,55H63.35a.9.9,0,0,1,0-1.8H73.73a.9.9,0,1,1,0,1.8Z"/><path class="cls-3" d="M62.89,59.58H56.42a.45.45,0,0,1,0-.9h6.47a.45.45,0,0,1,0,.9Z"/></g>
    </g>
</svg>
