<?xml version="1.0" encoding="UTF-8"?>
<svg xmlns="http://www.w3.org/2000/svg" viewBox="0 0 73 69.3"><defs><style>.aed9c94e-57e4-4f6a-bfb7-c56b6f3aa29c{fill:#ff6f47;}</style></defs><g id="a841914b-ff90-4252-a13a-2f2d30943e05" data-name="Layer 2"><g id="bf604ea2-9512-4409-868e-0db150825da0" data-name="Layer 1"><g id="bf1cbd84-7709-4ac0-93cd-eed81f3cb134" data-name=" 911 Icon"><g id="a3bbd4de-a27e-407f-a6e7-07ee1a467707" data-name=" 911 Icon-2"><path id="b06e9bb7-f847-4075-a983-d3a7e241ea7a" data-name="Path 880" class="aed9c94e-57e4-4f6a-bfb7-c56b6f3aa29c" d="M36.46,21.18A13.47,13.47,0,1,1,23.07,34.72v-.07A13.48,13.48,0,0,1,36.46,21.18"/><path id="a160e6ab-c844-4815-9302-0b958321c995" data-name="Path 881" class="aed9c94e-57e4-4f6a-bfb7-c56b6f3aa29c" d="M36.46,0a7.64,7.64,0,1,1-7.64,7.64A7.64,7.64,0,0,1,36.46,0h0"/><path id="a24d35a2-3f73-4e3f-9fac-90c46fc9e97f" data-name="Path 882" class="aed9c94e-57e4-4f6a-bfb7-c56b6f3aa29c" d="M36.46,54a7.64,7.64,0,1,1-7.64,7.64A7.64,7.64,0,0,1,36.46,54h0"/><path id="ff0991db-8b4d-4281-b45e-5614beb62baa" data-name="Path 883" class="aed9c94e-57e4-4f6a-bfb7-c56b6f3aa29c" d="M7.64,27A7.64,7.64,0,1,1,0,34.65H0A7.64,7.64,0,0,1,7.64,27"/><path id="b8fb5b31-c3b1-4a57-be49-6662d50895c2" data-name="Path 884" class="aed9c94e-57e4-4f6a-bfb7-c56b6f3aa29c" d="M65.36,27a7.64,7.64,0,1,1-7.64,7.64h0A7.64,7.64,0,0,1,65.36,27"/></g></g></g></g></svg>