<svg xmlns="http://www.w3.org/2000/svg" xmlns:xlink="http://www.w3.org/1999/xlink" width="657.293" height="494.75" viewBox="0 0 657.293 494.75">
  <g id="Group_7893" data-name="Group 7893" transform="translate(-1099.41 -254.801)">
    <g id="Cloud_8" data-name="Cloud 8" transform="translate(1354 585.775) rotate(180)">
      <path id="Path_18136" data-name="Path 18136" fill="var(--cloud-color)" d="M110.557,291.269a109.358,109.358,0,0,0,36.684-6.305,101.481,101.481,0,0,0,145.7,20.619,90.932,90.932,0,0,0,107.344-14.6c2.518.191,4.835.282,7.071.282a101.809,101.809,0,1,0,0-203.618c-.786,0-1.581.01-2.367.03a80.63,80.63,0,0,0-109.429-41.3,97.633,97.633,0,0,0-176.885,24.1c-2.79-.222-5.479-.342-8.119-.342a110.562,110.562,0,0,0,0,221.124Z" transform="translate(-254.59 -163.775)"/>
    </g>
    <g id="Group_7892" data-name="Group 7892">
      <g id="Group_7670" data-name="Group 7670" transform="translate(1164.334 254.801)">
        <g id="Group_7669" data-name="Group 7669">
          <g id="Group_7612" data-name="Group 7612">
            <g id="Group_7611" data-name="Group 7611">
              <path id="Path_17845" data-name="Path 17845" d="M10.736,94.034A10.736,10.736,0,1,1,0,104.77,10.736,10.736,0,0,1,10.736,94.034" transform="translate(0 -17.441)" fill="#079cee"/>
              <path id="Path_17846" data-name="Path 17846" d="M477.663,404.769c0,5.825-73.787,10.547-164.809,10.547s-164.809-4.723-164.809-10.547,73.788-10.547,164.809-10.547,164.809,4.723,164.809,10.547" transform="translate(-27.458 -73.118)" fill="#b4e1f9"/>
              <rect id="Rectangle_2126" data-name="Rectangle 2126" width="26.468" height="17.591" transform="translate(273.028 306.654)" fill="#084f7a"/>
              <path id="Path_17847" data-name="Path 17847" d="M412.577,405.177H252.84v-2.085a5.014,5.014,0,0,1,5.013-5.014H407.563a5.014,5.014,0,0,1,5.014,5.014Z" transform="translate(-46.895 -73.833)" fill="#084f7a"/>
              <g id="Group_7610" data-name="Group 7610" transform="translate(273.028 306.654)" opacity="0.5">
                <g id="Group_7609" data-name="Group 7609">
                  <g id="Group_7608" data-name="Group 7608">
                    <rect id="Rectangle_2127" data-name="Rectangle 2127" width="26.468" height="8.795" transform="translate(0.001)" fill="#084f7a"/>
                  </g>
                </g>
              </g>
              <path id="Path_17848" data-name="Path 17848" d="M356.017,394.861H329.548a.887.887,0,0,1-.887-.888V376.835a.887.887,0,0,1,.887-.887h26.469a.888.888,0,0,1,.888.887v17.138a.888.888,0,0,1-.888.888" transform="translate(-60.958 -69.728)" fill="#084f7a"/>
              <path id="Rectangle_2129" data-name="Rectangle 2129" d="M14.985,0H380.03a14.985,14.985,0,0,1,14.985,14.985v214.15a14.986,14.986,0,0,1-14.986,14.986H14.986A14.986,14.986,0,0,1,0,229.135V14.985A14.985,14.985,0,0,1,14.985,0Z" transform="translate(84.307 62.534)" fill="#fff"/>
              <path id="Path_17849" data-name="Path 17849" d="M152.328,320.894H115.71A12.206,12.206,0,0,1,103.5,308.687V88.979A12.206,12.206,0,0,1,115.71,76.773h370.6a12.206,12.206,0,0,1,12.206,12.206V308.687a12.206,12.206,0,0,1-12.206,12.206H440.821" transform="translate(-19.197 -14.239)" fill="#084f7a"/>
              <path id="Path_17850" data-name="Path 17850" d="M114.435,306.276V96.148A7.768,7.768,0,0,1,122.2,88.38h361.65a7.768,7.768,0,0,1,7.767,7.768V306.276a7.767,7.767,0,0,1-7.767,7.767H122.2a7.767,7.767,0,0,1-7.767-7.767" transform="translate(-21.225 -16.392)" fill="#e6f5fd"/>
            </g>
          </g>
          <g id="Group_7624" data-name="Group 7624" transform="translate(134.813 92.14)">
            <g id="Group_7623" data-name="Group 7623">
              <path id="Path_17851" data-name="Path 17851" d="M450.287,303.092H174.959a8.112,8.112,0,0,1-8.307-8.308V121.914a8.112,8.112,0,0,1,8.307-8.308H450.683a8.112,8.112,0,0,1,8.306,8.308V295.575c-.393,3.956-4.35,7.516-8.7,7.516" transform="translate(-165.723 -113.211)" fill="#fff"/>
              <g id="Group_7617" data-name="Group 7617" transform="translate(0 181.367)" opacity="0.53">
                <g id="Group_7616" data-name="Group 7616">
                  <g id="Group_7615" data-name="Group 7615">
                    <g id="Group_7614" data-name="Group 7614" transform="translate(0 0)">
                      <g id="Group_7613" data-name="Group 7613">
                        <path id="Path_17852" data-name="Path 17852" d="M451.519,343.3H173.027a7.511,7.511,0,0,1-7.515-7.516v1.187a7.511,7.511,0,0,0,7.515,7.517h278.1a7.512,7.512,0,0,0,7.517-7.517v-1.187a7.714,7.714,0,0,1-7.121,7.516" transform="translate(-165.511 -335.787)" fill="#bbb6b9"/>
                      </g>
                    </g>
                  </g>
                </g>
              </g>
              <path id="Path_17853" data-name="Path 17853" d="M453.668,113.121H171.456a6.091,6.091,0,0,0-5.946,5.934v24.527H458.821V118.66a4.91,4.91,0,0,0-4.755-5.143c0-.4,0-.4-.4-.4" transform="translate(-165.511 -113.121)" fill="#084f7a"/>
              <g id="Group_7622" data-name="Group 7622" transform="translate(0.534 29.356)" opacity="0.4">
                <g id="Group_7621" data-name="Group 7621">
                  <g id="Group_7620" data-name="Group 7620">
                    <g id="Group_7619" data-name="Group 7619" transform="translate(0.001 0.002)">
                      <g id="Group_7618" data-name="Group 7618">
                        <rect id="Rectangle_2133" data-name="Rectangle 2133" width="293.309" height="1.187" transform="translate(-0.001 -0.002)" fill="#ffe3db"/>
                      </g>
                    </g>
                  </g>
                </g>
              </g>
              <path id="Path_17854" data-name="Path 17854" d="M433.983,298.895H199.4a11.99,11.99,0,0,1-12.264-11.868V178.637A11.99,11.99,0,0,1,199,166.374H433.983a11.989,11.989,0,0,1,12.263,11.867v108a11.914,11.914,0,0,1-11.076,12.658Z" transform="translate(-169.522 -122.998)" fill="#fff"/>
              <path id="Path_17855" data-name="Path 17855" d="M235.183,124.262a5.934,5.934,0,1,1-5.934,5.934,5.934,5.934,0,0,1,5.934-5.934" transform="translate(-177.333 -115.187)" fill="#00bf8c"/>
              <path id="Path_17856" data-name="Path 17856" d="M210.279,124.262a5.934,5.934,0,1,1-5.935,5.934,5.935,5.935,0,0,1,5.935-5.934" transform="translate(-172.714 -115.187)" fill="#079cee"/>
              <path id="Path_17857" data-name="Path 17857" d="M185.864,124.262a5.934,5.934,0,1,1-5.934,5.934,5.934,5.934,0,0,1,5.934-5.934" transform="translate(-168.185 -115.187)" fill="#9a59c5"/>
            </g>
          </g>
          <g id="Group_7626" data-name="Group 7626">
            <g id="Group_7625" data-name="Group 7625">
              <path id="Path_17858" data-name="Path 17858" d="M117.914,148.155H62.577c-4.669,0-8.454-4.389-8.454-9.8v-77.6c0-5.413,3.785-9.8,8.454-9.8h55.337c4.669,0,8.453,4.389,8.453,9.8v77.6c0,5.412-3.784,9.8-8.453,9.8" transform="translate(-10.038 -9.45)" fill="#ff6f47"/>
              <rect id="Rectangle_2137" data-name="Rectangle 2137" width="34.417" height="2.358" transform="translate(54.567 51.319)" fill="#fff"/>
              <rect id="Rectangle_2138" data-name="Rectangle 2138" width="13.561" height="2.358" transform="translate(91.086 51.319)" fill="#fff"/>
              <rect id="Rectangle_2139" data-name="Rectangle 2139" width="15.307" height="2.327" transform="translate(54.565 56.338)" fill="#fff"/>
              <rect id="Rectangle_2140" data-name="Rectangle 2140" width="8.416" height="2.327" transform="translate(71.774 56.338)" fill="#fff"/>
              <rect id="Rectangle_2141" data-name="Rectangle 2141" width="17.364" height="2.327" transform="translate(82.002 56.338)" fill="#fff"/>
              <rect id="Rectangle_2142" data-name="Rectangle 2142" width="18.42" height="2.358" transform="translate(54.567 61.295)" fill="#fff"/>
              <rect id="Rectangle_2143" data-name="Rectangle 2143" width="29.558" height="2.358" transform="translate(75.089 61.295)" fill="#fff"/>
              <rect id="Rectangle_2144" data-name="Rectangle 2144" width="5.068" height="2.327" transform="translate(54.565 66.315)" fill="#fff"/>
              <rect id="Rectangle_2145" data-name="Rectangle 2145" width="18.656" height="2.327" transform="translate(61.535 66.315)" fill="#fff"/>
              <rect id="Rectangle_2146" data-name="Rectangle 2146" width="17.364" height="2.327" transform="translate(82.002 66.315)" fill="#fff"/>
              <rect id="Rectangle_2147" data-name="Rectangle 2147" width="34.417" height="2.358" transform="translate(54.567 71.876)" fill="#fff"/>
              <rect id="Rectangle_2148" data-name="Rectangle 2148" width="13.561" height="2.358" transform="translate(91.086 71.876)" fill="#fff"/>
              <rect id="Rectangle_2149" data-name="Rectangle 2149" width="18.42" height="2.358" transform="translate(54.567 81.854)" fill="#fff"/>
              <rect id="Rectangle_2150" data-name="Rectangle 2150" width="29.558" height="2.358" transform="translate(75.089 81.854)" fill="#fff"/>
              <rect id="Rectangle_2151" data-name="Rectangle 2151" width="5.068" height="2.327" transform="translate(54.565 86.873)" fill="#fff"/>
              <rect id="Rectangle_2152" data-name="Rectangle 2152" width="18.656" height="2.327" transform="translate(61.535 86.873)" fill="#fff"/>
              <rect id="Rectangle_2153" data-name="Rectangle 2153" width="17.364" height="2.327" transform="translate(82.002 86.873)" fill="#fff"/>
              <rect id="Rectangle_2154" data-name="Rectangle 2154" width="34.417" height="2.358" transform="translate(54.567 92.334)" fill="#fff"/>
              <rect id="Rectangle_2155" data-name="Rectangle 2155" width="13.561" height="2.358" transform="translate(91.086 92.334)" fill="#fff"/>
              <rect id="Rectangle_2156" data-name="Rectangle 2156" width="15.307" height="2.327" transform="translate(54.565 97.355)" fill="#fff"/>
              <rect id="Rectangle_2157" data-name="Rectangle 2157" width="8.416" height="2.327" transform="translate(71.774 97.355)" fill="#fff"/>
              <rect id="Rectangle_2158" data-name="Rectangle 2158" width="17.364" height="2.327" transform="translate(82.002 97.355)" fill="#fff"/>
              <rect id="Rectangle_2159" data-name="Rectangle 2159" width="18.42" height="2.358" transform="translate(54.567 102.311)" fill="#fff"/>
              <rect id="Rectangle_2160" data-name="Rectangle 2160" width="29.558" height="2.358" transform="translate(75.089 102.311)" fill="#fff"/>
              <rect id="Rectangle_2161" data-name="Rectangle 2161" width="44.782" height="2.327" transform="translate(54.584 107.33)" fill="#fff"/>
              <rect id="Rectangle_2162" data-name="Rectangle 2162" width="34.417" height="2.358" transform="translate(54.567 116.37)" fill="#fff"/>
              <rect id="Rectangle_2163" data-name="Rectangle 2163" width="13.561" height="2.358" transform="translate(91.086 116.37)" fill="#fff"/>
              <rect id="Rectangle_2164" data-name="Rectangle 2164" width="15.307" height="2.327" transform="translate(54.565 121.388)" fill="#fff"/>
              <rect id="Rectangle_2165" data-name="Rectangle 2165" width="8.416" height="2.327" transform="translate(71.774 121.388)" fill="#fff"/>
              <rect id="Rectangle_2166" data-name="Rectangle 2166" width="17.364" height="2.327" transform="translate(82.002 121.388)" fill="#fff"/>
              <rect id="Rectangle_2167" data-name="Rectangle 2167" width="18.42" height="2.358" transform="translate(54.567 126.347)" fill="#fff"/>
              <rect id="Rectangle_2168" data-name="Rectangle 2168" width="29.558" height="2.358" transform="translate(75.089 126.347)" fill="#fff"/>
              <path id="Path_17859" data-name="Path 17859" d="M53.73,136.675h0A19.024,19.024,0,1,1,34.707,155.7,18.993,18.993,0,0,1,53.73,136.675" transform="translate(-6.437 -25.35)" fill="#079cee"/>
              <path id="Path_17860" data-name="Path 17860" d="M52.864,132a22.828,22.828,0,1,0,22.829,22.828A22.854,22.854,0,0,0,52.864,132m0,3.8a19.024,19.024,0,1,1-19.024,19.023,19,19,0,0,1,19.024-19.023m7.967,7.727a1.04,1.04,0,0,0-.714.476l-9.334,13.853-4.4-4.341a.979.979,0,0,0-1.488-.236l-1.724,1.724a1.444,1.444,0,0,0,0,1.724l6.659,6.659a3.428,3.428,0,0,0,1.487.593,1.713,1.713,0,0,0,1.367-.772L64.1,146.45c.38-.572.164-1.106-.593-1.486L61.6,143.6a1.37,1.37,0,0,0-.772-.061" transform="translate(-5.571 -24.483)" fill="#fff"/>
            </g>
          </g>
          <g id="Group_7628" data-name="Group 7628" transform="translate(5.318 82.289)">
            <g id="Group_7627" data-name="Group 7627">
              <path id="Path_17861" data-name="Path 17861" d="M15.417,101.043a.442.442,0,0,0-.343.245l-4.627,6.856-2.18-2.155a.488.488,0,0,0-.735-.122l-.857.857a.7.7,0,0,0,0,.857l3.305,3.306a1.662,1.662,0,0,0,.735.293.848.848,0,0,0,.686-.392l5.656-8.3c.2-.294.073-.539-.294-.735l-.93-.686a.79.79,0,0,0-.416-.024" transform="translate(-6.529 -101.027)" fill="#fff"/>
            </g>
          </g>
          <g id="Group_7630" data-name="Group 7630">
            <g id="Group_7629" data-name="Group 7629">
              <path id="Path_17862" data-name="Path 17862" d="M29.491,67.764a5.02,5.02,0,1,1-5.02,5.02,5.02,5.02,0,0,1,5.02-5.02" transform="translate(-4.539 -12.568)" fill="#079cee"/>
            </g>
          </g>
          <g id="Group_7632" data-name="Group 7632" transform="translate(22.419 57.859)">
            <g id="Group_7631" data-name="Group 7631">
              <path id="Path_17863" data-name="Path 17863" d="M31.68,71.041a.205.205,0,0,0-.16.115l-2.165,3.206-1.019-1.008a.227.227,0,0,0-.343-.058l-.4.4a.324.324,0,0,0,0,.4l1.545,1.546a.78.78,0,0,0,.344.138A.4.4,0,0,0,29.8,75.6l2.646-3.882c.091-.137.034-.252-.138-.343l-.435-.321a.37.37,0,0,0-.195-.011" transform="translate(-27.524 -71.034)" fill="#fff"/>
            </g>
          </g>
          <g id="Group_7634" data-name="Group 7634">
            <g id="Group_7633" data-name="Group 7633">
              <path id="Path_17864" data-name="Path 17864" d="M409.707,211.8h65.8a3.453,3.453,0,0,0,3.453-3.453v-29.87a3.453,3.453,0,0,0-3.453-3.453h-65.8a3.453,3.453,0,0,0-3.453,3.453v29.87a3.453,3.453,0,0,0,3.453,3.453" transform="translate(-75.35 -32.463)" fill="#ccf2e8"/>
              <path id="Path_17865" data-name="Path 17865" d="M411.219,300.542h62.773a4.966,4.966,0,0,0,4.966-4.965V229.44a4.966,4.966,0,0,0-4.966-4.966H411.219a4.966,4.966,0,0,0-4.965,4.966v66.136a4.965,4.965,0,0,0,4.965,4.965" transform="translate(-75.35 -41.634)" fill="#eaddf3"/>
              <path id="Path_17866" data-name="Path 17866" d="M329.92,231.179h52.688a3.878,3.878,0,0,0,3.878-3.878V179.253a3.878,3.878,0,0,0-3.878-3.878H329.92a3.878,3.878,0,0,0-3.878,3.878V227.3a3.878,3.878,0,0,0,3.878,3.878" transform="translate(-60.472 -32.527)" fill="#ffe2da"/>
              <path id="Path_17867" data-name="Path 17867" d="M329.9,305.312h52.98a3.862,3.862,0,0,0,3.862-3.862v-47.4a3.862,3.862,0,0,0-3.862-3.862H329.9a3.862,3.862,0,0,0-3.862,3.862v47.4a3.862,3.862,0,0,0,3.862,3.862" transform="translate(-60.472 -46.404)" fill="#ffe2da"/>
              <path id="Path_17868" data-name="Path 17868" d="M205.787,275.38H273.5a5.967,5.967,0,0,0,5.967-5.967V181.082a5.967,5.967,0,0,0-5.967-5.967H205.787a5.967,5.967,0,0,0-5.967,5.967v88.331a5.967,5.967,0,0,0,5.967,5.967" transform="translate(-37.061 -32.479)" fill="#077dbf"/>
              <path id="Path_17869" data-name="Path 17869" d="M267.785,200.36H216.727a1.66,1.66,0,0,1-1.66-1.66v-7.144a1.66,1.66,0,0,1,1.66-1.66h51.058a1.66,1.66,0,0,1,1.66,1.66V198.7a1.66,1.66,0,0,1-1.66,1.66" transform="translate(-39.889 -35.221)" fill="#fff"/>
              <path id="Path_17870" data-name="Path 17870" d="M224.748,217.36a4.841,4.841,0,1,1-4.842-4.842,4.841,4.841,0,0,1,4.842,4.842" transform="translate(-39.889 -39.417)" fill="#fff"/>
              <path id="Path_17871" data-name="Path 17871" d="M270.156,217.058H233.429a1.377,1.377,0,0,1,0-2.755h36.728a1.377,1.377,0,0,1,0,2.755" transform="translate(-43.04 -39.748)" fill="#fff"/>
              <path id="Path_17872" data-name="Path 17872" d="M261.549,222.77H233.468a1.416,1.416,0,1,1,0-2.831h28.081a1.416,1.416,0,1,1,0,2.831" transform="translate(-43.04 -40.793)" fill="#fff"/>
              <path id="Path_17873" data-name="Path 17873" d="M224.748,240.161a4.841,4.841,0,1,1-4.842-4.842,4.841,4.841,0,0,1,4.842,4.842" transform="translate(-39.889 -43.646)" fill="#fff"/>
              <path id="Path_17874" data-name="Path 17874" d="M270.156,239.859H233.429a1.377,1.377,0,0,1,0-2.755h36.728a1.377,1.377,0,0,1,0,2.755" transform="translate(-43.04 -43.977)" fill="#fff"/>
              <path id="Path_17875" data-name="Path 17875" d="M261.549,245.571H233.468a1.416,1.416,0,1,1,0-2.831h28.081a1.416,1.416,0,0,1,0,2.831" transform="translate(-43.04 -45.022)" fill="#fff"/>
              <path id="Path_17876" data-name="Path 17876" d="M224.748,263.681a4.841,4.841,0,1,1-4.842-4.842,4.841,4.841,0,0,1,4.842,4.842" transform="translate(-39.889 -48.008)" fill="#fff"/>
              <path id="Path_17877" data-name="Path 17877" d="M270.156,263.38H233.429a1.377,1.377,0,0,1,0-2.755h36.728a1.377,1.377,0,0,1,0,2.755" transform="translate(-43.04 -48.339)" fill="#fff"/>
              <path id="Path_17878" data-name="Path 17878" d="M261.549,269.093H233.468a1.416,1.416,0,1,1,0-2.831h28.081a1.416,1.416,0,0,1,0,2.831" transform="translate(-43.04 -49.385)" fill="#fff"/>
            </g>
          </g>
          <g id="Group_7636" data-name="Group 7636" transform="translate(177.418 173.273)">
            <g id="Group_7635" data-name="Group 7635">
              <path id="Path_17879" data-name="Path 17879" d="M224.108,212.74a.312.312,0,0,0-.243.173l-3.274,4.851-1.542-1.525a.346.346,0,0,0-.52-.086l-.606.606a.493.493,0,0,0,0,.607l2.339,2.339a1.175,1.175,0,0,0,.52.209.6.6,0,0,0,.485-.278l4-5.874c.138-.208.052-.381-.208-.52l-.658-.485a.566.566,0,0,0-.295-.017" transform="translate(-217.818 -212.729)" fill="#079cee"/>
            </g>
          </g>
          <g id="Group_7638" data-name="Group 7638" transform="translate(177.418 191.605)">
            <g id="Group_7637" data-name="Group 7637">
              <path id="Path_17880" data-name="Path 17880" d="M224.108,235.246a.312.312,0,0,0-.243.174l-3.274,4.851-1.542-1.525a.346.346,0,0,0-.52-.086l-.606.606a.493.493,0,0,0,0,.607l2.339,2.339a1.175,1.175,0,0,0,.52.209.6.6,0,0,0,.485-.278l4-5.874c.138-.208.052-.381-.208-.52l-.658-.485a.566.566,0,0,0-.295-.017" transform="translate(-217.818 -235.235)" fill="#079cee"/>
            </g>
          </g>
          <g id="Group_7640" data-name="Group 7640" transform="translate(177.418 210.641)">
            <g id="Group_7639" data-name="Group 7639">
              <path id="Path_17881" data-name="Path 17881" d="M224.108,258.616a.312.312,0,0,0-.243.173l-3.274,4.851-1.542-1.525a.346.346,0,0,0-.52-.086l-.606.606a.493.493,0,0,0,0,.607l2.339,2.339a1.175,1.175,0,0,0,.52.209.6.6,0,0,0,.485-.278l4-5.874c.138-.208.052-.381-.208-.52l-.658-.485a.566.566,0,0,0-.295-.017" transform="translate(-217.818 -258.605)" fill="#079cee"/>
            </g>
          </g>
          <g id="Group_7642" data-name="Group 7642">
            <g id="Group_7641" data-name="Group 7641">
              <path id="Path_17882" data-name="Path 17882" d="M215.933,285.011h67.716a5.967,5.967,0,0,0,5.967-5.967v-88.33a5.967,5.967,0,0,0-5.967-5.967H215.933a5.967,5.967,0,0,0-5.967,5.967v88.33a5.967,5.967,0,0,0,5.967,5.967" transform="translate(-38.943 -34.266)" fill="#1fa5ef"/>
              <path id="Path_17883" data-name="Path 17883" d="M277.931,209.992H226.873a1.66,1.66,0,0,1-1.66-1.66v-7.144a1.66,1.66,0,0,1,1.66-1.66h51.058a1.66,1.66,0,0,1,1.66,1.66v7.144a1.66,1.66,0,0,1-1.66,1.66" transform="translate(-41.771 -37.007)" fill="#fff"/>
              <path id="Path_17884" data-name="Path 17884" d="M234.894,226.991a4.841,4.841,0,1,1-4.842-4.842,4.841,4.841,0,0,1,4.842,4.842" transform="translate(-41.771 -41.203)" fill="#fff"/>
              <path id="Path_17885" data-name="Path 17885" d="M280.3,226.689H243.575a1.377,1.377,0,0,1,0-2.755H280.3a1.377,1.377,0,0,1,0,2.755" transform="translate(-44.921 -41.534)" fill="#fff"/>
              <path id="Path_17886" data-name="Path 17886" d="M271.7,232.4H243.614a1.416,1.416,0,1,1,0-2.831H271.7a1.416,1.416,0,1,1,0,2.831" transform="translate(-44.921 -42.579)" fill="#fff"/>
              <path id="Path_17887" data-name="Path 17887" d="M234.894,249.793a4.841,4.841,0,1,1-4.842-4.842,4.841,4.841,0,0,1,4.842,4.842" transform="translate(-41.771 -45.432)" fill="#fff"/>
              <path id="Path_17888" data-name="Path 17888" d="M280.3,249.491H243.575a1.377,1.377,0,0,1,0-2.755H280.3a1.377,1.377,0,0,1,0,2.755" transform="translate(-44.921 -45.763)" fill="#fff"/>
              <path id="Path_17889" data-name="Path 17889" d="M271.7,255.2H243.614a1.416,1.416,0,1,1,0-2.831H271.7a1.416,1.416,0,1,1,0,2.831" transform="translate(-44.921 -46.808)" fill="#fff"/>
              <path id="Path_17890" data-name="Path 17890" d="M234.894,273.314a4.841,4.841,0,1,1-4.842-4.842,4.841,4.841,0,0,1,4.842,4.842" transform="translate(-41.771 -49.794)" fill="#fff"/>
              <path id="Path_17891" data-name="Path 17891" d="M280.3,273.012H243.575a1.377,1.377,0,0,1,0-2.755H280.3a1.377,1.377,0,0,1,0,2.755" transform="translate(-44.921 -50.126)" fill="#fff"/>
              <path id="Path_17892" data-name="Path 17892" d="M271.7,278.724H243.614a1.416,1.416,0,1,1,0-2.831H271.7a1.416,1.416,0,1,1,0,2.831" transform="translate(-44.921 -51.171)" fill="#fff"/>
            </g>
          </g>
          <g id="Group_7644" data-name="Group 7644" transform="translate(185.683 181.119)">
            <g id="Group_7643" data-name="Group 7643">
              <path id="Path_17893" data-name="Path 17893" d="M234.253,222.372a.312.312,0,0,0-.243.173l-3.274,4.851-1.542-1.525a.346.346,0,0,0-.52-.086l-.606.606a.493.493,0,0,0,0,.607l2.339,2.339a1.175,1.175,0,0,0,.52.209.6.6,0,0,0,.485-.278l4-5.874c.138-.208.052-.381-.208-.52l-.658-.485a.566.566,0,0,0-.295-.017" transform="translate(-227.964 -222.361)" fill="#079cee"/>
            </g>
          </g>
          <g id="Group_7646" data-name="Group 7646" transform="translate(185.683 199.45)">
            <g id="Group_7645" data-name="Group 7645">
              <path id="Path_17894" data-name="Path 17894" d="M234.253,244.878a.312.312,0,0,0-.243.173l-3.274,4.851-1.542-1.525a.346.346,0,0,0-.52-.086l-.606.606a.493.493,0,0,0,0,.607l2.339,2.338a1.174,1.174,0,0,0,.52.209.6.6,0,0,0,.485-.278l4-5.874c.138-.208.052-.381-.208-.52l-.658-.485a.566.566,0,0,0-.295-.017" transform="translate(-227.964 -244.866)" fill="#079cee"/>
            </g>
          </g>
          <g id="Group_7648" data-name="Group 7648" transform="translate(185.683 218.485)">
            <g id="Group_7647" data-name="Group 7647">
              <path id="Path_17895" data-name="Path 17895" d="M234.253,268.247a.312.312,0,0,0-.243.173l-3.274,4.851-1.542-1.525a.346.346,0,0,0-.52-.086l-.606.606a.493.493,0,0,0,0,.607l2.339,2.339a1.175,1.175,0,0,0,.52.209.6.6,0,0,0,.485-.278l4-5.874c.138-.208.052-.381-.208-.52l-.658-.486a.566.566,0,0,0-.295-.017" transform="translate(-227.964 -268.236)" fill="#079cee"/>
            </g>
          </g>
          <g id="Group_7650" data-name="Group 7650">
            <g id="Group_7649" data-name="Group 7649">
              <path id="Path_17896" data-name="Path 17896" d="M228.5,294.331H296.22a5.967,5.967,0,0,0,5.967-5.967v-88.33a5.967,5.967,0,0,0-5.967-5.967H228.5a5.967,5.967,0,0,0-5.967,5.967v88.33a5.967,5.967,0,0,0,5.967,5.967" transform="translate(-41.275 -35.994)" fill="#9bd7f8"/>
              <path id="Path_17897" data-name="Path 17897" d="M290.5,219.311H239.444a1.66,1.66,0,0,1-1.661-1.66v-7.144a1.66,1.66,0,0,1,1.661-1.66H290.5a1.66,1.66,0,0,1,1.66,1.66v7.144a1.66,1.66,0,0,1-1.66,1.66" transform="translate(-44.103 -38.736)" fill="#fff"/>
              <path id="Path_17898" data-name="Path 17898" d="M247.465,236.311a4.841,4.841,0,1,1-4.842-4.842,4.841,4.841,0,0,1,4.842,4.842" transform="translate(-44.103 -42.931)" fill="#fff"/>
              <path id="Path_17899" data-name="Path 17899" d="M292.873,236.009H256.146a1.377,1.377,0,0,1,0-2.755h36.728a1.377,1.377,0,0,1,0,2.755" transform="translate(-47.253 -43.262)" fill="#fff"/>
              <path id="Path_17900" data-name="Path 17900" d="M284.265,241.722H256.184a1.416,1.416,0,1,1,0-2.831h28.081a1.416,1.416,0,1,1,0,2.831" transform="translate(-47.253 -44.308)" fill="#fff"/>
              <path id="Path_17901" data-name="Path 17901" d="M247.465,259.112a4.841,4.841,0,1,1-4.842-4.842,4.841,4.841,0,0,1,4.842,4.842" transform="translate(-44.103 -47.16)" fill="#fff"/>
              <path id="Path_17902" data-name="Path 17902" d="M292.873,258.811H256.146a1.377,1.377,0,0,1,0-2.755h36.728a1.377,1.377,0,0,1,0,2.755" transform="translate(-47.253 -47.492)" fill="#fff"/>
              <path id="Path_17903" data-name="Path 17903" d="M284.265,264.523H256.184a1.416,1.416,0,1,1,0-2.831h28.081a1.416,1.416,0,1,1,0,2.831" transform="translate(-47.253 -48.537)" fill="#fff"/>
              <path id="Path_17904" data-name="Path 17904" d="M247.465,282.633a4.841,4.841,0,1,1-4.842-4.842,4.841,4.841,0,0,1,4.842,4.842" transform="translate(-44.103 -51.523)" fill="#fff"/>
              <path id="Path_17905" data-name="Path 17905" d="M292.873,282.332H256.146a1.377,1.377,0,0,1,0-2.755h36.728a1.377,1.377,0,0,1,0,2.755" transform="translate(-47.253 -51.854)" fill="#fff"/>
              <path id="Path_17906" data-name="Path 17906" d="M284.265,288.044H256.184a1.416,1.416,0,1,1,0-2.831h28.081a1.416,1.416,0,1,1,0,2.831" transform="translate(-47.253 -52.9)" fill="#fff"/>
            </g>
          </g>
          <g id="Group_7652" data-name="Group 7652" transform="translate(195.921 188.71)">
            <g id="Group_7651" data-name="Group 7651">
              <path id="Path_17907" data-name="Path 17907" d="M246.824,231.692a.312.312,0,0,0-.243.173l-3.274,4.851-1.542-1.525a.346.346,0,0,0-.52-.086l-.606.606a.493.493,0,0,0,0,.607l2.339,2.339a1.175,1.175,0,0,0,.52.208.6.6,0,0,0,.485-.278l4-5.874c.139-.208.052-.381-.208-.52l-.658-.485a.566.566,0,0,0-.295-.017" transform="translate(-240.534 -231.681)" fill="#079cee"/>
            </g>
          </g>
          <g id="Group_7654" data-name="Group 7654" transform="translate(195.921 207.041)">
            <g id="Group_7653" data-name="Group 7653">
              <path id="Path_17908" data-name="Path 17908" d="M246.824,254.2a.312.312,0,0,0-.243.174l-3.274,4.851-1.542-1.525a.346.346,0,0,0-.52-.086l-.606.606a.493.493,0,0,0,0,.607l2.339,2.339a1.175,1.175,0,0,0,.52.209.6.6,0,0,0,.485-.278l4-5.874c.139-.208.052-.381-.208-.52l-.658-.485a.566.566,0,0,0-.295-.017" transform="translate(-240.534 -254.186)" fill="#079cee"/>
            </g>
          </g>
          <g id="Group_7656" data-name="Group 7656" transform="translate(195.921 226.077)">
            <g id="Group_7655" data-name="Group 7655">
              <path id="Path_17909" data-name="Path 17909" d="M246.824,277.567a.312.312,0,0,0-.243.173l-3.274,4.851-1.542-1.525a.346.346,0,0,0-.52-.086l-.606.606a.493.493,0,0,0,0,.607l2.339,2.339a1.175,1.175,0,0,0,.52.209.6.6,0,0,0,.485-.278l4-5.874c.139-.208.052-.381-.208-.52l-.658-.485a.566.566,0,0,0-.295-.017" transform="translate(-240.534 -277.556)" fill="#079cee"/>
            </g>
          </g>
          <g id="Group_7658" data-name="Group 7658" transform="translate(332.446 186.292)">
            <g id="Group_7657" data-name="Group 7657">
              <path id="Path_17910" data-name="Path 17910" d="M434.692,295.215h-4.651a.717.717,0,0,1-.714-.714v-6.629a1.209,1.209,0,0,1,1.206-1.206h4.159a.715.715,0,0,1,.714.713V294.5a.716.716,0,0,1-.714.714" transform="translate(-412.075 -239.461)" fill="#38aff1"/>
              <path id="Path_17911" data-name="Path 17911" d="M445.907,293.418h-4.651a.717.717,0,0,1-.714-.714V278.187a1.21,1.21,0,0,1,1.206-1.206h4.159a.716.716,0,0,1,.714.714V292.7a.716.716,0,0,1-.714.714" transform="translate(-414.155 -237.665)" fill="#078cd6"/>
              <path id="Path_17912" data-name="Path 17912" d="M458,292.7H453.35a.717.717,0,0,1-.715-.714V274.315a1.209,1.209,0,0,1,1.207-1.206H458a.715.715,0,0,1,.714.713v18.164a.716.716,0,0,1-.714.714" transform="translate(-416.398 -236.947)" fill="#076ea8"/>
              <path id="Path_17913" data-name="Path 17913" d="M470.657,292.094h-4.651a.717.717,0,0,1-.714-.714V271.047a1.21,1.21,0,0,1,1.206-1.206h4.159a.715.715,0,0,1,.714.714V291.38a.716.716,0,0,1-.714.714" transform="translate(-418.746 -236.34)" fill="#084f7a"/>
              <path id="Path_17914" data-name="Path 17914" d="M431.962,267.3a1.231,1.231,0,0,1-.864-2.107l10.616-10.476,9.087,4.944,11.117-12.149a1.231,1.231,0,0,1,1.817,1.662l-12.418,13.57-9.175-4.991-9.316,9.192a1.225,1.225,0,0,1-.864.355" transform="translate(-412.336 -232.125)" fill="#00bf8c"/>
              <path id="Path_17915" data-name="Path 17915" d="M435.627,268.059a3.325,3.325,0,1,1-3.326-3.326,3.325,3.325,0,0,1,3.326,3.326" transform="translate(-412.01 -235.393)" fill="#079cee"/>
              <path id="Path_17916" data-name="Path 17916" d="M446.843,257.19a3.325,3.325,0,1,1-3.327-3.326,3.325,3.325,0,0,1,3.327,3.326" transform="translate(-414.091 -233.377)" fill="#079cee"/>
              <path id="Path_17917" data-name="Path 17917" d="M458.936,263.446a3.325,3.325,0,1,1-3.326-3.326,3.325,3.325,0,0,1,3.326,3.326" transform="translate(-416.334 -234.537)" fill="#079cee"/>
              <path id="Path_17918" data-name="Path 17918" d="M471.593,249.377a3.325,3.325,0,1,1-3.326-3.326,3.325,3.325,0,0,1,3.326,3.326" transform="translate(-418.681 -231.928)" fill="#079cee"/>
            </g>
          </g>
          <g id="Group_7660" data-name="Group 7660">
            <g id="Group_7659" data-name="Group 7659">
              <path id="Path_17919" data-name="Path 17919" d="M469.57,189.226H421.9a1.611,1.611,0,1,1,0-3.2H469.57a1.611,1.611,0,1,1,0,3.2" transform="translate(-77.92 -34.503)" fill="#fff"/>
              <path id="Path_17920" data-name="Path 17920" d="M458.4,195.866H421.953a1.655,1.655,0,1,1,0-3.291H458.4a1.655,1.655,0,1,1,0,3.291" transform="translate(-77.92 -35.718)" fill="#fff"/>
              <path id="Path_17921" data-name="Path 17921" d="M469.57,202.8H421.9a1.611,1.611,0,1,1,0-3.2H469.57a1.611,1.611,0,1,1,0,3.2" transform="translate(-77.92 -37.02)" fill="#fff"/>
              <path id="Path_17922" data-name="Path 17922" d="M458.4,209.437H421.953a1.655,1.655,0,1,1,0-3.291H458.4a1.655,1.655,0,1,1,0,3.291" transform="translate(-77.92 -38.235)" fill="#fff"/>
              <path id="Path_17923" data-name="Path 17923" d="M378.627,198.2h-41.9a1.508,1.508,0,0,1-1.509-1.509v-7.447a1.508,1.508,0,0,1,1.509-1.508h41.9a1.508,1.508,0,0,1,1.509,1.508v7.447a1.508,1.508,0,0,1-1.509,1.509" transform="translate(-62.174 -34.82)" fill="#fff"/>
              <path id="Path_17924" data-name="Path 17924" d="M378.627,215.087h-41.9a1.508,1.508,0,0,1-1.509-1.509v-7.447a1.508,1.508,0,0,1,1.509-1.509h41.9a1.508,1.508,0,0,1,1.509,1.509v7.447a1.508,1.508,0,0,1-1.509,1.509" transform="translate(-62.174 -37.952)" fill="#fff"/>
              <path id="Path_17925" data-name="Path 17925" d="M378.627,271.987h-41.9a1.508,1.508,0,0,1-1.509-1.508v-7.447a1.508,1.508,0,0,1,1.509-1.508h41.9a1.508,1.508,0,0,1,1.509,1.508v7.447a1.508,1.508,0,0,1-1.509,1.508" transform="translate(-62.174 -48.506)" fill="#fff"/>
              <path id="Path_17926" data-name="Path 17926" d="M378.627,288.875h-41.9a1.508,1.508,0,0,1-1.509-1.509v-7.447a1.508,1.508,0,0,1,1.509-1.508h41.9a1.508,1.508,0,0,1,1.509,1.508v7.447a1.508,1.508,0,0,1-1.509,1.509" transform="translate(-62.174 -51.638)" fill="#fff"/>
              <path id="Path_17927" data-name="Path 17927" d="M378.627,305.243h-41.9a1.508,1.508,0,0,1-1.509-1.509v-7.447a1.508,1.508,0,0,1,1.509-1.509h41.9a1.508,1.508,0,0,1,1.509,1.509v7.447a1.508,1.508,0,0,1-1.509,1.509" transform="translate(-62.174 -54.674)" fill="#fff"/>
              <path id="Path_17928" data-name="Path 17928" d="M558.96,0a44.5,44.5,0,1,1-44.5,44.5A44.5,44.5,0,0,1,558.96,0" transform="translate(-95.42)" fill="#7fdfc5"/>
            </g>
          </g>
          <g id="Group_7662" data-name="Group 7662" transform="translate(444.25 20.554)">
            <g id="Group_7661" data-name="Group 7661">
              <path id="Path_17929" data-name="Path 17929" d="M582,75.97H547.718a2.308,2.308,0,0,1-2.308-2.309V29.732a2.308,2.308,0,0,1,2.308-2.309H582a2.309,2.309,0,0,1,2.309,2.309V73.66A2.309,2.309,0,0,1,582,75.97" transform="translate(-545.409 -25.64)" fill="#b3c8cd"/>
              <path id="Path_17930" data-name="Path 17930" d="M584.785,73.78H550.5a2.308,2.308,0,0,1-2.308-2.309V27.542a2.308,2.308,0,0,1,2.308-2.309h34.283a2.309,2.309,0,0,1,2.309,2.309V71.47a2.309,2.309,0,0,1-2.309,2.309" transform="translate(-545.925 -25.234)" fill="#f2f2f2"/>
              <path id="Path_17931" data-name="Path 17931" d="M578.886,38.361v.013a7.1,7.1,0,1,1-7.134-7.124h.02a7.13,7.13,0,0,1,7.114,7.111" transform="translate(-548.983 -26.35)" fill="#00bf8c"/>
              <path id="Path_17932" data-name="Path 17932" d="M580.5,38.383h-7.137V31.23h.023a7.149,7.149,0,0,1,7.114,7.153" transform="translate(-550.593 -26.346)" fill="#f7fbfd"/>
              <path id="Path_17933" data-name="Path 17933" d="M560.278,56.542a2.5,2.5,0,1,1-2.5-2.5,2.5,2.5,0,0,1,2.5,2.5" transform="translate(-547.239 -30.577)" fill="#046149"/>
              <path id="Path_17934" data-name="Path 17934" d="M583.739,56.387H564.763a.712.712,0,0,1,0-1.424h18.976a.712.712,0,0,1,0,1.424" transform="translate(-548.867 -30.748)" fill="#046149"/>
              <path id="Path_17935" data-name="Path 17935" d="M582.01,59.339H567.5a.731.731,0,1,1,0-1.463H582.01a.731.731,0,0,1,0,1.463" transform="translate(-549.371 -31.288)" fill="#046149"/>
              <path id="Path_17936" data-name="Path 17936" d="M560.278,65.937a2.5,2.5,0,1,1-2.5-2.5,2.5,2.5,0,0,1,2.5,2.5" transform="translate(-547.239 -32.319)" fill="#046149"/>
              <path id="Path_17937" data-name="Path 17937" d="M583.739,65.782H564.763a.712.712,0,0,1,0-1.424h18.976a.712.712,0,0,1,0,1.424" transform="translate(-548.867 -32.49)" fill="#046149"/>
              <path id="Path_17938" data-name="Path 17938" d="M582.01,68.734H567.5a.731.731,0,1,1,0-1.463H582.01a.731.731,0,0,1,0,1.463" transform="translate(-549.371 -33.031)" fill="#046149"/>
              <path id="Path_17939" data-name="Path 17939" d="M560.278,75.808a2.5,2.5,0,1,1-2.5-2.5,2.5,2.5,0,0,1,2.5,2.5" transform="translate(-547.239 -34.15)" fill="#046149"/>
              <path id="Path_17940" data-name="Path 17940" d="M583.739,75.652H564.763a.712.712,0,0,1,0-1.424h18.976a.712.712,0,0,1,0,1.424" transform="translate(-548.867 -34.321)" fill="#046149"/>
              <path id="Path_17941" data-name="Path 17941" d="M582.01,78.6H567.5a.731.731,0,1,1,0-1.463H582.01a.731.731,0,0,1,0,1.463" transform="translate(-549.371 -34.861)" fill="#046149"/>
            </g>
          </g>
          <g id="Group_7664" data-name="Group 7664">
            <g id="Group_7663" data-name="Group 7663">
              <path id="Path_17942" data-name="Path 17942" d="M652.232,242.771V194.334a9.209,9.209,0,0,0-9.208-9.208H569.359a9.209,9.209,0,0,0-9.208,9.208v97.837a9.208,9.208,0,0,0,9.208,9.208h73.665a9.208,9.208,0,0,0,9.208-9.208Z" transform="translate(-103.893 -34.336)" fill="#8b50b1"/>
              <path id="Path_17943" data-name="Path 17943" d="M649.232,240.9a16.843,16.843,0,0,1,1.825-6.523c2.876-5.327,13.7-14.208,3.115-17.671-2.815-.921-4.61-2.636-5-5.654-.7-5.421.086-11.5.086-17.018a8.912,8.912,0,0,0-8.911-8.911H569.063a8.91,8.91,0,0,0-8.911,8.911V288.71a8.911,8.911,0,0,0,8.911,8.911h71.282a8.913,8.913,0,0,0,8.911-8.911q-.006-10.259-.006-20.518c0-5.307-.1-10.625,0-15.932.07-3.647-.375-7.594-.019-11.357" transform="translate(-103.894 -34.336)" fill="#512e65"/>
              <path id="Path_17944" data-name="Path 17944" d="M570.367,196.79v75.622a2.973,2.973,0,0,0,.869,2.1l16.081,16.081a2.971,2.971,0,0,0,2.1.87h52.232V196.79Z" transform="translate(-105.788 -36.499)" fill="#fff"/>
              <path id="Path_17945" data-name="Path 17945" d="M588.974,296.358a5.94,5.94,0,0,0-5.94-5.94h-11.6a2.928,2.928,0,0,0,.594.869l16.08,16.081a2.971,2.971,0,0,0,.871.594Z" transform="translate(-105.985 -53.865)" fill="#cdebfb"/>
              <path id="Path_17946" data-name="Path 17946" d="M625.828,177.133a6.132,6.132,0,0,1-4.219-4.22,13.371,13.371,0,0,0-25.694,0,6.136,6.136,0,0,1-4.227,4.222,13.373,13.373,0,0,0-9.657,12.739v9.016h53.462v-8.911a13.371,13.371,0,0,0-9.665-12.845m-17.009,3.936a4.455,4.455,0,1,1,4.455-4.455,4.456,4.456,0,0,1-4.455,4.455" transform="translate(-107.951 -30.278)" fill="#b88ad6"/>
              <rect id="Rectangle_2188" data-name="Rectangle 2188" width="53.462" height="8.911" transform="translate(474.079 159.701)" fill="#e0cded"/>
              <path id="Path_17947" data-name="Path 17947" d="M682.873,221.348a2.143,2.143,0,1,0,2.924-.795,2.143,2.143,0,0,0-2.924.795" transform="translate(-126.603 -40.854)" fill="#512e65"/>
              <path id="Path_17948" data-name="Path 17948" d="M686.641,215.159a1.08,1.08,0,1,0,1.473-.4,1.079,1.079,0,0,0-1.473.4" transform="translate(-127.327 -39.806)" fill="#512e65"/>
              <path id="Path_17949" data-name="Path 17949" d="M629.07,271.507h-36.2a1.623,1.623,0,0,1,0-3.2h36.2a1.623,1.623,0,0,1,0,3.2" transform="translate(-109.711 -49.764)" fill="#9a59c5"/>
              <path id="Path_17950" data-name="Path 17950" d="M620.587,278.147H592.913a1.667,1.667,0,0,1,0-3.29h27.674a1.667,1.667,0,0,1,0,3.29" transform="translate(-109.711 -50.979)" fill="#9a59c5"/>
              <path id="Path_17951" data-name="Path 17951" d="M629.07,285.078h-36.2a1.623,1.623,0,0,1,0-3.2h36.2a1.623,1.623,0,0,1,0,3.2" transform="translate(-109.711 -52.281)" fill="#9a59c5"/>
              <path id="Path_17952" data-name="Path 17952" d="M611.223,217.618a16.759,16.759,0,1,1-16.76,16.76,16.76,16.76,0,0,1,16.76-16.76" transform="translate(-110.257 -40.362)" fill="#9a59c5"/>
            </g>
          </g>
          <g id="Group_7666" data-name="Group 7666" transform="translate(493.869 186.912)">
            <g id="Group_7665" data-name="Group 7665">
              <path id="Path_17953" data-name="Path 17953" d="M618.531,229.5a.606.606,0,0,0-.471.336l-6.354,9.413-2.992-2.958a.669.669,0,0,0-1.009-.169l-1.177,1.177a.955.955,0,0,0,0,1.177l4.539,4.539a2.277,2.277,0,0,0,1.008.4,1.166,1.166,0,0,0,.942-.538l7.767-11.4c.269-.4.1-.74-.4-1.008l-1.277-.942a1.09,1.09,0,0,0-.572-.033" transform="translate(-606.327 -229.473)" fill="#fff"/>
            </g>
          </g>
          <g id="Group_7668" data-name="Group 7668">
            <g id="Group_7667" data-name="Group 7667">
              <path id="Path_17954" data-name="Path 17954" d="M405.654,43.64a6.031,6.031,0,1,0,6.721,5.253,6.033,6.033,0,0,0-6.721-5.253" transform="translate(-74.255 -8.086)" fill="#079cee"/>
              <path id="Path_17955" data-name="Path 17955" d="M626.227,94.686a2.847,2.847,0,1,0-1.249,3.828,2.847,2.847,0,0,0,1.249-3.828" transform="translate(-115.15 -17.273)" fill="#7fdfc5"/>
              <path id="Path_17956" data-name="Path 17956" d="M636.346,106.362a4.179,4.179,0,1,0,.838,5.85,4.179,4.179,0,0,0-.838-5.85" transform="translate(-116.786 -19.573)" fill="#19c597"/>
              <path id="Path_17957" data-name="Path 17957" d="M624.792,120.471a1.966,1.966,0,1,0,.394,2.752,1.967,1.967,0,0,0-.394-2.752" transform="translate(-115.299 -22.271)" fill="#019971"/>
              <path id="Path_17958" data-name="Path 17958" d="M389.371,18.788a1.966,1.966,0,1,0,.338,2.76,1.966,1.966,0,0,0-.338-2.76" transform="translate(-71.629 -3.407)" fill="#ff7d59"/>
              <path id="Path_17959" data-name="Path 17959" d="M362.345,20.3a3.783,3.783,0,1,0,4.215,3.295,3.783,3.783,0,0,0-4.215-3.295" transform="translate(-66.589 -3.759)" fill="#00bf8c"/>
            </g>
          </g>
        </g>
      </g>
      <g id="Group_7891" data-name="Group 7891">
        <g id="Cloud_8-2" data-name="Cloud 8" transform="translate(1749.59 690.775)">
          <path id="Path_18136-2" data-name="Path 18136" fill="var(--cloud-accent)" d="M55.52,146.271A54.918,54.918,0,0,0,73.943,143.1a50.963,50.963,0,0,0,73.169,10.354,45.665,45.665,0,0,0,53.907-7.33c1.265.1,2.428.142,3.551.142a51.127,51.127,0,1,0,0-102.254c-.395,0-.794.005-1.189.015a40.492,40.492,0,0,0-54.954-20.739A49.03,49.03,0,0,0,59.6,35.4c-1.4-.111-2.752-.172-4.077-.172a55.523,55.523,0,0,0,0,111.045Z" transform="translate(-254.59 -163.775)"/>
        </g>
        <g id="Cloud_8-3" data-name="Cloud 8" transform="translate(1755.59 701.775)">
          <path id="Path_18136-3" data-name="Path 18136" fill="var(--cloud-color)" d="M55.52,146.271A54.918,54.918,0,0,0,73.943,143.1a50.963,50.963,0,0,0,73.169,10.354,45.665,45.665,0,0,0,53.907-7.33c1.265.1,2.428.142,3.551.142a51.127,51.127,0,1,0,0-102.254c-.395,0-.794.005-1.189.015a40.492,40.492,0,0,0-54.954-20.739A49.03,49.03,0,0,0,59.6,35.4c-1.4-.111-2.752-.172-4.077-.172a55.523,55.523,0,0,0,0,111.045Z" transform="translate(-254.59 -163.775)"/>
        </g>
      </g>
    </g>
  </g>
</svg>
