<svg xmlns="http://www.w3.org/2000/svg" xmlns:xlink="http://www.w3.org/1999/xlink" width="573.291" height="541.396" viewBox="0 0 573.291 541.396">
  <g id="Group_7899" data-name="Group 7899" transform="translate(-1192.355 -233)">
    <g id="Cloud_8" data-name="Cloud 8" transform="translate(1511.056 610.621) rotate(180)">
      <path id="Path_18136" data-name="Path 18136" fill="var(--ifm-cloud-color)" d="M124.477,327.943a123.127,123.127,0,0,0,41.3-7.1,114.259,114.259,0,0,0,164.045,23.215,102.382,102.382,0,0,0,120.859-16.433c2.835.215,5.444.318,7.961.318a114.628,114.628,0,1,0,0-229.255c-.885,0-1.781.011-2.665.034a90.783,90.783,0,0,0-123.207-46.5A109.926,109.926,0,0,0,133.618,79.363c-3.141-.249-6.169-.386-9.141-.386a124.483,124.483,0,0,0,0,248.966Z" transform="translate(-254.59 -163.775)"/>
    </g>
    <g id="Group_7591" data-name="Group 7591" transform="translate(1198 233)">
      <g id="Group_7590" data-name="Group 7590">
        <g id="Group_7575" data-name="Group 7575">
          <g id="Group_7574" data-name="Group 7574">
            <path id="Path_17741" data-name="Path 17741" d="M437.742,435.562c0,5.771-73.113,10.451-163.3,10.451s-163.3-4.679-163.3-10.451,73.113-10.451,163.3-10.451,163.3,4.679,163.3,10.451" transform="translate(-21.441 -82.013)" fill="#b4e1f9"/>
            <rect id="Rectangle_2068" data-name="Rectangle 2068" width="26.226" height="17.43" transform="translate(240.745 328.781)" fill="#084f7a"/>
            <path id="Path_17742" data-name="Path 17742" d="M374.209,436H215.933v-2.066a4.968,4.968,0,0,1,4.968-4.968h148.34a4.968,4.968,0,0,1,4.968,4.968Z" transform="translate(-41.658 -82.756)" fill="#084f7a"/>
            <g id="Group_7573" data-name="Group 7573" transform="translate(240.745 328.781)" opacity="0.5">
              <g id="Group_7572" data-name="Group 7572">
                <g id="Group_7571" data-name="Group 7571">
                  <rect id="Rectangle_2069" data-name="Rectangle 2069" width="26.226" height="8.715" fill="#084f7a"/>
                </g>
              </g>
            </g>
            <path id="Path_17743" data-name="Path 17743" d="M318.86,425.577H292.633a.879.879,0,0,1-.879-.88V407.716a.879.879,0,0,1,.879-.879H318.86a.88.88,0,0,1,.88.879V424.7a.88.88,0,0,1-.88.88" transform="translate(-56.285 -78.487)" fill="#084f7a"/>
            <path id="Rectangle_2071" data-name="Rectangle 2071" d="M14.985,0H376.419A14.985,14.985,0,0,1,391.4,14.985V226.9a14.986,14.986,0,0,1-14.986,14.986H14.986A14.986,14.986,0,0,1,0,226.9V14.985A14.985,14.985,0,0,1,14.985,0Z" transform="translate(53.749 86.892)" fill="#fff"/>
            <path id="Path_17744" data-name="Path 17744" d="M114.975,349.551H78.691A12.094,12.094,0,0,1,66.6,337.456v-217.7a12.094,12.094,0,0,1,12.094-12.094H445.907A12.094,12.094,0,0,1,458,119.756v217.7a12.094,12.094,0,0,1-12.094,12.095H400.831" transform="translate(-12.848 -20.77)" fill="#084f7a"/>
            <path id="Path_17745" data-name="Path 17745" d="M77.528,335.173V126.966a7.7,7.7,0,0,1,7.7-7.7H443.568a7.7,7.7,0,0,1,7.7,7.7V335.173a7.7,7.7,0,0,1-7.7,7.7H85.224a7.7,7.7,0,0,1-7.7-7.7" transform="translate(-14.957 -23.009)" fill="#e6f5fd"/>
            <path id="Path_17746" data-name="Path 17746" d="M134.011,68.448a5.976,5.976,0,1,1-6.659,5.2,5.977,5.977,0,0,1,6.659-5.2" transform="translate(-24.56 -13.196)" fill="#079cee"/>
            <path id="Path_17747" data-name="Path 17747" d="M152.666,49.952a2.251,2.251,0,1,1-2.508,1.96,2.251,2.251,0,0,1,2.508-1.96" transform="translate(-28.965 -9.633)" fill="#ff6f47"/>
            <path id="Path_17748" data-name="Path 17748" d="M178.368,45.107a3.748,3.748,0,1,1-4.177,3.265,3.749,3.749,0,0,1,4.177-3.265" transform="translate(-33.6 -8.697)" fill="#00bf8c"/>
          </g>
        </g>
        <g id="Group_7587" data-name="Group 7587" transform="translate(106.63 113.471)">
          <g id="Group_7586" data-name="Group 7586">
            <path id="Path_17749" data-name="Path 17749" d="M414.3,328.832H141.49a8.038,8.038,0,0,1-8.231-8.232V149.311a8.038,8.038,0,0,1,8.231-8.232h273.2a8.037,8.037,0,0,1,8.23,8.232V321.385c-.39,3.919-4.31,7.448-8.622,7.448" transform="translate(-132.338 -140.688)" fill="#fff"/>
            <g id="Group_7580" data-name="Group 7580" transform="translate(0 179.709)" opacity="0.53">
              <g id="Group_7579" data-name="Group 7579">
                <g id="Group_7578" data-name="Group 7578">
                  <g id="Group_7577" data-name="Group 7577" transform="translate(0 0.001)">
                    <g id="Group_7576" data-name="Group 7576">
                      <path id="Path_17750" data-name="Path 17750" d="M415.511,370.708H139.565a7.443,7.443,0,0,1-7.446-7.448v1.176a7.442,7.442,0,0,0,7.446,7.448H415.119a7.443,7.443,0,0,0,7.449-7.448V363.26a7.643,7.643,0,0,1-7.056,7.448" transform="translate(-132.118 -363.26)" fill="#bbb6b9"/>
                    </g>
                  </g>
                </g>
              </g>
            </g>
            <path id="Path_17751" data-name="Path 17751" d="M417.641,140.593H138.009a6.035,6.035,0,0,0-5.892,5.88v24.3H422.746V146.081a4.865,4.865,0,0,0-4.712-5.1c0-.392,0-.392-.394-.392" transform="translate(-132.118 -140.594)" fill="#084f7a"/>
            <g id="Group_7585" data-name="Group 7585" transform="translate(0.529 29.087)" opacity="0.4">
              <g id="Group_7584" data-name="Group 7584">
                <g id="Group_7583" data-name="Group 7583">
                  <g id="Group_7582" data-name="Group 7582" transform="translate(0 0.002)">
                    <g id="Group_7581" data-name="Group 7581">
                      <rect id="Rectangle_2075" data-name="Rectangle 2075" width="290.628" height="1.176" transform="translate(0.001 -0.002)" fill="#ffe3db"/>
                    </g>
                  </g>
                </g>
              </g>
            </g>
            <path id="Path_17752" data-name="Path 17752" d="M398.333,325.155H165.9a11.881,11.881,0,0,1-12.151-11.76V206A11.881,11.881,0,0,1,165.5,193.846h232.83A11.88,11.88,0,0,1,410.484,205.6V312.613a11.805,11.805,0,0,1-10.975,12.542Z" transform="translate(-136.29 -150.867)" fill="#fff"/>
            <path id="Path_17753" data-name="Path 17753" d="M201.736,151.734a5.88,5.88,0,1,1-5.88,5.88,5.88,5.88,0,0,1,5.88-5.88" transform="translate(-144.414 -142.743)" fill="#00bf8c"/>
            <path id="Path_17754" data-name="Path 17754" d="M176.832,151.734a5.88,5.88,0,1,1-5.88,5.88,5.88,5.88,0,0,1,5.88-5.88" transform="translate(-139.61 -142.743)" fill="#079cee"/>
            <path id="Path_17755" data-name="Path 17755" d="M152.417,151.734a5.88,5.88,0,1,1-5.88,5.88,5.88,5.88,0,0,1,5.88-5.88" transform="translate(-134.9 -142.743)" fill="#9a59c5"/>
            <path id="Path_17756" data-name="Path 17756" d="M231.949,234.506H171.586a6.029,6.029,0,0,1-5.88-5.88V208.244a6.029,6.029,0,0,1,5.88-5.88h60.362a6.028,6.028,0,0,1,5.88,5.88v20.383a6.028,6.028,0,0,1-5.88,5.88" transform="translate(-138.598 -152.511)" fill="#e0d4dc"/>
            <path id="Path_17757" data-name="Path 17757" d="M231.949,285.987H171.586a6.029,6.029,0,0,1-5.88-5.88V259.725a6.029,6.029,0,0,1,5.88-5.88h60.362a6.028,6.028,0,0,1,5.88,5.88v20.383a6.028,6.028,0,0,1-5.88,5.88" transform="translate(-138.598 -162.442)" fill="#c29bdc"/>
            <path id="Path_17758" data-name="Path 17758" d="M231.949,314.584H171.586a6.029,6.029,0,0,1-5.88-5.88V288.322a6.029,6.029,0,0,1,5.88-5.88h60.362a6.028,6.028,0,0,1,5.88,5.88V308.7a6.028,6.028,0,0,1-5.88,5.88" transform="translate(-138.598 -167.959)" fill="#c29bdc"/>
            <path id="Path_17759" data-name="Path 17759" d="M231.949,337.952H171.586a6.029,6.029,0,0,1-5.88-5.88V311.69a6.029,6.029,0,0,1,5.88-5.88h60.362a6.028,6.028,0,0,1,5.88,5.88v20.383a6.028,6.028,0,0,1-5.88,5.88" transform="translate(-138.598 -172.468)" fill="#c29bdc"/>
            <path id="Path_17760" data-name="Path 17760" d="M335.663,276.055H275.3a6.029,6.029,0,0,1-5.88-5.88V208.245a6.029,6.029,0,0,1,5.88-5.88h60.362a6.028,6.028,0,0,1,5.88,5.88v62.323a6.256,6.256,0,0,1-5.88,5.488" transform="translate(-158.606 -152.511)" fill="#b4e1f9"/>
            <path id="Path_17761" data-name="Path 17761" d="M335.663,337.952H275.3a6.029,6.029,0,0,1-5.88-5.88V311.69a6.029,6.029,0,0,1,5.88-5.88h60.362a6.028,6.028,0,0,1,5.88,5.88v20.383c-.391,3.135-2.743,5.88-5.88,5.88" transform="translate(-158.606 -172.468)" fill="#b4e1f9"/>
            <path id="Path_17762" data-name="Path 17762" d="M438.891,234.506H378.528a6.029,6.029,0,0,1-5.88-5.88V208.244a6.029,6.029,0,0,1,5.88-5.88h60.362a6.028,6.028,0,0,1,5.88,5.88v20.383a6.028,6.028,0,0,1-5.88,5.88" transform="translate(-178.521 -152.511)" fill="#66d8ba"/>
            <path id="Path_17763" data-name="Path 17763" d="M438.891,327.733H378.528a6.029,6.029,0,0,1-5.88-5.88V259.53a6.029,6.029,0,0,1,5.88-5.88h60.362a6.028,6.028,0,0,1,5.88,5.88v62.323a5.772,5.772,0,0,1-5.88,5.88" transform="translate(-178.521 -162.405)" fill="#eaddf3"/>
          </g>
        </g>
        <g id="Group_7589" data-name="Group 7589">
          <g id="Group_7588" data-name="Group 7588">
            <path id="Path_17764" data-name="Path 17764" d="M507.682,207.989a2.934,2.934,0,1,0-2.935,2.935,2.935,2.935,0,0,0,2.935-2.935" transform="translate(-96.81 -39.559)" fill="#00bf8c"/>
            <path id="Path_17765" data-name="Path 17765" d="M494.055,222.684a5.976,5.976,0,1,1-5.976-5.976,5.977,5.977,0,0,1,5.976,5.976" transform="translate(-93.007 -41.807)" fill="#00bf8c"/>
            <path id="Path_17766" data-name="Path 17766" d="M112.648,304.982a2.934,2.934,0,1,0,3.39,2.394,2.934,2.934,0,0,0-3.39-2.394" transform="translate(-21.262 -58.829)" fill="#9a59c5"/>
            <path id="Path_17767" data-name="Path 17767" d="M150.4,306.126a2.934,2.934,0,1,0,3.39,2.394,2.934,2.934,0,0,0-3.39-2.394" transform="translate(-28.544 -59.05)" fill="#9a59c5"/>
            <path id="Path_17768" data-name="Path 17768" d="M129.309,314.351a5.976,5.976,0,1,1-4.876,6.9,5.975,5.975,0,0,1,4.876-6.9" transform="translate(-23.989 -60.628)" fill="#9a59c5"/>
            <path id="Path_17769" data-name="Path 17769" d="M653.343,90.726H627.16a5.681,5.681,0,0,0-5.682,5.682v16.14a5.18,5.18,0,0,0,4.676,5.139c.416.039.8.018,1.161.044a1.927,1.927,0,0,1,1.167.441c.685.573.458,1.467.1,2.159-.338.658-1.083,1.093-1.243,1.848a.655.655,0,0,0,.134.591c.5.513,1.663.016,2.169-.243a13.191,13.191,0,0,0,1.966-1.361c1.018-.78,1.911-1.713,2.979-2.429a6.177,6.177,0,0,1,1.7-.766,10.73,10.73,0,0,1,2.849-.318c2.3-.069,4.75-.019,7.054,0,2.385.017,4.77.059,7.155.059a5.682,5.682,0,0,0,5.682-5.682V96.408a5.681,5.681,0,0,0-5.682-5.682" transform="translate(-119.896 -17.503)" fill="#ccf2e8"/>
            <path id="Path_17770" data-name="Path 17770" d="M626.559,130.381a.941.941,0,1,1-1.284-.349.94.94,0,0,1,1.284.349" transform="translate(-120.537 -25.062)" fill="#ccf2e8"/>
            <path id="Path_17771" data-name="Path 17771" d="M622.891,130.345a.575.575,0,1,1-.784-.213.573.573,0,0,1,.784.213" transform="translate(-119.961 -25.09)" fill="#ccf2e8"/>
            <path id="Path_17772" data-name="Path 17772" d="M578.552,60.712H563.8a3.2,3.2,0,0,0-3.2,3.2v9.094a2.919,2.919,0,0,0,2.635,2.9c.234.022.449.01.654.025a1.084,1.084,0,0,1,.658.249c.386.323.258.826.058,1.217-.19.37-.61.615-.7,1.041a.37.37,0,0,0,.076.333c.28.289.937.01,1.222-.136a7.448,7.448,0,0,0,1.108-.768c.573-.439,1.077-.964,1.678-1.368a3.465,3.465,0,0,1,.956-.432,6.024,6.024,0,0,1,1.605-.179c1.3-.039,2.675-.01,3.974,0,1.344.01,2.688.033,4.031.033a3.2,3.2,0,0,0,3.2-3.2v-8.8a3.2,3.2,0,0,0-3.2-3.2" transform="translate(-108.151 -11.713)" fill="#ccf2e8"/>
            <path id="Path_17773" data-name="Path 17773" d="M563.461,83.055a.53.53,0,1,1-.723-.2.53.53,0,0,1,.723.2" transform="translate(-108.512 -15.972)" fill="#ccf2e8"/>
            <path id="Path_17774" data-name="Path 17774" d="M561.394,83.034a.324.324,0,1,1-.442-.12.324.324,0,0,1,.442.12" transform="translate(-108.188 -15.988)" fill="#ccf2e8"/>
            <path id="Path_17775" data-name="Path 17775" d="M635.008,37.161H624.166a2.353,2.353,0,0,0-2.353,2.353V46.2a2.144,2.144,0,0,0,1.936,2.128c.172.015.33.007.48.018a.8.8,0,0,1,.483.184c.284.236.19.606.043.893-.14.272-.448.453-.515.764a.276.276,0,0,0,.056.245c.206.212.688.007.9-.1a5.4,5.4,0,0,0,.814-.563c.421-.323.791-.709,1.233-1.006a2.552,2.552,0,0,1,.7-.317,4.431,4.431,0,0,1,1.18-.132c.953-.028,1.967-.007,2.921,0,.988.007,1.975.024,2.963.024a2.353,2.353,0,0,0,2.353-2.353V39.514a2.353,2.353,0,0,0-2.353-2.353" transform="translate(-119.96 -7.169)" fill="#ccf2e8"/>
            <path id="Path_17776" data-name="Path 17776" d="M623.916,53.582a.39.39,0,1,1-.532-.144.39.39,0,0,1,.532.144" transform="translate(-120.226 -10.299)" fill="#ccf2e8"/>
            <path id="Path_17777" data-name="Path 17777" d="M622.4,53.567a.238.238,0,1,1-.325-.088.238.238,0,0,1,.325.088" transform="translate(-119.987 -10.311)" fill="#ccf2e8"/>
            <path id="Path_17778" data-name="Path 17778" d="M415.788,214.965a5.635,5.635,0,1,1-5.634,5.634,5.634,5.634,0,0,1,5.634-5.634" transform="translate(-79.127 -41.471)" fill="#fff"/>
            <path id="Path_17779" data-name="Path 17779" d="M401,217.367a3.7,3.7,0,1,1-3.7,3.7,3.7,3.7,0,0,1,3.7-3.7" transform="translate(-76.649 -41.935)" fill="#fff"/>
            <path id="Path_17780" data-name="Path 17780" d="M431.5,217.367a3.7,3.7,0,1,1-3.7,3.7,3.7,3.7,0,0,1,3.7-3.7" transform="translate(-82.532 -41.935)" fill="#fff"/>
            <path id="Path_17781" data-name="Path 17781" d="M190.393,295.408a2.572,2.572,0,1,1-2.572,2.571,2.572,2.572,0,0,1,2.572-2.571" transform="translate(-36.234 -56.99)" fill="#fff"/>
            <path id="Path_17782" data-name="Path 17782" d="M229.876,295.408a2.352,2.352,0,1,1-2.353,2.352,2.352,2.352,0,0,1,2.353-2.352" transform="translate(-43.894 -56.99)" fill="#fff"/>
            <path id="Path_17783" data-name="Path 17783" d="M208.035,296.318a9.928,9.928,0,1,1-10.289,9.921,10.111,10.111,0,0,1,10.289-9.921" transform="translate(-38.149 -57.166)" fill="#fff"/>
            <path id="Path_17784" data-name="Path 17784" d="M209.213,278.106a5.149,5.149,0,1,1-5.365,5.144,5.258,5.258,0,0,1,5.365-5.144" transform="translate(-39.326 -53.652)" fill="#fff"/>
            <path id="Path_17785" data-name="Path 17785" d="M70.69,292.845H7.782A7.805,7.805,0,0,1,0,285.063V222.156a7.805,7.805,0,0,1,7.782-7.783H70.69a7.806,7.806,0,0,1,7.783,7.783v62.907a7.806,7.806,0,0,1-7.783,7.783" transform="translate(0 -41.357)" fill="#9a59c5"/>
            <path id="Path_17786" data-name="Path 17786" d="M70.543,253.563a1.653,1.653,0,1,0,1.312,1.934,1.652,1.652,0,0,0-1.312-1.934" transform="translate(-13.23 -48.912)" fill="#fff"/>
            <path id="Path_17787" data-name="Path 17787" d="M63.384,258.116a.892.892,0,1,0,.709,1.045.893.893,0,0,0-.709-1.045" transform="translate(-12.023 -49.793)" fill="#fff"/>
            <path id="Path_17788" data-name="Path 17788" d="M59.009,237.458a1.653,1.653,0,1,0,2.132.956,1.652,1.652,0,0,0-2.132-.956" transform="translate(-11.179 -45.789)" fill="#079cee"/>
            <path id="Path_17789" data-name="Path 17789" d="M55.242,245.216a.892.892,0,1,0,1.152.517.893.893,0,0,0-1.152-.517" transform="translate(-10.546 -47.296)" fill="#079cee"/>
            <path id="Path_17790" data-name="Path 17790" d="M42.91,234.376a1.652,1.652,0,1,1-2.335.1,1.653,1.653,0,0,1,2.335-.1" transform="translate(-7.744 -45.132)" fill="#00bf8c"/>
            <path id="Path_17791" data-name="Path 17791" d="M43.964,243.058a.893.893,0,1,1-1.261.054.891.891,0,0,1,1.261-.054" transform="translate(-8.193 -46.846)" fill="#00bf8c"/>
            <path id="Path_17792" data-name="Path 17792" d="M72.913,271.214a1.653,1.653,0,1,0-.14,2.332,1.652,1.652,0,0,0,.14-2.332" transform="translate(-13.509 -52.215)" fill="#ff6f47"/>
            <path id="Path_17793" data-name="Path 17793" d="M64.611,270.385a.892.892,0,1,0-.076,1.26.893.893,0,0,0,.076-1.26" transform="translate(-12.164 -52.105)" fill="#ff6f47"/>
            <path id="Path_17794" data-name="Path 17794" d="M28.916,253.943a11.879,11.879,0,0,0,3.768,2.637l-.546.468c-1,.864-5.276,2.119,1.864,10.406s9.013,4.242,10.007,3.377l1.38-1.186c.082-.07.164-.128.245-.19a10.19,10.19,0,0,0,3.99,6.287,9.958,9.958,0,0,0,6.043,1.775,4.375,4.375,0,0,1-.529.546L53.9,279.127a11.563,11.563,0,0,1-8.218,3.361c-5.5.034-11.288-3.425-17.2-10.285s-8.476-13.093-7.627-18.531a11.589,11.589,0,0,1,4.537-7.626l.151-.131a12.512,12.512,0,0,0,3.37,8.027" transform="translate(-3.993 -47.442)" fill="#fff"/>
            <path id="Path_17795" data-name="Path 17795" d="M55.585,281.176a10.192,10.192,0,0,1-3.99-6.287c2.208-1.68,4.467-.5,6.689,1.421l1.4,1.2c2.085,1.813,3.427,3.642,1.949,5.438a9.958,9.958,0,0,1-6.044-1.775" transform="translate(-9.954 -52.876)" fill="#e6e6e6"/>
            <path id="Path_17796" data-name="Path 17796" d="M33.5,246.844l.985,1.549c1.625,2.573,2.475,5.068.192,7.046l-.83.712a11.873,11.873,0,0,1-3.769-2.637,12.517,12.517,0,0,1-3.37-8.027l1.093-.939c2.281-1.965,4.069-.279,5.7,2.3" transform="translate(-5.152 -47.013)" fill="#e6e6e6"/>
            <path id="Path_17797" data-name="Path 17797" d="M566.829,145.138a44.089,44.089,0,1,1-44.089,44.089,44.089,44.089,0,0,1,44.089-44.089" transform="translate(-100.847 -28)" fill="#00bf8c"/>
            <path id="Path_17798" data-name="Path 17798" d="M358.643,46.764a44.089,44.089,0,1,1-44.089,44.089,44.089,44.089,0,0,1,44.089-44.089" transform="translate(-60.684 -9.022)" fill="#cdebfb"/>
            <path id="Path_17799" data-name="Path 17799" d="M575.682,195.193h19.541a4.241,4.241,0,0,1,4.24,4.24v12.046a3.867,3.867,0,0,1-3.491,3.835c-.31.029-.595.013-.866.033a1.437,1.437,0,0,0-.872.329c-.511.427-.341,1.1-.076,1.611.252.491.808.815.928,1.379a.493.493,0,0,1-.1.441c-.371.383-1.241.013-1.618-.181a9.848,9.848,0,0,1-1.468-1.016c-.76-.581-1.426-1.278-2.222-1.812a4.619,4.619,0,0,0-1.266-.572,8.029,8.029,0,0,0-2.126-.237c-1.718-.052-3.545-.014-5.264,0-1.78.012-3.561.044-5.34.044a4.24,4.24,0,0,1-4.24-4.24V199.433a4.24,4.24,0,0,1,4.24-4.24" transform="translate(-110.243 -37.657)" fill="#077dbf"/>
            <path id="Path_17800" data-name="Path 17800" d="M602.034,224.787a.7.7,0,1,0,.958-.261.7.7,0,0,0-.958.261" transform="translate(-116.127 -43.298)" fill="#077dbf"/>
            <path id="Path_17801" data-name="Path 17801" d="M604.9,224.76a.429.429,0,1,0,.586-.159.428.428,0,0,0-.586.159" transform="translate(-116.687 -43.319)" fill="#077dbf"/>
            <path id="Path_17802" data-name="Path 17802" d="M582.382,176.986H555.09a5.923,5.923,0,0,0-5.923,5.922v16.823a5.4,5.4,0,0,0,4.875,5.357c.433.04.831.018,1.21.047a2,2,0,0,1,1.217.459c.714.6.477,1.529.107,2.25-.353.686-1.129,1.14-1.3,1.927a.681.681,0,0,0,.141.616c.517.534,1.732.017,2.259-.253a13.832,13.832,0,0,0,2.051-1.419c1.06-.813,1.99-1.785,3.1-2.532a6.493,6.493,0,0,1,1.768-.8,11.222,11.222,0,0,1,2.969-.331c2.4-.072,4.951-.019,7.352,0,2.487.018,4.972.062,7.458.062a5.922,5.922,0,0,0,5.922-5.922V182.908a5.923,5.923,0,0,0-5.922-5.922" transform="translate(-105.945 -34.144)" fill="#fff"/>
            <path id="Path_17803" data-name="Path 17803" d="M558.563,189.319h23.6a1.163,1.163,0,0,0,0-2.293h-23.6a1.163,1.163,0,0,0,0,2.293" transform="translate(-107.572 -36.081)" fill="#00bf8c"/>
            <path id="Path_17804" data-name="Path 17804" d="M582.16,199.149h-23.6a1.163,1.163,0,0,0,0,2.293h23.6a1.163,1.163,0,0,0,0-2.293" transform="translate(-107.572 -38.42)" fill="#00bf8c"/>
            <path id="Path_17805" data-name="Path 17805" d="M582.16,193.087h-23.6a1.163,1.163,0,0,0,0,2.293h23.6a1.163,1.163,0,0,0,0-2.293" transform="translate(-107.572 -37.25)" fill="#00bf8c"/>
            <path id="Path_17806" data-name="Path 17806" d="M554.464,218.319a.98.98,0,1,1-1.338-.363.981.981,0,0,1,1.338.363" transform="translate(-106.614 -42.023)" fill="#fff"/>
            <path id="Path_17807" data-name="Path 17807" d="M550.64,218.281a.6.6,0,1,1-.818-.222.6.6,0,0,1,.818.222" transform="translate(-106.014 -42.053)" fill="#fff"/>
            <path id="Path_17808" data-name="Path 17808" d="M383.927,129.6c0,2.61-8.5,4.725-18.995,4.725s-19-2.115-19-4.725,8.505-4.725,19-4.725,18.995,2.115,18.995,4.725" transform="translate(-66.738 -24.092)" fill="#e6f5fd"/>
            <path id="Path_17809" data-name="Path 17809" d="M374.925,69.6h-17.29a4.835,4.835,0,0,0-4.715,4.946v39.116a4.834,4.834,0,0,0,4.715,4.945h17.29a4.834,4.834,0,0,0,4.716-4.945V74.55a4.835,4.835,0,0,0-4.716-4.946m-10.217,1.649h3.144a.825.825,0,0,1,0,1.649h-3.144a.825.825,0,0,1,0-1.649" transform="translate(-68.085 -13.428)" fill="#079cee"/>
            <path id="Path_17810" data-name="Path 17810" d="M379.978,96.5c0,8-6.181,14.478-13.805,14.478S352.368,104.5,352.368,96.5s6.181-14.478,13.805-14.478,13.805,6.482,13.805,14.478" transform="translate(-67.979 -15.824)" fill="#fff"/>
            <path id="Path_17811" data-name="Path 17811" d="M366.28,85.783a8.9,8.9,0,0,0-3.709.79.49.49,0,0,0-.327.4.509.509,0,0,0,.207.484.454.454,0,0,0,.5.011,7.933,7.933,0,0,1,3.325-.7,9.7,9.7,0,0,1,4.745,1.163.465.465,0,0,0,.642-.21.511.511,0,0,0-.2-.674,10.684,10.684,0,0,0-5.187-1.27m-5.128,1.642a.463.463,0,0,0-.207.094,13.461,13.461,0,0,0-3.015,3.208c-.358.512-.646.973-.886,1.332a5.183,5.183,0,0,1-.5.682.5.5,0,0,0-.232.475.485.485,0,0,0,.312.422.456.456,0,0,0,.5-.122,3.846,3.846,0,0,0,.695-.884c.249-.374.545-.827.886-1.318a12.444,12.444,0,0,1,2.779-2.976.5.5,0,0,0,.2-.571.474.474,0,0,0-.477-.343Zm5.438.837a.5.5,0,0,0-.406.566.483.483,0,0,0,.54.426c4.807.295,6.839,3.1,7.7,6.278a16.875,16.875,0,0,1,0,8.075.5.5,0,0,0,.3.628.469.469,0,0,0,.6-.318,17.312,17.312,0,0,0,.015-8.649,8.911,8.911,0,0,0-8.557-7.006.551.551,0,0,0-.1,0h-.09Zm6.415.031a.487.487,0,0,0-.377.387.509.509,0,0,0,.2.512c3.7,2.678,4.286,8.741,4.286,8.741a.482.482,0,0,0,.517.45.492.492,0,0,0,.429-.542s-.506-6.417-4.7-9.455a.46.46,0,0,0-.355-.093m-8.231.155-.031.015c-3.267.68-4.848,3.04-6.074,5.038a.515.515,0,0,0,.141.689.463.463,0,0,0,.658-.147c1.21-1.977,2.533-4.01,5.453-4.619a.5.5,0,0,0,.355-.56.478.478,0,0,0-.5-.416m1.98,2.294a5.768,5.768,0,0,0-3.872,1.38.512.512,0,0,0-.073.7.457.457,0,0,0,.664.077,4.785,4.785,0,0,1,3.281-1.162,6.433,6.433,0,0,1,1.2.109.46.46,0,0,0,.458-.161.515.515,0,0,0,.086-.5.48.48,0,0,0-.381-.316,7.378,7.378,0,0,0-1.36-.124m2.956.713a.262.262,0,0,0-.044.015.487.487,0,0,0-.366.426.5.5,0,0,0,.262.5c2.071,1.108,3.341,3.522,3.341,6.774a17.758,17.758,0,0,1-.28,2.96.494.494,0,0,0,.376.581.475.475,0,0,0,.554-.4,18.683,18.683,0,0,0,.3-3.146c0-3.527-1.427-6.357-3.856-7.658a.458.458,0,0,0-.281-.061m-2.956,1.767a4.252,4.252,0,0,0-2.911,1.054,7.679,7.679,0,0,0-1.656,2.341.512.512,0,0,0,.2.674.465.465,0,0,0,.643-.209,6.763,6.763,0,0,1,1.419-2.046,3.248,3.248,0,0,1,2.305-.822,3.19,3.19,0,0,1,2.261.838,4.544,4.544,0,0,1,1.211,2.03.488.488,0,0,0,.347.362.459.459,0,0,0,.467-.151.518.518,0,0,0,.089-.506,5.567,5.567,0,0,0-1.493-2.48,4.173,4.173,0,0,0-2.882-1.085m-4.981.279a.47.47,0,0,0-.31.217c-.943,1.338-1.625,2.824-2.408,3.89a3.014,3.014,0,0,1-2.942,1.566.482.482,0,0,0-.517.45.493.493,0,0,0,.429.542,4.092,4.092,0,0,0,3.784-1.953c.877-1.2,1.54-2.674,2.409-3.906a.515.515,0,0,0,.06-.517.473.473,0,0,0-.415-.288h-.09ZM358.018,94.9a.565.565,0,0,0-.073.015.476.476,0,0,0-.3.2,3.989,3.989,0,0,1-1.788,1.612.484.484,0,0,0-.358.374.507.507,0,0,0,.165.5.457.457,0,0,0,.5.058,4.882,4.882,0,0,0,2.248-1.954.513.513,0,0,0,.052-.538.469.469,0,0,0-.452-.267m7.938.5a.449.449,0,0,0-.163.061,3.974,3.974,0,0,0-1.523,2.357,25,25,0,0,1-.9,2.588c-.927,1.874-2.7,3.735-5.127,3.735a.474.474,0,0,0-.417.246.523.523,0,0,0,0,.5.473.473,0,0,0,.417.247c2.884,0,4.932-2.165,5.971-4.263a22.549,22.549,0,0,0,.945-2.713,3.428,3.428,0,0,1,1.094-1.829.509.509,0,0,0,.233-.6.473.473,0,0,0-.528-.331m1.64.093a.48.48,0,0,0-.384.4.5.5,0,0,0,.22.517,2.956,2.956,0,0,1,.74,2.341,14.489,14.489,0,0,1-.931,4.324,10.793,10.793,0,0,1-3.354,4.9.517.517,0,0,0-.119.7.464.464,0,0,0,.665.124,11.713,11.713,0,0,0,3.68-5.363,15,15,0,0,0,1-4.681,3.73,3.73,0,0,0-1.168-3.162.456.456,0,0,0-.354-.093m-.916,2.2a.488.488,0,0,0-.4.465,11.979,11.979,0,0,1-.916,3.55.519.519,0,0,0,.011.529.469.469,0,0,0,.462.217.483.483,0,0,0,.384-.343,13.32,13.32,0,0,0,1.006-3.891.51.51,0,0,0-.153-.4.459.459,0,0,0-.394-.124m-5.069.5a.48.48,0,0,0-.326.264,7.147,7.147,0,0,1-1.64,2.278,4.146,4.146,0,0,1-2.837.931.473.473,0,0,0-.417.245.527.527,0,0,0,0,.5.475.475,0,0,0,.417.247,5.16,5.16,0,0,0,3.428-1.147,8.023,8.023,0,0,0,1.892-2.573.523.523,0,0,0-.013-.528.468.468,0,0,0-.46-.217Zm9.355.481a.418.418,0,0,0-.059.015.493.493,0,0,0-.37.5,16.307,16.307,0,0,1-2.852,8.943.518.518,0,0,0,.082.705.465.465,0,0,0,.672-.085,17.355,17.355,0,0,0,3.044-9.564.505.505,0,0,0-.148-.378.462.462,0,0,0-.37-.134m-6.074,4.371a.465.465,0,0,0-.34.232A8.631,8.631,0,0,1,360.8,106.6a.505.505,0,0,0-.251.651.466.466,0,0,0,.62.264,9.657,9.657,0,0,0,4.169-3.7.515.515,0,0,0,.016-.537.463.463,0,0,0-.46-.238m7.67.775a.487.487,0,0,0-.385.387c-.37,1.472-.738,2.5-.738,2.5a.511.511,0,0,0,.066.508.457.457,0,0,0,.458.176.482.482,0,0,0,.362-.342s.386-1.068.768-2.588a.515.515,0,0,0-.086-.452.461.461,0,0,0-.4-.184Z" transform="translate(-68.581 -16.549)" fill="#00bf8c"/>
            <path id="Path_17812" data-name="Path 17812" d="M369.492,126.758a2.063,2.063,0,0,1-2.447-2.567,2.039,2.039,0,0,1,1.449-1.52,2.064,2.064,0,0,1,2.448,2.567,2.037,2.037,0,0,1-1.449,1.52" transform="translate(-70.799 -23.654)" fill="#fff"/>
            <path id="Path_17813" data-name="Path 17813" d="M269.4,53.472a8.254,8.254,0,0,0-3.308.671.414.414,0,0,0-.291.341.434.434,0,0,0,.185.414.427.427,0,0,0,.452.008,7.321,7.321,0,0,1,2.966-.595,8.985,8.985,0,0,1,4.232.987.425.425,0,1,0,.4-.751,9.995,9.995,0,0,0-4.633-1.076m-4.574,1.4a.434.434,0,0,0-.186.08,11.844,11.844,0,0,0-2.692,2.73c-.316.434-.579.826-.793,1.135a4.636,4.636,0,0,1-.447.582.424.424,0,0,0,.072.764.415.415,0,0,0,.443-.106,3.417,3.417,0,0,0,.62-.751c.224-.316.485-.7.793-1.122a10.838,10.838,0,0,1,2.481-2.532.421.421,0,0,0-.249-.776.163.163,0,0,0-.042,0m4.852.713a.426.426,0,1,0,.118.843c4.286.249,6.1,2.637,6.869,5.341a13.732,13.732,0,0,1,0,6.869.424.424,0,1,0,.805.266,14.061,14.061,0,0,0,.013-7.358,7.851,7.851,0,0,0-7.637-5.961.3.3,0,0,0-.093,0h-.076Zm5.721.025a.421.421,0,0,0-.16.763c3.3,2.278,3.822,7.434,3.822,7.434a.423.423,0,1,0,.843-.076s-.451-5.46-4.194-8.042a.417.417,0,0,0-.312-.08m-7.345.135-.025.013c-2.916.578-4.325,2.586-5.417,4.282a.424.424,0,0,0,.713.46c1.08-1.68,2.261-3.413,4.864-3.928a.42.42,0,0,0-.135-.827m1.767,1.949a5.3,5.3,0,0,0-3.455,1.173.423.423,0,1,0,.527.662,4.392,4.392,0,0,1,2.928-.987,5.836,5.836,0,0,1,1.068.093.422.422,0,1,0,.148-.831,6.7,6.7,0,0,0-1.215-.11m2.638.608-.038.013a.417.417,0,0,0-.325.363.426.426,0,0,0,.232.43c1.847.94,2.978,3,2.978,5.763a14.588,14.588,0,0,1-.249,2.518.423.423,0,1,0,.831.157,15.281,15.281,0,0,0,.262-2.675c0-3-1.274-5.409-3.443-6.515a.4.4,0,0,0-.249-.055m-2.638,1.5a3.929,3.929,0,0,0-2.6.894,6.475,6.475,0,0,0-1.476,1.992.424.424,0,1,0,.751.4,5.741,5.741,0,0,1,1.266-1.738,3,3,0,0,1,2.059-.7,2.919,2.919,0,0,1,2.017.713,3.828,3.828,0,0,1,1.08,1.726.425.425,0,0,0,.308.308.431.431,0,0,0,.418-.127.423.423,0,0,0,.08-.43,4.688,4.688,0,0,0-1.333-2.11,3.824,3.824,0,0,0-2.57-.924m-4.442.236a.426.426,0,0,0-.278.186c-.844,1.139-1.452,2.405-2.148,3.307a2.729,2.729,0,0,1-2.625,1.333.424.424,0,0,0-.076.844,3.709,3.709,0,0,0,3.375-1.663c.785-1.017,1.376-2.274,2.148-3.324a.415.415,0,0,0,.055-.439.424.424,0,0,0-.371-.245h-.08Zm-3.35,1.19-.068.013a.415.415,0,0,0-.261.173,3.512,3.512,0,0,1-1.595,1.371.424.424,0,0,0-.32.316.411.411,0,0,0,.148.422.421.421,0,0,0,.447.051,4.306,4.306,0,0,0,2-1.663.424.424,0,0,0,.047-.46.415.415,0,0,0-.4-.224m7.08.422a.4.4,0,0,0-.144.051,3.392,3.392,0,0,0-1.358,2,21.376,21.376,0,0,1-.805,2.2,5.368,5.368,0,0,1-4.574,3.177.421.421,0,0,0-.371.211.425.425,0,0,0,.371.638,6.194,6.194,0,0,0,5.324-3.625A18.345,18.345,0,0,0,268.392,64a2.891,2.891,0,0,1,.975-1.557.426.426,0,0,0,.207-.511.413.413,0,0,0-.468-.282m1.464.076a.421.421,0,0,0-.144.776,2.443,2.443,0,0,1,.659,1.991,11.821,11.821,0,0,1-.831,3.679,9.2,9.2,0,0,1-2.991,4.169.427.427,0,1,0,.489.7,9.946,9.946,0,0,0,3.282-4.56,12.285,12.285,0,0,0,.894-3.983,3.1,3.1,0,0,0-1.042-2.692.422.422,0,0,0-.316-.08m-.818,1.873a.415.415,0,0,0-.354.4,9.738,9.738,0,0,1-.818,3.02.422.422,0,0,0,.421.638.415.415,0,0,0,.342-.291,10.878,10.878,0,0,0,.894-3.307.42.42,0,0,0-.135-.342.436.436,0,0,0-.35-.114m-4.523.422a.423.423,0,0,0-.291.224,6.06,6.06,0,0,1-1.464,1.936,3.8,3.8,0,0,1-2.527.793.425.425,0,0,0-.371.638.429.429,0,0,0,.371.211A4.742,4.742,0,0,0,264,66.846a6.863,6.863,0,0,0,1.688-2.19.418.418,0,0,0-.013-.447.425.425,0,0,0-.409-.186.135.135,0,0,0-.042,0m8.349.409a.511.511,0,0,0-.051.013.424.424,0,0,0-.328.421,13.479,13.479,0,0,1-2.545,7.608.427.427,0,0,0,.672.527,14.34,14.34,0,0,0,2.717-8.135.422.422,0,0,0-.131-.32.429.429,0,0,0-.333-.114m-5.421,3.717a.418.418,0,0,0-.3.2,7.582,7.582,0,0,1-3.349,2.835.422.422,0,0,0,.328.776,8.466,8.466,0,0,0,3.717-3.152.426.426,0,0,0,.017-.456.413.413,0,0,0-.409-.2M275,68.8a.418.418,0,0,0-.341.329c-.333,1.253-.659,2.122-.659,2.122a.424.424,0,0,0,.468.583.432.432,0,0,0,.325-.291s.345-.907.684-2.2a.422.422,0,0,0-.435-.54H275" transform="translate(-50.115 -10.316)" fill="#9bd7f8"/>
            <rect id="Rectangle_2079" data-name="Rectangle 2079" width="20.537" height="20.537" transform="translate(225.523 32.884)" fill="none" stroke="#c0bebf" stroke-miterlimit="10" stroke-width="2.566"/>
            <path id="Path_17814" data-name="Path 17814" d="M301.394,35.96a.889.889,0,0,0-.69.493l-9.313,13.8-4.386-4.336a.981.981,0,0,0-1.479-.247L283.8,47.393a1.4,1.4,0,0,0,0,1.724l6.652,6.652a3.333,3.333,0,0,0,1.479.592,1.708,1.708,0,0,0,1.379-.789l11.382-16.7c.395-.592.148-1.084-.591-1.478l-1.872-1.38a1.588,1.588,0,0,0-.838-.049" transform="translate(-54.694 -6.931)" fill="#00bf8c"/>
            <path id="Path_17815" data-name="Path 17815" d="M340.215,18.789a.514.514,0,0,0-.4.284l-5.37,7.957-2.529-2.5a.567.567,0,0,0-.853-.142l-.994,1a.805.805,0,0,0,0,.994l3.836,3.836a1.925,1.925,0,0,0,.853.341.983.983,0,0,0,.795-.455l6.565-9.633c.228-.341.086-.625-.341-.852l-1.08-.8a.921.921,0,0,0-.483-.028" transform="translate(-63.644 -3.621)" fill="#00bf8c"/>
            <path id="Path_17816" data-name="Path 17816" d="M319.011.014a.368.368,0,0,0-.286.2l-3.86,5.718-1.818-1.8a.407.407,0,0,0-.613-.1l-.715.716a.58.58,0,0,0,0,.714l2.757,2.757a1.389,1.389,0,0,0,.613.245.708.708,0,0,0,.571-.327l4.717-6.923c.164-.245.061-.45-.245-.613l-.776-.572a.664.664,0,0,0-.347-.02" transform="translate(-60.114 0)" fill="#00bf8c"/>
            <path id="Path_17817" data-name="Path 17817" d="M409.112,42.7A14.3,14.3,0,1,1,394.75,56.944,14.3,14.3,0,0,1,409.112,42.7" transform="translate(-76.155 -8.237)" fill="#084f7a"/>
            <path id="Path_17818" data-name="Path 17818" d="M411.888,50.027a.806.806,0,0,0-.579-.243l-1.724-.006a.936.936,0,0,0-.866.858l-.039,5.979L402.7,56.6a.937.937,0,0,0-.866.859l-.007,1.724a.938.938,0,0,0,.859.866l5.979.039-.025,5.993a.937.937,0,0,0,.859.865l1.724.007a.937.937,0,0,0,.866-.859l.052-5.992,5.993.024a.938.938,0,0,0,.865-.859l.007-1.724a.938.938,0,0,0-.859-.866l-5.993-.052.01-5.979a.977.977,0,0,0-.28-.623" transform="translate(-77.521 -9.603)" fill="#fff"/>
          </g>
        </g>
      </g>
    </g>
    <g id="Cloud_8-2" data-name="Cloud 8" transform="matrix(-0.995, 0.105, -0.105, -0.995, 1436.279, 541.281)">
      <path id="Path_18136-2" data-name="Path 18136" fill="var(--ifm-cloud-accent)" d="M55.52,146.271A54.918,54.918,0,0,0,73.943,143.1a50.963,50.963,0,0,0,73.169,10.354,45.665,45.665,0,0,0,53.907-7.33c1.265.1,2.428.142,3.551.142a51.127,51.127,0,1,0,0-102.254c-.395,0-.794.005-1.189.015a40.492,40.492,0,0,0-54.954-20.739A49.03,49.03,0,0,0,59.6,35.4c-1.4-.111-2.752-.172-4.077-.172a55.523,55.523,0,0,0,0,111.045Z" transform="translate(-254.59 -163.775)"/>
    </g>
    <g id="Cloud_8-3" data-name="Cloud 8" transform="matrix(-0.995, 0.105, -0.105, -0.995, 1452.59, 558.399)">
      <path id="Path_18136-3" data-name="Path 18136" fill="var(--ifm-cloud-color)" d="M58.856,155.059A58.217,58.217,0,0,0,78.385,151.7a54.024,54.024,0,0,0,77.564,10.976,48.409,48.409,0,0,0,57.145-7.77c1.341.1,2.574.15,3.764.15a54.2,54.2,0,1,0,0-108.4c-.418,0-.842.005-1.26.016a42.924,42.924,0,0,0-58.255-21.985A51.976,51.976,0,0,0,63.178,37.525c-1.485-.118-2.917-.182-4.322-.182a58.858,58.858,0,0,0,0,117.717Z" transform="translate(-254.59 -163.775)"/>
    </g>
  </g>
</svg>
