<svg xmlns="http://www.w3.org/2000/svg" xmlns:xlink="http://www.w3.org/1999/xlink" width="699.473" height="517.293" viewBox="0 0 699.473 517.293">
  <g id="Group_7898" data-name="Group 7898" transform="translate(-1071.709 -227.5)">
    <g id="Cloud_8" data-name="Cloud 8" transform="translate(1326.299 539.775)">
      <path id="Path_18136" data-name="Path 18136" fill="var(--cloud-color)" d="M124.477,327.943a123.127,123.127,0,0,0,41.3-7.1,114.259,114.259,0,0,0,164.045,23.215,102.382,102.382,0,0,0,120.859-16.433c2.835.215,5.444.318,7.961.318a114.628,114.628,0,1,0,0-229.255c-.885,0-1.781.011-2.665.034a90.783,90.783,0,0,0-123.207-46.5A109.926,109.926,0,0,0,133.618,79.363c-3.141-.249-6.169-.386-9.141-.386a124.483,124.483,0,0,0,0,248.966Z" transform="translate(-254.59 -163.775)"/>
    </g>
    <g id="Group_7607" data-name="Group 7607" transform="translate(1091.063 227.5)">
      <g id="Group_7606" data-name="Group 7606">
        <g id="Group_7605" data-name="Group 7605">
          <g id="Group_7604" data-name="Group 7604">
            <path id="Path_17819" data-name="Path 17819" d="M560.7,420.474c0,5.831-73.871,10.559-164.995,10.559s-164.995-4.728-164.995-10.559,73.871-10.559,164.995-10.559S560.7,414.643,560.7,420.474" transform="translate(-35.478 -63.034)" fill="#b4e1f9"/>
            <rect id="Rectangle_2082" data-name="Rectangle 2082" width="26.498" height="17.61" transform="translate(347.852 332.416)" fill="#084f7a"/>
            <path id="Path_17820" data-name="Path 17820" d="M491.616,420.738H331.7v-2.088a5.02,5.02,0,0,1,5.02-5.02H486.6a5.02,5.02,0,0,1,5.02,5.02Z" transform="translate(-51.006 -63.605)" fill="#084f7a"/>
            <g id="Group_7594" data-name="Group 7594" transform="translate(347.851 332.415)" opacity="0.5">
              <g id="Group_7593" data-name="Group 7593">
                <g id="Group_7592" data-name="Group 7592">
                  <rect id="Rectangle_2083" data-name="Rectangle 2083" width="26.498" height="8.805" transform="translate(0.001 0.001)" fill="#084f7a"/>
                </g>
              </g>
            </g>
            <path id="Path_17821" data-name="Path 17821" d="M432.148,411.24h-26.5a.888.888,0,0,1-.888-.889V393.194a.887.887,0,0,1,.888-.888h26.5a.888.888,0,0,1,.889.888v17.158a.888.888,0,0,1-.889.889" transform="translate(-62.241 -60.326)" fill="#084f7a"/>
            <path id="Rectangle_2085" data-name="Rectangle 2085" d="M14.44,0H381.021a14.441,14.441,0,0,1,14.441,14.441V229.956A14.441,14.441,0,0,1,381.021,244.4H14.44A14.44,14.44,0,0,1,0,229.957V14.44A14.44,14.44,0,0,1,14.44,0Z" transform="translate(158.917 88.018)" fill="#fff"/>
            <path id="Path_17822" data-name="Path 17822" d="M236.674,348.409H200.014a12.22,12.22,0,0,1-12.22-12.22V116.232a12.22,12.22,0,0,1,12.22-12.22H571.036a12.22,12.22,0,0,1,12.22,12.22V336.19a12.22,12.22,0,0,1-12.22,12.22H525.493" transform="translate(-28.877 -15.994)" fill="#084f7a"/>
            <path id="Path_17823" data-name="Path 17823" d="M198.327,333.34V122.975A7.776,7.776,0,0,1,206.1,115.2H568.162a7.775,7.775,0,0,1,7.775,7.776V333.34a7.775,7.775,0,0,1-7.775,7.776H206.1a7.776,7.776,0,0,1-7.776-7.776" transform="translate(-30.497 -17.714)" fill="#e6f5fd"/>
            <rect id="Rectangle_2086" data-name="Rectangle 2086" width="36.387" height="4.764" transform="translate(220.493 123.482)" fill="#084f7a"/>
            <rect id="Rectangle_2087" data-name="Rectangle 2087" width="25.064" height="4.764" transform="translate(238.685 139.759)" fill="#084f7a"/>
            <rect id="Rectangle_2088" data-name="Rectangle 2088" width="195.7" height="4.764" transform="translate(319.182 139.759)" fill="#084f7a"/>
            <rect id="Rectangle_2089" data-name="Rectangle 2089" width="28.199" height="4.764" transform="translate(281.001 139.759)" fill="#084f7a"/>
            <rect id="Rectangle_2090" data-name="Rectangle 2090" width="123.081" height="4.764" transform="translate(247.217 153.339)" fill="#079cee"/>
            <rect id="Rectangle_2091" data-name="Rectangle 2091" width="63.381" height="4.764" transform="translate(267.449 172.522)" fill="#00bf8c"/>
            <rect id="Rectangle_2092" data-name="Rectangle 2092" width="69.26" height="4.764" transform="translate(220.493 190.571)" fill="#ff6f47"/>
            <rect id="Rectangle_2093" data-name="Rectangle 2093" width="50.035" height="4.764" transform="translate(297.163 190.571)" fill="#9a59c5"/>
            <rect id="Rectangle_2094" data-name="Rectangle 2094" width="92.871" height="4.764" transform="translate(238.686 208.621)" fill="#084f7a"/>
            <rect id="Rectangle_2095" data-name="Rectangle 2095" width="82.641" height="4.764" transform="translate(369.485 208.621)" fill="#079cee"/>
            <rect id="Rectangle_2096" data-name="Rectangle 2096" width="29.146" height="4.764" transform="translate(335.483 208.621)" fill="#084f7a"/>
            <rect id="Rectangle_2097" data-name="Rectangle 2097" width="81.262" height="4.764" transform="translate(269.56 226.669)" fill="#ff6f47"/>
            <rect id="Rectangle_2098" data-name="Rectangle 2098" width="17.015" height="4.764" transform="translate(247.217 226.669)" fill="#9a59c5"/>
            <rect id="Rectangle_2099" data-name="Rectangle 2099" width="55.433" height="4.764" transform="translate(220.493 239.925)" fill="#00bf8c"/>
            <rect id="Rectangle_2100" data-name="Rectangle 2100" width="19.049" height="4.764" transform="translate(280.228 239.925)" fill="#084f7a"/>
            <rect id="Rectangle_2101" data-name="Rectangle 2101" width="90.942" height="4.764" transform="translate(304.585 239.925)" fill="#084f7a"/>
            <rect id="Rectangle_2102" data-name="Rectangle 2102" width="103.016" height="4.764" transform="translate(402.59 239.925)" fill="#9a59c5"/>
            <rect id="Rectangle_2103" data-name="Rectangle 2103" width="28.763" height="4.765" transform="translate(238.686 257.973)" fill="#084f7a"/>
            <rect id="Rectangle_2104" data-name="Rectangle 2104" width="68.279" height="4.765" transform="translate(275.926 257.973)" fill="#079cee"/>
            <rect id="Rectangle_2105" data-name="Rectangle 2105" width="55.433" height="4.764" transform="translate(254.165 276.023)" fill="#00bf8c"/>
            <rect id="Rectangle_2106" data-name="Rectangle 2106" width="55.434" height="4.764" transform="translate(321.244 276.023)" fill="#ff6f47"/>
            <rect id="Rectangle_2107" data-name="Rectangle 2107" width="73.104" height="4.764" transform="translate(385.287 276.023)" fill="#084f7a"/>
            <rect id="Rectangle_2108" data-name="Rectangle 2108" width="15.663" height="4.764" transform="translate(494.084 172.522)" fill="#00bf8c"/>
            <rect id="Rectangle_2109" data-name="Rectangle 2109" width="150.705" height="4.764" transform="translate(336.426 172.522)" fill="#084f7a"/>
            <rect id="Rectangle_2110" data-name="Rectangle 2110" width="199.786" height="4.764" transform="translate(267.449 123.482)" fill="#079cee"/>
            <rect id="Rectangle_2111" data-name="Rectangle 2111" width="7.667" height="7.668" transform="translate(195.818 116.384)" fill="#084f7a"/>
            <rect id="Rectangle_2112" data-name="Rectangle 2112" width="7.667" height="7.669" transform="translate(195.818 136.576)" fill="#084f7a"/>
            <rect id="Rectangle_2113" data-name="Rectangle 2113" width="7.667" height="7.669" transform="translate(195.818 156.768)" fill="#084f7a"/>
            <rect id="Rectangle_2114" data-name="Rectangle 2114" width="7.667" height="7.669" transform="translate(195.818 176.96)" fill="#084f7a"/>
            <rect id="Rectangle_2115" data-name="Rectangle 2115" width="7.667" height="7.669" transform="translate(195.818 197.152)" fill="#084f7a"/>
            <rect id="Rectangle_2116" data-name="Rectangle 2116" width="7.667" height="7.667" transform="translate(195.818 217.345)" fill="#084f7a"/>
            <rect id="Rectangle_2117" data-name="Rectangle 2117" width="7.667" height="7.668" transform="translate(195.818 237.536)" fill="#084f7a"/>
            <rect id="Rectangle_2118" data-name="Rectangle 2118" width="7.668" height="7.668" transform="translate(195.817 257.729)" fill="#084f7a"/>
            <rect id="Rectangle_2119" data-name="Rectangle 2119" width="7.668" height="7.667" transform="translate(195.817 277.921)" fill="#084f7a"/>
            <rect id="Rectangle_2120" data-name="Rectangle 2120" width="7.668" height="7.668" transform="translate(195.817 298.113)" fill="#084f7a"/>
            <path id="Path_17824" data-name="Path 17824" d="M748,180.993a33.715,33.715,0,1,1-33.715,33.715A33.715,33.715,0,0,1,748,180.993" transform="translate(-109.837 -27.832)" fill="#9a59c5"/>
            <path id="Path_17825" data-name="Path 17825" d="M764.665,226l-1.373-1.015c-2.05-1.722-4.106-2.765-5.942-1.038l-1.215,1.038c-.862.774-2.5,4.306-8.758-2.97s-2.556-8.347-1.661-9.119l1.188-1.04c1.99-1.722,1.248-3.922-.21-6.181l-.86-1.335c-1.425-2.259-2.973-3.714-5.022-1.99l-1.07.95a10.007,10.007,0,0,0-3.95,6.684c-.714,4.75,1.574,10.22,6.771,16.22s10.28,8.915,15.092,8.915a10.1,10.1,0,0,0,7.19-2.972l1.07-.922c2.02-1.752.772-3.507-1.248-5.225" transform="translate(-113.124 -31)" fill="#fff"/>
            <path id="Path_17826" data-name="Path 17826" d="M437.953,58.8H388.194a22.315,22.315,0,0,1,0-44.629h49.759a22.315,22.315,0,0,1,0,44.629" transform="translate(-56.262 -2.179)" fill="#00bf8c"/>
            <path id="Path_17827" data-name="Path 17827" d="M381.763,67.073A10.068,10.068,0,1,1,383.106,52.9a10.069,10.069,0,0,1-1.344,14.175" transform="translate(-56.17 -7.573)" fill="#00bf8c"/>
            <path id="Path_17828" data-name="Path 17828" d="M363.432,77.754a4.014,4.014,0,1,1-4.014-4.014,4.014,4.014,0,0,1,4.014,4.014" transform="translate(-54.651 -11.339)" fill="#00bf8c"/>
            <path id="Path_17829" data-name="Path 17829" d="M419.741,28.862a10.5,10.5,0,1,1-10.5,10.5,10.5,10.5,0,0,1,10.5-10.5" transform="translate(-62.929 -4.438)" fill="#fff"/>
            <path id="Path_17830" data-name="Path 17830" d="M393.288,33.132a6.891,6.891,0,1,1-6.891,6.891,6.891,6.891,0,0,1,6.891-6.891" transform="translate(-59.417 -5.095)" fill="#fff"/>
            <path id="Path_17831" data-name="Path 17831" d="M447.507,33.132a6.891,6.891,0,1,1-6.891,6.891,6.891,6.891,0,0,1,6.891-6.891" transform="translate(-67.754 -5.095)" fill="#fff"/>
            <g id="Group_7597" data-name="Group 7597" transform="translate(419.024)" opacity="0.5">
              <g id="Group_7596" data-name="Group 7596">
                <g id="Group_7595" data-name="Group 7595">
                  <path id="Path_17832" data-name="Path 17832" d="M526.931,0H507.763a8.621,8.621,0,0,0-8.6,8.6,8.507,8.507,0,0,0,.972,3.946,3.877,3.877,0,1,0,6.172,4.516,8.555,8.555,0,0,0,1.451.133h19.168a8.6,8.6,0,1,0,0-17.191" transform="translate(-495.752)" fill="#00bf8c"/>
                  <path id="Path_17833" data-name="Path 17833" d="M496.713,22.947a1.546,1.546,0,1,0,1.546,1.546,1.546,1.546,0,0,0-1.546-1.546" transform="translate(-495.167 -3.529)" fill="#00bf8c"/>
                </g>
              </g>
            </g>
            <g id="Group_7600" data-name="Group 7600" transform="translate(458.394 27.04)" opacity="0.2">
              <g id="Group_7599" data-name="Group 7599">
                <g id="Group_7598" data-name="Group 7598">
                  <path id="Path_17834" data-name="Path 17834" d="M563.014,31.954H550.147a5.788,5.788,0,0,0-5.77,5.77,5.714,5.714,0,0,0,.653,2.65,2.6,2.6,0,1,0,4.143,3.032,5.774,5.774,0,0,0,.974.089h12.868a5.77,5.77,0,1,0,0-11.541" transform="translate(-542.084 -31.954)" fill="#00bf8c"/>
                  <path id="Path_17835" data-name="Path 17835" d="M542.728,47.359a1.038,1.038,0,1,0,1.038,1.038,1.038,1.038,0,0,0-1.038-1.038" transform="translate(-541.691 -34.323)" fill="#00bf8c"/>
                </g>
              </g>
            </g>
            <g id="Group_7603" data-name="Group 7603" transform="translate(44.321 146.725)" opacity="0.3">
              <g id="Group_7602" data-name="Group 7602">
                <g id="Group_7601" data-name="Group 7601">
                  <path id="Path_17836" data-name="Path 17836" d="M187.2,289.323H56.3a3.928,3.928,0,0,1-3.928-3.928V177.315a3.928,3.928,0,0,1,3.928-3.928H187.2a3.928,3.928,0,0,1,3.928,3.928V285.395a3.928,3.928,0,0,1-3.928,3.928" transform="translate(-52.375 -173.387)" fill="#084062"/>
                </g>
              </g>
            </g>
            <path id="Path_17837" data-name="Path 17837" d="M178.787,279.149H47.893a3.928,3.928,0,0,1-3.929-3.928V167.141a3.928,3.928,0,0,1,3.929-3.928H178.787a3.928,3.928,0,0,1,3.928,3.928V275.221a3.928,3.928,0,0,1-3.928,3.928" transform="translate(-6.76 -25.098)" fill="#fff"/>
            <path id="Path_17838" data-name="Path 17838" d="M170.082,246.135H60.371A4.135,4.135,0,0,1,56.236,242V182a4.135,4.135,0,0,1,4.135-4.135H170.082A4.135,4.135,0,0,1,174.217,182v60a4.135,4.135,0,0,1-4.135,4.135" transform="translate(-8.648 -27.351)" fill="#cdebfb"/>
            <line id="Line_3" data-name="Line 3" x2="84.773" transform="translate(52.043 230.991)" fill="none" stroke="#08304b" stroke-linecap="round" stroke-miterlimit="10" stroke-width="3.97"/>
            <line id="Line_4" data-name="Line 4" x2="59.046" transform="translate(52.043 239.783)" fill="none" stroke="#08304b" stroke-linecap="round" stroke-miterlimit="10" stroke-width="3.97"/>
            <path id="Path_17839" data-name="Path 17839" d="M142.53,214.52a20.267,20.267,0,1,1-20.266-20.266A20.267,20.267,0,0,1,142.53,214.52" transform="translate(-15.684 -29.871)" fill="#079cee"/>
            <path id="Path_17840" data-name="Path 17840" d="M121.721,210.124,132.863,216a1.539,1.539,0,0,1,0,2.722l-11.3,5.963a1.539,1.539,0,0,1-2.257-1.382l.158-11.843a1.539,1.539,0,0,1,2.257-1.34" transform="translate(-18.346 -32.284)" fill="#fff"/>
            <path id="Path_17841" data-name="Path 17841" d="M699.087,209.645a2.965,2.965,0,1,0-2.964,2.964,2.965,2.965,0,0,0,2.964-2.964" transform="translate(-106.588 -31.782)" fill="#00bf8c"/>
            <path id="Path_17842" data-name="Path 17842" d="M681.831,220.642a6.038,6.038,0,1,1-6.038-6.038,6.038,6.038,0,0,1,6.038,6.038" transform="translate(-102.99 -33)" fill="#077dbf"/>
            <path id="Path_17843" data-name="Path 17843" d="M12.077,180.574a6.038,6.038,0,1,1-6.038-6.038,6.038,6.038,0,0,1,6.038,6.038" transform="translate(0 -26.839)" fill="#079cee"/>
            <path id="Path_17844" data-name="Path 17844" d="M31.025,196.243a2.274,2.274,0,1,1-2.274-2.274,2.274,2.274,0,0,1,2.274,2.274" transform="translate(-4.071 -29.827)" fill="#ff6f47"/>
          </g>
        </g>
      </g>
    </g>
    <g id="Cloud_3" data-name="Cloud 3" transform="translate(1483 509.549)">
      <path id="Path_18129" data-name="Path 18129" fill="var(--cloud-accent)" d="M31.289,141.9H211.035a47.147,47.147,0,1,0,0-94.294,46.641,46.641,0,0,0-8.323.747A63.021,63.021,0,0,0,83.425,38.362a46.685,46.685,0,0,0-10.076-1.1A47.208,47.208,0,0,0,26.442,79.7a31.29,31.29,0,0,0,4.847,62.2Z" transform="translate(0 0)"/>
    </g>
    <g id="Cloud_3-2" data-name="Cloud 3" transform="translate(1496.88 509.548)">
      <path id="Path_18129-2" data-name="Path 18129" fill="var(--cloud-color)" d="M33.243,150.763H224.212a50.091,50.091,0,1,0,0-100.181,49.553,49.553,0,0,0-8.842.794A66.956,66.956,0,0,0,88.634,40.757a49.6,49.6,0,0,0-10.7-1.166A50.156,50.156,0,0,0,28.093,84.677a33.244,33.244,0,0,0,5.15,66.086Z" transform="translate(0 0)"/>
    </g>
  </g>
</svg>
