<svg xmlns="http://www.w3.org/2000/svg" width="194" height="194" viewBox="-1 -1 194 194"><path fill="#000" d="M136 184c-13.37 3.6-20.92 7.82-36 8-19.08.22-36.47-3.22-53-13.2-16.03-9.68-28.79-22.99-37.19-39.8C-10.08 99.22.64 49.63 35 21.46 60.53.54 95.84-5.51 127 5c9.46 3.2 22.78 9.1 29 17L89 89l-15.96 16c-1.98 2.12-4.72 4.8-4.08 8 .77 3.84 13.64 15.6 17.04 19l33 33c5.17 5.17 14.01 12.67 17 19Zm29.99-149.83c5.13-.46 7.03 3.89 9.66 7.83 6.28 9.41 10.28 18.05 13.2 29 7.45 27.96 1.99 57.36-14.57 81-3.77 5.39-14.66 17.78-20.28 20.55-6.24 3.08-13.06-6.61-17-10.55l-36-36c-2.57-2.57-11.8-10.67-11.8-14 0-2.49 3.17-5.33 4.8-7l13-13 38-38c5.18-5.18 15.38-16.42 20.99-19.83Zm-5 36.61c-11.01 2.09-6.83 9.35-5.27 15.22.25 2.21.34 4.74 0 7 .07 3.94-1.01 7.36-2.85 10.83-1.14 2.14-3.41 4.69-3.28 7.18.21 4.08 5.43 7.9 9.4 6.91 3.67-.91 6.92-5.69 8.47-8.92 4.27-8.93 4.99-17.54 2.38-27-1.48-5.4-2.88-10.04-8.85-11.22Z"/></svg>