<?xml version="1.0" encoding="UTF-8"?><svg id="Layer_1" xmlns="http://www.w3.org/2000/svg" viewBox="0 0 522.81 522.81"><defs><style>.cls-1{fill:#ff6c37;}</style></defs><path class="cls-1" d="M433.53,70.25l-187.69,235.83,185.74,148.22c53.39-47.14,87.07-116.08,87.07-192.89s-32.86-144.07-85.11-191.16Zm5.42,255.21c-3.69,0-7.42-.99-10.78-3.08-9.62-5.96-12.59-18.6-6.63-28.22,.47-.89,7.49-11.34,9.37-26.39,1.88-17.11-4.31-30.75-7.63-36.65-.59-1.02-1.22-2.04-1.89-3.06-.02-.02-.03-.05-.04-.06l.03,.05c-6.19-9.48-3-22.26,6.63-28.22,3.36-2.08,7.09-3.08,10.78-3.08,5.86,0,11.6,2.52,15.57,7.16l.1-.08c.78,1.06,6.23,8.68,10.9,20.87,2.25,5.81,3.95,11.73,5.08,17.72,4.91,25.24,.09,50.5-14.06,73.34-3.88,6.26-10.58,9.71-17.45,9.71Zm-234.69-.11c-8.84-7.06-10.3-19.94-3.25-28.79L400.99,45.3C360.78,19.28,312.86,4.16,261.41,4.16,119.33,4.16,4.16,119.33,4.16,261.41s115.17,257.24,257.24,257.24c50.02,0,96.7-14.29,136.2-39l-193.35-154.3Z"/></svg>