<svg width="113" height="113" viewBox="0 0 113 113" fill="none" xmlns="http://www.w3.org/2000/svg"><path d="M88.97 28.346a.655.655 0 0 0-.3.877 1.955 1.955 0 0 1-.244 2.125.654.654 0 0 0 1.009.834 3.265 3.265 0 0 0 .408-3.545.655.655 0 0 0-.873-.291Z" fill="#FF6C37"/><path d="M63.796.465C32.798-3.503 4.442 18.363.466 49.317c-3.976 30.955 17.92 59.252 48.92 63.223 31.001 3.971 59.358-17.895 63.331-48.84C116.69 32.754 94.795 4.439 63.797.465ZM75.448 35.71a4.035 4.035 0 0 0-2.794 1.18L51.655 57.849l-4.477-4.472c20.687-20.603 24.417-20.8 28.27-17.667ZM52.51 58.597 73.448 37.69a2.924 2.924 0 0 1 4.778.99 2.91 2.91 0 0 1-.788 3.26L55.281 61.367l-2.771-2.77Zm1.558 3.263-5.188 1.117a.291.291 0 0 1-.267-.49l3.04-3.037 2.415 2.41ZM40.846 59.7l5.529-5.52 4.144 4.137-9.334 2.006a.37.37 0 0 1-.34-.623Zm-17.19 28.533a.36.36 0 0 1-.212-.612l4.46-4.455 5.762 5.752-10.01-.685Zm11.437-5.921a1.076 1.076 0 0 0-.555 1.197l.957 4.079a.598.598 0 0 1-.997.553l-5.789-5.778 17.735-17.707 8.585-1.841 4.12 4.113c-5.924 5.176-14.017 10.352-24.056 15.38v.004Zm24.888-16.14-3.957-3.948 22.16-19.432c.206-.18.393-.381.558-.6-.7 6.344-9.57 15.286-18.755 23.976l-.006.004Zm17.241-30.424a8.573 8.573 0 0 1-.233-11.834 8.604 8.604 0 0 1 11.829-.805l-7.606 7.595a.56.56 0 0 0 0 .797l5.88 5.872a8.58 8.58 0 0 1-9.858-1.63l-.012.005Zm12.156 0a8.4 8.4 0 0 1-1.273 1.039l-5.697-5.688 7.23-7.217a8.571 8.571 0 0 1-.263 11.861l.003.005Z" fill="#FF6C37"/></svg>