<svg viewBox="188 35 35 35" xmlns="http://www.w3.org/2000/svg">
  <path d="m216.72 40.86a16.18 16.18 0 1 0 -2.85 25.52l-11.34-11.33z" fill="none"/>
  <path d="m217 41.08-.25-.22-14.22 14.19 11.34 11.33a16 16 0 0 0 3.13-2.38 16.2 16.2 0 0 0 0-22.92z" fill="none"/>
  <g fill="#ff6c37">
    <path d="m217.07 50.69a1.16 1.16 0 1 0 -2.07 1 3.49 3.49 0 0 1 -.43 3.76 1.16 1.16 0 0 0 .15 1.63 1.17 1.17 0 0 0 1.63-.16 5.79 5.79 0 0 0 .72-6.23z"/>
    <path d="m205.5 69.72a17.19 17.19 0 1 1 11.91-29.58 1 1 0 0 1 .31.71 1 1 0 0 1 -.29.72l-13.43 13.48 10.63 10.62a1 1 0 0 1 .28.83 1 1 0 0 1 -.48.74 17.21 17.21 0 0 1 -8.93 2.48zm0-32.34a15.16 15.16 0 1 0 6.71 28.76l-10.38-10.39a1 1 0 0 1 -.3-.7 1 1 0 0 1 .3-.71l13.44-13.44a15.19 15.19 0 0 0 -9.76-3.52z"/>
    <path d="m213.87 67.38a1 1 0 0 1 -.71-.29l-11.33-11.34a1 1 0 0 1 -.3-.7 1 1 0 0 1 .3-.71l14.17-14.19a1 1 0 0 1 1.4 0l.26.23a17.15 17.15 0 0 1 -3.29 26.87 1 1 0 0 1 -.5.13zm-9.87-12.33 10 10.06a15.79 15.79 0 0 0 2.25-1.84 15.19 15.19 0 0 0 .46-21z"/>
  </g>
</svg>
