<svg xmlns="http://www.w3.org/2000/svg" viewBox="0 0 111 110" version="1.0"><path fill="#306998" d="M54.813 0C26.781 0 28.532 12.156 28.532 12.156l.031 12.594h26.75v3.781H17.938S0 26.497 0 54.781s15.657 27.281 15.657 27.281H25V68.937s-.503-15.656 15.407-15.656h26.531s14.906.241 14.906-14.406V14.656S84.107 0 54.813 0zm-14.75 8.469a4.808 4.808 0 0 1 4.813 4.812 4.808 4.808 0 0 1-4.813 4.813 4.808 4.808 0 0 1-4.813-4.813 4.808 4.808 0 0 1 4.813-4.813z"/><path fill="#FFD43B" d="M55.609 109.846c28.032 0 26.281-12.156 26.281-12.156l-.03-12.594H55.11v-3.781h37.374s17.938 2.034 17.938-26.25c0-28.285-15.657-27.282-15.657-27.282h-9.343v13.125s.503 15.657-15.407 15.657h-26.53s-14.907-.241-14.907 14.406V95.19s-2.263 14.656 27.031 14.656zm14.75-8.469a4.808 4.808 0 0 1-4.812-4.812 4.808 4.808 0 0 1 4.812-4.813 4.808 4.808 0 0 1 4.813 4.813 4.808 4.808 0 0 1-4.813 4.812z"/></svg>