<svg xmlns="http://www.w3.org/2000/svg" width="70" height="70" viewBox="0 0 70 70">
  <g id="Group_7896" data-name="Group 7896" transform="translate(-548 -481)">
    <g id="Group_7866" data-name="Group 7866" transform="translate(-5683 5525)">
      <circle id="Ellipse_892" data-name="Ellipse 892" cx="35" cy="35" r="35" transform="translate(6231 -5044)" fill="#e6f5fd"/>
    </g>
    <g id="c" transform="translate(359.193 337.519)">
      <path id="Path_18142" data-name="Path 18142" d="M242.688,170.218a3.683,3.683,0,0,0-.465-1.885,3.556,3.556,0,0,0-1.361-1.326q-7.539-4.345-15.089-8.69a3.714,3.714,0,0,0-4.014.035c-2,1.175-12.029,6.922-15.008,8.656a3.481,3.481,0,0,0-1.827,3.223v17.5a3.815,3.815,0,0,0,.442,1.85,3.648,3.648,0,0,0,1.384,1.373c2.99,1.733,13.007,7.469,15.008,8.656a3.692,3.692,0,0,0,4.014.035q7.539-4.363,15.089-8.691a3.491,3.491,0,0,0,1.384-1.373,3.815,3.815,0,0,0,.442-1.85Z" transform="translate(0 0)" fill="#9a4993"/>
      <path id="Path_18143" data-name="Path 18143" d="M231.836,582.333,213.327,592.99a3.648,3.648,0,0,0,1.384,1.373c2.99,1.733,13.007,7.469,15.008,8.655a3.691,3.691,0,0,0,4.014.035q7.539-4.363,15.089-8.69a3.492,3.492,0,0,0,1.384-1.373Z" transform="translate(-7.983 -403.424)" fill="#6a1577"/>
      <path id="Path_18144" data-name="Path 18144" d="M474.735,585.486a6.241,6.241,0,0,0,10.866-.035l-5.386-3.118Z" transform="translate(-256.361 -403.424)" fill="#6a1577"/>
      <path id="Path_18145" data-name="Path 18145" d="M603.5,372.057a3.683,3.683,0,0,0-.465-1.885l-18.37,10.575L603.06,391.4a3.815,3.815,0,0,0,.442-1.85Z" transform="translate(-360.814 -201.838)" fill="#813084"/>
      <g id="Group_7883" data-name="Group 7883" transform="translate(211.242 166.426)">
        <path id="Path_18146" data-name="Path 18146" d="M349.66,347.5a6.253,6.253,0,1,1-.047-6.189l5.456-3.141a12.53,12.53,0,1,0,.047,12.483Zm6.9-6.026h-1.245v6.015h1.245Zm2.757,0h-1.245v6.015h1.245Z" transform="translate(-331.662 -331.895)" fill="#fff"/>
        <path id="Path_18147" data-name="Path 18147" d="M792.106,544.289h-6.015v1.245h6.015Zm0,2.745h-6.015v1.245h6.015Z" transform="translate(-763.44 -533.702)" fill="#fff"/>
      </g>
    </g>
  </g>
</svg>
