<svg xmlns="http://www.w3.org/2000/svg" width="70" height="70" viewBox="0 0 70 70">
  <g id="Group_7863" data-name="Group 7863" transform="translate(-5480 5044)">
    <circle id="Ellipse_889" data-name="Ellipse 889" cx="35" cy="35" r="35" transform="translate(5480 -5044)" fill="#e6f5fd"/>
    <g id="Group_7857" data-name="Group 7857" transform="translate(5495.416 -5028.584)">
      <g id="Group_7506" data-name="Group 7506" transform="translate(0 0)">
        <path id="Path_16677" data-name="Path 16677" d="M55.626,34.538a27.126,27.126,0,0,0-4.536.387c-4.017.71-4.747,2.2-4.747,4.935v3.618h9.493v1.206H42.78a5.928,5.928,0,0,0-5.93,4.813,17.748,17.748,0,0,0,0,9.648c.675,2.811,2.287,4.813,5.045,4.813h3.264V59.621a6.033,6.033,0,0,1,5.93-5.9h9.482A4.783,4.783,0,0,0,65.318,48.9V39.86c0-2.573-2.171-4.505-4.747-4.935a29.623,29.623,0,0,0-4.946-.387m-5.134,2.91a1.809,1.809,0,1,1-1.781,1.815,1.8,1.8,0,0,1,1.781-1.815" transform="translate(-36.181 -34.537)" fill="#306998"/>
        <path id="Path_16678" data-name="Path 16678" d="M87.749,62.415C87.067,59.669,85.765,57.6,83,57.6H79.44v4.216a6.089,6.089,0,0,1-5.93,6.019H64.027a4.843,4.843,0,0,0-4.747,4.824V81.7c0,2.573,2.237,4.086,4.747,4.824a15.887,15.887,0,0,0,9.482,0c2.39-.692,4.747-2.085,4.747-4.824V78.083H68.773V76.876h7.263a3.343,3.343,0,0,0,2.655-1.792c.661-1.794,2.658-1.54,2.658.249,0,.945.93,1.358,1.808,1.537,2.64-.073,3.652-1.973,4.593-4.806.991-2.974.949-5.834,0-9.649M74.106,80.495a1.809,1.809,0,1,1-1.781,1.8,1.792,1.792,0,0,1,1.781-1.8" transform="translate(-49.118 -47.455)" fill="#ffd43b"/>
      </g>
    </g>
  </g>
</svg>
