<svg xmlns="http://www.w3.org/2000/svg" width="70" height="70" viewBox="0 0 70 70">
  <g id="Group_7894" data-name="Group 7894" transform="translate(-280 -376)">
    <g id="Group_7862" data-name="Group 7862" transform="translate(-4949 5420)">
      <circle id="Ellipse_888" data-name="Ellipse 888" cx="35" cy="35" r="35" transform="translate(5229 -5044)" fill="#e6f5fd"/>
    </g>
    <g id="Node.js-1" transform="translate(127.795 229.797)">
      <path id="Path_18150" data-name="Path 18150" d="M187.4,200.5a2.977,2.977,0,0,1-1.483-.4l-4.721-2.8c-.705-.394-.361-.534-.128-.614a9.532,9.532,0,0,0,2.134-.973.358.358,0,0,1,.352.025l3.627,2.152a.479.479,0,0,0,.438,0l14.141-8.163a.446.446,0,0,0,.216-.382V173.033a.454.454,0,0,0-.219-.389l-14.136-8.156a.435.435,0,0,0-.435,0l-14.133,8.156a.451.451,0,0,0-.224.386v16.318a.436.436,0,0,0,.219.379l3.873,2.237c2.1,1.051,3.388-.188,3.388-1.434V174.424a.4.4,0,0,1,.411-.407h1.791a.4.4,0,0,1,.407.407v16.113c0,2.8-1.529,4.414-4.188,4.414a6.062,6.062,0,0,1-3.26-.885l-3.71-2.138a2.99,2.99,0,0,1-1.483-2.581V173.029a2.972,2.972,0,0,1,1.483-2.577l14.156-8.166a3.1,3.1,0,0,1,2.973,0l14.138,8.17a2.983,2.983,0,0,1,1.483,2.577v16.318a2.992,2.992,0,0,1-1.483,2.577l-14.138,8.166a2.972,2.972,0,0,1-1.49.4" fill="#689f63"/>
      <path id="Path_18151" data-name="Path 18151" d="M217.327,202.985c-6.188,0-7.485-2.84-7.485-5.223a.407.407,0,0,1,.41-.407h1.827a.409.409,0,0,1,.4.346c.276,1.861,1.1,2.8,4.839,2.8,2.98,0,4.248-.673,4.248-2.254,0-.91-.361-1.586-4.991-2.039-3.873-.382-6.265-1.235-6.265-4.333,0-2.853,2.407-4.552,6.439-4.552,4.527,0,6.772,1.572,7.055,4.949a.412.412,0,0,1-.411.446h-1.837a.406.406,0,0,1-.4-.319c-.442-1.958-1.511-2.584-4.418-2.584-3.253,0-3.632,1.133-3.632,1.982,0,1.03.446,1.331,4.835,1.911,4.347.577,6.411,1.391,6.411,4.446,0,3.08-2.57,4.846-7.051,4.846M234.531,185.7h.474a.412.412,0,0,0,.464-.432c0-.418-.287-.418-.446-.418h-.488Zm-.577-1.338h1.051c.361,0,1.069,0,1.069.807a.7.7,0,0,1-.577.75c.421.028.45.3.506.694a2.984,2.984,0,0,0,.159.807h-.648c-.018-.142-.117-.92-.117-.963-.042-.173-.1-.258-.319-.258h-.535v1.225h-.591Zm-1.264,1.522a2.285,2.285,0,1,0,2.276-2.28,2.288,2.288,0,0,0-2.276,2.28m5.012.011a2.726,2.726,0,1,1-2.726-2.726,2.734,2.734,0,0,1,2.726,2.726" transform="translate(-25.562 -13.731)" fill="#689f63"/>
    </g>
  </g>
</svg>
