<svg xmlns="http://www.w3.org/2000/svg" width="70" height="70" viewBox="0 0 70 70">
  <g id="Group_7895" data-name="Group 7895" transform="translate(-548 -376)">
    <circle id="Ellipse_891" data-name="Ellipse 891" cx="35" cy="35" r="35" transform="translate(548 376)" fill="#e6f5fd"/>
    <g id="java-icon" transform="translate(562.208 385.999)">
      <path id="Path_18148" data-name="Path 18148" d="M14.454,27.5s-1.687,1.026,1.172,1.319a24.039,24.039,0,0,0,9.084-.366,13.74,13.74,0,0,0,2.417,1.172C18.558,33.286,7.711,29.4,14.452,27.5Zm-1.1-4.762s-1.832,1.392,1.026,1.687a34.7,34.7,0,0,0,11.724-.586,4.47,4.47,0,0,0,1.758,1.1c-10.331,3.077-21.907.293-14.508-2.2Zm20.222,8.351s1.245,1.026-1.392,1.832c-4.909,1.467-20.588,1.906-24.984,0-1.539-.658,1.392-1.611,2.331-1.758A7.327,7.327,0,0,1,11,30.939c-1.687-1.172-11.21,2.417-4.835,3.442,17.511,2.858,31.944-1.245,27.4-3.3ZM15.246,17.751s-7.986,1.906-2.858,2.564a63.776,63.776,0,0,0,10.55-.073c3.3-.293,6.6-.878,6.6-.878a17.657,17.657,0,0,0-1.979,1.026c-8.131,2.125-23.739,1.172-19.269-1.026a15.187,15.187,0,0,1,6.96-1.611Zm14.288,7.986c8.205-4.251,4.4-8.351,1.758-7.839a4.631,4.631,0,0,0-.953.293,1.256,1.256,0,0,1,.732-.586c5.2-1.832,9.305,5.495-1.687,8.351a.917.917,0,0,0,.147-.219ZM16.055,37.313c7.912.513,20-.293,20.294-4.031,0,0-.586,1.467-6.52,2.564a66.046,66.046,0,0,1-20,.293s1.026.878,6.228,1.172Z" transform="translate(0 6.428)" fill="#4e7896"/>
      <path id="Path_18149" data-name="Path 18149" d="M21.734,0s4.543,4.616-4.322,11.576c-7.107,5.641-1.611,8.865,0,12.529-4.177-3.737-7.18-7.034-5.128-10.11C15.286,9.452,23.566,7.267,21.734,0ZM19.4,21.029c2.125,2.417-.586,4.616-.586,4.616s5.422-2.784,2.93-6.228c-2.271-3.3-4.031-4.909,5.495-10.4,0,0-15.019,3.737-7.839,12.016Z" transform="translate(2.832 0)" fill="#f58219"/>
    </g>
  </g>
</svg>
