<svg id="Group_11947" data-name="Group 11947" xmlns="http://www.w3.org/2000/svg" xmlns:xlink="http://www.w3.org/1999/xlink" width="667" height="382.126" viewBox="0 0 667 382.126">
  <g id="Group_11960" data-name="Group 11960">
    <g id="Group_11948" data-name="Group 11948">
      <g id="Group_11947-2" data-name="Group 11947">
        <path id="Path_18633" data-name="Path 18633" d="M77.135,377.484H558.912A85.164,85.164,0,0,0,572.87,208.306q.112-2.207.113-4.416a88.915,88.915,0,0,0-88.821-88.809,87.306,87.306,0,0,0-18.525,1.98C451.185,61,399.935,20.336,340.908,20.336A128.312,128.312,0,0,0,227.141,88.7,123.613,123.613,0,0,0,56,202.825a125.341,125.341,0,0,0,2.094,22.827A77.107,77.107,0,0,0,77.135,377.484" transform="translate(0 4.642)" fill="var(--cloud-color)"/>
        <path id="Path_18634" data-name="Path 18634" d="M486.3,286.309c0,5.7-72.19,10.317-161.242,10.317s-161.242-4.621-161.242-10.317S236,275.992,325.055,275.992,486.3,280.613,486.3,286.309" transform="translate(37.393 63)" fill="#bcdff5"/>
        <rect id="Rectangle_3552" data-name="Rectangle 3552" width="25.896" height="17.209" transform="translate(350.349 324.855)" fill="#224e77"/>
        <path id="Path_18635" data-name="Path 18635" d="M388.082,285.439H231.805V283.4a4.905,4.905,0,0,1,4.906-4.906H383.177a4.905,4.905,0,0,1,4.906,4.906Z" transform="translate(52.914 63.571)" fill="#224e77"/>
      </g>
    </g>
    <g id="Group_11950" data-name="Group 11950" transform="translate(350.349 324.854)">
      <g id="Group_11949" data-name="Group 11949" clip-path="url(#clip-path-3)">
        <rect id="Rectangle_3554" data-name="Rectangle 3554" width="25.896" height="8.605" transform="translate(0.001)" fill="#224e77"/>
      </g>
    </g>
    <g id="Group_11952" data-name="Group 11952">
      <g id="Group_11951" data-name="Group 11951">
        <path id="Path_18636" data-name="Path 18636" d="M307.761,282.639h-25.9a.867.867,0,0,1-.867-.867h0V265a.867.867,0,0,1,.867-.867h25.9a.869.869,0,0,1,.868.867V281.77a.869.869,0,0,1-.868.868" transform="translate(64.143 60.294)" fill="#224e77"/>
        <path id="Path_18638" data-name="Path 18638" d="M182.682,308.868H146.857a11.944,11.944,0,0,1-11.942-11.941V81.972A11.942,11.942,0,0,1,146.857,70.03H509.442a11.942,11.942,0,0,1,11.942,11.942V296.927a11.944,11.944,0,0,1-11.942,11.941h-44.51" transform="translate(30.797 15.986)" fill="#224e77"/>
        <path id="Path_18639" data-name="Path 18639" d="M142.006,290.741V85.161a7.6,7.6,0,0,1,7.6-7.6H503.429a7.6,7.6,0,0,1,7.6,7.6h0v205.58a7.6,7.6,0,0,1-7.6,7.6H149.605a7.6,7.6,0,0,1-7.6-7.6" transform="translate(32.415 17.705)" fill="var(--cloud-color)"/>
        <path id="Path_18640" data-name="Path 18640" d="M186.235,98.247h30.9a2.328,2.328,0,0,1,2.328,2.328h0a2.328,2.328,0,0,1-2.328,2.328h-30.9a2.329,2.329,0,0,1-2.329-2.328h0a2.329,2.329,0,0,1,2.329-2.328" transform="translate(41.98 22.427)" fill="#4699e6"/>
        <path id="Path_18641" data-name="Path 18641" d="M200.709,111.2h19.837a2.329,2.329,0,0,1,2.329,2.328h0a2.329,2.329,0,0,1-2.329,2.328H200.709a2.329,2.329,0,0,1-2.329-2.328h0a2.329,2.329,0,0,1,2.329-2.328" transform="translate(45.284 25.383)" fill="#224e77"/>
        <path id="Path_18642" data-name="Path 18642" d="M264.755,111.2H451.347a2.329,2.329,0,0,1,2.329,2.328h0a2.329,2.329,0,0,1-2.329,2.328H264.755a2.328,2.328,0,0,1-2.328-2.328h0a2.328,2.328,0,0,1,2.328-2.328" transform="translate(59.904 25.383)" fill="#224e77"/>
        <path id="Path_18643" data-name="Path 18643" d="M234.377,111.2h22.9a2.328,2.328,0,0,1,2.328,2.328h0a2.328,2.328,0,0,1-2.328,2.328h-22.9a2.329,2.329,0,0,1-2.329-2.328h0a2.329,2.329,0,0,1,2.329-2.328" transform="translate(52.969 25.383)" fill="#224e77"/>
        <path id="Path_18644" data-name="Path 18644" d="M207.5,122H323.123a2.328,2.328,0,0,1,0,4.656H207.5a2.328,2.328,0,1,1,0-4.656" transform="translate(46.834 27.849)" fill="#4699e6"/>
        <path id="Path_18645" data-name="Path 18645" d="M223.594,137.265h57.283a2.328,2.328,0,1,1,0,4.656H223.594a2.328,2.328,0,1,1,0-4.656" transform="translate(50.508 31.333)" fill="#56bb8e"/>
        <path id="Path_18646" data-name="Path 18646" d="M186.235,151.625h63.027a2.328,2.328,0,1,1,0,4.656H186.235a2.328,2.328,0,1,1,0-4.656" transform="translate(41.98 34.611)" fill="#ec7853"/>
        <path id="Path_18647" data-name="Path 18647" d="M247.236,151.625h44.241a2.328,2.328,0,0,1,0,4.656H247.236a2.328,2.328,0,1,1,0-4.656" transform="translate(55.904 34.611)" fill="#ec7853"/>
        <path id="Path_18648" data-name="Path 18648" d="M200.71,165.986h86.1a2.328,2.328,0,0,1,0,4.656h-86.1a2.328,2.328,0,1,1,0-4.656" transform="translate(45.284 37.889)" fill="#224e77"/>
        <path id="Path_18649" data-name="Path 18649" d="M304.778,165.986h76.1a2.328,2.328,0,1,1,0,4.656h-76.1a2.328,2.328,0,0,1,0-4.656" transform="translate(69.04 37.889)" fill="#224e77"/>
        <path id="Path_18650" data-name="Path 18650" d="M277.725,165.986h23.826a2.328,2.328,0,1,1,0,4.656H277.725a2.328,2.328,0,0,1,0-4.656" transform="translate(62.864 37.889)" fill="#224e77"/>
        <path id="Path_18651" data-name="Path 18651" d="M225.274,180.346h74.757a2.328,2.328,0,0,1,0,4.656H225.274a2.328,2.328,0,1,1,0-4.656" transform="translate(50.891 41.167)" fill="#905cbe"/>
        <path id="Path_18652" data-name="Path 18652" d="M207.5,180.346H219.47a2.328,2.328,0,1,1,0,4.656H207.5a2.328,2.328,0,1,1,0-4.656" transform="translate(46.834 41.167)" fill="#905cbe"/>
        <path id="Path_18653" data-name="Path 18653" d="M186.235,190.893H235.75a2.328,2.328,0,0,1,0,4.656H186.235a2.328,2.328,0,1,1,0-4.656" transform="translate(41.98 43.575)" fill="#56bb8e"/>
        <path id="Path_18654" data-name="Path 18654" d="M233.762,190.893h13.959a2.328,2.328,0,0,1,0,4.656H233.762a2.328,2.328,0,1,1,0-4.656" transform="translate(52.829 43.575)" fill="#56bb8e"/>
        <path id="Path_18655" data-name="Path 18655" d="M253.142,190.893h84.216a2.328,2.328,0,1,1,0,4.656H253.142a2.328,2.328,0,1,1,0-4.656" transform="translate(57.253 43.575)" fill="#56bb8e"/>
        <path id="Path_18656" data-name="Path 18656" d="M331.117,190.893h96.016a2.328,2.328,0,1,1,0,4.656H331.117a2.328,2.328,0,0,1,0-4.656" transform="translate(75.052 43.575)" fill="#56bb8e"/>
        <path id="Path_18657" data-name="Path 18657" d="M200.71,205.253h23.453a2.328,2.328,0,1,1,0,4.656H200.71a2.328,2.328,0,1,1,0-4.656" transform="translate(45.284 46.853)" fill="#4699e6"/>
        <path id="Path_18658" data-name="Path 18658" d="M230.339,205.253h62.069a2.328,2.328,0,1,1,0,4.656H230.339a2.328,2.328,0,1,1,0-4.656" transform="translate(52.047 46.853)" fill="#4699e6"/>
        <path id="Path_18659" data-name="Path 18659" d="M213.026,219.613h49.515a2.328,2.328,0,0,1,0,4.656H213.026a2.328,2.328,0,1,1,0-4.656" transform="translate(48.095 50.131)" fill="#905cbe"/>
        <path id="Path_18660" data-name="Path 18660" d="M266.4,219.613h49.516a2.328,2.328,0,1,1,0,4.656H266.4a2.328,2.328,0,1,1,0-4.656" transform="translate(60.278 50.131)" fill="#905cbe"/>
        <path id="Path_18661" data-name="Path 18661" d="M317.351,219.613h66.785a2.328,2.328,0,1,1,0,4.656H317.351a2.328,2.328,0,0,1,0-4.656" transform="translate(71.91 50.131)" fill="#905cbe"/>
        <path id="Path_18662" data-name="Path 18662" d="M403.914,137.265h10.65a2.328,2.328,0,1,1,0,4.656h-10.65a2.328,2.328,0,0,1,0-4.656" transform="translate(91.669 31.333)" fill="#56bb8e"/>
        <path id="Path_18663" data-name="Path 18663" d="M278.476,137.265H421.1a2.328,2.328,0,0,1,0,4.656H278.476a2.328,2.328,0,0,1,0-4.656" transform="translate(63.036 31.333)" fill="#56bb8e"/>
        <path id="Path_18664" data-name="Path 18664" d="M223.595,98.247H414.18a2.328,2.328,0,0,1,2.328,2.328h0a2.328,2.328,0,0,1-2.328,2.328H223.595a2.329,2.329,0,0,1-2.329-2.328h0a2.329,2.329,0,0,1,2.329-2.328" transform="translate(50.508 22.427)" fill="#4699e6"/>
        <path id="Path_18665" data-name="Path 18665" d="M165.5,92.6h5.036a1.229,1.229,0,0,1,1.228,1.228v5.037a1.229,1.229,0,0,1-1.228,1.228H165.5a1.229,1.229,0,0,1-1.228-1.228V93.827A1.229,1.229,0,0,1,165.5,92.6" transform="translate(37.499 21.137)" fill="#b4e1f9"/>
        <path id="Path_18666" data-name="Path 18666" d="M165.5,108.665h5.036a1.229,1.229,0,0,1,1.228,1.228v5.037a1.229,1.229,0,0,1-1.228,1.228H165.5a1.229,1.229,0,0,1-1.228-1.228v-5.037a1.229,1.229,0,0,1,1.228-1.228" transform="translate(37.499 24.805)" fill="#b4e1f9"/>
        <path id="Path_18667" data-name="Path 18667" d="M165.5,124.73h5.036a1.229,1.229,0,0,1,1.228,1.228V131a1.229,1.229,0,0,1-1.228,1.228H165.5A1.229,1.229,0,0,1,164.275,131v-5.037a1.229,1.229,0,0,1,1.228-1.228" transform="translate(37.499 28.472)" fill="#b4e1f9"/>
        <path id="Path_18668" data-name="Path 18668" d="M165.5,140.8h5.036a1.229,1.229,0,0,1,1.228,1.228v5.037a1.229,1.229,0,0,1-1.228,1.228H165.5a1.229,1.229,0,0,1-1.228-1.228v-5.037A1.229,1.229,0,0,1,165.5,140.8" transform="translate(37.499 32.139)" fill="#b4e1f9"/>
        <path id="Path_18669" data-name="Path 18669" d="M165.5,156.861h5.036a1.229,1.229,0,0,1,1.228,1.228v5.037a1.229,1.229,0,0,1-1.228,1.228H165.5a1.229,1.229,0,0,1-1.228-1.228v-5.037a1.229,1.229,0,0,1,1.228-1.228" transform="translate(37.499 35.806)" fill="#b4e1f9"/>
        <path id="Path_18670" data-name="Path 18670" d="M165.5,172.927h5.036a1.229,1.229,0,0,1,1.228,1.228v5.036a1.229,1.229,0,0,1-1.228,1.228H165.5a1.229,1.229,0,0,1-1.228-1.228v-5.036a1.229,1.229,0,0,1,1.228-1.228" transform="translate(37.499 39.474)" fill="#b4e1f9"/>
        <path id="Path_18671" data-name="Path 18671" d="M165.5,188.992h5.036a1.229,1.229,0,0,1,1.228,1.228v5.037a1.229,1.229,0,0,1-1.228,1.228H165.5a1.229,1.229,0,0,1-1.228-1.228V190.22a1.229,1.229,0,0,1,1.228-1.228" transform="translate(37.499 43.141)" fill="#b4e1f9"/>
        <path id="Path_18672" data-name="Path 18672" d="M165.5,205.058h5.037a1.229,1.229,0,0,1,1.228,1.228v5.037a1.229,1.229,0,0,1-1.228,1.228H165.5a1.229,1.229,0,0,1-1.228-1.228v-5.037a1.229,1.229,0,0,1,1.228-1.228" transform="translate(37.499 46.808)" fill="#b4e1f9"/>
        <path id="Path_18673" data-name="Path 18673" d="M165.5,221.124h5.037a1.229,1.229,0,0,1,1.228,1.228v5.036a1.229,1.229,0,0,1-1.228,1.228H165.5a1.229,1.229,0,0,1-1.228-1.228v-5.036a1.229,1.229,0,0,1,1.228-1.228" transform="translate(37.499 50.476)" fill="#b4e1f9"/>
        <path id="Path_18674" data-name="Path 18674" d="M165.5,237.189h5.037a1.229,1.229,0,0,1,1.228,1.228v5.037a1.229,1.229,0,0,1-1.228,1.228H165.5a1.229,1.229,0,0,1-1.228-1.228v-5.037a1.229,1.229,0,0,1,1.228-1.228" transform="translate(37.499 54.143)" fill="#b4e1f9"/>
        <path id="Path_18675" data-name="Path 18675" d="M522.339,121.86a32.948,32.948,0,1,1-32.948,32.948,32.948,32.948,0,0,1,32.948-32.948" transform="translate(111.712 27.817)" fill="#905cbe"/>
        <path id="Path_18676" data-name="Path 18676" d="M532.133,159.585l-1.342-.991c-2-1.683-4.013-2.7-5.807-1.015l-1.188,1.015c-.843.757-2.439,4.208-8.559-2.9s-2.5-8.157-1.624-8.911l1.161-1.016c1.946-1.683,1.22-3.833-.205-6.041l-.84-1.3c-1.393-2.211-2.9-3.63-4.913-1.946l-1.046.929a9.777,9.777,0,0,0-3.86,6.532c-.7,4.642,1.538,9.987,6.617,15.845s10.046,8.712,14.748,8.712a9.872,9.872,0,0,0,7.027-2.9l1.047-.9c1.974-1.712.754-3.427-1.22-5.106" transform="translate(114.998 30.984)" fill="#fff"/>
        <path id="Path_18677" data-name="Path 18677" d="M325.252,53.154H276.625a21.807,21.807,0,0,1,0-43.615h48.627a21.807,21.807,0,0,1,0,43.615" transform="translate(58.167 2.177)" fill="#56bb8e"/>
        <path id="Path_18678" data-name="Path 18678" d="M270.522,50.579a9.839,9.839,0,1,1,1.312-13.854h0a9.84,9.84,0,0,1-1.313,13.852" transform="translate(58.074 7.569)" fill="#56bb8e"/>
        <path id="Path_18679" data-name="Path 18679" d="M255.61,53.57a3.923,3.923,0,1,1-3.924-3.922h0a3.923,3.923,0,0,1,3.922,3.922" transform="translate(56.557 11.333)" fill="#56bb8e"/>
        <path id="Path_18680" data-name="Path 18680" d="M294.276,19.432A10.266,10.266,0,1,1,284.01,29.7a10.266,10.266,0,0,1,10.266-10.266h0" transform="translate(64.83 4.436)" fill="#fff"/>
        <path id="Path_18681" data-name="Path 18681" d="M275.367,22.307a6.735,6.735,0,1,1-6.735,6.735,6.735,6.735,0,0,1,6.735-6.735" transform="translate(61.32 5.092)" fill="#fff"/>
        <path id="Path_18682" data-name="Path 18682" d="M311.873,22.307a6.735,6.735,0,1,1-6.735,6.735,6.735,6.735,0,0,1,6.735-6.735" transform="translate(69.653 5.092)" fill="#fff"/>
      </g>
    </g>
    <g id="Group_11957" data-name="Group 11957" transform="translate(53.721 143.386)">
      <g id="Group_11956" data-name="Group 11956" clip-path="url(#clip-path-5)">
        <g id="Group_11955" data-name="Group 11955" transform="translate(0.001 0.001)" opacity="0.2">
          <g id="Group_11954" data-name="Group 11954">
            <g id="Group_11953" data-name="Group 11953" clip-path="url(#clip-path-6)">
              <path id="Path_18683" data-name="Path 18683" d="M175.494,230.038H47.576a3.838,3.838,0,0,1-3.838-3.838V120.577a3.838,3.838,0,0,1,3.838-3.838H175.494a3.838,3.838,0,0,1,3.838,3.838V226.194a3.838,3.838,0,0,1-3.838,3.838" transform="translate(-43.738 -116.739)" fill="#084062"/>
            </g>
          </g>
        </g>
      </g>
    </g>
    <g id="Group_11959" data-name="Group 11959">
      <g id="Group_11958" data-name="Group 11958">
        <path id="Path_18684" data-name="Path 18684" d="M169.831,223.188H41.915a3.838,3.838,0,0,1-3.84-3.837h0V113.727a3.838,3.838,0,0,1,3.838-3.838H169.831a3.838,3.838,0,0,1,3.838,3.838V219.349a3.838,3.838,0,0,1-3.838,3.838" transform="translate(8.691 25.084)" fill="#fff"/>
        <path id="Path_18685" data-name="Path 18685" d="M157.595,186.471H50.379a4.041,4.041,0,0,1-4.041-4.041V123.8a4.041,4.041,0,0,1,4.041-4.041H157.595a4.041,4.041,0,0,1,4.041,4.041v58.635a4.041,4.041,0,0,1-4.041,4.041" transform="translate(10.577 27.336)" fill="var(--cloud-accent)"/>
        <line id="Line_59" data-name="Line 59" x2="82.844" transform="translate(61.269 225.737)" fill="none" stroke="#152f49" stroke-linecap="round" stroke-width="3.97"/>
        <line id="Line_60" data-name="Line 60" x2="57.703" transform="translate(61.269 234.329)" fill="none" stroke="#152f49" stroke-linecap="round" stroke-width="3.97"/>
        <path id="Path_18686" data-name="Path 18686" d="M116.76,150.595a19.806,19.806,0,1,1-19.806-19.806,19.805,19.805,0,0,1,19.806,19.806" transform="translate(17.61 29.855)" fill="#4699e6"/>
        <path id="Path_18687" data-name="Path 18687" d="M91.162,141.53l10.889,5.746a1.5,1.5,0,0,1,0,2.66l-11.042,5.828a1.5,1.5,0,0,1-2.211-1.351l.155-11.574a1.5,1.5,0,0,1,2.211-1.309" transform="translate(20.27 32.266)" fill="#fff"/>
        <path id="Path_18688" data-name="Path 18688" d="M480.965,142.053a2.9,2.9,0,1,0-2.9,2.9,2.9,2.9,0,0,0,2.9-2.9" transform="translate(108.466 31.765)" fill="#56bb8e"/>
        <path id="Path_18689" data-name="Path 18689" d="M471.212,150.39a5.9,5.9,0,1,1-5.9-5.9,5.9,5.9,0,0,1,5.9,5.9" transform="translate(104.871 32.983)" fill="#377bb9"/>
        <path id="Path_18690" data-name="Path 18690" d="M20.274,123.413a5.9,5.9,0,1,1-5.9-5.9,5.9,5.9,0,0,1,5.9,5.9" transform="translate(1.936 26.825)" fill="#4699e6"/>
        <path id="Path_18691" data-name="Path 18691" d="M30.751,132.819a2.222,2.222,0,1,1-2.222-2.222,2.222,2.222,0,0,1,2.222,2.222" transform="translate(6.005 29.811)" fill="#ec7853"/>
        <path id="Path_18692" data-name="Path 18692" d="M371.751,0H353.018a8.425,8.425,0,0,0-8.4,8.4,8.321,8.321,0,0,0,.951,3.857A3.789,3.789,0,1,0,351.6,16.67a8.326,8.326,0,0,0,1.419.13h18.732a8.4,8.4,0,1,0,0-16.8" transform="translate(78.621)" fill="#66d8ba"/>
        <path id="Path_18693" data-name="Path 18693" d="M343.379,15.45a1.511,1.511,0,1,0,1.511,1.511,1.511,1.511,0,0,0-1.511-1.511" transform="translate(78.038 3.527)" fill="#66d8ba"/>
        <path id="Path_18694" data-name="Path 18694" d="M393.249,21.514H380.674a5.657,5.657,0,0,0-5.639,5.639,5.591,5.591,0,0,0,.639,2.589,2.544,2.544,0,1,0,3.568,3.627,2.582,2.582,0,0,0,.485-.664,5.622,5.622,0,0,0,.952.087h12.575a5.639,5.639,0,0,0,0-11.278" transform="translate(85.581 4.911)" fill="#ccf2e8"/>
        <path id="Path_18695" data-name="Path 18695" d="M374.2,31.886a1.015,1.015,0,1,0,1.015,1.015,1.015,1.015,0,0,0-1.015-1.015" transform="translate(85.187 7.279)" fill="#ccf2e8"/>
        <path id="Path_18696" data-name="Path 18696" d="M348.912,311.53H473.767a32.749,32.749,0,1,0,.338-65.5c-.113,0-.226,0-.338,0a32.351,32.351,0,0,0-5.781.518,43.776,43.776,0,0,0-82.859-6.942,32.718,32.718,0,0,0-39.581,28.717,21.739,21.739,0,0,0,3.367,43.207Z" transform="translate(74.694 48.61)" fill="var(--cloud-accent)"/>
        <path id="Path_18697" data-name="Path 18697" d="M358.126,317.688H490.777a34.794,34.794,0,1,0-6.143-69.037,46.508,46.508,0,0,0-88.032-7.375,34.431,34.431,0,0,0-7.438-.809,34.839,34.839,0,0,0-34.615,31.317,23.092,23.092,0,0,0,3.579,45.9Z" transform="translate(76.478 48.61)" fill="var(--cloud-color)"/>
      </g>
    </g>
  </g>
</svg>
