<svg id="fca29471-332e-4282-bd19-e076298267f9" data-name="Layer 1" xmlns="http://www.w3.org/2000/svg" viewBox="0 0 100 100"><defs><style>.b0d5e14c-b0ce-4288-b478-98c2d1385954{fill:none;}.ac6c636d-994b-4d01-99cf-1bbf2708528a{fill:#079cee;}.a334d9b0-eecf-43e1-812d-ee713ce04e6c{fill:#9a59c5;}.fdb67a55-2480-4e94-9606-1c2829c0a857{fill:#fff;}.b5c035d2-ae7c-4ad1-888d-9a938d2c0118{fill:#00bf8c;}</style></defs><path class="b0d5e14c-b0ce-4288-b478-98c2d1385954" d="M26.31,71.53a2.1,2.1,0,0,0,2.23,2.23H73.13a2.1,2.1,0,0,0,2.23-2.23V40.31h-49Z"/><path class="ac6c636d-994b-4d01-99cf-1bbf2708528a" d="M73.13,29.16a35.25,35.25,0,0,0-4.15,0c-2.72.11-2-2.07-3.64-3.61s-3.36-.12-4.7.91c-1.71,1.32-3.44,2.68-5.73,2.67-2.86,0-26.37,0-26.37,0a6.57,6.57,0,0,0-6.69,6.69V71.53a6.57,6.57,0,0,0,6.69,6.69H73.13a6.57,6.57,0,0,0,6.69-6.69V35.85A6.57,6.57,0,0,0,73.13,29.16ZM38,33.78a1.52,1.52,0,1,1-1.52,1.52A1.52,1.52,0,0,1,38,33.78Zm-4.7,0a1.52,1.52,0,1,1-1.52,1.52A1.51,1.51,0,0,1,33.29,33.78Zm-4.7,0a1.52,1.52,0,1,1-1.52,1.52A1.52,1.52,0,0,1,28.59,33.78ZM75.36,71.53a2.1,2.1,0,0,1-2.23,2.23H28.54a2.1,2.1,0,0,1-2.23-2.23V40.31H75.36Z"/><circle class="ac6c636d-994b-4d01-99cf-1bbf2708528a" cx="68.54" cy="23.19" r="1.4"/><circle class="ac6c636d-994b-4d01-99cf-1bbf2708528a" cx="72.48" cy="23.84" r="0.76"/><circle class="a334d9b0-eecf-43e1-812d-ee713ce04e6c" cx="80.91" cy="55.77" r="8.45"/><g id="fd333160-7901-4116-9a4e-9e67a3adfda8" data-name="surface1"><path class="fdb67a55-2480-4e94-9606-1c2829c0a857" d="M84.26,57.59c-.56-.48-1.13-.77-1.68-.29l-.33.29c-.24.21-.69,1.19-2.43-.81s-.7-2.31-.46-2.51l.33-.29c.55-.48.34-1.09,0-1.71l-.24-.37c-.4-.62-.84-1-1.39-.55l-.3.26a2.79,2.79,0,0,0-1.09,1.85c-.2,1.32.43,2.82,1.87,4.48s2.84,2.48,4.18,2.47a2.83,2.83,0,0,0,2-.82l.3-.27c.55-.47.21-1-.35-1.44Z"/></g><path class="b5c035d2-ae7c-4ad1-888d-9a938d2c0118" d="M61.37,48H36a1.29,1.29,0,0,1,0-2.58H61.37a1.29,1.29,0,1,1,0,2.58Z"/><path class="b5c035d2-ae7c-4ad1-888d-9a938d2c0118" d="M58.65,53.17H54.29a1.3,1.3,0,0,1,0-2.59h4.36a1.3,1.3,0,0,1,0,2.59Z"/><path class="b5c035d2-ae7c-4ad1-888d-9a938d2c0118" d="M49.6,53.17H36a1.3,1.3,0,0,1,0-2.59H49.6a1.3,1.3,0,1,1,0,2.59Z"/><path class="b5c035d2-ae7c-4ad1-888d-9a938d2c0118" d="M41.23,58.3H36a1.3,1.3,0,0,1,0-2.59h5.21a1.3,1.3,0,0,1,0,2.59Z"/><path class="b5c035d2-ae7c-4ad1-888d-9a938d2c0118" d="M61.72,58.4H46.1a1.29,1.29,0,1,1,0-2.58H61.72a1.29,1.29,0,0,1,0,2.58Z"/><path class="b5c035d2-ae7c-4ad1-888d-9a938d2c0118" d="M52,68.66h1.59a1.29,1.29,0,1,0,0-2.58H52a1.29,1.29,0,0,0,0,2.58Z"/><path class="b5c035d2-ae7c-4ad1-888d-9a938d2c0118" d="M36,68.77h11.1a1.29,1.29,0,0,0,0-2.58H36a1.29,1.29,0,1,0,0,2.58Z"/><path class="b5c035d2-ae7c-4ad1-888d-9a938d2c0118" d="M57.76,63.53H36A1.29,1.29,0,0,1,36,61H57.76a1.29,1.29,0,0,1,0,2.58Z"/><rect class="a334d9b0-eecf-43e1-812d-ee713ce04e6c" x="10.64" y="48.67" width="19.32" height="14.2" rx="2.55"/><g id="a533c1fd-facb-4b97-8b18-09efeb25fc47" data-name="surface1"><path class="fdb67a55-2480-4e94-9606-1c2829c0a857" d="M24,55.28l-5.78-2.87a.57.57,0,0,0-.55,0,.55.55,0,0,0-.27.48v5.73a.55.55,0,0,0,.27.47.52.52,0,0,0,.29.09.58.58,0,0,0,.26-.06L24,56.27a.56.56,0,0,0,.31-.5A.54.54,0,0,0,24,55.28Z"/></g></svg>