<svg id="a69b8088-3339-4b6c-aab6-88ad4c166a96" data-name="Layer 1" xmlns="http://www.w3.org/2000/svg" viewBox="0 0 100 100"><defs><style>.b0d55f20-4dbc-4757-809d-2aef91dd265b{fill:none;}.a0fabed9-4b05-4fdc-a9df-61c8edc0d3d3{fill:#ff6f47;}.ec35ca62-e615-47bd-a572-446501d3a2ea{fill:#079cee;}.bb57dc7c-92ef-4ff9-acd8-540cdf942bf7{fill:#e66440;}.ebf18276-54e6-4599-a984-d4df04c86b7b{fill:#078cd6;}</style></defs><path class="b0d55f20-4dbc-4757-809d-2aef91dd265b" d="M71.05,32.85a5.62,5.62,0,0,0-6.76,7.66q5.13-2.85,10-5.29A6.74,6.74,0,0,0,71.05,32.85Z"/><path class="b0d55f20-4dbc-4757-809d-2aef91dd265b" d="M31.72,50.22a1.43,1.43,0,0,0-.27.15c-5.08,3.79-4.38,9.71-.78,12.52q5.41-4.26,11.44-8.49C40.78,50.9,36.77,48.51,31.72,50.22Z"/><path class="a0fabed9-4b05-4fdc-a9df-61c8edc0d3d3" d="M65.06,34.69a5.68,5.68,0,0,1,6-1.84,6.74,6.74,0,0,1,3.25,2.37c1.86-.92,3.69-1.81,5.48-2.65a11.65,11.65,0,0,0-.6-1,.81.81,0,0,1-.05-.86l1.78-3.15a.83.83,0,0,0-.2-1l-2.09-1.68a.83.83,0,0,0-1.06,0l-2.71,2.39a.84.84,0,0,1-.86.13,11.7,11.7,0,0,0-2.39-.7.81.81,0,0,1-.65-.59L70,22.59a.82.82,0,0,0-.88-.61l-2.72.28a.82.82,0,0,0-.73.78l-.2,3.59a.82.82,0,0,1-.51.71,11.79,11.79,0,0,0-2.2,1.21.83.83,0,0,1-.87.05l-3.22-1.8a.83.83,0,0,0-1,.2L56,29.09a.82.82,0,0,0,0,1.06l2.44,2.73a.81.81,0,0,1,.13.87,11.78,11.78,0,0,0-.76,2.38.83.83,0,0,1-.57.64l-3.49,1a.82.82,0,0,0-.59.86l.25,2.65a.83.83,0,0,0,.76.75l3.67.27a.82.82,0,0,1,.69.5,8.1,8.1,0,0,0,.39.78c1.81-1.07,3.6-2.09,5.37-3.08A5.67,5.67,0,0,1,65.06,34.69Z"/><path class="ec35ca62-e615-47bd-a572-446501d3a2ea" d="M31.45,50.37a1.43,1.43,0,0,1,.27-.15c5.05-1.71,9.06.68,10.39,4.18l1.75-1.23q5-3.44,9.9-6.47l-.91-1.62a.82.82,0,0,0-1-.37L47,46.45a.83.83,0,0,1-.87-.2A15.33,15.33,0,0,0,43.39,44a.83.83,0,0,1-.39-.78l.57-5.12a.82.82,0,0,0-.59-.88l-3.77-1.1a.83.83,0,0,0-1,.44L36,41.17a.82.82,0,0,1-.75.46,15.16,15.16,0,0,0-3.51.36.82.82,0,0,1-.82-.28l-3.18-4a.83.83,0,0,0-1-.21L23.3,39.36a.83.83,0,0,0-.39,1l1.63,4.83a.81.81,0,0,1-.21.84,16.24,16.24,0,0,0-2.21,2.84.83.83,0,0,1-.8.39l-5.07-.63a.82.82,0,0,0-.89.59L14.26,53a.84.84,0,0,0,.42,1L19.3,56.2a.84.84,0,0,1,.45.76,14.6,14.6,0,0,0,.36,3.5.82.82,0,0,1-.29.83l-4,3.18a.83.83,0,0,0-.21,1L17.48,69a.83.83,0,0,0,1,.39l4.91-1.62a.83.83,0,0,1,.83.21l.13.12c2.05-1.71,4.16-3.44,6.34-5.16C27.07,60.08,26.37,54.16,31.45,50.37Z"/><path class="bb57dc7c-92ef-4ff9-acd8-540cdf942bf7" d="M59.8,45.83,58,49a.81.81,0,0,0,.19,1l2.08,1.68a.83.83,0,0,0,1.06,0l2.81-2.45a.82.82,0,0,1,.85-.13,11.53,11.53,0,0,0,2.4.7.82.82,0,0,1,.65.58L69,54a.82.82,0,0,0,.87.6l2.64-.25a.81.81,0,0,0,.74-.77l.21-3.66a.83.83,0,0,1,.51-.71A11.87,11.87,0,0,0,76.17,48a.83.83,0,0,1,.87,0l3.22,1.8a.83.83,0,0,0,1-.2L83,47.43a.82.82,0,0,0,0-1.06L80.5,43.64a.83.83,0,0,1-.13-.87A11.18,11.18,0,0,0,81,40.45a.83.83,0,0,1,.57-.65l3.58-1a.82.82,0,0,0,.58-.88l-.3-2.67a.82.82,0,0,0-.77-.73L81,34.26a.83.83,0,0,1-.71-.52,12.39,12.39,0,0,0-.54-1.17c-1.79.84-3.62,1.73-5.48,2.65a12.19,12.19,0,0,1,.85,1.2.86.86,0,0,1,.13.42c.42,6.49-5.74,8.76-9.38,5.84a5.56,5.56,0,0,1-1.61-2.17c-1.77,1-3.56,2-5.37,3.08A13.74,13.74,0,0,0,59.75,45,.8.8,0,0,1,59.8,45.83Z"/><path class="ebf18276-54e6-4599-a984-d4df04c86b7b" d="M27.36,70.92,26.73,76a.82.82,0,0,0,.59.89L31.09,78a.83.83,0,0,0,1-.43l2.27-4.62a.82.82,0,0,1,.74-.45,15.45,15.45,0,0,0,3.54-.43.84.84,0,0,1,.83.28l3.25,4.06a.8.8,0,0,0,1,.2l3.44-1.88a.84.84,0,0,0,.38-1l-1.75-4.85A.82.82,0,0,1,46,68a16.31,16.31,0,0,0,2.26-2.75.83.83,0,0,1,.78-.38l5.11.57a.83.83,0,0,0,.88-.59l1.1-3.77a.81.81,0,0,0-.43-1l-4.62-2.21a.8.8,0,0,1-.46-.74,16,16,0,0,0-.43-3.53.79.79,0,0,1,.28-.83l4.11-3.22a.82.82,0,0,0,.21-1.05l-1-1.84q-4.89,3-9.9,6.47L42.11,54.4c1.1,2.88.4,6.51-3,9.26a1.43,1.43,0,0,1-.27.15,8.14,8.14,0,0,1-8.15-.92c-2.18,1.72-4.29,3.45-6.34,5.16A15.71,15.71,0,0,0,27,70.13.82.82,0,0,1,27.36,70.92Z"/></svg>