<svg id="ab2b4079-5a1d-4675-8092-194aeb87d233" data-name="Layer 1" xmlns="http://www.w3.org/2000/svg" viewBox="0 0 100 100"><defs><style>.b96e0e79-67a1-4f2b-9b92-d23747daec59{fill:#079cee;}.b11cdddf-a326-407d-b8f5-69e9ec34c2f4{fill:#9a59c5;}.f14cbe9a-9b9a-4f5d-9237-7b2324d2ed49{fill:#a95adf;}.b8971f47-399c-453b-9cab-3ad544de6ae3{fill:#ff6f47;}.bfb014f7-6905-46ae-8c8e-c2ad89202609{fill:#00bf8c;}</style></defs><path class="b96e0e79-67a1-4f2b-9b92-d23747daec59" d="M50,30.11c3.15,0,5.7-3.09,5.7-6.92s-.84-6.92-5.7-6.92-5.7,3.1-5.7,6.92S46.85,30.11,50,30.11Z"/><path class="b96e0e79-67a1-4f2b-9b92-d23747daec59" d="M39.24,40.68Z"/><path class="b96e0e79-67a1-4f2b-9b92-d23747daec59" d="M60.76,40.86Z"/><path class="b96e0e79-67a1-4f2b-9b92-d23747daec59" d="M60.75,40.4c-.11-6.66-1-8.55-7.63-9.76A4,4,0,0,1,50,31.84a4,4,0,0,1-3.12-1.2c-6.58,1.19-7.5,3.06-7.63,9.54,0,.53,0,.56,0,.5v.7S40.82,44.57,50,44.57s10.76-3.19,10.76-3.19v-.52S60.76,40.83,60.75,40.4Z"/><path class="b11cdddf-a326-407d-b8f5-69e9ec34c2f4" d="M73.08,65.17c3.14,0,5.7-3.1,5.7-6.92s-.84-6.92-5.7-6.92-5.7,3.1-5.7,6.92S69.93,65.17,73.08,65.17Z"/><path class="f14cbe9a-9b9a-4f5d-9237-7b2324d2ed49" d="M62.32,75.74Z"/><path class="f14cbe9a-9b9a-4f5d-9237-7b2324d2ed49" d="M83.84,75.92Z"/><path class="f14cbe9a-9b9a-4f5d-9237-7b2324d2ed49" d="M83.83,75.46c-.11-6.66-1-8.56-7.63-9.76a4.66,4.66,0,0,1-6.24,0c-6.58,1.19-7.51,3.06-7.63,9.54,0,.53,0,.56,0,.5v.7s1.58,3.19,10.76,3.19,10.76-3.19,10.76-3.19v-.52A3.1,3.1,0,0,1,83.83,75.46Z"/><path class="b8971f47-399c-453b-9cab-3ad544de6ae3" d="M26.92,65.17c3.15,0,5.7-3.1,5.7-6.92s-.84-6.92-5.7-6.92-5.7,3.1-5.7,6.92S23.78,65.17,26.92,65.17Z"/><path class="b8971f47-399c-453b-9cab-3ad544de6ae3" d="M16.16,75.74Z"/><path class="b8971f47-399c-453b-9cab-3ad544de6ae3" d="M37.68,75.92c0-.06,0-.44,0,0Z"/><path class="b8971f47-399c-453b-9cab-3ad544de6ae3" d="M37.67,75.46c-.11-6.66-1-8.56-7.63-9.76a4,4,0,0,1-3.12,1.2,4,4,0,0,1-3.12-1.2c-6.58,1.19-7.5,3.06-7.62,9.54,0,.53,0,.56,0,.5v.7s1.59,3.19,10.76,3.19,10.76-3.19,10.76-3.19v-.52S37.68,75.88,37.67,75.46Z"/><path class="bfb014f7-6905-46ae-8c8e-c2ad89202609" d="M48.73,83.71a26,26,0,0,1-9.22-2A1,1,0,0,1,39,80.4a1,1,0,0,1,1.31-.54,24,24,0,0,0,8.51,1.85,23.76,23.76,0,0,0,10.88-2.18,1,1,0,0,1,.84,1.82A26,26,0,0,1,48.73,83.71Z"/><path class="bfb014f7-6905-46ae-8c8e-c2ad89202609" d="M26.77,49.06a1.08,1.08,0,0,1-.38-.08,1,1,0,0,1-.54-1.3,26.2,26.2,0,0,1,8.8-11.2,1,1,0,1,1,1.18,1.62A24.19,24.19,0,0,0,27.7,48.44,1,1,0,0,1,26.77,49.06Z"/><path class="bfb014f7-6905-46ae-8c8e-c2ad89202609" d="M73.23,49a1,1,0,0,1-.93-.62A24.15,24.15,0,0,0,64,38a1,1,0,0,1,1.16-1.62,26.14,26.14,0,0,1,9,11.24A1,1,0,0,1,73.23,49Z"/></svg>