<svg id="be839c27-adab-43ec-80bf-4c01cd73eed5" data-name="Layer 1" xmlns="http://www.w3.org/2000/svg" viewBox="0 0 100 100"><defs><style>.adffced3-47b9-49ed-b5a3-d2df30476d7a{fill:#079cee;}.f7f517ff-9822-401f-ad6e-eb95a7a9d28f{fill:#078cd6;}.b4467261-f919-4803-a637-ae04b2bc0dae{fill:#00bf8c;}.aa81d617-0b14-40f0-86e2-314cd3436ed5{fill:#fff;}</style></defs><path class="adffced3-47b9-49ed-b5a3-d2df30476d7a" d="M53.26,74.13A18.48,18.48,0,0,1,50,67.75l-.84.73c-1.56,1.35-4.44,7.65-15.6-5.19s-4.52-14.81-3-16.15l2.13-1.86c.13-.11.23-.22.35-.33a15.86,15.86,0,0,1-8.79-7.54A15.54,15.54,0,0,1,23,27.71a7.58,7.58,0,0,0-1,.69l-1.91,1.68a17.92,17.92,0,0,0-7,11.89c-1.14,7.58,1.64,14.4,6,20.52.67.94,1.36,1.87,2.08,2.78a21.83,21.83,0,0,1,1.95,2.45c1,1.78-1,3.84-1.57,5.45-.61,1.9.93,2.87,2.6,3.21,3.07.62,6.71.34,9.26,2.51,6.23,5.32,12.55,7.77,18.52,7.7a18,18,0,0,0,12.75-5.28l.23-.2A19.41,19.41,0,0,1,53.26,74.13Z"/><path class="f7f517ff-9822-401f-ad6e-eb95a7a9d28f" d="M24.33,37.41A15.86,15.86,0,0,0,33.12,45c3.08-3,1.76-6.76-.7-10.61l-1.53-2.42c-2.33-3.61-4.84-6.08-7.94-4.21A15.54,15.54,0,0,0,24.33,37.41Z"/><path class="f7f517ff-9822-401f-ad6e-eb95a7a9d28f" d="M64.28,70.36,62.12,68.5c-3.6-3.08-7.25-4.94-10.8-1.87L50,67.75a18.48,18.48,0,0,0,3.22,6.38,19.41,19.41,0,0,0,11.59,7l1.69-1.47C70.08,76.57,67.88,73.44,64.28,70.36Z"/><circle class="adffced3-47b9-49ed-b5a3-d2df30476d7a" cx="17.42" cy="73.1" r="1.86"/><circle class="adffced3-47b9-49ed-b5a3-d2df30476d7a" cx="13.02" cy="70.61" r="0.86"/><path class="b4467261-f919-4803-a637-ae04b2bc0dae" d="M81.06,13.41H49.81A6.77,6.77,0,0,0,43,20.19V39.45a6.17,6.17,0,0,0,5.58,6.13c.49.05,1,0,1.38.06a2.25,2.25,0,0,1,1.4.52c.81.69.54,1.75.12,2.58S50.22,50,50,51a.77.77,0,0,0,.17.7c.59.61,2,0,2.58-.29a15.82,15.82,0,0,0,2.35-1.62c1.21-.93,2.28-2.05,3.55-2.9a7.48,7.48,0,0,1,2-.92,13.29,13.29,0,0,1,3.4-.38c2.75-.08,5.67,0,8.42,0s5.69.07,8.54.07a6.78,6.78,0,0,0,6.78-6.78V20.19A6.78,6.78,0,0,0,81.06,13.41Z"/><path class="aa81d617-0b14-40f0-86e2-314cd3436ed5" d="M51.92,25.31h27a1.33,1.33,0,0,0,0-2.63h-27a1.34,1.34,0,0,0,0,2.63Z"/><path class="aa81d617-0b14-40f0-86e2-314cd3436ed5" d="M78.94,33.89h-27a1.33,1.33,0,0,0,0,2.62h27a1.33,1.33,0,0,0,0-2.62Z"/><path class="aa81d617-0b14-40f0-86e2-314cd3436ed5" d="M78.94,28.29h-27a1.33,1.33,0,0,0,0,2.62h27a1.33,1.33,0,0,0,0-2.62Z"/><circle class="b4467261-f919-4803-a637-ae04b2bc0dae" cx="47.35" cy="52.27" r="1.12"/><circle class="b4467261-f919-4803-a637-ae04b2bc0dae" cx="44.04" cy="51.97" r="0.69"/></svg>