<svg id="f8383a82-f472-4072-be09-e4d1ce9fd04b" data-name="Layer 1" xmlns="http://www.w3.org/2000/svg" viewBox="0 0 100 100"><defs><style>.fc031347-209c-400f-b69a-7230be45d346{fill:#ff6f47;}.e8b12382-26af-4546-aa08-05a3fbe295e0{fill:#ffd1c5;}.aa6f3fde-349b-4642-b84a-78ecd14f674d{fill:#079cee;}.e935b1e4-cf79-4c83-94d8-e3cec964bb70{fill:#9a59c5;}.a436091c-a25a-4adf-ba6d-9daf8c214e67{fill:#00bf8c;}</style></defs><path class="fc031347-209c-400f-b69a-7230be45d346" d="M43.65,32.47a8.76,8.76,0,0,0-8.72,7.61L31.37,69.8H30.06A2.06,2.06,0,0,0,27.87,72v4.39a2.07,2.07,0,0,0,2.19,2.2H69.58a2.07,2.07,0,0,0,2.2-2.2V72a2.07,2.07,0,0,0-2.2-2.19h-1.3L64.71,40.08a8.66,8.66,0,0,0-8.51-7.61Z"/><path class="e8b12382-26af-4546-aa08-05a3fbe295e0" d="M43.65,36.86q16.22.69,16.21,1.27t-12.23.93a3.6,3.6,0,0,0-3.71,3.29l-3.1,26.42a1.16,1.16,0,0,1-1.15,1H37.13A1.16,1.16,0,0,1,36,68.5l3.28-27.87A4.11,4.11,0,0,1,43.65,36.86Z"/><path class="aa6f3fde-349b-4642-b84a-78ecd14f674d" d="M36.51,21.42l-.27.07a2.22,2.22,0,0,0-1.59,1.18,2.19,2.19,0,0,0,0,2L36.85,29a2.21,2.21,0,1,0,4-1.92l-2.19-4.39a2.2,2.2,0,0,0-1.92-1.31Z"/><path class="e935b1e4-cf79-4c83-94d8-e3cec964bb70" d="M62.65,21.49A2.16,2.16,0,0,0,61,22.73l-2.2,4.39a2.21,2.21,0,0,0,4,1.92L65,24.65a2.2,2.2,0,0,0-2.34-3.16Z"/><path class="a436091c-a25a-4adf-ba6d-9daf8c214e67" d="M76.31,32.33a2.61,2.61,0,0,0-.55.14,2.13,2.13,0,0,0-.55.2l-4.39,2.2a2.21,2.21,0,1,0,1.92,4l4.39-2.2a2.2,2.2,0,0,0-.82-4.32Z"/><path class="a436091c-a25a-4adf-ba6d-9daf8c214e67" d="M23,32.47a2.19,2.19,0,0,0-.48,4.18l4.4,2.2a2.21,2.21,0,0,0,1.92-4l-4.39-2.2a2.31,2.31,0,0,0-1.24-.2Z"/><path class="e935b1e4-cf79-4c83-94d8-e3cec964bb70" d="M28,47.7a2.61,2.61,0,0,0-.55.14,2.2,2.2,0,0,0-.54.2l-4.4,2.2a2.21,2.21,0,1,0,1.93,4L28.83,52A2.2,2.2,0,0,0,28,47.7Z"/><path class="aa6f3fde-349b-4642-b84a-78ecd14f674d" d="M71.3,47.84A2.19,2.19,0,0,0,70.82,52l4.39,2.2a2.21,2.21,0,1,0,1.92-4L72.74,48a2.26,2.26,0,0,0-1.23-.2Z"/></svg>