<svg id="Layer_1" data-name="Layer 1" xmlns="http://www.w3.org/2000/svg" viewBox="0 0 100 100"><defs><style>.cls-1{fill:#e6f5fd;}.cls-2{fill:none;stroke:#079cee;stroke-linecap:round;stroke-linejoin:round;stroke-width:2.65px;}.cls-3{fill:#83cdf6;}.cls-4{fill:#084f7a;}</style></defs><circle class="cls-1" cx="50" cy="50.05" r="50"/><path class="cls-2" d="M30.54,32h0c0-.3,0-.6,0-.9a10.1,10.1,0,0,1,13.61-9.49A14.66,14.66,0,0,1,70,31.13c0,.3,0,.6,0,.9h0A11.84,11.84,0,0,1,70,55.7H30.54a11.84,11.84,0,1,1,0-23.67Z"/><rect class="cls-3" x="29.94" y="50.35" width="40.1" height="36.1" rx="3.72"/><path class="cls-1" d="M66.33,51.85a2.22,2.22,0,0,1,2.22,2.22V82.74A2.22,2.22,0,0,1,66.33,85H33.66a2.23,2.23,0,0,1-2.22-2.22V54.07a2.23,2.23,0,0,1,2.22-2.22H66.33m0-3H33.66a5.24,5.24,0,0,0-5.22,5.22V82.74A5.24,5.24,0,0,0,33.66,88H66.33a5.23,5.23,0,0,0,5.22-5.22V54.07a5.23,5.23,0,0,0-5.22-5.22Z"/><rect class="cls-4" x="36.6" y="72.87" width="26.79" height="2.84" rx="1.37"/><rect class="cls-4" x="39.14" y="77.44" width="21.72" height="2.84" rx="1.37"/><circle class="cls-4" cx="50" cy="62.73" r="7"/><g id="surface1"><path class="cls-4" d="M49.77,27a8.89,8.89,0,0,0-3.56.73.47.47,0,0,0-.32.37.46.46,0,0,0,.2.44.44.44,0,0,0,.48,0,8.07,8.07,0,0,1,3.2-.64A9.73,9.73,0,0,1,54.34,29a.46.46,0,0,0,.42-.81A10.6,10.6,0,0,0,49.77,27Zm-4.93,1.51a.4.4,0,0,0-.2.09,12.71,12.71,0,0,0-2.9,2.94c-.34.47-.62.89-.85,1.22a7.11,7.11,0,0,1-.48.63.43.43,0,0,0-.23.43.46.46,0,0,0,.78.28,3.52,3.52,0,0,0,.67-.81c.24-.35.52-.76.85-1.21a11.81,11.81,0,0,1,2.67-2.73.45.45,0,0,0,.19-.53.46.46,0,0,0-.46-.31Zm5.23.77a.46.46,0,0,0-.39.52.47.47,0,0,0,.52.39c4.62.27,6.58,2.84,7.41,5.75a14.91,14.91,0,0,1,0,7.41.45.45,0,1,0,.86.28,15.13,15.13,0,0,0,0-7.93,8.47,8.47,0,0,0-8.23-6.42.17.17,0,0,0-.1,0h-.09Zm6.17,0a.45.45,0,0,0-.36.35.45.45,0,0,0,.19.47c3.56,2.46,4.12,8,4.12,8a.47.47,0,0,0,.5.41.45.45,0,0,0,.41-.5s-.48-5.88-4.52-8.67A.46.46,0,0,0,56.24,29.35Zm-7.92.14h0c-3.14.63-4.66,2.79-5.84,4.62a.46.46,0,0,0,.14.63.45.45,0,0,0,.63-.13c1.16-1.81,2.44-3.68,5.25-4.24a.45.45,0,0,0-.15-.89Zm1.91,2.1a5.74,5.74,0,0,0-3.73,1.27.46.46,0,0,0,.57.71,4.73,4.73,0,0,1,3.16-1.07,7.13,7.13,0,0,1,1.15.1.45.45,0,0,0,.52-.6.45.45,0,0,0-.36-.29A7,7,0,0,0,50.23,31.59Zm2.84.66h0a.45.45,0,0,0-.35.39.43.43,0,0,0,.25.46c2,1,3.21,3.23,3.21,6.21A15.67,15.67,0,0,1,55.87,42a.46.46,0,0,0,.9.17,16.27,16.27,0,0,0,.28-2.89c0-3.23-1.37-5.82-3.71-7A.49.49,0,0,0,53.07,32.25Zm-2.84,1.62a4.22,4.22,0,0,0-2.8,1A7,7,0,0,0,45.84,37a.45.45,0,0,0,.19.62.46.46,0,0,0,.62-.19A6.08,6.08,0,0,1,48,35.53a3.24,3.24,0,0,1,2.22-.75,3.15,3.15,0,0,1,2.17.76,4.15,4.15,0,0,1,1.17,1.87.46.46,0,0,0,.33.33.44.44,0,0,0,.45-.14.46.46,0,0,0,.09-.46A5.05,5.05,0,0,0,53,34.86,4.12,4.12,0,0,0,50.23,33.87Zm-4.79.25a.52.52,0,0,0-.3.2c-.91,1.23-1.56,2.59-2.32,3.57A2.91,2.91,0,0,1,40,39.32a.46.46,0,0,0-.49.42.44.44,0,0,0,.41.49,4,4,0,0,0,3.64-1.79c.84-1.09,1.48-2.45,2.31-3.58a.45.45,0,0,0,.06-.47.45.45,0,0,0-.4-.27h-.08ZM41.83,35.4l-.07,0a.43.43,0,0,0-.29.18,3.77,3.77,0,0,1-1.72,1.48.46.46,0,0,0-.18.8.44.44,0,0,0,.48,0,4.58,4.58,0,0,0,2.16-1.79.46.46,0,0,0-.38-.74Zm7.63.46a.49.49,0,0,0-.16,0,3.67,3.67,0,0,0-1.46,2.16A23,23,0,0,1,47,40.45,5.77,5.77,0,0,1,42,43.87a.46.46,0,0,0-.4.69.44.44,0,0,0,.4.22,6.68,6.68,0,0,0,5.74-3.91,18.79,18.79,0,0,0,.91-2.48,3.15,3.15,0,0,1,1.05-1.68.46.46,0,0,0,.23-.55A.45.45,0,0,0,49.46,35.86Zm1.58.08a.45.45,0,0,0-.37.37.45.45,0,0,0,.21.47,2.65,2.65,0,0,1,.71,2.15,12.64,12.64,0,0,1-.89,4,9.88,9.88,0,0,1-3.23,4.49.46.46,0,0,0-.11.64.46.46,0,0,0,.64.12,10.83,10.83,0,0,0,3.54-4.92,13.14,13.14,0,0,0,1-4.29A3.33,3.33,0,0,0,51.38,36,.42.42,0,0,0,51,35.94Zm-.88,2a.45.45,0,0,0-.39.43,10.32,10.32,0,0,1-.88,3.25.48.48,0,0,0,0,.49.46.46,0,0,0,.82-.12,11.65,11.65,0,0,0,1-3.57.47.47,0,0,0-.14-.37A.49.49,0,0,0,50.16,38Zm-4.88.46a.42.42,0,0,0-.31.24,6.71,6.71,0,0,1-1.58,2.09,4.12,4.12,0,0,1-2.73.85.45.45,0,0,0-.4.68.46.46,0,0,0,.4.23,5.15,5.15,0,0,0,3.3-1,7.38,7.38,0,0,0,1.82-2.36.48.48,0,0,0,0-.49.46.46,0,0,0-.45-.19Zm9,.44h-.06a.45.45,0,0,0-.35.45,14.54,14.54,0,0,1-2.75,8.21.46.46,0,0,0,.73.57,15.5,15.5,0,0,0,2.93-8.78.45.45,0,0,0-.15-.34A.41.41,0,0,0,54.28,38.86Zm-5.84,4a.45.45,0,0,0-.33.22,8.13,8.13,0,0,1-3.61,3.05.46.46,0,0,0-.24.6.45.45,0,0,0,.59.24,9.11,9.11,0,0,0,4-3.39.47.47,0,0,0,0-.5A.46.46,0,0,0,48.44,42.86Zm7.37.72a.46.46,0,0,0-.37.35,23.72,23.72,0,0,1-.71,2.29.45.45,0,0,0,.07.46.44.44,0,0,0,.44.17.49.49,0,0,0,.35-.32s.37-1,.74-2.37a.46.46,0,0,0-.09-.42.42.42,0,0,0-.38-.16Z"/></g><path class="cls-3" d="M51.19,64.24c-.07,0-.4-.17-.17-.81h0a3.51,3.51,0,0,0,1-2.38A1.94,1.94,0,0,0,50.19,59H50a2,2,0,0,0-2,2.11,3.56,3.56,0,0,0,1,2.35.59.59,0,0,1-.24.81c-1.14.4-2.45,1.14-2.45,1.88v.26c0,1,1.91,1.21,3.69,1.21s3.66-.23,3.66-1.21v-.26C53.67,65.38,52.36,64.64,51.19,64.24Z"/></svg>