<svg xmlns="http://www.w3.org/2000/svg" width="50" height="50.237" viewBox="0 0 50 50.237">
  <g id="Group_7907" data-name="Group 7907" transform="translate(0.114 0.38)">
    <path id="Path_18048" data-name="Path 18048" d="M24.949,0A24.949,24.949,0,1,1,0,24.949,24.949,24.949,0,0,1,24.949,0" transform="translate(-0.013 -0.042)" fill="#e6f5fd"/>
    <path id="Path_18049" data-name="Path 18049" d="M49.948,73.958c0,1.656-5.658,3-12.639,3s-12.639-1.342-12.639-3,5.659-3,12.639-3,12.639,1.342,12.639,3" transform="translate(-12.373 -35.594)" fill="#ffc5b5"/>
    <path id="Path_18050" data-name="Path 18050" d="M46.827,17.023h-11.5a3.137,3.137,0,0,0-3.137,3.138V44.977a3.137,3.137,0,0,0,3.137,3.138h11.5a3.137,3.137,0,0,0,3.137-3.138V20.161a3.137,3.137,0,0,0-3.137-3.138m-6.8,1.046H42.12a.523.523,0,0,1,0,1.046H40.028a.523.523,0,0,1,0-1.046M41.407,46.8a1.339,1.339,0,0,1-1.628-1.628,1.323,1.323,0,0,1,.964-.965,1.339,1.339,0,0,1,1.628,1.629,1.323,1.323,0,0,1-.964.964" transform="translate(-16.138 -8.571)" fill="#843926"/>
    <path id="Path_18051" data-name="Path 18051" d="M49.88,42.151a5.99,5.99,0,1,1-5.99-5.99,5.99,5.99,0,0,1,5.99,5.99" transform="translate(-19.001 -18.159)" fill="#fff"/>
    <path id="Path_18052" data-name="Path 18052" d="M48.113,44.97A1.728,1.728,0,1,1,46.385,46.7a1.729,1.729,0,0,1,1.728-1.728" transform="translate(-23.252 -22.573)" fill="#ff6f47"/>
    <path id="Path_18053" data-name="Path 18053" d="M48.862,39.5a.982.982,0,1,1-.983.983.983.983,0,0,1,.983-.983" transform="translate(-24.001 -19.832)" fill="#ff6f47"/>
    <path id="Path_18054" data-name="Path 18054" d="M48.862,53.429a.982.982,0,1,1-.983.982.983.983,0,0,1,.983-.982" transform="translate(-24.001 -26.811)" fill="#ff6f47"/>
    <path id="Path_18055" data-name="Path 18055" d="M41.424,46.465a.982.982,0,1,1-.982.982.983.983,0,0,1,.982-.982" transform="translate(-20.274 -23.322)" fill="#ff6f47"/>
    <path id="Path_18056" data-name="Path 18056" d="M56.3,46.465a.982.982,0,1,1-.982.982.983.983,0,0,1,.982-.982" transform="translate(-27.728 -23.322)" fill="#ff6f47"/>
    <path id="Path_18057" data-name="Path 18057" d="M28.653,48.076a.4.4,0,0,1-.277-.11,11.292,11.292,0,0,1-1.126-15.185A11.425,11.425,0,0,1,28.436,31.5a.4.4,0,1,1,.55.589,10.57,10.57,0,0,0-1.1,1.194,10.487,10.487,0,0,0,1.046,14.1.4.4,0,0,1-.277.7" transform="translate(-12.457 -15.768)" fill="#ff6f47"/>
    <path id="Path_18058" data-name="Path 18058" d="M32.543,48.1a.4.4,0,0,1-.277-.11,9.393,9.393,0,0,1-2.98-6.9,9.519,9.519,0,0,1,3.023-6.94.4.4,0,0,1,.549.59,8.7,8.7,0,0,0-2.766,6.35A8.588,8.588,0,0,0,32.819,47.4a.4.4,0,0,1-.276.7" transform="translate(-14.685 -17.097)" fill="#ff6f47"/>
    <path id="Path_18059" data-name="Path 18059" d="M35.921,48.115a.4.4,0,0,1-.276-.109,7.887,7.887,0,0,1-2.52-5.8,7.992,7.992,0,0,1,2.55-5.832.4.4,0,0,1,.548.591A7.139,7.139,0,0,0,36.2,47.418a.4.4,0,0,1-.276.7" transform="translate(-16.609 -18.21)" fill="#ff6f47"/>
    <path id="Path_18060" data-name="Path 18060" d="M66.2,48.17a.4.4,0,0,1-.279-.694,10.485,10.485,0,0,0,.768-14.344,10.591,10.591,0,0,0-.728-.776.4.4,0,0,1,.56-.579A11.256,11.256,0,0,1,69.973,39.9a11.2,11.2,0,0,1-3.489,8.16.4.4,0,0,1-.279.112" transform="translate(-32.98 -15.905)" fill="#ff6f47"/>
    <path id="Path_18061" data-name="Path 18061" d="M60.83,48.152a.4.4,0,0,1-.28-.693,7.146,7.146,0,0,0,.011-10.289.4.4,0,1,1,.561-.579,7.953,7.953,0,0,1-.012,11.448.4.4,0,0,1-.28.113" transform="translate(-30.287 -18.318)" fill="#ff6f47"/>
    <path id="Path_18062" data-name="Path 18062" d="M63.716,48.161a.4.4,0,0,1-.279-.694,8.668,8.668,0,0,0,.024-12.487.4.4,0,0,1,.56-.579A9.474,9.474,0,0,1,64,48.048a.4.4,0,0,1-.279.113" transform="translate(-31.734 -17.221)" fill="#ff6f47"/>
    <rect id="Rectangle_2207" data-name="Rectangle 2207" width="50" height="50" transform="translate(-0.114 -0.38)" fill="none"/>
  </g>
</svg>
