<svg xmlns="http://www.w3.org/2000/svg" width="50" height="50" viewBox="0 0 50 50">
  <g id="Group_8088" data-name="Group 8088" transform="translate(-278 -762)">
    <g id="Group_6761" data-name="Group 6761" transform="translate(278 762)">
      <g id="Group_6761-2" data-name="Group 6761" transform="translate(0 0)">
        <circle id="Ellipse_2968" data-name="Ellipse 2968" cx="25" cy="25" r="25" fill="#e6f5fd"/>
      </g>
    </g>
    <g id="icon-enterprise-911" transform="translate(290.346 773.089)">
      <g id="Group_6628" data-name="Group 6628" transform="translate(0 0)">
        <g id="Layer_3" data-name="Layer 3" transform="translate(0 0)">
          <path id="Rectangle_1522" data-name="Rectangle 1522" d="M12.217,8.633H28.711a1.75,1.75,0,0,1,1.745,1.745V30.1a1.75,1.75,0,0,1-1.745,1.745H12.217A1.75,1.75,0,0,1,10.472,30.1V10.378A1.75,1.75,0,0,1,12.217,8.633Z" transform="translate(-10.472 -8.633)" fill="#843926"/>
          <rect id="Rectangle_1523" data-name="Rectangle 1523" width="6.981" height="0.436" transform="translate(2.531 2.356)" fill="#ff6f47"/>
          <rect id="Rectangle_1524" data-name="Rectangle 1524" width="2.793" height="0.436" transform="translate(9.948 2.356)" fill="#ff6f47"/>
          <rect id="Rectangle_1525" data-name="Rectangle 1525" width="3.142" height="0.436" transform="translate(2.531 3.403)" fill="#ff6f47"/>
          <rect id="Rectangle_1526" data-name="Rectangle 1526" width="1.745" height="0.436" transform="translate(6.021 3.403)" fill="#ff6f47"/>
          <rect id="Rectangle_1527" data-name="Rectangle 1527" width="3.491" height="0.436" transform="translate(8.116 3.403)" fill="#ff6f47"/>
          <rect id="Rectangle_1528" data-name="Rectangle 1528" width="3.752" height="0.436" transform="translate(2.531 4.363)" fill="#ff6f47"/>
          <rect id="Rectangle_1529" data-name="Rectangle 1529" width="6.021" height="0.436" transform="translate(6.632 4.363)" fill="#ff6f47"/>
          <rect id="Rectangle_1530" data-name="Rectangle 1530" width="1.047" height="0.436" transform="translate(2.531 5.411)" fill="#ff6f47"/>
          <rect id="Rectangle_1531" data-name="Rectangle 1531" width="3.752" height="0.436" transform="translate(3.927 5.411)" fill="#ff6f47"/>
          <rect id="Rectangle_1532" data-name="Rectangle 1532" width="3.491" height="0.436" transform="translate(8.116 5.411)" fill="#ff6f47"/>
          <rect id="Rectangle_1533" data-name="Rectangle 1533" width="6.981" height="0.436" transform="translate(2.531 6.545)" fill="#ff6f47"/>
          <rect id="Rectangle_1534" data-name="Rectangle 1534" width="2.793" height="0.436" transform="translate(9.948 6.545)" fill="#ff6f47"/>
          <rect id="Rectangle_1535" data-name="Rectangle 1535" width="3.142" height="0.436" transform="translate(2.531 7.505)" fill="#ff6f47"/>
          <rect id="Rectangle_1536" data-name="Rectangle 1536" width="1.745" height="0.436" transform="translate(6.021 7.505)" fill="#ff6f47"/>
          <rect id="Rectangle_1537" data-name="Rectangle 1537" width="3.491" height="0.436" transform="translate(8.116 7.505)" fill="#ff6f47"/>
          <rect id="Rectangle_1538" data-name="Rectangle 1538" width="3.752" height="0.436" transform="translate(2.531 8.552)" fill="#ff6f47"/>
          <rect id="Rectangle_1539" data-name="Rectangle 1539" width="6.021" height="0.436" transform="translate(6.632 8.552)" fill="#ff6f47"/>
          <rect id="Rectangle_1540" data-name="Rectangle 1540" width="1.047" height="0.436" transform="translate(2.531 9.599)" fill="#ff6f47"/>
          <rect id="Rectangle_1541" data-name="Rectangle 1541" width="3.752" height="0.436" transform="translate(3.927 9.599)" fill="#ff6f47"/>
          <rect id="Rectangle_1542" data-name="Rectangle 1542" width="3.491" height="0.436" transform="translate(8.116 9.599)" fill="#ff6f47"/>
          <rect id="Rectangle_1543" data-name="Rectangle 1543" width="6.981" height="0.436" transform="translate(2.531 10.647)" fill="#ff6f47"/>
          <rect id="Rectangle_1544" data-name="Rectangle 1544" width="2.793" height="0.436" transform="translate(9.948 10.647)" fill="#ff6f47"/>
          <rect id="Rectangle_1545" data-name="Rectangle 1545" width="3.142" height="0.436" transform="translate(2.531 11.694)" fill="#ff6f47"/>
          <rect id="Rectangle_1546" data-name="Rectangle 1546" width="1.745" height="0.436" transform="translate(6.021 11.694)" fill="#ff6f47"/>
          <rect id="Rectangle_1547" data-name="Rectangle 1547" width="3.491" height="0.436" transform="translate(8.116 11.694)" fill="#ff6f47"/>
          <rect id="Rectangle_1548" data-name="Rectangle 1548" width="3.752" height="0.436" transform="translate(2.531 12.741)" fill="#ff6f47"/>
          <rect id="Rectangle_1549" data-name="Rectangle 1549" width="6.021" height="0.436" transform="translate(6.632 12.741)" fill="#ff6f47"/>
          <rect id="Rectangle_1550" data-name="Rectangle 1550" width="1.047" height="0.436" transform="translate(2.531 13.701)" fill="#ff6f47"/>
          <rect id="Rectangle_1551" data-name="Rectangle 1551" width="3.752" height="0.436" transform="translate(3.927 13.701)" fill="#ff6f47"/>
          <rect id="Rectangle_1552" data-name="Rectangle 1552" width="3.491" height="0.436" transform="translate(8.116 13.701)" fill="#ff6f47"/>
          <rect id="Rectangle_1553" data-name="Rectangle 1553" width="6.981" height="0.436" transform="translate(2.531 15.534)" fill="#ff6f47"/>
          <rect id="Rectangle_1554" data-name="Rectangle 1554" width="2.793" height="0.436" transform="translate(9.948 15.534)" fill="#ff6f47"/>
          <rect id="Rectangle_1555" data-name="Rectangle 1555" width="3.142" height="0.436" transform="translate(2.531 16.581)" fill="#ff6f47"/>
          <rect id="Rectangle_1556" data-name="Rectangle 1556" width="1.745" height="0.436" transform="translate(6.021 16.581)" fill="#ff6f47"/>
          <rect id="Rectangle_1557" data-name="Rectangle 1557" width="3.491" height="0.436" transform="translate(8.116 16.581)" fill="#ff6f47"/>
          <rect id="Rectangle_1558" data-name="Rectangle 1558" width="3.752" height="0.436" transform="translate(2.531 17.628)" fill="#ff6f47"/>
          <rect id="Rectangle_1559" data-name="Rectangle 1559" width="6.021" height="0.436" transform="translate(6.632 17.628)" fill="#ff6f47"/>
          <rect id="Rectangle_1560" data-name="Rectangle 1560" width="1.047" height="0.436" transform="translate(2.531 18.588)" fill="#ff6f47"/>
          <rect id="Rectangle_1561" data-name="Rectangle 1561" width="3.752" height="0.436" transform="translate(3.927 18.588)" fill="#ff6f47"/>
          <rect id="Rectangle_1562" data-name="Rectangle 1562" width="3.491" height="0.436" transform="translate(8.116 18.588)" fill="#ff6f47"/>
          <path id="Rectangle_1563" data-name="Rectangle 1563" d="M18.317,14.733H34.811a1.75,1.75,0,0,1,1.745,1.745V36.2a1.75,1.75,0,0,1-1.745,1.745H18.317A1.75,1.75,0,0,1,16.572,36.2V16.478A1.75,1.75,0,0,1,18.317,14.733Z" transform="translate(-11.249 -9.41)" fill="#e66440"/>
        </g>
        <g id="Isolation_Mode" data-name="Isolation Mode" transform="translate(7.902 9.804)">
          <g id="Group_6627" data-name="Group 6627">
            <path id="Path_14589" data-name="Path 14589" d="M26.945,19.868a7.418,7.418,0,1,0,7.418,7.418h0A7.411,7.411,0,0,0,26.945,19.868Zm0,1.222a6.2,6.2,0,1,1-6.2,6.2h0a6.22,6.22,0,0,1,6.2-6.2Zm2.618,2.531c-.087,0-.175.087-.262.175l-3.054,4.451-1.4-1.4c-.087-.175-.262-.175-.436-.087h-.087l-.524.611a.327.327,0,0,0,0,.524l2.182,2.182a1.24,1.24,0,0,0,.524.175.48.48,0,0,0,.436-.262L30.61,24.58c.087-.175.087-.349-.175-.524l-.611-.436Z" transform="translate(-19.527 -19.868)" fill="#fff"/>
          </g>
        </g>
      </g>
    </g>
  </g>
</svg>
