<svg xmlns="http://www.w3.org/2000/svg" width="50" height="50" viewBox="0 0 50 50">
  <g id="Communications_Products_Services_-_Bandwidth-42" data-name="Communications Products &amp; Services - Bandwidth-42" transform="translate(-0.084 -0.493)">
    <g id="Group_7773" data-name="Group 7773" transform="translate(0.085 0.493)">
      <circle id="Ellipse_723" data-name="Ellipse 723" cx="25" cy="25" r="25" transform="translate(0)" fill="#e6f5fd"/>
    </g>
    <g id="Group_7774" data-name="Group 7774" transform="translate(16.195 22.814)">
      <rect id="Rectangle_2208" data-name="Rectangle 2208" width="3.396" height="10.318" rx="1.698" fill="#9a59c5"/>
      <rect id="Rectangle_2209" data-name="Rectangle 2209" width="3.396" height="9.558" rx="1.698" transform="translate(9.621 0.76)" fill="#ff6f47"/>
      <rect id="Rectangle_2210" data-name="Rectangle 2210" width="3.396" height="6.987" rx="1.698" transform="translate(4.811 3.331)" fill="#00bf8c"/>
      <rect id="Rectangle_2211" data-name="Rectangle 2211" width="3.396" height="8.304" rx="1.698" transform="translate(14.433 2.014)" fill="#51b9f3"/>
    </g>
    <g id="Group_7775" data-name="Group 7775" transform="translate(9.293 11.447)">
      <path id="Path_18063" data-name="Path 18063" d="M206.231,973.4a1.145,1.145,0,0,1,1.214-1.214h24.283a1.145,1.145,0,0,1,1.214,1.214v17H206.231Z" transform="translate(-203.804 -969.755)" fill="none"/>
      <path id="Path_18064" data-name="Path 18064" d="M232.956,990.408V970.982a3.578,3.578,0,0,0-3.64-3.64H205.031a3.578,3.578,0,0,0-3.64,3.64v19.426a3.579,3.579,0,0,0,3.64,3.64s12.8.008,14.363,0a5.145,5.145,0,0,1,3.12,1.455c.725.56,1.689,1.33,2.557.493s.5-2.025,1.984-1.965a19.282,19.282,0,0,0,2.26.017,3.579,3.579,0,0,0,3.642-3.64Zm-2.428.079a1.357,1.357,0,0,1-1.356,1.356h-24a1.356,1.356,0,0,1-1.356-1.356v-19.5a1.214,1.214,0,0,1,1.214-1.214h24.283a1.215,1.215,0,0,1,1.214,1.214Z" transform="translate(-201.39 -967.341)" fill="#079cee"/>
    </g>
    <circle id="Ellipse_724" data-name="Ellipse 724" cx="0.765" cy="0.765" r="0.765" transform="translate(33.951 40.641)" fill="#079cee"/>
    <circle id="Ellipse_725" data-name="Ellipse 725" cx="0.412" cy="0.412" r="0.412" transform="translate(36.448 40.64)" fill="#079cee"/>
    <path id="Path_18065" data-name="Path 18065" d="M223.023,984.252l-5.092-3.964.618-.791,4.529,3.525,4.732-3.072,5.053,2.06-.379.929-4.568-1.865Z" transform="translate(-200.346 -961.957)" fill="#00bf8c"/>
    <circle id="Ellipse_726" data-name="Ellipse 726" cx="1.708" cy="1.708" r="1.708" transform="translate(16.185 16.228)" fill="#079cee"/>
    <circle id="Ellipse_727" data-name="Ellipse 727" cx="1.708" cy="1.708" r="1.708" transform="translate(20.996 19.973)" fill="#079cee"/>
    <circle id="Ellipse_728" data-name="Ellipse 728" cx="1.708" cy="1.708" r="1.708" transform="translate(25.807 16.849)" fill="#079cee"/>
    <circle id="Ellipse_729" data-name="Ellipse 729" cx="1.708" cy="1.708" r="1.708" transform="translate(30.618 18.813)" fill="#079cee"/>
  </g>
</svg>
