<svg xmlns="http://www.w3.org/2000/svg" xmlns:xlink="http://www.w3.org/1999/xlink" width="50" height="50" viewBox="0 0 50 50">
  <defs>
    <clipPath id="clip-path">
      <rect id="Rectangle_2212" data-name="Rectangle 2212" width="50" height="50" transform="translate(-0.114 -0.254)" fill="none"/>
    </clipPath>
  </defs>
  <g id="Group_7776" data-name="Group 7776" transform="translate(0.114 0.254)" clip-path="url(#clip-path)">
    <path id="Path_18066" data-name="Path 18066" d="M25.038,0A25.038,25.038,0,1,1,0,25.038,25.1,25.1,0,0,1,25.038,0" transform="translate(-0.012 -0.027)" fill="#e6f5fd"/>
    <path id="Path_18067" data-name="Path 18067" d="M23.479,38.57l1.567-9.361c.094-.56-.14-.71-.5-.944a.091.091,0,0,0-.021-.014,1.463,1.463,0,0,0-1.937.942l-1.824,8.262S18.776,46.471,18.75,46.6c-.781,3.745,2.055,6.377,6.326,6.377H43.593c4.271,0,6.975-2.853,6.04-6.373L46.965,36.558c-.149-.559-.489-.709-1.013-.943a.132.132,0,0,0-.03-.014c-.8-.108-1.867-.1-1.643.942l1.646,7.639a1.282,1.282,0,0,1-1.2,1.7l-20.862,0a1.375,1.375,0,0,1-1.322-1.7c.049-.04.938-5.606.938-5.606" transform="translate(-9.308 -14.096)" fill="#019971"/>
    <path id="Path_18068" data-name="Path 18068" d="M50.006,68.38a2.071,2.071,0,1,1-2.038-1.7,1.893,1.893,0,0,1,2.038,1.7" transform="translate(-22.943 -33.316)" fill="#fff"/>
    <path id="Path_18069" data-name="Path 18069" d="M46.694,44.212h-7.3a2.956,2.956,0,1,1,0-5.879h7.3a2.956,2.956,0,1,1,0,5.879" transform="translate(-18.047 -19.165)" fill="#046149"/>
    <path id="Path_18070" data-name="Path 18070" d="M36.62,46.842A1.024,1.024,0,1,1,35.6,47.866a1.024,1.024,0,0,1,1.024-1.024" transform="translate(-17.783 -23.413)" fill="#046149"/>
    <path id="Path_18071" data-name="Path 18071" d="M34.146,50.932a.595.595,0,1,1-.594.594.594.594,0,0,1,.594-.594" transform="translate(-16.763 -25.455)" fill="#046149"/>
    <path id="Path_18072" data-name="Path 18072" d="M48.659,41.664a1.288,1.288,0,1,1-1.288,1.288,1.288,1.288,0,0,1,1.288-1.288" transform="translate(-23.662 -20.828)" fill="#7fdfc5"/>
    <path id="Path_18073" data-name="Path 18073" d="M43.447,42.522a.859.859,0,1,1-.859.859.859.859,0,0,1,.859-.859" transform="translate(-21.274 -21.256)" fill="#7fdfc5"/>
    <path id="Path_18074" data-name="Path 18074" d="M54.76,42.522a.859.859,0,1,1-.859.859.859.859,0,0,1,.859-.859" transform="translate(-26.922 -21.256)" fill="#7fdfc5"/>
    <path id="Path_18075" data-name="Path 18075" d="M63.191,26.161H57.169a2.579,2.579,0,0,1-2.7-2.425,2.587,2.587,0,0,1,2.7-2.425h6.022a2.577,2.577,0,0,1,2.7,2.425,2.569,2.569,0,0,1-2.7,2.425" transform="translate(-27.207 -10.667)" fill="#046149"/>
    <path id="Path_18076" data-name="Path 18076" d="M54.881,28.33a.845.845,0,1,1-.845.845.845.845,0,0,1,.845-.845" transform="translate(-26.989 -14.171)" fill="#046149"/>
    <path id="Path_18077" data-name="Path 18077" d="M52.839,31.7a.49.49,0,1,1-.491.491.491.491,0,0,1,.491-.491" transform="translate(-26.147 -15.855)" fill="#046149"/>
    <path id="Path_18078" data-name="Path 18078" d="M64.813,24.058a1.063,1.063,0,1,1-1.063,1.063,1.063,1.063,0,0,1,1.063-1.063" transform="translate(-31.839 -12.038)" fill="#7fdfc5"/>
    <path id="Path_18079" data-name="Path 18079" d="M60.513,24.766a.709.709,0,1,1-.709.709.709.709,0,0,1,.709-.709" transform="translate(-29.869 -12.391)" fill="#7fdfc5"/>
    <path id="Path_18080" data-name="Path 18080" d="M69.846,24.766a.709.709,0,1,1-.709.709.709.709,0,0,1,.709-.709" transform="translate(-34.529 -12.391)" fill="#7fdfc5"/>
    <path id="Path_18081" data-name="Path 18081" d="M38.981,17.9H34.464a1.934,1.934,0,0,1-2.023-1.819,1.94,1.94,0,0,1,2.023-1.819h4.517A1.934,1.934,0,0,1,41,16.083,1.928,1.928,0,0,1,38.981,17.9" transform="translate(-16.208 -7.148)" fill="#046149"/>
    <path id="Path_18082" data-name="Path 18082" d="M32.747,19.529a.633.633,0,1,1-.633.633.633.633,0,0,1,.633-.633" transform="translate(-16.045 -9.777)" fill="#046149"/>
    <path id="Path_18083" data-name="Path 18083" d="M31.216,22.06a.368.368,0,1,1-.368.368.368.368,0,0,1,.368-.368" transform="translate(-15.413 -11.041)" fill="#046149"/>
    <path id="Path_18084" data-name="Path 18084" d="M40.2,16.326a.8.8,0,1,1-.8.8.8.8,0,0,1,.8-.8" transform="translate(-19.682 -8.178)" fill="#7fdfc5"/>
    <path id="Path_18085" data-name="Path 18085" d="M36.971,16.856a.531.531,0,1,1-.531.531.531.531,0,0,1,.531-.531" transform="translate(-18.205 -8.442)" fill="#7fdfc5"/>
    <path id="Path_18086" data-name="Path 18086" d="M43.971,16.856a.531.531,0,1,1-.531.531.531.531,0,0,1,.531-.531" transform="translate(-21.699 -8.442)" fill="#7fdfc5"/>
  </g>
</svg>
