<?xml version="1.0" encoding="utf-8"?>
<!-- Generator: Adobe Illustrator 27.5.0, SVG Export Plug-In . SVG Version: 6.00 Build 0)  -->
<svg version="1.1" id="Layer_1" xmlns="http://www.w3.org/2000/svg" xmlns:xlink="http://www.w3.org/1999/xlink" x="0px" y="0px"
	 viewBox="0 0 50 50" style="enable-background:new 0 0 50 50;" xml:space="preserve">
<style type="text/css">
	.st0{clip-path:url(#SVGID_00000059301840899916776960000012634628359996672650_);}
	.st1{fill:#E6F5FD;}
	.st2{fill:#00BF8C;}
	.st3{fill:#079CEE;}
</style>
<g>
	<defs>
		<rect id="SVGID_1_" y="0" width="50" height="50"/>
	</defs>
	<clipPath id="SVGID_00000081631571109414561090000003686042801418068865_">
		<use xlink:href="#SVGID_1_"  style="overflow:visible;"/>
	</clipPath>
	<g style="clip-path:url(#SVGID_00000081631571109414561090000003686042801418068865_);">
		<path class="st1" d="M25,0c13.8,0,25,11.2,25,25S38.8,50,25,50S0,38.8,0,25S11.2,0,25,0"/>
	</g>
</g>
<g id="complex-icons-master_x5F_complex-icon-arrows-cross_00000155856418351084913750000009177494449860894856_">
	<g>
		<g>
			<path class="st2" d="M21.5,30.7h-6.7c-0.4,0-0.8-0.3-0.8-0.8c0-0.4,0.3-0.8,0.8-0.8h5.9l6.6-9.6h10.3c0.4,0,0.8,0.3,0.8,0.8
				c0,0.4-0.3,0.8-0.8,0.8h-9.5L21.5,30.7z"/>
			<path class="st2" d="M35.4,24.4c-0.2,0-0.4-0.1-0.5-0.2c-0.3-0.3-0.3-0.8,0-1.1l2.8-2.8l-2.7-3.1c-0.3-0.3-0.2-0.8,0.1-1.1
				c0.3-0.3,0.8-0.2,1.1,0.1l3.1,3.6c0.3,0.3,0.2,0.7,0,1l-3.3,3.3C35.8,24.4,35.6,24.4,35.4,24.4"/>
			<path class="st3" d="M37.6,30.7H27.3l-6.6-9.6h-5.9c-0.4,0-0.8-0.3-0.8-0.8c0-0.4,0.3-0.8,0.8-0.8h6.7l6.6,9.6h9.5
				c0.4,0,0.8,0.3,0.8,0.8C38.4,30.3,38,30.7,37.6,30.7"/>
			<path class="st3" d="M35.4,34c-0.2,0-0.4-0.1-0.5-0.2c-0.3-0.3-0.3-0.8,0-1.1l2.8-2.8l-2.7-3.1c-0.3-0.3-0.2-0.8,0.1-1.1
				c0.3-0.3,0.8-0.2,1.1,0.1l3.1,3.6c0.3,0.3,0.2,0.7,0,1l-3.3,3.3C35.8,34,35.6,34,35.4,34"/>
			<path class="st3" d="M13.4,20.4c0,0.4-0.3,0.8-0.8,0.8s-0.8-0.3-0.8-0.8s0.3-0.8,0.8-0.8S13.4,20,13.4,20.4"/>
			<path class="st3" d="M11.4,20.4c0,0.2-0.2,0.4-0.4,0.4s-0.4-0.2-0.4-0.4S10.8,20,11,20S11.4,20.2,11.4,20.4"/>
			<path class="st2" d="M13.4,29.9c0,0.4-0.3,0.8-0.8,0.8s-0.8-0.3-0.8-0.8c0-0.4,0.3-0.8,0.8-0.8S13.4,29.5,13.4,29.9"/>
			<path class="st2" d="M11.4,29.9c0,0.2-0.2,0.4-0.4,0.4s-0.4-0.2-0.4-0.4s0.2-0.4,0.4-0.4S11.4,29.7,11.4,29.9"/>
		</g>
	</g>
</g>
</svg>
