<svg xmlns="http://www.w3.org/2000/svg" width="50" height="50" viewBox="0 0 50 50">
  <g id="Group_8084" data-name="Group 8084" transform="translate(-278 -657)">
    <g id="Group_6761" data-name="Group 6761" transform="translate(278 657)">
      <g id="Group_6761-2" data-name="Group 6761" transform="translate(0 0)">
        <circle id="Ellipse_2968" data-name="Ellipse 2968" cx="25" cy="25" r="25" fill="#e6f5fd"/>
      </g>
    </g>
    <g id="icon-sms-api" transform="translate(288.878 666.244)">
      <g id="Group_7976" data-name="Group 7976" transform="translate(0 0)">
        <g id="Group_7975" data-name="Group 7975" transform="translate(0 0)">
          <ellipse id="Ellipse_937" data-name="Ellipse 937" cx="12.91" cy="3.06" rx="12.91" ry="3.06" transform="translate(0 26.106)" fill="#99e5d1"/>
          <g id="Group_7969" data-name="Group 7969" transform="translate(4.915 2.448)">
            <path id="Path_18225" data-name="Path 18225" d="M29.341,10.913H19.013a2.818,2.818,0,0,0-2.869,2.869V36.254a2.877,2.877,0,0,0,2.869,2.869H29.436a2.877,2.877,0,0,0,2.869-2.869V13.782a2.96,2.96,0,0,0-2.964-2.869Zm-6.12.956h1.913a.452.452,0,0,1,.478.478h0a.452.452,0,0,1-.478.478H23.22a.452.452,0,0,1-.478-.478h0a.452.452,0,0,1,.478-.478Zm1.243,25.915a1.1,1.1,0,0,1-1.434-.861.61.61,0,0,1,0-.574,1.293,1.293,0,0,1,.861-.861,1.1,1.1,0,0,1,1.434.861.61.61,0,0,1,0,.574A1.014,1.014,0,0,1,24.464,37.784Z" transform="translate(-16.144 -10.913)" fill="#019971"/>
          </g>
          <g id="Group_7970" data-name="Group 7970" transform="translate(7.031 9.276)">
            <path id="Path_18226" data-name="Path 18226" d="M19.886,18.053h0a1.51,1.51,0,0,1,1.53,1.53h0a1.51,1.51,0,0,1-1.53,1.53h0a1.51,1.51,0,0,1-1.53-1.53h0A1.51,1.51,0,0,1,19.886,18.053Z" transform="translate(-18.356 -18.053)" fill="#fff"/>
            <path id="Path_18227" data-name="Path 18227" d="M24.486,18.053h0a1.51,1.51,0,0,1,1.53,1.53h0a1.51,1.51,0,0,1-1.53,1.53h0a1.51,1.51,0,0,1-1.53-1.53h0A1.51,1.51,0,0,1,24.486,18.053Z" transform="translate(-18.557 -18.053)" fill="#fff"/>
            <path id="Path_18228" data-name="Path 18228" d="M29.086,18.053h0a1.51,1.51,0,0,1,1.53,1.53h0a1.51,1.51,0,0,1-1.53,1.53h0a1.51,1.51,0,0,1-1.53-1.53h0A1.573,1.573,0,0,1,29.086,18.053Z" transform="translate(-18.758 -18.053)" fill="#fff"/>
          </g>
          <g id="Group_7971" data-name="Group 7971" transform="translate(7.031 13.686)">
            <path id="Path_18229" data-name="Path 18229" d="M19.886,22.665h0a1.51,1.51,0,0,1,1.53,1.53h0a1.51,1.51,0,0,1-1.53,1.53h0a1.51,1.51,0,0,1-1.53-1.53h0A1.51,1.51,0,0,1,19.886,22.665Z" transform="translate(-18.356 -22.665)" fill="#fff"/>
            <path id="Path_18230" data-name="Path 18230" d="M24.486,22.665h0a1.51,1.51,0,0,1,1.53,1.53h0a1.51,1.51,0,0,1-1.53,1.53h0a1.51,1.51,0,0,1-1.53-1.53h0A1.51,1.51,0,0,1,24.486,22.665Z" transform="translate(-18.557 -22.665)" fill="#fff"/>
            <path id="Path_18231" data-name="Path 18231" d="M29.086,22.665h0a1.51,1.51,0,0,1,1.53,1.53h0a1.51,1.51,0,0,1-1.53,1.53h0a1.51,1.51,0,0,1-1.53-1.53h0A1.573,1.573,0,0,1,29.086,22.665Z" transform="translate(-18.758 -22.665)" fill="#fff"/>
          </g>
          <g id="Group_7972" data-name="Group 7972" transform="translate(7.031 18.097)">
            <path id="Path_18232" data-name="Path 18232" d="M19.886,27.278h0a1.51,1.51,0,0,1,1.53,1.53h0a1.51,1.51,0,0,1-1.53,1.53h0a1.51,1.51,0,0,1-1.53-1.53h0A1.51,1.51,0,0,1,19.886,27.278Z" transform="translate(-18.356 -27.278)" fill="#fff"/>
            <path id="Path_18233" data-name="Path 18233" d="M24.486,27.278h0a1.51,1.51,0,0,1,1.53,1.53h0a1.51,1.51,0,0,1-1.53,1.53h0a1.51,1.51,0,0,1-1.53-1.53h0A1.51,1.51,0,0,1,24.486,27.278Z" transform="translate(-18.557 -27.278)" fill="#fff"/>
            <path id="Path_18234" data-name="Path 18234" d="M29.086,27.278h0a1.51,1.51,0,0,1,1.53,1.53h0a1.51,1.51,0,0,1-1.53,1.53h0a1.51,1.51,0,0,1-1.53-1.53h0A1.573,1.573,0,0,1,29.086,27.278Z" transform="translate(-18.758 -27.278)" fill="#fff"/>
          </g>
          <g id="Group_7974" data-name="Group 7974" transform="translate(10.171)">
            <path id="Path_18235" data-name="Path 18235" d="M26.352,8.353h9.276a4.082,4.082,0,0,1,4.112,4.112h0a4.082,4.082,0,0,1-4.112,4.112H26.352a4.082,4.082,0,0,1-4.112-4.112h0A4.023,4.023,0,0,1,26.352,8.353Z" transform="translate(-21.666 -8.353)" fill="#046149"/>
            <circle id="Ellipse_938" data-name="Ellipse 938" cx="1.913" cy="1.913" r="1.913" transform="translate(0 5.929)" fill="#046149"/>
            <circle id="Ellipse_939" data-name="Ellipse 939" cx="0.765" cy="0.765" r="0.765" transform="translate(2.008 10.041)" fill="#046149"/>
            <g id="Group_7973" data-name="Group 7973" transform="translate(3.724 2.316)">
              <circle id="Ellipse_940" data-name="Ellipse 940" cx="1.913" cy="1.913" r="1.913" transform="translate(3.634)" fill="#7fdfc5"/>
              <circle id="Ellipse_941" data-name="Ellipse 941" cx="1.243" cy="1.243" r="1.243" transform="translate(0 0.669)" fill="#7fdfc5"/>
              <circle id="Ellipse_942" data-name="Ellipse 942" cx="1.243" cy="1.243" r="1.243" transform="translate(8.606 0.669)" fill="#7fdfc5"/>
            </g>
          </g>
        </g>
      </g>
    </g>
  </g>
</svg>
