<?xml version="1.0" encoding="utf-8"?>
<!-- Generator: Adobe Illustrator 26.4.1, SVG Export Plug-In . SVG Version: 6.00 Build 0)  -->
<svg version="1.1" id="Layer_1" xmlns="http://www.w3.org/2000/svg" xmlns:xlink="http://www.w3.org/1999/xlink" x="0px" y="0px"
	 viewBox="0 0 70 70" style="enable-background:new 0 0 70 70;" xml:space="preserve">
<style type="text/css">
	.st0{fill:#E6F5FD;}
	.st1{fill:#00BF8C;}
	.st2{fill:#046149;}
</style>
<g id="Group_6761" transform="translate(151.157 -0.882)">
	<g id="Group_6761-2" transform="translate(-151.157 0.882)">
		<circle id="Ellipse_2968" class="st0" cx="35" cy="35" r="35"/>
	</g>
	<g id="Group_6765" transform="translate(-128.561 9.472)">
		<g id="Group_6762" transform="translate(0 14.633)">
			<path id="Path_14870" class="st1" d="M10.9,24.1c-0.2,0-0.4-0.1-0.5-0.3c-0.1-0.1-0.2-0.3-0.1-0.5l0,0c0-0.4,0.4-0.7,0.8-0.6
				c0,0,0,0,0,0l0,0c0.2,0,0.4,0.1,0.5,0.3c0.1,0.1,0.2,0.3,0.1,0.5l0,0C11.7,23.8,11.4,24.1,10.9,24.1L10.9,24.1
				C11,24.1,11,24.1,10.9,24.1L10.9,24.1z M13.1,23.4c0-0.2,0-0.4,0.1-0.5c0.1-0.1,0.3-0.2,0.5-0.3v0c0.2,0,0.4,0,0.5,0.2
				c0.1,0.1,0.2,0.3,0.3,0.5l0,0c0,0.4-0.2,0.7-0.6,0.8h-0.1C13.5,24.1,13.2,23.8,13.1,23.4L13.1,23.4z M8.1,23.4L8.1,23.4
				c-0.4-0.1-0.6-0.5-0.4-0.9c0,0,0,0,0,0l0,0c0.1-0.4,0.5-0.6,0.9-0.4l0,0C8.9,22.2,9.1,22.6,9,23c0,0,0,0,0,0l0,0
				c-0.1,0.3-0.4,0.5-0.7,0.5l0,0C8.2,23.4,8.1,23.4,8.1,23.4L8.1,23.4z M15.9,23c-0.1-0.4,0.1-0.8,0.4-0.9l0,0
				c0.4-0.1,0.8,0.1,0.9,0.4c0,0,0,0,0,0l0,0c0.1,0.2,0.1,0.4,0,0.5c-0.1,0.2-0.2,0.3-0.4,0.4l0,0c-0.1,0-0.2,0-0.2,0l0,0
				C16.2,23.4,16,23.2,15.9,23L15.9,23z M5.4,22.1L5.4,22.1c-0.2-0.1-0.3-0.3-0.3-0.4c0-0.2,0-0.4,0.1-0.5l0,0
				c0.1-0.2,0.3-0.3,0.4-0.3c0.2,0,0.4,0,0.5,0.1l0,0c0.3,0.2,0.4,0.6,0.2,1c0,0,0,0,0,0l0,0c-0.1,0.2-0.4,0.3-0.6,0.3l0,0
				C5.7,22.2,5.6,22.1,5.4,22.1L5.4,22.1z M18.4,21.8c-0.2-0.3-0.1-0.8,0.2-1l0,0c0.2-0.1,0.3-0.1,0.5-0.1c0.2,0,0.3,0.1,0.4,0.3
				l0,0c0.1,0.2,0.1,0.3,0.1,0.5c0,0.2-0.1,0.3-0.3,0.4l0,0c-0.1,0.1-0.2,0.1-0.4,0.1l0,0C18.8,22.2,18.5,22,18.4,21.8L18.4,21.8z
				 M3.2,20.1L3.2,20.1c-0.3-0.3-0.2-0.7,0-1l0,0c0.3-0.3,0.7-0.3,1,0c0,0,0,0,0,0l0,0c0.3,0.3,0.2,0.7,0,1l0,0
				c-0.1,0.1-0.3,0.2-0.5,0.2l0,0C3.5,20.4,3.3,20.3,3.2,20.1L3.2,20.1z M20.6,20.2c-0.3-0.3-0.3-0.7,0-1c0,0,0,0,0,0l0,0
				c0.3-0.3,0.7-0.3,1,0l0,0c0.3,0.3,0.3,0.7,0,1l0,0c-0.1,0.1-0.3,0.2-0.5,0.2l0,0C20.9,20.3,20.8,20.3,20.6,20.2L20.6,20.2z
				 M1.5,17.7L1.5,17.7c-0.1-0.2-0.1-0.4-0.1-0.5c0.1-0.2,0.2-0.3,0.3-0.4l0,0c0.2-0.1,0.4-0.1,0.5-0.1c0.2,0.1,0.3,0.2,0.4,0.3l0,0
				c0.2,0.3,0.1,0.8-0.3,1c0,0,0,0,0,0l0,0c-0.1,0.1-0.2,0.1-0.3,0.1l0,0C1.8,18.1,1.6,18,1.5,17.7L1.5,17.7z M22.4,18
				c-0.2-0.1-0.3-0.2-0.3-0.4c-0.1-0.2,0-0.4,0.1-0.5l0,0c0.1-0.2,0.2-0.3,0.4-0.3c0.2-0.1,0.4,0,0.5,0.1l0,0c0.3,0.2,0.5,0.6,0.3,1
				l0,0c-0.1,0.2-0.4,0.4-0.6,0.4l0,0C22.6,18.1,22.5,18.1,22.4,18L22.4,18z M0.4,15L0.4,15c-0.1-0.4,0.1-0.8,0.5-0.9c0,0,0,0,0,0
				l0,0c0.4-0.1,0.8,0.1,0.9,0.5l0,0c0.1,0.4-0.1,0.8-0.5,0.9l0,0c-0.1,0-0.1,0-0.2,0l0,0C0.7,15.5,0.5,15.3,0.4,15L0.4,15z
				 M23.6,15.5c-0.4-0.1-0.6-0.5-0.5-0.9l0,0c0-0.2,0.2-0.3,0.3-0.4c0.2-0.1,0.4-0.1,0.5-0.1l0,0c0.2,0,0.3,0.2,0.4,0.3
				c0.1,0.2,0.1,0.4,0.1,0.5l0,0c-0.1,0.3-0.4,0.5-0.7,0.5l0,0C23.7,15.5,23.6,15.5,23.6,15.5L23.6,15.5z M0,12.1
				c0-0.2,0.1-0.4,0.2-0.5c0.1-0.1,0.3-0.2,0.5-0.2l0,0c0.2,0,0.4,0.1,0.5,0.2c0.1,0.1,0.2,0.3,0.2,0.5h0c0,0.2-0.1,0.4-0.2,0.5
				c-0.1,0.1-0.3,0.2-0.5,0.2l0,0C0.3,12.8,0,12.4,0,12.1L0,12.1z M23.4,12L23.4,12L23.4,12L23.4,12L23.4,12c0-0.4,0.3-0.7,0.7-0.7
				c0,0,0,0,0,0l0,0c0.2,0,0.4,0.1,0.5,0.2c0.1,0.1,0.2,0.3,0.2,0.5l0,0v0l0,0v0l0,0c0,0.4-0.3,0.7-0.7,0.7c0,0,0,0,0,0l0,0
				c-0.2,0-0.4-0.1-0.5-0.2C23.5,12.4,23.4,12.2,23.4,12L23.4,12z M0.9,10C0.5,9.9,0.3,9.5,0.4,9.1h0c0-0.2,0.2-0.3,0.3-0.4
				C0.8,8.6,1,8.6,1.2,8.6l0,0c0.4,0.1,0.6,0.5,0.5,0.8c0,0,0,0,0,0l0,0C1.6,9.8,1.4,10,1,10l0,0C1,10,0.9,10,0.9,10L0.9,10z
				 M23.1,9.4c0-0.2,0-0.4,0.1-0.5c0.1-0.2,0.2-0.3,0.4-0.3l0,0c0.2,0,0.4,0,0.5,0.1c0.2,0.1,0.3,0.2,0.3,0.4l0,0
				c0,0.2,0,0.4-0.1,0.5c-0.1,0.2-0.2,0.3-0.4,0.3l0,0c-0.1,0-0.1,0-0.2,0l0,0C23.4,9.9,23.2,9.7,23.1,9.4L23.1,9.4z M1.7,7.3
				C1.6,7.2,1.4,7.1,1.4,6.9c-0.1-0.2,0-0.4,0.1-0.5l0,0C1.5,6.2,1.7,6.1,1.9,6C2,6,2.2,6,2.4,6.1l0,0c0.3,0.2,0.5,0.6,0.3,1l0,0
				C2.5,7.3,2.3,7.4,2.1,7.4l0,0C1.9,7.4,1.8,7.4,1.7,7.3L1.7,7.3z M22.1,7C22,6.8,22,6.6,22,6.4c0.1-0.2,0.2-0.3,0.3-0.4l0,0
				c0.2-0.1,0.4-0.1,0.5-0.1c0.2,0.1,0.3,0.2,0.4,0.3l0,0c0.1,0.2,0.1,0.4,0.1,0.5c-0.1,0.2-0.2,0.3-0.3,0.4l0,0
				c-0.1,0.1-0.2,0.1-0.3,0.1l0,0C22.5,7.3,22.2,7.2,22.1,7L22.1,7z M3.2,4.9C3.1,4.8,3,4.6,3,4.5C3,4.3,3,4.1,3.2,3.9l0,0
				c0.3-0.3,0.7-0.3,1,0l0,0C4.3,4,4.4,4.2,4.4,4.4c0,0.2-0.1,0.4-0.2,0.5l0,0C4,5,3.9,5.1,3.7,5.1l0,0C3.5,5.1,3.3,5.1,3.2,4.9
				L3.2,4.9z M20.6,4.9L20.6,4.9c-0.1-0.1-0.2-0.3-0.2-0.5c0-0.2,0.1-0.4,0.2-0.5l0,0c0.3-0.3,0.7-0.2,1,0l0,0c0.3,0.3,0.2,0.7,0,1
				l0,0c-0.1,0.1-0.3,0.2-0.5,0.2l0,0C20.9,5.1,20.7,5,20.6,4.9L20.6,4.9z M5.2,3C5.1,2.9,5.1,2.7,5.1,2.5c0-0.2,0.1-0.3,0.3-0.4
				l0,0c0.2-0.1,0.3-0.1,0.5-0.1c0.2,0,0.3,0.1,0.4,0.3l0,0c0.2,0.3,0.1,0.8-0.2,1l0,0C6.1,3.3,5.9,3.3,5.8,3.3l0,0
				C5.5,3.3,5.3,3.2,5.2,3L5.2,3z M18.6,3.2c-0.3-0.2-0.4-0.6-0.2-1l0,0c0.1-0.2,0.3-0.3,0.4-0.3c0.2,0,0.4,0,0.5,0.1l0,0v0l0,0
				c0.3,0.2,0.4,0.6,0.2,1l0,0c-0.1,0.2-0.4,0.3-0.6,0.3l0,0C18.8,3.3,18.7,3.2,18.6,3.2L18.6,3.2z M7.6,1.6c-0.1-0.2-0.1-0.4,0-0.5
				C7.7,0.9,7.9,0.8,8,0.7l0,0c0.4-0.1,0.8,0.1,0.9,0.4c0,0,0,0,0,0l0,0C9.1,1.5,8.9,1.9,8.5,2v0c-0.1,0-0.2,0-0.2,0l0,0
				C8,2.1,7.7,1.9,7.6,1.6L7.6,1.6z M16.2,2c-0.2-0.1-0.3-0.2-0.4-0.4c-0.1-0.2-0.1-0.4,0-0.5l0,0c0.1-0.4,0.5-0.6,0.9-0.4l0,0
				C16.9,0.7,17,0.9,17.1,1c0.1,0.2,0.1,0.4,0,0.5l0,0C17,1.8,16.8,2,16.5,2l0,0C16.4,2,16.3,2,16.2,2L16.2,2z M10.3,0.8
				c0-0.2,0-0.4,0.1-0.5C10.5,0.1,10.7,0,10.9,0l0,0c0.4,0,0.7,0.2,0.8,0.6c0,0,0,0,0,0l0,0c0,0.2,0,0.4-0.1,0.5
				c-0.1,0.1-0.3,0.2-0.5,0.3l0,0c0,0-0.1,0-0.1,0l0,0C10.6,1.4,10.3,1.1,10.3,0.8L10.3,0.8z M13.7,1.4c-0.2,0-0.4-0.1-0.5-0.3
				C13.1,1,13,0.8,13.1,0.6l0,0c0-0.2,0.1-0.4,0.3-0.5C13.5,0,13.6,0,13.8,0l0,0c0.4,0,0.7,0.4,0.6,0.8l0,0
				C14.4,1.1,14.1,1.4,13.7,1.4L13.7,1.4C13.7,1.4,13.7,1.4,13.7,1.4L13.7,1.4z"/>
		</g>
		<circle id="Ellipse_2969" class="st1" cx="12.5" cy="12.1" r="12.1"/>
		<circle id="Ellipse_2970" class="st1" cx="12.5" cy="40.7" r="12.1"/>
		<g id="Group_6763" transform="translate(8.953 7.228)">
			<path id="Path_14871" class="st2" d="M3.6,0C2.8,0,2.1,0.3,1.7,0.9c-0.4,0.6-0.6,1.3-0.6,2v0.4h1.1V2.8c0-0.5,0.1-0.9,0.4-1.3
				C2.8,1.2,3.2,1,3.6,1.1C4,1,4.4,1.2,4.6,1.5C4.9,1.9,5,2.4,5,2.8v0.4h1.1V2.8c0-0.7-0.2-1.4-0.6-2C5,0.3,4.3,0,3.6,0L3.6,0z
				 M1.1,3.6C0.5,3.6,0,4.1,0,4.7v3.6c0,0.6,0.5,1.1,1.1,1.1h5c0.6,0,1.1-0.5,1.1-1.1V4.7c0-0.6-0.5-1.1-1.1-1.1L1.1,3.6z M3.6,5.4
				c0.4,0,0.7,0.3,0.7,0.7c0,0,0,0,0,0c0,0.3-0.1,0.5-0.4,0.6v0.8c0,0.2-0.2,0.4-0.4,0.4c-0.2,0-0.4-0.2-0.4-0.4l0,0V6.7
				C3,6.6,2.9,6.3,2.9,6.1c0-0.2,0.1-0.4,0.2-0.5C3.2,5.4,3.4,5.4,3.6,5.4L3.6,5.4z"/>
		</g>
		<g id="Group_6764" transform="translate(8.953 36.022)">
			<path id="Path_14872" class="st2" d="M3.6,0C2.8,0,2.1,0.3,1.7,0.9c-0.4,0.5,0.6,1,0.8,0.7C2.8,1.2,3.2,1,3.6,1.1
				C4,1,4.4,1.2,4.6,1.5C4.9,1.9,5,2.4,5,2.8v0.4h1.1V2.8c0-0.7-0.2-1.4-0.6-2C5,0.3,4.3,0,3.6,0L3.6,0z M1.1,3.6
				C0.5,3.6,0,4.1,0,4.7v3.6c0,0.6,0.5,1.1,1.1,1.1h5c0.6,0,1.1-0.5,1.1-1.1V4.7c0-0.6-0.5-1.1-1.1-1.1L1.1,3.6z M3.6,5.4
				c0.4,0,0.7,0.3,0.7,0.7v0c0,0.3-0.1,0.5-0.4,0.6v0.8c0,0.2-0.2,0.4-0.4,0.4c-0.2,0-0.4-0.2-0.4-0.4l0,0V6.7
				C3,6.6,2.9,6.3,2.9,6.1c0-0.2,0.1-0.4,0.2-0.5C3.2,5.4,3.4,5.4,3.6,5.4L3.6,5.4z"/>
		</g>
	</g>
</g>
</svg>
