<?xml version="1.0" encoding="utf-8"?>
<!-- Generator: Adobe Illustrator 26.4.1, SVG Export Plug-In . SVG Version: 6.00 Build 0)  -->
<svg version="1.1" id="Group_7939" xmlns="http://www.w3.org/2000/svg" xmlns:xlink="http://www.w3.org/1999/xlink" x="0px" y="0px"
	 viewBox="0 0 50 50" style="enable-background:new 0 0 50 50;" xml:space="preserve">
<g id="icon-number-lookup-api_00000005971682337775768160000002614750747003905981_">
	<g>
		<g>
			<path fill="#E6F5FD" d="M25,0c13.8,0,25,11.2,25,25S38.8,50,25,50S0,38.8,0,25S11.2,0,25,0"/>
			<path fill="#9A59C5" d="M28.5,28.9h-7.7c-1.4,0-2.6-1.1-2.6-2.6c0-1.4,1.1-2.6,2.6-2.6v-0.2c0-1.9,1.5-3.4,3.4-3.4
				c1.5,0,2.8,1,3.2,2.4c0.4-0.1,0.7-0.2,1.1-0.2c1.8,0,3.2,1.4,3.2,3.2C31.7,27.5,30.3,28.9,28.5,28.9"/>
			<path fill="#9A59C5" d="M24,11.6V6.9h-1V5.8c0.7,0,1.1-0.2,1.2-0.7h1.1v6.5H24z"/>
			<path fill="#9A59C5" d="M14.8,15.1c-0.3,0-0.7-0.1-1-0.2c-0.3-0.1-0.5-0.3-0.7-0.5s-0.3-0.5-0.4-0.8c-0.1-0.3-0.2-0.6-0.2-0.9
				c0-0.3-0.1-0.6-0.1-1s0-0.8,0.1-1.2s0.2-0.7,0.4-1.1c0.2-0.3,0.4-0.6,0.8-0.8c0.4-0.2,0.8-0.3,1.2-0.3s0.8,0.1,1.2,0.3
				c0.3,0.2,0.6,0.5,0.8,0.8c0.2,0.3,0.3,0.7,0.4,1.1c0.1,0.4,0.1,0.8,0.1,1.2s0,0.8-0.1,1.2s-0.2,0.7-0.4,1.1
				c-0.2,0.3-0.4,0.6-0.8,0.8C15.6,15,15.2,15.1,14.8,15.1 M14.8,13.8c0.4,0,0.7-0.2,0.8-0.6c0.2-0.5,0.3-0.9,0.2-1.4
				c0-0.3,0-0.7-0.1-1c0-0.3-0.2-0.5-0.3-0.7S15,9.8,14.8,9.8c-0.4,0-0.7,0.2-0.8,0.6c-0.2,0.5-0.3,1-0.2,1.4c0,0.3,0,0.7,0.1,1
				s0.2,0.5,0.3,0.7S14.5,13.8,14.8,13.8"/>
			<path fill="#9A59C5" d="M6.8,23.7v-1.3c1,0.1,1.9-0.5,2.2-1.5c-0.3,0.2-0.6,0.3-1,0.3c-0.6,0-1.2-0.2-1.6-0.6s-0.6-1-0.6-1.5
				c0-0.6,0.2-1.1,0.7-1.5S7.6,17,8.2,17c0.7-0.1,1.3,0.2,1.8,0.7c0.4,0.5,0.6,1.2,0.6,1.8c0.1,1.1-0.3,2.2-1,3
				C8.9,23.4,7.9,23.8,6.8,23.7 M8.2,19.9c0.2,0,0.5-0.1,0.7-0.2s0.3-0.4,0.2-0.6c0-0.2-0.1-0.4-0.3-0.6s-0.4-0.2-0.7-0.2
				s-0.5,0.1-0.7,0.2s-0.3,0.4-0.3,0.6s0.1,0.5,0.3,0.6S7.9,19.9,8.2,19.9"/>
			<path fill="#9A59C5" d="M41.7,23.8c-0.5,0-1-0.1-1.5-0.4c-0.4-0.3-0.7-0.7-0.9-1.1l1.3-0.5c0.2,0.4,0.6,0.7,1.1,0.7
				c0.2,0,0.4-0.1,0.6-0.2c0.1-0.1,0.2-0.3,0.2-0.5s-0.1-0.3-0.2-0.5c-0.2-0.1-0.4-0.2-0.6-0.2H41v-1.3h0.7c0.2,0,0.4-0.1,0.5-0.2
				s0.2-0.3,0.2-0.5s-0.1-0.3-0.2-0.5c-0.1-0.1-0.3-0.2-0.5-0.2c-0.3,0-0.7,0.2-0.8,0.5l-1.2-0.5c0.2-0.4,0.5-0.7,0.8-1
				c0.4-0.2,0.8-0.4,1.2-0.4c0.5,0,1.1,0.2,1.5,0.5s0.6,0.8,0.6,1.3c0,0.6-0.3,1.1-0.8,1.4c0.3,0.1,0.5,0.3,0.7,0.6s0.3,0.6,0.3,1
				c0,0.5-0.2,1-0.6,1.3C42.8,23.7,42.3,23.8,41.7,23.8"/>
			<path fill="#9A59C5" d="M33.3,15.2c0-0.6,0.1-1.1,0.3-1.7c0.2-0.4,0.4-0.8,0.8-1.2c0.3-0.3,0.7-0.6,1.1-0.8c0.2-0.1,0.4-0.3,0.6-0.4
				c0.1-0.1,0.2-0.3,0.2-0.5c0-0.4-0.2-0.6-0.7-0.6c-0.4,0-0.8,0.2-1,0.6L33.3,10c0.2-0.4,0.5-0.8,0.9-1s0.8-0.4,1.3-0.4
				c0.6,0,1.1,0.2,1.5,0.5c0.4,0.4,0.6,0.9,0.6,1.4c0,0.4-0.1,0.9-0.3,1.2c-0.3,0.3-0.6,0.6-1,0.8c-0.3,0.2-0.7,0.4-1,0.7
				c-0.2,0.2-0.3,0.4-0.5,0.6h2.8v1.3L33.3,15.2z"/>
			<path fill="#9A59C5" d="M24.8,46.1c-0.7,0-1.3-0.2-1.8-0.7c-0.4-0.5-0.7-1.1-0.6-1.8c0-1,0.3-2,1-2.8c0.8-0.8,1.8-1.3,3-1.4v1.3
				c-0.5,0.1-0.9,0.2-1.4,0.4c-0.4,0.2-0.7,0.5-0.9,0.9c0.3-0.2,0.6-0.2,0.9-0.2c0.6,0,1.1,0.2,1.6,0.6c0.4,0.4,0.6,1,0.6,1.5
				c0,0.6-0.2,1.1-0.7,1.5C26,45.9,25.4,46.1,24.8,46.1 M24.8,44.8c0.2,0,0.5-0.1,0.7-0.2c0.2-0.1,0.3-0.3,0.3-0.6
				c0-0.2-0.1-0.4-0.3-0.6c-0.2-0.2-0.4-0.2-0.7-0.2s-0.5,0.1-0.7,0.2c-0.2,0.1-0.3,0.3-0.3,0.6c0,0.2,0.1,0.4,0.3,0.6
				C24.3,44.7,24.5,44.8,24.8,44.8"/>
			<path fill="#9A59C5" d="M35.3,42.7c-0.7,0-1.4-0.2-2-0.6L34,41c0.4,0.3,0.8,0.4,1.3,0.4c0.3,0,0.6-0.1,0.8-0.2
				c0.2-0.2,0.3-0.4,0.3-0.7c0-0.2-0.1-0.4-0.2-0.6c-0.1-0.2-0.4-0.2-0.6-0.2c-0.4,0-0.7,0.2-1,0.5l-1.2-0.6l0.1-3.3h3.8v1.3h-2.5
				v0.9c0.3-0.1,0.5-0.1,0.8-0.1c0.6,0,1.2,0.2,1.6,0.6c0.4,0.4,0.6,1,0.6,1.6s-0.2,1.2-0.7,1.7C36.6,42.5,35.9,42.7,35.3,42.7"/>
			<path fill="#9A59C5" d="M42.1,34v-1.2h-3.3v-0.9l3.3-4.4h1.4v4h0.8v1.3h-0.8V34H42.1z M42.1,31.5v-2l-1.5,2H42.1z"/>
			<path fill="#9A59C5" d="M8.2,33.9c-0.6,0-1.3-0.2-1.7-0.6c-0.4-0.4-0.7-0.9-0.6-1.5c0-0.7,0.4-1.3,1.1-1.6c-0.2-0.1-0.4-0.3-0.6-0.5
				s-0.3-0.5-0.2-0.8c0-0.5,0.2-0.9,0.6-1.3c0.5-0.3,1-0.5,1.6-0.5s1.1,0.1,1.6,0.5c0.4,0.3,0.6,0.8,0.6,1.3c0,0.3-0.1,0.6-0.2,0.8
				s-0.3,0.4-0.6,0.5c0.3,0.1,0.6,0.4,0.8,0.6c0.2,0.3,0.3,0.6,0.3,0.9c0,0.6-0.2,1.1-0.6,1.5C9.5,33.8,8.9,34,8.2,33.9 M8.2,29.7
				c0.2,0,0.4-0.1,0.5-0.2s0.2-0.3,0.2-0.5s-0.1-0.3-0.2-0.4c-0.2-0.1-0.3-0.2-0.5-0.2s-0.4,0-0.5,0.2c-0.1,0.1-0.2,0.3-0.2,0.4
				c0,0.2,0.1,0.3,0.2,0.5C7.8,29.6,8,29.7,8.2,29.7 M8.2,32.7c0.3,0,0.5-0.1,0.7-0.2c0.3-0.3,0.4-0.8,0.1-1.2l-0.1-0.1
				C8.7,31,8.4,31,8.2,31c-0.3,0-0.5,0.1-0.7,0.2c-0.3,0.3-0.4,0.8-0.1,1.2l0.1,0.1C7.7,32.6,8,32.7,8.2,32.7"/>
			<path fill="#9A59C5" d="M13.7,42.5c0-0.9,0.1-1.9,0.4-2.8c0.3-0.8,0.7-1.6,1.2-2.3h-2.8v-1.3H17v1.1c-0.6,0.7-1.1,1.6-1.4,2.6
				c-0.3,0.9-0.5,1.8-0.5,2.8L13.7,42.5L13.7,42.5z"/>
			<path fill="#652B51" d="M18.8,16c0.4,0,0.8,0.4,0.8,0.8s-0.4,0.8-0.8,0.8S18,17.2,18,16.8C18,16.4,18.4,16,18.8,16"/>
			<path fill="#652B51" d="M20.7,18.9c0.2,0,0.4,0.2,0.4,0.4c0,0.2-0.2,0.4-0.4,0.4s-0.4-0.2-0.4-0.4C20.3,19.1,20.5,18.9,20.7,18.9"/>
			<path fill="#652B51" d="M31.9,16c0.4,0,0.8,0.4,0.8,0.8s-0.4,0.8-0.8,0.8s-0.8-0.4-0.8-0.8C31.1,16.4,31.5,16,31.9,16"/>
			<path fill="#652B51" d="M29.9,18.9c0.2,0,0.4,0.2,0.4,0.4c0,0.2-0.2,0.4-0.4,0.4s-0.4-0.2-0.4-0.4S29.7,18.9,29.9,18.9"/>
			<path fill="#652B51" d="M18.8,33.1c0.4,0,0.8,0.4,0.8,0.8c0,0.4-0.4,0.8-0.8,0.8S18,34.3,18,33.9C18,33.5,18.4,33.1,18.8,33.1"/>
			<path fill="#652B51" d="M20.7,31c0.2,0,0.4,0.2,0.4,0.4c0,0.2-0.2,0.4-0.4,0.4s-0.4-0.2-0.4-0.4C20.3,31.2,20.5,31,20.7,31"/>
			<path fill="#652B51" d="M31.9,33.1c0.4,0,0.8,0.4,0.8,0.8c0,0.4-0.4,0.8-0.8,0.8s-0.8-0.4-0.8-0.8C31.1,33.5,31.5,33.1,31.9,33.1"/>
			<path fill="#652B51" d="M29.9,31c0.2,0,0.4,0.2,0.4,0.4c0,0.2-0.2,0.4-0.4,0.4s-0.4-0.2-0.4-0.4S29.7,31,29.9,31"/>
			<path fill="#652B51" d="M36.7,21.2c0.4,0,0.8,0.4,0.8,0.8s-0.4,0.8-0.8,0.8s-0.8-0.4-0.8-0.8S36.3,21.2,36.7,21.2"/>
			<path fill="#652B51" d="M33.7,22.8c0.2,0,0.4,0.2,0.4,0.4c0,0.2-0.2,0.4-0.4,0.4s-0.4-0.2-0.4-0.4S33.5,22.8,33.7,22.8"/>
			<path fill="#652B51" d="M36.7,28.3c0.4,0,0.8,0.4,0.8,0.8s-0.4,0.8-0.8,0.8s-0.8-0.4-0.8-0.8C35.9,28.7,36.3,28.3,36.7,28.3"/>
			<path fill="#652B51" d="M33.7,27.6c0.2,0,0.4,0.2,0.4,0.4c0,0.2-0.2,0.4-0.4,0.4s-0.4-0.2-0.4-0.4C33.3,27.8,33.5,27.6,33.7,27.6"/>
			<path fill="#652B51" d="M13.3,21.2c0.4,0,0.8,0.4,0.8,0.8s-0.4,0.8-0.8,0.8s-0.8-0.4-0.8-0.8S12.9,21.2,13.3,21.2"/>
			<path fill="#652B51" d="M16.3,22.8c0.2,0,0.4,0.2,0.4,0.4c0,0.2-0.2,0.4-0.4,0.4s-0.4-0.2-0.4-0.4S16.1,22.8,16.3,22.8"/>
			<path fill="#652B51" d="M13.3,28.3c0.4,0,0.8,0.4,0.8,0.8s-0.4,0.8-0.8,0.8s-0.8-0.4-0.8-0.8C12.5,28.7,12.9,28.3,13.3,28.3"/>
			<path fill="#652B51" d="M16.3,27.6c0.2,0,0.4,0.2,0.4,0.4c0,0.2-0.2,0.4-0.4,0.4s-0.4-0.2-0.4-0.4C15.9,27.8,16.1,27.6,16.3,27.6"/>
			<path fill="#652B51" d="M25.2,14.2c0.4,0,0.8,0.4,0.8,0.8c0,0.4-0.4,0.8-0.8,0.8s-0.8-0.4-0.8-0.8C24.4,14.6,24.8,14.2,25.2,14.2"/>
			<path fill="#652B51" d="M25.2,17.7c0.2,0,0.4,0.2,0.4,0.4c0,0.2-0.2,0.4-0.4,0.4s-0.4-0.2-0.4-0.4C24.8,17.9,25,17.7,25.2,17.7"/>
			<path fill="#652B51" d="M25.2,35c0.4,0,0.8,0.4,0.8,0.8c0,0.4-0.4,0.8-0.8,0.8s-0.8-0.4-0.8-0.8C24.4,35.4,24.8,35,25.2,35"/>
			<path fill="#652B51" d="M25.2,32.3c0.2,0,0.4,0.2,0.4,0.4s-0.2,0.4-0.4,0.4s-0.4-0.2-0.4-0.4C24.8,32.5,25,32.3,25.2,32.3"/>
		</g>
	</g>
</g>
</svg>
