<?xml version="1.0" encoding="utf-8"?>
<!-- Generator: Adobe Illustrator 26.4.1, SVG Export Plug-In . SVG Version: 6.00 Build 0)  -->
<svg version="1.1" id="Layer_1" xmlns="http://www.w3.org/2000/svg" xmlns:xlink="http://www.w3.org/1999/xlink" x="0px" y="0px"
	 viewBox="0 0 50 50" style="enable-background:new 0 0 50 50;" xml:space="preserve">
<g id="Group_8089" transform="translate(-625 -447)">
	<g id="Group_6761" transform="translate(625 447)">
		<g id="Group_6761-2" transform="translate(0 0)">
			<circle id="Ellipse_2968" fill="#E6F5FD" cx="25" cy="25" r="25"/>
		</g>
	</g>
	<g id="icon-voip-origination" transform="translate(633.853 457.741)">
		<g id="Group_6633" transform="translate(0 0)">
			<g id="Isolation_Mode" transform="translate(0 0)">
				<g id="Group_6631" transform="translate(13.332 8.282)">
					<path id="Path_14590" fill="#512E65" d="M0,3.4c0-0.5,0.4-0.9,0.8-0.9s0.9,0.4,0.9,0.8c0,0,0,0,0,0.1l0,0v2.1l5.2-5.3
						c0.3-0.3,0.8-0.3,1.1,0c0.3,0.3,0.3,0.8,0,1.1L2.8,6.6h2.1c0.4,0,0.8,0.4,0.8,0.8c0,0,0,0,0,0.1c0,0.5-0.4,0.9-0.8,0.9
						c0,0,0,0,0,0h-4C0.4,8.3,0,8,0,7.5c0,0,0,0,0,0L0,3.4L0,3.4z"/>
				</g>
				<g id="surface1" transform="translate(0 4.773)">
					<path id="Path_14591" fill="#9A59C5" d="M21.1,17.9c-1.5-1.3-3.1-2.1-4.6-0.8l-0.9,0.8c-0.7,0.6-1.9,3.3-6.6-2.2S6.9,9.3,7.6,8.6
						l0.9-0.8c1.5-1.3,0.9-3-0.2-4.7l-0.7-1C6.6,0.4,5.4-0.7,3.9,0.6L3.1,1.4c-1.7,1.2-2.8,3-3,5.1c-0.6,3.6,1.1,7.8,5.1,12.4
						s7.8,6.9,11.5,6.9c2,0,4-0.8,5.4-2.3l0.9-0.8c1.5-1.3,0.6-2.7-0.9-4L21.1,17.9z"/>
				</g>
				<g id="Group_6632" transform="translate(7.839)">
					<ellipse id="Ellipse_2447" fill="#9A59C5" cx="0.5" cy="2.9" rx="0.5" ry="0.5"/>
					<path id="Path_14592" fill="#9A59C5" d="M2.2,2.3c-0.3,0-0.5-0.2-0.5-0.5c0-0.3,0.2-0.5,0.5-0.5c0.3,0,0.5,0.2,0.5,0.5
						c0,0,0,0,0,0l0,0C2.6,2.1,2.4,2.3,2.2,2.3z"/>
					<ellipse id="Ellipse_2448" fill="#9A59C5" cx="3.9" cy="1.1" rx="0.5" ry="0.5"/>
					<ellipse id="Ellipse_2449" fill="#9A59C5" cx="5.8" cy="0.7" rx="0.4" ry="0.4"/>
					<path id="Path_14593" fill="#9A59C5" d="M7.7,0.8c-0.2,0-0.4-0.2-0.4-0.4S7.5,0,7.7,0c0.2,0,0.4,0.2,0.4,0.4c0,0,0,0,0,0l0,0
						C8.1,0.6,7.9,0.7,7.7,0.8C7.7,0.8,7.7,0.8,7.7,0.8z"/>
					<ellipse id="Ellipse_2450" fill="#9A59C5" cx="9.6" cy="0.4" rx="0.4" ry="0.4"/>
					<ellipse id="Ellipse_2451" fill="#9A59C5" cx="11.5" cy="0.7" rx="0.4" ry="0.4"/>
					<ellipse id="Ellipse_2452" fill="#9A59C5" cx="13.4" cy="1.2" rx="0.4" ry="0.4"/>
					<ellipse id="Ellipse_2453" fill="#9A59C5" cx="15.1" cy="2" rx="0.3" ry="0.3"/>
					<path id="Path_14594" fill="#9A59C5" d="M16.8,3.3c-0.2,0-0.3-0.1-0.3-0.3c0-0.2,0.1-0.3,0.3-0.3c0.2,0,0.3,0.1,0.3,0.3
						c0,0,0,0,0,0C17.1,3.2,17,3.3,16.8,3.3C16.8,3.4,16.8,3.4,16.8,3.3z"/>
					<ellipse id="Ellipse_2454" fill="#9A59C5" cx="18.2" cy="4.3" rx="0.3" ry="0.3"/>
					<ellipse id="Ellipse_2455" fill="#9A59C5" cx="19.5" cy="5.7" rx="0.3" ry="0.3"/>
					<path id="Path_14595" fill="#9A59C5" d="M20.7,7.6c-0.2,0-0.3-0.1-0.3-0.3c0-0.2,0.1-0.3,0.3-0.3C20.8,7,21,7.1,21,7.3
						c0,0,0,0,0,0l0,0C20.9,7.5,20.8,7.6,20.7,7.6z"/>
					<path id="Path_14596" fill="#9A59C5" d="M21.5,9.3c-0.1,0-0.2-0.1-0.2-0.2c0-0.1,0.1-0.2,0.2-0.2s0.2,0.1,0.2,0.2c0,0,0,0,0,0
						C21.7,9.2,21.6,9.3,21.5,9.3z"/>
					<path id="Path_14597" fill="#9A59C5" d="M22.1,11.1c-0.1,0-0.2-0.1-0.2-0.2c0-0.1,0.1-0.2,0.2-0.2s0.2,0.1,0.2,0.2c0,0,0,0,0,0
						C22.3,11,22.2,11.1,22.1,11.1z"/>
					<ellipse id="Ellipse_2456" fill="#9A59C5" cx="22.5" cy="12.8" rx="0.2" ry="0.2"/>
					<path id="Path_14598" fill="#9A59C5" d="M22.5,14.9c-0.1,0-0.2-0.1-0.2-0.2c0-0.1,0.1-0.2,0.2-0.2s0.2,0.1,0.2,0.2c0,0,0,0,0,0
						C22.7,14.8,22.6,14.9,22.5,14.9z"/>
					<path id="Path_14599" fill="#9A59C5" d="M22.3,16.8c-0.1,0-0.2-0.1-0.2-0.2c0-0.1,0.1-0.2,0.2-0.2s0.2,0.1,0.2,0.2c0,0,0,0,0,0
						C22.5,16.7,22.4,16.8,22.3,16.8z"/>
					<ellipse id="Ellipse_2457" fill="#9A59C5" cx="21.8" cy="18.6" rx="0.1" ry="0.1"/>
					<path id="Path_14600" fill="#9A59C5" d="M21.1,20.5c-0.1,0-0.1-0.1-0.1-0.1c0,0,0-0.1,0.1-0.1V20.5L21.1,20.5
						C21.2,20.4,21.1,20.5,21.1,20.5C21.1,20.5,21.1,20.5,21.1,20.5z"/>
					<path id="Path_14601" fill="#9A59C5" d="M20,22.1L20,22.1c-0.1-0.2-0.1-0.2,0-0.2S20.1,21.9,20,22.1z"/>
					<path id="Path_14602" fill="#9A59C5" d="M18.9,23.6C18.8,23.6,18.8,23.5,18.9,23.6c-0.1-0.1-0.1-0.1,0-0.2c0,0,0,0,0,0V23.6z"/>
				</g>
			</g>
		</g>
	</g>
</g>
</svg>
