<?xml version="1.0" encoding="UTF-8"?>
<svg id="Layer_1" data-name="Layer 1" xmlns="http://www.w3.org/2000/svg" xmlns:xlink="http://www.w3.org/1999/xlink" viewBox="0 0 50 50">
  <defs>
    <style>
      .cls-1 {
        fill: none;
      }

      .cls-2 {
        clip-path: url(#clippath);
      }

      .cls-3 {
        fill: #00bf8c;
      }

      .cls-4 {
        fill: #e6f5fd;
      }

      .cls-5 {
        fill: #fff;
      }

      .cls-6 {
        fill: #9a59c5;
      }

      .cls-7 {
        fill: #cdebfb;
      }

      .cls-8 {
        fill: #079cee;
      }

      .cls-9 {
        clip-path: url(#clippath-1);
      }

      .cls-10 {
        clip-path: url(#clippath-4);
      }

      .cls-11 {
        clip-path: url(#clippath-2);
      }

      .cls-12 {
        clip-path: url(#clippath-5);
      }
    </style>
    <clipPath id="clippath">
      <rect class="cls-1" width="49.999999999997272" height="50"/>
    </clipPath>
    <clipPath id="clippath-1">
      <rect class="cls-1" x="6.155904749391084" y="6.155904749390174" width="37.688190501217832" height="37.688190501219651"/>
    </clipPath>
    <clipPath id="clippath-2">
      <rect class="cls-1" x="6.155904749391084" y="6.155904749390174" width="37.688190501217832" height="37.688190501219651"/>
    </clipPath>
    <clipPath id="clippath-4">
      <rect class="cls-1" x="22.049483242859424" y="21.123091539448069" width="5.311908748692076" height="5.311908748692076"/>
    </clipPath>
    <clipPath id="clippath-5">
      <rect class="cls-1" x="22.049483242859424" y="21.123091539448069" width="5.311908748692076" height="5.311908748692076"/>
    </clipPath>
  </defs>
  <g class="cls-2">
    <path class="cls-4" d="m24.999999999999091,0c13.807117462159113,0,24.999999999998181,11.19288158416748,24.999999999998181,25,0,13.807117462158203-11.192882537839068,25-24.999999999998181,25C11.19288158416748,50,0,38.807117462158203,0,25,0,11.19288158416748,11.19288158416748,0,24.999999999999091,0"/>
  </g>
  <g id="complex-icon-mms">
    <g class="cls-9">
      <g class="cls-11">
        <path class="cls-7" d="m35.291099826300524,36.890925730574963c0,1.378256971358496-4.710270462896005,2.495711877225403-10.521035398338427,2.495711877225403-5.810764935440602,0-10.521035398338427-1.117454905866907-10.521035398338427-2.495711877225403s4.710270462897824-2.495711877229041,10.521035398338427-2.495711877229041c5.810764935442421,0,10.521035398338427,1.117454905870545,10.521035398338427,2.495711877229041"/>
        <path class="cls-8" d="m29.70891328318703,11.177817603576841h-9.877697710448047c-1.487929024890036,0-2.693952127312514,1.206023821265262-2.693952127312514,2.693952846158936v21.307771792107815c0,1.487553068858688,1.206023102422478,2.693952127316152,2.693952127312514,2.693952127316152h9.877697710448047c1.487929024890036,0,2.693952846158936-1.206399058457464,2.693952846158936-2.693952127316152V13.871770449735777c0-1.487929024893674-1.2060238212689-2.693952846158936-2.693952846158936-2.693952846158936m-5.836769878900668.898110798803827h1.79584204735329c.249118674677447,0,.448867061962119.199746949594555.448867061962119.448867061964847,0,.249117236988241-.199748387284671.448867061964847-.448867061962119.448867061964847h-1.79584204735329c-.249118674677447,0-.449243736840799-.199749824976607-.449243736840799-.448867061964847,0-.249120112370292.200125062163352-.448867061964847.449243736840799-.448867061964847m1.183032276831,24.665412833386654c-.856275446656582.204269923506217-1.602501446057431-.541956075896451-1.398231522549395-1.398231522551214.096103850639338-.402133498715557.425875517525128-.731905165601347.828009016240685-.827633060209337.856275446656582-.204269923506217,1.602501446056522.541956075892813,1.398231522549395,1.397854847673443-.096103850641157.402510173593328-.425875517526947.731905165601347-.828009016240685.828009735087107"/>
        <path class="cls-5" d="m18.402418752871199,15.132590401859488c.012060784534697.01205934684549.013567484043961,1.359790557369706.01130599708813,2.876740800118569h-.01130599708813s.002261486955831.854767309454473.004522973911662,2.569956364601239c-.002261486955831.77713059164671-.004522973911662,1.314187018753728-.004522973911662,1.314187018753728h.006406348298697c.006031111113771,4.620949635431316.011684109658745,10.732089782712137-.006406348298697,10.750180240669579,0,.648990686437173.472232405896648,1.175871141083917,1.022102967292085,1.175871141083917h10.717392274034864c.549493886519485,0,.995721348957886-.526880454646744.995721348957886-1.175871141083917V15.132590401859488c0-.648990686437173-.446227462438401-1.175872578776762-.995721348957886-1.175872578776762h-10.717392274034864c-.549870561395437,0-1.022102967292085.526881892339588-1.022102967292085,1.175872578776762"/>
        <path class="cls-5" d="m25.809881178335672,22.530819979750959c.229144842330243.019220482590754.430776604006496-.15075333707864.44999708659725-.379896741724224.018843807712983-.22650668049755-.146607038048387-.426253630092106-.372735605979869-.44924373683898-.025628268580476-.002261486955831-.051633212036904-.002261486955831-.077261480617381,0-.229144842332971.021481969546585-.397233849926124.224245193541719-.375751880379539.453388598183665.01884524540219.199371712409629.176381605660936.356908072666556.375751880379539.375751880379539"/>
      </g>
    </g>
  </g>
  <g>
    <path class="cls-3" d="m35.38067531940851,12.762535060783193c0,1.944765412335983-1.576581774746046,3.521347187082938-3.521347187081119,3.521347187082938-1.945081820907944,0-3.521663595653081-1.576581774746955-3.521663595653081-3.521347187082938s1.576581774745136-3.521347187084757,3.521663595653081-3.521347187084757c1.944765412335073,0,3.521347187081119,1.576581774748774,3.521347187081119,3.521347187084757"/>
    <path class="cls-5" d="m31.314965305487021,14.531947327610396c-.10320474593027,0-.206095498626382-.039256400466911-.284608299563843-.118085609972695l-1.34769036720536-1.347373958640674c-.157342010439606-.157342010439606-.157342010439606-.41219099724367,0-.569216599114952.157340802772524-.157658419009749.412189789578406-.157658419009749.569531800018012,0l1.06276686675119,1.062768074412816,2.016631218000839-2.016631218004477c.157023186539845-.157342010441425.412188581914052-.157342010441425.569214183785334,0,.157342010435968.157342010437787.157342010435968.412190997245489,0,.569216599116771l-2.301237102225969,2.301237102230516c-.078512800941098.078829209505784-.18140355363721.118085609972695-.284608299560205.118085609972695Z"/>
  </g>
  <g>
    <g>
      <path class="cls-6" d="m19.877917749492553,23.779046622083115c0-2.666182879023836,2.161336457471407-4.827521107217763,4.827520044784251-4.827521107217763,2.666182879022017,0,4.827519690637928,2.161338228193927,4.827519690637928,4.827521107217763s-2.161336811615911,4.827519690639747-4.827519690637928,4.827519690639747c-2.666183587312844,0-4.827520044784251-2.161336811615911-4.827520044784251-4.827519690639747"/>
      <path class="cls-6" d="m19.877871356531614,23.779093369186739c0,2.666182879027474,2.161336457471407,4.827426196432498,4.827519336497062,4.827426196432498,2.666184295601852,0,4.827613184850634-2.161243317405024,4.827613184850634-4.827426196432498,0-2.666182879020198-2.161428889248782-4.827521107217763-4.827613184850634-4.827521107217763-2.666182879025655,0-4.827519336497062,2.161338228197565-4.827519336497062,4.827521107217763"/>
    </g>
    <g id="icons8-phone">
      <g class="cls-10">
        <g class="cls-12">
          <path class="cls-5" d="m26.623036594430232,24.804244261766144c-.313402697225683-.270907265130518-.637429049842467-.435576557920285-.950831747069969-.164669090154348l-.18591680620375.164669090154348c-.138109546413034.116862032995414-.387769298127751.674612451610301-1.370472416636403-.456824273969687-.982702915875052-1.126124492613599-.398393156150632-1.301417440794467-.260283407105817-1.418279473793518l.185916806205569-.164669495421549c.308090666896533-.270906859863317.1912286338993-.610869506101153-.031871574074103-.961454997195688l-.132797718715665-.212476349945064c-.223100207973403-.350586301628937-.472759757054519-.578998539927852-.780850626584652-.308090869533771l-.169980917851717.148733607071335c-.138109546413034.100925942013419-.520567219478835.424952699897403-.616181333794884,1.046445861386019-.111550407935283.743667224818637.244347721385566,1.593572624609806,1.051757689081569,2.528468483324104.812722200655116.929584031022387,1.609508512960019,1.397032061697246,2.358487565472387,1.391720132683986.626805394451367-.005311929009622,1.003950834556235-.339962139652926,1.120812664919868-.462136101661599l.169981323118918-.148733404435916c.313402291960301-.270907366448228.116861830363632-.547126560588367-.196540866862051-.818033927036595l-.1912286338993-.164669191472058Z"/>
        </g>
      </g>
    </g>
  </g>
</svg>