<svg xmlns="http://www.w3.org/2000/svg" xmlns:xlink="http://www.w3.org/1999/xlink" width="50" height="50" viewBox="0 0 50 50">
  <defs>
    <clipPath id="clip-path">
      <rect id="Rectangle_2247" data-name="Rectangle 2247" width="50" height="50" fill="none"/>
    </clipPath>
  </defs>
  <g id="Group_8101" data-name="Group 8101" clip-path="url(#clip-path)">
    <path id="Path_18327" data-name="Path 18327" d="M25,0A25,25,0,1,1,0,25,25,25,0,0,1,25,0" fill="#e6f5fd"/>
    <path id="Path_18328" data-name="Path 18328" d="M41.2,47.846c-1.619-1.386-3.267-2.229-4.866-.842l-.957.834c-.7.609-2,3.446-7.024-2.339s-2.037-6.673-1.333-7.274l.961-.838c1.59-1.386.99-3.132-.16-4.931l-.691-1.088c-1.153-1.791-2.413-2.969-4.007-1.587l-.863.757A8.078,8.078,0,0,0,19.1,35.895c-.576,3.806,1.243,8.17,5.4,12.953S32.732,56.04,36.583,56a8.134,8.134,0,0,0,5.745-2.379l.863-.757c1.594-1.382.6-2.793-1.019-4.179Z" transform="translate(-9.5 -14.588)" fill="#9a59c5"/>
    <path id="Path_18329" data-name="Path 18329" d="M73.548,40.8a1.128,1.128,0,1,0,.9,1.32,1.129,1.129,0,0,0-.9-1.32" transform="translate(-36.104 -20.391)" fill="#512e65"/>
    <path id="Path_18330" data-name="Path 18330" d="M66.035,45.827a.609.609,0,1,0,.484.713.609.609,0,0,0-.484-.713" transform="translate(-32.655 -22.908)" fill="#512e65"/>
    <path id="Path_18331" data-name="Path 18331" d="M61.211,23.015a1.128,1.128,0,1,0,1.457.653,1.128,1.128,0,0,0-1.457-.653" transform="translate(-30.242 -11.47)" fill="#512e65"/>
    <path id="Path_18332" data-name="Path 18332" d="M57.262,31.588a.609.609,0,1,0,.787.353.609.609,0,0,0-.787-.353" transform="translate(-28.435 -15.774)" fill="#512e65"/>
    <path id="Path_18333" data-name="Path 18333" d="M42.749,19.481a1.129,1.129,0,1,1-1.595.069,1.129,1.129,0,0,1,1.595-.069" transform="translate(-20.429 -9.592)" fill="#512e65"/>
    <path id="Path_18334" data-name="Path 18334" d="M44.445,29.135a.609.609,0,1,1-.861.037.609.609,0,0,1,.861-.037" transform="translate(-21.712 -14.487)" fill="#512e65"/>
    <path id="Path_18335" data-name="Path 18335" d="M75.773,60.038a1.129,1.129,0,1,0-.1,1.593,1.128,1.128,0,0,0,.1-1.593" transform="translate(-36.9 -29.829)" fill="#512e65"/>
    <path id="Path_18336" data-name="Path 18336" d="M67.179,59.232a.609.609,0,1,0-.051.86.609.609,0,0,0,.051-.86" transform="translate(-33.057 -29.513)" fill="#512e65"/>
  </g>
</svg>
