<svg id="Group_7941" data-name="Group 7941" xmlns="http://www.w3.org/2000/svg" xmlns:xlink="http://www.w3.org/1999/xlink" width="50" height="50" viewBox="0 0 50 50">
  <defs>
    <clipPath id="clip-path">
      <rect id="Rectangle_2224" data-name="Rectangle 2224" width="50" height="50" fill="none"/>
    </clipPath>
  </defs>
  <g id="Group_7940" data-name="Group 7940" clip-path="url(#clip-path)">
    <path id="Path_18179" data-name="Path 18179" d="M25,0A25,25,0,1,1,0,25,25,25,0,0,1,25,0" fill="#e6f5fd"/>
    <path id="Path_18180" data-name="Path 18180" d="M38.607,16.735h-21.9a3.238,3.238,0,0,0-3.3,3.166V37.575a3.281,3.281,0,0,0,3.166,3.3H38.607a3.281,3.281,0,0,0,3.3-3.166V20.032a3.281,3.281,0,0,0-3.166-3.3ZM21.328,18.977a.725.725,0,1,1-.725.725.732.732,0,0,1,.725-.725m-2.308,0a.725.725,0,1,1,0,1.451.678.678,0,0,1-.725-.66.748.748,0,0,1,.725-.791m-2.308,0a.725.725,0,1,1,0,1.451.678.678,0,0,1-.725-.66.748.748,0,0,1,.725-.791m22.951,18.6a1.041,1.041,0,0,1-.989,1.121H16.712a1.041,1.041,0,0,1-1.121-.989v-15.5H39.662Z" transform="translate(-2.677 -3.779)" fill="#9a59c5"/>
    <path id="Path_18181" data-name="Path 18181" d="M55.579,30.226a4.155,4.155,0,1,1-4.155,4.155,4.138,4.138,0,0,1,4.155-4.155" transform="translate(-15.619 -8.373)" fill="#512e65"/>
    <path id="Path_18182" data-name="Path 18182" d="M58.318,36.266c-.264-.2-.528-.33-.791-.132l-.2.132c-.132.132-.33.594-1.187-.4s-.33-1.121-.2-1.253l.132-.132c.264-.264.2-.528,0-.857l-.132-.132c-.2-.33-.4-.528-.725-.264l-.132.132a1.466,1.466,0,0,0-.528.857,3.864,3.864,0,0,0,2.968,3.5,1.4,1.4,0,0,0,.989-.462l.132-.132c.33-.2.132-.462-.132-.66Z" transform="translate(-16.687 -9.354)" fill="#fff"/>
    <path id="Path_18183" data-name="Path 18183" d="M36.669,29.936H23.743a.66.66,0,0,1,0-1.319H36.669a.66.66,0,0,1,0,1.319" transform="translate(-5.969 -7.825)" fill="#4c2865"/>
    <path id="Path_18184" data-name="Path 18184" d="M40.126,33.95H37.883a.66.66,0,0,1,0-1.319h2.242a.623.623,0,0,1,.66.66.661.661,0,0,1-.66.66" transform="translate(-10.784 -9.191)" fill="#4c2865"/>
    <path id="Path_18185" data-name="Path 18185" d="M30.667,33.95H23.743a.66.66,0,0,1,0-1.319h6.925a.66.66,0,1,1,0,1.319" transform="translate(-5.969 -9.191)" fill="#4c2865"/>
    <path id="Path_18186" data-name="Path 18186" d="M26.381,37.922H23.743a.66.66,0,1,1,0-1.319h2.638a.66.66,0,1,1,0,1.319" transform="translate(-5.969 -10.544)" fill="#4c2865"/>
    <path id="Path_18187" data-name="Path 18187" d="M39.524,38.005h-7.98a.66.66,0,1,1,0-1.319h7.98a.623.623,0,0,1,.66.66.661.661,0,0,1-.66.659" transform="translate(-8.626 -10.572)" fill="#4c2865"/>
    <path id="Path_18188" data-name="Path 18188" d="M36.139,45.948h.791a.66.66,0,0,0,0-1.319h-.791a.66.66,0,1,0,0,1.319" transform="translate(-10.19 -13.277)" fill="#512e65"/>
    <path id="Path_18189" data-name="Path 18189" d="M23.7,46.031h5.672a.659.659,0,1,0,0-1.319H23.7a.659.659,0,1,0,0,1.319" transform="translate(-5.957 -13.305)" fill="#512e65"/>
    <path id="Path_18190" data-name="Path 18190" d="M34.85,41.977H23.7a.661.661,0,0,1-.66-.659.623.623,0,0,1,.66-.66h11.08a.623.623,0,0,1,.66.66.609.609,0,0,1-.594.659" transform="translate(-5.957 -11.925)" fill="#4c2865"/>
    <path id="Path_18191" data-name="Path 18191" d="M6.766,31.241H12.7a1.773,1.773,0,0,1,1.781,1.781v3.429A1.773,1.773,0,0,1,12.7,38.232H6.766a1.733,1.733,0,0,1-1.781-1.781V33.022a1.773,1.773,0,0,1,1.781-1.781" transform="translate(0.193 -8.718)" fill="#512e65"/>
    <path id="Path_18192" data-name="Path 18192" d="M13.327,35.454,10.425,34a.4.4,0,0,0-.264.066c-.066,0-.132.132-.132.2V37.1a.343.343,0,0,0,.132.264c.066,0,.066.066.132.066h.132l2.9-1.517a.317.317,0,0,0,.132-.4.23.23,0,0,1-.132-.066" transform="translate(-1.524 -9.659)" fill="#fff"/>
  </g>
</svg>
