<?xml version="1.0" encoding="UTF-8"?> <svg xmlns="http://www.w3.org/2000/svg" id="b30d3dc2-6822-4e23-8895-dafe46a7798a" data-name="Layer 1" width="400" height="220" viewBox="0 0 400 220"><title>buffered-message-data-flow-diagram</title><rect width="400" height="220" style="fill:#004658"></rect><g style="isolation:isolate"><path d="M172.445,85.675a4.624,4.624,0,0,0,1.807.476c.63,0,1.121-.153,1.121-.714,0-.28-.14-.546-.771-.91l-.714-.421c-.728-.434-1.527-.9-1.527-2.031a2.3,2.3,0,0,1,2.493-2.045,5.789,5.789,0,0,1,1.808.294l-.1,1.344a3.975,3.975,0,0,0-1.526-.321c-.7,0-1,.266-1,.7,0,.392.308.6.812.924l.855.547c.9.574,1.345.981,1.345,1.82,0,1.331-1.121,2.13-2.69,2.13a5.847,5.847,0,0,1-2-.35Z" style="fill:#fff"></path><path d="M183.634,87.005a5.355,5.355,0,0,1-2.157.463c-2.326,0-3.334-1.667-3.334-3.614,0-2.157,1.135-3.824,2.97-3.824,1.554,0,2.885.911,2.885,3.852v.336h-4.174c0,1.233.49,1.975,1.835,1.975a2.864,2.864,0,0,0,1.891-.56Zm-1.317-3.88c0-1.274-.42-1.918-1.2-1.918-.911,0-1.289.966-1.289,1.918Z" style="fill:#fff"></path><path d="M185.339,81.333a9.837,9.837,0,0,0-.056-1.191h1.625c.014.364.056.742.056,1.107h.028a2.1,2.1,0,0,1,1.919-1.219c1.639,0,2.129,1.219,2.129,2.676v4.65H189.3V83.028c0-1.107-.28-1.569-.994-1.569-.911,0-1.233.77-1.233,1.695v4.2h-1.737Z" style="fill:#fff"></path><path d="M198.53,76.85v9.274a9.3,9.3,0,0,0,.056,1.232h-1.625a9.956,9.956,0,0,1-.055-1.121h-.042a1.944,1.944,0,0,1-1.92,1.233c-1.793,0-2.535-1.709-2.535-3.712,0-2.353.939-3.726,2.493-3.726a1.943,1.943,0,0,1,1.864,1.148h.027V76.85Zm-3.109,9.343c1.022,0,1.372-1.107,1.372-2.465,0-1.4-.392-2.423-1.344-2.423-.967,0-1.3.939-1.3,2.381C194.146,85.353,194.412,86.193,195.421,86.193Z" style="fill:#fff"></path><path d="M203.889,85.465a4,4,0,0,0,2.073.6,1.354,1.354,0,0,0,1.485-1.414c0-.7-.407-1.009-1.275-1.486l-.91-.5a2.747,2.747,0,0,1-1.6-2.564c0-1.751,1.443-2.661,3.081-2.661a6.378,6.378,0,0,1,2.045.35l-.084,1.5a4.657,4.657,0,0,0-1.835-.42c-.9,0-1.358.475-1.358,1.148,0,.729.49,1.009,1.036,1.317l1.051.588a2.659,2.659,0,0,1,1.695,2.633c0,1.989-1.415,2.942-3.278,2.942a4.475,4.475,0,0,1-2.227-.434Z" style="fill:#fff"></path><path d="M218.747,79.2h-.028l-2.451,8.152h-1.275L212.654,79.2h-.028v8.152H211V77.579h2.675l2.018,7.3h.028l2.059-7.3h2.591v9.777h-1.625Z" style="fill:#fff"></path><path d="M222.3,85.465a4,4,0,0,0,2.072.6,1.354,1.354,0,0,0,1.485-1.414c0-.7-.406-1.009-1.275-1.486l-.91-.5a2.748,2.748,0,0,1-1.6-2.564c0-1.751,1.442-2.661,3.081-2.661a6.384,6.384,0,0,1,2.045.35l-.084,1.5a4.657,4.657,0,0,0-1.835-.42c-.9,0-1.359.475-1.359,1.148,0,.729.49,1.009,1.036,1.317l1.051.588a2.658,2.658,0,0,1,1.7,2.633c0,1.989-1.415,2.942-3.278,2.942a4.47,4.47,0,0,1-2.226-.434Z" style="fill:#fff"></path></g><g style="isolation:isolate"><path d="M154,95.288c-1.859,1.883-3.106,3.73-3.106,6.464a16.8,16.8,0,0,0,.719,4.282h-.995a15.7,15.7,0,0,1-.852-4.929c0-2.291,1.463-4.282,3.035-5.817Z" style="fill:#fff"></path><path d="M156.825,98.094a2.5,2.5,0,0,1,2.71,2.675c0,2.075-1.223,3.73-3.418,3.73a2.509,2.509,0,0,1-2.783-2.722A3.4,3.4,0,0,1,156.825,98.094Zm-.72,5.493c1.271,0,2.231-1.439,2.231-2.818a1.607,1.607,0,0,0-1.559-1.763c-1.5,0-2.243,1.583-2.243,2.855A1.529,1.529,0,0,0,156.1,103.587Z" style="fill:#fff"></path><path d="M160.93,98.239h1.2l.624,4.94h.024l2.722-4.94h1.2l-3.49,6.116H161.89Z" style="fill:#fff"></path><path d="M171.3,104.247a7.671,7.671,0,0,1-1.811.252c-1.488,0-2.819-.6-2.819-2.758a3.5,3.5,0,0,1,3.346-3.647,2.123,2.123,0,0,1,2.3,2.339,6.5,6.5,0,0,1-.108,1.115H167.9a2.078,2.078,0,0,0-.035.384c0,1.283.791,1.655,1.882,1.655a4.632,4.632,0,0,0,1.727-.372Zm-.144-3.538a3.459,3.459,0,0,0,.036-.467,1.17,1.17,0,0,0-1.3-1.236,2.106,2.106,0,0,0-1.871,1.7Z" style="fill:#fff"></path><path d="M174.262,99.173c.048-.251.12-.575.168-.934h1.055l-.192.97h.024a2.354,2.354,0,0,1,2.087-1.115,1.513,1.513,0,0,1,.516.109l-.252.995a1.576,1.576,0,0,0-.48-.12c-1.391,0-2.074,1.511-2.231,2.266l-.635,3.011H173.2Z" style="fill:#fff"></path><path d="M183.094,95.984h1.211l-.732,3.5h3.982l.755-3.5h1.176l-1.763,8.371H186.5l.828-3.813h-3.97l-.8,3.813H181.33Z" style="fill:#fff"></path><path d="M196.962,97.039h-2.6l-1.572,7.316h-1.211l1.571-7.316h-2.6l.227-1.055h6.417Z" style="fill:#fff"></path><path d="M203.634,97.039h-2.6l-1.572,7.316h-1.211l1.571-7.316h-2.6l.227-1.055h6.417Z" style="fill:#fff"></path><path d="M205.065,95.984h2.087c1.247,0,2.687.516,2.687,2.183s-1.212,2.842-3.467,2.842h-1.2l-.731,3.346h-1.2Zm.348,3.97h.636c1.235,0,2.518-.252,2.518-1.608,0-1.163-.887-1.307-1.9-1.307h-.623Z" style="fill:#fff"></path><path d="M212.337,95.839h1.055l-2.878,8.66h-1.056Z" style="fill:#fff"></path><path d="M215.109,95.984h1.211l-.731,3.5h3.982l.755-3.5H221.5l-1.762,8.371h-1.224l.828-3.813h-3.97l-.8,3.813h-1.223Z" style="fill:#fff"></path><path d="M228.979,97.039h-2.6l-1.571,7.316h-1.212l1.571-7.316h-2.6l.227-1.055h6.417Z" style="fill:#fff"></path><path d="M235.651,97.039h-2.6l-1.571,7.316h-1.212l1.571-7.316h-2.6l.227-1.055h6.417Z" style="fill:#fff"></path><path d="M237.081,95.984h2.087c1.247,0,2.687.516,2.687,2.183s-1.212,2.842-3.467,2.842h-1.2l-.732,3.346h-1.2Zm.348,3.97h.636c1.235,0,2.518-.252,2.518-1.608,0-1.163-.887-1.307-1.9-1.307h-.623Z" style="fill:#fff"></path><path d="M247.231,97.3a2.859,2.859,0,0,0-1.523-.408c-.792,0-1.655.312-1.655,1.308,0,1.4,2.855,1.415,2.855,3.609a2.672,2.672,0,0,1-2.891,2.687,5.985,5.985,0,0,1-2.339-.48l.384-1.1a3.523,3.523,0,0,0,1.763.528c1.271,0,1.811-.792,1.811-1.487,0-1.7-2.854-1.4-2.854-3.731a2.556,2.556,0,0,1,2.77-2.387,5.231,5.231,0,0,1,2.015.4Z" style="fill:#fff"></path><path d="M246.719,106.034c1.859-1.883,3.106-3.73,3.106-6.464a16.742,16.742,0,0,0-.72-4.282h1a15.735,15.735,0,0,1,.852,4.929c0,2.291-1.464,4.282-3.035,5.817Z" style="fill:#fff"></path></g><g style="isolation:isolate"><path d="M162.639,127.576h2.549c3.054,0,4.679,1.653,4.679,4.888,0,3.292-1.962,4.889-4.679,4.889h-2.549Zm1.793,8.4h.6c2.017,0,2.927-1.372,2.927-3.516s-.91-3.515-2.927-3.515h-.6Z" style="fill:#fff"></path><path d="M171.458,127.576h1.793v8.348h3.222v1.429h-5.015Z" style="fill:#fff"></path><path d="M177.674,127.576h3.054c1.737,0,2.914.784,2.914,2.577a2.2,2.2,0,0,1-1.892,2.3v.042c.365.055.771.223,1.079,1.134l1.274,3.726h-1.9l-.967-3.18a1.27,1.27,0,0,0-1.359-1.022h-.406v4.2h-1.793Zm2.522,4.258a1.409,1.409,0,0,0,1.6-1.485c0-1.12-.588-1.4-1.6-1.4h-.729v2.885Z" style="fill:#fff"></path><path d="M190.7,126.847v4.328h.028a1.941,1.941,0,0,1,1.863-1.148c1.555,0,2.493,1.373,2.493,3.726,0,2-.742,3.712-2.535,3.712a1.943,1.943,0,0,1-1.919-1.233h-.042a9.662,9.662,0,0,1-.056,1.121H188.9a9.3,9.3,0,0,0,.056-1.232v-9.274Zm1.373,9.343c1.009,0,1.275-.84,1.275-2.507,0-1.442-.336-2.381-1.3-2.381s-1.345,1.023-1.345,2.423C190.7,135.084,191.045,136.19,192.068,136.19Z" style="fill:#fff"></path><path d="M202.149,136.163a9.83,9.83,0,0,0,.056,1.19H200.58c-.014-.364-.056-.742-.056-1.106l-.042-.015.014.015a2.1,2.1,0,0,1-1.919,1.218c-1.639,0-2.129-1.218-2.129-2.675v-4.651h1.737v4.328c0,1.107.308,1.57,1.037,1.57.924,0,1.19-.841,1.19-1.766v-4.132h1.737Z" style="fill:#fff"></path><path d="M204.274,131.414h-1.2v-1.275h1.2v-1.471a1.827,1.827,0,0,1,2.074-1.989,6.109,6.109,0,0,1,1.246.168l-.07,1.261a2.6,2.6,0,0,0-.686-.112.807.807,0,0,0-.827.9v1.247h1.317v1.275h-1.317v5.939h-1.737Z" style="fill:#fff"></path><path d="M208.936,131.414h-1.2v-1.275h1.2v-1.471a1.827,1.827,0,0,1,2.074-1.989,6.1,6.1,0,0,1,1.246.168l-.07,1.261A2.6,2.6,0,0,0,211.5,128a.807.807,0,0,0-.827.9v1.247h1.317v1.275h-1.317v5.939h-1.737Z" style="fill:#fff"></path><path d="M218.333,137a5.355,5.355,0,0,1-2.157.463c-2.326,0-3.334-1.667-3.334-3.614,0-2.157,1.135-3.824,2.97-3.824,1.555,0,2.885.911,2.885,3.852v.336h-4.174c0,1.233.49,1.975,1.835,1.975a2.861,2.861,0,0,0,1.891-.56Zm-1.316-3.879c0-1.275-.421-1.919-1.2-1.919-.911,0-1.289.966-1.289,1.919Z" style="fill:#fff"></path><path d="M220.094,131.33a9.837,9.837,0,0,0-.056-1.191h1.569c.014.435.056.883.056,1.317h.028a2.014,2.014,0,0,1,1.835-1.429,1.857,1.857,0,0,1,.294.042v1.625a1.8,1.8,0,0,0-.49-.07c-.714,0-1.5.434-1.5,1.779v3.95h-1.737Z" style="fill:#fff"></path><path d="M230.121,137a5.365,5.365,0,0,1-2.158.463c-2.325,0-3.334-1.667-3.334-3.614,0-2.157,1.135-3.824,2.97-3.824,1.555,0,2.886.911,2.886,3.852v.336H226.31c0,1.233.49,1.975,1.835,1.975a2.867,2.867,0,0,0,1.892-.56Zm-1.317-3.879c0-1.275-.421-1.919-1.205-1.919-.91,0-1.289.966-1.289,1.919Z" style="fill:#fff"></path><path d="M237.75,126.847v9.274a9.271,9.271,0,0,0,.057,1.232h-1.625a9.662,9.662,0,0,1-.056-1.121h-.042a1.942,1.942,0,0,1-1.92,1.233c-1.793,0-2.535-1.709-2.535-3.712,0-2.353.939-3.726,2.493-3.726a1.94,1.94,0,0,1,1.864,1.148h.028v-4.328Zm-3.109,9.343c1.022,0,1.373-1.106,1.373-2.465,0-1.4-.393-2.423-1.345-2.423s-1.3.939-1.3,2.381C233.367,135.35,233.632,136.19,234.641,136.19Z" style="fill:#fff"></path></g><g style="isolation:isolate"><path d="M154,145.285c-1.859,1.883-3.106,3.73-3.106,6.465a16.8,16.8,0,0,0,.719,4.281h-.995a15.7,15.7,0,0,1-.852-4.929c0-2.291,1.463-4.282,3.035-5.817Z" style="fill:#fff"></path><path d="M156.825,148.091a2.5,2.5,0,0,1,2.71,2.675c0,2.075-1.223,3.73-3.418,3.73a2.509,2.509,0,0,1-2.783-2.722A3.4,3.4,0,0,1,156.825,148.091Zm-.72,5.493c1.271,0,2.231-1.439,2.231-2.818A1.607,1.607,0,0,0,156.777,149c-1.5,0-2.243,1.583-2.243,2.855A1.529,1.529,0,0,0,156.1,153.584Z" style="fill:#fff"></path><path d="M160.93,148.236h1.2l.624,4.94h.024l2.722-4.94h1.2l-3.49,6.116H161.89Z" style="fill:#fff"></path><path d="M171.3,154.244a7.671,7.671,0,0,1-1.811.252c-1.488,0-2.819-.6-2.819-2.758a3.5,3.5,0,0,1,3.346-3.647,2.123,2.123,0,0,1,2.3,2.339,6.5,6.5,0,0,1-.108,1.115H167.9a2.078,2.078,0,0,0-.035.384c0,1.283.791,1.655,1.882,1.655a4.632,4.632,0,0,0,1.727-.372Zm-.144-3.538a3.459,3.459,0,0,0,.036-.467,1.17,1.17,0,0,0-1.3-1.236,2.106,2.106,0,0,0-1.871,1.7Z" style="fill:#fff"></path><path d="M174.262,149.17c.048-.251.12-.575.168-.934h1.055l-.192.971h.024a2.353,2.353,0,0,1,2.087-1.116,1.513,1.513,0,0,1,.516.109l-.252,1a1.576,1.576,0,0,0-.48-.12c-1.391,0-2.074,1.511-2.231,2.266l-.635,3.011H173.2Z" style="fill:#fff"></path><path d="M183.094,145.981h1.211l-.732,3.5h3.982l.755-3.5h1.176l-1.763,8.371H186.5l.828-3.813h-3.97l-.8,3.813H181.33Z" style="fill:#fff"></path><path d="M196.962,147.036h-2.6l-1.572,7.316h-1.211l1.571-7.316h-2.6l.227-1.055h6.417Z" style="fill:#fff"></path><path d="M203.634,147.036h-2.6l-1.572,7.316h-1.211l1.571-7.316h-2.6l.227-1.055h6.417Z" style="fill:#fff"></path><path d="M205.065,145.981h2.087c1.247,0,2.687.516,2.687,2.183s-1.212,2.842-3.467,2.842h-1.2l-.731,3.346h-1.2Zm.348,3.97h.636c1.235,0,2.518-.252,2.518-1.608,0-1.163-.887-1.307-1.9-1.307h-.623Z" style="fill:#fff"></path><path d="M212.337,145.836h1.055l-2.878,8.66h-1.056Z" style="fill:#fff"></path><path d="M215.109,145.981h1.211l-.731,3.5h3.982l.755-3.5H221.5l-1.762,8.371h-1.224l.828-3.813h-3.97l-.8,3.813h-1.223Z" style="fill:#fff"></path><path d="M228.978,147.036h-2.6l-1.571,7.316h-1.211l1.571-7.316h-2.6l.227-1.055h6.416Z" style="fill:#fff"></path><path d="M235.65,147.036h-2.6l-1.571,7.316h-1.211l1.571-7.316h-2.6l.227-1.055h6.416Z" style="fill:#fff"></path><path d="M237.08,145.981h2.087c1.247,0,2.687.516,2.687,2.183s-1.211,2.842-3.466,2.842h-1.2l-.732,3.346h-1.2Zm.348,3.97h.636c1.235,0,2.518-.252,2.518-1.608,0-1.163-.886-1.307-1.894-1.307h-.624Z" style="fill:#fff"></path><path d="M247.231,147.3a2.863,2.863,0,0,0-1.524-.408c-.792,0-1.655.312-1.655,1.308,0,1.4,2.855,1.415,2.855,3.609a2.671,2.671,0,0,1-2.891,2.687,5.98,5.98,0,0,1-2.338-.48l.384-1.1a3.517,3.517,0,0,0,1.763.528c1.271,0,1.81-.792,1.81-1.487,0-1.7-2.854-1.4-2.854-3.731a2.556,2.556,0,0,1,2.77-2.387,5.232,5.232,0,0,1,2.016.4Z" style="fill:#fff"></path><path d="M246.718,156.031c1.86-1.883,3.107-3.73,3.107-6.464a16.742,16.742,0,0,0-.72-4.282h1a15.706,15.706,0,0,1,.852,4.929c0,2.291-1.463,4.282-3.035,5.817Z" style="fill:#fff"></path></g><line x1="302.511" y1="141.424" x2="101.985" y2="141.424" style="fill:none;stroke:#fff;stroke-miterlimit:10;stroke-width:0.621861607011062px"></line><path d="M102.078,139.554a1.87,1.87,0,1,0,1.871,1.87A1.87,1.87,0,0,0,102.078,139.554Z" style="fill:#fff"></path><g style="isolation:isolate"><path d="M160.427,177.017h2.549c3.054,0,4.679,1.653,4.679,4.889,0,3.292-1.962,4.888-4.679,4.888h-2.549Zm1.793,8.4h.6c2.017,0,2.927-1.372,2.927-3.515s-.91-3.516-2.927-3.516h-.6Z" style="fill:#fff"></path><path d="M169.246,177.017h1.793v8.349h3.222v1.428h-5.015Z" style="fill:#fff"></path><path d="M175.462,177.017h3.054c1.737,0,2.914.784,2.914,2.577a2.2,2.2,0,0,1-1.892,2.3v.042c.365.056.771.224,1.079,1.135l1.275,3.725h-1.905l-.967-3.179a1.27,1.27,0,0,0-1.358-1.023h-.407v4.2h-1.793Zm2.522,4.259a1.409,1.409,0,0,0,1.6-1.485c0-1.121-.588-1.4-1.6-1.4h-.729v2.886Z" style="fill:#fff"></path><path d="M192.643,176.289v9.273a9.251,9.251,0,0,0,.057,1.232h-1.625a9.648,9.648,0,0,1-.056-1.121h-.042a1.942,1.942,0,0,1-1.919,1.234c-1.793,0-2.536-1.709-2.536-3.712,0-2.354.939-3.727,2.494-3.727a1.941,1.941,0,0,1,1.863,1.149h.028v-4.328Zm-3.109,9.342c1.023,0,1.373-1.106,1.373-2.464,0-1.4-.392-2.423-1.345-2.423s-1.3.938-1.3,2.381C188.259,184.792,188.525,185.631,189.534,185.631Z" style="fill:#fff"></path><path d="M199.531,186.444a5.378,5.378,0,0,1-2.158.463c-2.325,0-3.333-1.667-3.333-3.615,0-2.157,1.135-3.824,2.97-3.824,1.554,0,2.885.911,2.885,3.853v.336h-4.174c0,1.232.49,1.974,1.835,1.974a2.87,2.87,0,0,0,1.891-.559Zm-1.317-3.88c0-1.274-.42-1.919-1.2-1.919-.911,0-1.289.967-1.289,1.919Z" style="fill:#fff"></path><path d="M201.4,176.289h1.737v10.505H201.4Z" style="fill:#fff"></path><path d="M205.016,176.513h1.793v1.709h-1.793Zm.028,3.068h1.737v7.213h-1.737Z" style="fill:#fff"></path><path d="M207.872,179.581h1.793l1.471,5.56h.027l1.485-5.56h1.681l-2.213,7.213h-2.045Z" style="fill:#fff"></path><path d="M220.545,186.444a5.372,5.372,0,0,1-2.157.463c-2.326,0-3.334-1.667-3.334-3.615,0-2.157,1.135-3.824,2.97-3.824,1.555,0,2.885.911,2.885,3.853v.336h-4.174c0,1.232.49,1.974,1.835,1.974a2.868,2.868,0,0,0,1.891-.559Zm-1.317-3.88c0-1.274-.42-1.919-1.2-1.919-.911,0-1.289.967-1.289,1.919Z" style="fill:#fff"></path><path d="M222.306,180.771a9.83,9.83,0,0,0-.056-1.19h1.569c.014.434.056.882.056,1.316h.028a2.014,2.014,0,0,1,1.835-1.429,1.981,1.981,0,0,1,.294.042v1.625a1.8,1.8,0,0,0-.491-.07c-.713,0-1.5.435-1.5,1.779v3.95h-1.737Z" style="fill:#fff"></path><path d="M232.332,186.444a5.372,5.372,0,0,1-2.157.463c-2.325,0-3.334-1.667-3.334-3.615,0-2.157,1.135-3.824,2.97-3.824,1.555,0,2.886.911,2.886,3.853v.336h-4.175c0,1.232.49,1.974,1.835,1.974a2.868,2.868,0,0,0,1.891-.559Zm-1.316-3.88c0-1.274-.421-1.919-1.2-1.919-.91,0-1.289.967-1.289,1.919Z" style="fill:#fff"></path><path d="M239.962,176.289v9.273a9.251,9.251,0,0,0,.057,1.232h-1.625a9.648,9.648,0,0,1-.056-1.121H238.3a1.943,1.943,0,0,1-1.92,1.234c-1.793,0-2.535-1.709-2.535-3.712,0-2.354.939-3.727,2.493-3.727a1.941,1.941,0,0,1,1.864,1.149h.028v-4.328Zm-3.109,9.342c1.022,0,1.373-1.106,1.373-2.464,0-1.4-.393-2.423-1.345-2.423-.967,0-1.3.938-1.3,2.381C235.579,184.792,235.844,185.631,236.853,185.631Z" style="fill:#fff"></path></g><g style="isolation:isolate"><path d="M154,194.726c-1.859,1.884-3.106,3.731-3.106,6.465a16.784,16.784,0,0,0,.719,4.281h-.995a15.7,15.7,0,0,1-.852-4.929c0-2.291,1.463-4.282,3.035-5.817Z" style="fill:#fff"></path><path d="M156.825,197.533a2.5,2.5,0,0,1,2.71,2.675c0,2.075-1.223,3.729-3.418,3.729a2.509,2.509,0,0,1-2.783-2.722A3.4,3.4,0,0,1,156.825,197.533Zm-.72,5.493c1.271,0,2.231-1.44,2.231-2.818a1.606,1.606,0,0,0-1.559-1.763c-1.5,0-2.243,1.583-2.243,2.854A1.53,1.53,0,0,0,156.1,203.026Z" style="fill:#fff"></path><path d="M160.93,197.677h1.2l.624,4.941h.024l2.722-4.941h1.2l-3.49,6.116H161.89Z" style="fill:#fff"></path><path d="M171.3,203.685a7.62,7.62,0,0,1-1.811.252c-1.488,0-2.819-.6-2.819-2.758a3.5,3.5,0,0,1,3.346-3.646,2.123,2.123,0,0,1,2.3,2.339,6.507,6.507,0,0,1-.108,1.115H167.9a2.078,2.078,0,0,0-.035.384c0,1.283.791,1.655,1.882,1.655a4.652,4.652,0,0,0,1.727-.372Zm-.144-3.538a3.447,3.447,0,0,0,.036-.467,1.17,1.17,0,0,0-1.3-1.235,2.106,2.106,0,0,0-1.871,1.7Z" style="fill:#fff"></path><path d="M174.262,198.612c.048-.251.12-.575.168-.935h1.055l-.192.971h.024a2.354,2.354,0,0,1,2.087-1.115,1.506,1.506,0,0,1,.516.108l-.252,1a1.576,1.576,0,0,0-.48-.12c-1.391,0-2.074,1.512-2.231,2.267l-.635,3.01H173.2Z" style="fill:#fff"></path><path d="M183.094,195.422h1.211l-.732,3.5h3.982l.755-3.5h1.176l-1.763,8.371H186.5l.828-3.813h-3.97l-.8,3.813H181.33Z" style="fill:#fff"></path><path d="M196.962,196.477h-2.6l-1.572,7.316h-1.211l1.571-7.316h-2.6l.227-1.055h6.417Z" style="fill:#fff"></path><path d="M203.634,196.477h-2.6l-1.572,7.316h-1.211l1.571-7.316h-2.6l.227-1.055h6.417Z" style="fill:#fff"></path><path d="M205.065,195.422h2.087c1.247,0,2.687.516,2.687,2.183s-1.212,2.843-3.467,2.843h-1.2l-.731,3.345h-1.2Zm.348,3.97h.636c1.235,0,2.518-.252,2.518-1.607,0-1.163-.887-1.308-1.9-1.308h-.623Z" style="fill:#fff"></path><path d="M212.337,195.278h1.055l-2.878,8.659h-1.056Z" style="fill:#fff"></path><path d="M215.109,195.422h1.211l-.731,3.5h3.982l.755-3.5H221.5l-1.762,8.371h-1.224l.828-3.813h-3.97l-.8,3.813h-1.223Z" style="fill:#fff"></path><path d="M228.978,196.477h-2.6l-1.571,7.316h-1.211l1.571-7.316h-2.6l.227-1.055h6.416Z" style="fill:#fff"></path><path d="M235.65,196.477h-2.6l-1.571,7.316h-1.211l1.571-7.316h-2.6l.227-1.055h6.416Z" style="fill:#fff"></path><path d="M237.08,195.422h2.087c1.247,0,2.687.516,2.687,2.183s-1.211,2.843-3.466,2.843h-1.2l-.732,3.345h-1.2Zm.348,3.97h.636c1.235,0,2.518-.252,2.518-1.607,0-1.163-.886-1.308-1.894-1.308h-.624Z" style="fill:#fff"></path><path d="M247.231,196.742a2.854,2.854,0,0,0-1.524-.408c-.792,0-1.655.311-1.655,1.307,0,1.4,2.855,1.415,2.855,3.609a2.671,2.671,0,0,1-2.891,2.687,6,6,0,0,1-2.338-.479l.384-1.1a3.507,3.507,0,0,0,1.763.528c1.271,0,1.81-.792,1.81-1.487,0-1.7-2.854-1.4-2.854-3.73a2.555,2.555,0,0,1,2.77-2.387,5.25,5.25,0,0,1,2.016.4Z" style="fill:#fff"></path><path d="M246.718,205.472c1.86-1.883,3.107-3.729,3.107-6.464a16.742,16.742,0,0,0-.72-4.282h1a15.713,15.713,0,0,1,.852,4.93c0,2.291-1.463,4.281-3.035,5.816Z" style="fill:#fff"></path></g><line x1="302.511" y1="190.865" x2="101.985" y2="190.865" style="fill:none;stroke:#fff;stroke-miterlimit:10;stroke-width:0.621861607011062px"></line><path d="M102.078,189a1.871,1.871,0,1,0,1.871,1.87A1.871,1.871,0,0,0,102.078,189Z" style="fill:#fff"></path><line x1="97.649" y1="90.926" x2="298.262" y2="90.926" style="fill:none;stroke:#fff;stroke-miterlimit:10;stroke-width:0.62113204448599px"></line><path d="M298.168,92.794a1.869,1.869,0,1,0-1.868-1.868A1.869,1.869,0,0,0,298.168,92.794Z" style="fill:#fff"></path><line x1="97.64" y1="215.028" x2="97.64" y2="61.418" style="fill:none;stroke:#fff;stroke-miterlimit:10;stroke-width:0.690846525119702px"></line><line x1="302.64" y1="215.028" x2="302.64" y2="61.418" style="fill:none;stroke:#fff;stroke-miterlimit:10;stroke-width:0.690846525119702px"></line><path d="M115.338,51.3c-.81,0-1.147.827-1.147,1.643h2.217C116.408,51.854,116.035,51.3,115.338,51.3Z" style="fill:#fff"></path><path d="M99.146,51.351c-1,0-1.232,1.091-1.232,2.122s.236,2.136,1.232,2.136,1.22-1.1,1.22-2.136S100.142,51.351,99.146,51.351Z" style="fill:#fff"></path><path d="M48.171,4.972v60h100v-60Zm36.666,30.3c0-1.92,4.968-3.507,11.429-3.771v-.395c-2.755-1.053-4.762-4.333-4.762-8.215,0-4.733,2.985-8.571,6.667-8.571s6.666,3.838,6.666,8.571c0,3.882-2.008,7.162-4.762,8.215V31.5c6.461.264,11.429,1.851,11.429,3.771v3.81H84.837ZM77.674,55.417a2.769,2.769,0,0,0,1.643-.432l.087,1.4a4.964,4.964,0,0,1-1.88.3c-2.639,0-4-1.859-4-4.306s1.358-4.3,3.948-4.3a5.69,5.69,0,0,1,1.929.347L79.317,49.8a3.405,3.405,0,0,0-1.643-.455c-1.32,0-2.453.863-2.453,3.034S76.354,55.417,77.674,55.417Zm6.576,1.151c-.012-.312-.05-.636-.05-.947l-.037-.012.013.012a1.872,1.872,0,0,1-1.706,1.043c-1.457,0-1.893-1.043-1.893-2.29V50.391h1.544V54.1c0,.947.273,1.344.922,1.344.821,0,1.057-.72,1.057-1.512V50.391h1.544v5.157a8.187,8.187,0,0,0,.05,1.02Zm4.322.1a5.359,5.359,0,0,1-1.78-.3l.075-1.236a4.232,4.232,0,0,0,1.606.409c.56,0,1-.132,1-.613,0-.239-.124-.467-.685-.779l-.635-.359c-.647-.372-1.357-.768-1.357-1.74A2.019,2.019,0,0,1,89.008,50.3a5.339,5.339,0,0,1,1.606.252L90.527,51.7a3.623,3.623,0,0,0-1.357-.277c-.622,0-.884.229-.884.6,0,.336.274.517.722.792l.759.468c.8.491,1.2.84,1.2,1.559C90.963,55.98,89.967,56.664,88.572,56.664Zm6.938-5.181H94.226v3.2c0,.659.25.852.7.852a1.271,1.271,0,0,0,.586-.132v1.054a2.445,2.445,0,0,1-1.034.2,1.568,1.568,0,0,1-1.792-1.8V51.483H91.662V50.391h1.022V49.12l1.542-.455v1.726H95.51Zm3.636,5.181c-1.307,0-2.826-.6-2.826-3.191,0-2.518,1.519-3.178,2.826-3.178s2.814.66,2.814,3.178C101.96,56.064,100.453,56.664,99.146,56.664Zm12.367-.1h-1.544v-3.9c0-.767-.249-1.151-.823-1.151-.684,0-1.046.623-1.046,1.307v3.742h-1.543v-3.9c0-.767-.249-1.151-.822-1.151-.684,0-1.046.623-1.046,1.307v3.742h-1.544V51.4a9.608,9.608,0,0,0-.049-1.008h1.544c.012.324.049.648.049.972h.025a1.783,1.783,0,0,1,1.619-1.068,1.656,1.656,0,0,1,1.618.984,2,2,0,0,1,1.719-.984c1.394,0,1.843.959,1.843,2.459Zm6.389-2.687h-3.711c0,1.056.437,1.692,1.632,1.692a2.612,2.612,0,0,0,1.681-.481l.074,1.176a4.921,4.921,0,0,1-1.917.4A2.807,2.807,0,0,1,112.7,53.57c0-1.848,1.009-3.275,2.641-3.275,1.382,0,2.564.78,2.564,3.3Zm4.559-2.159a1.7,1.7,0,0,0-.436-.059c-.634,0-1.332.372-1.332,1.523v3.382h-1.544V51.411a8.207,8.207,0,0,0-.049-1.02h1.394c.013.372.05.756.05,1.128h.024A1.778,1.778,0,0,1,122.2,50.3a1.577,1.577,0,0,1,.261.037Z" style="fill:#fff"></path><polygon points="304.32 19.862 312.301 19.862 312.301 17.806 304.32 17.323 304.32 19.862" style="fill:#fff"></polygon><path d="M263.348,50.452a1.112,1.112,0,0,0-1.243-1.128h-.761V51.7h.8A1.174,1.174,0,0,0,263.348,50.452Z" style="fill:#fff"></path><rect x="304.32" y="21.64" width="7.981" height="2.539" style="fill:#fff"></rect><path d="M262.153,52.826h-.809v2.566h.858a1.284,1.284,0,1,0-.049-2.566Z" style="fill:#fff"></path><path d="M308.129,32.431a1.274,1.274,0,0,0,0,2.54A1.274,1.274,0,0,0,308.129,32.431Z" style="fill:#fff"></path><path d="M251.829,4.972v60h100v-60Zm50.133,8.034,12.515.889V37.112l-12.515,1.541Zm-12.485,2.965,11.287-2.965V38.653l-11.287-3.092Zm-27.059,40.6h-2.57V48.2h2.462c1.738,0,2.534.647,2.534,2.062a1.87,1.87,0,0,1-1.4,1.931v.024a1.894,1.894,0,0,1,1.593,2A2.335,2.335,0,0,1,262.418,56.568Zm7.484,0c-.012-.312-.048-.636-.048-.947l-.036-.012.011.012a1.81,1.81,0,0,1-1.653,1.043c-1.412,0-1.835-1.043-1.835-2.29V50.391h1.5V54.1c0,.947.266,1.344.893,1.344.8,0,1.026-.72,1.026-1.512V50.391h1.5v5.157a8.406,8.406,0,0,0,.049,1.02Zm4.345,0h-1.5V47.573h1.5Zm4.914,0-1.883-3.011h-.036v3.011h-1.5V47.573h1.5v5.289h.036l1.822-2.471h1.593l-2.185,2.8,2.391,3.382Zm7.7.12a3.871,3.871,0,0,1-1.919-.372l.084-1.367a3.465,3.465,0,0,0,1.787.515,1.163,1.163,0,0,0,1.279-1.211c0-.6-.35-.864-1.1-1.271l-.785-.432a2.352,2.352,0,0,1,1.28-4.473,5.535,5.535,0,0,1,1.761.3l-.072,1.284a4.033,4.033,0,0,0-1.581-.36c-.772,0-1.171.408-1.171.984,0,.623.423.863.894,1.127l.9.5a2.275,2.275,0,0,1,1.46,2.254C289.686,55.873,288.467,56.688,286.862,56.688Zm12.372-.12h-1.4V49.587h-.024L295.7,56.568h-1.1l-2.016-6.981h-.024v6.981h-1.4V48.2h2.305l1.739,6.248h.023L297,48.2h2.234Zm3.5.12a3.871,3.871,0,0,1-1.919-.372l.084-1.367a3.465,3.465,0,0,0,1.787.515,1.163,1.163,0,0,0,1.279-1.211c0-.6-.35-.864-1.1-1.271l-.785-.432a2.352,2.352,0,0,1,1.28-4.473,5.535,5.535,0,0,1,1.761.3l-.072,1.284a4.033,4.033,0,0,0-1.581-.36c-.772,0-1.171.408-1.171.984,0,.623.423.863.894,1.127l.9.5a2.275,2.275,0,0,1,1.46,2.254C305.559,55.873,304.34,56.688,302.735,56.688Zm9.174,0a3.871,3.871,0,0,1-1.919-.372l.084-1.367a3.458,3.458,0,0,0,1.787.515,1.163,1.163,0,0,0,1.279-1.211c0-.6-.351-.864-1.1-1.271l-.784-.432a2.352,2.352,0,0,1,1.28-4.473,5.535,5.535,0,0,1,1.761.3l-.072,1.284a4.033,4.033,0,0,0-1.581-.36c-.773,0-1.171.408-1.171.984,0,.623.423.863.894,1.127l.905.5a2.275,2.275,0,0,1,1.46,2.254C314.733,55.873,313.514,56.688,311.909,56.688Zm6.674,1.056a1.8,1.8,0,0,1-1.774,1.486,3.1,3.1,0,0,1-.953-.155l.084-1.14a1.582,1.582,0,0,0,.567.12c.447.012.64-.263.833-.9l.109-.529-2.064-6.236h1.545l1.255,4.666h.024l1.195-4.666h1.449Zm4.491-1.08a5.06,5.06,0,0,1-1.726-.3l.072-1.236a4.02,4.02,0,0,0,1.557.409c.544,0,.966-.132.966-.613,0-.239-.12-.467-.664-.779l-.616-.359c-.627-.372-1.315-.768-1.315-1.74A1.976,1.976,0,0,1,323.5,50.3a5.031,5.031,0,0,1,1.557.252l-.084,1.152a3.42,3.42,0,0,0-1.315-.277c-.6,0-.858.229-.858.6,0,.336.266.517.7.792l.737.468c.772.491,1.158.84,1.158,1.559C325.391,55.98,324.426,56.664,323.074,56.664Zm6.723-5.181h-1.243v3.2c0,.659.241.852.676.852a1.19,1.19,0,0,0,.567-.132v1.054a2.3,2.3,0,0,1-1,.2c-1.11,0-1.737-.5-1.737-1.8V51.483h-.99V50.391h.99V49.12l1.5-.455v1.726H329.8Zm5.829,2.4h-3.6c0,1.056.423,1.692,1.581,1.692a2.481,2.481,0,0,0,1.63-.481l.072,1.176a4.655,4.655,0,0,1-1.859.4c-2,0-2.873-1.427-2.873-3.094,0-1.848.978-3.275,2.559-3.275,1.34,0,2.486.78,2.486,3.3Zm9.236,2.687h-1.5v-3.9c0-.767-.242-1.151-.8-1.151-.663,0-1.014.623-1.014,1.307v3.742h-1.5v-3.9c0-.767-.242-1.151-.8-1.151-.664,0-1.014.623-1.014,1.307v3.742h-1.5V51.4a10.019,10.019,0,0,0-.047-1.008h1.5c.012.324.048.648.048.972h.024A1.73,1.73,0,0,1,339.84,50.3a1.61,1.61,0,0,1,1.57.984,1.925,1.925,0,0,1,1.665-.984c1.352,0,1.787.959,1.787,2.459Z" style="fill:#fff"></path><path d="M333.14,51.3c-.784,0-1.11.827-1.11,1.643h2.148C334.178,51.854,333.816,51.3,333.14,51.3Z" style="fill:#fff"></path><polygon points="304.32 28.495 312.301 28.012 312.301 25.956 304.32 25.956 304.32 28.495" style="fill:#fff"></polygon></svg> 