<svg id="Layer_1" data-name="Layer 1" xmlns="http://www.w3.org/2000/svg" viewBox="0 0 100 100"><defs><style>.cls-1{fill:#e6f5fd;}.cls-2{fill:#079cee;}.cls-3{fill:#084f7a;}.cls-4{fill:#83cdf6;}</style></defs><circle class="cls-1" cx="50" cy="50" r="50"/><path class="cls-2" d="M70.18,22.76H22.74a7,7,0,0,0-7.11,7.11V67.82a7,7,0,0,0,7.11,7.12H70.18a7,7,0,0,0,7.12-7.12V29.87A7,7,0,0,0,70.18,22.76ZM32.8,27.67a1.62,1.62,0,1,1-1.62,1.62A1.62,1.62,0,0,1,32.8,27.67Zm-5,0a1.62,1.62,0,1,1-1.62,1.62A1.62,1.62,0,0,1,27.8,27.67Zm-5,0a1.62,1.62,0,1,1-1.62,1.62A1.62,1.62,0,0,1,22.8,27.67ZM72.55,67.82a2.24,2.24,0,0,1-2.37,2.38H22.74a2.24,2.24,0,0,1-2.37-2.38V34.62H72.55Z"/><g id="surface1"><path class="cls-3" d="M46.66,39.44a11.11,11.11,0,0,0-4.42.9.57.57,0,0,0-.39.46.56.56,0,0,0,.24.55.55.55,0,0,0,.6,0,10,10,0,0,1,4-.79,12.1,12.1,0,0,1,5.66,1.32.57.57,0,1,0,.53-1A13.22,13.22,0,0,0,46.66,39.44Zm-6.12,1.87a.53.53,0,0,0-.24.11,15.25,15.25,0,0,0-3.6,3.65c-.42.58-.77,1.1-1.06,1.51a5.35,5.35,0,0,1-.6.78.54.54,0,0,0-.27.54.55.55,0,0,0,.37.48.56.56,0,0,0,.59-.14,4.39,4.39,0,0,0,.83-1c.3-.42.65-.94,1.06-1.49a14.24,14.24,0,0,1,3.31-3.39.56.56,0,0,0,.24-.65.58.58,0,0,0-.57-.39Zm6.49.95a.57.57,0,0,0-.48.65.56.56,0,0,0,.64.48c5.73.34,8.16,3.53,9.18,7.14a18.23,18.23,0,0,1,0,9.18.58.58,0,0,0,.36.72.58.58,0,0,0,.72-.36,18.79,18.79,0,0,0,0-9.84c-1.12-3.92-4.06-7.61-10.21-8H47Zm7.65,0a.57.57,0,0,0-.45.44.58.58,0,0,0,.24.58c4.41,3,5.11,9.94,5.11,9.94a.57.57,0,0,0,.62.51.56.56,0,0,0,.51-.61s-.6-7.3-5.61-10.76A.57.57,0,0,0,54.68,42.3Zm-9.82.17,0,0c-3.9.78-5.79,3.46-7.25,5.73a.58.58,0,0,0,.17.79.57.57,0,0,0,.78-.17c1.45-2.25,3-4.56,6.51-5.25a.57.57,0,0,0,.42-.64A.56.56,0,0,0,44.86,42.47Zm2.36,2.61a7.07,7.07,0,0,0-4.61,1.57.56.56,0,1,0,.7.88,5.88,5.88,0,0,1,3.91-1.32,7.31,7.31,0,0,1,1.43.13.57.57,0,0,0,.55-.19.56.56,0,0,0,.1-.57.58.58,0,0,0-.45-.36A9.51,9.51,0,0,0,47.22,45.08Zm3.53.81,0,0A.57.57,0,0,0,50.57,47c2.47,1.26,4,4,4,7.7A19.35,19.35,0,0,1,54.22,58a.57.57,0,0,0,.45.66.56.56,0,0,0,.66-.45,20.21,20.21,0,0,0,.36-3.58c0-4-1.71-7.23-4.6-8.7A.59.59,0,0,0,50.75,45.89Zm-3.53,2a5.25,5.25,0,0,0-3.47,1.2,8.73,8.73,0,0,0-2,2.66.56.56,0,0,0,.24.77.56.56,0,0,0,.76-.24A7.91,7.91,0,0,1,44.47,50,4,4,0,0,1,47.22,49a3.93,3.93,0,0,1,2.7.95,5.27,5.27,0,0,1,1.45,2.31.56.56,0,0,0,1,.24.54.54,0,0,0,.1-.57,6.16,6.16,0,0,0-1.78-2.82A5.08,5.08,0,0,0,47.22,47.9Zm-5.94.32a.59.59,0,0,0-.37.25C39.79,50,39,51.68,38,52.89a3.63,3.63,0,0,1-3.51,1.78.56.56,0,0,0-.61.51.56.56,0,0,0,.51.62,5,5,0,0,0,4.51-2.22c1.05-1.36,1.84-3,2.87-4.44a.58.58,0,0,0,.08-.59.59.59,0,0,0-.5-.33h-.11Zm-4.47,1.59-.09,0a.55.55,0,0,0-.35.22,4.69,4.69,0,0,1-2.14,1.84.53.53,0,0,0-.42.42.56.56,0,0,0,.19.57.57.57,0,0,0,.6.07,5.75,5.75,0,0,0,2.68-2.23.56.56,0,0,0-.47-.91Zm9.46.56a.62.62,0,0,0-.19.07,4.55,4.55,0,0,0-1.82,2.68,28.17,28.17,0,0,1-1.07,3c-1.11,2.13-3.22,4.24-6.12,4.24a.58.58,0,0,0-.49.28.53.53,0,0,0,0,.57.55.55,0,0,0,.49.28c3.44,0,5.88-2.46,7.12-4.85a23.09,23.09,0,0,0,1.13-3.08,3.88,3.88,0,0,1,1.31-2.08.57.57,0,0,0-.36-1.06Zm2,.11a.56.56,0,0,0-.19,1,3.3,3.3,0,0,1,.88,2.66,16,16,0,0,1-1.11,4.92,12.33,12.33,0,0,1-4,5.57.57.57,0,1,0,.66.93,13.41,13.41,0,0,0,4.39-6.1,16.5,16.5,0,0,0,1.2-5.32c0-1.46-.32-2.87-1.4-3.6A.57.57,0,0,0,48.23,50.48ZM47.14,53a.56.56,0,0,0-.48.53,13.17,13.17,0,0,1-1.09,4,.57.57,0,0,0,0,.6.56.56,0,0,0,1-.14,14.45,14.45,0,0,0,1.2-4.43.56.56,0,0,0-.65-.6Zm-6,.57a.55.55,0,0,0-.39.29,8.11,8.11,0,0,1-2,2.6,5.12,5.12,0,0,1-3.39,1.05.58.58,0,0,0-.49.28.53.53,0,0,0,0,.57.55.55,0,0,0,.49.28,6.33,6.33,0,0,0,4.09-1.3,9.27,9.27,0,0,0,2.26-2.93.57.57,0,0,0,0-.6.54.54,0,0,0-.55-.24Zm11.16.54-.07,0a.56.56,0,0,0-.44.56,18,18,0,0,1-3.4,10.17.57.57,0,1,0,.89.71,19.15,19.15,0,0,0,3.64-10.88.58.58,0,0,0-.18-.43A.59.59,0,0,0,52.25,54.09Zm-7.25,5a.56.56,0,0,0-.4.27,10.21,10.21,0,0,1-4.48,3.79.56.56,0,0,0-.3.74.57.57,0,0,0,.74.3,11.31,11.31,0,0,0,5-4.22.54.54,0,0,0,0-.61A.57.57,0,0,0,45,59.06Zm9.15.88a.58.58,0,0,0-.46.44c-.44,1.68-.88,2.84-.88,2.84a.58.58,0,0,0,.08.58.56.56,0,0,0,1-.19s.46-1.21.92-2.94a.6.6,0,0,0-.1-.52.6.6,0,0,0-.48-.21Z"/></g><rect class="cls-4" x="43.86" y="53.65" width="41.25" height="28.81" rx="3.78"/><path class="cls-1" d="M81.33,55.21a2.21,2.21,0,0,1,2.22,2.22V78.68a2.22,2.22,0,0,1-2.22,2.22H47.64a2.22,2.22,0,0,1-2.22-2.22V57.43a2.21,2.21,0,0,1,2.22-2.22H81.33m0-3.12H47.64a5.35,5.35,0,0,0-5.34,5.34V78.68A5.35,5.35,0,0,0,47.64,84H81.33a5.35,5.35,0,0,0,5.34-5.34V57.43a5.34,5.34,0,0,0-5.34-5.34Z"/><path class="cls-3" d="M59.52,70.18a.55.55,0,0,1-.38-.85,3.83,3.83,0,0,0,.73-1.39,1.84,1.84,0,0,0,.71-1.23c.05-.75-.15-.77-.15-.77.28-.81.34-3.72-1.74-3.36a1.53,1.53,0,0,0-1.47-.71h0a2.3,2.3,0,0,0-2,1.15,3.41,3.41,0,0,0-.3,2.95c0,.07-.13-.08-.17.35a2.1,2.1,0,0,0,.38,1.3,1,1,0,0,0,.35.26,3.23,3.23,0,0,0,.74,1.45.8.8,0,0,1-.44.85,7.14,7.14,0,0,0-2.83,1.12A1.84,1.84,0,0,0,52,72.66v.85c0,.34.24.6.64.8a13.25,13.25,0,0,0,5,.65c2.68,0,5.63-.74,5.63-1.48v-.82C63.26,71.56,61.48,70.54,59.52,70.18Z"/><path class="cls-3" d="M76.82,69.2H66.47a.79.79,0,1,1,0-1.57H76.82a.79.79,0,1,1,0,1.57Z"/><path class="cls-3" d="M76.82,64.83H66.47a.79.79,0,1,1,0-1.57H76.82a.79.79,0,1,1,0,1.57Z"/><path class="cls-3" d="M76.82,73.57H66.47a.79.79,0,1,1,0-1.57H76.82a.79.79,0,1,1,0,1.57Z"/></svg>