<svg xmlns="http://www.w3.org/2000/svg" width="50" height="50" viewBox="0 0 50 50">
  <g id="Group_6761" data-name="Group 6761" transform="translate(151.157 -0.882)">
    <g id="Group_6761-2" data-name="Group 6761" transform="translate(-151.157 0.882)">
      <circle id="Ellipse_2968" data-name="Ellipse 2968" cx="25" cy="25" r="25" transform="translate(0 0)" fill="#e6f5fd"/>
    </g>
    <g id="Group_6765" data-name="Group 6765" transform="translate(-135.017 7.018)">
      <g id="Group_6762" data-name="Group 6762" transform="translate(0 10.452)">
        <path id="Path_14870" data-name="Path 14870" d="M-111.058,51.239a.5.5,0,0,1-.336-.186.5.5,0,0,1-.1-.369h0a.5.5,0,0,1,.555-.44h0a.5.5,0,0,1,.335.186.5.5,0,0,1,.1.369h0a.5.5,0,0,1-.5.445h0a.224.224,0,0,1-.055-.005Zm1.551-.44a.5.5,0,0,1,.1-.37.5.5,0,0,1,.336-.185v0a.5.5,0,0,1,.37.107.5.5,0,0,1,.185.338h0a.506.506,0,0,1-.44.555h-.06a.5.5,0,0,1-.5-.441Zm-3.6-.04h0a.5.5,0,0,1-.3-.645h0a.5.5,0,0,1,.645-.3h0a.5.5,0,0,1,.3.645h0a.5.5,0,0,1-.471.331h0a.51.51,0,0,1-.17-.031Zm5.56-.3a.5.5,0,0,1,.3-.645h0a.5.5,0,0,1,.64.3h0a.5.5,0,0,1-.014.381.5.5,0,0,1-.28.259h0a.542.542,0,0,1-.175.03h0a.5.5,0,0,1-.469-.323Zm-7.44-.645h0a.5.5,0,0,1-.216-.318.5.5,0,0,1,.076-.377h0a.5.5,0,0,1,.319-.213.5.5,0,0,1,.376.076h0a.5.5,0,0,1,.137.695h0a.5.5,0,0,1-.42.221h0a.5.5,0,0,1-.273-.084Zm9.264-.15a.505.505,0,0,1,.137-.7h0a.5.5,0,0,1,.376-.076.5.5,0,0,1,.319.213h0a.5.5,0,0,1,.077.376.5.5,0,0,1-.214.319h0a.507.507,0,0,1-.274.079h0a.508.508,0,0,1-.421-.217Zm-10.869-1.221h-.005a.5.5,0,0,1,.031-.7h0a.5.5,0,0,1,.71.025h0a.5.5,0,0,1-.03.71h0a.488.488,0,0,1-.342.137h0a.479.479,0,0,1-.362-.168Zm12.46.02a.5.5,0,0,1-.031-.71h0a.5.5,0,0,1,.71-.033h0a.5.5,0,0,1,.031.71h0a.513.513,0,0,1-.371.16h0a.515.515,0,0,1-.34-.128Zm-13.7-1.73h0a.5.5,0,0,1-.043-.382.5.5,0,0,1,.243-.3h0a.5.5,0,0,1,.382-.042.5.5,0,0,1,.3.242h0a.5.5,0,0,1-.2.68h0a.517.517,0,0,1-.24.06h0a.5.5,0,0,1-.438-.261Zm14.955.186a.5.5,0,0,1-.242-.3.5.5,0,0,1,.042-.382h0a.5.5,0,0,1,.3-.243.5.5,0,0,1,.382.043h0a.5.5,0,0,1,.2.68h0a.515.515,0,0,1-.445.26h0a.5.5,0,0,1-.233-.06Zm-15.73-2.15h0a.5.5,0,0,1,.365-.61h0a.5.5,0,0,1,.61.36h0a.508.508,0,0,1-.366.61h0a.5.5,0,0,1-.125.015h0a.5.5,0,0,1-.477-.375Zm16.575.342a.505.505,0,0,1-.366-.61h0a.5.5,0,0,1,.23-.307.5.5,0,0,1,.38-.054h0a.5.5,0,0,1,.309.23.5.5,0,0,1,.056.381h0a.507.507,0,0,1-.49.375h0a.493.493,0,0,1-.116-.013Zm-16.845-2.44a.5.5,0,0,1,.146-.354.5.5,0,0,1,.354-.146h0a.491.491,0,0,1,.354.142.491.491,0,0,1,.146.353h0a.5.5,0,0,1-.145.356.5.5,0,0,1-.355.149h0a.5.5,0,0,1-.5-.5Zm16.712-.02v-.012h0v-.015h-.005a.5.5,0,0,1,.5-.5h0a.5.5,0,0,1,.357.144.5.5,0,0,1,.148.356h0v0h0v.029h0a.5.5,0,0,1-.5.505h0a.5.5,0,0,1-.352-.15.5.5,0,0,1-.142-.355Zm-16.1-1.469a.5.5,0,0,1-.365-.6h.005a.5.5,0,0,1,.226-.309.5.5,0,0,1,.379-.056h0a.5.5,0,0,1,.364.61h0a.5.5,0,0,1-.485.375h0a.562.562,0,0,1-.118-.013Zm15.855-.411a.5.5,0,0,1,.053-.38.5.5,0,0,1,.307-.23h0a.5.5,0,0,1,.38.054.5.5,0,0,1,.23.307h0a.5.5,0,0,1-.054.38.5.5,0,0,1-.307.23h0a.509.509,0,0,1-.125.016h0a.5.5,0,0,1-.478-.373Zm-15.245-1.485a.5.5,0,0,1-.242-.3.5.5,0,0,1,.043-.382h0a.5.5,0,0,1,.3-.242.5.5,0,0,1,.382.043h0a.5.5,0,0,1,.2.679h0a.512.512,0,0,1-.445.26h0a.5.5,0,0,1-.229-.057Zm14.555-.245a.5.5,0,0,1-.046-.381.5.5,0,0,1,.241-.3h0a.5.5,0,0,1,.381-.044.5.5,0,0,1,.3.239h0a.5.5,0,0,1,.046.381.5.5,0,0,1-.24.3h0a.471.471,0,0,1-.24.065h0a.5.5,0,0,1-.434-.258Zm-13.5-1.445a.5.5,0,0,1-.163-.349.5.5,0,0,1,.133-.361h0a.5.5,0,0,1,.7-.031h0a.5.5,0,0,1,.164.349.5.5,0,0,1-.133.362h0a.494.494,0,0,1-.366.16h0a.484.484,0,0,1-.333-.127Zm12.4-.065h0a.5.5,0,0,1-.135-.36.5.5,0,0,1,.161-.35h0a.5.5,0,0,1,.71.025h0a.5.5,0,0,1-.025.71h0a.507.507,0,0,1-.342.137h0a.51.51,0,0,1-.361-.158Zm-10.967-1.316a.5.5,0,0,1-.078-.376.5.5,0,0,1,.215-.318h0a.5.5,0,0,1,.376-.076.5.5,0,0,1,.319.213h0a.5.5,0,0,1-.14.7h0a.473.473,0,0,1-.28.085h0a.493.493,0,0,1-.412-.223Zm9.549.11a.507.507,0,0,1-.145-.7h0a.5.5,0,0,1,.319-.213.5.5,0,0,1,.376.076h0v-.005h0a.507.507,0,0,1,.145.7h0a.488.488,0,0,1-.42.225h0a.5.5,0,0,1-.275-.083Zm-7.83-1.12a.5.5,0,0,1,.013-.384.5.5,0,0,1,.283-.261h0a.5.5,0,0,1,.645.3h0a.506.506,0,0,1-.3.645v0a.418.418,0,0,1-.17.035h0a.5.5,0,0,1-.471-.33Zm6.16.279a.5.5,0,0,1-.287-.256.5.5,0,0,1-.018-.384h0a.506.506,0,0,1,.64-.3h0a.5.5,0,0,1,.287.259.5.5,0,0,1,.018.386h0a.5.5,0,0,1-.47.33h0a.471.471,0,0,1-.17-.032Zm-4.255-.86a.5.5,0,0,1,.1-.369.5.5,0,0,1,.335-.187h0a.5.5,0,0,1,.555.44h0a.5.5,0,0,1-.1.369.5.5,0,0,1-.335.187h0a.27.27,0,0,1-.06,0h0a.5.5,0,0,1-.495-.445Zm2.429.435a.5.5,0,0,1-.336-.186.5.5,0,0,1-.1-.369h0a.5.5,0,0,1,.183-.334.5.5,0,0,1,.365-.106h0a.5.5,0,0,1,.445.555h0a.5.5,0,0,1-.5.445h0a.445.445,0,0,0-.053-.006Z" transform="translate(118.876 -34.058)" fill="#019971"/>
      </g>
      <circle id="Ellipse_2969" data-name="Ellipse 2969" cx="8.673" cy="8.673" r="8.673" transform="translate(0.28 0)" fill="#019971"/>
      <circle id="Ellipse_2970" data-name="Ellipse 2970" cx="8.673" cy="8.673" r="8.673" transform="translate(0.28 20.383)" fill="#019971"/>
      <g id="Group_6763" data-name="Group 6763" transform="translate(6.395 5.163)">
        <path id="Path_14871" data-name="Path 14871" d="M-103.529,23.481a1.716,1.716,0,0,0-1.359.616,2.212,2.212,0,0,0-.431,1.406v.28h.767V25.5a1.484,1.484,0,0,1,.264-.927.884.884,0,0,1,.76-.327.879.879,0,0,1,.759.319,1.5,1.5,0,0,1,.264.935v.28h.767V25.5a2.23,2.23,0,0,0-.44-1.414,1.694,1.694,0,0,0-1.351-.608Zm-1.79,2.558a.768.768,0,0,0-.768.767v2.558a.768.768,0,0,0,.768.768h3.581a.768.768,0,0,0,.768-.768V26.806a.768.768,0,0,0-.768-.767Zm1.79,1.279a.512.512,0,0,1,.512.512.508.508,0,0,1-.256.44v.583a.256.256,0,0,1-.255.256.256.256,0,0,1-.256-.256v-.583a.508.508,0,0,1-.256-.44.512.512,0,0,1,.15-.362.512.512,0,0,1,.362-.15Zm0,0" transform="translate(106.087 -23.48)" fill="#f4fcfa"/>
      </g>
      <g id="Group_6764" data-name="Group 6764" transform="translate(6.395 25.73)">
        <path id="Path_14872" data-name="Path 14872" d="M-103.529,64.615a1.717,1.717,0,0,0-1.359.616c-.3.381.436.685.6.479a.884.884,0,0,1,.76-.327.879.879,0,0,1,.759.319,1.5,1.5,0,0,1,.264.935v.28h.767v-.28a2.23,2.23,0,0,0-.44-1.414,1.694,1.694,0,0,0-1.351-.608Zm-1.79,2.558a.768.768,0,0,0-.768.768v2.555a.768.768,0,0,0,.768.768h3.581a.768.768,0,0,0,.767-.768V67.939a.768.768,0,0,0-.768-.768Zm1.79,1.279a.512.512,0,0,1,.512.512.507.507,0,0,1-.256.44v.584a.256.256,0,0,1-.255.256.256.256,0,0,1-.256-.256V69.4a.507.507,0,0,1-.256-.44.512.512,0,0,1,.15-.362.512.512,0,0,1,.362-.15Zm0,0" transform="translate(106.087 -64.614)" fill="#f4fcfa"/>
      </g>
    </g>
  </g>
</svg>
