<svg xmlns="http://www.w3.org/2000/svg" width="50" height="50" viewBox="0 0 50 50">
  <g id="Group_7813" data-name="Group 7813" transform="translate(-0.156)">
    <circle id="Ellipse_422" data-name="Ellipse 422" cx="25" cy="25" r="25" transform="translate(0.156)" fill="#e6f5fd"/>
    <g id="complex-icons-master_complex-icon-soundwave" transform="translate(12.267 11.923)">
      <g id="Group_7481" data-name="Group 7481" transform="translate(0)">
        <g id="surface1" transform="translate(6.316 10.125)">
          <path id="Path_16641" data-name="Path 16641" d="M43.485,44.3a.476.476,0,0,0-.376.486v9.528a.476.476,0,1,0,.94,0V44.786a.469.469,0,0,0-.151-.358.474.474,0,0,0-.366-.127Zm-6.018.5a.477.477,0,0,0-.376.486v8.525a.476.476,0,1,0,.94,0V45.288a.469.469,0,0,0-.151-.358.476.476,0,0,0-.366-.127Zm4.513,1.5a.477.477,0,0,0-.376.486v5.516a.477.477,0,1,0,.94,0V46.792a.477.477,0,0,0-.517-.486Zm-6.018.5a.477.477,0,0,0-.376.486v4.513a.477.477,0,1,0,.94,0V47.294a.478.478,0,0,0-.517-.486Zm3.009.5a.476.476,0,0,0-.376.485v3.51a.476.476,0,1,0,.94,0v-3.51a.469.469,0,0,0-.151-.358.476.476,0,0,0-.367-.127Zm6.018,0a.477.477,0,0,0-.376.485v3.51a.476.476,0,1,0,.94,0v-3.51a.469.469,0,0,0-.151-.358.476.476,0,0,0-.367-.127Zm-10.531,1a.477.477,0,0,0-.376.486v1.5a.476.476,0,1,0,.94,0V48.8a.469.469,0,0,0-.151-.358.477.477,0,0,0-.367-.127Zm6.018,0a.477.477,0,0,0-.376.486v1.5a.476.476,0,1,0,.94,0V48.8a.469.469,0,0,0-.151-.358.477.477,0,0,0-.367-.127Zm6.018,0a.477.477,0,0,0-.376.486v1.5a.476.476,0,1,0,.94,0V48.8a.471.471,0,0,0-.151-.358.477.477,0,0,0-.367-.127Z" transform="translate(-34.076 -44.299)" fill="#9a59c5"/>
        </g>
        <g id="Group_7480" data-name="Group 7480" transform="translate(0 1.374)">
          <path id="Path_16642" data-name="Path 16642" d="M23.36,53.236a.927.927,0,0,0,.983.983H44a.927.927,0,0,0,.983-.983V39.474H23.36Z" transform="translate(-21.394 -32.682)" fill="none"/>
          <path id="Path_16643" data-name="Path 16643" d="M41.126,24.618a15.636,15.636,0,0,0-1.829.013c-1.2.048-.9-.91-1.606-1.592s-1.483-.054-2.071.4a4.16,4.16,0,0,1-2.526,1.179c-1.262-.007-11.628,0-11.628,0a2.9,2.9,0,0,0-2.949,2.949V43.3a2.9,2.9,0,0,0,2.949,2.949h19.66A2.9,2.9,0,0,0,44.075,43.3V27.567A2.9,2.9,0,0,0,41.126,24.618ZM25.632,26.655a.669.669,0,1,1-.669.669A.669.669,0,0,1,25.632,26.655Zm-2.072,0a.669.669,0,1,1-.669.669A.669.669,0,0,1,23.559,26.655Zm-2.072,0a.669.669,0,1,1-.669.669A.669.669,0,0,1,21.487,26.655ZM42.109,43.3a.927.927,0,0,1-.983.983H21.465a.927.927,0,0,1-.983-.983V29.533H42.109Z" transform="translate(-18.516 -22.741)" fill="#079cee"/>
        </g>
        <ellipse id="Ellipse_388" data-name="Ellipse 388" cx="0.619" cy="0.619" rx="0.619" ry="0.619" transform="translate(19.966)" fill="#079cee"/>
        <ellipse id="Ellipse_389" data-name="Ellipse 389" cx="0.334" cy="0.334" rx="0.334" ry="0.334" transform="translate(21.988 0.573)" fill="#079cee"/>
      </g>
    </g>
  </g>
</svg>
