<svg id="Layer_1" data-name="Layer 1" xmlns="http://www.w3.org/2000/svg" viewBox="12 12 75 75">
    <defs>
        <style>.emergency-dashboard__cls-1{fill:#e6f5fd;}.emergency-dashboard__cls-2{fill:#843926;}.emergency-dashboard__cls-3{fill:#ff6f47;}.emergency-dashboard__cls-4{fill:#fff;}</style>
    </defs>
    <ellipse class="emergency-dashboard__cls-2" cx="30.34" cy="62.91" rx="11.39" ry="3.6" />
    <path class="emergency-dashboard__cls-3" d="M34.74,51.62a22.16,22.16,0,0,1-1.58-2.83,9.39,9.39,0,0,1-2.82.43,9.51,9.51,0,1,1,2.52-18.66,24.67,24.67,0,0,1,1.94-3.84A14,14,0,0,0,16.29,39.45a12.27,12.27,0,0,0,2.09,8,14.14,14.14,0,0,0,2,2.5A58.48,58.48,0,0,1,28.13,62.1a2.41,2.41,0,0,0,4.36,0,58.16,58.16,0,0,1,4.39-7.62A23,23,0,0,1,34.74,51.62Z" />
    <ellipse class="emergency-dashboard__cls-2" cx="57.56" cy="77.49" rx="19.07" ry="6.03" />
    <path class="emergency-dashboard__cls-3" d="M57.56,15.64A23.56,23.56,0,0,0,34,38.19a20.66,20.66,0,0,0,3.51,13.43,23.51,23.51,0,0,0,3.31,4.18,97.3,97.3,0,0,1,13,20.34,4,4,0,0,0,7.3,0,98.65,98.65,0,0,1,12.8-20A23.42,23.42,0,0,0,78.52,50a20.45,20.45,0,0,0,2.6-10.54V39.2A23.56,23.56,0,0,0,57.56,15.64Z" />
    <circle class="emergency-dashboard__cls-4" cx="57.56" cy="38.64" r="15.92" />
    <g id="Avatar_-_9-1-1" data-name="Avatar - 9-1-1">
        <circle class="emergency-dashboard__cls-2" cx="57.62" cy="38.59" r="4.32" />
        <circle class="emergency-dashboard__cls-2" cx="57.62" cy="29.91" r="2.45" />
        <circle class="emergency-dashboard__cls-2" cx="57.62" cy="47.27" r="2.45" />
        <circle class="emergency-dashboard__cls-2" cx="48.35" cy="38.59" r="2.45" />
        <circle class="emergency-dashboard__cls-2" cx="66.89" cy="38.59" r="2.45" />
    </g>
</svg>
