<svg id="Group_7810" data-name="Group 7810" xmlns="http://www.w3.org/2000/svg" width="71" height="71" viewBox="0 0 71 71">
  <circle id="Ellipse_421" data-name="Ellipse 421" cx="35.5" cy="35.5" r="35.5" fill="#e6f5fd"/>
  <g id="complex-icons-master_complex-icon-smartphone-fingerprint" transform="translate(35.5 35.663)">
    <g id="Group_7479" data-name="Group 7479" transform="translate(-16.681 -22.635)">
      <g id="Group_7478" data-name="Group 7478">
        <ellipse id="Ellipse_385" data-name="Ellipse 385" cx="16.681" cy="3.957" rx="16.681" ry="3.957" transform="translate(0 37.356)" fill="#e6f5fd"/>
        <g id="surface1" transform="translate(4.948)">
          <path id="Path_16639" data-name="Path 16639" d="M48.409,11.65H33.225a4.141,4.141,0,0,0-4.141,4.141V48.545a4.141,4.141,0,0,0,4.141,4.141H48.409a4.141,4.141,0,0,0,4.141-4.141V15.791A4.141,4.141,0,0,0,48.409,11.65Zm-8.973,1.381H42.2a.69.69,0,1,1,0,1.38H39.437a.69.69,0,1,1,0-1.38Z" transform="translate(-29.084 -11.65)" fill="#079cee"/>
        </g>
        <ellipse id="Ellipse_386" data-name="Ellipse 386" cx="12.124" cy="12.124" rx="12.124" ry="12.124" transform="translate(4.557 8.394)" fill="#fff"/>
        <g id="surface1-2" data-name="surface1" transform="translate(6.77 10.934)">
          <path id="Path_16640" data-name="Path 16640" d="M41.808,31.141a8.136,8.136,0,0,0-3.258.662.415.415,0,1,0,.337.753,7.243,7.243,0,0,1,2.92-.584,8.848,8.848,0,0,1,4.166.973.418.418,0,0,0,.389-.74A9.749,9.749,0,0,0,41.808,31.141Zm-4.5,1.375a.419.419,0,0,0-.181.078,11.526,11.526,0,0,0-2.648,2.686c-.314.429-.568.815-.779,1.116a4.474,4.474,0,0,1-.441.571.415.415,0,1,0,.506.649,3.224,3.224,0,0,0,.61-.74c.219-.313.479-.693.779-1.1a10.643,10.643,0,0,1,2.44-2.492.415.415,0,0,0-.246-.766Zm4.777.7a.419.419,0,0,0,.117.83c4.221.247,6.006,2.6,6.762,5.257a13.5,13.5,0,0,1,0,6.762.417.417,0,1,0,.792.26,13.832,13.832,0,0,0,.013-7.242,7.726,7.726,0,0,0-7.515-5.867.41.41,0,0,0-.091,0h-.078Zm5.633.026a.415.415,0,0,0-.155.753c3.248,2.242,3.764,7.32,3.764,7.32a.417.417,0,1,0,.83-.078s-.444-5.373-4.127-7.917A.418.418,0,0,0,47.713,33.243Zm-7.229.13-.026.013c-2.87.57-4.259,2.546-5.335,4.218a.418.418,0,1,0,.7.454c1.062-1.655,2.224-3.359,4.789-3.868a.415.415,0,0,0-.13-.818Zm1.739,1.921a5.218,5.218,0,0,0-3.4,1.155.416.416,0,0,0,.519.649,4.324,4.324,0,0,1,2.881-.974,5.945,5.945,0,0,1,1.052.091.416.416,0,0,0,.477-.553.417.417,0,0,0-.334-.264A6.773,6.773,0,0,0,42.223,35.294Zm2.6.6-.039.013a.416.416,0,0,0-.091.779c1.819.928,2.933,2.95,2.933,5.672a14.176,14.176,0,0,1-.246,2.479.416.416,0,1,0,.817.156,14.971,14.971,0,0,0,.26-2.635c0-2.952-1.254-5.323-3.388-6.412A.418.418,0,0,0,44.819,35.891Zm-2.6,1.48a3.844,3.844,0,0,0-2.557.882,6.431,6.431,0,0,0-1.453,1.96.418.418,0,0,0,.74.389A5.673,5.673,0,0,1,40.2,38.89a2.938,2.938,0,0,1,2.025-.688,2.88,2.88,0,0,1,1.986.7,3.785,3.785,0,0,1,1.065,1.7.415.415,0,1,0,.792-.247,4.626,4.626,0,0,0-1.311-2.077A3.767,3.767,0,0,0,42.223,37.371Zm-4.374.233a.415.415,0,0,0-.273.182c-.829,1.121-1.428,2.366-2.115,3.258a2.679,2.679,0,0,1-2.583,1.311.417.417,0,1,0-.078.831,3.645,3.645,0,0,0,3.323-1.635c.771-1,1.353-2.239,2.115-3.271a.415.415,0,0,0-.311-.675h-.078Zm-3.3,1.168a.468.468,0,0,0-.065.013.418.418,0,0,0-.26.169,3.46,3.46,0,0,1-1.571,1.35.415.415,0,1,0,.273.779A4.23,4.23,0,0,0,34.9,39.447a.415.415,0,0,0-.351-.675Zm6.97.416a.41.41,0,0,0-.143.052,3.324,3.324,0,0,0-1.337,1.973,20.482,20.482,0,0,1-.792,2.168,5.29,5.29,0,0,1-4.5,3.128.415.415,0,1,0,0,.831,6.108,6.108,0,0,0,5.244-3.569,18.431,18.431,0,0,0,.831-2.271,2.845,2.845,0,0,1,.96-1.531.415.415,0,0,0-.26-.779Zm1.441.078a.415.415,0,0,0-.142.766,2.411,2.411,0,0,1,.649,1.959,11.654,11.654,0,0,1-.818,3.622,9.049,9.049,0,0,1-2.946,4.1.419.419,0,0,0,.48.688,9.812,9.812,0,0,0,3.232-4.491,12.052,12.052,0,0,0,.882-3.92,3.049,3.049,0,0,0-1.025-2.648A.421.421,0,0,0,42.963,39.266Zm-.8,1.843a.415.415,0,0,0-.351.389,9.67,9.67,0,0,1-.8,2.973.415.415,0,1,0,.752.337,10.718,10.718,0,0,0,.883-3.258.415.415,0,0,0-.48-.441Zm-4.452.415a.416.416,0,0,0-.286.221,6.023,6.023,0,0,1-1.441,1.908,3.755,3.755,0,0,1-2.492.779.415.415,0,1,0,0,.831A4.671,4.671,0,0,0,36.5,44.3a6.721,6.721,0,0,0,1.661-2.155.415.415,0,0,0-.415-.623Zm8.215.4a.385.385,0,0,0-.052.013.417.417,0,0,0-.325.415,13.268,13.268,0,0,1-2.5,7.489.421.421,0,0,0,.662.519,14.116,14.116,0,0,0,2.674-8.008.415.415,0,0,0-.454-.428Zm-5.334,3.66a.414.414,0,0,0-.3.195,7.457,7.457,0,0,1-3.3,2.791.416.416,0,1,0,.325.766,8.355,8.355,0,0,0,3.66-3.1.416.416,0,0,0-.389-.649Zm6.736.649a.416.416,0,0,0-.337.325c-.326,1.233-.649,2.09-.649,2.09a.416.416,0,0,0,.461.573.416.416,0,0,0,.318-.287s.339-.894.675-2.168a.416.416,0,0,0-.428-.532Z" transform="translate(-32.333 -31.141)" fill="#00bf8c"/>
        </g>
      </g>
      <ellipse id="Ellipse_387" data-name="Ellipse 387" cx="1.742" cy="1.775" rx="1.742" ry="1.775" transform="translate(14.195 37.562) rotate(-45)" fill="#fff"/>
    </g>
  </g>
</svg>
