<svg xmlns="http://www.w3.org/2000/svg" width="100" height="100" viewBox="0 0 100 100">
    <defs>
        <style>.voice__cls-1{fill:#fff;}.voice__cls-2{fill:#9a59c5;}.voice__cls-3{fill:#d6bce7;}.voice__cls-4{fill:#512e65;}</style>
    </defs>
    <g id="Layer_2" data-name="Layer 2">
        <g id="Isolation_Mode" data-name="Isolation Mode">
            <circle class="voice__cls-1" cx="50" cy="50" r="50" />
            <path class="voice__cls-2" d="M24.92,53.09a1.55,1.55,0,1,1-3.09,0V46.91a1.55,1.55,0,1,1,3.09,0Zm7.87,17.42a3,3,0,0,1-3.19-2.76V31.84a3,3,0,0,1,3.19-2.69h30.1a2.68,2.68,0,0,0,2.44-3.8l0-.06a2.67,2.67,0,0,0-2.43-1.57H30.7a12,12,0,0,0-12,12V64.32a11.75,11.75,0,0,0,12,12H78a3,3,0,0,0,2.43-4.14l0-.06a2.7,2.7,0,0,0-2.44-1.57H45.75S32.86,70.44,32.79,70.51Z" />
            <g id="surface1">
                <path class="voice__cls-3" d="M60.14,39.4a1.08,1.08,0,0,0-.88.93,1.06,1.06,0,0,0,.65,1.1,9.59,9.59,0,0,1,0,17.11,1.07,1.07,0,0,0-.71.89,1.05,1.05,0,0,0,.5,1,1.07,1.07,0,0,0,1.14,0,11.69,11.69,0,0,0,0-20.91,1,1,0,0,0-.6-.13Zm-2.3,2.93a1.07,1.07,0,0,0-.3,2,6.4,6.4,0,0,1,0,11.25,1.07,1.07,0,0,0-.14,1.93,1.07,1.07,0,0,0,1.14-.06,8.5,8.5,0,0,0,0-15,1,1,0,0,0-.5-.17Zm-2.76,3.5a1.06,1.06,0,0,0,0,2.09,2.13,2.13,0,0,1,0,4.13,1.07,1.07,0,1,0,.53,2.07,4.27,4.27,0,0,0,0-8.26.91.91,0,0,0-.4,0Z" />
            </g>
            <path class="voice__cls-4" d="M51.52,38.34a1.53,1.53,0,0,0-1.07.5l-7,6.89H39.77a1.07,1.07,0,0,0-1.07,1.06v6.39a1.07,1.07,0,0,0,1.07,1.07h3.66l7,6.86c1.06,1.06,2.13.52,2.13-.94V39.63C52.55,38.79,52.09,38.33,51.52,38.34Z" />
        </g>
    </g>
</svg>
