<svg xmlns="http://www.w3.org/2000/svg" width="100" height="100" viewBox="0 0 100 100">
    <defs>
        <style>.webrtc-complex__cls-1{fill:#fff;}.webrtc-complex__cls-2{fill:none;}.webrtc-complex__cls-3{fill:#9a59c5;}.webrtc-complex__cls-4{fill:#084f7a;}.webrtc-complex__cls-5{fill:#00bf8c;}</style>
    </defs>
    <g id="Layer_2" data-name="Layer 2">
        <g id="Isolation_Mode" data-name="Isolation Mode">
            <circle class="webrtc-complex__cls-1" cx="50" cy="50" r="50" />
            <path class="webrtc-complex__cls-2" d="M31.33,32.05a1.62,1.62,0,1,0-1.61-1.61A1.62,1.62,0,0,0,31.33,32.05Z" />
            <path class="webrtc-complex__cls-2" d="M36.33,32.05a1.62,1.62,0,1,0-1.61-1.61A1.62,1.62,0,0,0,36.33,32.05Z" />
            <path class="webrtc-complex__cls-2" d="M26.33,32.05a1.62,1.62,0,1,0-1.61-1.61A1.62,1.62,0,0,0,26.33,32.05Z" />
            <path class="webrtc-complex__cls-3" d="M73.72,23.91H26.28A7,7,0,0,0,19.16,31V69a7,7,0,0,0,7.12,7.11H73.72A7,7,0,0,0,80.84,69V31A7,7,0,0,0,73.72,23.91ZM36.33,28.82a1.62,1.62,0,1,1,0,3.23,1.62,1.62,0,0,1,0-3.23Zm-5,0a1.62,1.62,0,1,1,0,3.23,1.62,1.62,0,0,1,0-3.23Zm-5,0a1.62,1.62,0,1,1,0,3.23,1.62,1.62,0,0,1,0-3.23ZM76.09,69a2.24,2.24,0,0,1-2.37,2.37H26.28A2.24,2.24,0,0,1,23.91,69V35.77H76.09Z" />
            <circle class="webrtc-complex__cls-4" cx="82.54" cy="52.25" r="9.07" />
            <g id="surface1">
                <path class="webrtc-complex__cls-1" d="M86.13,54.2c-.6-.51-1.21-.83-1.8-.31L84,54.2c-.26.22-.74,1.27-2.6-.87s-.76-2.48-.5-2.7l.36-.31c.59-.51.37-1.16-.06-1.83l-.26-.4c-.42-.67-.89-1.1-1.48-.59l-.32.28a3,3,0,0,0-1.17,2c-.22,1.41.46,3,2,4.8s3,2.67,4.48,2.65a3,3,0,0,0,2.13-.88l.32-.28c.59-.51.23-1-.38-1.55Z" />
            </g>
            <path class="webrtc-complex__cls-5" d="M62.44,43.74h-28a1.43,1.43,0,0,1,0-2.86h28a1.43,1.43,0,0,1,0,2.86Z" />
            <path class="webrtc-complex__cls-5" d="M59.43,49.47H54.61a1.43,1.43,0,1,1,0-2.85h4.82a1.43,1.43,0,1,1,0,2.85Z" />
            <path class="webrtc-complex__cls-5" d="M49.43,49.47h-15a1.43,1.43,0,1,1,0-2.85h15a1.43,1.43,0,1,1,0,2.85Z" />
            <path class="webrtc-complex__cls-5" d="M40.16,55.15H34.41a1.43,1.43,0,0,1,0-2.86h5.75a1.43,1.43,0,1,1,0,2.86Z" />
            <path class="webrtc-complex__cls-5" d="M62.83,55.27H45.55a1.43,1.43,0,0,1,0-2.86H62.83a1.43,1.43,0,0,1,0,2.86Z" />
            <path class="webrtc-complex__cls-5" d="M52.12,66.62h1.75a1.43,1.43,0,0,0,0-2.86H52.12a1.43,1.43,0,1,0,0,2.86Z" />
            <path class="webrtc-complex__cls-5" d="M34.41,66.74H46.68a1.43,1.43,0,1,0,0-2.86H34.41a1.43,1.43,0,0,0,0,2.86Z" />
            <path class="webrtc-complex__cls-5" d="M58.44,60.94h-24a1.43,1.43,0,1,1,0-2.86h24a1.43,1.43,0,1,1,0,2.86Z" />
            <rect class="webrtc-complex__cls-4" x="7.12" y="44.63" width="20.74" height="15.24" rx="2.73" />
            <g id="surface1-2" data-name="surface1">
                <path class="webrtc-complex__cls-1" d="M21.42,51.71l-6.21-3.07a.6.6,0,0,0-.88.53v6.16a.58.58,0,0,0,.29.5.62.62,0,0,0,.59,0l6.21-3.08a.6.6,0,0,0,.33-.53A.62.62,0,0,0,21.42,51.71Z" />
            </g>
        </g>
    </g>
</svg>
