<svg xmlns="http://www.w3.org/2000/svg" xmlns:xlink="http://www.w3.org/1999/xlink" width="70" height="70" viewBox="0 0 70 70">
  <defs>
    <clipPath id="clip-path">
      <rect id="Rectangle_1972" data-name="Rectangle 1972" width="42.304" height="21.419" fill="none"/>
    </clipPath>
  </defs>
  <g id="Group_7867" data-name="Group 7867" transform="translate(-6482 5044)">
    <circle id="Ellipse_893" data-name="Ellipse 893" cx="35" cy="35" r="35" transform="translate(6482 -5044)" fill="#e6f5fd"/>
    <g id="Group_7861" data-name="Group 7861" transform="translate(6495.434 -5019.692)">
      <g id="Group_7514" data-name="Group 7514" clip-path="url(#clip-path)">
        <g id="Group_7513" data-name="Group 7513" transform="translate(0 0)">
          <g id="Group_7512" data-name="Group 7512" clip-path="url(#clip-path)">
            <g id="Group_7511" data-name="Group 7511" style="mix-blend-mode: multiply;isolation: isolate">
              <g id="Group_7510" data-name="Group 7510">
                <g id="Group_7509" data-name="Group 7509" clip-path="url(#clip-path)">
                  <path id="Path_16696" data-name="Path 16696" d="M10.719,11.1c-2.31-.167-4.637-.092-6.957-.128-.5-.008-.525.364-.593.7-.377,1.888-.747,3.776-1.127,5.663Q1.026,22.379,0,27.422v.418c.9.019,1.808.021,2.709.065.468.022.653-.167.731-.616.192-1.1.442-2.182.641-3.276a.552.552,0,0,1,.649-.534c1.021.008,2.042-.033,3.063-.053a6.261,6.261,0,0,0,5.311-2.819,8.534,8.534,0,0,0,1.537-5.323A4.044,4.044,0,0,0,10.719,11.1m-.461,8.072a2.556,2.556,0,0,1-1.144,1.049,9.915,9.915,0,0,1-4.34.455c.442-2.222.851-4.331,1.3-6.432a.683.683,0,0,1,.507-.417c1.128.044,2.257.12,3.38.242a1.274,1.274,0,0,1,1.14,1.362,6.5,6.5,0,0,1-.841,3.741" transform="translate(0 -6.488)" fill="#076ea8"/>
                  <path id="Path_16697" data-name="Path 16697" d="M82.343,15.283A4.044,4.044,0,0,0,78.42,11.1c-2.31-.167-4.637-.092-6.957-.128-.5-.008-.525.364-.593.7-.377,1.888-.747,3.776-1.127,5.663Q68.727,22.379,67.7,27.422v.418c.9.019,1.808.021,2.709.065.468.022.653-.167.731-.616.192-1.1.442-2.182.641-3.276a.552.552,0,0,1,.65-.534c1.021.008,2.042-.033,3.063-.053a6.261,6.261,0,0,0,5.311-2.819,8.54,8.54,0,0,0,1.537-5.323m-4.384,3.885a2.554,2.554,0,0,1-1.144,1.049,9.914,9.914,0,0,1-4.34.455c.442-2.222.852-4.331,1.3-6.432a.684.684,0,0,1,.507-.417c1.128.044,2.257.12,3.38.242a1.273,1.273,0,0,1,1.14,1.362,6.5,6.5,0,0,1-.841,3.741" transform="translate(-40.046 -6.488)" fill="#076ea8"/>
                  <path id="Path_16698" data-name="Path 16698" d="M46.583,4.718a27.906,27.906,0,0,0-3.527-.242c-.315-.019-.631-.031-1.039-.051L42.86.113a1.583,1.583,0,0,0-.305-.1Q41.58,0,40.606,0c-1.073,0-1.066,0-1.275,1.051Q38.165,6.879,36.991,12.7c-.276,1.379-.54,2.761-.839,4.3.894,0,1.674-.039,2.449.011.685.045.96-.2,1.087-.89.506-2.734,1.067-5.458,1.632-8.18.046-.223.27-.581.415-.583,1.04-.014,2.084.013,3.12.1a.934.934,0,0,1,.888,1.054,5.635,5.635,0,0,1-.063.97c-.283,1.456-.59,2.907-.882,4.361-.2,1.011-.393,2.025-.607,3.136,1.085,0,2.055.031,3.021-.029.177-.011.427-.374.481-.611.316-1.4.589-2.812.868-4.221.23-1.159.471-2.317.667-3.481.383-2.264-.4-3.49-2.647-3.919" transform="translate(-21.384 0)" fill="#076ea8"/>
                </g>
              </g>
            </g>
          </g>
        </g>
      </g>
    </g>
  </g>
</svg>
