<svg xmlns="http://www.w3.org/2000/svg" width="50" height="50" viewBox="0 0 50 50">
  <g id="Group_7896" data-name="Group 7896" transform="translate(-548 -481)">
    <g id="Group_7866" data-name="Group 7866" transform="translate(548 481)">
      <circle id="Ellipse_892" data-name="Ellipse 892" cx="25" cy="25" r="25" fill="#e6f5fd"/>
    </g>
    <g id="c" transform="translate(559.417 491.104)">
      <path id="Path_18142" data-name="Path 18142" d="M231.674,166.58a2.608,2.608,0,0,0-.33-1.335,2.519,2.519,0,0,0-.964-.939q-5.34-3.078-10.688-6.156a2.63,2.63,0,0,0-2.843.025c-1.417.832-8.521,4.9-10.63,6.131a2.466,2.466,0,0,0-1.294,2.283v12.394a2.7,2.7,0,0,0,.313,1.31,2.584,2.584,0,0,0,.981.972c2.118,1.228,9.213,5.29,10.63,6.131a2.615,2.615,0,0,0,2.843.025q5.34-3.09,10.688-6.156a2.473,2.473,0,0,0,.981-.972,2.7,2.7,0,0,0,.313-1.31Z" transform="translate(-204.925 -157.745)" fill="#9a4993"/>
      <path id="Path_18143" data-name="Path 18143" d="M226.438,582.333l-13.111,7.548a2.585,2.585,0,0,0,.981.972c2.118,1.228,9.213,5.29,10.63,6.131a2.614,2.614,0,0,0,2.843.025q5.34-3.09,10.688-6.156a2.474,2.474,0,0,0,.981-.972Z" transform="translate(-213.03 -567.342)" fill="#6a1577"/>
      <path id="Path_18144" data-name="Path 18144" d="M474.735,584.566a4.42,4.42,0,0,0,7.7-.025l-3.815-2.208Z" transform="translate(-465.209 -567.342)" fill="#6a1577"/>
      <path id="Path_18145" data-name="Path 18145" d="M598.008,371.507a2.609,2.609,0,0,0-.33-1.335l-13.012,7.491,13.028,7.548a2.7,2.7,0,0,0,.313-1.31Z" transform="translate(-571.26 -362.672)" fill="#813084"/>
      <g id="Group_7883" data-name="Group 7883" transform="translate(4.475 6.149)">
        <path id="Path_18146" data-name="Path 18146" d="M344.41,342.946a4.429,4.429,0,1,1-.033-4.384l3.865-2.225a8.875,8.875,0,1,0,.033,8.842Zm4.887-4.269h-.882v4.26h.882Zm1.953,0h-.882v4.26h.882Z" transform="translate(-331.662 -331.895)" fill="#fff"/>
        <path id="Path_18147" data-name="Path 18147" d="M790.351,544.289h-4.26v.882h4.26Zm0,1.945h-4.26v.882h4.26Z" transform="translate(-770.047 -536.79)" fill="#fff"/>
      </g>
    </g>
  </g>
</svg>
