<svg xmlns="http://www.w3.org/2000/svg" width="50" height="50" viewBox="0 0 50 50">
  <g id="Group_7895" data-name="Group 7895" transform="translate(-548 -376)">
    <circle id="Ellipse_891" data-name="Ellipse 891" cx="25" cy="25" r="25" transform="translate(548 376)" fill="#e6f5fd"/>
    <g id="java-icon" transform="translate(561.002 383.143)">
      <path id="Path_18148" data-name="Path 18148" d="M11.465,24.587s-1.2.733.837.942a17.171,17.171,0,0,0,6.489-.262,9.814,9.814,0,0,0,1.727.837c-6.122,2.617-13.869-.157-9.054-1.518Zm-.784-3.4s-1.309.994.733,1.2a24.787,24.787,0,0,0,8.374-.418,3.193,3.193,0,0,0,1.256.785c-7.379,2.2-15.648.21-10.363-1.57Zm14.444,5.965s.889.733-.994,1.309c-3.506,1.048-14.705,1.361-17.846,0-1.1-.47.994-1.151,1.665-1.256A5.233,5.233,0,0,1,9,27.047c-1.2-.837-8.007,1.727-3.454,2.458,12.508,2.041,22.817-.889,19.572-2.355ZM12.031,17.626s-5.7,1.361-2.041,1.832a45.555,45.555,0,0,0,7.536-.052c2.355-.21,4.711-.627,4.711-.627a12.612,12.612,0,0,0-1.413.733c-5.808,1.518-16.956.837-13.763-.733a10.848,10.848,0,0,1,4.972-1.151Zm10.206,5.7c5.861-3.036,3.14-5.965,1.256-5.6a3.308,3.308,0,0,0-.681.21.9.9,0,0,1,.523-.418c3.716-1.309,6.647,3.925-1.2,5.965a.655.655,0,0,0,.1-.157ZM12.609,31.6c5.651.366,14.287-.21,14.5-2.88,0,0-.418,1.048-4.657,1.832a47.176,47.176,0,0,1-14.287.21s.733.627,4.449.837Z" transform="translate(-3.994 -0.357)" fill="#4e7896"/>
      <path id="Path_18149" data-name="Path 18149" d="M18.844,0s3.245,3.3-3.087,8.269c-5.076,4.029-1.151,6.332,0,8.949C12.774,14.55,10.629,12.194,12.094,10,14.239,6.751,20.153,5.191,18.844,0Zm-1.665,15.02c1.518,1.727-.418,3.3-.418,3.3s3.873-1.988,2.093-4.449c-1.622-2.355-2.88-3.506,3.925-7.431,0,0-10.728,2.669-5.6,8.583Z" transform="translate(-4.151 -0.001)" fill="#f58219"/>
    </g>
  </g>
</svg>
