<svg xmlns="http://www.w3.org/2000/svg" xmlns:xlink="http://www.w3.org/1999/xlink" width="50" height="50" viewBox="0 0 50 50">
  <defs>
    <clipPath id="clip-path">
      <rect id="Rectangle_2226" data-name="Rectangle 2226" width="35.313" height="21.628" fill="none"/>
    </clipPath>
    <clipPath id="clip-path-2">
      <path id="Path_18216" data-name="Path 18216" d="M119.613,61.963h0L116.251,63.9a.406.406,0,0,0-.2.352v3.885a.406.406,0,0,0,.2.352l3.363,1.943a.407.407,0,0,0,.406,0l3.363-1.943a.407.407,0,0,0,.2-.352V64.256a.406.406,0,0,0-.2-.352l-3.362-1.941a.409.409,0,0,0-.407,0" transform="translate(-116.048 -61.909)" fill="none"/>
    </clipPath>
    <linearGradient id="linear-gradient" x1="-0.681" y1="1.674" x2="-0.673" y2="1.674" gradientUnits="objectBoundingBox">
      <stop offset="0" stop-color="#3e863d"/>
      <stop offset="0.3" stop-color="#3e863d"/>
      <stop offset="0.5" stop-color="#55934f"/>
      <stop offset="0.8" stop-color="#5aad45"/>
      <stop offset="1" stop-color="#5aad45"/>
    </linearGradient>
    <clipPath id="clip-path-3">
      <path id="Path_18217" data-name="Path 18217" d="M117.092,68.52a.407.407,0,0,0,.12.105l2.885,1.666.481.276a.408.408,0,0,0,.234.053.417.417,0,0,0,.08-.015l3.547-6.495a.4.4,0,0,0-.095-.075l-2.2-1.272-1.164-.67a.426.426,0,0,0-.105-.042Z" transform="translate(-117.092 -62.053)" fill="none"/>
    </clipPath>
    <linearGradient id="linear-gradient-2" x1="-0.683" y1="1.6" x2="-0.676" y2="1.6" gradientUnits="objectBoundingBox">
      <stop offset="0" stop-color="#3e863d"/>
      <stop offset="0.57" stop-color="#3e863d"/>
      <stop offset="0.72" stop-color="#619857"/>
      <stop offset="1" stop-color="#76ac64"/>
    </linearGradient>
    <clipPath id="clip-path-4">
      <path id="Path_18218" data-name="Path 18218" d="M122.233,61.92h0a.41.41,0,0,0-.162.052l-3.354,1.936,3.616,6.587a.4.4,0,0,0,.145-.05l3.363-1.943a.408.408,0,0,0,.195-.27v-.01l-3.685-6.3a.425.425,0,0,0-.082-.008l-.034,0" transform="translate(-118.715 -61.918)" fill="none"/>
    </clipPath>
    <linearGradient id="linear-gradient-3" x1="-1.295" y1="1.946" x2="-1.284" y2="1.946" gradientUnits="objectBoundingBox">
      <stop offset="0" stop-color="#6bbf47"/>
      <stop offset="0.16" stop-color="#6bbf47"/>
      <stop offset="0.38" stop-color="#79b461"/>
      <stop offset="0.47" stop-color="#75ac64"/>
      <stop offset="0.7" stop-color="#659e5a"/>
      <stop offset="0.9" stop-color="#3e863d"/>
      <stop offset="1" stop-color="#3e863d"/>
    </linearGradient>
  </defs>
  <g id="Group_7960" data-name="Group 7960" transform="translate(-280 -376)">
    <g id="Group_7862" data-name="Group 7862" transform="translate(280 376)">
      <circle id="Ellipse_888" data-name="Ellipse 888" cx="25" cy="25" r="25" fill="#e6f5fd"/>
    </g>
    <g id="Group_7959" data-name="Group 7959" transform="translate(287.343 390.543)">
      <g id="Group_7952" data-name="Group 7952">
        <g id="Group_7951" data-name="Group 7951" clip-path="url(#clip-path)">
          <path id="Path_18212" data-name="Path 18212" d="M174.135,170.61a.671.671,0,0,1-.334-.089l-1.065-.63c-.159-.089-.081-.12-.029-.139a2.148,2.148,0,0,0,.481-.22.081.081,0,0,1,.079.006l.818.485a.108.108,0,0,0,.1,0l3.189-1.841a.1.1,0,0,0,.049-.086v-3.68a.1.1,0,0,0-.049-.088l-3.188-1.839a.1.1,0,0,0-.1,0l-3.187,1.839a.1.1,0,0,0-.051.087v3.68a.1.1,0,0,0,.049.085l.873.5c.474.237.764-.042.764-.323v-3.632a.091.091,0,0,1,.093-.092h.4a.091.091,0,0,1,.092.092v3.634a.884.884,0,0,1-.944,1,1.367,1.367,0,0,1-.735-.2l-.837-.482a.674.674,0,0,1-.334-.582v-3.68a.67.67,0,0,1,.334-.581l3.192-1.842a.7.7,0,0,1,.671,0l3.188,1.842a.673.673,0,0,1,.334.581v3.68a.675.675,0,0,1-.334.581l-3.188,1.842a.67.67,0,0,1-.336.089" transform="translate(-156.681 -148.982)" fill="#689f63"/>
          <path id="Path_18213" data-name="Path 18213" d="M211.53,187.632c-1.4,0-1.688-.641-1.688-1.178a.092.092,0,0,1,.092-.092h.412a.092.092,0,0,1,.091.078c.062.42.247.631,1.091.631.672,0,.958-.152.958-.508,0-.205-.081-.358-1.126-.46-.873-.086-1.413-.279-1.413-.977,0-.643.543-1.027,1.452-1.027,1.021,0,1.527.354,1.591,1.116a.093.093,0,0,1-.085.1h-.422a.092.092,0,0,1-.089-.072c-.1-.441-.341-.583-1-.583-.734,0-.819.255-.819.447,0,.232.1.3,1.09.431s1.446.314,1.446,1-.58,1.093-1.59,1.093m3.884-3.9h.107a.093.093,0,0,0,.1-.1c0-.094-.065-.094-.1-.094h-.11Zm-.13-.3h.237c.081,0,.241,0,.241.182a.158.158,0,0,1-.13.169c.095.006.1.069.114.156a.674.674,0,0,0,.036.182h-.146c0-.032-.026-.208-.026-.217-.01-.039-.023-.058-.072-.058h-.121v.276h-.133Zm-.285.343a.515.515,0,1,0,.513-.514.516.516,0,0,0-.513.514m1.13,0a.615.615,0,1,1-.615-.615.616.616,0,0,1,.615.615" transform="translate(-193.091 -168.54)" fill="#689f63"/>
          <path id="Path_18214" data-name="Path 18214" d="M7.578,7.229a.408.408,0,0,0-.2-.355L3.993,4.928a.4.4,0,0,0-.186-.053H3.772a.4.4,0,0,0-.187.053L.2,6.874a.411.411,0,0,0-.2.355l.007,5.24a.2.2,0,0,0,.1.176.193.193,0,0,0,.2,0l2.01-1.151a.412.412,0,0,0,.2-.354V8.692a.407.407,0,0,1,.2-.354l.856-.493a.406.406,0,0,1,.2-.055.4.4,0,0,1,.2.055l.855.493a.407.407,0,0,1,.2.354v2.448a.414.414,0,0,0,.2.354l2.009,1.15a.2.2,0,0,0,.2,0,.205.205,0,0,0,.1-.176ZM23.533,9.957a.1.1,0,0,1-.051.088l-1.161.669a.1.1,0,0,1-.1,0l-1.161-.669a.1.1,0,0,1-.051-.088V8.616a.1.1,0,0,1,.05-.089l1.161-.671a.1.1,0,0,1,.1,0l1.161.671a.1.1,0,0,1,.051.089ZM23.847.026a.2.2,0,0,0-.3.179V5.393a.143.143,0,0,1-.214.124l-.847-.488a.408.408,0,0,0-.408,0L18.692,6.981a.408.408,0,0,0-.2.353v3.905a.409.409,0,0,0,.2.354l3.382,1.953a.41.41,0,0,0,.408,0l3.382-1.954a.409.409,0,0,0,.2-.354V1.506a.409.409,0,0,0-.21-.357ZM35.11,8.581a.408.408,0,0,0,.2-.353V7.281a.409.409,0,0,0-.2-.353L31.749,4.977a.408.408,0,0,0-.41,0L27.958,6.929a.408.408,0,0,0-.2.354v3.9a.41.41,0,0,0,.206.355l3.36,1.915a.407.407,0,0,0,.4,0l2.032-1.13a.2.2,0,0,0,0-.355l-3.4-1.953a.2.2,0,0,1-.1-.176V8.62a.2.2,0,0,1,.1-.177l1.059-.611a.2.2,0,0,1,.2,0l1.059.611a.2.2,0,0,1,.1.176v.963a.2.2,0,0,0,.307.176Z" transform="translate(0 0)"/>
          <path id="Path_18215" data-name="Path 18215" d="M386.6,105.078a.077.077,0,0,1,.078,0l.649.374a.078.078,0,0,1,.039.068v.75a.078.078,0,0,1-.039.068l-.649.374a.077.077,0,0,1-.078,0l-.649-.374a.078.078,0,0,1-.04-.068v-.75a.077.077,0,0,1,.039-.068Z" transform="translate(-355.107 -96.68)" fill="#689f63" fill-rule="evenodd"/>
        </g>
      </g>
      <g id="Group_7954" data-name="Group 7954" transform="translate(9.264 4.942)">
        <g id="Group_7953" data-name="Group 7953" clip-path="url(#clip-path-2)">
          <rect id="Rectangle_2227" data-name="Rectangle 2227" width="11.039" height="10.554" transform="translate(-3.399 6.933) rotate(-63.886)" fill="url(#linear-gradient)"/>
        </g>
      </g>
      <g id="Group_7956" data-name="Group 7956" transform="translate(9.347 4.954)">
        <g id="Group_7955" data-name="Group 7955" clip-path="url(#clip-path-3)">
          <rect id="Rectangle_2228" data-name="Rectangle 2228" width="11.004" height="11.262" transform="translate(-4.098 3.028) rotate(-36.46)" fill="url(#linear-gradient-2)"/>
        </g>
      </g>
      <g id="Group_7958" data-name="Group 7958" transform="translate(9.477 4.943)">
        <g id="Group_7957" data-name="Group 7957" clip-path="url(#clip-path-4)">
          <rect id="Rectangle_2229" data-name="Rectangle 2229" width="7.319" height="8.576" fill="url(#linear-gradient-3)"/>
        </g>
      </g>
    </g>
  </g>
</svg>
