<svg xmlns="http://www.w3.org/2000/svg" xmlns:xlink="http://www.w3.org/1999/xlink" width="50" height="50" viewBox="0 0 50 50">
  <defs>
    <clipPath id="clip-path">
      <rect id="Rectangle_2230" data-name="Rectangle 2230" width="30.214" height="15.182" transform="translate(0 0)" fill="none"/>
    </clipPath>
  </defs>
  <g id="Group_7964" data-name="Group 7964" transform="translate(-548 -586)">
    <circle id="Ellipse_893" data-name="Ellipse 893" cx="25" cy="25" r="25" transform="translate(548 586)" fill="#e6f5fd"/>
    <g id="Group_7963" data-name="Group 7963" transform="translate(557.893 603.409)">
      <g id="Group_7962" data-name="Group 7962" transform="translate(0 0)" clip-path="url(#clip-path)">
        <path id="Path_18219" data-name="Path 18219" d="M2.391,10.123H6.872A3.467,3.467,0,0,1,9.731,11.26a3.811,3.811,0,0,1,.585,3.06A5.869,5.869,0,0,1,9.8,16.059,5.169,5.169,0,0,1,8.728,17.6a3.735,3.735,0,0,1-1.789,1.1,8.237,8.237,0,0,1-1.973.234H2.959l-.635,3.177H0L2.391,10.123m1.956,1.906-1,5.016a1.23,1.23,0,0,0,.2.017h.234a8.792,8.792,0,0,0,2.675-.318q1.07-.351,1.438-2.441.3-1.756-.6-2.023a7.5,7.5,0,0,0-2.224-.251q-.2.017-.385.017H4.33l.017-.017" transform="translate(0 -6.93)"/>
        <path id="Path_18220" data-name="Path 18220" d="M35.869,0h2.307l-.652,3.193H39.6a4.163,4.163,0,0,1,2.541.7q.853.669.5,2.541L41.52,12H39.179l1.07-5.317a1.509,1.509,0,0,0-.1-1.187A1.42,1.42,0,0,0,39,5.15l-1.856-.017L35.768,12H33.461L35.869,0" transform="translate(-22.905 0)"/>
        <path id="Path_18221" data-name="Path 18221" d="M65.224,10.123H69.7a3.467,3.467,0,0,1,2.859,1.137,3.811,3.811,0,0,1,.585,3.06,5.868,5.868,0,0,1-.518,1.739,5.169,5.169,0,0,1-1.07,1.538,3.735,3.735,0,0,1-1.789,1.1,8.237,8.237,0,0,1-1.973.234H65.792l-.635,3.177H62.833l2.391-11.988m1.956,1.906-1,5.016a1.23,1.23,0,0,0,.2.017h.234a8.792,8.792,0,0,0,2.675-.318q1.07-.351,1.438-2.441.3-1.756-.6-2.023a7.5,7.5,0,0,0-2.224-.251q-.2.017-.385.017h-.351l.017-.017" transform="translate(-43.011 -6.93)"/>
      </g>
    </g>
  </g>
</svg>
