<svg id="Group_7978" data-name="Group 7978" xmlns="http://www.w3.org/2000/svg" xmlns:xlink="http://www.w3.org/1999/xlink" width="50" height="50" viewBox="0 0 50 50">
  <g id="Group_7977" data-name="Group 7977">
    <path id="Path_18236" data-name="Path 18236" d="M25,0A25,25,0,1,1,0,25,25,25,0,0,1,25,0" fill="#e6f5fd"/>
    <path id="Path_18237" data-name="Path 18237" d="M29.306,15.417a19.389,19.389,0,0,0-3.24.276c-2.869.507-3.391,1.571-3.391,3.525V21.8h6.781v.861H20.13A4.234,4.234,0,0,0,15.894,26.1a12.676,12.676,0,0,0,0,6.891c.482,2.008,1.634,3.438,3.6,3.438h2.331v-3.1a4.309,4.309,0,0,1,4.236-4.214h6.773a3.416,3.416,0,0,0,3.391-3.442h0V19.218a3.786,3.786,0,0,0-3.391-3.525,21.127,21.127,0,0,0-3.533-.276M25.638,17.5a1.292,1.292,0,1,1-1.272,1.312v-.016a1.285,1.285,0,0,1,1.272-1.3" transform="translate(-4.405 -4.405)" fill="#306998"/>
    <path id="Path_18238" data-name="Path 18238" d="M45.913,29c-.487-1.961-1.417-3.439-3.392-3.439H39.978v3.011a4.349,4.349,0,0,1-4.236,4.3H28.969a3.459,3.459,0,0,0-3.391,3.446v6.458c0,1.838,1.6,2.919,3.391,3.446a11.35,11.35,0,0,0,6.773,0c1.707-.494,3.391-1.489,3.391-3.446V40.192H32.359V39.33h5.188c1.309,0,3.764,0,5.086,0,1.886-.052,2.609-1.409,3.281-3.433a11.64,11.64,0,0,0,0-6.892M36.168,41.915A1.292,1.292,0,1,1,34.9,43.227V43.2a1.28,1.28,0,0,1,1.272-1.286" transform="translate(-7.308 -7.303)" fill="#ffd43b"/>
  </g>
</svg>
