<?xml version="1.0" encoding="utf-8"?>
<!-- Generator: Adobe Illustrator 26.4.1, SVG Export Plug-In . SVG Version: 6.00 Build 0)  -->
<svg version="1.1" id="Group_7978" xmlns="http://www.w3.org/2000/svg" xmlns:xlink="http://www.w3.org/1999/xlink" x="0px" y="0px"
	 viewBox="0 0 150 150" style="enable-background:new 0 0 150 150;" xml:space="preserve">
<g>
	<g>
		<g>
			<g id="Group_7977">
				<path id="Path_18236" fill="#E6F5FD" d="M75,0c41.4,0,75,33.6,75,75s-33.6,75-75,75S0,116.4,0,75S33.6,0,75,0"/>
			</g>
		</g>
	</g>
	<path fill="#AA1400" d="M96.5,30.5C96.5,30.5,96.5,30.5,96.5,30.5c-3.8-0.3-7.6-0.1-11.3,0c-2.3,0.1-6.6,1-8.6,1.5
		c-1,0.3-8.6,1.6-13.3,4.4c-2.8,1.7-7.7,5-12.8,9.6C47.7,49,36.9,64.2,35.1,68c-1.4,3.9-2.5,8.1-2.6,8.3c-0.5,2.1-0.6,4.2-0.6,6.3
		c0,0.5,0,1,0,1.5l-0.1,1.3c-0.1,2.8-0.2,5.7,0.1,8.5c-0.1,0.9,0,1.8,0.1,2.6c0.1,0.4,0.1,0.8,0.1,1.2c0,0.3,0.1,0.6,0.1,0.8
		c0,0.1,0.1,0.4,0.1,0.4l0,0c-0.2,0.3,1.8,6.3,2.2,6.4c0,0,0.1,0.1,0.1,0.1c0.1,0.2,0.3,0.6,0.7,0.8c0.3,0.4,0.6,0.7,1,1l0.2,0.2
		c3.6,3.1,8,4.3,13.4,3.8c17.5-1.6,35-3.3,51.4-4.9l0.3,0c1.2-0.1,2.1-0.2,2.9-0.4c0,0,0,0,0,0c0.5,0.1,1.1,0.1,1.7-0.1
		c0.1,0,0.2-0.1,0.3-0.1c0,0,0.1,0,0.1,0l0.3-0.1c0.4-0.2,0.6-0.6,0.6-1l0-0.7l0-0.2c0-0.3,0.1-0.6,0.1-0.8l0.4-8.6
		c0.5-9.8,1-19.7,1.5-29.5c0.1-1.1,0.1-2.3,0.2-3.4c0.2-2.7,0.3-5.5,0.3-8.3c0.1-0.3,0.2-0.6,0.1-1.1l0.1-0.6
		c0.1-0.6,0.1-1.3,0.2-1.9c0.4-3.1,0.2-6.1-0.5-8.9c0,0,0,0,0,0c0,0,0,0,0,0C108.4,34.5,103.4,30.7,96.5,30.5z M85.3,32.8
		c2.4-0.1,4.8-0.2,7.2-0.2l-2.5,1.5l-4.7,2.8l-1.5-1.2c-1.2-0.9-2.3-1.8-3.5-2.7C82,33,83.7,32.9,85.3,32.8z M85.9,40.4l1.8,1.4
		c2,1.6,4.1,3.2,6.1,4.8c2.1,1.7,4.3,3.3,6.4,5c1.5,1.2,3.1,2.4,4.6,3.6c0,0,0,0,0,0c-1.1,0.1-2.2,0.2-3.3,0.3c-0.3,0-0.6,0-0.8,0.1
		c-1,0.1-2,0.2-3.1,0.2c-2.5,0.2-5.2,0.4-7.7,0.6c-1.2,0.1-2.4,0.2-3.6,0.3c-0.4,0-0.9,0.1-1.3,0.1c-0.1,0-0.3,0-0.4,0
		c-0.3,0-0.6,0-1,0.1c-0.2,0-0.4,0-0.5,0.1c-0.3,0-0.6,0.1-0.9,0.1c-0.2,0-0.4,0-0.6,0.1c-0.1,0-0.3,0-0.4,0.1
		C82.7,51.6,84.2,45.9,85.9,40.4z M106,57.4c0.1,0,0.3,0,0.4,0c-0.1,0.3-0.2,0.6-0.3,0.9c0,0.1-0.1,0.1-0.1,0.2
		c-0.1,0.3-0.2,0.6-0.4,0.9c0,0.1-0.1,0.2-0.1,0.3c-0.2,0.3-0.3,0.7-0.5,1.1l-0.2,0.4c-0.4,0.8-0.7,1.6-1.1,2.4
		c-0.1,0.2-0.2,0.5-0.3,0.7c-0.3,0.5-0.5,1.1-0.8,1.6c-0.1,0.3-0.3,0.6-0.5,0.9c-0.2,0.5-0.5,1-0.8,1.4c-0.2,0.3-0.3,0.6-0.5,0.9
		c-0.1,0.2-0.3,0.5-0.4,0.7c-0.1,0-0.1-0.1-0.2-0.1c-0.2-0.2-0.5-0.3-0.7-0.5c-0.1-0.1-0.2-0.1-0.3-0.2c-0.3-0.2-0.6-0.3-0.9-0.5
		c0,0,0,0-0.1,0c-0.5-0.3-1-0.6-1.5-0.9c-2.6-1.7-5.3-3.3-7.9-4.9l-2.1-1.3c-0.6-0.4-1.3-0.8-2-1.2c-0.2-0.1-0.4-0.3-0.6-0.4
		c-0.3-0.2-0.6-0.4-1-0.6c0.1,0,0.2,0,0.2,0c0.4,0,0.8-0.1,1.1-0.1c0.1,0,0.3,0,0.4,0c0.5,0,1-0.1,1.5-0.1c1.2-0.1,2.4-0.2,3.7-0.3
		c2.5-0.3,5.1-0.5,7.7-0.6c1.2-0.1,2.4-0.2,3.7-0.3c0.3,0,0.5,0,0.8-0.1C103.5,57.6,104.7,57.5,106,57.4z M87.3,84.3l-0.9-3.5
		c-0.5-1.8-0.9-3.6-1.4-5.4c-1-4-2-8-3.1-12l-0.6-2.5c0.5,0.3,1,0.5,1.4,0.8c0.2,0.1,0.5,0.3,0.7,0.4c0.7,0.4,1.4,0.9,2.1,1.3
		l2.1,1.3c2.6,1.6,5.3,3.2,7.8,4.9c0.5,0.3,1.1,0.7,1.6,0.9c0.2,0.1,0.4,0.2,0.7,0.4c0.1,0,0.1,0.1,0.2,0.1c0.2,0.1,0.3,0.2,0.5,0.3
		c0.1,0,0.1,0.1,0.2,0.1c0.2,0.1,0.3,0.2,0.5,0.4c0,0,0.1,0.1,0.1,0.1c0,0,0,0,0,0c0,0,0,0,0,0.1c-0.2,0.2-0.3,0.3-0.4,0.5
		c0,0,0,0.1-0.1,0.1c-0.1,0.2-0.3,0.4-0.4,0.5l-0.1,0.1c-0.7,1.1-1.4,2.2-2.2,3.3c-0.1,0.1-0.1,0.2-0.2,0.3c-0.7,1-1.5,2-2.2,3.1
		c-0.1,0.2-0.2,0.3-0.3,0.5c-0.8,1-1.5,2-2.3,2.9c-0.1,0.2-0.3,0.3-0.4,0.5c-0.8,1-1.6,1.9-2.5,2.8c-0.1,0.1-0.1,0.1-0.2,0.2
		C87.7,85.9,87.5,85.1,87.3,84.3z M62.7,76.4c4.7-4.5,9.4-9.1,14-13.6c0.7-0.7,1.4-1.4,2.1-2.1l0.8,3.2c1,4,2,8,3.1,12
		c0.5,1.8,0.9,3.6,1.4,5.4l0.9,3.5c0.2,0.8,0.4,1.6,0.6,2.4c-2.4-0.7-4.7-1.4-7.1-2.2c-2-0.6-4-1.2-6-1.8c-3.5-1.1-6.9-2.1-10.4-3.1
		l-2.5-0.8L62.7,76.4z M61.5,82.4c3.5,1,6.9,2.1,10.4,3.1c2,0.6,4,1.2,6,1.8c2.4,0.8,4.9,1.5,7.3,2.2c-0.1,0.1-0.2,0.2-0.3,0.3
		c0,0-0.1,0-0.1,0.1c-1.3,1.2-2.7,2.5-4.1,3.7c-0.4,0.3-0.8,0.6-1.2,1c-0.1,0.1-0.2,0.2-0.3,0.3c-0.3,0.2-0.6,0.5-0.9,0.7
		c-0.1,0.1-0.3,0.2-0.4,0.3c-0.3,0.2-0.6,0.4-0.8,0.7c-0.2,0.1-0.3,0.3-0.5,0.4c-0.3,0.2-0.5,0.4-0.8,0.6c-0.2,0.1-0.4,0.3-0.6,0.4
		c-0.3,0.2-0.5,0.4-0.8,0.6c-0.2,0.1-0.4,0.3-0.6,0.4c-0.3,0.2-0.6,0.4-0.8,0.6c-0.2,0.1-0.4,0.3-0.6,0.4c-0.3,0.2-0.6,0.3-0.8,0.5
		c-0.2,0.1-0.4,0.3-0.7,0.4c-0.2,0.1-0.4,0.2-0.6,0.3c0,0,0,0,0,0c0,0-0.1-0.1-0.1-0.1c0,0,0,0,0,0c0-0.1-0.1-0.1-0.1-0.2
		c0,0,0-0.1,0-0.1c0-0.1-0.1-0.1-0.1-0.2c0,0,0-0.1,0-0.1c0-0.1-0.1-0.2-0.1-0.3c0,0,0,0,0,0c-0.1-0.3-0.2-0.6-0.4-0.8
		c-0.8-1.5-1.6-2.9-2.4-4.4c-0.4-0.7-0.8-1.4-1.2-2.1c-0.4-0.8-0.9-1.6-1.3-2.4c-0.4-0.7-0.8-1.4-1.2-2.1c-0.4-0.8-0.9-1.7-1.3-2.5
		c-0.3-0.5-0.5-1-0.8-1.5c-0.4-0.8-0.9-1.6-1.3-2.5L61.5,82.4z M41,82.8c0.2,0,0.4,0,0.6,0.1c-0.5,0.1-0.9,0.3-1.4,0.4
		c-0.6,0.2-1.2,0.3-1.9,0.5l-0.9-2.3C38.5,82.1,39.7,82.6,41,82.8z M34.1,85.4l0.1-1.3c0-0.5,0-1,0-1.5c0-1,0-2,0.1-3l2.1,5.4
		l-0.7,1.4c-0.6,1.1-1.1,2.2-1.7,3.3C34,88.3,34.1,86.8,34.1,85.4z M34.6,99.6c0.2-0.7,0.1-1.3,0-1.7c0-0.2-0.1-0.3-0.1-0.4
		c0-0.5-0.1-0.9-0.1-1.3c-0.1-0.7-0.2-1.3-0.1-1.9l0.2-0.3c0.2-0.4,0.5-0.8,0.7-1.2c0.4-0.8,0.8-1.6,1.2-2.4c-0.1,2-0.2,4.1-0.3,6.1
		c-0.1,2.1-0.2,4.2-0.4,6.3L34.6,99.6z M38,105.7l-0.2-0.2c0,0,0,0-0.1-0.1c0,0,0-0.1,0-0.1c0,0,0-0.1,0-0.1c0-0.1,0-0.1,0-0.1
		c0,0,0-0.1,0-0.1c0,0,0-0.1,0-0.1c0,0,0-0.1,0-0.1c0-0.1,0-0.1,0-0.2l0-0.1c0.1-2.7,0.3-5.3,0.4-8c0.1-2.1,0.2-4.3,0.4-6.4l8.3,19
		C43.5,109,40.5,107.8,38,105.7z M39.4,85.9L39.4,85.9c0.5-0.2,1-0.3,1.6-0.5c2-0.6,4.1-1.1,6.1-1.7c2.4-0.6,4.8-1.2,7.3-1.8
		l1.4-0.4l-0.7,2.2c-0.8,2.8-1.7,5.6-2.5,8.4c-0.9,3-1.7,5.9-2.5,8.9c-0.5,1.9-1.1,3.7-1.6,5.6L39.4,85.9z M50.3,108.9
		c0.7-2.4,1.4-4.8,2.1-7.2c0.8-3,1.7-5.9,2.5-8.9c0.8-2.8,1.6-5.6,2.5-8.4l0.3-1.1l0.1-0.4c0.3,0.6,0.7,1.2,1,1.8
		c0.4,0.7,0.8,1.4,1.2,2.1c0.5,0.9,1,1.8,1.4,2.7c0.3,0.6,0.7,1.3,1,1.9c0.5,1,1.1,2,1.6,2.9c0.3,0.5,0.6,1,0.8,1.5
		c0.8,1.5,1.6,3,2.5,4.4c0.1,0.2,0.2,0.4,0.3,0.6c0,0,0,0,0,0c0,0.1,0.1,0.2,0.1,0.3c0,0,0,0.1,0,0.1c0,0.1,0.1,0.2,0.1,0.2
		c0,0,0,0.1,0.1,0.1c0,0.1,0.1,0.1,0.1,0.2c0,0,0.1,0.1,0.1,0.1c0,0,0,0,0,0l-15.9,6.6C51.6,108.8,50.9,108.9,50.3,108.9z M60.7,108
		c2.8-0.9,6.5-2.3,9.7-4c0.1,0,0.1,0,0.2,0c0,0,0.1,0,0.1,0c0.1,0,0.3,0,0.5,0c0,0,0,0,0,0c0,0,0,0,0,0c0,0,0,0,0,0
		c5.3,0.3,10.6,0.6,15.8,0.9c1.3,0.1,2.7,0.2,4,0.2C81.2,106,71,107,60.7,108z M102.9,103.3c-0.3,0-0.8,0.1-0.9,0.1
		c-4.9-0.3-9.8-0.6-14.7-0.8c-4.5-0.3-9-0.5-13.4-0.8c0.2-0.1,0.4-0.3,0.6-0.5l0,0c0.5-0.3,1-0.7,1.5-1c0.1-0.1,0.3-0.2,0.4-0.3
		c0.6-0.4,1.2-0.9,1.8-1.3c0.1-0.1,0.1-0.1,0.2-0.2c0.6-0.5,1.3-1,1.9-1.5c0.1-0.1,0.3-0.2,0.4-0.3c0.6-0.5,1.1-0.9,1.7-1.4
		c1.4-1.2,2.8-2.5,4.2-3.7c0.4-0.3,0.7-0.7,1.1-1C92.7,94.9,97.8,99.1,102.9,103.3C102.9,103.3,102.9,103.3,102.9,103.3z
		 M102.1,86.1c0.5,3.2,1.1,6.5,1.7,9.8c0.2,0.8,0.3,1.7,0.4,2.5c0.1,0.5,0.2,1,0.2,1.5c0,0.2,0.1,0.4,0.1,0.5
		c0.1,0.4,0.1,0.7,0.2,1.1c0,0.1,0,0.2,0.1,0.3c-1.5-1.3-3.1-2.5-4.6-3.8c-3.7-3-7.3-6.1-11-9.1l-0.1-0.1c0.1-0.1,0.1-0.2,0.2-0.2
		c0.9-1,1.8-2,2.7-3.1c0.1-0.1,0.2-0.2,0.3-0.3c0.9-1.1,1.8-2.2,2.7-3.3c0-0.1,0.1-0.1,0.1-0.2c0.9-1.1,1.7-2.3,2.5-3.4
		c0,0,0-0.1,0.1-0.1c0.8-1.2,1.6-2.3,2.4-3.5c0-0.1,0.1-0.1,0.1-0.2l0.1,0.3l0.1,0.3c0.3,1.9,0.7,3.9,1,5.8
		C101.5,82.8,101.8,84.4,102.1,86.1z M107.6,61.3c-0.1,1.2-0.1,2.3-0.2,3.5c-0.5,9.8-1,19.7-1.5,29.5l0,0.2c-0.2-1-0.3-1.9-0.5-2.9
		c-0.1-0.4-0.2-0.9-0.2-1.3c-0.3-1.5-0.5-3.1-0.8-4.6c-0.3-1.7-0.6-3.4-0.9-5c-0.3-1.9-0.7-3.9-1-5.8l0,0c0,0,0-0.1,0-0.1l-0.1-0.4
		l-0.4-2.2c0,0,0-0.1,0-0.1l-0.1-0.2c0.3-0.4,0.5-0.8,0.7-1.2c0.2-0.3,0.4-0.6,0.6-1c0.3-0.5,0.6-1,0.8-1.6c0.2-0.3,0.3-0.6,0.5-0.9
		c0.3-0.6,0.6-1.2,0.9-1.8c0.1-0.2,0.2-0.5,0.3-0.7c0.4-0.8,0.8-1.7,1.2-2.5l0.2-0.4c0.1-0.3,0.3-0.6,0.4-0.9c0-0.1,0.1-0.1,0.1-0.2
		C107.6,60.9,107.6,61.1,107.6,61.3z M108.2,49.4c-0.1,0.6-0.1,1.3-0.2,1.9l-0.1,0.6c0,0,0,0.1,0,0.1c0,0,0,0.1,0,0.1
		c0,0.1-0.1,0.2-0.1,0.3c0,0.1,0,0.1,0,0.2c0,0,0,0.1,0,0.1c0,0,0,0,0,0c0,0,0,0,0,0c-0.1,0.1-0.1,0.3-0.2,0.4c0,0.1,0,0.1-0.1,0.2
		c0,0.1-0.1,0.2-0.1,0.3c0,0,0,0.1,0,0.1c0,0.1-0.1,0.3-0.1,0.4c0,0,0,0,0,0c-1.9-1.5-3.8-2.9-5.7-4.4c-2.1-1.7-4.3-3.3-6.4-5
		c-2-1.6-4.1-3.2-6.1-4.8l1.7,0.2c4.2,0.5,8.5,1.1,12.7,1.5c0.5,0.1,1,0.1,1.5,0.2c0.4,0.1,0.8,0.1,1.2,0.2c0.1,0,0.2,0,0.3,0
		c0.4,0,0.9,0.1,1.3,0.1c0,0,0,0,0,0C108.4,44.5,108.5,46.9,108.2,49.4z M107.2,39.9c-0.2,0-0.4,0-0.6-0.1c-0.1,0-0.2,0-0.3,0
		c-0.3,0-0.6-0.1-0.9-0.1c-0.5-0.1-1.1-0.2-1.6-0.2c-4.2-0.4-8.5-1-12.7-1.5l-2.4-0.3l8-4.8C101.9,33,105.7,35.6,107.2,39.9
		C107.3,39.9,107.2,39.9,107.2,39.9z"/>
</g>
</svg>
